<?xml version="1.0" encoding="UTF-8" standalone="no"?>
<svg
   width="450"
   height="255"
   viewBox="0 0 450 255"
   fill="none"
   version="1.1"
   id="svg53"
   xmlns="http://www.w3.org/2000/svg"
   xmlns:svg="http://www.w3.org/2000/svg">
  <rect
     x="187"
     y="36"
     width="85"
     height="49"
     rx="5"
     stroke="#808080"
     stroke-linejoin="round"
     id="rect2" />
  <rect
     x="142"
     y="187"
     width="115"
     height="49"
     rx="5"
     stroke="#808080"
     stroke-linejoin="round"
     id="rect3" />
  <path
     d="m 62.3536,168.354 c 0.1952,-0.196 0.1952,-0.512 0,-0.708 l -3.182,-3.182 c -0.1953,-0.195 -0.5119,-0.195 -0.7071,0 -0.1953,0.196 -0.1953,0.512 0,0.708 l 2.8284,2.828 -2.8284,2.828 c -0.1953,0.196 -0.1953,0.512 0,0.708 0.1952,0.195 0.5118,0.195 0.7071,0 z M 62,122.5 H 44.5 v 1 H 62 Z m -17.5,16 h 10 v -1 h -10 z m 10,14 h -10 v 1 h 10 z m -10,16 H 62 v -1 H 44.5 Z m -8,-8 c 0,4.418 3.5817,8 8,8 v -1 c -3.866,0 -7,-3.134 -7,-7 z m 8,-8 c -4.4183,0 -8,3.582 -8,8 h 1 c 0,-3.866 3.134,-7 7,-7 z m 17,-7 c 0,3.866 -3.134,7 -7,7 v 1 c 4.4183,0 8,-3.582 8,-8 z m -7,-7 c 3.866,0 7,3.134 7,7 h 1 c 0,-4.418 -3.5817,-8 -8,-8 z m -18,-8 c 0,4.418 3.5817,8 8,8 v -1 c -3.866,0 -7,-3.134 -7,-7 z m 8,-8 c -4.4183,0 -8,3.582 -8,8 h 1 c 0,-3.866 3.134,-7 7,-7 z"
     fill="#808080"
     id="path3" />
  <path
     d="m 392.348,58.5 c -0.276,0 -0.5,-0.2239 -0.5,-0.5 0,-0.2761 0.224,-0.5 0.5,-0.5 z m 0.298,44.854 c -0.195,-0.196 -0.195,-0.512 0,-0.708 l 3.182,-3.1816 c 0.196,-0.1952 0.512,-0.1952 0.708,0 0.195,0.1953 0.195,0.5119 0,0.7076 l -2.829,2.828 2.829,2.828 c 0.195,0.196 0.195,0.512 0,0.707 -0.196,0.196 -0.512,0.196 -0.708,0 z M 392.348,57.5 H 405.5 v 1 h -13.152 z m 13.152,16 h -15.079 v -1 H 405.5 Z m -15.079,13.8421 h 9.348 v 1 h -9.348 z M 399.769,103.5 H 393 v -1 h 6.769 z m 8.079,-8.079 c 0,4.4619 -3.617,8.079 -8.079,8.079 v -1 c 3.909,0 7.079,-3.1694 7.079,-7.079 z m -8.079,-8.0789 c 4.462,0 8.079,3.617 8.079,8.0789 h -1 c 0,-3.9096 -3.17,-7.0789 -7.079,-7.0789 z M 383.5,80.421 c 0,3.8224 3.099,6.9211 6.921,6.9211 v 1 c -4.375,0 -7.921,-3.5464 -7.921,-7.9211 z m 6.921,-6.921 c -3.822,0 -6.921,3.0987 -6.921,6.921 h -1 c 0,-4.3746 3.546,-7.921 7.921,-7.921 z m 23.079,-8 c 0,4.4183 -3.582,8 -8,8 v -1 c 3.866,0 7,-3.134 7,-7 z m -8,-8 c 4.418,0 8,3.5817 8,8 h -1 c 0,-3.866 -3.134,-7 -7,-7 z"
     fill="#808080"
     id="path4" />
  <rect
     x="77"
     y="18"
     width="70"
     height="56"
     rx="5"
     fill="#f2f2f2"
     stroke="#808080"
     stroke-linejoin="round"
     id="rect4" />
  <rect
     x="82"
     y="33"
     width="60"
     height="35"
     fill="#ffffff"
     stroke="#808080"
     stroke-linejoin="round"
     id="rect5" />
  <path
     d="M 331,30.6471 352.5,18 374,30.6471 352.5,43.2941 Z"
     fill="#ffffff"
     stroke="#808080"
     stroke-linejoin="round"
     id="path5" />
  <path
     d="M 352.5,66.0587 331,54.103 V 30.647 l 21.5,11.9557 z"
     fill="#f2f2f2"
     stroke="#808080"
     stroke-linejoin="round"
     id="path6" />
  <path
     d="M 352.5,66.0587 374,54.103 V 30.647 l -21.5,11.9557 z"
     fill="#ffffff"
     stroke="#808080"
     stroke-linejoin="round"
     id="path7" />
  <path
     d="M 289,42.3529 301.5,35 l 12.5,7.3529 -12.5,7.353 z"
     fill="#ffffff"
     stroke="#808080"
     stroke-linejoin="round"
     id="path8" />
  <path
     d="M 301.5,63.294 289,56.343 V 42.7058 l 12.5,6.951 z"
     fill="#f2f2f2"
     stroke="#808080"
     stroke-linejoin="round"
     id="path9" />
  <path
     d="M 301.5,63.294 314,56.343 V 42.7058 l -12.5,6.951 z"
     fill="#ffffff"
     stroke="#808080"
     stroke-linejoin="round"
     id="path10" />
  <path
     d="m 77,177 c 0,-5.523 4.4772,-10 10,-10 h 150 c 2.761,0 5,2.239 5,5 v 40 c 0,5.523 -4.477,10 -10,10 H 94.5232 c -1.2977,0 -2.5446,0.505 -3.4771,1.407 L 77,237 Z"
     fill="#f2f2f2"
     stroke="#808080"
     stroke-linejoin="round"
     id="path11" />
  <path
     d="m 162,28 c 0,-5.5228 4.477,-10 10,-10 h 85 c 2.761,0 5,2.2386 5,5 v 40 c 0,5.5228 -4.477,10 -10,10 h -72.881 c -1.354,0 -2.651,0.5495 -3.593,1.5229 L 162,88.5 Z"
     fill="#f2f2f2"
     stroke="#808080"
     stroke-linejoin="round"
     id="path12" />
  <rect
     x="177"
     y="28"
     width="70"
     height="35"
     rx="5"
     fill="#ffffff"
     stroke="#808080"
     stroke-linejoin="round"
     id="rect12" />
  <path
     d="M 187,33 207,45.5 187,58 Z"
     fill="#f2f2f2"
     stroke="#808080"
     stroke-linejoin="round"
     id="path13" />
  <path
     d="M 207,33 227,45.5 207,58 Z"
     fill="#f2f2f2"
     stroke="#808080"
     stroke-linejoin="round"
     id="path14" />
  <circle
     cx="307"
     cy="202"
     r="35"
     fill="#f2f2f2"
     stroke="#808080"
     stroke-linejoin="round"
     id="circle14" />
  <circle
     cx="307"
     cy="202"
     r="28"
     fill="#ffffff"
     stroke="#808080"
     stroke-linejoin="round"
     id="circle15" />
  <path
     fill-rule="evenodd"
     clip-rule="evenodd"
     d="m 325.478,194.346 c 0.429,1.036 0.769,2.104 1.018,3.192 0.554,2.422 -1.511,4.462 -3.996,4.462 -2.485,0 -4.435,-2.061 -5.191,-4.429 -0.142,-0.443 -0.305,-0.881 -0.489,-1.311 -0.779,-1.82 -1.921,-3.474 -3.36,-4.867 -1.439,-1.392 -3.148,-2.497 -5.028,-3.251 -1.881,-0.754 -3.897,-1.142 -5.932,-1.142 -2.035,0 -4.051,0.388 -5.932,1.142 -1.88,0.754 -3.589,1.859 -5.028,3.251 -1.439,1.393 -2.581,3.047 -3.36,4.867 -0.779,1.82 -1.18,3.77 -1.18,5.74 0,-2.626 0.517,-5.227 1.522,-7.654 1.006,-2.426 2.479,-4.631 4.336,-6.488 1.857,-1.857 4.062,-3.33 6.488,-4.336 2.427,-1.005 5.028,-1.522 7.654,-1.522 2.626,0 5.227,0.517 7.654,1.522 2.426,1.006 4.631,2.479 6.488,4.336 1.857,1.857 3.33,4.062 4.336,6.488 z"
     fill="#f2f2f2"
     id="path15" />
  <path
     d="m 325.478,194.346 0.462,-0.191 v 0 z m -8.658,1.914 -0.46,0.196 z m -20.252,-8.118 -0.186,-0.464 z m -5.028,3.251 0.348,0.36 v 0 z m -3.36,4.867 -0.46,-0.197 z M 286.5,202 c 0,0.276 0.224,0.5 0.5,0.5 0.276,0 0.5,-0.224 0.5,-0.5 z m 2.022,-7.654 -0.462,-0.191 v 0 z m 4.336,-6.488 0.353,0.353 z m 6.488,-4.336 0.192,0.462 z m 15.308,0 -0.192,0.462 z m 6.488,4.336 -0.353,0.353 v 0 z m 5.354,9.68 -0.488,0.111 z m 0.487,-0.112 c -0.255,-1.115 -0.604,-2.209 -1.043,-3.271 l -0.924,0.383 c 0.418,1.01 0.75,2.051 0.992,3.111 z m -9.198,-0.007 c -0.146,-0.458 -0.315,-0.911 -0.505,-1.356 l -0.92,0.393 c 0.178,0.416 0.336,0.839 0.473,1.268 z m -0.505,-1.356 c -0.806,-1.882 -1.986,-3.59 -3.472,-5.029 l -0.696,0.719 c 1.393,1.347 2.496,2.945 3.248,4.703 z m -3.472,-5.029 c -1.487,-1.438 -3.25,-2.579 -5.19,-3.356 l -0.372,0.928 c 1.821,0.73 3.474,1.799 4.866,3.147 z m -5.19,-3.356 C 306.678,186.9 304.599,186.5 302.5,186.5 v 1 c 1.972,0 3.924,0.376 5.746,1.106 z M 302.5,186.5 c -2.099,0 -4.178,0.4 -6.118,1.178 l 0.372,0.928 c 1.822,-0.73 3.774,-1.106 5.746,-1.106 z m -6.118,1.178 c -1.94,0.777 -3.703,1.918 -5.19,3.356 l 0.696,0.719 c 1.392,-1.348 3.045,-2.417 4.866,-3.147 z m -5.19,3.356 c -1.486,1.439 -2.666,3.147 -3.472,5.029 l 0.92,0.393 c 0.752,-1.758 1.855,-3.356 3.248,-4.703 z m -3.472,5.029 c -0.805,1.882 -1.22,3.899 -1.22,5.937 h 1 c 0,-1.902 0.387,-3.785 1.14,-5.544 z m 0.34,-1.908 c -1.03,2.487 -1.56,5.153 -1.56,7.845 h 1 c 0,-2.561 0.504,-5.096 1.484,-7.462 z m 4.444,-6.651 c -1.903,1.904 -3.413,4.164 -4.444,6.651 l 0.924,0.383 c 0.98,-2.366 2.417,-4.516 4.227,-6.327 z m 6.651,-4.444 c -2.487,1.031 -4.747,2.541 -6.651,4.444 l 0.707,0.707 c 1.811,-1.81 3.961,-3.247 6.327,-4.227 z M 307,181.5 c -2.692,0 -5.358,0.53 -7.845,1.56 l 0.383,0.924 c 2.366,-0.98 4.901,-1.484 7.462,-1.484 z m 7.845,1.56 c -2.487,-1.03 -5.153,-1.56 -7.845,-1.56 v 1 c 2.561,0 5.096,0.504 7.462,1.484 z m 6.651,4.444 c -1.904,-1.903 -4.164,-3.413 -6.651,-4.444 l -0.383,0.924 c 2.366,0.98 4.516,2.417 6.327,4.227 z m 4.444,6.651 c -1.031,-2.487 -2.541,-4.747 -4.444,-6.651 l -0.707,0.707 c 1.81,1.811 3.247,3.961 4.227,6.327 z m -3.44,7.345 c -2.186,0 -3.996,-1.83 -4.715,-4.081 l -0.952,0.305 c 0.793,2.484 2.883,4.776 5.667,4.776 z m 3.508,-3.851 c 0.465,2.032 -1.259,3.851 -3.508,3.851 v 1 c 2.721,0 5.127,-2.26 4.483,-5.074 z"
     fill="#808080"
     id="path16" />
  <path
     d="m 316,194.5 6.5,-5 m -13,-0.5 4,-6.5"
     stroke="#808080"
     id="path17" />
  <circle
     cx="109.5"
     cy="194.5"
     r="17.5"
     fill="#ffffff"
     stroke="#808080"
     stroke-linejoin="round"
     id="circle17" />
  <circle
     cx="124.5"
     cy="194.5"
     r="17.5"
     fill="#ffffff"
     stroke="#808080"
     stroke-linejoin="round"
     id="circle18" />
  <circle
     cx="139.5"
     cy="194.5"
     r="17.5"
     fill="#ffffff"
     stroke="#808080"
     stroke-linejoin="round"
     id="circle19" />
  <circle
     cx="154.5"
     cy="194.5"
     r="17.5"
     fill="#ffffff"
     stroke="#808080"
     stroke-linejoin="round"
     id="circle20" />
  <circle
     cx="169.5"
     cy="194.5"
     r="17.5"
     fill="#ffffff"
     stroke="#808080"
     stroke-linejoin="round"
     id="circle21" />
  <circle
     cx="184.5"
     cy="194.5"
     r="17.5"
     fill="#ffffff"
     stroke="#808080"
     stroke-linejoin="round"
     id="circle22" />
  <circle
     cx="199.5"
     cy="194.5"
     r="17.5"
     fill="#ffffff"
     stroke="#808080"
     stroke-linejoin="round"
     id="circle23" />
  <circle
     cx="214.5"
     cy="194.5"
     r="17.5"
     fill="#ffffff"
     stroke="#808080"
     stroke-linejoin="round"
     id="circle24" />
  <circle
     cx="168.5"
     cy="-368.5"
     r="7.5"
     transform="rotate(90)"
     fill="#ffffff"
     stroke="#808080"
     stroke-linejoin="round"
     id="circle25" />
  <circle
     cx="138.5"
     cy="-394.5"
     r="7.5"
     transform="rotate(90)"
     fill="#f2f2f2"
     stroke="#808080"
     stroke-linejoin="round"
     id="circle26" />
  <circle
     cx="25.5"
     cy="-394.5"
     r="7.5"
     transform="rotate(90)"
     fill="#ffffff"
     stroke="#808080"
     stroke-linejoin="round"
     id="circle27" />
  <path
     d="m 319.014,197.855 c 0.413,-0.399 1.056,-0.434 1.51,-0.082 0.455,0.351 0.583,0.982 0.301,1.483 l -10.613,18.84 c -1.294,2.297 -4.324,2.91 -6.409,1.298 -2.085,-1.613 -2.254,-4.7 -0.356,-6.53 z"
     fill="#ffffff"
     stroke="#808080"
     stroke-linejoin="round"
     id="path27" />
  <circle
     cx="168.5"
     cy="-394.5"
     r="7.5"
     transform="rotate(90)"
     fill="#ffffff"
     stroke="#808080"
     stroke-linejoin="round"
     id="circle28" />
  <circle
     cx="195.5"
     cy="-369.5"
     r="7.5"
     transform="rotate(90)"
     fill="#f2f2f2"
     stroke="#808080"
     stroke-linejoin="round"
     id="circle29" />
  <circle
     cx="44.5"
     cy="60.5"
     r="7.5"
     fill="#f2f2f2"
     stroke="#808080"
     stroke-linejoin="round"
     id="circle30" />
  <circle
     cx="44.5"
     cy="30.5"
     r="7.5"
     fill="#f2f2f2"
     stroke="#808080"
     stroke-linejoin="round"
     id="circle31" />
  <path
     fill-rule="evenodd"
     clip-rule="evenodd"
     d="M 58.9826,93.0153 C 58.9941,92.845 59,92.6732 59,92.5 59,88.3579 55.6421,85 51.5,85 47.3579,85 44,88.3579 44,92.5 c 0,0.168 0.0055,0.3347 0.0164,0.5 H 43.5 c -4.1421,0 -7.5,3.3579 -7.5,7.5 0,4.142 3.3579,7.5 7.5,7.5 h 15 c 4.1421,0 7.5,-3.358 7.5,-7.5 0,-3.98 -3.1002,-7.236 -7.0174,-7.4847 z"
     fill="#ffffff"
     id="path31" />
  <path
     d="m 58.9826,93.0153 -0.4989,-0.0339 c -0.009,0.1327 0.0352,0.2635 0.1229,0.3635 0.0877,0.1 0.2116,0.1609 0.3443,0.1694 z M 44.0164,93 v 0.5 c 0.1383,0 0.2704,-0.0573 0.365,-0.1583 0.0945,-0.1009 0.143,-0.2365 0.1339,-0.3745 z M 58.5,92.5 c 0,0.1619 -0.0055,0.3224 -0.0163,0.4814 l 0.9977,0.0677 C 59.4937,92.8676 59.5,92.6845 59.5,92.5 Z m -7,-7 c 3.866,0 7,3.134 7,7 h 1 c 0,-4.4183 -3.5817,-8 -8,-8 z m -7,7 c 0,-3.866 3.134,-7 7,-7 v -1 c -4.4183,0 -8,3.5817 -8,8 z m 0.0153,0.4672 C 44.5052,92.8128 44.5,92.6571 44.5,92.5 h -1 c 0,0.179 0.0059,0.3567 0.0175,0.5328 z M 43.5,93.5 h 0.5164 v -1 H 43.5 Z m -7,7 c 0,-3.866 3.134,-7 7,-7 v -1 c -4.4183,0 -8,3.5817 -8,8 z m 7,7 c -3.866,0 -7,-3.134 -7,-7 h -1 c 0,4.418 3.5817,8 8,8 z m 15,0 h -15 v 1 h 15 z m 7,-7 c 0,3.866 -3.134,7 -7,7 v 1 c 4.4183,0 8,-3.582 8,-8 z M 58.9509,93.5143 C 62.6065,93.7464 65.5,96.7855 65.5,100.5 h 1 c 0,-4.2456 -3.3069,-7.7183 -7.4857,-7.9837 z"
     fill="#808080"
     id="path32" />
  <path
     fill-rule="evenodd"
     clip-rule="evenodd"
     d="m 379.983,222.015 c 0.011,-0.17 0.017,-0.342 0.017,-0.515 0,-4.142 -3.358,-7.5 -7.5,-7.5 -4.142,0 -7.5,3.358 -7.5,7.5 0,0.168 0.006,0.335 0.016,0.5 H 364.5 c -4.142,0 -7.5,3.358 -7.5,7.5 0,4.142 3.358,7.5 7.5,7.5 h 15 c 4.142,0 7.5,-3.358 7.5,-7.5 0,-3.98 -3.1,-7.236 -7.017,-7.485 z"
     fill="#ffffff"
     id="path33" />
  <path
     d="m 379.983,222.015 -0.499,-0.034 c -0.009,0.133 0.035,0.264 0.123,0.364 0.087,0.1 0.211,0.161 0.344,0.169 z M 365.016,222 v 0.5 c 0.139,0 0.271,-0.057 0.365,-0.158 0.095,-0.101 0.143,-0.237 0.134,-0.375 z m 14.484,-0.5 c 0,0.162 -0.005,0.322 -0.016,0.481 l 0.997,0.068 c 0.013,-0.181 0.019,-0.365 0.019,-0.549 z m -7,-7 c 3.866,0 7,3.134 7,7 h 1 c 0,-4.418 -3.582,-8 -8,-8 z m -7,7 c 0,-3.866 3.134,-7 7,-7 v -1 c -4.418,0 -8,3.582 -8,8 z m 0.015,0.467 c -0.01,-0.154 -0.015,-0.31 -0.015,-0.467 h -1 c 0,0.179 0.006,0.357 0.017,0.533 z M 364.5,222.5 h 0.516 v -1 H 364.5 Z m -7,7 c 0,-3.866 3.134,-7 7,-7 v -1 c -4.418,0 -8,3.582 -8,8 z m 7,7 c -3.866,0 -7,-3.134 -7,-7 h -1 c 0,4.418 3.582,8 8,8 z m 15,0 h -15 v 1 h 15 z m 7,-7 c 0,3.866 -3.134,7 -7,7 v 1 c 4.418,0 8,-3.582 8,-8 z m -6.549,-6.986 c 3.656,0.232 6.549,3.272 6.549,6.986 h 1 c 0,-4.246 -3.307,-7.718 -7.486,-7.984 z"
     fill="#808080"
     id="path34" />
  <path
     d="m 86,90 v 20"
     stroke="#808080"
     stroke-width="2"
     stroke-linecap="round"
     stroke-linejoin="round"
     stroke-dasharray="0, 11"
     id="path35" />
  <path
     d="m 51,187 v 50"
     stroke="#808080"
     stroke-width="2"
     stroke-linecap="round"
     stroke-linejoin="round"
     stroke-dasharray="0, 11"
     id="path36" />
  <path
     d="m 273,19 h 50"
     stroke="#808080"
     stroke-width="2"
     stroke-linecap="round"
     stroke-linejoin="round"
     stroke-dasharray="0, 11"
     id="path37" />
  <path
     d="M 413,20 V 40"
     stroke="#808080"
     stroke-width="2"
     stroke-linecap="round"
     stroke-linejoin="round"
     stroke-dasharray="0, 11"
     id="path38" />
  <path
     d="M 94,26 H 83"
     stroke="#808080"
     stroke-width="2"
     stroke-linecap="round"
     stroke-linejoin="round"
     stroke-dasharray="0, 7"
     id="path39" />
  <rect
     x="227"
     y="33"
     width="7"
     height="25"
     fill="#f2f2f2"
     stroke="#808080"
     stroke-linejoin="round"
     id="rect39" />
  <rect
     x="329"
     y="96"
     width="45"
     height="53"
     rx="5"
     fill="#f2f2f2"
     stroke="#808080"
     stroke-linejoin="round"
     id="rect40" />
  <path
     d="m 310,89 c 0,-2.7614 2.239,-5 5,-5 h 40 c 2.761,0 5,2.2386 5,5 v 45 c 0,2.761 -2.239,5 -5,5 h -30 l -15,-15 z"
     fill="#ffffff"
     stroke="#808080"
     stroke-linejoin="round"
     id="path40" />
  <path
     d="m 325,124 h -15 l 15,15 z"
     fill="#f2f2f2"
     stroke="#808080"
     stroke-linejoin="round"
     id="path41" />
  <path
     d="M 324.286,116 V 99 c 0,-2.7614 2.238,-5 5,-5 H 336 c 2.761,0 5,2.2386 5,5 v 3.627 M 341,116 V 102.627 M 320,116 h 26.143 M 341,102.627 h 0.401 c 2.382,0 4.313,1.932 4.313,4.314 v 2.171 c 0,1.184 0.96,2.143 2.143,2.143 v 0 c 1.184,0 2.143,-0.959 2.143,-2.143 V 98.7451 L 345.286,94 M 329,102.627 h 8"
     stroke="#808080"
     stroke-linecap="round"
     stroke-linejoin="round"
     id="path42" />
  <path
     d="m 352,124 h -5 v 4.762 h -3 l 5.5,5.238 5.5,-5.238 h -3 z"
     fill="#f2f2f2"
     stroke="#808080"
     stroke-linecap="round"
     stroke-linejoin="round"
     id="path43" />
  <path
     d="m 97,43 10,7.5 -10,7.5 m 15,0 h 10"
     stroke="#808080"
     stroke-linecap="round"
     stroke-linejoin="round"
     id="path44" />
  <path
     fill-rule="evenodd"
     clip-rule="evenodd"
     d="m 208.49,192.01 -2.49,2.49 2.49,2.49 v 3.52 h 3.52 l 2.49,2.49 2.49,-2.49 h 3.52 v -3.52 l 2.49,-2.49 -2.49,-2.49 v -3.52 h -3.52 l -2.49,-2.49 -2.49,2.49 h -3.52 z"
     fill="#f2f2f2"
     id="path45" />
  <path
     d="m 206,194.5 -0.354,-0.354 c -0.093,0.094 -0.146,0.221 -0.146,0.354 0,0.133 0.053,0.26 0.146,0.354 z m 2.49,-2.49 0.353,0.354 c 0.094,-0.094 0.147,-0.221 0.147,-0.354 z m 0,4.98 h 0.5 c 0,-0.133 -0.053,-0.26 -0.147,-0.354 z m 0,3.52 h -0.5 c 0,0.277 0.223,0.5 0.5,0.5 z m 3.52,0 0.354,-0.353 c -0.094,-0.094 -0.221,-0.147 -0.354,-0.147 z m 2.49,2.49 -0.354,0.354 c 0.196,0.195 0.512,0.195 0.708,0 z m 2.49,-2.49 v -0.5 c -0.133,0 -0.26,0.053 -0.354,0.147 z m 3.52,0 v 0.5 c 0.277,0 0.5,-0.223 0.5,-0.5 z m 0,-3.52 -0.353,-0.354 c -0.094,0.094 -0.147,0.221 -0.147,0.354 z m 2.49,-2.49 0.354,0.354 c 0.195,-0.196 0.195,-0.512 0,-0.708 z m -2.49,-2.49 h -0.5 c 0,0.133 0.053,0.26 0.147,0.354 z m 0,-3.52 h 0.5 c 0,-0.277 -0.223,-0.5 -0.5,-0.5 z m -3.52,0 -0.354,0.353 c 0.094,0.094 0.221,0.147 0.354,0.147 z m -2.49,-2.49 0.354,-0.354 c -0.196,-0.195 -0.512,-0.195 -0.708,0 z m -2.49,2.49 v 0.5 c 0.133,0 0.26,-0.053 0.354,-0.147 z m -3.52,0 v -0.5 c -0.277,0 -0.5,0.223 -0.5,0.5 z m -2.136,6.364 2.489,-2.49 -0.707,-0.707 -2.49,2.489 z m 2.489,1.782 -2.489,-2.49 -0.708,0.708 2.49,2.489 z m 0.147,3.874 v -3.52 h -1 v 3.52 z m 3.02,-0.5 h -3.52 v 1 h 3.52 z m 2.844,2.636 -2.49,-2.489 -0.707,0.707 2.489,2.49 z m 1.782,-2.489 -2.49,2.489 0.708,0.708 2.489,-2.49 z m 3.874,-0.147 h -3.52 v 1 h 3.52 z m -0.5,-3.02 v 3.52 h 1 v -3.52 z m 2.636,-2.844 -2.489,2.49 0.707,0.707 2.49,-2.489 z m -2.489,-1.782 2.489,2.49 0.708,-0.708 -2.49,-2.489 z m -0.147,-3.874 v 3.52 h 1 v -3.52 z m -3.02,0.5 h 3.52 v -1 h -3.52 z m -2.844,-2.636 2.49,2.489 0.707,-0.707 -2.489,-2.49 z m -1.782,2.489 2.49,-2.489 -0.708,-0.708 -2.489,2.49 z m -3.874,0.147 h 3.52 v -1 h -3.52 z m 0.5,3.02 v -3.52 h -1 v 3.52 z"
     fill="#808080"
     id="path46" />
  <path
     d="m 200.712,130.726 h -6.893 V 145 h -9.272 v -43.798 h 16.165 c 10.675,0 17.324,5.063 17.324,14.579 0,9.516 -6.649,14.945 -17.324,14.945 z m -0.061,-21.716 h -6.832 v 13.908 h 6.832 c 5.246,0 8.174,-2.745 8.174,-7.076 0,-4.331 -2.928,-6.832 -8.174,-6.832 z m 34.928,36.6 c -9.455,0 -16.531,-7.442 -16.531,-16.897 0,-9.516 7.076,-16.897 16.531,-16.897 9.455,0 16.531,7.381 16.531,16.897 0,9.455 -7.076,16.897 -16.531,16.897 z m 0,-7.503 c 4.209,0 7.808,-3.355 7.808,-9.394 0,-6.039 -3.599,-9.333 -7.808,-9.333 -4.209,0 -7.808,3.294 -7.808,9.333 0,6.039 3.599,9.394 7.808,9.394 z m 55.064,-6.71 c 0,8.357 -6.71,14.213 -17.69,14.213 -11.041,0 -17.934,-5.917 -18.605,-15.189 h 9.394 c 0.244,4.819 3.355,7.93 9.028,7.93 4.697,0 8.052,-2.074 8.052,-5.612 0,-2.745 -2.135,-4.392 -5.856,-5.124 l -7.198,-1.403 c -6.649,-1.281 -11.773,-4.88 -11.773,-12.139 0,-7.808 6.893,-13.42 16.348,-13.42 9.821,0 17.019,5.734 17.629,14.884 h -9.394 c -0.305,-4.575 -3.477,-7.686 -8.113,-7.686 -4.514,0 -7.076,2.562 -7.076,5.612 0,2.989 2.745,4.27 5.917,4.88 l 7.503,1.525 c 7.686,1.525 11.834,5.063 11.834,11.529 z"
     fill="#1a1a1a"
     id="path47" />
  <circle
     cx="145.5"
     cy="123.5"
     r="29.5"
     fill="url(#paint0_linear_1864_2273)"
     id="circle47"
     style="fill:url(#paint0_linear_1864_2273)" />
  <path
     d="m 153.016,129.423 7.353,-4.484 c 0.39,-0.238 0.631,-0.68 0.631,-1.154 v -8.969 c 0,-0.474 -0.241,-0.916 -0.631,-1.154 l -7.353,-4.484 c -0.39,-0.238 -0.873,-0.236 -1.261,0 l -7.353,4.484 c -0.39,0.238 -0.631,0.68 -0.631,1.154 v 16.027 l -5.157,3.143 -5.156,-3.143 v -6.288 l 5.156,-3.143 3.401,2.075 v -4.219 l -2.77,-1.69 c -0.19,-0.116 -0.409,-0.179 -0.631,-0.179 -0.221,0 -0.44,0.063 -0.63,0.179 l -7.353,4.484 c -0.39,0.238 -0.631,0.68 -0.631,1.154 v 8.969 c 0,0.474 0.241,0.916 0.631,1.154 l 7.353,4.484 c 0.39,0.236 0.871,0.236 1.261,0 l 7.353,-4.484 c 0.39,-0.238 0.631,-0.68 0.631,-1.154 v -16.027 l 0.092,-0.056 5.062,-3.087 5.157,3.143 v 6.288 l -5.157,3.143 -3.396,-2.07 v 4.218 l 2.766,1.686 c 0.39,0.236 0.873,0.236 1.261,0 z"
     fill="url(#paint1_linear_1864_2273)"
     id="path48"
     style="fill:url(#paint1_linear_1864_2273)" />
  <path
     d="M 91.4545,145 H 80.5455 V 134.524 H 74 L 86,123 98,134.524 h -6.5455 z"
     fill="#ffffff"
     stroke="#808080"
     stroke-linecap="round"
     stroke-linejoin="round"
     id="path49" />
  <defs
     id="defs53">
    <linearGradient
       id="paint0_linear_1864_2273"
       x1="115.808"
       y1="142.957"
       x2="175.715"
       y2="112.156"
       gradientUnits="userSpaceOnUse">
      <stop
         stop-color="#A726C1"
         id="stop49" />
      <stop
         offset="0.88"
         stop-color="#803BDF"
         id="stop50" />
      <stop
         offset="1"
         stop-color="#7B3FE4"
         id="stop51" />
    </linearGradient>
    <linearGradient
       id="paint1_linear_1864_2273"
       x1="145.5"
       y1="109"
       x2="145.5"
       y2="167.5"
       gradientUnits="userSpaceOnUse">
      <stop
         stop-color="white"
         id="stop52" />
      <stop
         offset="1"
         stop-color="white"
         stop-opacity="0"
         id="stop53" />
    </linearGradient>
  </defs>
</svg>
