<svg width="450" height="255" viewBox="0 0 450 255" fill="none" xmlns="http://www.w3.org/2000/svg">
<mask id="path-2-outside-1_2111_1317" maskUnits="userSpaceOnUse" x="28" y="50" width="279" height="49" fill="black">
<rect fill="white" x="28" y="50" width="279" height="49"/>
<path d="M39.0873 97H29.8153V53.202H39.0873V97ZM53.3508 79.249V97H44.8718V64.426H52.6798V69.062C55.0588 65.829 58.4138 63.816 62.6838 63.816C69.2108 63.816 73.7248 68.086 73.7248 75.955V97H65.3068V78.822C65.3068 74.003 63.4158 71.319 59.5728 71.319C56.2178 71.319 53.3508 74.003 53.3508 79.249ZM87.07 79.249V97H78.591V64.426H86.399V69.062C88.778 65.829 92.133 63.816 96.403 63.816C102.93 63.816 107.444 68.086 107.444 75.955V97H99.026V78.822C99.026 74.003 97.135 71.319 93.292 71.319C89.937 71.319 87.07 74.003 87.07 79.249ZM126.706 97.61C117.251 97.61 110.175 90.168 110.175 80.713C110.175 71.197 117.251 63.816 126.706 63.816C136.161 63.816 143.237 71.197 143.237 80.713C143.237 90.168 136.161 97.61 126.706 97.61ZM126.706 90.107C130.915 90.107 134.514 86.752 134.514 80.713C134.514 74.674 130.915 71.38 126.706 71.38C122.497 71.38 118.898 74.674 118.898 80.713C118.898 86.752 122.497 90.107 126.706 90.107ZM174.417 64.426L162.461 97H153.189L141.172 64.426H150.322L158.069 87.362L165.877 64.426H174.417ZM194.262 97V92.974C192.127 96.024 188.894 97.61 184.441 97.61C177.67 97.61 173.156 93.645 173.156 87.545C173.156 81.201 178.28 77.785 187.796 77.785C189.626 77.785 191.212 77.907 193.225 78.151V76.199C193.225 72.539 191.151 70.404 187.613 70.404C183.953 70.404 181.757 72.539 181.452 76.199H173.827C174.315 68.696 179.744 63.816 187.613 63.816C196.153 63.816 201.155 68.513 201.155 76.504V97H194.262ZM181.147 87.301C181.147 90.046 183.099 91.754 186.271 91.754C190.602 91.754 193.225 89.375 193.225 85.593V83.275C191.212 82.97 189.809 82.848 188.345 82.848C183.526 82.848 181.147 84.373 181.147 87.301ZM225.797 88.765V96.146C223.723 97.183 221.771 97.61 219.27 97.61C212.56 97.61 208.351 93.767 208.351 86.447V71.685H201.763V64.426H208.351V54.788H216.769V64.426H226.102V71.685H216.769V84.495C216.769 88.277 218.477 89.802 221.527 89.802C223.113 89.802 224.577 89.436 225.797 88.765ZM238.66 56.862C238.66 59.729 236.342 61.864 232.987 61.864C229.693 61.864 227.375 59.729 227.375 56.862C227.375 53.873 229.693 51.738 232.987 51.738C236.342 51.738 238.66 53.873 238.66 56.862ZM237.318 97H228.839V64.426H237.318V97ZM256.82 97.61C247.365 97.61 240.289 90.168 240.289 80.713C240.289 71.197 247.365 63.816 256.82 63.816C266.275 63.816 273.351 71.197 273.351 80.713C273.351 90.168 266.275 97.61 256.82 97.61ZM256.82 90.107C261.029 90.107 264.628 86.752 264.628 80.713C264.628 74.674 261.029 71.38 256.82 71.38C252.611 71.38 249.012 74.674 249.012 80.713C249.012 86.752 252.611 90.107 256.82 90.107ZM284.801 79.249V97H276.322V64.426H284.13V69.062C286.509 65.829 289.864 63.816 294.134 63.816C300.661 63.816 305.175 68.086 305.175 75.955V97H296.757V78.822C296.757 74.003 294.866 71.319 291.023 71.319C287.668 71.319 284.801 74.003 284.801 79.249Z"/>
</mask>
<path d="M39.0873 97H29.8153V53.202H39.0873V97ZM53.3508 79.249V97H44.8718V64.426H52.6798V69.062C55.0588 65.829 58.4138 63.816 62.6838 63.816C69.2108 63.816 73.7248 68.086 73.7248 75.955V97H65.3068V78.822C65.3068 74.003 63.4158 71.319 59.5728 71.319C56.2178 71.319 53.3508 74.003 53.3508 79.249ZM87.07 79.249V97H78.591V64.426H86.399V69.062C88.778 65.829 92.133 63.816 96.403 63.816C102.93 63.816 107.444 68.086 107.444 75.955V97H99.026V78.822C99.026 74.003 97.135 71.319 93.292 71.319C89.937 71.319 87.07 74.003 87.07 79.249ZM126.706 97.61C117.251 97.61 110.175 90.168 110.175 80.713C110.175 71.197 117.251 63.816 126.706 63.816C136.161 63.816 143.237 71.197 143.237 80.713C143.237 90.168 136.161 97.61 126.706 97.61ZM126.706 90.107C130.915 90.107 134.514 86.752 134.514 80.713C134.514 74.674 130.915 71.38 126.706 71.38C122.497 71.38 118.898 74.674 118.898 80.713C118.898 86.752 122.497 90.107 126.706 90.107ZM174.417 64.426L162.461 97H153.189L141.172 64.426H150.322L158.069 87.362L165.877 64.426H174.417ZM194.262 97V92.974C192.127 96.024 188.894 97.61 184.441 97.61C177.67 97.61 173.156 93.645 173.156 87.545C173.156 81.201 178.28 77.785 187.796 77.785C189.626 77.785 191.212 77.907 193.225 78.151V76.199C193.225 72.539 191.151 70.404 187.613 70.404C183.953 70.404 181.757 72.539 181.452 76.199H173.827C174.315 68.696 179.744 63.816 187.613 63.816C196.153 63.816 201.155 68.513 201.155 76.504V97H194.262ZM181.147 87.301C181.147 90.046 183.099 91.754 186.271 91.754C190.602 91.754 193.225 89.375 193.225 85.593V83.275C191.212 82.97 189.809 82.848 188.345 82.848C183.526 82.848 181.147 84.373 181.147 87.301ZM225.797 88.765V96.146C223.723 97.183 221.771 97.61 219.27 97.61C212.56 97.61 208.351 93.767 208.351 86.447V71.685H201.763V64.426H208.351V54.788H216.769V64.426H226.102V71.685H216.769V84.495C216.769 88.277 218.477 89.802 221.527 89.802C223.113 89.802 224.577 89.436 225.797 88.765ZM238.66 56.862C238.66 59.729 236.342 61.864 232.987 61.864C229.693 61.864 227.375 59.729 227.375 56.862C227.375 53.873 229.693 51.738 232.987 51.738C236.342 51.738 238.66 53.873 238.66 56.862ZM237.318 97H228.839V64.426H237.318V97ZM256.82 97.61C247.365 97.61 240.289 90.168 240.289 80.713C240.289 71.197 247.365 63.816 256.82 63.816C266.275 63.816 273.351 71.197 273.351 80.713C273.351 90.168 266.275 97.61 256.82 97.61ZM256.82 90.107C261.029 90.107 264.628 86.752 264.628 80.713C264.628 74.674 261.029 71.38 256.82 71.38C252.611 71.38 249.012 74.674 249.012 80.713C249.012 86.752 252.611 90.107 256.82 90.107ZM284.801 79.249V97H276.322V64.426H284.13V69.062C286.509 65.829 289.864 63.816 294.134 63.816C300.661 63.816 305.175 68.086 305.175 75.955V97H296.757V78.822C296.757 74.003 294.866 71.319 291.023 71.319C287.668 71.319 284.801 74.003 284.801 79.249Z" fill="white"/>
<path d="M39.0873 97V98H40.0873V97H39.0873ZM29.8153 97H28.8153V98H29.8153V97ZM29.8153 53.202V52.202H28.8153V53.202H29.8153ZM39.0873 53.202H40.0873V52.202H39.0873V53.202ZM39.0873 96H29.8153V98H39.0873V96ZM30.8153 97V53.202H28.8153V97H30.8153ZM29.8153 54.202H39.0873V52.202H29.8153V54.202ZM38.0873 53.202V97H40.0873V53.202H38.0873ZM53.3508 97V98H54.3508V97H53.3508ZM44.8718 97H43.8718V98H44.8718V97ZM44.8718 64.426V63.426H43.8718V64.426H44.8718ZM52.6798 64.426H53.6798V63.426H52.6798V64.426ZM52.6798 69.062H51.6798V72.1082L53.4852 69.6547L52.6798 69.062ZM73.7248 97V98H74.7248V97H73.7248ZM65.3068 97H64.3068V98H65.3068V97ZM52.3508 79.249V97H54.3508V79.249H52.3508ZM53.3508 96H44.8718V98H53.3508V96ZM45.8718 97V64.426H43.8718V97H45.8718ZM44.8718 65.426H52.6798V63.426H44.8718V65.426ZM51.6798 64.426V69.062H53.6798V64.426H51.6798ZM53.4852 69.6547C55.7027 66.6412 58.7746 64.816 62.6838 64.816V62.816C58.053 62.816 54.4149 65.0168 51.8744 68.4693L53.4852 69.6547ZM62.6838 64.816C65.7242 64.816 68.2033 65.8051 69.9262 67.6226C71.6534 69.4447 72.7248 72.2099 72.7248 75.955H74.7248C74.7248 71.8311 73.5392 68.5268 71.3777 66.2467C69.2118 63.9619 66.1704 62.816 62.6838 62.816V64.816ZM72.7248 75.955V97H74.7248V75.955H72.7248ZM73.7248 96H65.3068V98H73.7248V96ZM66.3068 97V78.822H64.3068V97H66.3068ZM66.3068 78.822C66.3068 76.3072 65.8176 74.182 64.6815 72.6641C63.508 71.0963 61.7527 70.319 59.5728 70.319V72.319C61.2359 72.319 62.3476 72.8837 63.0804 73.8626C63.8505 74.8915 64.3068 76.5178 64.3068 78.822H66.3068ZM59.5728 70.319C57.6152 70.319 55.7779 71.1088 54.4441 72.6663C53.1177 74.2152 52.3508 76.4476 52.3508 79.249H54.3508C54.3508 76.8044 55.0174 75.0718 55.9632 73.9672C56.9017 72.8712 58.1754 72.319 59.5728 72.319V70.319ZM87.07 97V98H88.07V97H87.07ZM78.591 97H77.591V98H78.591V97ZM78.591 64.426V63.426H77.591V64.426H78.591ZM86.399 64.426H87.399V63.426H86.399V64.426ZM86.399 69.062H85.399V72.1082L87.2044 69.6547L86.399 69.062ZM107.444 97V98H108.444V97H107.444ZM99.026 97H98.026V98H99.026V97ZM86.07 79.249V97H88.07V79.249H86.07ZM87.07 96H78.591V98H87.07V96ZM79.591 97V64.426H77.591V97H79.591ZM78.591 65.426H86.399V63.426H78.591V65.426ZM85.399 64.426V69.062H87.399V64.426H85.399ZM87.2044 69.6547C89.4219 66.6412 92.4938 64.816 96.403 64.816V62.816C91.7722 62.816 88.1341 65.0168 85.5935 68.4693L87.2044 69.6547ZM96.403 64.816C99.4433 64.816 101.922 65.8051 103.645 67.6226C105.373 69.4447 106.444 72.2099 106.444 75.955H108.444C108.444 71.8311 107.258 68.5268 105.097 66.2467C102.931 63.9619 99.8896 62.816 96.403 62.816V64.816ZM106.444 75.955V97H108.444V75.955H106.444ZM107.444 96H99.026V98H107.444V96ZM100.026 97V78.822H98.026V97H100.026ZM100.026 78.822C100.026 76.3072 99.5368 74.182 98.4007 72.6641C97.2272 71.0963 95.4719 70.319 93.292 70.319V72.319C94.9551 72.319 96.0668 72.8837 96.7995 73.8626C97.5697 74.8915 98.026 76.5178 98.026 78.822H100.026ZM93.292 70.319C91.3344 70.319 89.4971 71.1088 88.1633 72.6663C86.8369 74.2152 86.07 76.4476 86.07 79.249H88.07C88.07 76.8044 88.7365 75.0718 89.6824 73.9672C90.6209 72.8712 91.8946 72.319 93.292 72.319V70.319ZM126.706 96.61C117.832 96.61 111.175 89.6447 111.175 80.713H109.175C109.175 90.6913 116.67 98.61 126.706 98.61V96.61ZM111.175 80.713C111.175 71.7227 117.83 64.816 126.706 64.816V62.816C116.673 62.816 109.175 70.6713 109.175 80.713H111.175ZM126.706 64.816C135.583 64.816 142.237 71.7227 142.237 80.713H144.237C144.237 70.6713 136.74 62.816 126.706 62.816V64.816ZM142.237 80.713C142.237 89.6447 135.58 96.61 126.706 96.61V98.61C136.742 98.61 144.237 90.6913 144.237 80.713H142.237ZM126.706 91.107C129.086 91.107 131.312 90.1535 132.934 88.3414C134.552 86.5324 135.514 83.9318 135.514 80.713H133.514C133.514 83.5332 132.676 85.6296 131.443 87.0078C130.213 88.383 128.535 89.107 126.706 89.107V91.107ZM135.514 80.713C135.514 77.4939 134.552 74.9065 132.931 73.1115C131.307 71.3139 129.081 70.38 126.706 70.38V72.38C128.541 72.38 130.219 73.0931 131.446 74.4522C132.677 75.814 133.514 77.8931 133.514 80.713H135.514ZM126.706 70.38C124.332 70.38 122.106 71.3139 120.482 73.1115C118.86 74.9065 117.898 77.4939 117.898 80.713H119.898C119.898 77.8931 120.736 75.814 121.966 74.4522C123.194 73.0931 124.872 72.38 126.706 72.38V70.38ZM117.898 80.713C117.898 83.9318 118.86 86.5324 120.479 88.3414C122.1 90.1535 124.326 91.107 126.706 91.107V89.107C124.877 89.107 123.199 88.383 121.969 87.0078C120.736 85.6296 119.898 83.5332 119.898 80.713H117.898ZM174.417 64.426L175.356 64.7706L175.849 63.426H174.417V64.426ZM162.461 97V98H163.159L163.4 97.3446L162.461 97ZM153.189 97L152.251 97.3461L152.492 98H153.189V97ZM141.172 64.426V63.426H139.737L140.234 64.7721L141.172 64.426ZM150.322 64.426L151.27 64.106L151.04 63.426H150.322V64.426ZM158.069 87.362L157.122 87.682L158.066 90.476L159.016 87.6843L158.069 87.362ZM165.877 64.426V63.426H165.161L164.931 64.1037L165.877 64.426ZM173.478 64.0814L161.522 96.6554L163.4 97.3446L175.356 64.7706L173.478 64.0814ZM162.461 96H153.189V98H162.461V96ZM154.127 96.6539L142.11 64.0799L140.234 64.7721L152.251 97.3461L154.127 96.6539ZM141.172 65.426H150.322V63.426H141.172V65.426ZM149.375 64.746L157.122 87.682L159.017 87.042L151.27 64.106L149.375 64.746ZM159.016 87.6843L166.824 64.7483L164.931 64.1037L157.123 87.0397L159.016 87.6843ZM165.877 65.426H174.417V63.426H165.877V65.426ZM194.262 97H193.262V98H194.262V97ZM194.262 92.974H195.262V89.8016L193.443 92.4005L194.262 92.974ZM193.225 78.151L193.104 79.1437L194.225 79.2795V78.151H193.225ZM181.452 76.199V77.199H182.372L182.448 76.282L181.452 76.199ZM173.827 76.199L172.829 76.1341L172.76 77.199H173.827V76.199ZM201.155 97V98H202.155V97H201.155ZM193.225 83.275H194.225V82.4151L193.375 82.2863L193.225 83.275ZM195.262 97V92.974H193.262V97H195.262ZM193.443 92.4005C191.524 95.1413 188.622 96.61 184.441 96.61V98.61C189.165 98.61 192.73 96.9067 195.081 93.5475L193.443 92.4005ZM184.441 96.61C181.247 96.61 178.679 95.6763 176.923 94.1173C175.179 92.5686 174.156 90.333 174.156 87.545H172.156C172.156 90.857 173.389 93.6539 175.595 95.6127C177.789 97.5612 180.864 98.61 184.441 98.61V96.61ZM174.156 87.545C174.156 84.6878 175.286 82.569 177.462 81.118C179.699 79.6268 183.131 78.785 187.796 78.785V76.785C182.945 76.785 179.057 77.6512 176.353 79.4539C173.588 81.297 172.156 84.0582 172.156 87.545H174.156ZM187.796 78.785C189.574 78.785 191.118 78.903 193.104 79.1437L193.345 77.1583C191.305 76.911 189.677 76.785 187.796 76.785V78.785ZM194.225 78.151V76.199H192.225V78.151H194.225ZM194.225 76.199C194.225 74.1836 193.651 72.4582 192.464 71.233C191.272 70.0037 189.585 69.404 187.613 69.404V71.404C189.179 71.404 190.297 71.8718 191.027 72.625C191.761 73.3823 192.225 74.5544 192.225 76.199H194.225ZM187.613 69.404C185.585 69.404 183.855 69.9997 182.586 71.2036C181.321 72.4037 180.623 74.1058 180.455 76.116L182.448 76.282C182.586 74.6322 183.138 73.4368 183.962 72.6544C184.783 71.8758 185.981 71.404 187.613 71.404V69.404ZM181.452 75.199H173.827V77.199H181.452V75.199ZM174.825 76.2639C175.053 72.7464 176.432 69.9039 178.62 67.9378C180.812 65.9684 183.887 64.816 187.613 64.816V62.816C183.469 62.816 179.895 64.1036 177.284 66.45C174.668 68.7996 173.088 72.1486 172.829 76.1341L174.825 76.2639ZM187.613 64.816C191.705 64.816 194.819 65.9396 196.902 67.8929C198.977 69.838 200.155 72.7222 200.155 76.504H202.155C202.155 72.2948 200.831 68.835 198.27 66.4338C195.718 64.0409 192.06 62.816 187.613 62.816V64.816ZM200.155 76.504V97H202.155V76.504H200.155ZM201.155 96H194.262V98H201.155V96ZM180.147 87.301C180.147 88.9257 180.733 90.328 181.863 91.3111C182.975 92.2801 184.513 92.754 186.271 92.754V90.754C184.857 90.754 183.832 90.3739 183.176 89.8027C182.536 89.2455 182.147 88.4213 182.147 87.301H180.147ZM186.271 92.754C188.613 92.754 190.612 92.1095 192.037 90.8381C193.476 89.5549 194.225 87.7276 194.225 85.593H192.225C192.225 87.2404 191.662 88.4936 190.706 89.3454C189.738 90.209 188.259 90.754 186.271 90.754V92.754ZM194.225 85.593V83.275H192.225V85.593H194.225ZM193.375 82.2863C191.329 81.9764 189.874 81.848 188.345 81.848V83.848C189.744 83.848 191.094 83.9636 193.075 84.2637L193.375 82.2863ZM188.345 81.848C185.861 81.848 183.839 82.2354 182.409 83.1282C180.903 84.0685 180.147 85.512 180.147 87.301H182.147C182.147 86.162 182.58 85.379 183.468 84.8248C184.432 84.2231 186.009 83.848 188.345 83.848V81.848ZM225.797 88.765H226.797V87.0737L225.315 87.8888L225.797 88.765ZM225.797 96.146L226.244 97.0404L226.797 96.764V96.146H225.797ZM208.351 71.685H209.351V70.685H208.351V71.685ZM201.763 71.685H200.763V72.685H201.763V71.685ZM201.763 64.426V63.426H200.763V64.426H201.763ZM208.351 64.426V65.426H209.351V64.426H208.351ZM208.351 54.788V53.788H207.351V54.788H208.351ZM216.769 54.788H217.769V53.788H216.769V54.788ZM216.769 64.426H215.769V65.426H216.769V64.426ZM226.102 64.426H227.102V63.426H226.102V64.426ZM226.102 71.685V72.685H227.102V71.685H226.102ZM216.769 71.685V70.685H215.769V71.685H216.769ZM224.797 88.765V96.146H226.797V88.765H224.797ZM225.35 95.2516C223.429 96.2118 221.633 96.61 219.27 96.61V98.61C221.909 98.61 224.016 98.1542 226.244 97.0404L225.35 95.2516ZM219.27 96.61C216.103 96.61 213.654 95.706 211.998 94.0635C210.345 92.4231 209.351 89.9164 209.351 86.447H207.351C207.351 90.2976 208.462 93.3724 210.59 95.4835C212.716 97.5925 215.727 98.61 219.27 98.61V96.61ZM209.351 86.447V71.685H207.351V86.447H209.351ZM208.351 70.685H201.763V72.685H208.351V70.685ZM202.763 71.685V64.426H200.763V71.685H202.763ZM201.763 65.426H208.351V63.426H201.763V65.426ZM209.351 64.426V54.788H207.351V64.426H209.351ZM208.351 55.788H216.769V53.788H208.351V55.788ZM215.769 54.788V64.426H217.769V54.788H215.769ZM216.769 65.426H226.102V63.426H216.769V65.426ZM225.102 64.426V71.685H227.102V64.426H225.102ZM226.102 70.685H216.769V72.685H226.102V70.685ZM215.769 71.685V84.495H217.769V71.685H215.769ZM215.769 84.495C215.769 86.5151 216.223 88.1393 217.278 89.2541C218.344 90.3807 219.847 90.802 221.527 90.802V88.802C220.157 88.802 219.281 88.4608 218.73 87.8794C218.169 87.2862 217.769 86.2569 217.769 84.495H215.769ZM221.527 90.802C223.265 90.802 224.898 90.4009 226.279 89.6412L225.315 87.8888C224.256 88.4711 222.96 88.802 221.527 88.802V90.802ZM237.318 97V98H238.318V97H237.318ZM228.839 97H227.839V98H228.839V97ZM228.839 64.426V63.426H227.839V64.426H228.839ZM237.318 64.426H238.318V63.426H237.318V64.426ZM237.66 56.862C237.66 59.0734 235.899 60.864 232.987 60.864V62.864C236.785 62.864 239.66 60.3846 239.66 56.862H237.66ZM232.987 60.864C230.144 60.864 228.375 59.0802 228.375 56.862H226.375C226.375 60.3778 229.243 62.864 232.987 62.864V60.864ZM228.375 56.862C228.375 54.5067 230.16 52.738 232.987 52.738V50.738C229.226 50.738 226.375 53.2393 226.375 56.862H228.375ZM232.987 52.738C234.453 52.738 235.62 53.2021 236.409 53.9193C237.193 54.6307 237.66 55.6397 237.66 56.862H239.66C239.66 55.0953 238.969 53.5423 237.754 52.4389C236.546 51.3414 234.877 50.738 232.987 50.738V52.738ZM237.318 96H228.839V98H237.318V96ZM229.839 97V64.426H227.839V97H229.839ZM228.839 65.426H237.318V63.426H228.839V65.426ZM236.318 64.426V97H238.318V64.426H236.318ZM256.82 96.61C247.945 96.61 241.289 89.6447 241.289 80.713H239.289C239.289 90.6913 246.784 98.61 256.82 98.61V96.61ZM241.289 80.713C241.289 71.7227 247.943 64.816 256.82 64.816V62.816C246.786 62.816 239.289 70.6713 239.289 80.713H241.289ZM256.82 64.816C265.696 64.816 272.351 71.7227 272.351 80.713H274.351C274.351 70.6713 266.853 62.816 256.82 62.816V64.816ZM272.351 80.713C272.351 89.6447 265.694 96.61 256.82 96.61V98.61C266.855 98.61 274.351 90.6913 274.351 80.713H272.351ZM256.82 91.107C259.2 91.107 261.426 90.1535 263.047 88.3414C264.666 86.5324 265.628 83.9318 265.628 80.713H263.628C263.628 83.5332 262.79 85.6296 261.557 87.0078C260.326 88.383 258.648 89.107 256.82 89.107V91.107ZM265.628 80.713C265.628 77.4939 264.666 74.9065 263.044 73.1115C261.42 71.3139 259.194 70.38 256.82 70.38V72.38C258.654 72.38 260.332 73.0931 261.56 74.4522C262.79 75.814 263.628 77.8931 263.628 80.713H265.628ZM256.82 70.38C254.445 70.38 252.219 71.3139 250.595 73.1115C248.974 74.9065 248.012 77.4939 248.012 80.713H250.012C250.012 77.8931 250.849 75.814 252.079 74.4522C253.307 73.0931 254.985 72.38 256.82 72.38V70.38ZM248.012 80.713C248.012 83.9318 248.973 86.5324 250.592 88.3414C252.213 90.1535 254.439 91.107 256.82 91.107V89.107C254.991 89.107 253.313 88.383 252.083 87.0078C250.849 85.6296 250.012 83.5332 250.012 80.713H248.012ZM284.801 97V98H285.801V97H284.801ZM276.322 97H275.322V98H276.322V97ZM276.322 64.426V63.426H275.322V64.426H276.322ZM284.13 64.426H285.13V63.426H284.13V64.426ZM284.13 69.062H283.13V72.1082L284.935 69.6547L284.13 69.062ZM305.175 97V98H306.175V97H305.175ZM296.757 97H295.757V98H296.757V97ZM283.801 79.249V97H285.801V79.249H283.801ZM284.801 96H276.322V98H284.801V96ZM277.322 97V64.426H275.322V97H277.322ZM276.322 65.426H284.13V63.426H276.322V65.426ZM283.13 64.426V69.062H285.13V64.426H283.13ZM284.935 69.6547C287.152 66.6412 290.224 64.816 294.134 64.816V62.816C289.503 62.816 285.865 65.0168 283.324 68.4693L284.935 69.6547ZM294.134 64.816C297.174 64.816 299.653 65.8051 301.376 67.6226C303.103 69.4447 304.175 72.2099 304.175 75.955H306.175C306.175 71.8311 304.989 68.5268 302.827 66.2467C300.662 63.9619 297.62 62.816 294.134 62.816V64.816ZM304.175 75.955V97H306.175V75.955H304.175ZM305.175 96H296.757V98H305.175V96ZM297.757 97V78.822H295.757V97H297.757ZM297.757 78.822C297.757 76.3072 297.267 74.182 296.131 72.6641C294.958 71.0963 293.202 70.319 291.023 70.319V72.319C292.686 72.319 293.797 72.8837 294.53 73.8626C295.3 74.8915 295.757 76.5178 295.757 78.822H297.757ZM291.023 70.319C289.065 70.319 287.228 71.1088 285.894 72.6663C284.567 74.2152 283.801 76.4476 283.801 79.249H285.801C285.801 76.8044 286.467 75.0718 287.413 73.9672C288.351 72.8712 289.625 72.319 291.023 72.319V70.319Z" fill="#333333" mask="url(#path-2-outside-1_2111_1317)"/>
<mask id="path-4-outside-2_2111_1317" maskUnits="userSpaceOnUse" x="192" y="148" width="231" height="61" fill="black">
<rect fill="white" x="192" y="148" width="231" height="61"/>
<path d="M211.297 171.088L219.105 179.506C219.471 177.737 219.654 175.785 219.715 173.833H227.462C227.401 177.493 226.181 181.702 224.351 185.118L233.501 195H223.07L219.471 191.157C216.177 194.024 212.456 195.549 208.43 195.549C199.28 195.549 193.424 190.303 193.424 182.129C193.424 177.493 196.23 173.589 200.866 170.966C199.341 168.831 198.609 166.635 198.609 164.134C198.609 157.79 204.099 153.154 211.48 153.154C218.922 153.154 223.863 157.607 223.924 164.317H216.055C215.75 161.45 213.981 159.925 211.48 159.925C209.101 159.925 207.332 161.694 207.332 164.195C207.332 166.452 208.552 168.099 211.297 171.088ZM201.537 181.641C201.537 185.545 204.099 188.656 209.04 188.656C211.297 188.656 213.432 187.924 215.14 186.521L205.197 175.968C202.94 177.127 201.537 179.14 201.537 181.641ZM243.099 178.713C243.099 169.075 248.772 161.816 257.556 161.816C261.46 161.816 264.754 163.524 267.194 166.635V151.202H275.612V195H267.865V190.303C265.303 193.719 261.765 195.61 257.556 195.61C248.772 195.61 243.099 188.229 243.099 178.713ZM251.822 178.713C251.822 184.813 255.299 188.046 259.447 188.046C263.656 188.046 267.133 184.752 267.133 178.591C267.133 172.43 263.595 169.319 259.447 169.319C255.299 169.319 251.822 172.491 251.822 178.713ZM294.892 195.549C285.132 195.549 278.605 188.778 278.605 178.591C278.605 168.892 285.376 161.816 294.77 161.816C305.079 161.816 311.911 170.173 310.386 180.787H287.267C287.816 186.094 290.378 189.022 294.709 189.022C298.43 189.022 300.931 187.192 301.907 183.959H310.325C308.495 191.34 302.822 195.549 294.892 195.549ZM294.587 168.038C290.622 168.038 288.121 170.6 287.389 175.419H301.419C301.175 170.905 298.613 168.038 294.587 168.038ZM341.136 184.569C341.136 191.401 335.951 195.61 326.679 195.61C317.407 195.61 312.222 191.157 311.551 183.898H319.664C319.725 187.253 322.592 189.388 326.801 189.388C330.095 189.388 332.596 188.351 332.596 186.033C332.596 183.959 331.254 183.105 328.143 182.495L322.287 181.397C316.431 180.36 312.893 177.127 312.893 172.064C312.893 166.025 318.078 161.816 326.191 161.816C334.365 161.816 339.977 166.147 340.587 173.162H332.474C332.169 169.99 329.79 168.038 326.191 168.038C323.08 168.038 321.006 169.197 321.006 171.271C321.006 173.223 322.348 174.016 325.276 174.565L331.559 175.724C337.903 176.944 341.136 179.872 341.136 184.569ZM354.306 154.862C354.306 157.729 351.988 159.864 348.633 159.864C345.339 159.864 343.021 157.729 343.021 154.862C343.021 151.873 345.339 149.738 348.633 149.738C351.988 149.738 354.306 151.873 354.306 154.862ZM352.964 195H344.485V162.426H352.964V195ZM371.917 207.383C363.133 207.383 357.277 202.625 356.911 195.122H365.085C365.451 198.843 367.83 200.795 371.856 200.795C376.553 200.795 378.993 198.294 378.993 193.597V188.839C377.224 191.95 373.869 193.78 369.904 193.78C361.913 193.78 355.935 187.009 355.935 177.798C355.935 168.343 361.547 161.816 369.599 161.816C373.991 161.816 377.285 163.524 379.664 166.879V162.426H387.411V193.475C387.411 202.137 381.555 207.383 371.917 207.383ZM364.414 177.798C364.414 183.105 367.159 186.46 371.551 186.46C376.004 186.46 378.932 182.983 378.932 177.859C378.932 172.552 376.004 169.136 371.551 169.136C367.22 169.136 364.414 172.491 364.414 177.798ZM401.102 177.249V195H392.623V162.426H400.431V167.062C402.81 163.829 406.165 161.816 410.435 161.816C416.962 161.816 421.476 166.086 421.476 173.955V195H413.058V176.822C413.058 172.003 411.167 169.319 407.324 169.319C403.969 169.319 401.102 172.003 401.102 177.249Z"/>
</mask>
<path d="M211.297 171.088L219.105 179.506C219.471 177.737 219.654 175.785 219.715 173.833H227.462C227.401 177.493 226.181 181.702 224.351 185.118L233.501 195H223.07L219.471 191.157C216.177 194.024 212.456 195.549 208.43 195.549C199.28 195.549 193.424 190.303 193.424 182.129C193.424 177.493 196.23 173.589 200.866 170.966C199.341 168.831 198.609 166.635 198.609 164.134C198.609 157.79 204.099 153.154 211.48 153.154C218.922 153.154 223.863 157.607 223.924 164.317H216.055C215.75 161.45 213.981 159.925 211.48 159.925C209.101 159.925 207.332 161.694 207.332 164.195C207.332 166.452 208.552 168.099 211.297 171.088ZM201.537 181.641C201.537 185.545 204.099 188.656 209.04 188.656C211.297 188.656 213.432 187.924 215.14 186.521L205.197 175.968C202.94 177.127 201.537 179.14 201.537 181.641ZM243.099 178.713C243.099 169.075 248.772 161.816 257.556 161.816C261.46 161.816 264.754 163.524 267.194 166.635V151.202H275.612V195H267.865V190.303C265.303 193.719 261.765 195.61 257.556 195.61C248.772 195.61 243.099 188.229 243.099 178.713ZM251.822 178.713C251.822 184.813 255.299 188.046 259.447 188.046C263.656 188.046 267.133 184.752 267.133 178.591C267.133 172.43 263.595 169.319 259.447 169.319C255.299 169.319 251.822 172.491 251.822 178.713ZM294.892 195.549C285.132 195.549 278.605 188.778 278.605 178.591C278.605 168.892 285.376 161.816 294.77 161.816C305.079 161.816 311.911 170.173 310.386 180.787H287.267C287.816 186.094 290.378 189.022 294.709 189.022C298.43 189.022 300.931 187.192 301.907 183.959H310.325C308.495 191.34 302.822 195.549 294.892 195.549ZM294.587 168.038C290.622 168.038 288.121 170.6 287.389 175.419H301.419C301.175 170.905 298.613 168.038 294.587 168.038ZM341.136 184.569C341.136 191.401 335.951 195.61 326.679 195.61C317.407 195.61 312.222 191.157 311.551 183.898H319.664C319.725 187.253 322.592 189.388 326.801 189.388C330.095 189.388 332.596 188.351 332.596 186.033C332.596 183.959 331.254 183.105 328.143 182.495L322.287 181.397C316.431 180.36 312.893 177.127 312.893 172.064C312.893 166.025 318.078 161.816 326.191 161.816C334.365 161.816 339.977 166.147 340.587 173.162H332.474C332.169 169.99 329.79 168.038 326.191 168.038C323.08 168.038 321.006 169.197 321.006 171.271C321.006 173.223 322.348 174.016 325.276 174.565L331.559 175.724C337.903 176.944 341.136 179.872 341.136 184.569ZM354.306 154.862C354.306 157.729 351.988 159.864 348.633 159.864C345.339 159.864 343.021 157.729 343.021 154.862C343.021 151.873 345.339 149.738 348.633 149.738C351.988 149.738 354.306 151.873 354.306 154.862ZM352.964 195H344.485V162.426H352.964V195ZM371.917 207.383C363.133 207.383 357.277 202.625 356.911 195.122H365.085C365.451 198.843 367.83 200.795 371.856 200.795C376.553 200.795 378.993 198.294 378.993 193.597V188.839C377.224 191.95 373.869 193.78 369.904 193.78C361.913 193.78 355.935 187.009 355.935 177.798C355.935 168.343 361.547 161.816 369.599 161.816C373.991 161.816 377.285 163.524 379.664 166.879V162.426H387.411V193.475C387.411 202.137 381.555 207.383 371.917 207.383ZM364.414 177.798C364.414 183.105 367.159 186.46 371.551 186.46C376.004 186.46 378.932 182.983 378.932 177.859C378.932 172.552 376.004 169.136 371.551 169.136C367.22 169.136 364.414 172.491 364.414 177.798ZM401.102 177.249V195H392.623V162.426H400.431V167.062C402.81 163.829 406.165 161.816 410.435 161.816C416.962 161.816 421.476 166.086 421.476 173.955V195H413.058V176.822C413.058 172.003 411.167 169.319 407.324 169.319C403.969 169.319 401.102 172.003 401.102 177.249Z" fill="white"/>
<path d="M211.297 171.088L210.56 171.764L210.564 171.768L211.297 171.088ZM219.105 179.506L218.372 180.186L219.691 181.608L220.084 179.709L219.105 179.506ZM219.715 173.833V172.833H218.746L218.715 173.802L219.715 173.833ZM227.462 173.833L228.462 173.85L228.479 172.833H227.462V173.833ZM224.351 185.118L223.47 184.646L223.133 185.274L223.617 185.797L224.351 185.118ZM233.501 195V196H235.79L234.235 194.321L233.501 195ZM223.07 195L222.34 195.684L222.636 196H223.07V195ZM219.471 191.157L220.201 190.473L219.542 189.77L218.814 190.403L219.471 191.157ZM200.866 170.966L201.358 171.836L202.326 171.289L201.68 170.385L200.866 170.966ZM223.924 164.317V165.317H224.933L224.924 164.308L223.924 164.317ZM216.055 164.317L215.061 164.423L215.156 165.317H216.055V164.317ZM215.14 186.521L215.775 187.294L216.602 186.614L215.868 185.835L215.14 186.521ZM205.197 175.968L205.925 175.282L205.409 174.735L204.74 175.078L205.197 175.968ZM210.564 171.768L218.372 180.186L219.838 178.826L212.03 170.408L210.564 171.768ZM220.084 179.709C220.465 177.866 220.652 175.854 220.714 173.864L218.715 173.802C218.656 175.716 218.477 177.608 218.126 179.303L220.084 179.709ZM219.715 174.833H227.462V172.833H219.715V174.833ZM226.462 173.816C226.404 177.293 225.237 181.347 223.47 184.646L225.232 185.59C227.125 182.057 228.398 177.693 228.462 173.85L226.462 173.816ZM223.617 185.797L232.767 195.679L234.235 194.321L225.085 184.439L223.617 185.797ZM233.501 194H223.07V196H233.501V194ZM223.8 194.316L220.201 190.473L218.741 191.841L222.34 195.684L223.8 194.316ZM218.814 190.403C215.677 193.134 212.183 194.549 208.43 194.549V196.549C212.729 196.549 216.677 194.914 220.128 191.911L218.814 190.403ZM208.43 194.549C204.042 194.549 200.547 193.293 198.163 191.159C195.79 189.036 194.424 185.964 194.424 182.129H192.424C192.424 186.468 193.986 190.106 196.829 192.649C199.66 195.182 203.668 196.549 208.43 196.549V194.549ZM194.424 182.129C194.424 177.954 196.937 174.338 201.358 171.836L200.374 170.096C195.522 172.84 192.424 177.032 192.424 182.129H194.424ZM201.68 170.385C200.268 168.408 199.609 166.413 199.609 164.134H197.609C197.609 166.857 198.414 169.254 200.052 171.547L201.68 170.385ZM199.609 164.134C199.609 158.488 204.493 154.154 211.48 154.154V152.154C203.705 152.154 197.609 157.092 197.609 164.134H199.609ZM211.48 154.154C215.003 154.154 217.846 155.206 219.802 156.963C221.749 158.712 222.896 161.228 222.924 164.326L224.924 164.308C224.891 160.696 223.537 157.63 221.138 155.475C218.748 153.328 215.398 152.154 211.48 152.154V154.154ZM223.924 163.317H216.055V165.317H223.924V163.317ZM217.049 164.211C216.877 162.594 216.279 161.253 215.273 160.315C214.264 159.374 212.939 158.925 211.48 158.925V160.925C212.522 160.925 213.331 161.239 213.909 161.777C214.489 162.318 214.928 163.173 215.061 164.423L217.049 164.211ZM211.48 158.925C208.53 158.925 206.332 161.161 206.332 164.195H208.332C208.332 162.227 209.672 160.925 211.48 160.925V158.925ZM206.332 164.195C206.332 166.895 207.851 168.815 210.56 171.764L212.034 170.412C209.253 167.383 208.332 166.009 208.332 164.195H206.332ZM200.537 181.641C200.537 183.812 201.252 185.835 202.726 187.317C204.205 188.805 206.354 189.656 209.04 189.656V187.656C206.785 187.656 205.183 186.951 204.145 185.908C203.103 184.859 202.537 183.374 202.537 181.641H200.537ZM209.04 189.656C211.516 189.656 213.878 188.851 215.775 187.294L214.505 185.748C212.986 186.997 211.078 187.656 209.04 187.656V189.656ZM215.868 185.835L205.925 175.282L204.469 176.654L214.412 187.207L215.868 185.835ZM204.74 175.078C202.199 176.384 200.537 178.713 200.537 181.641H202.537C202.537 179.567 203.681 177.87 205.654 176.858L204.74 175.078ZM267.194 166.635L266.407 167.252L268.194 169.53V166.635H267.194ZM267.194 151.202V150.202H266.194V151.202H267.194ZM275.612 151.202H276.612V150.202H275.612V151.202ZM275.612 195V196H276.612V195H275.612ZM267.865 195H266.865V196H267.865V195ZM267.865 190.303H268.865V187.303L267.065 189.703L267.865 190.303ZM244.099 178.713C244.099 174.084 245.461 170.099 247.802 167.29C250.129 164.497 253.463 162.816 257.556 162.816V160.816C252.865 160.816 248.97 162.764 246.265 166.01C243.573 169.24 242.099 173.704 242.099 178.713H244.099ZM257.556 162.816C261.132 162.816 264.143 164.366 266.407 167.252L267.981 166.018C265.365 162.682 261.788 160.816 257.556 160.816V162.816ZM268.194 166.635V151.202H266.194V166.635H268.194ZM267.194 152.202H275.612V150.202H267.194V152.202ZM274.612 151.202V195H276.612V151.202H274.612ZM275.612 194H267.865V196H275.612V194ZM268.865 195V190.303H266.865V195H268.865ZM267.065 189.703C264.678 192.886 261.427 194.61 257.556 194.61V196.61C262.103 196.61 265.928 194.552 268.665 190.903L267.065 189.703ZM257.556 194.61C253.469 194.61 250.134 192.903 247.803 190.092C245.46 187.266 244.099 183.279 244.099 178.713H242.099C242.099 183.663 243.574 188.125 246.264 191.368C248.965 194.627 252.859 196.61 257.556 196.61V194.61ZM250.822 178.713C250.822 181.951 251.747 184.538 253.33 186.329C254.917 188.126 257.102 189.046 259.447 189.046V187.046C257.644 187.046 256.016 186.349 254.828 185.005C253.635 183.655 252.822 181.575 252.822 178.713H250.822ZM259.447 189.046C261.825 189.046 264.026 188.109 265.621 186.288C267.209 184.473 268.133 181.857 268.133 178.591H266.133C266.133 181.486 265.318 183.597 264.116 184.97C262.92 186.336 261.278 187.046 259.447 187.046V189.046ZM268.133 178.591C268.133 175.32 267.191 172.743 265.586 170.973C263.978 169.199 261.779 168.319 259.447 168.319V170.319C261.263 170.319 262.907 170.995 264.105 172.316C265.306 173.642 266.133 175.701 266.133 178.591H268.133ZM259.447 168.319C257.107 168.319 254.921 169.22 253.33 171.021C251.745 172.815 250.822 175.418 250.822 178.713H252.822C252.822 175.786 253.638 173.692 254.828 172.345C256.013 171.004 257.639 170.319 259.447 170.319V168.319ZM310.386 180.787V181.787H311.253L311.376 180.929L310.386 180.787ZM287.267 180.787V179.787H286.158L286.273 180.89L287.267 180.787ZM301.907 183.959V182.959H301.165L300.95 183.67L301.907 183.959ZM310.325 183.959L311.296 184.2L311.603 182.959H310.325V183.959ZM287.389 175.419L286.401 175.269L286.226 176.419H287.389V175.419ZM301.419 175.419V176.419H302.475L302.418 175.365L301.419 175.419ZM294.892 194.549C290.252 194.549 286.451 192.945 283.81 190.197C281.165 187.446 279.605 183.469 279.605 178.591H277.605C277.605 183.9 279.309 188.402 282.368 191.583C285.43 194.768 289.773 196.549 294.892 196.549V194.549ZM279.605 178.591C279.605 169.407 285.965 162.816 294.77 162.816V160.816C284.787 160.816 277.605 168.377 277.605 178.591H279.605ZM294.77 162.816C299.642 162.816 303.637 164.784 306.243 167.956C308.853 171.133 310.123 175.586 309.396 180.645L311.376 180.929C312.174 175.374 310.791 170.342 307.789 166.687C304.783 163.027 300.208 160.816 294.77 160.816V162.816ZM310.386 179.787H287.267V181.787H310.386V179.787ZM286.273 180.89C286.56 183.668 287.386 185.956 288.825 187.562C290.289 189.196 292.297 190.022 294.709 190.022V188.022C292.79 188.022 291.352 187.384 290.315 186.227C289.253 185.042 288.524 183.213 288.262 180.684L286.273 180.89ZM294.709 190.022C296.735 190.022 298.504 189.522 299.917 188.518C301.334 187.511 302.321 186.047 302.865 184.248L300.95 183.67C300.517 185.104 299.766 186.172 298.758 186.888C297.747 187.607 296.405 188.022 294.709 188.022V190.022ZM301.907 184.959H310.325V182.959H301.907V184.959ZM309.355 183.718C308.489 187.211 306.731 189.9 304.297 191.721C301.86 193.546 298.679 194.549 294.892 194.549V196.549C299.036 196.549 302.656 195.448 305.496 193.322C308.338 191.194 310.332 188.088 311.296 184.2L309.355 183.718ZM294.587 167.038C292.372 167.038 290.485 167.762 289.06 169.223C287.655 170.663 286.786 172.73 286.401 175.269L288.378 175.569C288.724 173.289 289.472 171.665 290.492 170.62C291.492 169.595 292.837 169.038 294.587 169.038V167.038ZM287.389 176.419H301.419V174.419H287.389V176.419ZM302.418 175.365C302.287 172.937 301.526 170.852 300.159 169.36C298.778 167.854 296.854 167.038 294.587 167.038V169.038C296.346 169.038 297.717 169.656 298.684 170.711C299.665 171.782 300.308 173.387 300.421 175.473L302.418 175.365ZM311.551 183.898V182.898H310.455L310.556 183.99L311.551 183.898ZM319.664 183.898L320.664 183.88L320.646 182.898H319.664V183.898ZM328.143 182.495L328.336 181.514L328.328 181.512L328.143 182.495ZM322.287 181.397L322.472 180.414L322.462 180.412L322.287 181.397ZM340.587 173.162V174.162H341.678L341.584 173.075L340.587 173.162ZM332.474 173.162L331.479 173.258L331.566 174.162H332.474V173.162ZM325.276 174.565L325.092 175.548L325.095 175.548L325.276 174.565ZM331.559 175.724L331.748 174.742L331.741 174.741L331.559 175.724ZM340.136 184.569C340.136 187.706 338.96 190.162 336.772 191.862C334.55 193.587 331.18 194.61 326.679 194.61V196.61C331.451 196.61 335.309 195.529 337.998 193.441C340.72 191.328 342.136 188.264 342.136 184.569H340.136ZM326.679 194.61C322.195 194.61 318.824 193.533 316.513 191.694C314.218 189.867 312.862 187.206 312.547 183.806L310.556 183.99C310.912 187.849 312.484 191.044 315.267 193.259C318.034 195.46 321.892 196.61 326.679 196.61V194.61ZM311.551 184.898H319.664V182.898H311.551V184.898ZM318.665 183.916C318.701 185.904 319.582 187.561 321.071 188.696C322.539 189.815 324.538 190.388 326.801 190.388V188.388C324.856 188.388 323.317 187.894 322.284 187.106C321.272 186.335 320.689 185.247 320.664 183.88L318.665 183.916ZM326.801 190.388C328.529 190.388 330.162 190.12 331.402 189.464C332.691 188.781 333.596 187.64 333.596 186.033H331.596C331.596 186.744 331.251 187.281 330.466 187.696C329.632 188.137 328.368 188.388 326.801 188.388V190.388ZM333.596 186.033C333.596 184.732 333.151 183.684 332.141 182.918C331.221 182.221 329.91 181.822 328.336 181.514L327.951 183.476C329.488 183.778 330.404 184.111 330.933 184.512C331.371 184.844 331.596 185.26 331.596 186.033H333.596ZM328.328 181.512L322.472 180.414L322.103 182.38L327.959 183.478L328.328 181.512ZM322.462 180.412C319.665 179.917 317.523 178.914 316.091 177.523C314.679 176.151 313.893 174.341 313.893 172.064H311.893C311.893 174.85 312.877 177.188 314.698 178.957C316.499 180.708 319.053 181.84 322.113 182.382L322.462 180.412ZM313.893 172.064C313.893 169.358 315.043 167.085 317.116 165.463C319.209 163.826 322.299 162.816 326.191 162.816V160.816C321.971 160.816 318.412 161.91 315.884 163.888C313.336 165.88 311.893 168.731 311.893 172.064H313.893ZM326.191 162.816C330.107 162.816 333.321 163.853 335.609 165.646C337.883 167.427 339.309 170.005 339.591 173.249L341.584 173.075C341.256 169.304 339.571 166.209 336.843 164.071C334.128 161.945 330.45 160.816 326.191 160.816V162.816ZM340.587 172.162H332.474V174.162H340.587V172.162ZM333.47 173.066C333.294 171.24 332.509 169.705 331.201 168.636C329.902 167.575 328.169 167.038 326.191 167.038V169.038C327.813 169.038 329.068 169.477 329.936 170.185C330.792 170.885 331.35 171.912 331.479 173.258L333.47 173.066ZM326.191 167.038C324.533 167.038 323.034 167.344 321.915 168.021C320.751 168.725 320.006 169.836 320.006 171.271H322.006C322.006 170.632 322.298 170.127 322.95 169.732C323.645 169.312 324.739 169.038 326.191 169.038V167.038ZM320.006 171.271C320.006 172.531 320.467 173.533 321.455 174.252C322.35 174.904 323.61 175.27 325.092 175.548L325.461 173.582C324.015 173.311 323.14 173.006 322.632 172.636C322.216 172.333 322.006 171.963 322.006 171.271H320.006ZM325.095 175.548L331.378 176.707L331.741 174.741L325.458 173.582L325.095 175.548ZM331.371 176.706C334.445 177.297 336.638 178.281 338.05 179.579C339.43 180.847 340.136 182.478 340.136 184.569H342.136C342.136 181.963 341.227 179.782 339.404 178.106C337.614 176.461 335.018 175.371 331.748 174.742L331.371 176.706ZM352.964 195V196H353.964V195H352.964ZM344.485 195H343.485V196H344.485V195ZM344.485 162.426V161.426H343.485V162.426H344.485ZM352.964 162.426H353.964V161.426H352.964V162.426ZM353.306 154.862C353.306 157.073 351.545 158.864 348.633 158.864V160.864C352.431 160.864 355.306 158.385 355.306 154.862H353.306ZM348.633 158.864C345.79 158.864 344.021 157.08 344.021 154.862H342.021C342.021 158.378 344.889 160.864 348.633 160.864V158.864ZM344.021 154.862C344.021 152.507 345.806 150.738 348.633 150.738V148.738C344.872 148.738 342.021 151.239 342.021 154.862H344.021ZM348.633 150.738C350.099 150.738 351.266 151.202 352.055 151.919C352.839 152.631 353.306 153.64 353.306 154.862H355.306C355.306 153.095 354.615 151.542 353.4 150.439C352.192 149.341 350.523 148.738 348.633 148.738V150.738ZM352.964 194H344.485V196H352.964V194ZM345.485 195V162.426H343.485V195H345.485ZM344.485 163.426H352.964V161.426H344.485V163.426ZM351.964 162.426V195H353.964V162.426H351.964ZM356.911 195.122V194.122H355.861L355.912 195.171L356.911 195.122ZM365.085 195.122L366.08 195.024L365.991 194.122H365.085V195.122ZM378.993 188.839H379.993V185.057L378.123 188.345L378.993 188.839ZM379.664 166.879L378.848 167.457L380.664 170.018V166.879H379.664ZM379.664 162.426V161.426H378.664V162.426H379.664ZM387.411 162.426H388.411V161.426H387.411V162.426ZM371.917 206.383C367.7 206.383 364.28 205.241 361.889 203.291C359.513 201.353 358.079 198.558 357.909 195.073L355.912 195.171C356.108 199.189 357.785 202.525 360.625 204.841C363.45 207.146 367.35 208.383 371.917 208.383V206.383ZM356.911 196.122H365.085V194.122H356.911V196.122ZM364.089 195.22C364.292 197.279 365.068 198.965 366.457 200.122C367.834 201.269 369.689 201.795 371.856 201.795V199.795C369.996 199.795 368.649 199.345 367.738 198.586C366.839 197.837 366.243 196.686 366.08 195.024L364.089 195.22ZM371.856 201.795C374.374 201.795 376.453 201.122 377.897 199.66C379.339 198.2 379.993 196.109 379.993 193.597H377.993C377.993 195.782 377.427 197.29 376.474 198.255C375.523 199.217 374.034 199.795 371.856 199.795V201.795ZM379.993 193.597V188.839H377.993V193.597H379.993ZM378.123 188.345C376.553 191.106 373.554 192.78 369.904 192.78V194.78C374.183 194.78 377.894 192.794 379.862 189.333L378.123 188.345ZM369.904 192.78C362.585 192.78 356.935 186.584 356.935 177.798H354.935C354.935 187.434 361.241 194.78 369.904 194.78V192.78ZM356.935 177.798C356.935 173.264 358.279 169.513 360.507 166.912C362.725 164.322 365.862 162.816 369.599 162.816V160.816C365.283 160.816 361.589 162.573 358.988 165.611C356.396 168.637 354.935 172.877 354.935 177.798H356.935ZM369.599 162.816C373.678 162.816 376.663 164.376 378.848 167.457L380.479 166.301C377.906 162.672 374.303 160.816 369.599 160.816V162.816ZM380.664 166.879V162.426H378.664V166.879H380.664ZM379.664 163.426H387.411V161.426H379.664V163.426ZM386.411 162.426V193.475H388.411V162.426H386.411ZM386.411 193.475C386.411 197.569 385.035 200.758 382.61 202.933C380.172 205.12 376.561 206.383 371.917 206.383V208.383C376.91 208.383 381.046 207.023 383.946 204.422C386.859 201.808 388.411 198.043 388.411 193.475H386.411ZM363.414 177.798C363.414 180.614 364.142 183.026 365.563 184.754C367.002 186.504 369.078 187.46 371.551 187.46V185.46C369.631 185.46 368.139 184.738 367.108 183.484C366.058 182.208 365.414 180.289 365.414 177.798H363.414ZM371.551 187.46C374.057 187.46 376.185 186.472 377.672 184.73C379.146 183.003 379.932 180.606 379.932 177.859H377.932C377.932 180.236 377.253 182.14 376.15 183.432C375.06 184.709 373.497 185.46 371.551 185.46V187.46ZM379.932 177.859C379.932 175.028 379.15 172.599 377.673 170.86C376.183 169.105 374.052 168.136 371.551 168.136V170.136C373.502 170.136 375.062 170.875 376.149 172.155C377.249 173.45 377.932 175.383 377.932 177.859H379.932ZM371.551 168.136C369.105 168.136 367.032 169.094 365.588 170.839C364.16 172.565 363.414 174.977 363.414 177.798H365.414C365.414 175.312 366.071 173.393 367.128 172.114C368.17 170.855 369.665 170.136 371.551 170.136V168.136ZM401.102 195V196H402.102V195H401.102ZM392.623 195H391.623V196H392.623V195ZM392.623 162.426V161.426H391.623V162.426H392.623ZM400.431 162.426H401.431V161.426H400.431V162.426ZM400.431 167.062H399.431V170.108L401.236 167.655L400.431 167.062ZM421.476 195V196H422.476V195H421.476ZM413.058 195H412.058V196H413.058V195ZM400.102 177.249V195H402.102V177.249H400.102ZM401.102 194H392.623V196H401.102V194ZM393.623 195V162.426H391.623V195H393.623ZM392.623 163.426H400.431V161.426H392.623V163.426ZM399.431 162.426V167.062H401.431V162.426H399.431ZM401.236 167.655C403.454 164.641 406.526 162.816 410.435 162.816V160.816C405.804 160.816 402.166 163.017 399.625 166.469L401.236 167.655ZM410.435 162.816C413.475 162.816 415.954 163.805 417.677 165.623C419.404 167.445 420.476 170.21 420.476 173.955H422.476C422.476 169.831 421.29 166.527 419.129 164.247C416.963 161.962 413.921 160.816 410.435 160.816V162.816ZM420.476 173.955V195H422.476V173.955H420.476ZM421.476 194H413.058V196H421.476V194ZM414.058 195V176.822H412.058V195H414.058ZM414.058 176.822C414.058 174.307 413.569 172.182 412.433 170.664C411.259 169.096 409.504 168.319 407.324 168.319V170.319C408.987 170.319 410.099 170.884 410.831 171.863C411.602 172.892 412.058 174.518 412.058 176.822H414.058ZM407.324 168.319C405.366 168.319 403.529 169.109 402.195 170.666C400.869 172.215 400.102 174.448 400.102 177.249H402.102C402.102 174.804 402.768 173.072 403.714 171.967C404.653 170.871 405.926 170.319 407.324 170.319V168.319Z" fill="#333333" mask="url(#path-4-outside-2_2111_1317)"/>
<circle cx="29" cy="191" r="4" fill="#E6E6E6" stroke="#333333" stroke-linejoin="round"/>
<path d="M29 113L29 173" stroke="#808080" stroke-width="2" stroke-linecap="round" stroke-linejoin="round" stroke-dasharray="0 11"/>
<path d="M126 191L46 191" stroke="#808080" stroke-width="2" stroke-linecap="round" stroke-linejoin="round" stroke-dasharray="0 11"/>
<path d="M405 57L325 57" stroke="#808080" stroke-width="2" stroke-linecap="round" stroke-linejoin="round" stroke-dasharray="0 11"/>
<path d="M282 123H242" stroke="#808080" stroke-width="2" stroke-linecap="round" stroke-linejoin="round" stroke-dasharray="0 11"/>
<circle cx="421" cy="57" r="4" transform="rotate(-180 421 57)" fill="#E6E6E6" stroke="#333333" stroke-linejoin="round"/>
<path d="M421 113L421 70" stroke="#808080" stroke-width="2" stroke-linecap="round" stroke-linejoin="round" stroke-dasharray="0 11"/>
<rect x="353" y="83" width="49" height="53" rx="5" fill="white" stroke="#333333" stroke-linejoin="round"/>
<path d="M325 85C325 82.2386 327.239 80 330 80H385C387.761 80 390 82.2386 390 85V135C390 137.761 387.761 140 385 140H340L325 125V85Z" fill="white" stroke="#333333" stroke-linejoin="round"/>
<path d="M340 125H325L340 140V125Z" fill="#E6E6E6" stroke="#333333" stroke-linejoin="round"/>
<path d="M352.273 110H342.727V100.476H337L347.5 90L358 100.476H352.273V110Z" fill="#E6E6E6" stroke="#333333" stroke-linecap="round" stroke-linejoin="round"/>
<path d="M372.545 110H363.455V119.524H358L368 130L378 119.524H372.545V110Z" fill="#E6E6E6" stroke="#333333" stroke-linecap="round" stroke-linejoin="round"/>
<circle cx="368" cy="96" r="4" fill="#E6E6E6" stroke="#333333" stroke-linejoin="round"/>
<path fill-rule="evenodd" clip-rule="evenodd" d="M160 140C156.686 140 154 137.314 154 134V121.4L145 126.5V143.5L153.896 148.541L152.326 187.007C152.148 191.367 155.636 195 160 195C164.364 195 167.852 191.367 167.674 187.007L166.104 148.541L175 143.5V126.5L166 121.4V134C166 137.314 163.314 140 160 140Z" fill="white"/>
<path d="M154 121.4H154.5C154.5 121.222 154.405 121.057 154.252 120.968C154.098 120.878 153.908 120.877 153.753 120.965L154 121.4ZM145 126.5L144.753 126.065C144.597 126.154 144.5 126.32 144.5 126.5H145ZM145 143.5H144.5C144.5 143.68 144.597 143.846 144.753 143.935L145 143.5ZM153.896 148.541L154.396 148.562C154.404 148.374 154.306 148.198 154.143 148.106L153.896 148.541ZM152.326 187.007L152.826 187.027L152.326 187.007ZM167.674 187.007L167.174 187.027L167.674 187.007ZM166.104 148.541L165.857 148.106C165.694 148.198 165.596 148.374 165.604 148.562L166.104 148.541ZM175 143.5L175.247 143.935C175.403 143.846 175.5 143.68 175.5 143.5H175ZM175 126.5H175.5C175.5 126.32 175.403 126.154 175.247 126.065L175 126.5ZM166 121.4L166.247 120.965C166.092 120.877 165.902 120.878 165.748 120.968C165.595 121.057 165.5 121.222 165.5 121.4H166ZM153.5 134C153.5 137.59 156.41 140.5 160 140.5V139.5C156.962 139.5 154.5 137.037 154.5 134H153.5ZM153.5 121.4V134H154.5V121.4H153.5ZM153.753 120.965L144.753 126.065L145.247 126.935L154.247 121.835L153.753 120.965ZM144.5 126.5V143.5H145.5V126.5H144.5ZM144.753 143.935L153.65 148.976L154.143 148.106L145.247 143.065L144.753 143.935ZM153.397 148.521L151.827 186.986L152.826 187.027L154.396 148.562L153.397 148.521ZM151.827 186.986C151.637 191.631 155.351 195.5 160 195.5V194.5C155.92 194.5 152.659 191.104 152.826 187.027L151.827 186.986ZM160 195.5C164.649 195.5 168.363 191.631 168.173 186.986L167.174 187.027C167.341 191.104 164.08 194.5 160 194.5V195.5ZM168.173 186.986L166.603 148.521L165.604 148.562L167.174 187.027L168.173 186.986ZM166.35 148.976L175.247 143.935L174.753 143.065L165.857 148.106L166.35 148.976ZM175.5 143.5V126.5H174.5V143.5H175.5ZM175.247 126.065L166.247 120.965L165.753 121.835L174.753 126.935L175.247 126.065ZM166.5 134V121.4H165.5V134H166.5ZM160 140.5C163.59 140.5 166.5 137.59 166.5 134H165.5C165.5 137.037 163.038 139.5 160 139.5V140.5Z" fill="#333333"/>
<rect x="50" y="124" width="50" height="49" rx="5" fill="#E6E6E6" stroke="#333333" stroke-linejoin="round"/>
<path d="M125 118C125 115.239 122.761 113 120 113H70C67.2386 113 65 115.239 65 118V153C65 155.761 67.2386 158 70 158H110L125 143V118Z" fill="white" stroke="#333333" stroke-linejoin="round"/>
<path d="M110 143H125L110 158V143Z" fill="white" stroke="#333333" stroke-linejoin="round"/>
<path d="M80 128.895L92.3157 121L104.631 128.895L92.3157 136.79L80 128.895Z" fill="white" stroke="#333333" stroke-linejoin="round"/>
<path d="M92.3157 151L80 143.537V128.895L92.3157 136.358V151Z" fill="white" stroke="#333333" stroke-linejoin="round"/>
<path d="M92.3156 151L104.631 143.537V128.895L92.3156 136.358V151Z" fill="#E6E6E6" stroke="#333333" stroke-linejoin="round"/>
<path fill-rule="evenodd" clip-rule="evenodd" d="M219.303 128.803L221.5 131L223.697 128.803L226.803 128.803L226.803 125.697L229 123.5L226.803 121.303L226.803 118.197L223.697 118.197L221.5 116L219.303 118.197L216.197 118.197L216.197 121.303L214 123.5L216.197 125.697L216.197 128.803L219.303 128.803Z" fill="white"/>
<path d="M221.5 131L221.146 131.354C221.342 131.549 221.658 131.549 221.854 131.354L221.5 131ZM219.303 128.803L219.657 128.45C219.563 128.356 219.436 128.303 219.303 128.303L219.303 128.803ZM223.697 128.803L223.697 128.303C223.564 128.303 223.437 128.356 223.343 128.45L223.697 128.803ZM226.803 128.803L226.803 129.303C226.936 129.303 227.063 129.251 227.157 129.157C227.251 129.063 227.303 128.936 227.303 128.803L226.803 128.803ZM226.803 125.697L226.45 125.343C226.356 125.437 226.303 125.564 226.303 125.697L226.803 125.697ZM229 123.5L229.354 123.854C229.549 123.658 229.549 123.342 229.354 123.146L229 123.5ZM226.803 121.303L226.303 121.303C226.303 121.436 226.356 121.563 226.45 121.657L226.803 121.303ZM226.803 118.197L227.303 118.197C227.303 117.921 227.079 117.697 226.803 117.697L226.803 118.197ZM223.697 118.197L223.343 118.55C223.437 118.644 223.564 118.697 223.697 118.697L223.697 118.197ZM221.5 116L221.854 115.646C221.658 115.451 221.342 115.451 221.146 115.646L221.5 116ZM219.303 118.197L219.303 118.697C219.436 118.697 219.563 118.644 219.657 118.55L219.303 118.197ZM216.197 118.197L216.197 117.697C215.921 117.697 215.697 117.921 215.697 118.197L216.197 118.197ZM216.197 121.303L216.55 121.657C216.644 121.563 216.697 121.436 216.697 121.303L216.197 121.303ZM214 123.5L213.646 123.146C213.553 123.24 213.5 123.367 213.5 123.5C213.5 123.633 213.553 123.76 213.646 123.854L214 123.5ZM216.197 125.697L216.697 125.697C216.697 125.564 216.644 125.437 216.55 125.343L216.197 125.697ZM216.197 128.803L215.697 128.803C215.697 129.079 215.921 129.303 216.197 129.303L216.197 128.803ZM221.854 130.646L219.657 128.45L218.95 129.157L221.146 131.354L221.854 130.646ZM223.343 128.45L221.146 130.646L221.854 131.354L224.05 129.157L223.343 128.45ZM226.803 128.303L223.697 128.303L223.697 129.303L226.803 129.303L226.803 128.303ZM226.303 125.697L226.303 128.803L227.303 128.803L227.303 125.697L226.303 125.697ZM228.646 123.146L226.45 125.343L227.157 126.05L229.354 123.854L228.646 123.146ZM226.45 121.657L228.646 123.854L229.354 123.146L227.157 120.95L226.45 121.657ZM226.303 118.197L226.303 121.303L227.303 121.303L227.303 118.197L226.303 118.197ZM223.697 118.697L226.803 118.697L226.803 117.697L223.697 117.697L223.697 118.697ZM221.146 116.354L223.343 118.55L224.05 117.843L221.854 115.646L221.146 116.354ZM219.657 118.55L221.854 116.354L221.146 115.646L218.95 117.843L219.657 118.55ZM216.197 118.697L219.303 118.697L219.303 117.697L216.197 117.697L216.197 118.697ZM216.697 121.303L216.697 118.197L215.697 118.197L215.697 121.303L216.697 121.303ZM214.354 123.854L216.55 121.657L215.843 120.95L213.646 123.146L214.354 123.854ZM216.55 125.343L214.354 123.146L213.646 123.854L215.843 126.05L216.55 125.343ZM216.697 128.803L216.697 125.697L215.697 125.697L215.697 128.803L216.697 128.803ZM219.303 128.303L216.197 128.303L216.197 129.303L219.303 129.303L219.303 128.303Z" fill="#333333"/>
<circle cx="296" cy="123" r="4" fill="#E6E6E6" stroke="#333333" stroke-linejoin="round"/>
<circle cx="199" cy="124" r="4" fill="#E6E6E6" stroke="#333333" stroke-linejoin="round"/>
<path d="M78.3536 41.3536C78.1583 41.5488 77.8417 41.5488 77.6464 41.3536L74.4645 38.1716C74.2692 37.9763 74.2692 37.6597 74.4645 37.4645C74.6597 37.2692 74.9763 37.2692 75.1716 37.4645L78 40.2929L80.8284 37.4645C81.0237 37.2692 81.3403 37.2692 81.5355 37.4645C81.7308 37.6597 81.7308 37.9763 81.5355 38.1716L78.3536 41.3536ZM33.5 38.5C33.5 38.7761 33.2761 39 33 39C32.7239 39 32.5 38.7761 32.5 38.5L33.5 38.5ZM48 33.5L48.5 33.5L48 33.5ZM48.5 33.5L48.5 41.5L47.5 41.5L47.5 33.5L48.5 33.5ZM62.5 41.5L62.5 21.5L63.5 21.5L63.5 41.5L62.5 41.5ZM78.5 21.5L78.5 41L77.5 41L77.5 21.5L78.5 21.5ZM33.5 33.5L33.5 38.5L32.5 38.5L32.5 33.5L33.5 33.5ZM40.5 26.5C36.634 26.5 33.5 29.634 33.5 33.5L32.5 33.5C32.5 29.0817 36.0817 25.5 40.5 25.5L40.5 26.5ZM70.5 13.5C74.9183 13.5 78.5 17.0817 78.5 21.5L77.5 21.5C77.5 17.634 74.366 14.5 70.5 14.5L70.5 13.5ZM62.5 21.5C62.5 17.0817 66.0817 13.5 70.5 13.5L70.5 14.5C66.634 14.5 63.5 17.634 63.5 21.5L62.5 21.5ZM55.5 48.5C59.366 48.5 62.5 45.366 62.5 41.5L63.5 41.5C63.5 45.9183 59.9183 49.5 55.5 49.5L55.5 48.5ZM48.5 41.5C48.5 45.366 51.634 48.5 55.5 48.5L55.5 49.5C51.0817 49.5 47.5 45.9183 47.5 41.5L48.5 41.5ZM47.5 33.5C47.5 29.634 44.366 26.5 40.5 26.5L40.5 25.5C44.9183 25.5 48.5 29.0817 48.5 33.5L47.5 33.5Z" fill="#808080"/>
<path d="M410.572 230C410.572 230.276 410.348 230.5 410.072 230.5C409.796 230.5 409.572 230.276 409.572 230L410.572 230ZM379.719 224.646C379.914 224.451 380.231 224.451 380.426 224.646L383.608 227.828C383.803 228.024 383.803 228.34 383.608 228.536C383.413 228.731 383.096 228.731 382.901 228.536L380.072 225.707L377.244 228.536C377.049 228.731 376.732 228.731 376.537 228.536C376.341 228.34 376.341 228.024 376.537 227.828L379.719 224.646ZM409.572 230L409.572 214.5L410.572 214.5L410.572 230L409.572 230ZM395.572 214.5L395.572 234.5L394.572 234.5L394.572 214.5L395.572 214.5ZM379.572 234.5L379.572 225L380.572 225L380.572 234.5L379.572 234.5ZM387.572 242.5C383.154 242.5 379.572 238.918 379.572 234.5L380.572 234.5C380.572 238.366 383.706 241.5 387.572 241.5L387.572 242.5ZM395.572 234.5C395.572 238.918 391.991 242.5 387.572 242.5L387.572 241.5C391.438 241.5 394.572 238.366 394.572 234.5L395.572 234.5ZM402.572 207.5C398.706 207.5 395.572 210.634 395.572 214.5L394.572 214.5C394.572 210.082 398.154 206.5 402.572 206.5L402.572 207.5ZM409.572 214.5C409.572 210.634 406.438 207.5 402.572 207.5L402.572 206.5C406.991 206.5 410.572 210.082 410.572 214.5L409.572 214.5Z" fill="#808080"/>
<path fill-rule="evenodd" clip-rule="evenodd" d="M357.376 236.803L359.572 239L361.769 236.803L364.876 236.803L364.876 233.697L367.072 231.5L364.876 229.303L364.876 226.197L361.769 226.197L359.572 224L357.376 226.197L354.269 226.197L354.269 229.303L352.072 231.5L354.269 233.697L354.269 236.803L357.376 236.803Z" fill="white"/>
<path d="M359.572 239L359.219 239.354C359.414 239.549 359.731 239.549 359.926 239.354L359.572 239ZM357.376 236.803L357.729 236.45C357.635 236.356 357.508 236.303 357.376 236.303L357.376 236.803ZM361.769 236.803L361.769 236.303C361.636 236.303 361.509 236.356 361.415 236.45L361.769 236.803ZM364.876 236.803L364.876 237.303C365.152 237.303 365.376 237.079 365.376 236.803L364.876 236.803ZM364.876 233.697L364.522 233.343C364.428 233.437 364.376 233.564 364.376 233.697L364.876 233.697ZM367.072 231.5L367.426 231.854C367.621 231.658 367.621 231.342 367.426 231.146L367.072 231.5ZM364.876 229.303L364.376 229.303C364.376 229.436 364.428 229.563 364.522 229.657L364.876 229.303ZM364.876 226.197L365.376 226.197C365.376 225.921 365.152 225.697 364.876 225.697L364.876 226.197ZM361.769 226.197L361.415 226.55C361.509 226.644 361.636 226.697 361.769 226.697L361.769 226.197ZM359.572 224L359.926 223.646C359.832 223.553 359.705 223.5 359.572 223.5C359.44 223.5 359.312 223.553 359.219 223.646L359.572 224ZM357.376 226.197L357.376 226.697C357.508 226.697 357.635 226.644 357.729 226.55L357.376 226.197ZM354.269 226.197L354.269 225.697C353.993 225.697 353.769 225.921 353.769 226.197L354.269 226.197ZM354.269 229.303L354.623 229.657C354.716 229.563 354.769 229.436 354.769 229.303L354.269 229.303ZM352.072 231.5L351.719 231.146C351.625 231.24 351.572 231.367 351.572 231.5C351.572 231.633 351.625 231.76 351.719 231.854L352.072 231.5ZM354.269 233.697L354.769 233.697C354.769 233.564 354.716 233.437 354.623 233.343L354.269 233.697ZM354.269 236.803L353.769 236.803C353.769 237.079 353.993 237.303 354.269 237.303L354.269 236.803ZM359.926 238.646L357.729 236.45L357.022 237.157L359.219 239.354L359.926 238.646ZM361.415 236.45L359.219 238.646L359.926 239.354L362.123 237.157L361.415 236.45ZM364.876 236.303L361.769 236.303L361.769 237.303L364.876 237.303L364.876 236.303ZM364.376 233.697L364.376 236.803L365.376 236.803L365.376 233.697L364.376 233.697ZM366.719 231.146L364.522 233.343L365.229 234.05L367.426 231.854L366.719 231.146ZM364.522 229.657L366.719 231.854L367.426 231.146L365.229 228.95L364.522 229.657ZM364.376 226.197L364.376 229.303L365.376 229.303L365.376 226.197L364.376 226.197ZM361.769 226.697L364.876 226.697L364.876 225.697L361.769 225.697L361.769 226.697ZM359.219 224.354L361.415 226.55L362.123 225.843L359.926 223.646L359.219 224.354ZM357.729 226.55L359.926 224.354L359.219 223.646L357.022 225.843L357.729 226.55ZM354.269 226.697L357.376 226.697L357.376 225.697L354.269 225.697L354.269 226.697ZM354.769 229.303L354.769 226.197L353.769 226.197L353.769 229.303L354.769 229.303ZM352.426 231.854L354.623 229.657L353.915 228.95L351.719 231.146L352.426 231.854ZM354.623 233.343L352.426 231.146L351.719 231.854L353.915 234.05L354.623 233.343ZM354.769 236.803L354.769 233.697L353.769 233.697L353.769 236.803L354.769 236.803ZM357.376 236.303L354.269 236.303L354.269 237.303L357.376 237.303L357.376 236.303Z" fill="#333333"/>
<circle cx="98.5" cy="34.5" r="7.5" fill="#E6E6E6" stroke="#333333" stroke-linejoin="round"/>
<path fill-rule="evenodd" clip-rule="evenodd" d="M144.323 48.234C142.478 49.0941 140.286 48.2961 139.426 46.4517L138.482 44.4269C137.548 44.6097 136.608 44.6895 135.677 44.6715L134.958 46.6468C134.262 48.5591 132.147 49.5452 130.235 48.8491C128.322 48.1531 127.336 46.0386 128.033 44.1263L128.624 42.5016C127.732 41.9208 126.905 41.2303 126.164 40.4384L124.735 41.1048C122.891 41.9649 120.698 41.1669 119.838 39.3225C118.978 37.4781 119.776 35.2857 121.621 34.4257L122.811 33.8708C122.583 32.7085 122.515 31.5366 122.597 30.3838L121.426 29.9575C119.513 29.2615 118.527 27.147 119.223 25.2347C119.919 23.3223 122.034 22.3363 123.946 23.0324L125.117 23.4586C125.796 22.5232 126.601 21.6691 127.522 20.9251L126.968 19.7351C126.108 17.8907 126.905 15.6984 128.75 14.8383C130.594 13.9782 132.787 14.7762 133.647 16.6206L134.313 18.0498C135.389 17.9189 136.467 17.9218 137.523 18.0502L138.115 16.4255C138.811 14.5132 140.925 13.5272 142.838 14.2232C144.75 14.9193 145.736 17.0338 145.04 18.9461L144.321 20.9214C145.046 21.5062 145.715 22.1715 146.312 22.9117L148.337 21.9675C150.182 21.1075 152.374 21.9054 153.234 23.7498C154.094 25.5942 153.296 27.7866 151.452 28.6467L149.188 29.7024C149.291 30.5519 149.311 31.4025 149.252 32.2428L151.647 33.1146C153.559 33.8106 154.545 35.9251 153.849 37.8375C153.153 39.7498 151.039 40.7358 149.126 40.0398L146.731 39.168C146.236 39.85 145.674 40.4887 145.049 41.0731L146.105 43.3372C146.965 45.1816 146.167 47.374 144.323 48.234ZM136.042 37.03C138.84 37.03 141.109 34.7616 141.109 31.9633C141.109 29.1651 138.84 26.8967 136.042 26.8967C133.244 26.8967 130.976 29.1651 130.976 31.9633C130.976 34.7616 133.244 37.03 136.042 37.03Z" fill="#E6E6E6"/>
<path d="M139.426 46.4517L138.973 46.663L139.426 46.4517ZM138.482 44.4269L138.935 44.2156C138.838 44.0073 138.611 43.8921 138.385 43.9362L138.482 44.4269ZM135.677 44.6715L135.686 44.1716C135.473 44.1675 135.28 44.2997 135.207 44.5005L135.677 44.6715ZM134.958 46.6468L135.428 46.8178L134.958 46.6468ZM128.033 44.1263L128.502 44.2973V44.2973L128.033 44.1263ZM128.624 42.5016L129.094 42.6726C129.173 42.454 129.092 42.2095 128.897 42.0826L128.624 42.5016ZM126.164 40.4384L126.53 40.097C126.382 39.9388 126.149 39.8937 125.953 39.9852L126.164 40.4384ZM124.735 41.1048L124.947 41.558H124.947L124.735 41.1048ZM119.838 39.3225L120.292 39.1112H120.292L119.838 39.3225ZM121.621 34.4257L121.409 33.9725H121.409L121.621 34.4257ZM122.811 33.8708L123.022 34.3239C123.23 34.2268 123.345 34.0002 123.301 33.7747L122.811 33.8708ZM122.597 30.3838L123.095 30.419C123.111 30.1964 122.977 29.9903 122.768 29.9139L122.597 30.3838ZM121.426 29.9575L121.597 29.4877L121.597 29.4877L121.426 29.9575ZM119.223 25.2347L118.753 25.0637H118.753L119.223 25.2347ZM123.946 23.0324L124.117 22.5625L124.117 22.5625L123.946 23.0324ZM125.117 23.4586L124.946 23.9285C125.156 24.0048 125.391 23.9329 125.522 23.7522L125.117 23.4586ZM127.522 20.9251L127.837 21.3141C128.015 21.1697 128.073 20.922 127.976 20.7137L127.522 20.9251ZM126.968 19.7351L127.421 19.5238V19.5238L126.968 19.7351ZM128.75 14.8383L128.539 14.3851V14.3851L128.75 14.8383ZM133.647 16.6206L133.194 16.8319V16.8319L133.647 16.6206ZM134.313 18.0498L133.86 18.2611C133.951 18.4572 134.159 18.5723 134.374 18.5461L134.313 18.0498ZM137.523 18.0502L137.463 18.5465C137.694 18.5746 137.914 18.4398 137.993 18.2212L137.523 18.0502ZM138.115 16.4255L137.645 16.2545V16.2545L138.115 16.4255ZM142.838 14.2232L143.009 13.7534V13.7534L142.838 14.2232ZM145.04 18.9461L145.51 19.1171V19.1171L145.04 18.9461ZM144.321 20.9214L143.851 20.7503C143.778 20.9512 143.841 21.1763 144.007 21.3105L144.321 20.9214ZM146.312 22.9117L145.923 23.2258C146.068 23.4046 146.315 23.462 146.524 23.3649L146.312 22.9117ZM148.337 21.9675L148.126 21.5144L148.337 21.9675ZM153.234 23.7498L153.687 23.5385V23.5385L153.234 23.7498ZM151.452 28.6467L151.663 29.0998L151.452 28.6467ZM149.188 29.7024L148.976 29.2493C148.78 29.3407 148.665 29.548 148.691 29.7628L149.188 29.7024ZM149.252 32.2428L148.753 32.2076C148.737 32.4302 148.871 32.6363 149.081 32.7127L149.252 32.2428ZM151.647 33.1146L151.476 33.5844L151.647 33.1146ZM153.849 37.8375L154.319 38.0085V38.0085L153.849 37.8375ZM149.126 40.0398L148.955 40.5096H148.955L149.126 40.0398ZM146.731 39.168L146.902 38.6982C146.692 38.6218 146.457 38.6938 146.326 38.8744L146.731 39.168ZM145.049 41.0731L144.708 40.7078C144.55 40.8556 144.504 41.0883 144.596 41.2844L145.049 41.0731ZM146.105 43.3372L145.652 43.5485L146.105 43.3372ZM138.973 46.663C139.949 48.7577 142.439 49.6639 144.534 48.6872L144.111 47.7809C142.517 48.5242 140.622 47.8345 139.879 46.2404L138.973 46.663ZM138.028 44.6382L138.973 46.663L139.879 46.2404L138.935 44.2156L138.028 44.6382ZM135.667 45.1714C136.633 45.1901 137.609 45.1073 138.578 44.9176L138.385 43.9362C137.487 44.1122 136.583 44.1889 135.686 44.1716L135.667 45.1714ZM135.428 46.8178L136.146 44.8425L135.207 44.5005L134.488 46.4758L135.428 46.8178ZM130.064 49.319C132.236 50.1094 134.637 48.9896 135.428 46.8178L134.488 46.4758C133.886 48.1286 132.059 48.9809 130.406 48.3793L130.064 49.319ZM127.563 43.9552C126.772 46.1271 127.892 48.5285 130.064 49.319L130.406 48.3793C128.753 47.7777 127.901 45.9501 128.502 44.2973L127.563 43.9552ZM128.154 42.3306L127.563 43.9552L128.502 44.2973L129.094 42.6726L128.154 42.3306ZM125.799 40.7798C126.567 41.6016 127.426 42.318 128.351 42.9206L128.897 42.0826C128.038 41.5235 127.242 40.859 126.53 40.097L125.799 40.7798ZM124.947 41.558L126.376 40.8915L125.953 39.9852L124.524 40.6517L124.947 41.558ZM119.385 39.5338C120.362 41.6285 122.852 42.5347 124.947 41.558L124.524 40.6517C122.93 41.395 121.035 40.7053 120.292 39.1112L119.385 39.5338ZM121.409 33.9725C119.315 34.9493 118.408 37.4391 119.385 39.5338L120.292 39.1112C119.548 37.5171 120.238 35.6222 121.832 34.8788L121.409 33.9725ZM122.599 33.4176L121.409 33.9725L121.832 34.8788L123.022 34.3239L122.599 33.4176ZM122.098 30.3485C122.013 31.5446 122.084 32.7607 122.32 33.9669L123.301 33.7747C123.082 32.6563 123.017 31.5286 123.095 30.419L122.098 30.3485ZM121.255 30.4274L122.426 30.8536L122.768 29.9139L121.597 29.4877L121.255 30.4274ZM118.753 25.0637C117.963 27.2355 119.083 29.6369 121.255 30.4274L121.597 29.4877C119.944 28.8861 119.091 27.0585 119.693 25.4057L118.753 25.0637ZM124.117 22.5625C121.945 21.772 119.544 22.8918 118.753 25.0637L119.693 25.4057C120.295 23.7528 122.122 22.9006 123.775 23.5022L124.117 22.5625ZM125.288 22.9888L124.117 22.5625L123.775 23.5022L124.946 23.9285L125.288 22.9888ZM127.208 20.536C126.252 21.3082 125.417 22.1945 124.712 23.165L125.522 23.7522C126.175 22.8519 126.95 22.03 127.837 21.3141L127.208 20.536ZM126.514 19.9464L127.069 21.1364L127.976 20.7137L127.421 19.5238L126.514 19.9464ZM128.539 14.3851C126.444 15.3619 125.538 17.8518 126.514 19.9464L127.421 19.5238C126.677 17.9297 127.367 16.0348 128.961 15.2915L128.539 14.3851ZM134.1 16.4093C133.123 14.3146 130.633 13.4084 128.539 14.3851L128.961 15.2915C130.555 14.5481 132.45 15.2378 133.194 16.8319L134.1 16.4093ZM134.766 17.8385L134.1 16.4093L133.194 16.8319L133.86 18.2611L134.766 17.8385ZM137.584 17.5539C136.488 17.4206 135.369 17.4176 134.253 17.5535L134.374 18.5461C135.409 18.4202 136.446 18.4229 137.463 18.5465L137.584 17.5539ZM137.645 16.2545L137.054 17.8792L137.993 18.2212L138.585 16.5965L137.645 16.2545ZM143.009 13.7534C140.837 12.9629 138.435 14.0827 137.645 16.2545L138.585 16.5965C139.186 14.9437 141.014 14.0915 142.667 14.6931L143.009 13.7534ZM145.51 19.1171C146.3 16.9453 145.18 14.5439 143.009 13.7534L142.667 14.6931C144.319 15.2947 145.172 17.1222 144.57 18.7751L145.51 19.1171ZM144.791 21.0924L145.51 19.1171L144.57 18.7751L143.851 20.7503L144.791 21.0924ZM146.701 22.5976C146.081 21.8294 145.387 21.1391 144.635 20.5322L144.007 21.3105C144.705 21.8734 145.348 22.5135 145.923 23.2258L146.701 22.5976ZM148.126 21.5144L146.101 22.4585L146.524 23.3649L148.549 22.4207L148.126 21.5144ZM153.687 23.5385C152.71 21.4438 150.221 20.5376 148.126 21.5144L148.549 22.4207C150.143 21.6773 152.038 22.367 152.781 23.9611L153.687 23.5385ZM151.663 29.0998C153.758 28.1231 154.664 25.6332 153.687 23.5385L152.781 23.9611C153.524 25.5553 152.835 27.4502 151.24 28.1935L151.663 29.0998ZM149.399 30.1556L151.663 29.0998L151.24 28.1935L148.976 29.2493L149.399 30.1556ZM149.75 32.2781C149.812 31.4062 149.791 30.5236 149.684 29.642L148.691 29.7628C148.791 30.5803 148.81 31.3987 148.753 32.2076L149.75 32.2781ZM151.818 32.6448L149.423 31.773L149.081 32.7127L151.476 33.5844L151.818 32.6448ZM154.319 38.0085C155.109 35.8367 153.99 33.4352 151.818 32.6448L151.476 33.5844C153.129 34.186 153.981 36.0136 153.379 37.6665L154.319 38.0085ZM148.955 40.5096C151.127 41.3001 153.528 40.1803 154.319 38.0085L153.379 37.6665C152.778 39.3193 150.95 40.1715 149.297 39.5699L148.955 40.5096ZM146.56 39.6379L148.955 40.5096L149.297 39.5699L146.902 38.6982L146.56 39.6379ZM145.391 41.4384C146.039 40.832 146.623 40.1692 147.136 39.4616L146.326 38.8744C145.85 39.5308 145.309 40.1455 144.708 40.7078L145.391 41.4384ZM146.558 43.1259L145.502 40.8618L144.596 41.2844L145.652 43.5485L146.558 43.1259ZM144.534 48.6872C146.629 47.7104 147.535 45.2205 146.558 43.1259L145.652 43.5485C146.395 45.1426 145.705 47.0375 144.111 47.7809L144.534 48.6872ZM140.609 31.9633C140.609 34.4854 138.564 36.53 136.042 36.53V37.53C139.117 37.53 141.609 35.0377 141.609 31.9633H140.609ZM136.042 27.3967C138.564 27.3967 140.609 29.4413 140.609 31.9633H141.609C141.609 28.889 139.117 26.3967 136.042 26.3967V27.3967ZM131.476 31.9633C131.476 29.4413 133.52 27.3967 136.042 27.3967V26.3967C132.968 26.3967 130.476 28.889 130.476 31.9633H131.476ZM136.042 36.53C133.52 36.53 131.476 34.4854 131.476 31.9633H130.476C130.476 35.0377 132.968 37.53 136.042 37.53V36.53Z" fill="#333333"/>
<path fill-rule="evenodd" clip-rule="evenodd" d="M329.323 241.234C327.478 242.094 325.286 241.296 324.426 239.452L323.482 237.427C322.548 237.61 321.608 237.689 320.677 237.672L319.958 239.647C319.262 241.559 317.147 242.545 315.235 241.849C313.322 241.153 312.336 239.039 313.033 237.126L313.624 235.502C312.732 234.921 311.905 234.23 311.164 233.438L309.735 234.105C307.891 234.965 305.698 234.167 304.838 232.323C303.978 230.478 304.776 228.286 306.621 227.426L307.811 226.871C307.583 225.709 307.515 224.537 307.597 223.384L306.426 222.958C304.513 222.262 303.527 220.147 304.223 218.235C304.919 216.322 307.034 215.336 308.946 216.032L310.117 216.459C310.796 215.523 311.601 214.669 312.522 213.925L311.968 212.735C311.108 210.891 311.905 208.698 313.75 207.838C315.594 206.978 317.787 207.776 318.647 209.621L319.313 211.05C320.389 210.919 321.467 210.922 322.523 211.05L323.115 209.426C323.811 207.513 325.925 206.527 327.838 207.223C329.75 207.919 330.736 210.034 330.04 211.946L329.321 213.921C330.046 214.506 330.715 215.171 331.312 215.912L333.337 214.968C335.182 214.107 337.374 214.905 338.234 216.75C339.094 218.594 338.296 220.787 336.452 221.647L334.188 222.702C334.291 223.552 334.311 224.402 334.252 225.243L336.647 226.115C338.559 226.811 339.545 228.925 338.849 230.837C338.153 232.75 336.039 233.736 334.126 233.04L331.731 232.168C331.236 232.85 330.674 233.489 330.049 234.073L331.105 236.337C331.965 238.182 331.167 240.374 329.323 241.234ZM321.042 230.03C323.84 230.03 326.109 227.762 326.109 224.963C326.109 222.165 323.84 219.897 321.042 219.897C318.244 219.897 315.976 222.165 315.976 224.963C315.976 227.762 318.244 230.03 321.042 230.03Z" fill="#E6E6E6"/>
<path d="M324.426 239.452L323.973 239.663L324.426 239.452ZM323.482 237.427L323.935 237.216C323.838 237.007 323.611 236.892 323.385 236.936L323.482 237.427ZM320.677 237.672L320.686 237.172C320.473 237.168 320.28 237.3 320.207 237.501L320.677 237.672ZM319.958 239.647L320.428 239.818L319.958 239.647ZM313.033 237.126L313.502 237.297V237.297L313.033 237.126ZM313.624 235.502L314.094 235.673C314.173 235.454 314.092 235.209 313.897 235.083L313.624 235.502ZM311.164 233.438L311.53 233.097C311.382 232.939 311.149 232.894 310.953 232.985L311.164 233.438ZM309.735 234.105L309.947 234.558H309.947L309.735 234.105ZM304.838 232.323L305.292 232.111H305.292L304.838 232.323ZM306.621 227.426L306.409 226.973H306.409L306.621 227.426ZM307.811 226.871L308.022 227.324C308.23 227.227 308.345 227 308.301 226.775L307.811 226.871ZM307.597 223.384L308.095 223.419C308.111 223.196 307.977 222.99 307.768 222.914L307.597 223.384ZM306.426 222.958L306.597 222.488L306.597 222.488L306.426 222.958ZM304.223 218.235L303.753 218.064H303.753L304.223 218.235ZM308.946 216.032L309.117 215.563L309.117 215.563L308.946 216.032ZM310.117 216.459L309.946 216.928C310.156 217.005 310.391 216.933 310.522 216.752L310.117 216.459ZM312.522 213.925L312.837 214.314C313.015 214.17 313.073 213.922 312.976 213.714L312.522 213.925ZM311.968 212.735L312.421 212.524L311.968 212.735ZM313.75 207.838L313.539 207.385V207.385L313.75 207.838ZM318.647 209.621L318.194 209.832V209.832L318.647 209.621ZM319.313 211.05L318.86 211.261C318.951 211.457 319.159 211.572 319.374 211.546L319.313 211.05ZM322.523 211.05L322.463 211.547C322.694 211.575 322.914 211.44 322.993 211.221L322.523 211.05ZM323.115 209.426L322.645 209.255V209.255L323.115 209.426ZM327.838 207.223L328.009 206.753V206.753L327.838 207.223ZM330.04 211.946L330.51 212.117V212.117L330.04 211.946ZM329.321 213.921L328.851 213.75C328.778 213.951 328.841 214.176 329.007 214.31L329.321 213.921ZM331.312 215.912L330.923 216.226C331.068 216.405 331.315 216.462 331.524 216.365L331.312 215.912ZM333.337 214.968L333.126 214.514L333.337 214.968ZM338.234 216.75L338.687 216.539V216.539L338.234 216.75ZM336.452 221.647L336.663 222.1L336.452 221.647ZM334.188 222.702L333.976 222.249C333.78 222.341 333.665 222.548 333.691 222.763L334.188 222.702ZM334.252 225.243L333.753 225.208C333.737 225.43 333.871 225.636 334.081 225.713L334.252 225.243ZM336.647 226.115L336.476 226.584L336.647 226.115ZM338.849 230.837L339.319 231.008V231.008L338.849 230.837ZM334.126 233.04L333.955 233.51H333.955L334.126 233.04ZM331.731 232.168L331.902 231.698C331.692 231.622 331.457 231.694 331.326 231.874L331.731 232.168ZM330.049 234.073L329.708 233.708C329.55 233.856 329.504 234.088 329.596 234.284L330.049 234.073ZM331.105 236.337L330.652 236.548L331.105 236.337ZM323.973 239.663C324.949 241.758 327.439 242.664 329.534 241.687L329.111 240.781C327.517 241.524 325.622 240.835 324.879 239.24L323.973 239.663ZM323.028 237.638L323.973 239.663L324.879 239.24L323.935 237.216L323.028 237.638ZM320.667 238.171C321.633 238.19 322.609 238.107 323.578 237.918L323.385 236.936C322.487 237.112 321.583 237.189 320.686 237.172L320.667 238.171ZM320.428 239.818L321.146 237.843L320.207 237.501L319.488 239.476L320.428 239.818ZM315.064 242.319C317.236 243.109 319.637 241.99 320.428 239.818L319.488 239.476C318.886 241.129 317.059 241.981 315.406 241.379L315.064 242.319ZM312.563 236.955C311.772 239.127 312.892 241.528 315.064 242.319L315.406 241.379C313.753 240.778 312.901 238.95 313.502 237.297L312.563 236.955ZM313.154 235.331L312.563 236.955L313.502 237.297L314.094 235.673L313.154 235.331ZM310.799 233.78C311.567 234.602 312.426 235.318 313.351 235.921L313.897 235.083C313.038 234.524 312.242 233.859 311.53 233.097L310.799 233.78ZM309.947 234.558L311.376 233.892L310.953 232.985L309.524 233.652L309.947 234.558ZM304.385 232.534C305.362 234.628 307.852 235.535 309.947 234.558L309.524 233.652C307.93 234.395 306.035 233.705 305.292 232.111L304.385 232.534ZM306.409 226.973C304.315 227.949 303.408 230.439 304.385 232.534L305.292 232.111C304.548 230.517 305.238 228.622 306.832 227.879L306.409 226.973ZM307.599 226.418L306.409 226.973L306.832 227.879L308.022 227.324L307.599 226.418ZM307.098 223.349C307.013 224.545 307.084 225.761 307.32 226.967L308.301 226.775C308.082 225.656 308.017 224.529 308.095 223.419L307.098 223.349ZM306.255 223.427L307.426 223.854L307.768 222.914L306.597 222.488L306.255 223.427ZM303.753 218.064C302.963 220.235 304.083 222.637 306.255 223.427L306.597 222.488C304.944 221.886 304.091 220.059 304.693 218.406L303.753 218.064ZM309.117 215.563C306.945 214.772 304.544 215.892 303.753 218.064L304.693 218.406C305.295 216.753 307.122 215.901 308.775 216.502L309.117 215.563ZM310.288 215.989L309.117 215.563L308.775 216.502L309.946 216.928L310.288 215.989ZM312.208 213.536C311.252 214.308 310.417 215.194 309.712 216.165L310.522 216.752C311.175 215.852 311.95 215.03 312.837 214.314L312.208 213.536ZM311.514 212.946L312.069 214.136L312.976 213.714L312.421 212.524L311.514 212.946ZM313.539 207.385C311.444 208.362 310.538 210.852 311.514 212.946L312.421 212.524C311.677 210.93 312.367 209.035 313.961 208.291L313.539 207.385ZM319.1 209.409C318.123 207.315 315.633 206.408 313.539 207.385L313.961 208.291C315.555 207.548 317.45 208.238 318.194 209.832L319.1 209.409ZM319.766 210.838L319.1 209.409L318.194 209.832L318.86 211.261L319.766 210.838ZM322.584 210.554C321.488 210.421 320.369 210.418 319.253 210.553L319.374 211.546C320.409 211.42 321.446 211.423 322.463 211.547L322.584 210.554ZM322.645 209.255L322.054 210.879L322.993 211.221L323.585 209.597L322.645 209.255ZM328.009 206.753C325.837 205.963 323.435 207.083 322.645 209.255L323.585 209.597C324.186 207.944 326.014 207.091 327.667 207.693L328.009 206.753ZM330.51 212.117C331.3 209.945 330.18 207.544 328.009 206.753L327.667 207.693C329.319 208.295 330.172 210.122 329.57 211.775L330.51 212.117ZM329.791 214.092L330.51 212.117L329.57 211.775L328.851 213.75L329.791 214.092ZM331.701 215.598C331.081 214.829 330.387 214.139 329.635 213.532L329.007 214.31C329.705 214.873 330.348 215.514 330.923 216.226L331.701 215.598ZM333.126 214.514L331.101 215.459L331.524 216.365L333.549 215.421L333.126 214.514ZM338.687 216.539C337.71 214.444 335.221 213.538 333.126 214.514L333.549 215.421C335.143 214.677 337.038 215.367 337.781 216.961L338.687 216.539ZM336.663 222.1C338.758 221.123 339.664 218.633 338.687 216.539L337.781 216.961C338.524 218.555 337.835 220.45 336.24 221.194L336.663 222.1ZM334.399 223.156L336.663 222.1L336.24 221.194L333.976 222.249L334.399 223.156ZM334.75 225.278C334.812 224.406 334.791 223.524 334.684 222.642L333.691 222.763C333.791 223.58 333.81 224.399 333.753 225.208L334.75 225.278ZM336.818 225.645L334.423 224.773L334.081 225.713L336.476 226.584L336.818 225.645ZM339.319 231.008C340.109 228.837 338.99 226.435 336.818 225.645L336.476 226.584C338.129 227.186 338.981 229.014 338.379 230.666L339.319 231.008ZM333.955 233.51C336.127 234.3 338.528 233.18 339.319 231.008L338.379 230.666C337.778 232.319 335.95 233.172 334.297 232.57L333.955 233.51ZM331.56 232.638L333.955 233.51L334.297 232.57L331.902 231.698L331.56 232.638ZM330.391 234.438C331.039 233.832 331.623 233.169 332.136 232.462L331.326 231.874C330.85 232.531 330.309 233.145 329.708 233.708L330.391 234.438ZM331.558 236.126L330.502 233.862L329.596 234.284L330.652 236.548L331.558 236.126ZM329.534 241.687C331.629 240.71 332.535 238.221 331.558 236.126L330.652 236.548C331.395 238.143 330.705 240.038 329.111 240.781L329.534 241.687ZM325.609 224.963C325.609 227.485 323.564 229.53 321.042 229.53V230.53C324.117 230.53 326.609 228.038 326.609 224.963H325.609ZM321.042 220.397C323.564 220.397 325.609 222.441 325.609 224.963H326.609C326.609 221.889 324.117 219.397 321.042 219.397V220.397ZM316.476 224.963C316.476 222.441 318.52 220.397 321.042 220.397V219.397C317.968 219.397 315.476 221.889 315.476 224.963H316.476ZM321.042 229.53C318.52 229.53 316.476 227.485 316.476 224.963H315.476C315.476 228.038 317.968 230.53 321.042 230.53V229.53Z" fill="#333333"/>
</svg>
