<svg width="530" height="300" viewBox="0 0 530 300" fill="none" xmlns="http://www.w3.org/2000/svg">
<path d="M27.6465 225.882C27.6465 222.634 30.2801 220 33.5288 220H120.588C123.836 220 126.47 222.634 126.47 225.882V267.059C126.47 270.308 123.836 272.941 120.588 272.941H33.5288C30.2801 272.941 27.6465 270.308 27.6465 267.059V225.882Z" stroke="#808080" stroke-linejoin="round"/>
<path d="M192.354 208.235C192.354 204.987 189.72 202.353 186.471 202.353H51.1773C47.9285 202.353 45.2949 204.987 45.2949 208.235V249.412C45.2949 252.661 47.9285 255.294 51.1772 255.294H174.706L192.354 237.647V208.235Z" fill="white" stroke="#333333" stroke-linejoin="round"/>
<path d="M174.706 237.647H192.354L174.706 255.294V237.647Z" fill="white" stroke="#333333" stroke-linejoin="round"/>
<path d="M57.0576 221.053L71.5467 211.765L86.0358 221.053L71.5467 230.341L57.0576 221.053Z" fill="white" stroke="#333333" stroke-linejoin="round"/>
<path d="M71.5467 247.059L57.0576 238.279V221.053L71.5467 229.833V247.059Z" fill="white" stroke="#333333" stroke-linejoin="round"/>
<path d="M71.5469 247.059L86.036 238.279V221.053L71.5469 229.833V247.059Z" fill="#E6E6E6" stroke="#333333" stroke-linejoin="round"/>
<path d="M97.8018 221.053L112.291 211.765L126.78 221.053L112.291 230.341L97.8018 221.053Z" fill="white" stroke="#333333" stroke-linejoin="round"/>
<path d="M112.291 247.059L97.8018 238.279V221.053L112.291 229.833V247.059Z" fill="white" stroke="#333333" stroke-linejoin="round"/>
<path d="M112.291 247.059L126.78 238.279V221.053L112.291 229.833V247.059Z" fill="#E6E6E6" stroke="#333333" stroke-linejoin="round"/>
<path d="M138.544 221.053L153.033 211.765L167.522 221.053L153.033 230.341L138.544 221.053Z" fill="white" stroke="#333333" stroke-linejoin="round"/>
<path d="M153.033 247.059L138.544 238.279V221.053L153.033 229.833V247.059Z" fill="white" stroke="#333333" stroke-linejoin="round"/>
<path d="M153.033 247.059L167.522 238.279V221.053L153.033 229.833V247.059Z" fill="#E6E6E6" stroke="#333333" stroke-linejoin="round"/>
<path d="M192.353 272.941H157.059" stroke="#808080" stroke-width="2" stroke-linecap="round" stroke-linejoin="round" stroke-dasharray="0 11"/>
<path d="M244.321 268.503C245.419 270.859 248.219 271.878 250.575 270.779C252.93 269.681 253.949 266.881 252.851 264.525L251.503 261.634C252.301 260.888 253.019 260.072 253.651 259.201L256.71 260.314C259.152 261.203 261.852 259.944 262.741 257.502C263.63 255.059 262.371 252.359 259.929 251.47L256.87 250.357C256.946 249.284 256.92 248.197 256.788 247.112L259.68 245.764C262.035 244.666 263.054 241.866 261.956 239.51C260.857 237.155 258.057 236.136 255.702 237.234L253.116 238.44C252.353 237.495 251.499 236.645 250.573 235.898L251.491 233.376C252.38 230.933 251.121 228.233 248.678 227.344C246.236 226.455 243.536 227.714 242.647 230.156L241.892 232.231C240.542 232.067 239.166 232.064 237.792 232.231L236.941 230.406C235.842 228.05 233.042 227.031 230.687 228.129C228.331 229.228 227.312 232.028 228.411 234.383L229.119 235.903C227.943 236.853 226.914 237.944 226.048 239.138L224.552 238.594C222.11 237.705 219.409 238.964 218.52 241.407C217.632 243.849 218.891 246.549 221.333 247.438L222.829 247.983C222.725 249.455 222.811 250.952 223.102 252.436L221.582 253.145C219.227 254.243 218.208 257.043 219.306 259.398C220.404 261.754 223.204 262.773 225.56 261.674L227.385 260.823C228.33 261.835 229.387 262.717 230.526 263.458L229.771 265.533C228.882 267.975 230.141 270.676 232.583 271.565C235.026 272.454 237.726 271.194 238.615 268.752L239.533 266.23C240.722 266.252 241.923 266.151 243.115 265.917L244.321 268.503Z" fill="#F2F2F2" stroke="#808080" stroke-width="1.17647" stroke-linejoin="round"/>
<path d="M240 256.47C243.574 256.47 246.471 253.574 246.471 250C246.471 246.426 243.574 243.529 240 243.529C236.426 243.529 233.529 246.426 233.529 250C233.529 253.574 236.426 256.47 240 256.47Z" fill="white" stroke="#808080" stroke-width="1.17647" stroke-linejoin="round"/>
<path fill-rule="evenodd" clip-rule="evenodd" d="M281.766 250.588C281.766 253.187 283.873 255.294 286.472 255.294C289.071 255.294 291.178 253.187 291.178 250.588V247.398C292.217 247.059 293.212 246.623 294.153 246.1L296.454 248.402C298.292 250.24 301.272 250.24 303.11 248.402C304.947 246.564 304.947 243.585 303.11 241.747L300.808 239.445C301.33 238.505 301.766 237.509 302.105 236.47H305.295C307.894 236.47 310.001 234.364 310.001 231.765C310.001 229.166 307.894 227.059 305.295 227.059H302.442C302.149 225.879 301.734 224.748 301.211 223.68L303.109 221.782C304.947 219.944 304.947 216.965 303.109 215.127C301.271 213.289 298.292 213.289 296.454 215.127L294.893 216.688C293.739 215.969 292.494 215.384 291.178 214.955V212.941C291.178 210.342 289.071 208.235 286.472 208.235C283.873 208.235 281.766 210.342 281.766 212.941V214.618C280.298 214.982 278.905 215.536 277.614 216.252L276.489 215.127C274.651 213.289 271.672 213.289 269.834 215.127C267.996 216.964 267.996 219.944 269.834 221.782L270.959 222.907C270.243 224.197 269.688 225.591 269.325 227.059H267.648C265.049 227.059 262.942 229.166 262.942 231.765C262.942 234.364 265.049 236.47 267.648 236.47H269.662C270.091 237.787 270.676 239.032 271.395 240.186L269.834 241.747C267.996 243.585 267.996 246.565 269.834 248.402C271.671 250.24 274.651 250.24 276.489 248.402L278.387 246.504C279.455 247.028 280.586 247.443 281.766 247.735V250.588Z" fill="#F2F2F2"/>
<path d="M291.178 247.398L290.995 246.838C290.753 246.917 290.589 247.143 290.589 247.398H291.178ZM294.153 246.1L294.569 245.684C294.383 245.499 294.097 245.459 293.867 245.586L294.153 246.1ZM300.808 239.445L300.293 239.16C300.166 239.389 300.206 239.675 300.392 239.861L300.808 239.445ZM302.105 236.47V235.882C301.85 235.882 301.624 236.046 301.545 236.288L302.105 236.47ZM302.442 227.059L301.871 227.2C301.936 227.463 302.171 227.647 302.442 227.647V227.059ZM301.211 223.68L300.795 223.264C300.617 223.442 300.572 223.713 300.683 223.939L301.211 223.68ZM294.893 216.688L294.582 217.187C294.814 217.332 295.115 217.298 295.309 217.104L294.893 216.688ZM291.178 214.955H290.589C290.589 215.21 290.753 215.435 290.995 215.514L291.178 214.955ZM281.766 214.618L281.907 215.189C282.17 215.124 282.354 214.888 282.354 214.618H281.766ZM277.614 216.252L277.198 216.668C277.384 216.854 277.67 216.894 277.9 216.766L277.614 216.252ZM270.959 222.907L271.473 223.193C271.601 222.963 271.561 222.677 271.375 222.491L270.959 222.907ZM269.325 227.059V227.647C269.595 227.647 269.831 227.463 269.896 227.2L269.325 227.059ZM269.662 236.47L270.221 236.288C270.142 236.046 269.916 235.882 269.662 235.882V236.47ZM271.395 240.186L271.811 240.602C272.004 240.408 272.039 240.107 271.894 239.875L271.395 240.186ZM278.387 246.504L278.646 245.976C278.42 245.865 278.149 245.91 277.971 246.088L278.387 246.504ZM281.766 247.735H282.354C282.354 247.465 282.17 247.229 281.907 247.164L281.766 247.735ZM286.472 254.706C284.198 254.706 282.354 252.862 282.354 250.588H281.178C281.178 253.512 283.548 255.882 286.472 255.882V254.706ZM290.589 250.588C290.589 252.862 288.746 254.706 286.472 254.706V255.882C289.396 255.882 291.766 253.512 291.766 250.588H290.589ZM290.589 247.398V250.588H291.766V247.398H290.589ZM293.867 245.586C292.959 246.09 291.998 246.511 290.995 246.838L291.36 247.957C292.435 247.606 293.465 247.155 294.438 246.615L293.867 245.586ZM296.87 247.986L294.569 245.684L293.737 246.516L296.038 248.818L296.87 247.986ZM302.694 247.986C301.086 249.594 298.478 249.594 296.87 247.986L296.038 248.818C298.106 250.886 301.458 250.886 303.525 248.818L302.694 247.986ZM302.694 242.163C304.302 243.771 304.302 246.378 302.694 247.986L303.525 248.818C305.593 246.751 305.593 243.399 303.525 241.331L302.694 242.163ZM300.392 239.861L302.694 242.163L303.525 241.331L301.223 239.029L300.392 239.861ZM301.545 236.288C301.218 237.291 300.797 238.252 300.293 239.16L301.322 239.731C301.862 238.758 302.313 237.728 302.664 236.653L301.545 236.288ZM305.295 235.882H302.105V237.059H305.295V235.882ZM309.413 231.765C309.413 234.039 307.569 235.882 305.295 235.882V237.059C308.219 237.059 310.589 234.688 310.589 231.765H309.413ZM305.295 227.647C307.569 227.647 309.413 229.49 309.413 231.765H310.589C310.589 228.841 308.219 226.47 305.295 226.47V227.647ZM302.442 227.647H305.295V226.47H302.442V227.647ZM300.683 223.939C301.188 224.97 301.589 226.062 301.871 227.2L303.013 226.917C302.71 225.697 302.281 224.527 301.739 223.421L300.683 223.939ZM302.693 221.366L300.795 223.264L301.627 224.096L303.525 222.198L302.693 221.366ZM302.693 215.543C304.301 217.151 304.301 219.758 302.693 221.366L303.525 222.198C305.593 220.13 305.593 216.778 303.525 214.711L302.693 215.543ZM296.87 215.543C298.478 213.935 301.085 213.935 302.693 215.543L303.525 214.711C301.458 212.643 298.106 212.643 296.038 214.711L296.87 215.543ZM295.309 217.104L296.87 215.543L296.038 214.711L294.477 216.272L295.309 217.104ZM290.995 215.514C292.265 215.929 293.468 216.493 294.582 217.187L295.204 216.189C294.011 215.445 292.722 214.84 291.36 214.396L290.995 215.514ZM290.589 212.941V214.955H291.766V212.941H290.589ZM286.472 208.823C288.746 208.823 290.589 210.667 290.589 212.941H291.766C291.766 210.017 289.396 207.647 286.472 207.647V208.823ZM282.354 212.941C282.354 210.667 284.198 208.823 286.472 208.823V207.647C283.548 207.647 281.178 210.017 281.178 212.941H282.354ZM282.354 214.618V212.941H281.178V214.618H282.354ZM277.9 216.766C279.146 216.075 280.49 215.54 281.907 215.189L281.624 214.047C280.105 214.423 278.664 214.997 277.329 215.738L277.9 216.766ZM276.073 215.543L277.198 216.668L278.03 215.836L276.905 214.711L276.073 215.543ZM270.25 215.543C271.858 213.935 274.465 213.935 276.073 215.543L276.905 214.711C274.838 212.643 271.485 212.643 269.418 214.711L270.25 215.543ZM270.25 221.366C268.642 219.758 268.642 217.151 270.25 215.543L269.418 214.711C267.35 216.778 267.35 220.13 269.418 222.198L270.25 221.366ZM271.375 222.491L270.25 221.366L269.418 222.198L270.543 223.323L271.375 222.491ZM269.896 227.2C270.247 225.783 270.782 224.438 271.473 223.193L270.445 222.621C269.704 223.956 269.13 225.398 268.754 226.917L269.896 227.2ZM267.648 227.647H269.325V226.47H267.648V227.647ZM263.531 231.765C263.531 229.49 265.374 227.647 267.648 227.647V226.47C264.724 226.47 262.354 228.841 262.354 231.765H263.531ZM267.648 235.882C265.374 235.882 263.531 234.039 263.531 231.765H262.354C262.354 234.688 264.724 237.059 267.648 237.059V235.882ZM269.662 235.882H267.648V237.059H269.662V235.882ZM271.894 239.875C271.2 238.761 270.635 237.558 270.221 236.288L269.102 236.653C269.547 238.015 270.152 239.304 270.896 240.497L271.894 239.875ZM270.25 242.163L271.811 240.602L270.979 239.77L269.418 241.331L270.25 242.163ZM270.25 247.986C268.641 246.378 268.641 243.771 270.25 242.163L269.418 241.331C267.35 243.399 267.35 246.751 269.418 248.818L270.25 247.986ZM276.073 247.986C274.465 249.594 271.858 249.594 270.25 247.986L269.418 248.818C271.485 250.886 274.837 250.886 276.905 248.818L276.073 247.986ZM277.971 246.088L276.073 247.986L276.905 248.818L278.803 246.92L277.971 246.088ZM281.907 247.164C280.769 246.882 279.677 246.481 278.646 245.976L278.128 247.032C279.233 247.574 280.404 248.004 281.624 248.306L281.907 247.164ZM282.354 250.588V247.735H281.178V250.588H282.354Z" fill="#808080"/>
<path d="M285.883 237.646C289.457 237.646 292.354 234.75 292.354 231.176C292.354 227.602 289.457 224.705 285.883 224.705C282.309 224.705 279.412 227.602 279.412 231.176C279.412 234.75 282.309 237.646 285.883 237.646Z" fill="white" stroke="#808080" stroke-width="1.17647" stroke-linejoin="round"/>
<path d="M412.353 203.53H341.764C338.516 203.53 335.882 206.164 335.882 209.412V267.059C335.882 270.308 338.516 272.942 341.764 272.942H412.353C415.601 272.942 418.235 270.308 418.235 267.059V209.412C418.235 206.164 415.601 203.53 412.353 203.53Z" fill="white" stroke="#333333" stroke-linejoin="round"/>
<path d="M412.354 221.177H341.766V267.059H412.354V221.177Z" fill="#E6E6E6" stroke="#333333" stroke-linejoin="round"/>
<path fill-rule="evenodd" clip-rule="evenodd" d="M469.18 270.357L471.764 272.941L474.348 270.357H478.003V266.702L480.587 264.118L478.003 261.533V257.879H474.348L471.764 255.294L469.18 257.879H465.525V261.534L462.94 264.118L465.525 266.702V270.357H469.18Z" fill="white" stroke="#333333" stroke-linejoin="round"/>
<path fill-rule="evenodd" clip-rule="evenodd" d="M165.65 65.6512L168.235 68.2355L170.819 65.6512H174.474V61.9964L177.058 59.4119L174.474 56.8275V53.1728H170.819L168.235 50.5884L165.65 53.1728H161.995V56.8277L159.411 59.4119L161.995 61.9962V65.6512H165.65Z" fill="white" stroke="#333333" stroke-linejoin="round"/>
<path fill-rule="evenodd" clip-rule="evenodd" d="M495.862 221.194C495.876 220.994 495.883 220.792 495.883 220.588C495.883 215.715 491.932 211.765 487.059 211.765C482.186 211.765 478.236 215.715 478.236 220.588C478.236 220.786 478.242 220.982 478.255 221.176H477.647C472.774 221.176 468.823 225.127 468.823 230C468.823 234.873 472.774 238.824 477.647 238.824H495.294C500.167 238.824 504.118 234.873 504.118 230C504.118 225.318 500.471 221.487 495.862 221.194Z" fill="white" stroke="#333333" stroke-linejoin="round"/>
<path d="M495.862 221.194L495.275 221.155C495.265 221.311 495.317 221.465 495.42 221.582C495.523 221.7 495.669 221.772 495.825 221.782L495.862 221.194ZM478.255 221.176V221.765C478.418 221.765 478.573 221.697 478.684 221.579C478.796 221.46 478.853 221.3 478.842 221.138L478.255 221.176ZM495.294 220.588C495.294 220.779 495.288 220.968 495.275 221.155L496.449 221.234C496.464 221.021 496.471 220.805 496.471 220.588H495.294ZM487.059 212.353C491.607 212.353 495.294 216.04 495.294 220.588H496.471C496.471 215.39 492.257 211.176 487.059 211.176V212.353ZM478.824 220.588C478.824 216.04 482.511 212.353 487.059 212.353V211.176C481.861 211.176 477.647 215.39 477.647 220.588H478.824ZM478.842 221.138C478.83 220.956 478.824 220.773 478.824 220.588H477.647C477.647 220.799 477.654 221.008 477.668 221.215L478.842 221.138ZM477.647 221.765H478.255V220.588H477.647V221.765ZM469.412 230C469.412 225.452 473.099 221.765 477.647 221.765V220.588C472.449 220.588 468.235 224.802 468.235 230H469.412ZM477.647 238.235C473.099 238.235 469.412 234.548 469.412 230H468.235C468.235 235.198 472.449 239.412 477.647 239.412V238.235ZM495.294 238.235H477.647V239.412H495.294V238.235ZM503.529 230C503.529 234.548 499.842 238.235 495.294 238.235V239.412C500.492 239.412 504.706 235.198 504.706 230H503.529ZM495.825 221.782C500.125 222.055 503.529 225.63 503.529 230H504.706C504.706 225.005 500.816 220.92 495.9 220.607L495.825 221.782Z" fill="#808080"/>
<path d="M445.295 272.941C447.894 272.941 450.001 270.834 450.001 268.235C450.001 265.636 447.894 263.529 445.295 263.529C442.696 263.529 440.589 265.636 440.589 268.235C440.589 270.834 442.696 272.941 445.295 272.941Z" fill="white" stroke="#333333" stroke-linejoin="round"/>
<path d="M167.647 91.7645C170.246 91.7645 172.353 89.6576 172.353 87.0587C172.353 84.4597 170.246 82.3528 167.647 82.3528C165.048 82.3528 162.941 84.4597 162.941 87.0587C162.941 89.6576 165.048 91.7645 167.647 91.7645Z" fill="#E6E6E6" stroke="#333333" stroke-linejoin="round"/>
<path d="M167.647 36.4706C170.246 36.4706 172.353 34.3637 172.353 31.7647C172.353 29.1657 170.246 27.0588 167.647 27.0588C165.048 27.0588 162.941 29.1657 162.941 31.7647C162.941 34.3637 165.048 36.4706 167.647 36.4706Z" fill="#E6E6E6" stroke="#333333" stroke-linejoin="round"/>
<path d="M498.236 272.941C500.835 272.941 502.942 270.834 502.942 268.235C502.942 265.636 500.835 263.529 498.236 263.529C495.637 263.529 493.53 265.636 493.53 268.235C493.53 270.834 495.637 272.941 498.236 272.941Z" fill="white" stroke="#333333" stroke-linejoin="round"/>
<path d="M355.883 212.941H342.941" stroke="#808080" stroke-width="2" stroke-linecap="round" stroke-linejoin="round" stroke-dasharray="0 11"/>
<path d="M127.647 47.0588H68.8238C65.575 47.0588 62.9414 49.6925 62.9414 52.9412V103.529C62.9414 106.778 65.575 109.412 68.8238 109.412H127.647C130.896 109.412 133.53 106.778 133.53 103.529V52.9412C133.53 49.6925 130.896 47.0588 127.647 47.0588Z" fill="#E6E6E6" stroke="#333333" stroke-linejoin="round"/>
<path d="M27.6465 32.9412C27.6465 29.6925 30.2801 27.0588 33.5288 27.0588H109.999C113.248 27.0588 115.882 29.6925 115.882 32.9412V85.8824C115.882 89.1311 113.248 91.7647 109.999 91.7647H47.7301C46.17 91.7647 44.6738 92.3845 43.5706 93.4876L27.6465 109.412V32.9412Z" fill="white" stroke="#333333" stroke-linejoin="round"/>
<path fill-rule="evenodd" clip-rule="evenodd" d="M445.295 90.5882V78.8235H433.53C431.118 78.8235 429.045 80.2754 428.137 82.353H404.119V87.0589H428.137C429.045 89.1364 431.118 90.5882 433.53 90.5882H445.295Z" fill="#F2F2F2"/>
<path d="M445.295 78.8236H445.883C445.883 78.4987 445.62 78.2354 445.295 78.2354V78.8236ZM445.295 90.5883V91.1765C445.62 91.1765 445.883 90.9132 445.883 90.5883H445.295ZM428.137 82.3531V82.9413C428.371 82.9413 428.583 82.8028 428.676 82.5886L428.137 82.3531ZM404.119 82.3531V81.7648C403.794 81.7648 403.531 82.0282 403.531 82.3531H404.119ZM404.119 87.059H403.531C403.531 87.3838 403.794 87.6472 404.119 87.6472V87.059ZM428.137 87.059L428.676 86.8234C428.583 86.6092 428.371 86.4706 428.137 86.4706V87.059ZM444.707 78.8236V90.5883H445.883V78.8236H444.707ZM433.53 79.4118H445.295V78.2354H433.53V79.4118ZM428.676 82.5886C429.494 80.7175 431.36 79.4118 433.53 79.4118V78.2354C430.876 78.2354 428.596 79.8335 427.598 82.1176L428.676 82.5886ZM428.137 81.7648H404.119V82.9413H428.137V81.7648ZM403.531 82.3531V87.059H404.707V82.3531H403.531ZM404.119 87.6472H428.137V86.4706H404.119V87.6472ZM433.53 90.0001C431.36 90.0001 429.494 88.6944 428.676 86.8234L427.598 87.2945C428.596 89.5785 430.876 91.1765 433.53 91.1765V90.0001ZM445.295 90.0001H433.53V91.1765H445.295V90.0001Z" fill="#333333"/>
<path fill-rule="evenodd" clip-rule="evenodd" d="M410 96.4708V72.9414H401.765C401.765 74.8907 400.185 76.4708 398.236 76.4708C396.287 76.4708 394.707 74.8907 394.707 72.9414H380.588C374.091 72.9414 368.824 78.2086 368.824 84.7061C368.824 91.2036 374.091 96.4708 380.588 96.4708H394.707C394.707 94.5215 396.287 92.9414 398.236 92.9414C400.185 92.9414 401.765 94.5215 401.765 96.4708H410Z" fill="#E6E6E6"/>
<path d="M410 72.9415H410.588C410.588 72.6166 410.325 72.3533 410 72.3533V72.9415ZM410 96.4709V97.0592C410.156 97.0592 410.306 96.9972 410.416 96.8869C410.526 96.7765 410.588 96.6269 410.588 96.4709H410ZM401.765 72.9415V72.3533C401.609 72.3533 401.46 72.4152 401.349 72.5256C401.239 72.6359 401.177 72.7855 401.177 72.9415H401.765ZM394.707 72.9415H395.295C395.295 72.6166 395.031 72.3533 394.707 72.3533V72.9415ZM394.707 96.4709V97.0592C395.031 97.0592 395.295 96.7958 395.295 96.4709H394.707ZM401.765 96.4709H401.177C401.177 96.7958 401.441 97.0592 401.765 97.0592V96.4709ZM409.412 72.9415V96.4709H410.588V72.9415H409.412ZM401.765 73.5297H410V72.3533H401.765V73.5297ZM398.236 77.0592C400.51 77.0592 402.354 75.2156 402.354 72.9415H401.177C401.177 74.5659 399.86 75.8827 398.236 75.8827V77.0592ZM394.118 72.9415C394.118 75.2156 395.962 77.0592 398.236 77.0592V75.8827C396.612 75.8827 395.295 74.5659 395.295 72.9415H394.118ZM380.588 73.5297H394.707V72.3533H380.588V73.5297ZM369.412 84.7062C369.412 78.5336 374.416 73.5297 380.588 73.5297V72.3533C373.766 72.3533 368.235 77.8839 368.235 84.7062H369.412ZM380.588 95.8827C374.416 95.8827 369.412 90.8788 369.412 84.7062H368.235C368.235 91.5286 373.766 97.0592 380.588 97.0592V95.8827ZM394.707 95.8827H380.588V97.0592H394.707V95.8827ZM398.236 92.3532C395.962 92.3532 394.118 94.1968 394.118 96.4709H395.295C395.295 94.8465 396.612 93.5297 398.236 93.5297V92.3532ZM402.354 96.4709C402.354 94.1968 400.51 92.3532 398.236 92.3532V93.5297C399.86 93.5297 401.177 94.8465 401.177 96.4709H402.354ZM410 95.8827H401.765V97.0592H410V95.8827Z" fill="#333333"/>
<path fill-rule="evenodd" clip-rule="evenodd" d="M349.53 44.706C349.53 48.6044 346.369 51.7648 342.471 51.7648H327.648L333.648 62.3532H353.648L359.399 52.2037L393.069 53.7001C398.193 53.9278 402.471 49.8352 402.471 44.7062C402.471 39.5772 398.193 35.4846 393.069 35.7123L359.399 37.2087L353.648 27.0591H333.648L327.648 37.6471H342.471C346.369 37.6471 349.53 40.8075 349.53 44.706Z" fill="white"/>
<path d="M327.648 51.7647V51.1764C327.438 51.1764 327.245 51.2877 327.139 51.4685C327.034 51.6494 327.033 51.8726 327.136 52.0547L327.648 51.7647ZM333.648 62.3531L333.136 62.6431C333.24 62.8274 333.436 62.9413 333.648 62.9413V62.3531ZM353.648 62.3531V62.9413C353.86 62.9413 354.055 62.8274 354.16 62.6431L353.648 62.3531ZM359.399 52.2036L359.425 51.6159C359.204 51.6061 358.996 51.7211 358.887 51.9136L359.399 52.2036ZM359.399 37.2086L358.887 37.4987C358.997 37.6911 359.204 37.8061 359.425 37.7963L359.399 37.2086ZM353.648 27.059L354.16 26.769C354.055 26.5846 353.86 26.4707 353.648 26.4707V27.059ZM333.648 27.059V26.4707C333.436 26.4707 333.24 26.5846 333.136 26.769L333.648 27.059ZM327.648 37.647L327.136 37.357C327.033 37.5391 327.034 37.7624 327.14 37.9432C327.245 38.124 327.439 38.2353 327.648 38.2353V37.647ZM342.471 52.3529C346.694 52.3529 350.118 48.9292 350.118 44.7059H348.942C348.942 48.2795 346.045 51.1764 342.471 51.1764V52.3529ZM327.648 52.3529H342.471V51.1764H327.648V52.3529ZM327.136 52.0547L333.136 62.6431L334.16 62.0631L328.159 51.4747L327.136 52.0547ZM333.648 62.9413H353.648V61.7649H333.648V62.9413ZM354.16 62.6431L359.911 52.4936L358.887 51.9136L353.136 62.0631L354.16 62.6431ZM359.373 52.7912L393.043 54.2876L393.095 53.1123L359.425 51.6159L359.373 52.7912ZM393.043 54.2876C398.501 54.5302 403.059 50.1702 403.059 44.7061H401.883C401.883 49.4999 397.884 53.3252 393.095 53.1123L393.043 54.2876ZM403.059 44.7061C403.059 39.242 398.501 34.882 393.042 35.1246L393.095 36.2999C397.884 36.087 401.883 39.9123 401.883 44.7061H403.059ZM393.042 35.1246L359.373 36.621L359.425 37.7963L393.095 36.2999L393.042 35.1246ZM359.911 36.9186L354.16 26.769L353.136 27.349L358.887 37.4987L359.911 36.9186ZM353.648 26.4707H333.648V27.6472H353.648V26.4707ZM333.136 26.769L327.136 37.357L328.16 37.937L334.16 27.349L333.136 26.769ZM342.471 37.0588H327.648V38.2353H342.471V37.0588ZM350.118 44.7059C350.118 40.4825 346.694 37.0588 342.471 37.0588V38.2353C346.045 38.2353 348.942 41.1322 348.942 44.7059H350.118Z" fill="#333333"/>
<path d="M439.412 52.9412H427.648V40.6162H420.589L433.53 27.0588L446.471 40.6162H439.412V52.9412Z" fill="white" stroke="#333333" stroke-linecap="round" stroke-linejoin="round"/>
<path d="M445.294 205.882V236.471" stroke="#808080" stroke-width="2" stroke-linecap="round" stroke-linejoin="round" stroke-dasharray="0 11"/>
<path d="M92 121.177V178.824" stroke="#808080" stroke-width="2" stroke-linecap="round" stroke-linejoin="round" stroke-dasharray="0 11"/>
<path d="M108 121.177V178.824" stroke="#808080" stroke-width="2" stroke-linecap="round" stroke-linejoin="round" stroke-dasharray="0 11"/>
<path d="M123 121.177V178.824" stroke="#808080" stroke-width="2" stroke-linecap="round" stroke-linejoin="round" stroke-dasharray="0 11"/>
<path d="M413.236 121.177V178.824" stroke="#808080" stroke-width="2" stroke-linecap="round" stroke-linejoin="round" stroke-dasharray="0 11"/>
<path d="M43.3174 125.145C42.8598 125.145 42.4889 124.777 42.4889 124.323C42.4889 123.868 42.8598 123.5 43.3174 123.5V125.145ZM68.7574 172.858C69.0809 173.18 69.0809 173.701 68.7574 174.022L63.485 179.26C63.1615 179.58 62.6369 179.58 62.3133 179.26C61.9898 178.938 61.9898 178.417 62.3133 178.096V178.096C64.8963 175.53 64.8966 171.351 62.3133 168.785V168.785C61.9898 168.463 61.9898 167.943 62.3133 167.621C62.6369 167.299 63.1615 167.299 63.485 167.621L68.7574 172.858ZM43.3174 123.5H55.7444V125.145H43.3174V123.5ZM55.7444 149.834H40.1248V148.189H55.7444V149.834ZM40.1248 172.617H67.3481C67.8029 172.617 68.1716 172.986 68.1716 173.441V173.441C68.1716 173.895 67.8029 174.264 67.3481 174.264H40.1248V172.617ZM28.657 161.226C28.657 167.518 33.7913 172.617 40.1248 172.617V174.264C32.8761 174.264 27 168.426 27 161.226H28.657ZM40.1248 149.834C33.7913 149.834 28.657 154.935 28.657 161.226H27C27 154.025 32.8761 148.189 40.1248 148.189V149.834ZM68.9999 136.668C68.9999 143.938 63.0652 149.834 55.7444 149.834V148.189C62.1501 148.189 67.343 143.03 67.343 136.668H68.9999ZM55.7444 123.5C63.0652 123.5 68.9999 129.395 68.9999 136.668H67.343C67.343 130.303 62.1501 125.145 55.7444 125.145V123.5Z" fill="#808080"/>
<path d="M495.449 109H436.551C432.381 109 429 112.379 429 116.547V181.453C429 185.621 432.381 189 436.551 189H495.449C499.619 189 503 185.621 503 181.453V116.547C503 112.379 499.619 109 495.449 109Z" stroke="#808080" stroke-linejoin="round"/>
<path d="M132 134.441V121.5H144.941L132 134.441Z" fill="white" stroke="#333333" stroke-linejoin="round"/>
<path d="M404.942 165.5V178.441H392L404.942 165.5Z" fill="white" stroke="#333333" stroke-linejoin="round"/>
<path d="M467.647 27.6472C467.322 27.6472 467.059 27.3838 467.059 27.0589C467.059 26.7341 467.322 26.4707 467.647 26.4707V27.6472ZM467.231 80.416C467.002 80.1863 467.002 79.8138 467.231 79.5841L470.975 75.8406C471.205 75.6109 471.577 75.6109 471.807 75.8406C472.036 76.0703 472.036 76.4428 471.807 76.6725L468.479 80.0001L471.807 83.3276C472.036 83.5573 472.036 83.9298 471.807 84.1595C471.577 84.3892 471.205 84.3892 470.975 84.1595L467.231 80.416ZM467.647 26.4707H494.118V27.6472H467.647V26.4707ZM494.118 45.2942H476.378V44.1178H494.118V45.2942ZM476.378 61.579H487.375V62.7555H476.378V61.579ZM487.375 80.5883H467.647V79.4118H487.375V80.5883ZM496.88 71.0837C496.88 76.3329 492.625 80.5883 487.375 80.5883V79.4118C491.975 79.4118 495.704 75.6832 495.704 71.0837H496.88ZM487.375 61.579C492.625 61.579 496.88 65.8344 496.88 71.0837H495.704C495.704 66.4841 491.975 62.7555 487.375 62.7555V61.579ZM468.236 53.4366C468.236 57.9335 471.881 61.579 476.378 61.579V62.7555C471.231 62.7555 467.059 58.5833 467.059 53.4366H468.236ZM476.378 45.2942C471.881 45.2942 468.236 48.9397 468.236 53.4366H467.059C467.059 48.29 471.231 44.1178 476.378 44.1178V45.2942ZM503.53 35.8825C503.53 41.0804 499.316 45.2942 494.118 45.2942V44.1178C498.666 44.1178 502.353 40.4307 502.353 35.8825H503.53ZM494.118 26.4707C499.316 26.4707 503.53 30.6845 503.53 35.8825H502.353C502.353 31.3342 498.666 27.6472 494.118 27.6472V26.4707Z" fill="#808080"/>
<path d="M467.647 27.6472C467.322 27.6472 467.059 27.3838 467.059 27.0589C467.059 26.7341 467.322 26.4707 467.647 26.4707M467.647 27.6472V26.4707M467.647 27.6472H494.118M467.647 26.4707H494.118M494.118 26.4707V27.6472M494.118 26.4707C499.316 26.4707 503.53 30.6845 503.53 35.8825M494.118 27.6472C498.666 27.6472 502.353 31.3342 502.353 35.8825M494.118 45.2942H476.378M494.118 45.2942V44.1178M494.118 45.2942C499.316 45.2942 503.53 41.0804 503.53 35.8825M476.378 45.2942V44.1178M476.378 45.2942C471.881 45.2942 468.236 48.9397 468.236 53.4366M476.378 44.1178H494.118M476.378 44.1178C471.231 44.1178 467.059 48.29 467.059 53.4366M494.118 44.1178C498.666 44.1178 502.353 40.4307 502.353 35.8825M476.378 61.579H487.375M476.378 61.579V62.7555M476.378 61.579C471.881 61.579 468.236 57.9335 468.236 53.4366M487.375 61.579V62.7555M487.375 61.579C492.625 61.579 496.88 65.8344 496.88 71.0837M487.375 62.7555H476.378M487.375 62.7555C491.975 62.7555 495.704 66.4841 495.704 71.0837M476.378 62.7555C471.231 62.7555 467.059 58.5833 467.059 53.4366M487.375 80.5883H468.235C467.91 80.5883 467.647 80.3249 467.647 80.0001V80.0001C467.647 79.6752 467.91 79.4118 468.235 79.4118H487.375M487.375 80.5883V79.4118M487.375 80.5883C492.625 80.5883 496.88 76.3329 496.88 71.0837M487.375 79.4118C491.975 79.4118 495.704 75.6832 495.704 71.0837M496.88 71.0837H495.704M468.236 53.4366H467.059M503.53 35.8825H502.353M467.231 80.416C467.002 80.1863 467.002 79.8138 467.231 79.5841L470.975 75.8406C471.205 75.6109 471.577 75.6109 471.807 75.8406C472.036 76.0703 472.036 76.4428 471.807 76.6725V76.6725C469.969 78.5102 469.969 81.4899 471.807 83.3276V83.3276C472.036 83.5573 472.036 83.9298 471.807 84.1595C471.577 84.3892 471.205 84.3892 470.975 84.1595L467.231 80.416Z" stroke="#808080" stroke-linejoin="round"/>
<path d="M194.706 38.8235C194.706 32.3261 199.973 27.0588 206.471 27.0588H306.471C309.719 27.0588 312.353 29.6925 312.353 32.9412V68.2353C312.353 74.7328 307.086 80 300.588 80H215.322C213.795 80 212.328 80.5936 211.231 81.6553L194.706 97.6471V38.8235Z" fill="#F2F2F2" stroke="#808080" stroke-width="1.17647" stroke-linejoin="round"/>
<path d="M223.53 68.2355C232.302 68.2355 239.412 61.1247 239.412 52.3531C239.412 43.5815 232.302 36.4707 223.53 36.4707C214.758 36.4707 207.648 43.5815 207.648 52.3531C207.648 61.1247 214.758 68.2355 223.53 68.2355Z" fill="white" stroke="#808080" stroke-width="1.17647" stroke-linejoin="round"/>
<path d="M243.529 68.2355C252.301 68.2355 259.411 61.1247 259.411 52.3531C259.411 43.5815 252.301 36.4707 243.529 36.4707C234.757 36.4707 227.647 43.5815 227.647 52.3531C227.647 61.1247 234.757 68.2355 243.529 68.2355Z" fill="white" stroke="#808080" stroke-width="1.17647" stroke-linejoin="round"/>
<path d="M263.53 68.2355C272.302 68.2355 279.412 61.1247 279.412 52.3531C279.412 43.5815 272.302 36.4707 263.53 36.4707C254.758 36.4707 247.648 43.5815 247.648 52.3531C247.648 61.1247 254.758 68.2355 263.53 68.2355Z" fill="white" stroke="#808080" stroke-width="1.17647" stroke-linejoin="round"/>
<path d="M283.529 68.2353C292.301 68.2353 299.411 61.1245 299.411 52.3529C299.411 43.5812 292.301 36.4705 283.529 36.4705C274.757 36.4705 267.647 43.5812 267.647 52.3529C267.647 61.1245 274.757 68.2353 283.529 68.2353Z" fill="white" stroke="#808080" stroke-width="1.17647" stroke-linejoin="round"/>
<path fill-rule="evenodd" clip-rule="evenodd" d="M277.739 50.0929L275.479 52.3527L277.739 54.6126V57.8076H280.934L283.194 60.067L285.453 57.8076H288.649V54.6118L290.908 52.3527L288.649 50.0936V46.8979H285.453L283.194 44.6384L280.934 46.8979H277.739V50.0929Z" fill="#F2F2F2"/>
<path d="M275.479 52.3528L275.064 51.9369C274.953 52.0472 274.891 52.1968 274.891 52.3528C274.891 52.5088 274.953 52.6584 275.064 52.7688L275.479 52.3528ZM277.739 50.093L278.155 50.5089C278.266 50.3986 278.328 50.249 278.328 50.093H277.739ZM277.739 54.6127H278.328C278.328 54.4566 278.266 54.307 278.155 54.1967L277.739 54.6127ZM277.739 57.8077H277.151C277.151 58.1325 277.414 58.3959 277.739 58.3959V57.8077ZM280.934 57.8077L281.35 57.3917C281.24 57.2814 281.09 57.2194 280.934 57.2194V57.8077ZM283.194 60.0671L282.778 60.483C283.008 60.7128 283.38 60.7128 283.61 60.483L283.194 60.0671ZM285.453 57.8077V57.2194C285.297 57.2194 285.148 57.2814 285.037 57.3917L285.453 57.8077ZM288.649 57.8077V58.3959C288.974 58.3959 289.237 58.1325 289.237 57.8077H288.649ZM288.649 54.6119L288.233 54.196C288.123 54.3063 288.061 54.4559 288.061 54.6119H288.649ZM290.908 52.3528L291.324 52.7688C291.554 52.539 291.554 52.1666 291.324 51.9369L290.908 52.3528ZM288.649 50.0937H288.061C288.061 50.2497 288.123 50.3994 288.233 50.5097L288.649 50.0937ZM288.649 46.898H289.237C289.237 46.5731 288.974 46.3098 288.649 46.3098V46.898ZM285.453 46.898L285.037 47.314C285.148 47.4243 285.297 47.4862 285.453 47.4862V46.898ZM283.194 44.6385L283.61 44.2226C283.38 43.9929 283.008 43.9929 282.778 44.2226L283.194 44.6385ZM280.934 46.898V47.4862C281.09 47.4862 281.24 47.4243 281.35 47.314L280.934 46.898ZM277.739 46.898V46.3098C277.414 46.3098 277.151 46.5731 277.151 46.898H277.739ZM275.895 52.7688L278.155 50.5089L277.323 49.677L275.064 51.9369L275.895 52.7688ZM278.155 54.1967L275.895 51.9369L275.064 52.7688L277.323 55.0286L278.155 54.1967ZM278.328 57.8077V54.6127H277.151V57.8077H278.328ZM280.934 57.2194H277.739V58.3959H280.934V57.2194ZM283.61 59.6512L281.35 57.3917L280.518 58.2236L282.778 60.483L283.61 59.6512ZM285.037 57.3917L282.778 59.6512L283.61 60.483L285.869 58.2236L285.037 57.3917ZM288.649 57.2194H285.453V58.3959H288.649V57.2194ZM288.061 54.6119V57.8077H289.237V54.6119H288.061ZM290.492 51.9369L288.233 54.196L289.065 55.0278L291.324 52.7688L290.492 51.9369ZM288.233 50.5097L290.492 52.7688L291.324 51.9369L289.065 49.6778L288.233 50.5097ZM288.061 46.898V50.0937H289.237V46.898H288.061ZM285.453 47.4862H288.649V46.3098H285.453V47.4862ZM282.778 45.0545L285.037 47.314L285.869 46.4821L283.61 44.2226L282.778 45.0545ZM281.35 47.314L283.61 45.0545L282.778 44.2226L280.518 46.4821L281.35 47.314ZM277.739 47.4862H280.934V46.3098H277.739V47.4862ZM278.328 50.093V46.898H277.151V50.093H278.328Z" fill="#808080"/>
<path d="M194.706 38.8235C194.706 32.3261 199.973 27.0588 206.471 27.0588H306.471C309.719 27.0588 312.353 29.6925 312.353 32.9412V68.2353C312.353 74.7328 307.086 80 300.588 80H215.322C213.795 80 212.328 80.5936 211.231 81.6553L194.706 97.6471V38.8235Z" fill="#E6E6E6" stroke="#333333" stroke-linejoin="round"/>
<path d="M223.53 68.2355C232.302 68.2355 239.412 61.1247 239.412 52.3531C239.412 43.5815 232.302 36.4707 223.53 36.4707C214.758 36.4707 207.648 43.5815 207.648 52.3531C207.648 61.1247 214.758 68.2355 223.53 68.2355Z" fill="white" stroke="#333333" stroke-linejoin="round"/>
<path d="M243.529 68.2355C252.301 68.2355 259.411 61.1247 259.411 52.3531C259.411 43.5815 252.301 36.4707 243.529 36.4707C234.757 36.4707 227.647 43.5815 227.647 52.3531C227.647 61.1247 234.757 68.2355 243.529 68.2355Z" fill="white" stroke="#333333" stroke-linejoin="round"/>
<path d="M263.53 68.2355C272.302 68.2355 279.412 61.1247 279.412 52.3531C279.412 43.5815 272.302 36.4707 263.53 36.4707C254.758 36.4707 247.648 43.5815 247.648 52.3531C247.648 61.1247 254.758 68.2355 263.53 68.2355Z" fill="white" stroke="#333333" stroke-linejoin="round"/>
<path d="M283.529 68.2353C292.301 68.2353 299.411 61.1245 299.411 52.3529C299.411 43.5812 292.301 36.4705 283.529 36.4705C274.757 36.4705 267.647 43.5812 267.647 52.3529C267.647 61.1245 274.757 68.2353 283.529 68.2353Z" fill="white" stroke="#333333" stroke-linejoin="round"/>
<path fill-rule="evenodd" clip-rule="evenodd" d="M277.739 50.0929L275.479 52.3527L277.739 54.6126V57.8076H280.934L283.194 60.067L285.453 57.8076H288.649V54.6118L290.908 52.3527L288.649 50.0936V46.8979H285.453L283.194 44.6384L280.934 46.8979H277.739V50.0929Z" fill="#F2F2F2" stroke="#333333" stroke-linejoin="round"/>
<path d="M191.578 161.621L204.861 153.58C205.565 153.153 206 152.361 206 151.511V135.429C206 134.579 205.565 133.787 204.861 133.36L191.578 125.319C190.874 124.892 189.999 124.896 189.299 125.319L176.016 133.36C175.312 133.787 174.877 134.579 174.877 135.429V164.168L165.562 169.803L156.246 164.168V152.892L165.562 147.256L171.705 150.976V143.412L166.701 140.38C166.356 140.173 165.961 140.061 165.562 140.061C165.162 140.061 164.766 140.173 164.422 140.38L151.139 148.422C150.435 148.849 150 149.641 150 150.491V166.572C150 167.423 150.435 168.215 151.139 168.642L164.422 176.683C165.126 177.106 165.996 177.106 166.701 176.683L179.984 168.642C180.688 168.215 181.123 167.423 181.123 166.572V137.834L181.289 137.735L190.435 132.199L199.75 137.834V149.11L190.435 154.746L184.3 151.034V158.598L189.295 161.621C189.999 162.044 190.874 162.044 191.574 161.621H191.578Z" fill="url(#paint0_linear_2090_529)"/>
<path d="M378.516 171.667H379.016V171.167V150.455C379.016 146.308 377.964 143.188 375.752 141.217C373.576 139.262 370.721 138.306 367.236 138.306C365.869 138.306 364.539 138.472 363.247 138.805L363.247 138.805L363.245 138.805C361.963 139.141 360.784 139.665 359.713 140.379L359.713 140.379L359.71 140.381C358.774 141.017 357.972 141.822 357.306 142.791L356.294 139.265L356.191 138.903H355.814H349.195H348.695V139.403V171.167V171.667H349.195H357.86H358.36V171.167V156.222C358.36 152.866 358.84 150.368 359.749 148.674L359.749 148.674C360.602 147.086 362.204 146.238 364.736 146.238C366.379 146.238 367.493 146.77 368.191 147.76L368.191 147.76L368.194 147.764C368.939 148.797 369.35 150.388 369.35 152.614V171.167V171.667H369.85H378.516Z" fill="white" stroke="#333333"/>
<path d="M343.925 139.102L343.961 138.664L343.53 138.573C343.139 138.49 342.643 138.431 342.047 138.393C341.47 138.335 340.954 138.306 340.501 138.306C339.032 138.306 337.655 138.594 336.375 139.174C335.129 139.727 334.011 140.48 333.023 141.428C332.219 142.199 331.523 143.04 330.937 143.951L329.821 139.287L329.729 138.903H329.335H322.771H322.271V139.403V171.167V171.667H322.771H331.437H331.937V171.167V155.001C331.937 153.555 332.166 152.373 332.6 151.434C333.062 150.458 333.675 149.693 334.436 149.122L334.436 149.122L334.442 149.118C335.222 148.515 336.1 148.08 337.08 147.812C338.097 147.539 339.142 147.403 340.216 147.403C340.571 147.403 340.997 147.43 341.497 147.486L341.507 147.487L341.517 147.488C342.031 147.524 342.39 147.587 342.616 147.662L343.22 147.862L343.271 147.227L343.925 139.102Z" fill="white" stroke="#333333"/>
<path d="M310.728 141.146L310.728 141.146C308.333 139.19 304.937 138.249 300.61 138.249C298.337 138.249 296.128 138.509 293.986 139.03L293.985 139.03C291.866 139.551 289.943 140.265 288.217 141.177L287.788 141.404L288.001 141.839L290.87 147.691L291.083 148.125L291.524 147.927C292.982 147.274 294.438 146.732 295.893 146.304L295.894 146.304C297.325 145.881 298.783 145.67 300.269 145.67C301.741 145.67 302.821 146.037 303.573 146.708C304.299 147.355 304.713 148.413 304.713 150V150.907L299.686 151.063L299.683 151.063C294.91 151.235 291.248 152.133 288.766 153.82C286.235 155.522 284.995 158.175 284.995 161.677C284.995 164.028 285.432 166.014 286.34 167.608L286.341 167.61C287.241 169.17 288.479 170.34 290.049 171.105L290.052 171.107C291.624 171.862 293.385 172.235 295.326 172.235C297.116 172.235 298.66 172.063 299.949 171.706L299.949 171.706C301.236 171.349 302.383 170.792 303.385 170.031C304.232 169.387 305.058 168.587 305.864 167.637L307.304 171.348L307.428 171.667H307.77H313.822H314.322V171.167V150C314.322 146.109 313.15 143.124 310.728 141.146ZM301.874 157.063L301.877 157.063L304.713 156.967V159.064C304.713 160.975 304.111 162.386 302.957 163.372L302.954 163.374C301.786 164.385 300.343 164.899 298.593 164.899C297.416 164.899 296.513 164.641 295.845 164.169C295.244 163.728 294.888 162.964 294.888 161.734C294.888 160.355 295.372 159.276 296.331 158.45C297.293 157.639 299.094 157.138 301.874 157.063Z" fill="white" stroke="#333333"/>
<path d="M260.596 157.944H280.551H281.051V157.444V153.239C281.051 150.091 280.463 147.391 279.258 145.159C278.057 142.934 276.347 141.233 274.138 140.069C271.93 138.886 269.317 138.306 266.317 138.306C263.254 138.306 260.545 138.946 258.206 140.243C255.857 141.526 254.027 143.46 252.717 146.022L252.716 146.024C251.421 148.576 250.787 151.747 250.787 155.512C250.787 159.228 251.489 162.351 252.928 164.853L252.929 164.856C254.38 167.344 256.376 169.205 258.912 170.425L258.914 170.425C261.453 171.636 264.351 172.235 267.596 172.235C270.061 172.235 272.171 172.054 273.921 171.684C275.685 171.317 277.373 170.734 278.982 169.939L279.261 169.802V169.491V162.786V162L278.549 162.333C276.795 163.154 275.093 163.767 273.442 164.176C271.801 164.58 269.986 164.786 267.993 164.786C265.649 164.786 263.877 164.125 262.61 162.861C261.448 161.665 260.765 160.042 260.596 157.944ZM271.256 148.438L271.256 148.438L271.26 148.445C271.623 149.247 271.841 150.155 271.906 151.177H260.813C261.032 149.215 261.621 147.831 262.518 146.949C263.533 145.968 264.806 145.471 266.374 145.471C267.668 145.471 268.68 145.75 269.447 146.267L269.447 146.267L269.451 146.269C270.259 146.801 270.859 147.52 271.256 148.438Z" fill="white" stroke="#333333"/>
<path d="M220.5 171.167V171.667H221H246.656H247.156V171.167V163.894V163.394H246.656H230.308V129.629V129.129H229.808H221H220.5V129.629V171.167Z" fill="white" stroke="#333333"/>
<path d="M395.609 237.046C390.35 234.937 384.541 232.967 378.343 231.189C377.464 230.937 376.536 230.937 375.657 231.189C371.697 232.325 367.877 233.545 364.302 234.815C363.996 234.923 363.836 235.26 363.945 235.566C364.053 235.872 364.39 236.032 364.696 235.923C368.248 234.661 372.045 233.449 375.982 232.32C376.648 232.129 377.352 232.129 378.018 232.32C384.178 234.087 389.949 236.044 395.171 238.138C395.711 238.354 395.904 238.839 395.904 239.221C395.904 239.602 395.711 240.087 395.171 240.304C392.548 241.356 389.784 242.374 386.9 243.351C386.846 243.283 386.777 243.226 386.695 243.187L377.253 238.69C376.96 238.55 376.609 238.675 376.469 238.968C376.329 239.261 376.454 239.612 376.747 239.752L385.373 243.86C382.994 244.643 380.54 245.398 378.018 246.122C377.352 246.313 376.648 246.313 375.982 246.122C369.817 244.354 364.046 242.396 358.829 240.304C358.288 240.087 358.096 239.602 358.096 239.221C358.096 238.839 358.289 238.354 358.829 238.138C360.016 237.662 361.249 237.186 362.492 236.724C362.796 236.611 362.952 236.273 362.838 235.968C362.725 235.664 362.386 235.508 362.082 235.621C360.83 236.087 359.588 236.566 358.391 237.046C357.483 237.41 356.92 238.243 356.92 239.22C356.919 240.198 357.483 241.032 358.391 241.396C360.534 242.256 362.77 243.092 365.086 243.902V250.399C365.086 251.107 365.507 251.742 366.158 252.018C369.282 253.34 372.794 254.558 376.602 255.638C376.758 255.682 376.918 255.704 377.079 255.704C377.24 255.704 377.401 255.682 377.56 255.638C380.516 254.798 383.295 253.876 385.853 252.886V254.729C384.929 254.987 384.249 255.836 384.249 256.841V259.939C384.249 260.264 384.512 260.527 384.837 260.527H388.047C388.371 260.527 388.635 260.264 388.635 259.939V256.841C388.635 255.836 387.954 254.987 387.03 254.729V252.419C387.357 252.286 387.681 252.153 387.999 252.018C388.651 251.743 389.073 251.107 389.073 250.399V249.467C389.073 249.142 388.809 248.879 388.484 248.879C388.159 248.879 387.896 249.142 387.896 249.467V250.399C387.896 250.633 387.757 250.843 387.541 250.934C387.372 251.006 387.201 251.077 387.03 251.148V244.549C387.32 244.451 387.608 244.353 387.896 244.254V247.114C387.896 247.439 388.159 247.702 388.484 247.702C388.809 247.702 389.073 247.439 389.073 247.114V243.846C391.332 243.053 393.516 242.236 395.609 241.396C396.517 241.032 397.081 240.198 397.08 239.22C397.08 238.243 396.516 237.41 395.609 237.046ZM387.458 256.841V259.35H385.425V256.841C385.425 256.281 385.881 255.825 386.442 255.825C387.002 255.825 387.458 256.281 387.458 256.841ZM385.853 251.623C383.214 252.662 380.325 253.629 377.242 254.505C377.134 254.535 377.021 254.534 376.92 254.506C373.162 253.439 369.696 252.237 366.617 250.934C366.402 250.843 366.263 250.633 366.263 250.399V244.309C369.272 245.337 372.41 246.321 375.657 247.253C376.097 247.379 376.548 247.442 377 247.442C377.452 247.442 377.904 247.379 378.343 247.253C380.918 246.514 383.425 245.742 385.853 244.941V251.623Z" fill="#333333"/>
<path d="M89.6841 71.5864C89.3105 71.5864 89.0077 71.8893 89.0077 72.2628V72.8507C89.0077 74.4669 87.6929 75.7818 86.0766 75.7818H81.0366C80.1664 75.7818 79.4583 76.4899 79.4583 77.3602V81.5983C79.4583 81.7226 79.3572 81.8238 79.2328 81.8238H61.6667C61.5423 81.8238 61.4412 81.7226 61.4412 81.5983V76.4825C61.4412 76.109 61.1384 75.8061 60.7648 75.8061C60.3911 75.8061 60.0884 76.109 60.0884 76.4825V81.5983C60.0884 82.4686 60.7964 83.1766 61.6667 83.1766H79.2328C80.1031 83.1766 80.8111 82.4686 80.8111 81.5983V77.3602C80.8111 77.2359 80.9122 77.1347 81.0366 77.1347H86.0766C88.4387 77.1347 90.3606 75.2128 90.3606 72.8507V72.2628C90.3606 71.8893 90.0578 71.5864 89.6841 71.5864Z" fill="#333333"/>
<path d="M94.4175 65.5207L90.4382 57.9541C90.3872 57.8574 90.3604 57.7485 90.3604 57.6392V55.1701C90.3604 50.3905 88.5261 45.872 85.1954 42.4471C81.853 39.0102 77.389 37.0764 72.6262 37.0022C68.026 36.9316 63.6755 38.5672 60.285 41.6249L58.7935 40.1334C58.4102 39.7501 57.9006 39.539 57.3586 39.539H53.0878C52.8056 38.712 52.0214 38.1153 51.1001 38.1153C49.942 38.1153 49 39.0574 49 40.2155C49 41.3735 49.942 42.3156 51.1001 42.3156C52.0214 42.3156 52.8055 41.7189 53.0878 40.8919H57.3586C57.5393 40.8919 57.7092 40.9622 57.8369 41.09L59.314 42.5671C56.3345 45.6781 54.5976 49.6699 54.3494 53.9526H53.0878C52.8056 53.1256 52.0214 52.5289 51.1001 52.5289C49.942 52.5289 49 53.471 49 54.629C49 55.7871 49.942 56.7292 51.1001 56.7292C52.0214 56.7292 52.8055 56.1325 53.0878 55.3055H54.3207C54.387 59.6528 55.9729 63.727 58.8322 66.95L55.9052 69.877C55.5219 70.2603 55.3108 70.7698 55.3108 71.3119V73.0461C54.4838 73.3283 53.8871 74.1125 53.8871 75.0339C53.8871 76.1919 54.8292 77.1341 55.9872 77.1341C57.1453 77.1341 58.0874 76.1919 58.0874 75.0339C58.0874 74.1125 57.4907 73.3284 56.6636 73.0461V71.3119C56.6636 71.1312 56.734 70.9613 56.8618 70.8335L59.7669 67.9285C59.8021 67.9629 59.8366 67.9979 59.8722 68.0321C60.0094 68.1637 60.0882 68.3442 60.0882 68.5275V73.4794C60.0882 73.853 60.391 74.1558 60.7646 74.1558C61.1383 74.1558 61.4411 73.853 61.4411 73.4794V68.5275C61.4411 67.9773 61.2104 67.4408 60.8083 67.0554C60.7796 67.0279 60.7519 66.9997 60.7234 66.9721L63.1577 64.5378L64.0315 65.4115C64.2443 65.6245 64.5275 65.7418 64.8287 65.7418C65.1298 65.7418 65.4129 65.6246 65.6259 65.4116L67.5815 63.456C68.1033 63.729 68.6496 63.9556 69.2097 64.1314V66.896C69.2097 67.5177 69.7154 68.0234 70.3371 68.0234H74.0459C74.6676 68.0234 75.1733 67.5177 75.1733 66.896V64.1314C75.7333 63.9556 76.2794 63.729 76.8014 63.456L78.7571 65.4116C79.1967 65.8511 79.9119 65.8509 80.3515 65.4115L82.9739 62.789C83.1869 62.5761 83.3042 62.2929 83.3042 61.9917C83.3042 61.6906 83.1869 61.4075 82.974 61.1946L81.0183 59.239C81.2913 58.7174 81.5179 58.171 81.6937 57.6109H84.4583C85.08 57.6109 85.5857 57.1052 85.5857 56.4835V52.7747C85.5857 52.153 85.08 51.6473 84.4583 51.6473H81.6937C81.5179 51.0872 81.2914 50.5409 81.0183 50.0192L82.9739 48.0636C83.1869 47.8507 83.3042 47.5676 83.3042 47.2664C83.3042 46.9653 83.1869 46.6821 82.974 46.4693L80.3513 43.8466C79.9118 43.4073 79.1967 43.4073 78.757 43.8467L76.8014 45.8023C76.2797 45.5293 75.7334 45.3027 75.1733 45.1269V42.3622C75.1733 41.7406 74.6676 41.2349 74.0459 41.2349H70.3371C69.7154 41.2349 69.2097 41.7406 69.2097 42.3622V45.1269C68.6495 45.3027 68.1033 45.5293 67.5815 45.8023L65.6258 43.8465C65.1863 43.4071 64.471 43.407 64.0315 43.8466L63.2691 44.6089L61.2425 42.5824C64.3708 39.7846 68.3739 38.2888 72.605 38.3548C77.0075 38.4234 81.1344 40.2117 84.2255 43.3902C87.3092 46.5612 89.0075 50.7447 89.0075 55.17V57.6391C89.0075 57.9669 89.088 58.2934 89.2407 58.5837L93.2201 66.1504C93.2716 66.2483 93.2382 66.3311 93.2136 66.3719C93.189 66.4125 93.1313 66.4807 93.0205 66.4807H90.5858C89.7156 66.4807 89.0075 67.1888 89.0075 68.059V69.35C89.0075 69.7236 89.3103 70.0264 89.6839 70.0264C90.0576 70.0264 90.3603 69.7236 90.3603 69.35V68.059C90.3603 67.9348 90.4614 67.8336 90.5858 67.8336H93.0205C93.5783 67.8336 94.0833 67.5486 94.3716 67.0711C94.66 66.5939 94.6771 66.0143 94.4175 65.5207ZM51.1001 40.9628C50.6881 40.9628 50.3528 40.6275 50.3528 40.2155C50.3528 39.8034 50.6881 39.4681 51.1001 39.4681C51.5121 39.4681 51.8474 39.8034 51.8474 40.2155C51.8474 40.6275 51.5121 40.9628 51.1001 40.9628ZM55.9871 75.7813C55.5751 75.7813 55.2398 75.4461 55.2398 75.034C55.2398 74.6219 55.5751 74.2867 55.9871 74.2867C56.3992 74.2867 56.7344 74.6219 56.7344 75.034C56.7344 75.4461 56.3993 75.7813 55.9871 75.7813ZM51.1001 55.3764C50.6881 55.3764 50.3528 55.0411 50.3528 54.629C50.3528 54.217 50.6881 53.8817 51.1001 53.8817C51.5121 53.8817 51.8474 54.217 51.8474 54.629C51.8474 55.0411 51.5121 55.3764 51.1001 55.3764ZM59.7909 65.9913C57.1858 63.0254 55.7392 59.29 55.6736 55.3055H58.7972V56.4835C58.7972 57.1052 59.3029 57.6109 59.9245 57.6109H62.6891C62.8649 58.171 63.0915 58.7173 63.3645 59.239L61.4088 61.1947C60.9694 61.6343 60.9694 62.3494 61.4088 62.789L62.201 63.5812L59.7909 65.9913ZM64.8286 44.9627L66.7435 46.8776C67.0943 47.2284 67.6441 47.3073 68.0804 47.0694C68.6122 46.7794 69.1752 46.5459 69.7537 46.3753C70.2298 46.2348 70.5624 45.7903 70.5624 45.2946V42.5877H73.8203V45.2946C73.8203 45.7905 74.153 46.2349 74.6292 46.3754C75.2076 46.5461 75.7705 46.7795 76.3023 47.0695C76.7387 47.3074 77.2883 47.2286 77.6392 46.8776L79.554 44.9627L81.8577 47.2664L79.943 49.1813C79.5919 49.5323 79.5131 50.0822 79.7511 50.5182C80.041 51.0499 80.2745 51.6128 80.4451 52.1916C80.5858 52.6677 81.0302 53.0002 81.5258 53.0002H84.2328V56.2581H81.5258C81.0301 56.2581 80.5856 56.5908 80.4451 57.0669C80.2744 57.6456 80.0409 58.2085 79.7512 58.7399C79.5131 59.1763 79.592 59.7262 79.9429 60.077L81.8578 61.9918L79.5541 64.2955L77.6393 62.3807C77.2885 62.0296 76.7385 61.9507 76.3024 62.1888C75.7706 62.4788 75.2075 62.7123 74.6294 62.8829C74.1531 63.0233 73.8204 63.4677 73.8204 63.9636V66.6706H70.5625V63.9636C70.5625 63.4678 70.2299 63.0233 69.7537 62.883C69.1754 62.7123 68.6125 62.4788 68.0806 62.1889C67.6441 61.9508 67.0942 62.0298 66.7436 62.3807L64.8287 64.2956L62.525 61.9919L64.4399 60.0769C64.7907 59.7261 64.8695 59.1764 64.6317 58.7401C64.3417 58.2083 64.1082 57.6453 63.9377 57.0671C63.7973 56.5908 63.3529 56.2581 62.8569 56.2581H60.15V53.0002H62.8569C63.3528 53.0002 63.7973 52.6676 63.9376 52.1914C64.1082 51.6131 64.3417 51.0502 64.6317 50.5183C64.8695 50.0821 64.7907 49.5323 64.4399 49.1813L62.525 47.2664L64.8286 44.9627ZM61.4089 48.0635L63.3646 50.0192C63.0916 50.541 62.865 51.0872 62.6892 51.6473H59.9246C59.3029 51.6473 58.7973 52.153 58.7973 52.7747V53.9527H55.7047C55.9505 50.032 57.5464 46.3791 60.2709 43.5242L62.3125 45.5657L61.4089 46.4693C60.9694 46.9088 60.9694 47.624 61.4089 48.0635Z" fill="#333333"/>
<path d="M65.4563 53.9341C65.8223 54.0088 66.1797 53.7731 66.2547 53.407C66.8283 50.6038 69.3252 48.5691 72.1915 48.5691C75.5329 48.5691 78.2513 51.2876 78.2513 54.6291C78.2513 57.9705 75.5328 60.689 72.1915 60.689C70.789 60.689 69.4727 60.2239 68.3845 59.3441C67.3269 58.4891 66.5801 57.2926 66.2814 55.975C66.1988 55.6107 65.8368 55.3823 65.4722 55.4648C65.1079 55.5474 64.8795 55.9097 64.9621 56.274C65.3277 57.8869 66.241 59.3508 67.534 60.3962C68.8466 61.4574 70.5007 62.0418 72.1915 62.0418C76.2789 62.0418 79.6042 58.7164 79.6042 54.6291C79.6042 50.5417 76.2789 47.2163 72.1915 47.2163C68.6854 47.2163 65.6313 49.7058 64.9294 53.1358C64.8545 53.5018 65.0904 53.8592 65.4563 53.9341Z" fill="#333333"/>
<path d="M489.771 140.397H486.441V140.023C486.441 139.092 485.684 138.335 484.753 138.335H478.186C477.734 138.335 477.367 138.702 477.367 139.155C477.367 139.608 477.734 139.974 478.186 139.974H484.753C484.78 139.974 484.802 139.996 484.802 140.023V150.016C484.802 150.469 485.169 150.836 485.622 150.836C486.075 150.836 486.441 150.469 486.441 150.016V142.036H489.771C489.882 142.036 489.972 142.126 489.972 142.237V170.83C489.972 172.706 488.446 174.232 486.571 174.232H446.04C444.165 174.232 442.639 172.706 442.639 170.83V142.237C442.639 142.126 442.729 142.036 442.84 142.036H446.279V170.067C446.279 171.223 447.219 172.163 448.375 172.163H484.345C485.501 172.163 486.441 171.223 486.441 170.067V153.512C486.441 153.059 486.074 152.692 485.622 152.692C485.169 152.692 484.802 153.059 484.802 153.512V165.306H471.542C469.825 165.306 468.275 166.032 467.18 167.192V156.591C467.18 156.138 466.813 155.771 466.36 155.771C465.908 155.771 465.541 156.138 465.541 156.591V167.193C464.446 166.033 462.896 165.306 461.178 165.306H457.454C457.002 165.306 456.635 165.673 456.635 166.126C456.635 166.579 457.002 166.945 457.454 166.945H461.178C463.316 166.945 465.099 168.492 465.469 170.524H448.375C448.123 170.524 447.918 170.319 447.918 170.067V166.945H453.959C454.411 166.945 454.778 166.579 454.778 166.126C454.778 165.673 454.411 165.306 453.959 165.306H447.918V140.023C447.918 139.996 447.94 139.974 447.967 139.974H454.534C454.987 139.974 455.354 139.608 455.354 139.155C455.354 138.702 454.987 138.335 454.534 138.335H447.967C447.036 138.335 446.279 139.092 446.279 140.023V140.397H442.84C441.825 140.397 441 141.223 441 142.237V170.83C441 173.61 443.261 175.871 446.04 175.871H486.571C489.35 175.871 491.611 173.61 491.611 170.83V142.237C491.611 141.223 490.786 140.397 489.771 140.397ZM471.542 166.945H484.802V170.067C484.802 170.319 484.597 170.524 484.345 170.524H467.252C467.622 168.491 469.404 166.945 471.542 166.945Z" fill="#808080"/>
<path d="M455.433 131.499C455.883 131.541 456.284 131.211 456.326 130.76C456.56 128.275 457.708 125.974 459.558 124.281C461.419 122.577 463.835 121.639 466.36 121.639C471.918 121.639 476.44 126.161 476.44 131.719C476.44 133.81 475.806 135.816 474.605 137.52C474.598 137.529 474.591 137.539 474.585 137.549L469.34 145.714C469.255 145.846 469.21 146 469.21 146.157V147.218C469.21 147.434 469.035 147.609 468.819 147.609H468.766L469.288 138.75H470.222C471.558 138.75 472.645 137.663 472.645 136.327V136.227C472.645 134.892 471.558 133.805 470.222 133.805C468.941 133.805 467.878 134.806 467.803 136.085L467.743 137.11H464.869L464.808 136.085C464.733 134.806 463.67 133.805 462.39 133.805C461.054 133.805 459.967 134.892 459.967 136.227V136.327C459.967 137.663 461.054 138.75 462.39 138.75H463.323L463.845 147.604C463.656 147.576 463.51 147.415 463.51 147.218V146.157C463.51 146 463.465 145.846 463.38 145.714L458.136 137.549C458.129 137.539 458.123 137.529 458.116 137.52C457.362 136.45 456.831 135.261 456.538 133.986C456.436 133.545 455.996 133.27 455.556 133.371C455.114 133.472 454.839 133.912 454.94 134.353C455.28 135.831 455.894 137.209 456.766 138.449L461.871 146.397V147.218C461.871 148.046 462.37 148.758 463.082 149.074V150.46C463.082 151.918 464.268 153.105 465.727 153.105H466.995C468.453 153.105 469.639 151.918 469.639 150.46V149.074C470.351 148.758 470.85 148.046 470.85 147.218V146.397L475.955 138.449C477.345 136.471 478.08 134.144 478.08 131.719C478.079 125.257 472.822 120 466.36 120C463.424 120 460.615 121.091 458.451 123.072C456.301 125.04 454.967 127.715 454.694 130.606C454.652 131.057 454.982 131.457 455.433 131.499ZM469.439 136.181C469.464 135.768 469.807 135.444 470.222 135.444C470.654 135.444 471.005 135.795 471.005 136.227V136.327C471.005 136.759 470.654 137.11 470.222 137.11H469.385L469.439 136.181ZM462.39 137.11C461.957 137.11 461.606 136.759 461.606 136.327V136.227C461.606 135.795 461.957 135.444 462.39 135.444C462.804 135.444 463.147 135.768 463.172 136.181L463.227 137.11H462.39ZM467.646 138.75L467.124 147.609H465.487L464.965 138.75H467.646ZM468 150.46C468 151.014 467.549 151.466 466.994 151.466H465.726C465.172 151.466 464.721 151.014 464.721 150.46V149.248H468V150.46Z" fill="#808080"/>
<path d="M480.716 126.223C480.908 126.223 481.101 126.156 481.257 126.02L483.045 124.45C483.385 124.151 483.419 123.633 483.12 123.293C482.822 122.953 482.304 122.919 481.964 123.218L480.175 124.788C479.835 125.086 479.802 125.604 480.1 125.944C480.262 126.129 480.489 126.223 480.716 126.223Z" fill="#808080"/>
<path d="M480.175 131.166L481.964 132.736C482.119 132.873 482.312 132.94 482.504 132.94C482.732 132.94 482.958 132.846 483.12 132.661C483.419 132.321 483.385 131.803 483.045 131.505L481.257 129.934C480.917 129.636 480.399 129.669 480.1 130.01C479.802 130.35 479.835 130.867 480.175 131.166Z" fill="#808080"/>
<path d="M449.675 124.45L451.464 126.02C451.619 126.156 451.812 126.223 452.004 126.223C452.232 126.223 452.458 126.129 452.62 125.945C452.919 125.605 452.885 125.087 452.545 124.788L450.757 123.218C450.417 122.919 449.899 122.953 449.6 123.293C449.302 123.633 449.335 124.151 449.675 124.45Z" fill="#808080"/>
<path d="M450.217 132.94C450.409 132.94 450.601 132.873 450.757 132.737L452.545 131.167C452.885 130.868 452.919 130.35 452.62 130.01C452.322 129.67 451.804 129.636 451.464 129.935L449.676 131.505C449.335 131.804 449.302 132.322 449.6 132.662C449.762 132.846 449.989 132.94 450.217 132.94Z" fill="#808080"/>
<path d="M459.109 148.429C459.109 147.976 458.742 147.609 458.289 147.609H450.216C449.764 147.609 449.397 147.976 449.397 148.429C449.397 148.881 449.764 149.248 450.216 149.248H458.289C458.742 149.248 459.109 148.881 459.109 148.429Z" fill="#808080"/>
<path d="M460.786 151.778H451.697C451.244 151.778 450.877 152.145 450.877 152.598C450.877 153.05 451.244 153.417 451.697 153.417H460.786C461.239 153.417 461.606 153.05 461.606 152.598C461.606 152.145 461.239 151.778 460.786 151.778Z" fill="#808080"/>
<path d="M460.786 155.771H451.697C451.244 155.771 450.877 156.138 450.877 156.591C450.877 157.044 451.244 157.41 451.697 157.41H460.786C461.239 157.41 461.606 157.044 461.606 156.591C461.606 156.138 461.239 155.771 460.786 155.771Z" fill="#808080"/>
<path d="M460.786 159.764H451.697C451.244 159.764 450.877 160.131 450.877 160.584C450.877 161.037 451.244 161.404 451.697 161.404H460.786C461.239 161.404 461.606 161.037 461.606 160.584C461.606 160.131 461.239 159.764 460.786 159.764Z" fill="#808080"/>
<path d="M483.324 148.429C483.324 147.976 482.957 147.609 482.504 147.609H474.431C473.978 147.609 473.612 147.976 473.612 148.429C473.612 148.881 473.978 149.248 474.431 149.248H482.504C482.957 149.248 483.324 148.881 483.324 148.429Z" fill="#808080"/>
<path d="M481.024 151.778H471.934C471.482 151.778 471.115 152.145 471.115 152.598C471.115 153.05 471.482 153.417 471.934 153.417H481.024C481.476 153.417 481.843 153.05 481.843 152.598C481.843 152.145 481.476 151.778 481.024 151.778Z" fill="#808080"/>
<path d="M481.024 155.771H471.934C471.482 155.771 471.115 156.138 471.115 156.591C471.115 157.044 471.482 157.41 471.934 157.41H481.024C481.476 157.41 481.843 157.044 481.843 156.591C481.843 156.138 481.476 155.771 481.024 155.771Z" fill="#808080"/>
<path d="M481.024 159.764H471.934C471.482 159.764 471.115 160.131 471.115 160.584C471.115 161.037 471.482 161.404 471.934 161.404H481.024C481.476 161.404 481.843 161.037 481.843 160.584C481.843 160.131 481.476 159.764 481.024 159.764Z" fill="#808080"/>
<defs>
<linearGradient id="paint0_linear_2090_529" x1="149.818" y1="168.149" x2="204.841" y2="137.682" gradientUnits="userSpaceOnUse">
<stop stop-color="#A726C1"/>
<stop offset="0.88" stop-color="#803BDF"/>
<stop offset="1" stop-color="#7B3FE4"/>
</linearGradient>
</defs>
</svg>
