<?xml version="1.0" encoding="UTF-8"?>
<svg id="Layer_1" data-name="Layer 1" xmlns="http://www.w3.org/2000/svg" xmlns:xlink="http://www.w3.org/1999/xlink" viewBox="0 0 329.98 72.4007">
  <g id="type">
    <path id="type_CompoundPathItem_" data-name="type &amp;lt;CompoundPathItem&amp;gt;" d="M99.4292,8.8789l-17.4317,49.0382h7.0769l3.9968-11.3873h20.7073l3.9316,11.3873h7.0769l-17.4294-49.0382h-7.9284ZM95.1044,40.4073l8.2866-23.9655,8.2262,23.9655h-16.5128Z" style="fill: #000; stroke-width: 0px;"/>
    <path id="type_CompoundPathItem_-2" data-name="type &amp;lt;CompoundPathItem&amp;gt;" d="M152.0035,27.3746c-1.2158-1.6039-2.694-2.9041-4.4574-3.8766-2.2287-1.2291-4.718-1.8438-7.4701-1.8438-3.3198,0-6.2906.7899-8.9124,2.3695-2.5776,1.5353-4.6086,3.6409-6.0952,6.3188-1.4866,2.6335-2.2287,5.6177-2.2287,8.9524s.7421,6.3397,2.2287,9.0177c1.4866,2.6758,3.5385,4.8046,6.1603,6.3843,2.6219,1.5797,5.5927,2.3695,8.9125,2.3695,2.7521,0,5.2646-.6356,7.5352-1.9092,1.6569-.9293,3.0276-2.169,4.1271-3.7049v4.9551c0,2.1078-.4816,3.9048-1.4424,5.3981-.9608,1.4908-2.2496,2.6102-3.8665,3.3556-1.6169.7899-3.4291,1.1848-5.4391,1.1848-2.5753,0-4.718-.5935-6.4208-1.7783-1.7053-1.1404-2.8615-2.5448-3.4733-4.2133l-5.8974,2.699c.7863,1.8414,1.9448,3.4656,3.4733,4.87,1.5284,1.4021,3.3431,2.5004,5.4391,3.2902,2.1403.7899,4.4783,1.1848,7.0118,1.1848l.0046.0023c3.2756,0,6.1812-.701,8.7147-2.1055,2.5777-1.36,4.5853-3.2458,6.0277-5.6598s2.1636-5.1573,2.1636-8.2279V22.4442h-6.0952v4.9304ZM150.2959,45.2117c-1.005,1.755-2.3357,3.1594-3.9968,4.2134-1.6168,1.0095-3.4733,1.5143-5.5694,1.5143-2.1845,0-4.1294-.5048-5.8323-1.5143-1.6588-1.054-2.9918-2.4584-3.9968-4.2134-.9608-1.7549-1.4424-3.6641-1.4424-5.8584s.4816-4.1478,1.4424-5.8584c1.005-1.755,2.3589-3.1594,4.0619-4.2133,1.7053-1.054,3.7153-1.5797,5.7672-1.5797s3.9083.5258,5.5694,1.5797c1.6587,1.0538,2.9918,2.4583,3.9968,4.2133s1.5075,3.7085,1.5075,5.8584-.5025,4.1035-1.5075,5.8584Z" style="fill: #000; stroke-width: 0px;"/>
    <path id="type_CompoundPathItem_-3" data-name="type &amp;lt;CompoundPathItem&amp;gt;" d="M190.5473,27.3745c-1.2158-1.6038-2.694-2.9041-4.4574-3.8765-2.2287-1.2291-4.7179-1.8438-7.47-1.8438-3.3198,0-6.2906.7899-8.9125,2.3695-2.5776,1.5353-4.6086,3.6409-6.0952,6.3188-1.4866,2.6335-2.2287,5.6177-2.2287,8.9524s.7421,6.3397,2.2287,9.0177c1.4866,2.6758,3.5385,4.8046,6.1603,6.3843,2.6218,1.5797,5.5927,2.3695,8.9124,2.3695,2.7521,0,5.2646-.6356,7.5352-1.9092,1.6568-.9293,3.0276-2.169,4.127-3.7048v4.9551c0,2.1078-.4816,3.9048-1.4424,5.3981-.9608,1.4908-2.2496,2.6102-3.8665,3.3556-1.6168.7899-3.4291,1.1848-5.4391,1.1848-2.5754,0-4.718-.5935-6.4209-1.7783-1.7053-1.1404-2.8615-2.5448-3.4733-4.2133l-5.8974,2.699c.7863,1.8414,1.9449,3.4656,3.4733,4.87,1.5284,1.4021,3.343,2.5004,5.4391,3.2902,2.1403.7899,4.4783,1.1848,7.0118,1.1848l.007.0023c3.2756,0,6.1813-.701,8.7147-2.1055,2.5753-1.36,4.5853-3.2458,6.0276-5.6598,1.4401-2.4139,2.1613-5.1573,2.1613-8.2279V22.4442h-6.0952v4.9304ZM188.8397,45.2117c-1.005,1.755-2.3357,3.1594-3.9968,4.2134-1.6168,1.0095-3.4733,1.5143-5.5694,1.5143-2.1844,0-4.1293-.5048-5.8323-1.5143-1.6587-1.054-2.9918-2.4584-3.9968-4.2134-.9608-1.7549-1.4423-3.6641-1.4423-5.8584s.4816-4.1478,1.4423-5.8584c1.0027-1.755,2.359-3.1594,4.0619-4.2133,1.7053-1.054,3.7153-1.5797,5.7672-1.5797s3.9084.5258,5.5694,1.5797c1.6588,1.0538,2.9918,2.4583,3.9968,4.2133s1.5075,3.7085,1.5075,5.8584-.5025,4.1035-1.5075,5.8584Z" style="fill: #000; stroke-width: 0px;"/>
    <a xlink:href="100">
      <rect id="type_PathItem_" data-name="type &amp;lt;PathItem&amp;gt;" x="201.3696" y="8.0889" width="6.2906" height="49.8281" style="fill: #000; stroke-width: 0px;"/>
    </a>
    <path id="type_CompoundPathItem_-4" data-name="type &amp;lt;CompoundPathItem&amp;gt;" d="M234.1533,23.2269c-2.0519-1.054-4.4341-1.5797-7.142-1.5797-2.1426,0-4.1736.3739-6.0952,1.1194-1.9216.7454-3.6036,1.7783-5.046,3.0939-1.4423,1.2737-2.4892,2.7201-3.1453,4.3442l5.374,2.8298c.7444-1.6661,1.8798-3.0261,3.4082-4.0801,1.5726-1.0538,3.364-1.5797,5.374-1.5797,2.2706,0,4.1061.6146,5.5043,1.8438,1.3981,1.1848,2.0961,2.7224,2.0961,4.6083v1.6191l-11.9251,1.9352c-2.6219.4393-4.8063,1.1847-6.5535,2.2386s-3.0359,2.3485-3.8665,3.8838c-.7864,1.5353-1.1795,3.1594-1.1795,5.134s.5025,3.7296,1.5075,5.2649c1.0027,1.4908,2.3799,2.6757,4.127,3.5543,1.7913.8342,3.8665,1.2501,6.2255,1.2501l.0023-.0046c2.01,0,3.8432-.2852,5.5043-.8552,1.7029-.6146,3.1871-1.4465,4.455-2.5005.7322-.6127,1.3589-1.2715,1.9007-1.967v4.5353h6.0928v-24.0903c0-2.3696-.5886-4.4751-1.7681-6.3188-1.1353-1.8438-2.7521-3.2692-4.8505-4.2787ZM233.1064,48.2426c-.9189,1.5797-2.1845,2.8533-3.8013,3.8184-1.6169.9207-3.5175,1.381-5.702,1.381-1.7471,0-3.1895-.4836-4.3248-1.4487-1.1353-.9652-1.7029-2.1266-1.7029-3.6198s.5025-2.7434,1.5075-3.7529c1.005-1.0516,2.6196-1.755,4.8482-2.1055l10.5502-1.7961v2.191c0,1.9325-.4583,3.7085-1.3749,5.3326Z" style="fill: #000; stroke-width: 0px;"/>
    <a xlink:href="100">
      <path id="type_PathItem_-2" data-name="type &amp;lt;PathItem&amp;gt;" d="M269.6169,22.4371l-10.6165,27.4982-10.6165-27.4982h-6.814l14.0731,35.4913-1.0988,2.5544c-.9166,2.1522-1.9006,3.6642-2.9499,4.5428-1.0469.9207-2.6195,1.381-4.7179,1.381-.6979,0-1.4191-.0654-2.1613-.1963-.7002-.0887-1.2888-.1752-1.7704-.264v5.5944c.7003.3085,1.4424.5281,2.2287.6589.8305.1333,1.6378.1987,2.4241.1987v-.0024c2.2729,0,4.2387-.4626,5.8974-1.3833,1.6611-.8763,3.0593-2.1055,4.1945-3.6852,1.1795-1.5797,2.1635-3.3347,2.9499-5.2649l15.8567-39.6255h-6.8792Z" style="fill: #000; stroke-width: 0px;"/>
    </a>
    <path id="type_CompoundPathItem_-5" data-name="type &amp;lt;CompoundPathItem&amp;gt;" d="M304.6037,26.9167c-1.4424-1.624-3.1895-2.8976-5.2437-3.8184-2.01-.9651-4.3248-1.4489-6.9443-1.4489-3.2779,0-6.2254.8109-8.8473,2.4351-2.5776,1.5796-4.6318,3.7529-6.1603,6.5173-1.4843,2.7645-2.2264,5.9683-2.2264,9.4781s.7631,6.6903,2.2915,9.5436c1.5308,2.809,3.6268,5.0242,6.2906,6.6483,2.7103,1.6241,5.7672,2.4349,9.1753,2.4349v-.0023c2.4032,0,4.6086-.3949,6.6187-1.1848,2.01-.7898,3.7338-1.8438,5.1762-3.1593,1.4843-1.3601,2.5776-2.851,3.2756-4.4751l-5.2414-2.6335c-.9608,1.6685-2.2496,3.0519-3.8665,4.1478-1.6169,1.054-3.5826,1.5797-5.8974,1.5797-2.1403,0-4.1061-.5258-5.8975-1.5797-1.7913-1.0959-3.1662-2.5891-4.1293-4.475-.7166-1.4396-1.1157-3.0637-1.2008-4.87h26.8889c.1302-.5258.2187-1.075.2629-1.6451.0419-.6122.0651-1.1847.0651-1.7104,0-2.1943-.3722-4.2998-1.1143-6.3188-.7421-2.0634-1.8356-3.8838-3.2756-5.4635ZM286.7788,28.8236c1.7029-1.0538,3.585-1.5797,5.6368-1.5797s3.8641.5259,5.4368,1.5797c1.5726,1.0095,2.7521,2.4139,3.5385,4.2133.5303,1.1205.8083,2.3499.8398,3.6852h-20.3154c.1762-1.27.4988-2.4397.997-3.4889.9189-1.9302,2.2077-3.4,3.8665-4.4095Z" style="fill: #000; stroke-width: 0px;"/>
    <a xlink:href="100">
      <path id="type_PathItem_-3" data-name="type &amp;lt;PathItem&amp;gt;" d="M327.7513,21.9791c-2.4032,0-4.4783.5048-6.2255,1.5143-1.3066.7746-2.3519,1.8652-3.1453,3.2599v-4.3139h-6.0952v35.48h6.2929v-21.0641c0-2.8088.7631-4.9821,2.2915-6.5175,1.5308-1.5796,3.5385-2.3695,6.03-2.3695h3.0801v-5.9893h-2.2287Z" style="fill: #000; stroke-width: 0px;"/>
    </a>
  </g>
  <g id="logoMark">
    <a xlink:href="100">
      <path id="logoMark_PathItem_" data-name="logoMark &amp;lt;PathItem&amp;gt;" d="M41.2319,36.7899l-.1652-.2151c-1.8634-2.2316-1.8634-5.4845,0-7.7162l.1722-.2219,22.9453-23.0481c1.2702-1.276,1.2702-3.3534,0-4.6316-1.2702-1.276-3.3384-1.276-4.6086,0l-22.9523,23.0551-.2117.1636c-2.2217,1.8718-5.4601,1.8718-7.6818,0l-.214-.1682L5.5613.9593C4.9471.3424,4.1282.0012,3.2558.0012S1.5668.3424.9527.9593C-.3176,2.2352-.3176,4.3126.9527,5.5909l22.9476,23.0504.1698.2196c1.8635,2.2317,1.8635,5.4846,0,7.7163l-.1628.2126L.9527,59.8426c-1.2702,1.2759-1.2702,3.3533,0,4.6316.6165.6193,1.4331.9581,2.3055.9581s1.689-.3412,2.3055-.9581l22.943-23.0458.2233-.173c2.2217-1.8717,5.4601-1.8717,7.6818,0l.2187.1707,22.9453,23.0481c.6165.6193,1.4354.9581,2.3055.9581s1.689-.3412,2.3055-.9581c1.2702-1.2783,1.2702-3.3534,0-4.6316l-22.95-23.0527h-.0046Z" style="fill: #000; stroke-width: 0px;"/>
    </a>
    <a xlink:href="100">
      <path id="logoMark_PathItem_-2" data-name="logoMark &amp;lt;PathItem&amp;gt;" d="M35.7114,5.4975c0-1.745-1.4082-3.1594-3.1453-3.1594s-3.1453,1.4144-3.1453,3.1594v10.0366c0,1.7449,1.4082,3.1594,3.1453,3.1594s3.1453-1.4146,3.1453-3.1594V5.4975Z" style="fill: #000; stroke-width: 0px;"/>
    </a>
    <a xlink:href="100">
      <path id="logoMark_PathItem_-3" data-name="logoMark &amp;lt;PathItem&amp;gt;" d="M35.7114,49.8972c0-1.7449-1.4082-3.1594-3.1453-3.1594s-3.1453,1.4146-3.1453,3.1594v10.0366c0,1.7449,1.4082,3.1594,3.1453,3.1594s3.1453-1.4146,3.1453-3.1594v-10.0366Z" style="fill: #000; stroke-width: 0px;"/>
    </a>
    <a xlink:href="100">
      <path id="logoMark_PathItem_-4" data-name="logoMark &amp;lt;PathItem&amp;gt;" d="M59.664,35.8762c1.7371,0,3.1453-1.4146,3.1453-3.1594s-1.4082-3.1593-3.1453-3.1593h-9.9919c-1.7371,0-3.1453,1.4144-3.1453,3.1593s1.4082,3.1594,3.1453,3.1594h9.9919Z" style="fill: #000; stroke-width: 0px;"/>
    </a>
    <a xlink:href="100">
      <path id="logoMark_PathItem_-5" data-name="logoMark &amp;lt;PathItem&amp;gt;" d="M15.4624,35.8762c1.7371,0,3.1453-1.4146,3.1453-3.1594s-1.4082-3.1593-3.1453-3.1593H5.4705c-1.7371,0-3.1453,1.4144-3.1453,3.1593s1.4082,3.1594,3.1453,3.1594h9.9919Z" style="fill: #000; stroke-width: 0px;"/>
    </a>
  </g>
</svg>