<?xml version="1.0" encoding="UTF-8"?>
<svg id="Layer_1" data-name="Layer 1" xmlns="http://www.w3.org/2000/svg" xmlns:xlink="http://www.w3.org/1999/xlink" viewBox="0 0 65.4567 65.4323">
  <g id="logoMark">
    <a xlink:href="100">
      <path id="logoMark_PathItem_" data-name="logoMark &amp;lt;PathItem&amp;gt;" d="M41.2319,36.7899l-.1652-.2151c-1.8634-2.2316-1.8634-5.4845,0-7.7162l.1722-.2219,22.9453-23.0481c1.2702-1.276,1.2702-3.3534,0-4.6316-1.2702-1.276-3.3384-1.276-4.6086,0l-22.9523,23.0551-.2117.1636c-2.2217,1.8718-5.4601,1.8718-7.6818,0l-.214-.1682L5.5613.9593C4.9471.3424,4.1282.0012,3.2558.0012S1.5668.3424.9527.9593C-.3176,2.2352-.3176,4.3126.9527,5.5909l22.9476,23.0504.1698.2196c1.8635,2.2317,1.8635,5.4846,0,7.7163l-.1628.2126L.9527,59.8426c-1.2702,1.2759-1.2702,3.3533,0,4.6316.6165.6193,1.4331.9581,2.3055.9581s1.689-.3412,2.3055-.9581l22.943-23.0458.2233-.173c2.2217-1.8717,5.4601-1.8717,7.6818,0l.2187.1707,22.9453,23.0481c.6165.6193,1.4354.9581,2.3055.9581s1.689-.3412,2.3055-.9581c1.2702-1.2783,1.2702-3.3534,0-4.6316l-22.95-23.0527h-.0046Z" style="fill: #000; stroke-width: 0px;"/>
    </a>
    <a xlink:href="100">
      <path id="logoMark_PathItem_-2" data-name="logoMark &amp;lt;PathItem&amp;gt;" d="M35.7114,5.4975c0-1.745-1.4082-3.1594-3.1453-3.1594s-3.1453,1.4144-3.1453,3.1594v10.0366c0,1.7449,1.4082,3.1594,3.1453,3.1594s3.1453-1.4146,3.1453-3.1594V5.4975Z" style="fill: #000; stroke-width: 0px;"/>
    </a>
    <a xlink:href="100">
      <path id="logoMark_PathItem_-3" data-name="logoMark &amp;lt;PathItem&amp;gt;" d="M35.7114,49.8972c0-1.7449-1.4082-3.1594-3.1453-3.1594s-3.1453,1.4146-3.1453,3.1594v10.0366c0,1.7449,1.4082,3.1594,3.1453,3.1594s3.1453-1.4146,3.1453-3.1594v-10.0366Z" style="fill: #000; stroke-width: 0px;"/>
    </a>
    <a xlink:href="100">
      <path id="logoMark_PathItem_-4" data-name="logoMark &amp;lt;PathItem&amp;gt;" d="M59.664,35.8762c1.7371,0,3.1453-1.4146,3.1453-3.1594s-1.4082-3.1593-3.1453-3.1593h-9.9919c-1.7371,0-3.1453,1.4144-3.1453,3.1593s1.4082,3.1594,3.1453,3.1594h9.9919Z" style="fill: #000; stroke-width: 0px;"/>
    </a>
    <a xlink:href="100">
      <path id="logoMark_PathItem_-5" data-name="logoMark &amp;lt;PathItem&amp;gt;" d="M15.4624,35.8762c1.7371,0,3.1453-1.4146,3.1453-3.1594s-1.4082-3.1593-3.1453-3.1593H5.4705c-1.7371,0-3.1453,1.4144-3.1453,3.1593s1.4082,3.1594,3.1453,3.1594h9.9919Z" style="fill: #000; stroke-width: 0px;"/>
    </a>
  </g>
</svg>