<svg width="450" height="255" viewBox="0 0 450 255" fill="none" xmlns="http://www.w3.org/2000/svg">
<path d="M129.179 152.396L149.2 96.1786H158.306L178.325 152.396H170.196L165.681 139.342H141.897L137.307 152.396H129.179ZM144.233 132.323H163.198L152.663 101.686H154.846L144.233 132.323Z" fill="black"/>
<path d="M197.162 168.997C194.252 168.997 191.567 168.545 189.109 167.639C186.701 166.734 184.617 165.475 182.862 163.867C181.106 162.257 179.775 160.395 178.872 158.284L185.646 155.19C186.349 157.103 187.677 158.713 189.635 160.02C191.591 161.378 194.052 162.059 197.01 162.059C199.318 162.059 201.4 161.606 203.257 160.701C205.114 159.846 206.594 158.563 207.698 156.854C208.801 155.142 209.354 153.082 209.354 150.665V141.536L210.634 142.894C209.229 145.661 207.222 147.772 204.614 149.232C202.006 150.692 199.121 151.421 195.96 151.421C192.147 151.421 188.735 150.515 185.723 148.704C182.712 146.893 180.355 144.453 178.648 141.386C176.94 138.316 176.088 134.87 176.088 131.048C176.088 127.225 176.94 123.804 178.648 120.785C180.355 117.715 182.688 115.301 185.649 113.541C188.66 111.73 192.072 110.824 195.885 110.824C199.046 110.824 201.905 111.529 204.465 112.938C207.024 114.347 209.082 116.332 210.637 118.899L209.584 120.785V111.73H216.585V150.665C216.585 154.186 215.757 157.331 214.1 160.098C212.443 162.865 210.137 165.027 207.177 166.586C204.267 168.196 200.93 169 197.167 169L197.162 168.997ZM196.636 144.397C199.043 144.397 201.175 143.818 203.033 142.661C204.94 141.453 206.469 139.843 207.623 137.831C208.777 135.819 209.354 133.579 209.354 131.115C209.354 128.65 208.777 126.41 207.623 124.398C206.469 122.387 204.938 120.777 203.033 119.568C201.125 118.36 198.992 117.757 196.636 117.757C194.279 117.757 191.97 118.36 190.012 119.568C188.056 120.777 186.501 122.387 185.347 124.398C184.243 126.359 183.69 128.599 183.69 131.115C183.69 133.63 184.243 135.819 185.347 137.831C186.501 139.843 188.032 141.453 189.937 142.661C191.893 143.818 194.127 144.397 196.636 144.397Z" fill="black"/>
<path d="M241.432 168.997C238.522 168.997 235.837 168.545 233.378 167.639C230.971 166.734 228.887 165.475 227.131 163.867C225.376 162.257 224.045 160.395 223.142 158.284L229.915 155.19C230.618 157.103 231.946 158.713 233.905 160.02C235.861 161.378 238.322 162.059 241.279 162.059C243.588 162.059 245.67 161.606 247.527 160.701C249.384 159.846 250.864 158.563 251.967 156.854C253.071 155.142 253.624 153.082 253.624 150.665V141.536L254.904 142.894C253.499 145.661 251.492 147.772 248.884 149.232C246.276 150.692 243.39 151.421 240.229 151.421C236.416 151.421 233.004 150.515 229.993 148.704C226.982 146.893 224.625 144.453 222.918 141.386C221.21 138.316 220.358 134.87 220.358 131.048C220.358 127.225 221.21 123.804 222.918 120.785C224.625 117.715 226.958 115.301 229.918 113.541C232.929 111.73 236.342 110.824 240.155 110.824C243.316 110.824 246.175 111.529 248.734 112.938C251.294 114.347 253.352 116.332 254.907 118.899L253.854 120.785V111.73H260.855V150.665C260.855 154.186 260.026 157.331 258.372 160.098C256.716 162.865 254.407 165.027 251.449 166.586C248.539 168.196 245.202 169 241.44 169L241.432 168.997ZM240.905 144.397C243.313 144.397 245.445 143.818 247.302 142.661C249.21 141.453 250.738 139.843 251.893 137.831C253.047 135.819 253.624 133.579 253.624 131.115C253.624 128.65 253.047 126.41 251.893 124.398C250.738 122.387 249.207 120.777 247.302 119.568C245.394 118.36 243.262 117.757 240.905 117.757C238.549 117.757 236.24 118.36 234.282 119.568C232.326 120.777 230.768 122.387 229.616 124.398C228.513 126.359 227.96 128.599 227.96 131.115C227.96 133.63 228.513 135.819 229.616 137.831C230.771 139.843 232.302 141.453 234.207 142.661C236.163 143.818 238.396 144.397 240.905 144.397Z" fill="black"/>
<path d="M266.284 152.396V95.2731H273.509V152.396H266.284Z" fill="black"/>
<path d="M290.917 153.301C288.208 153.301 285.824 152.825 283.767 151.868C281.76 150.861 280.178 149.503 279.027 147.794C277.872 146.034 277.295 144.022 277.295 141.758C277.295 139.494 277.747 137.632 278.65 135.872C279.604 134.112 281.084 132.628 283.091 131.42C285.098 130.212 287.607 129.357 290.618 128.854L305.52 126.44V132.475L292.197 134.739C289.637 135.141 287.783 135.947 286.629 137.153C285.474 138.31 284.897 139.743 284.897 141.455C284.897 143.167 285.549 144.498 286.853 145.605C288.157 146.711 289.814 147.266 291.82 147.266C294.329 147.266 296.512 146.738 298.369 145.683C300.226 144.576 301.68 143.116 302.735 141.305C303.788 139.443 304.315 137.407 304.315 135.192V124.779C304.315 122.617 303.513 120.854 301.907 119.496C300.301 118.087 298.193 117.382 295.585 117.382C293.277 117.382 291.219 117.985 289.413 119.193C287.657 120.401 286.353 121.961 285.498 123.871L279.326 120.627C280.08 118.765 281.282 117.106 282.939 115.646C284.595 114.138 286.527 112.954 288.734 112.099C290.941 111.245 293.274 110.816 295.735 110.816C298.845 110.816 301.581 111.419 303.938 112.627C306.348 113.785 308.205 115.419 309.509 117.532C310.864 119.646 311.54 122.06 311.54 124.776V152.393H304.542V144.697L305.822 145.224C305.017 146.784 303.863 148.193 302.359 149.449C300.902 150.657 299.198 151.611 297.242 152.316C295.334 152.969 293.228 153.296 290.92 153.296L290.917 153.301Z" fill="black"/>
<path d="M319.379 168.997C318.476 168.997 317.549 168.922 316.595 168.77C315.692 168.62 314.84 168.368 314.035 168.014V161.601C314.588 161.703 315.264 161.802 316.069 161.904C316.921 162.054 317.749 162.129 318.551 162.129C320.961 162.129 322.767 161.601 323.97 160.545C325.175 159.538 326.305 157.805 327.358 155.337L329.992 149.224L329.843 155.487L312.456 111.722H320.282L333.68 146.358H331.272L344.67 111.722H352.571L334.358 157.148C333.455 159.361 332.325 161.373 330.97 163.184C329.666 164.995 328.061 166.404 326.153 167.409C324.248 168.464 321.99 168.995 319.379 168.995V168.997Z" fill="black"/>
<path d="M371.456 153.301C367.542 153.301 364.031 152.372 360.918 150.51C357.859 148.648 355.451 146.109 353.693 142.888C351.938 139.617 351.061 135.971 351.061 131.948C351.061 127.924 351.913 124.251 353.618 121.082C355.374 117.913 357.733 115.421 360.694 113.61C363.705 111.749 367.09 110.819 370.855 110.819C373.864 110.819 376.523 111.373 378.831 112.48C381.191 113.535 383.197 114.995 384.854 116.857C386.508 118.668 387.764 120.755 388.616 123.121C389.468 125.435 389.896 127.849 389.896 130.364C389.896 130.967 389.869 131.624 389.821 132.325C389.77 132.979 389.669 133.609 389.519 134.211H356.402V128.098H385.38L381.917 130.815C382.369 128.2 382.118 125.885 381.164 123.873C380.261 121.811 378.906 120.201 377.1 119.043C375.293 117.835 373.212 117.232 370.855 117.232C368.499 117.232 366.337 117.835 364.381 119.043C362.476 120.201 360.996 121.886 359.94 124.098C358.887 126.311 358.46 128.953 358.66 132.023C358.46 134.991 358.911 137.581 360.015 139.794C361.121 141.956 362.7 143.668 364.758 144.924C366.815 146.133 369.073 146.735 371.531 146.735C374.19 146.735 376.448 146.133 378.305 144.924C380.162 143.668 381.642 142.082 382.746 140.169L388.766 143.188C387.964 145.05 386.708 146.76 385.003 148.319C383.347 149.827 381.367 151.035 379.058 151.941C376.75 152.846 374.217 153.299 371.456 153.299V153.301Z" fill="black"/>
<path d="M393.677 111.724H400.677V119.271L399.924 118.215C400.878 115.85 402.334 114.09 404.29 112.933C406.297 111.775 408.68 111.197 411.44 111.197H414V118.063H410.462C407.601 118.063 405.295 118.968 403.536 120.779C401.781 122.539 400.905 125.031 400.905 128.251V152.399H393.677V111.724Z" fill="black"/>
<path d="M82.3571 128.176L82.1674 127.929C80.0271 125.371 80.0271 121.642 82.1674 119.083L82.3651 118.829L108.719 92.4067C110.178 90.944 110.178 88.5624 108.719 87.097C107.26 85.6343 104.885 85.6343 103.426 87.097L77.0639 113.527L76.8208 113.715C74.269 115.861 70.5496 115.861 67.9978 113.715L67.752 113.522L41.3874 87.0997C40.682 86.3925 39.7415 86.0013 38.7395 86.0013C37.7375 86.0013 36.7996 86.3925 36.0942 87.0997C34.6353 88.5624 34.6353 90.944 36.0942 92.4093L62.4508 118.834L62.6458 119.086C64.7861 121.645 64.7861 125.374 62.6458 127.932L62.4588 128.176L36.0942 154.603C34.6353 156.066 34.6353 158.448 36.0942 159.913C36.8023 160.623 37.7401 161.011 38.7421 161.011C39.7441 161.011 40.682 160.62 41.3901 159.913L67.7413 133.493L67.9978 133.295C70.5496 131.149 74.269 131.149 76.8208 133.295L77.0719 133.491L103.426 159.913C104.134 160.623 105.074 161.011 106.074 161.011C107.073 161.011 108.014 160.62 108.722 159.913C110.181 158.448 110.181 156.069 108.722 154.603L82.3625 128.176H82.3571Z" fill="black"/>
<path d="M76.0165 92.3022C76.0165 90.3019 74.3991 88.6803 72.4039 88.6803C70.4088 88.6803 68.7914 90.3019 68.7914 92.3022V103.808C68.7914 105.809 70.4088 107.43 72.4039 107.43C74.3991 107.43 76.0165 105.809 76.0165 103.808V92.3022Z" fill="black"/>
<path d="M76.0165 143.202C76.0165 141.202 74.3991 139.58 72.4039 139.58C70.4088 139.58 68.7914 141.202 68.7914 143.202V154.708C68.7914 156.708 70.4088 158.33 72.4039 158.33C74.3991 158.33 76.0165 156.708 76.0165 154.708V143.202Z" fill="black"/>
<path d="M103.527 127.128C105.523 127.128 107.14 125.507 107.14 123.506C107.14 121.506 105.523 119.884 103.527 119.884H92.0511C90.056 119.884 88.4386 121.506 88.4386 123.506C88.4386 125.507 90.056 127.128 92.0511 127.128H103.527Z" fill="black"/>
<path d="M52.7594 127.128C54.7546 127.128 56.372 125.507 56.372 123.506C56.372 121.506 54.7546 119.884 52.7594 119.884H41.2832C39.288 119.884 37.6707 121.506 37.6707 123.506C37.6707 125.507 39.288 127.128 41.2832 127.128H52.7594Z" fill="black"/>
</svg>
