<svg width="379" height="83" viewBox="0 0 379 83" fill="none" xmlns="http://www.w3.org/2000/svg">
<path d="M94.1785 66.396L114.2 10.1786H123.306L143.325 66.396H135.196L130.681 53.3415H106.897L102.307 66.396H94.1785ZM109.233 46.3227H128.198L117.663 15.6865H119.846L109.233 46.3227Z" fill="black"/>
<path d="M162.162 82.9973C159.252 82.9973 156.567 82.5446 154.109 81.6391C151.701 80.7336 149.617 79.4745 147.862 77.8672C146.106 76.2571 144.775 74.3953 143.872 72.2843L150.646 69.1901C151.349 71.1029 152.677 72.7129 154.635 74.0202C156.591 75.3784 159.052 76.0589 162.01 76.0589C164.318 76.0589 166.4 75.6061 168.257 74.7007C170.114 73.8461 171.594 72.5629 172.698 70.8537C173.801 69.1419 174.354 67.0818 174.354 64.6654V55.5356L175.634 56.8938C174.229 59.6612 172.222 61.7721 169.614 63.2322C167.006 64.6922 164.121 65.4209 160.96 65.4209C157.147 65.4209 153.735 64.5154 150.723 62.7044C147.712 60.8935 145.355 58.4529 143.648 55.3856C141.94 52.3155 141.088 48.8704 141.088 45.0476C141.088 41.2247 141.94 37.8037 143.648 34.7846C145.355 31.7145 147.688 29.3008 150.649 27.5408C153.66 25.7298 157.072 24.8243 160.885 24.8243C164.046 24.8243 166.905 25.5289 169.465 26.938C172.024 28.3471 174.082 30.3322 175.637 32.8986L174.584 34.7846V25.7298H181.585V64.6654C181.585 68.1855 180.757 71.3306 179.1 74.0979C177.443 76.8652 175.137 79.0271 172.177 80.5863C169.267 82.1963 165.93 83 162.167 83L162.162 82.9973ZM161.636 58.3967C164.043 58.3967 166.175 57.818 168.033 56.6607C169.94 55.4525 171.469 53.8425 172.623 51.8306C173.777 49.8187 174.354 47.5792 174.354 45.1145C174.354 42.6499 173.777 40.4103 172.623 38.3985C171.469 36.3866 169.938 34.7765 168.033 33.5684C166.125 32.3602 163.992 31.7574 161.636 31.7574C159.279 31.7574 156.97 32.3602 155.012 33.5684C153.056 34.7765 151.501 36.3866 150.347 38.3985C149.243 40.3594 148.69 42.599 148.69 45.1145C148.69 47.6301 149.243 49.8187 150.347 51.8306C151.501 53.8425 153.032 55.4525 154.937 56.6607C156.893 57.818 159.127 58.3967 161.636 58.3967Z" fill="black"/>
<path d="M206.432 82.9973C203.522 82.9973 200.837 82.5446 198.378 81.6391C195.971 80.7336 193.887 79.4745 192.131 77.8672C190.376 76.2571 189.045 74.3953 188.142 72.2843L194.915 69.1901C195.618 71.1029 196.946 72.7129 198.905 74.0202C200.861 75.3784 203.322 76.0589 206.279 76.0589C208.588 76.0589 210.67 75.6061 212.527 74.7007C214.384 73.8461 215.864 72.5629 216.967 70.8537C218.071 69.1419 218.624 67.0818 218.624 64.6654V55.5356L219.904 56.8938C218.499 59.6612 216.492 61.7721 213.884 63.2322C211.276 64.6922 208.39 65.4209 205.229 65.4209C201.416 65.4209 198.004 64.5154 194.993 62.7044C191.982 60.8935 189.625 58.4529 187.918 55.3856C186.21 52.3155 185.358 48.8704 185.358 45.0476C185.358 41.2247 186.21 37.8037 187.918 34.7846C189.625 31.7145 191.958 29.3008 194.918 27.5408C197.929 25.7298 201.342 24.8243 205.155 24.8243C208.316 24.8243 211.175 25.5289 213.734 26.938C216.294 28.3471 218.352 30.3322 219.907 32.8986L218.854 34.7846V25.7298H225.855V64.6654C225.855 68.1855 225.026 71.3306 223.372 74.0979C221.716 76.8652 219.407 79.0271 216.449 80.5863C213.539 82.1963 210.202 83 206.44 83L206.432 82.9973ZM205.905 58.3967C208.313 58.3967 210.445 57.818 212.302 56.6607C214.21 55.4525 215.738 53.8425 216.893 51.8306C218.047 49.8187 218.624 47.5792 218.624 45.1145C218.624 42.6499 218.047 40.4103 216.893 38.3985C215.738 36.3866 214.207 34.7765 212.302 33.5684C210.394 32.3602 208.262 31.7574 205.905 31.7574C203.549 31.7574 201.24 32.3602 199.282 33.5684C197.326 34.7765 195.768 36.3866 194.616 38.3985C193.513 40.3594 192.96 42.599 192.96 45.1145C192.96 47.6301 193.513 49.8187 194.616 51.8306C195.771 53.8425 197.302 55.4525 199.207 56.6607C201.163 57.818 203.396 58.3967 205.905 58.3967Z" fill="black"/>
<path d="M231.284 66.396V9.27312H238.509V66.396H231.284Z" fill="black"/>
<path d="M255.917 67.3014C253.208 67.3014 250.824 66.8246 248.767 65.8682C246.76 64.8609 245.178 63.5027 244.027 61.7936C242.872 60.0335 242.295 58.0216 242.295 55.758C242.295 53.4943 242.747 51.6324 243.65 49.8723C244.604 48.1123 246.084 46.6281 248.091 45.4199C250.098 44.2117 252.607 43.3572 255.618 42.8535L270.52 40.4398V46.4754L257.197 48.7391C254.637 49.141 252.783 49.9473 251.629 51.1529C250.474 52.3102 249.897 53.7434 249.897 55.4552C249.897 57.1671 250.549 58.4985 251.853 59.6049C253.157 60.7113 254.814 61.2658 256.82 61.2658C259.329 61.2658 261.512 60.7381 263.369 59.6826C265.226 58.5762 266.68 57.1162 267.735 55.3052C268.788 53.4433 269.315 51.4074 269.315 49.1919V38.7789C269.315 36.617 268.513 34.8542 266.907 33.496C265.301 32.0869 263.193 31.3823 260.585 31.3823C258.277 31.3823 256.219 31.9851 254.413 33.1933C252.657 34.4015 251.353 35.9606 250.498 37.8707L244.326 34.6265C245.08 32.7647 246.282 31.1064 247.939 29.6464C249.595 28.1382 251.527 26.9541 253.734 26.0995C255.941 25.2449 258.274 24.8163 260.735 24.8163C263.845 24.8163 266.581 25.419 268.938 26.6272C271.348 27.7845 273.205 29.4187 274.509 31.5324C275.864 33.646 276.54 36.0598 276.54 38.7762V66.3933H269.542V58.6967L270.822 59.2245C270.017 60.7836 268.863 62.1927 267.359 63.4492C265.902 64.6574 264.198 65.6111 262.242 66.3156C260.334 66.9693 258.228 67.2961 255.92 67.2961L255.917 67.3014Z" fill="black"/>
<path d="M284.379 82.9973C283.476 82.9973 282.549 82.9223 281.595 82.7696C280.692 82.6196 279.84 82.3678 279.035 82.0142V75.6008C279.588 75.7026 280.264 75.8017 281.069 75.9035C281.921 76.0535 282.749 76.1286 283.551 76.1286C285.961 76.1286 287.767 75.6008 288.97 74.5453C290.175 73.538 291.305 71.8048 292.358 69.3375L294.992 63.2241L294.843 69.4875L277.456 25.7218H285.282L298.68 60.3577H296.272L309.67 25.7218H317.571L299.358 71.1484C298.455 73.3612 297.325 75.3731 295.97 77.184C294.666 78.995 293.061 80.4041 291.153 81.4087C289.248 82.4642 286.99 82.9946 284.379 82.9946V82.9973Z" fill="black"/>
<path d="M336.456 67.3014C332.542 67.3014 329.031 66.3719 325.918 64.51C322.859 62.6482 320.451 60.1085 318.693 56.8884C316.938 53.6175 316.061 49.9714 316.061 45.9477C316.061 41.9239 316.913 38.2511 318.618 35.0819C320.374 31.9128 322.733 29.4214 325.694 27.6104C328.705 25.7485 332.09 24.819 335.855 24.819C338.864 24.819 341.523 25.3735 343.831 26.4799C346.191 27.5354 348.197 28.9954 349.854 30.8573C351.508 32.6682 352.764 34.7551 353.616 37.1206C354.468 39.4352 354.896 41.8489 354.896 44.3644C354.896 44.9672 354.869 45.6235 354.821 46.3254C354.77 46.9791 354.669 47.6086 354.519 48.2114H321.402V42.0981H350.38L346.917 44.8145C347.369 42.1999 347.118 39.8853 346.164 37.8734C345.261 35.8106 343.906 34.2006 342.1 33.0433C340.293 31.8351 338.212 31.2323 335.855 31.2323C333.499 31.2323 331.337 31.8351 329.381 33.0433C327.476 34.2006 325.996 35.8856 324.94 38.0984C323.887 40.3112 323.46 42.9526 323.66 46.0227C323.46 48.991 323.911 51.5815 325.015 53.7943C326.121 55.9562 327.7 57.668 329.758 58.9244C331.815 60.1326 334.073 60.7354 336.531 60.7354C339.19 60.7354 341.448 60.1326 343.305 58.9244C345.162 57.668 346.642 56.0821 347.746 54.1693L353.766 57.1885C352.964 59.0504 351.708 60.7595 350.003 62.3187C348.347 63.8269 346.367 65.0351 344.058 65.9406C341.75 66.846 339.217 67.2988 336.456 67.2988V67.3014Z" fill="black"/>
<path d="M358.677 25.7244H365.677V33.271L364.924 32.2155C365.878 29.85 367.334 28.0899 369.29 26.9326C371.297 25.7753 373.68 25.1967 376.44 25.1967H379V32.0628H375.462C372.601 32.0628 370.295 32.9683 368.536 34.7792C366.781 36.5393 365.905 39.0307 365.905 42.2508V66.3987H358.677V25.7244Z" fill="black"/>
<path d="M47.3571 42.1758L47.1674 41.9293C45.0271 39.3709 45.0271 35.6418 47.1674 33.0835L47.3651 32.829L73.719 6.40666C75.178 4.94397 75.178 2.5624 73.719 1.09702C72.2601 -0.365674 69.8847 -0.365674 68.4258 1.09702L42.0639 27.5274L41.8208 27.7149C39.269 29.8607 35.5496 29.8607 32.9978 27.7149L32.752 27.522L6.38741 1.0997C5.682 0.392463 4.74146 0.00133771 3.73946 0.00133771C2.73746 0.00133771 1.79959 0.392463 1.09418 1.0997C-0.364728 2.5624 -0.364728 4.94397 1.09418 6.40934L27.4508 32.8343L27.6458 33.0861C29.7861 35.6445 29.7861 39.3736 27.6458 41.932L27.4588 42.1758L1.09418 68.6034C-0.364728 70.0661 -0.364728 72.4477 1.09418 73.9131C1.80226 74.623 2.74013 75.0114 3.74213 75.0114C4.74413 75.0114 5.682 74.6203 6.39008 73.9131L32.7413 47.4934L32.9978 47.2952C35.5496 45.1494 39.269 45.1494 41.8208 47.2952L42.0719 47.4908L68.4258 73.9131C69.1339 74.623 70.0744 75.0114 71.0738 75.0114C72.0731 75.0114 73.0136 74.6203 73.7217 73.9131C75.1806 72.4477 75.1806 70.0688 73.7217 68.6034L47.3625 42.1758H47.3571Z" fill="black"/>
<path d="M41.0165 6.30219C41.0165 4.30186 39.3991 2.68027 37.4039 2.68027C35.4088 2.68027 33.7914 4.30186 33.7914 6.30219V17.8082C33.7914 19.8085 35.4088 21.4301 37.4039 21.4301C39.3991 21.4301 41.0165 19.8085 41.0165 17.8082V6.30219Z" fill="black"/>
<path d="M41.0165 57.2019C41.0165 55.2016 39.3991 53.58 37.4039 53.58C35.4088 53.58 33.7914 55.2016 33.7914 57.2019V68.7079C33.7914 70.7082 35.4088 72.3298 37.4039 72.3298C39.3991 72.3298 41.0165 70.7082 41.0165 68.7079V57.2019Z" fill="black"/>
<path d="M68.5274 41.1283C70.5225 41.1283 72.1399 39.5067 72.1399 37.5064C72.1399 35.5061 70.5225 33.8845 68.5274 33.8845H57.0511C55.056 33.8845 53.4386 35.5061 53.4386 37.5064C53.4386 39.5067 55.056 41.1283 57.0511 41.1283H68.5274Z" fill="black"/>
<path d="M17.7594 41.1283C19.7546 41.1283 21.372 39.5067 21.372 37.5064C21.372 35.5061 19.7546 33.8845 17.7594 33.8845H6.2832C4.28805 33.8845 2.67066 35.5061 2.67066 37.5064C2.67066 39.5067 4.28805 41.1283 6.2832 41.1283H17.7594Z" fill="black"/>
</svg>
