<svg version="1.1" xmlns="http://www.w3.org/2000/svg" viewBox="0 0 1995.2413407274507 744.557275196421" width="1995.2413407274507" height="744.557275196421">
  <!-- svg-source:excalidraw -->

  <defs>
    <style class="style-fonts">
      @font-face {
        font-family: "Virgil";
        src: url("https://excalidraw.com/Virgil.woff2");
      }
      @font-face {
        font-family: "Cascadia";
        src: url("https://excalidraw.com/Cascadia.woff2");
      }
    </style>
  </defs>
  <rect x="0" y="0" width="1995.2413407274507" height="744.557275196421" fill="#ffffff"></rect><g stroke-linecap="round" transform="translate(10 634.3578702779942) rotate(0 45.21428571428578 29)"><path d="M35.34 0.71 C43.44 -0.82, 54.65 0.07, 62.63 2.19 C70.61 4.32, 78.75 8.57, 83.21 13.47 C87.67 18.37, 90.17 25.84, 89.39 31.59 C88.61 37.34, 84.21 43.72, 78.52 47.97 C72.84 52.23, 63.63 55.75, 55.28 57.11 C46.92 58.46, 36.51 58.26, 28.39 56.12 C20.26 53.99, 11.16 49.32, 6.51 44.29 C1.87 39.27, -0.36 31.86, 0.51 25.99 C1.38 20.12, 5.23 13.23, 11.73 9.09 C18.23 4.94, 34.12 2.67, 39.49 1.12 C44.86 -0.43, 43.8 -0.6, 43.96 -0.23 M36.06 1.89 C44.32 0.62, 56.46 0.99, 64.73 3.3 C73 5.61, 81.41 11.19, 85.69 15.77 C89.96 20.36, 91.56 25.5, 90.37 30.82 C89.18 36.13, 84.7 43.07, 78.54 47.66 C72.38 52.25, 61.9 57.11, 53.41 58.35 C44.92 59.6, 35.68 57.48, 27.61 55.13 C19.53 52.78, 9.71 48.99, 4.96 44.26 C0.22 39.53, -2.18 32.6, -0.87 26.74 C0.44 20.88, 6.73 13.59, 12.84 9.1 C18.94 4.61, 31.76 1.32, 35.77 -0.2 C39.78 -1.71, 36.82 -0.53, 36.89 0.03" stroke="#000000" stroke-width="1" fill="none"></path></g><g transform="translate(36.059625235971 650.8517736235844) rotate(0 19.183332443237305 12.5)"><text x="19.183332443237305" y="0" font-family="Virgil, Segoe UI Emoji" font-size="20px" fill="#000000" text-anchor="middle" style="white-space: pre;" direction="ltr" dominant-baseline="text-before-edge">0011</text></g><g stroke-linecap="round" transform="translate(546.8571428571422 649.357870277996) rotate(0 34.5 29)"><path d="M33.66 0.68 C40.11 0.06, 47.73 1.26, 53.36 4.17 C58.98 7.07, 64.91 12.55, 67.41 18.1 C69.9 23.66, 70.3 31.92, 68.35 37.49 C66.39 43.06, 61.18 48.05, 55.7 51.54 C50.22 55.03, 42.29 58.24, 35.45 58.43 C28.61 58.62, 20.25 55.71, 14.67 52.66 C9.1 49.6, 4.28 45.46, 1.97 40.09 C-0.34 34.72, -1.02 26.22, 0.79 20.43 C2.61 14.63, 7.37 8.58, 12.88 5.32 C18.39 2.06, 30.09 1.51, 33.87 0.88 C37.64 0.25, 35.59 1.15, 35.52 1.54 M38.7 0.42 C45.38 0.52, 53.27 4.53, 58.11 8.07 C62.95 11.62, 66.3 16.2, 67.73 21.68 C69.17 27.16, 69.43 35.42, 66.7 40.95 C63.98 46.47, 57.45 52.21, 51.38 54.84 C45.32 57.46, 36.9 57.3, 30.29 56.69 C23.68 56.08, 16.62 54.9, 11.73 51.18 C6.84 47.47, 2.56 40.3, 0.97 34.39 C-0.62 28.48, -0.51 20.75, 2.17 15.72 C4.85 10.69, 11.09 7.01, 17.04 4.19 C23 1.38, 34.17 -0.72, 37.91 -1.16 C41.64 -1.6, 39.31 0.99, 39.46 1.55" stroke="#000000" stroke-width="1" fill="none"></path></g><g transform="translate(565.8452921123835 665.8517736235863) rotate(0 15.616666793823242 12.5)"><text x="15.616666793823242" y="0" font-family="Virgil, Segoe UI Emoji" font-size="20px" fill="#000000" text-anchor="middle" style="white-space: pre;" direction="ltr" dominant-baseline="text-before-edge">null</text></g><g stroke-linecap="round" transform="translate(244.88436475772232 414.07442309176986) rotate(0 49.5 35)"><path d="M42.76 0.47 C51.08 -0.65, 63.38 1.01, 71.47 3.63 C79.55 6.25, 86.87 10.85, 91.29 16.18 C95.71 21.52, 98.09 29.25, 98 35.63 C97.91 42, 95.72 49.01, 90.75 54.43 C85.79 59.84, 76.33 65.46, 68.19 68.1 C60.05 70.73, 50.67 71.6, 41.93 70.24 C33.18 68.89, 22.54 64.46, 15.72 59.98 C8.91 55.5, 3.35 49.25, 1.04 43.35 C-1.28 37.45, -0.9 30.54, 1.85 24.57 C4.6 18.61, 9.28 11.69, 17.53 7.57 C25.79 3.44, 44.72 0.94, 51.37 -0.19 C58.02 -1.31, 57.69 0.23, 57.42 0.82 M65.24 2.28 C73.13 3.79, 81.58 9.77, 87.36 14.9 C93.14 20.02, 99.07 27.06, 99.92 33.04 C100.77 39.01, 96.67 45.3, 92.49 50.74 C88.31 56.18, 82.24 62.28, 74.85 65.69 C67.47 69.09, 57.1 71.45, 48.18 71.17 C39.25 70.9, 28.71 68.04, 21.3 64.05 C13.89 60.06, 7.24 52.98, 3.73 47.21 C0.22 41.45, -1.44 35.5, 0.25 29.45 C1.93 23.4, 7.76 15.88, 13.86 10.9 C19.96 5.92, 28.2 0.96, 36.85 -0.42 C45.5 -1.8, 60.88 2.05, 65.74 2.63 C70.6 3.2, 66.47 2.73, 66.03 3.02" stroke="#000000" stroke-width="1" fill="none"></path></g><g stroke-linecap="round"><g transform="translate(260.7514173197633 476.2913995532799) rotate(0 -91.85370712608938 79.97430907016678)"><path d="M-0.29 0.58 C-31.09 27.07, -153.73 132.41, -184.27 159.06 M1.76 -0.17 C-29.29 26.44, -154.48 133.69, -185.47 160.12" stroke="#000000" stroke-width="1" fill="none"></path></g><g transform="translate(260.7514173197633 476.2913995532799) rotate(0 -91.85370712608938 79.97430907016678)"><path d="M-169.75 133.2 C-177.32 143.41, -180.04 152.3, -186.32 159.03 M-170.84 133.11 C-172.76 139.82, -175.97 143.98, -186.43 159.44" stroke="#000000" stroke-width="1" fill="none"></path></g><g transform="translate(260.7514173197633 476.2913995532799) rotate(0 -91.85370712608938 79.97430907016678)"><path d="M-156.41 148.8 C-168.61 153.58, -175.94 157.09, -186.32 159.03 M-157.51 148.71 C-162.09 152.31, -167.97 153.33, -186.43 159.44" stroke="#000000" stroke-width="1" fill="none"></path></g></g><mask></mask><g stroke-linecap="round"><g transform="translate(343.83690567229405 464.08936861854636) rotate(0 105.52636485294124 93.8889840328693)"><path d="M-0.48 -0.92 C34.83 30.43, 176.21 157.26, 211.53 188.7 M1.47 1.21 C36.67 32.15, 175.83 155.59, 210.71 186.84" stroke="#000000" stroke-width="1" fill="none"></path></g><g transform="translate(343.83690567229405 464.08936861854636) rotate(0 105.52636485294124 93.8889840328693)"><path d="M181.31 176.18 C191.43 179.21, 197.42 180.9, 208.74 186.56 M183.79 176.3 C192.48 179, 199.74 182.44, 209.94 186.37" stroke="#000000" stroke-width="1" fill="none"></path></g><g transform="translate(343.83690567229405 464.08936861854636) rotate(0 105.52636485294124 93.8889840328693)"><path d="M194.95 160.85 C201.38 168.06, 203.61 173.97, 208.74 186.56 M197.44 160.97 C201.73 168.47, 204.61 176.82, 209.94 186.37" stroke="#000000" stroke-width="1" fill="none"></path></g></g><mask></mask><g stroke-linecap="round" transform="translate(901.4277261196848 10) rotate(0 49.5 35)"><path d="M52.06 -0.05 C60.67 -0.04, 72.22 2.89, 79.38 6.85 C86.54 10.81, 91.83 17.68, 95 23.73 C98.17 29.78, 100.25 37.32, 98.41 43.17 C96.56 49.01, 90.45 54.58, 83.94 58.79 C77.43 63, 68.04 66.9, 59.33 68.43 C50.63 69.95, 40.02 70.11, 31.72 67.96 C23.41 65.8, 14.63 60.59, 9.49 55.48 C4.34 50.37, 1.44 43.56, 0.84 37.29 C0.24 31.02, 1.87 23.39, 5.89 17.86 C9.92 12.33, 15.69 6.83, 24.99 4.11 C34.3 1.39, 54.31 1.73, 61.7 1.54 C69.09 1.35, 69.59 2.62, 69.32 2.96 M71.18 3.44 C78.97 5.58, 88.26 12.02, 93.09 17.75 C97.93 23.48, 100.6 31.46, 100.18 37.81 C99.75 44.17, 95.87 51.03, 90.55 55.86 C85.23 60.7, 76.75 64.35, 68.25 66.8 C59.75 69.25, 48.34 71.64, 39.55 70.59 C30.75 69.55, 22.02 65.31, 15.47 60.53 C8.92 55.76, 2.4 47.99, 0.25 41.94 C-1.9 35.9, -0.62 29.95, 2.55 24.28 C5.73 18.6, 12.47 12.09, 19.3 7.92 C26.13 3.74, 34.71 -0.03, 43.53 -0.78 C52.36 -1.54, 67.49 2.62, 72.25 3.38 C77.02 4.15, 72.72 3.18, 72.13 3.79" stroke="#000000" stroke-width="1" fill="none"></path></g><g stroke-linecap="round"><g transform="translate(913.993587423226 69.93583757408851) rotate(0 -287.3394566729703 171.93229877305112)"><path d="M0.17 -0.51 C-95.68 56.87, -479.09 286.99, -574.85 344.77 M-1.2 -1.82 C-96.67 55.61, -476.81 287.44, -572.48 345.69" stroke="#000000" stroke-width="1" fill="none"></path></g><g transform="translate(913.993587423226 69.93583757408851) rotate(0 -287.3394566729703 171.93229877305112)"><path d="M-554.6 321.17 C-561.64 329.53, -565.26 337.06, -574.24 347.59 M-554.71 321.58 C-560.99 329.99, -566.69 338.38, -572.97 346.41" stroke="#000000" stroke-width="1" fill="none"></path></g><g transform="translate(913.993587423226 69.93583757408851) rotate(0 -287.3394566729703 171.93229877305112)"><path d="M-543.92 338.7 C-554.46 341.44, -561.51 343.35, -574.24 347.59 M-544.03 339.11 C-554.22 341.24, -563.7 343.43, -572.97 346.41" stroke="#000000" stroke-width="1" fill="none"></path></g></g><mask></mask><g stroke-linecap="round"><g transform="translate(1000.2891781549706 64.74462609680631) rotate(0 289.87538954442107 181.68370626521937)"><path d="M-0.65 -1.19 C96.05 59.66, 483.56 303.81, 580.4 364.55 M1.21 0.81 C97.72 61.31, 482.97 302.03, 579.37 362.56" stroke="#000000" stroke-width="1" fill="none"></path></g><g transform="translate(1000.2891781549706 64.74462609680631) rotate(0 289.87538954442107 181.68370626521937)"><path d="M548.05 356.01 C559.64 358.15, 566.68 362.29, 580.45 363.99 M549.25 355.82 C557.32 357.65, 563.85 360.28, 579.17 362.39" stroke="#000000" stroke-width="1" fill="none"></path></g><g transform="translate(1000.2891781549706 64.74462609680631) rotate(0 289.87538954442107 181.68370626521937)"><path d="M558.94 338.62 C567.03 346.17, 570.65 355.78, 580.45 363.99 M560.14 338.43 C565.38 344.44, 569.24 351.33, 579.17 362.39" stroke="#000000" stroke-width="1" fill="none"></path></g></g><mask></mask><g transform="translate(591.1462695196178 203.32442309177713) rotate(0 6.883333206176758 12.5)"><text x="0" y="0" font-family="Virgil, Segoe UI Emoji" font-size="20px" fill="#000000" text-anchor="start" style="white-space: pre;" direction="ltr" dominant-baseline="text-before-edge">0</text></g><g transform="translate(1259.717698091049 176.18156594891843) rotate(0 2.7083332538604736 12.5)"><text x="0" y="0" font-family="Virgil, Segoe UI Emoji" font-size="20px" fill="#000000" text-anchor="start" style="white-space: pre;" direction="ltr" dominant-baseline="text-before-edge">1</text></g><g transform="translate(92.57484094819029 559.0387088060634) rotate(0 6.883333206176758 12.5)"><text x="0" y="0" font-family="Virgil, Segoe UI Emoji" font-size="20px" fill="#000000" text-anchor="start" style="white-space: pre;" direction="ltr" dominant-baseline="text-before-edge">0</text></g><g transform="translate(499.71769809104717 566.1815659489221) rotate(0 2.7083332538604736 12.5)"><text x="0" y="0" font-family="Virgil, Segoe UI Emoji" font-size="20px" fill="#000000" text-anchor="start" style="white-space: pre;" direction="ltr" dominant-baseline="text-before-edge">1</text></g><g stroke-linecap="round" transform="translate(1272.2413407274553 671.557275196421) rotate(0 34.5 29)"><path d="M41.71 0.27 C48.14 1.06, 56.74 5.72, 61.28 9.94 C65.82 14.17, 68.64 19.97, 68.96 25.6 C69.28 31.24, 66.62 38.71, 63.21 43.77 C59.8 48.83, 54.53 53.86, 48.51 55.98 C42.5 58.1, 33.87 57.8, 27.1 56.5 C20.33 55.2, 12.45 52.29, 7.9 48.2 C3.36 44.11, 0.41 37.74, -0.18 31.94 C-0.76 26.14, 0.89 18.43, 4.41 13.41 C7.94 8.39, 13.14 3.33, 20.97 1.83 C28.79 0.33, 45.11 3.29, 51.34 4.4 C57.57 5.51, 58.8 8.27, 58.34 8.47 M49.81 3.53 C55.58 5.31, 61.83 9.29, 64.75 14.41 C67.66 19.53, 68.33 28.64, 67.29 34.25 C66.24 39.86, 63.15 44.07, 58.47 48.08 C53.79 52.09, 45.69 56.97, 39.23 58.31 C32.77 59.66, 25.45 58.98, 19.72 56.14 C13.99 53.3, 8.32 46.69, 4.84 41.25 C1.37 35.82, -1.9 28.78, -1.12 23.51 C-0.35 18.24, 4.65 13.61, 9.49 9.64 C14.33 5.66, 21.41 0.75, 27.91 -0.34 C34.42 -1.43, 45.06 2.4, 48.54 3.08 C52.01 3.76, 49.01 3.46, 48.74 3.74" stroke="#000000" stroke-width="1" fill="none"></path></g><g transform="translate(1291.837823570343 688.0511785420113) rotate(0 15.008333206176758 12.5)"><text x="15.008333206176758" y="0" font-family="Virgil, Segoe UI Emoji" font-size="20px" fill="#000000" text-anchor="middle" style="white-space: pre;" direction="ltr" dominant-baseline="text-before-edge">1011</text></g><g stroke-linecap="round" transform="translate(1916.2413407274507 676.557275196421) rotate(0 34.5 29)"><path d="M20.67 3.22 C26.06 0.4, 33.85 -1.41, 40.2 -0.43 C46.55 0.56, 53.93 4.88, 58.77 9.14 C63.61 13.4, 68.36 19.59, 69.25 25.13 C70.15 30.68, 67.48 37.43, 64.13 42.39 C60.78 47.36, 55.16 52.56, 49.15 54.94 C43.14 57.32, 34.81 57.78, 28.07 56.69 C21.34 55.59, 13.54 52.48, 8.75 48.38 C3.96 44.28, 0.14 37.64, -0.64 32.07 C-1.43 26.51, 0.16 19.88, 4.03 15 C7.89 10.12, 19.31 4.85, 22.54 2.78 C25.77 0.7, 23.3 2.18, 23.4 2.56 M48.42 1.1 C54.29 2.89, 59.23 10.22, 62.4 15.15 C65.58 20.08, 67.8 25.38, 67.45 30.69 C67.11 36, 64.5 42.49, 60.32 47.03 C56.14 51.57, 49.07 56.44, 42.35 57.95 C35.64 59.46, 26.16 58.43, 20.03 56.09 C13.9 53.74, 8.82 48.84, 5.58 43.87 C2.33 38.91, 0.02 31.98, 0.55 26.3 C1.07 20.62, 4.63 13.9, 8.74 9.79 C12.84 5.67, 18.87 2.9, 25.16 1.61 C31.45 0.32, 42.86 1.83, 46.48 2.04 C50.09 2.25, 46.73 2.35, 46.86 2.89" stroke="#000000" stroke-width="1" fill="none"></path></g><g transform="translate(1940.0128237610734 693.0511785420113) rotate(0 10.833333015441895 12.5)"><text x="10.833333015441895" y="0" font-family="Virgil, Segoe UI Emoji" font-size="20px" fill="#000000" text-anchor="middle" style="white-space: pre;" direction="ltr" dominant-baseline="text-before-edge">1111</text></g><g stroke-linecap="round" transform="translate(1578.55427691375 408.41668515305355) rotate(0 49.5 35)"><path d="M45.16 0.45 C53.42 -0.39, 64.3 1.33, 72.13 4.25 C79.96 7.17, 87.72 12.67, 92.14 17.96 C96.56 23.25, 98.97 29.88, 98.65 35.99 C98.33 42.1, 95.41 49.44, 90.24 54.64 C85.07 59.84, 75.99 64.64, 67.63 67.2 C59.27 69.76, 48.76 71.07, 40.06 69.99 C31.37 68.92, 21.98 65.25, 15.47 60.73 C8.95 56.21, 3.09 49.01, 0.98 42.86 C-1.13 36.71, -0.06 29.72, 2.81 23.81 C5.67 17.91, 10.47 11.23, 18.15 7.43 C25.84 3.63, 43.33 2.03, 48.93 0.99 C54.52 -0.04, 51.94 0.82, 51.73 1.21 M53.74 -1.26 C62.34 -0.78, 74.66 4.09, 81.79 8.33 C88.92 12.57, 93.71 18.23, 96.55 24.18 C99.39 30.14, 101.23 37.74, 98.83 44.04 C96.43 50.34, 89.11 57.5, 82.16 61.97 C75.21 66.44, 65.7 70.16, 57.13 70.86 C48.56 71.56, 38.57 68.6, 30.72 66.18 C22.86 63.76, 14.93 61.12, 9.98 56.35 C5.03 51.58, 1.52 44.12, 1.03 37.58 C0.53 31.04, 2.85 22.65, 7.02 17.13 C11.19 11.6, 18.05 7.16, 26.05 4.42 C34.05 1.68, 50.11 1.13, 55.04 0.69 C59.96 0.24, 55.89 1.36, 55.62 1.76" stroke="#000000" stroke-width="1" fill="none"></path></g><g stroke-linecap="round"><g transform="translate(1592.55427691375 469.41668515305355) rotate(0 -132.14281215630444 103.55193064221112)"><path d="M-0.22 0.61 C-44.17 35.25, -220.33 172.86, -264.07 207.22 M-1.79 -0.11 C-45.35 34.19, -218.34 170.54, -261.91 205.21" stroke="#000000" stroke-width="1" fill="none"></path></g><g transform="translate(1592.55427691375 469.41668515305355) rotate(0 -132.14281215630444 103.55193064221112)"><path d="M-245.16 177.89 C-250.18 187.12, -255.22 193.99, -262.56 205.9 M-246.95 179.58 C-251 186.8, -254.28 193.89, -261.42 204.84" stroke="#000000" stroke-width="1" fill="none"></path></g><g transform="translate(1592.55427691375 469.41668515305355) rotate(0 -132.14281215630444 103.55193064221112)"><path d="M-232.42 193.98 C-240.79 198.86, -249.26 201.39, -262.56 205.9 M-234.21 195.67 C-241.59 198.59, -248.33 201.3, -261.42 204.84" stroke="#000000" stroke-width="1" fill="none"></path></g></g><mask></mask><g stroke-linecap="round"><g transform="translate(1677.5542769137464 458.41668515305355) rotate(0 123.14793719090449 110.70952748591117)"><path d="M-1.07 0.22 C40.2 36.91, 205.96 184, 247.36 220.73 M0.57 -0.71 C41.73 36.1, 205.57 185.06, 246.6 222.13" stroke="#000000" stroke-width="1" fill="none"></path></g><g transform="translate(1677.5542769137464 458.41668515305355) rotate(0 123.14793719090449 110.70952748591117)"><path d="M219.19 211.4 C226.27 214.83, 233.89 218.12, 246.04 220.52 M218.49 210.91 C229.2 215.09, 238.84 218.46, 246.34 222.15" stroke="#000000" stroke-width="1" fill="none"></path></g><g transform="translate(1677.5542769137464 458.41668515305355) rotate(0 123.14793719090449 110.70952748591117)"><path d="M232.97 196.2 C236.24 203.79, 239.99 211.36, 246.04 220.52 M232.27 195.71 C238 205.24, 242.78 213.98, 246.34 222.15" stroke="#000000" stroke-width="1" fill="none"></path></g></g><mask></mask><g transform="translate(1426.2447531042171 553.3809708673507) rotate(0 6.883333206176758 12.5)"><text x="0" y="0" font-family="Virgil, Segoe UI Emoji" font-size="20px" fill="#000000" text-anchor="start" style="white-space: pre;" direction="ltr" dominant-baseline="text-before-edge">0</text></g><g transform="translate(1833.3876102470713 560.5238280102058) rotate(0 2.7083332538604736 12.5)"><text x="0" y="0" font-family="Virgil, Segoe UI Emoji" font-size="20px" fill="#000000" text-anchor="start" style="white-space: pre;" direction="ltr" dominant-baseline="text-before-edge">1</text></g></svg>
