<svg version="1.1" xmlns="http://www.w3.org/2000/svg" viewBox="0 0 1760.3569759697275 744.557275196421" width="1760.3569759697275" height="744.557275196421">
  <!-- svg-source:excalidraw -->

  <defs>
    <style class="style-fonts">
      @font-face {
        font-family: "Virgil";
        src: url("https://excalidraw.com/Virgil.woff2");
      }
      @font-face {
        font-family: "Cascadia";
        src: url("https://excalidraw.com/Cascadia.woff2");
      }
    </style>
  </defs>
  <rect x="0" y="0" width="1760.3569759697275" height="744.557275196421" fill="#ffffff"></rect><g stroke-linecap="round" transform="translate(10 414.07442309176986) rotate(0 49.5 35)"><path d="M47.1 0.28 C55.37 -0.54, 65.53 1.43, 73.39 4.38 C81.26 7.33, 90 12.46, 94.29 17.95 C98.58 23.44, 100.13 30.89, 99.12 37.3 C98.12 43.71, 93.95 51.45, 88.27 56.41 C82.6 61.36, 73.6 64.81, 65.09 67.04 C56.58 69.26, 45.78 71.05, 37.19 69.74 C28.6 68.42, 19.41 63.9, 13.53 59.16 C7.66 54.43, 3.52 47.39, 1.94 41.33 C0.35 35.27, 0.97 28.67, 4 22.79 C7.03 16.91, 12.32 9.9, 20.13 6.04 C27.94 2.17, 45.13 0.59, 50.87 -0.38 C56.61 -1.35, 54.59 -0.36, 54.55 0.22 M31.08 1.76 C38.94 -0.96, 49.86 -1.12, 58.41 0.11 C66.96 1.34, 75.82 5.04, 82.37 9.14 C88.92 13.24, 95.2 18.52, 97.73 24.71 C100.27 30.9, 100.13 39.95, 97.6 46.26 C95.08 52.56, 89.7 58.73, 82.61 62.54 C75.52 66.36, 64.14 68.55, 55.07 69.14 C46.01 69.73, 35.93 68.74, 28.21 66.1 C20.48 63.45, 13.62 58.45, 8.72 53.25 C3.83 48.05, -1.27 41.11, -1.17 34.91 C-1.06 28.7, 4.04 21.46, 9.37 16.03 C14.69 10.6, 27.19 4.19, 30.79 2.34 C34.39 0.5, 30.65 4.53, 30.98 4.98" stroke="#000000" stroke-width="1" fill="none"></path></g><g transform="translate(40.31488188802814 436.32568575024015) rotate(0 19.183332443237305 12.5)"><text x="19.183332443237305" y="0" font-family="Virgil, Segoe UI Emoji" font-size="20px" fill="#000000" text-anchor="middle" style="white-space: pre;" direction="ltr" dominant-baseline="text-before-edge">0011</text></g><g stroke-linecap="round" transform="translate(666.5433613619607 10) rotate(0 49.5 35)"><path d="M44.55 -0.64 C52.7 -1.64, 63.59 0.83, 71.37 3.63 C79.15 6.43, 86.78 10.63, 91.23 16.18 C95.67 21.73, 98.3 30.5, 98.07 36.94 C97.83 43.39, 94.59 49.86, 89.82 54.84 C85.04 59.83, 77.51 64.32, 69.41 66.86 C61.32 69.39, 50.26 71.2, 41.24 70.06 C32.23 68.92, 21.89 64.51, 15.32 60.04 C8.75 55.57, 3.88 49.38, 1.81 43.25 C-0.26 37.13, 0.09 29.28, 2.89 23.29 C5.69 17.31, 11.33 11.37, 18.61 7.35 C25.9 3.33, 41.39 0.15, 46.6 -0.82 C51.82 -1.79, 49.88 0.69, 49.92 1.51 M44.04 -0.88 C52.57 -1.98, 63.8 1.16, 71.99 4.2 C80.19 7.25, 88.79 12.21, 93.22 17.38 C97.64 22.54, 98.95 29.07, 98.54 35.2 C98.12 41.33, 95.4 48.84, 90.72 54.16 C86.04 59.48, 78.87 64.44, 70.44 67.1 C62.02 69.77, 49.04 71.09, 40.16 70.15 C31.28 69.22, 23.44 65.91, 17.18 61.48 C10.92 57.05, 4.97 49.51, 2.61 43.57 C0.26 37.63, 0.34 31.94, 3.05 25.85 C5.76 19.76, 11.96 11.24, 18.87 7.04 C25.78 2.84, 40.25 1.85, 44.51 0.65 C48.76 -0.56, 44.28 -0.71, 44.38 -0.19" stroke="#000000" stroke-width="1" fill="none"></path></g><g stroke-linecap="round"><g transform="translate(679.1092226655019 69.93583757408851) rotate(0 -286.6993435445561 173.49270783778138)"><path d="M-0.26 1.1 C-96.17 58.95, -479.38 288.93, -575.21 346.35 M1.81 0.64 C-93.76 58.18, -477.25 286.75, -573.03 344.43" stroke="#000000" stroke-width="1" fill="none"></path></g><g transform="translate(679.1092226655019 69.93583757408851) rotate(0 -286.6993435445561 173.49270783778138)"><path d="M-552.27 319.46 C-559.72 326.95, -567.08 335.99, -574.74 342.48 M-554.24 322.13 C-558.41 326.52, -561.27 330.41, -573.59 344.71" stroke="#000000" stroke-width="1" fill="none"></path></g><g transform="translate(679.1092226655019 69.93583757408851) rotate(0 -286.6993435445561 173.49270783778138)"><path d="M-541.73 337.07 C-552.47 338.85, -563.24 342.2, -574.74 342.48 M-543.7 339.74 C-550.2 340.4, -555.27 340.6, -573.59 344.71" stroke="#000000" stroke-width="1" fill="none"></path></g></g><mask></mask><g stroke-linecap="round"><g transform="translate(765.4048133972465 64.74462609680631) rotate(0 290.37033917446297 182.41601678535062)"><path d="M-1.01 0.39 C95.63 60.86, 482.65 303.46, 579.57 363.94 M0.66 -0.46 C97.68 60.7, 485.25 304.54, 581.75 365.29" stroke="#000000" stroke-width="1" fill="none"></path></g><g transform="translate(765.4048133972465 64.74462609680631) rotate(0 290.37033917446297 182.41601678535062)"><path d="M553.07 357.28 C560.05 360.81, 567.11 360.78, 579.95 366.65 M551.94 359.51 C560.86 359.92, 567.5 362.32, 581.36 365.63" stroke="#000000" stroke-width="1" fill="none"></path></g><g transform="translate(765.4048133972465 64.74462609680631) rotate(0 290.37033917446297 182.41601678535062)"><path d="M564 339.91 C568.09 348.19, 572.11 353, 579.95 366.65 M562.87 342.14 C568.85 347.3, 572.58 354.33, 581.36 365.63" stroke="#000000" stroke-width="1" fill="none"></path></g></g><mask></mask><g transform="translate(356.2619047618937 203.32442309177713) rotate(0 6.883333206176758 12.5)"><text x="0" y="0" font-family="Virgil, Segoe UI Emoji" font-size="20px" fill="#000000" text-anchor="start" style="white-space: pre;" direction="ltr" dominant-baseline="text-before-edge">0</text></g><g transform="translate(1024.8333333333248 176.18156594891843) rotate(0 2.7083332538604736 12.5)"><text x="0" y="0" font-family="Virgil, Segoe UI Emoji" font-size="20px" fill="#000000" text-anchor="start" style="white-space: pre;" direction="ltr" dominant-baseline="text-before-edge">1</text></g><g stroke-linecap="round" transform="translate(1037.3569759697311 671.557275196421) rotate(0 34.5 29)"><path d="M25.77 0.28 C31.85 -1.56, 41.36 -0.38, 47.76 1.74 C54.15 3.87, 60.58 8.21, 64.13 13.04 C67.69 17.86, 69.75 25.05, 69.07 30.68 C68.39 36.31, 64.57 42.28, 60.08 46.83 C55.58 51.37, 48.67 56.35, 42.12 57.95 C35.57 59.55, 26.97 58.74, 20.78 56.44 C14.59 54.13, 8.41 48.98, 4.97 44.12 C1.54 39.25, -0.23 32.77, 0.16 27.24 C0.56 21.7, 1.76 15.3, 7.36 10.93 C12.95 6.56, 28.18 2.71, 33.73 1 C39.28 -0.7, 40.78 0.35, 40.66 0.69 M28.38 0.93 C34.59 -0.13, 45.18 1.44, 51.51 3.9 C57.84 6.35, 63.41 10.41, 66.36 15.65 C69.31 20.9, 70.36 29.87, 69.22 35.39 C68.07 40.91, 64.3 45, 59.49 48.78 C54.69 52.56, 47.11 57.3, 40.38 58.1 C33.65 58.89, 25.1 56.23, 19.12 53.53 C13.14 50.82, 7.77 46.77, 4.49 41.85 C1.21 36.94, -1.68 29.53, -0.57 24.03 C0.53 18.52, 6.31 12.78, 11.13 8.8 C15.94 4.82, 25.33 1.28, 28.3 0.17 C31.28 -0.95, 28.66 1.51, 28.98 2.09" stroke="#000000" stroke-width="1" fill="none"></path></g><g transform="translate(1056.953458812619 688.0511785420113) rotate(0 15.008333206176758 12.5)"><text x="15.008333206176758" y="0" font-family="Virgil, Segoe UI Emoji" font-size="20px" fill="#000000" text-anchor="middle" style="white-space: pre;" direction="ltr" dominant-baseline="text-before-edge">1011</text></g><g stroke-linecap="round" transform="translate(1681.3569759697275 676.557275196421) rotate(0 34.5 29)"><path d="M25.2 0.52 C31.22 -1.37, 40.16 -0.57, 46.32 1.32 C52.49 3.2, 58.54 6.94, 62.21 11.83 C65.87 16.73, 68.51 24.78, 68.31 30.69 C68.12 36.61, 65.1 43, 61.03 47.33 C56.96 51.65, 50.26 55.09, 43.91 56.63 C37.55 58.18, 29.35 58.38, 22.91 56.6 C16.46 54.81, 8.96 50.51, 5.22 45.92 C1.49 41.34, 0.08 34.92, 0.48 29.09 C0.89 23.26, 3.08 15.69, 7.64 10.94 C12.2 6.19, 23.87 2.17, 27.84 0.61 C31.81 -0.94, 31.3 1.29, 31.47 1.62 M42.64 0.12 C48.97 1.02, 56.37 6.95, 60.89 11.1 C65.4 15.25, 69.01 19.55, 69.74 25.02 C70.47 30.49, 68.71 39.04, 65.28 43.93 C61.85 48.83, 55.35 52.13, 49.17 54.37 C42.99 56.62, 35.11 58.4, 28.21 57.39 C21.31 56.38, 12.31 52.45, 7.76 48.31 C3.2 44.17, 1.61 38.23, 0.88 32.56 C0.15 26.9, 0.24 19.14, 3.4 14.33 C6.56 9.52, 13.43 5.9, 19.84 3.71 C26.25 1.52, 38.3 1.8, 41.85 1.16 C45.4 0.52, 41.03 -0.61, 41.13 -0.14" stroke="#000000" stroke-width="1" fill="none"></path></g><g transform="translate(1705.1284590033501 693.0511785420113) rotate(0 10.833333015441895 12.5)"><text x="10.833333015441895" y="0" font-family="Virgil, Segoe UI Emoji" font-size="20px" fill="#000000" text-anchor="middle" style="white-space: pre;" direction="ltr" dominant-baseline="text-before-edge">1111</text></g><g stroke-linecap="round" transform="translate(1343.6699121560268 408.41668515305355) rotate(0 49.5 35)"><path d="M33.16 0.92 C40.85 -1.23, 52.53 0.1, 61.18 1.91 C69.83 3.72, 78.93 7.32, 85.07 11.78 C91.2 16.23, 96.29 22.49, 97.99 28.66 C99.69 34.82, 98.78 42.82, 95.26 48.78 C91.74 54.73, 84.16 60.7, 76.88 64.4 C69.61 68.1, 60.34 70.9, 51.62 70.96 C42.9 71.02, 32.36 68.13, 24.56 64.76 C16.75 61.39, 8.88 56.17, 4.78 50.73 C0.69 45.29, -1.03 38.54, 0.01 32.12 C1.04 25.7, 4.29 17.33, 10.99 12.19 C17.69 7.06, 34.34 3.11, 40.21 1.31 C46.07 -0.49, 46.15 0.86, 46.19 1.41 M73.78 4.54 C81.54 6.91, 89.09 11.38, 93.43 16.83 C97.77 22.28, 100.69 30.76, 99.84 37.23 C98.98 43.7, 93.63 50.5, 88.31 55.68 C82.98 60.85, 76.25 66.02, 67.89 68.26 C59.53 70.51, 47.1 70.31, 38.14 69.13 C29.17 67.95, 20.25 65.49, 14.12 61.18 C7.99 56.86, 3.28 49.83, 1.35 43.25 C-0.58 36.67, -0.74 27.63, 2.53 21.7 C5.79 15.77, 13.72 11.18, 20.93 7.67 C28.14 4.16, 37 1.28, 45.8 0.64 C54.61 0, 69.18 3.14, 73.77 3.83 C78.35 4.53, 73.66 4.12, 73.32 4.79" stroke="#000000" stroke-width="1" fill="none"></path></g><g stroke-linecap="round"><g transform="translate(1357.6699121560268 469.41668515305355) rotate(0 -131.8139859595335 103.14374735349793)"><path d="M-0.77 0.19 C-44.6 34.46, -219.59 171.69, -263.47 206.02 M1.03 -0.76 C-42.96 33.59, -220.88 172.4, -264.66 207.05" stroke="#000000" stroke-width="1" fill="none"></path></g><g transform="translate(1357.6699121560268 469.41668515305355) rotate(0 -131.8139859595335 103.14374735349793)"><path d="M-248.51 180.79 C-254.5 186.42, -258.35 196.37, -266.14 208.18 M-248.51 180.82 C-252.64 189.08, -256.63 196.06, -264.96 206.64" stroke="#000000" stroke-width="1" fill="none"></path></g><g transform="translate(1357.6699121560268 469.41668515305355) rotate(0 -131.8139859595335 103.14374735349793)"><path d="M-235.84 196.93 C-245.19 198.27, -252.35 204.01, -266.14 208.18 M-235.84 196.96 C-243.43 200.78, -250.92 203.3, -264.96 206.64" stroke="#000000" stroke-width="1" fill="none"></path></g></g><mask></mask><g stroke-linecap="round"><g transform="translate(1442.6699121560232 458.41668515305355) rotate(0 123.84412888056613 110.16519380071168)"><path d="M-0.47 -0.98 C40.66 35.69, 204.57 183.35, 245.98 220.19 M1.49 1.12 C43.04 37.91, 207.12 184.67, 248.16 221.31" stroke="#000000" stroke-width="1" fill="none"></path></g><g transform="translate(1442.6699121560232 458.41668515305355) rotate(0 123.84412888056613 110.16519380071168)"><path d="M218.67 208.47 C225.55 214.52, 231.99 216.68, 247.68 220.89 M220.9 210.64 C229.88 214.22, 237.16 216.83, 248.29 221.02" stroke="#000000" stroke-width="1" fill="none"></path></g><g transform="translate(1442.6699121560232 458.41668515305355) rotate(0 123.84412888056613 110.16519380071168)"><path d="M232.34 193.17 C236.02 202.77, 239.23 208.55, 247.68 220.89 M234.58 195.34 C239.4 203.52, 242.48 210.84, 248.29 221.02" stroke="#000000" stroke-width="1" fill="none"></path></g></g><mask></mask><g transform="translate(1191.360388346493 553.3809708673507) rotate(0 6.883333206176758 12.5)"><text x="0" y="0" font-family="Virgil, Segoe UI Emoji" font-size="20px" fill="#000000" text-anchor="start" style="white-space: pre;" direction="ltr" dominant-baseline="text-before-edge">0</text></g><g transform="translate(1598.503245489348 560.5238280102058) rotate(0 2.7083332538604736 12.5)"><text x="0" y="0" font-family="Virgil, Segoe UI Emoji" font-size="20px" fill="#000000" text-anchor="start" style="white-space: pre;" direction="ltr" dominant-baseline="text-before-edge">1</text></g></svg>
