<svg version="1.1" xmlns="http://www.w3.org/2000/svg" viewBox="0 0 1462.6306427269483 496.4563505408451" width="1462.6306427269483" height="496.4563505408451">
  <!-- svg-source:excalidraw -->

  <defs>
    <style class="style-fonts">
      @font-face {
        font-family: "Virgil";
        src: url("https://excalidraw.com/Virgil.woff2");
      }
      @font-face {
        font-family: "Cascadia";
        src: url("https://excalidraw.com/Cascadia.woff2");
      }
    </style>
  </defs>
  <rect x="0" y="0" width="1462.6306427269483" height="496.4563505408451" fill="#ffffff"></rect><g stroke-linecap="round" transform="translate(595.6306427269483 410.50000000000006) rotate(0 34.5 29)"><path d="M47.67 2.69 C53.66 4.35, 59.16 9.42, 62.74 13.91 C66.32 18.4, 69.45 24.26, 69.14 29.64 C68.84 35.02, 65.23 41.7, 60.92 46.17 C56.61 50.64, 49.8 54.94, 43.28 56.46 C36.75 57.98, 27.98 57.15, 21.77 55.3 C15.56 53.46, 9.49 49.95, 6.02 45.4 C2.56 40.84, 0.85 33.56, 0.95 27.96 C1.05 22.35, 2.49 16.2, 6.62 11.75 C10.76 7.3, 18.32 2.8, 25.75 1.25 C33.18 -0.29, 46.6 1.81, 51.19 2.47 C55.78 3.14, 53.48 4.8, 53.29 5.22 M23.73 1.57 C29.49 -0.69, 38.09 0.13, 44.61 1.98 C51.13 3.83, 58.78 8.36, 62.84 12.68 C66.9 17, 68.82 22.27, 68.95 27.92 C69.08 33.56, 67.66 41.7, 63.63 46.55 C59.61 51.41, 51.12 55.57, 44.79 57.04 C38.47 58.51, 32.08 57.03, 25.7 55.38 C19.32 53.73, 10.93 51.36, 6.54 47.15 C2.14 42.93, -0.48 35.6, -0.67 30.08 C-0.85 24.55, 1.24 18.87, 5.42 14.01 C9.61 9.15, 21.49 2.95, 24.46 0.91 C27.43 -1.12, 23.16 1, 23.23 1.8" stroke="#000000" stroke-width="1" fill="none"></path></g><g transform="translate(614.6187919821896 427.4939033455901) rotate(0 15.616666793823242 12)"><text x="15.616666793823242" y="0" font-family="Virgil, Segoe UI Emoji" font-size="20px" fill="#000000" text-anchor="middle" style="white-space: pre;" direction="ltr" dominant-baseline="text-before-edge">null</text></g><g stroke-linecap="round"><g transform="translate(521.3806427269483 293.50000000000006) rotate(0 38.871118473017304 62.10447687650765)"><path d="M0.14 1.19 C10.5 16.81, 49.85 74.17, 62.99 94.31 C76.13 114.44, 76.63 117.53, 78.99 122 M-1.24 0.78 C8.97 16.49, 49.24 75.04, 62.57 95.48 C75.9 115.92, 76.37 119.02, 78.76 123.43" stroke="#000000" stroke-width="1" fill="none"></path></g><g transform="translate(521.3806427269483 293.50000000000006) rotate(0 38.871118473017304 62.10447687650765)"><path d="M69.05 113.95 C70.84 117.98, 76.21 119.57, 77.95 121.96 M66.84 112.92 C70.78 116.29, 73.64 117.7, 79.43 123.73" stroke="#000000" stroke-width="1" fill="none"></path></g><g transform="translate(521.3806427269483 293.50000000000006) rotate(0 38.871118473017304 62.10447687650765)"><path d="M78.61 109.23 C76.87 115.03, 78.68 118.37, 77.95 121.96 M76.41 108.21 C77.78 112.76, 78.11 115.43, 79.43 123.73" stroke="#000000" stroke-width="1" fill="none"></path></g></g><mask></mask><g stroke-linecap="round"><g transform="translate(663.3806427269483 236.50000000000017) rotate(0 168.54065168745365 0.762219334393734)"><path d="M0.99 -0.69 C57.14 -0.52, 281.33 1.87, 337.02 2.22 M0.06 1.56 C56.12 1.85, 280.36 0.07, 336.61 0.21" stroke="#000000" stroke-width="1" fill="none"></path></g><g transform="translate(663.3806427269483 236.50000000000017) rotate(0 168.54065168745365 0.762219334393734)"><path d="M307.3 12.27 C317.5 5.69, 324.87 1.98, 335.91 -0.8 M308.91 11.48 C315.71 7, 323.14 5.79, 336.83 0.65" stroke="#000000" stroke-width="1" fill="none"></path></g><g transform="translate(663.3806427269483 236.50000000000017) rotate(0 168.54065168745365 0.762219334393734)"><path d="M307.23 -8.25 C317.65 -8.43, 325.05 -5.75, 335.91 -0.8 M308.84 -9.04 C315.49 -8.51, 322.93 -4.72, 336.83 0.65" stroke="#000000" stroke-width="1" fill="none"></path></g></g><mask></mask><g stroke-linecap="round" transform="translate(272.6306427269483 10) rotate(0 34.5 29)"><path d="M22.25 1.27 C28.11 -0.94, 36.73 -1.44, 43.35 0.27 C49.97 1.97, 57.55 6.88, 61.97 11.53 C66.39 16.19, 69.85 22.46, 69.89 28.2 C69.93 33.95, 66.08 41.3, 62.22 46.01 C58.37 50.71, 52.89 54.78, 46.77 56.44 C40.66 58.1, 32.24 57.65, 25.53 55.96 C18.82 54.26, 10.6 50.74, 6.51 46.26 C2.41 41.79, 1.2 34.58, 0.97 29.13 C0.75 23.69, 0.35 18.32, 5.16 13.6 C9.98 8.88, 24.82 2.97, 29.86 0.83 C34.9 -1.31, 35.39 0.25, 35.41 0.75 M49.58 3.7 C55.43 5.76, 60.01 10.89, 63.39 15.43 C66.77 19.96, 70.52 25.27, 69.85 30.9 C69.18 36.52, 64.23 44.67, 59.37 49.15 C54.51 53.64, 47.32 56.52, 40.67 57.8 C34.03 59.09, 25.28 59.42, 19.48 56.87 C13.68 54.32, 9.08 47.79, 5.86 42.53 C2.64 37.27, -0.48 30.6, 0.17 25.3 C0.82 20, 5.06 14.9, 9.78 10.74 C14.5 6.57, 22.15 1.85, 28.5 0.32 C34.86 -1.21, 44.64 1.02, 47.91 1.58 C51.17 2.13, 48.01 2.91, 48.07 3.65" stroke="#000000" stroke-width="1" fill="none"></path></g><g stroke-linecap="round"><g transform="translate(344.39361418241424 58.75000001528224) rotate(0 65.92261862351916 81.34630386945364)"><path d="M-1 0.42 C16.3 22.11, 80.92 102.47, 103.22 129.47 C125.53 156.46, 127.8 156.63, 132.85 162.38 M0.67 -0.41 C17.92 21.03, 80.63 100.67, 102.56 127.92 C124.5 155.18, 126.98 156.88, 132.27 163.11" stroke="#000000" stroke-width="1" fill="none"></path></g><g transform="translate(344.39361418241424 58.75000001528224) rotate(0 65.92261862351916 81.34630386945364)"><path d="M112.71 153.04 C118.84 155.64, 120.19 159.5, 133.03 163.54 M111.36 153.08 C117.91 155.41, 126.59 160.77, 132.72 163.06" stroke="#000000" stroke-width="1" fill="none"></path></g><g transform="translate(344.39361418241424 58.75000001528224) rotate(0 65.92261862351916 81.34630386945364)"><path d="M124.5 142.59 C127.63 147.7, 126.04 154.17, 133.03 163.54 M123.15 142.63 C125.55 148.45, 130.17 157.41, 132.72 163.06" stroke="#000000" stroke-width="1" fill="none"></path></g></g><mask></mask><g stroke-linecap="round" transform="translate(452.8806427269483 221.25000000000006) rotate(0 38.5 33)"><path d="M44.63 0.59 C52.02 0.77, 60.8 4.16, 65.97 8.55 C71.13 12.95, 74.29 20.57, 75.61 26.95 C76.93 33.32, 77.22 40.79, 73.88 46.81 C70.53 52.82, 62.25 59.83, 55.55 63.04 C48.84 66.25, 41.02 67.14, 33.67 66.08 C26.31 65.02, 16.86 61.17, 11.42 56.66 C5.98 52.15, 2.11 45.42, 1.03 39.01 C-0.05 32.6, 1.68 24, 4.93 18.2 C8.18 12.4, 12.29 6.92, 20.52 4.2 C28.75 1.48, 47.41 1.23, 54.32 1.88 C61.23 2.53, 62.51 7.52, 61.98 8.09 M44.74 2.03 C52.23 2.51, 62.45 5.13, 67.76 9.5 C73.08 13.86, 75.72 21.47, 76.6 28.22 C77.49 34.98, 76.51 44.31, 73.07 50.02 C69.64 55.73, 63.08 60.09, 56.01 62.49 C48.94 64.89, 38.29 65.45, 30.65 64.42 C23.01 63.38, 15.06 60.66, 10.16 56.27 C5.26 51.89, 2.09 44.55, 1.24 38.1 C0.38 31.65, 1.46 23.63, 5.06 17.58 C8.66 11.52, 16.1 4.58, 22.83 1.76 C29.57 -1.06, 41.77 0.69, 45.46 0.68 C49.16 0.66, 45.31 0.98, 44.99 1.68" stroke="#000000" stroke-width="1" fill="none"></path></g><g stroke-linecap="round"><g transform="translate(469.5406625402302 293.32133309082826) rotate(0.9900565231191685 -32.45436198096377 60.9062769322675)"><path d="M0.36 -1.12 C-4.39 8.1, -17.13 35.78, -27.97 56.45 C-38.8 77.13, -58.3 112.12, -64.64 122.94 M-0.91 0.9 C-5.78 10.28, -17.65 34.58, -28.37 54.57 C-39.1 74.56, -58.93 109.64, -65.27 120.87" stroke="#000000" stroke-width="1" fill="none"></path></g><g transform="translate(469.5406625402302 293.32133309082826) rotate(0.9900565231191685 -32.45436198096377 60.9062769322675)"><path d="M-62.23 93 C-61.03 101.95, -62.6 109.85, -67.01 119.55 M-59.61 92.19 C-62.13 102.88, -64.36 115.13, -64.65 121.73" stroke="#000000" stroke-width="1" fill="none"></path></g><g transform="translate(469.5406625402302 293.32133309082826) rotate(0.9900565231191685 -32.45436198096377 60.9062769322675)"><path d="M-44.35 103.08 C-49.42 108.6, -57.17 113.02, -67.01 119.55 M-41.74 102.27 C-51.22 108.86, -60.51 117.13, -64.65 121.73" stroke="#000000" stroke-width="1" fill="none"></path></g></g><mask></mask><g stroke-linecap="round" transform="translate(1256.6306427269483 92.00000000000011) rotate(0 34.5 29)"><path d="M37.4 -0.48 C43.92 -0.29, 53.63 2.52, 58.66 6.58 C63.69 10.63, 66.24 18.05, 67.6 23.85 C68.97 29.65, 69.54 36.29, 66.87 41.37 C64.19 46.46, 57.5 51.5, 51.56 54.34 C45.62 57.19, 37.81 59.09, 31.24 58.44 C24.67 57.79, 17.28 54.27, 12.15 50.43 C7.02 46.59, 1.86 41.07, 0.46 35.39 C-0.94 29.7, 0.87 21.45, 3.77 16.31 C6.67 11.17, 11.04 7.05, 17.85 4.53 C24.66 2.01, 38.88 1.22, 44.64 1.17 C50.39 1.12, 52.35 3.79, 52.36 4.23 M50.89 3.12 C56.64 5.69, 63.26 12.7, 66.33 17.85 C69.39 23, 70.78 28.82, 69.28 34.01 C67.78 39.2, 62.46 44.94, 57.33 48.98 C52.21 53.02, 44.94 57.21, 38.54 58.25 C32.15 59.29, 24.74 57.96, 18.95 55.21 C13.16 52.46, 6.7 47.24, 3.8 41.75 C0.91 36.25, 0.41 27.84, 1.57 22.24 C2.73 16.63, 6.1 11.7, 10.78 8.11 C15.47 4.53, 23.19 1.33, 29.68 0.74 C36.17 0.15, 46.27 3.86, 49.73 4.58 C53.19 5.31, 50.33 4.72, 50.44 5.08" stroke="#000000" stroke-width="1" fill="none"></path></g><g stroke-linecap="round"><g transform="translate(1262.6306427269483 162.00000000000017) rotate(0 -34.2466880986085 56.36623346017393)"><path d="M0.26 0.53 C-11.37 19.12, -57.31 93.04, -68.76 111.98 M-1.06 -0.24 C-12.43 18.42, -55.83 94.2, -66.64 112.97" stroke="#000000" stroke-width="1" fill="none"></path></g><g transform="translate(1262.6306427269483 162.00000000000017) rotate(0 -34.2466880986085 56.36623346017393)"><path d="M-60.61 81.53 C-65.11 93.53, -63.46 104.32, -67.99 114.46 M-61.33 83.93 C-62.76 95.85, -65.42 106.32, -66.14 113.69" stroke="#000000" stroke-width="1" fill="none"></path></g><g transform="translate(1262.6306427269483 162.00000000000017) rotate(0 -34.2466880986085 56.36623346017393)"><path d="M-42.82 91.75 C-54.22 99.84, -59.44 106.69, -67.99 114.46 M-43.54 94.16 C-51.98 102.06, -61.62 108.52, -66.14 113.69" stroke="#000000" stroke-width="1" fill="none"></path></g></g><mask></mask><g stroke-linecap="round" transform="translate(1132.8806427269483 282.50000000000017) rotate(0 38.5 34.5)"><path d="M25.39 2.59 C32 0.32, 43.47 0.09, 50.78 1.99 C58.09 3.88, 64.81 8.54, 69.27 13.97 C73.72 19.41, 77.25 27.88, 77.51 34.61 C77.77 41.34, 75.3 48.84, 70.83 54.34 C66.36 59.85, 57.83 65.59, 50.67 67.65 C43.51 69.71, 34.95 68.66, 27.86 66.7 C20.77 64.74, 12.94 61.24, 8.15 55.9 C3.35 50.56, -0.81 41.59, -0.94 34.64 C-1.06 27.69, 2.61 19.79, 7.39 14.18 C12.16 8.57, 23.93 2.9, 27.71 0.99 C31.49 -0.92, 29.99 2.08, 30.05 2.7 M34.35 0.03 C41.12 -1.66, 49.56 -0.21, 55.97 3.15 C62.37 6.5, 69.24 13.77, 72.79 20.17 C76.33 26.56, 78.47 34.92, 77.24 41.53 C76.02 48.13, 70.87 55.51, 65.42 59.79 C59.96 64.08, 52.04 66.36, 44.49 67.22 C36.95 68.08, 26.99 67.85, 20.15 64.95 C13.3 62.05, 6.89 55.77, 3.44 49.82 C-0.01 43.87, -1.97 35.81, -0.57 29.26 C0.84 22.71, 5.98 15.23, 11.84 10.52 C17.7 5.81, 30.86 2.79, 34.59 1.02 C38.33 -0.75, 34.29 -0.48, 34.25 -0.11" stroke="#000000" stroke-width="1" fill="none"></path></g><g transform="translate(1164.4903651435452 305.10481604906425) rotate(0 6.666666507720947 12)"><text x="6.666666507720947" y="0" font-family="Virgil, Segoe UI Emoji" font-size="20px" fill="#000000" text-anchor="middle" style="white-space: pre;" direction="ltr" dominant-baseline="text-before-edge">a</text></g><g stroke-linecap="round"><g transform="translate(1319.6306427269483 167.00000000000017) rotate(0 39.69001607820428 60.710081353341224)"><path d="M-1.16 -0.81 C9.45 15.02, 49.28 75.81, 62.89 96.1 C76.51 116.39, 77.66 116.69, 80.54 120.94 M0.43 1.38 C11.03 17.41, 49.14 74.42, 62.42 94.56 C75.69 114.7, 77.04 118.09, 80.06 122.23" stroke="#000000" stroke-width="1" fill="none"></path></g><g transform="translate(1319.6306427269483 167.00000000000017) rotate(0 39.69001607820428 60.710081353341224)"><path d="M66.29 113.98 C71.88 115.85, 73.33 117.6, 80.87 123.21 M67.76 113.37 C71.65 116.84, 77.72 119.37, 79.77 122.52" stroke="#000000" stroke-width="1" fill="none"></path></g><g transform="translate(1319.6306427269483 167.00000000000017) rotate(0 39.69001607820428 60.710081353341224)"><path d="M75.32 108.03 C78.85 111.2, 78.18 114.34, 80.87 123.21 M76.79 107.42 C77.2 113.15, 79.78 117.98, 79.77 122.52" stroke="#000000" stroke-width="1" fill="none"></path></g></g><mask></mask><g stroke-linecap="round" transform="translate(1375.6306427269483 287.00000000000017) rotate(0 38.5 33)"><path d="M47.6 1.45 C54.86 2.35, 63.54 6.43, 68.37 11.28 C73.2 16.13, 75.94 24.24, 76.59 30.56 C77.24 36.88, 76.01 43.59, 72.25 49.18 C68.5 54.76, 61.28 61.46, 54.07 64.07 C46.85 66.67, 36.34 66.44, 28.97 64.8 C21.6 63.17, 14.61 59.13, 9.85 54.24 C5.09 49.36, 0.97 41.69, 0.41 35.48 C-0.16 29.27, 2.71 22.47, 6.46 16.99 C10.21 11.51, 14.51 4.68, 22.91 2.61 C31.31 0.54, 49.67 3.23, 56.86 4.58 C64.05 5.92, 66.34 10.37, 66.05 10.67 M26.24 2.7 C32.95 0.14, 42.3 0.12, 49.56 1.53 C56.83 2.95, 65.27 6.13, 69.84 11.21 C74.42 16.28, 76.97 25.21, 77.02 32 C77.06 38.8, 74.54 46.44, 70.11 51.96 C65.68 57.47, 57.51 62.79, 50.44 65.09 C43.37 67.4, 34.56 67.62, 27.69 65.78 C20.83 63.94, 13.74 59.49, 9.24 54.03 C4.74 48.58, 1.05 39.71, 0.67 33.05 C0.29 26.39, 2.69 19.24, 6.96 14.06 C11.24 8.88, 23.2 3.77, 26.31 1.97 C29.43 0.18, 25.74 2.86, 25.63 3.29" stroke="#000000" stroke-width="1" fill="none"></path></g><g transform="translate(1408.823698158987 308.1654762208441) rotate(0 5.083333492279053 12.000000000000028)"><text x="5.083333492279053" y="0" font-family="Virgil, Segoe UI Emoji" font-size="20px" fill="#000000" text-anchor="middle" style="white-space: pre;" direction="ltr" dominant-baseline="text-before-edge">b</text></g><g stroke-linecap="round" transform="translate(364.6306427269483 421.75000000000006) rotate(0 33.5 30.5)"><path d="M43.39 1.93 C49.45 3.13, 57.18 6.8, 61.19 11.65 C65.21 16.5, 67.69 24.98, 67.46 31.02 C67.22 37.07, 63.63 43.25, 59.79 47.91 C55.94 52.57, 50.44 57.13, 44.41 59 C38.38 60.86, 29.75 60.69, 23.6 59.11 C17.45 57.53, 11.53 54.26, 7.52 49.52 C3.5 44.78, -0.23 36.71, -0.49 30.65 C-0.74 24.6, 1.96 17.95, 6.01 13.19 C10.07 8.44, 16.65 3.82, 23.84 2.12 C31.04 0.42, 44.26 2.22, 49.19 3.02 C54.11 3.82, 53.59 6.26, 53.41 6.91 M42.4 -0.63 C48.51 0.3, 55.04 6.01, 59.08 10.9 C63.11 15.78, 66.32 22.57, 66.6 28.68 C66.89 34.79, 64.22 42.4, 60.8 47.58 C57.37 52.77, 51.74 57.56, 46.06 59.77 C40.37 61.99, 32.92 62.63, 26.68 60.86 C20.44 59.09, 12.99 53.91, 8.62 49.16 C4.25 44.4, 0.91 38.12, 0.47 32.34 C0.02 26.56, 2.56 19.37, 5.95 14.48 C9.34 9.59, 15.04 5.33, 20.79 2.98 C26.53 0.62, 36.79 0.41, 40.44 0.35 C44.08 0.3, 42.87 2.07, 42.67 2.63" stroke="#000000" stroke-width="1" fill="none"></path></g><g transform="translate(382.32589876337624 440.18324317381035) rotate(0 15.616666793823242 12)"><text x="15.616666793823242" y="0" font-family="Virgil, Segoe UI Emoji" font-size="20px" fill="#000000" text-anchor="middle" style="white-space: pre;" direction="ltr" dominant-baseline="text-before-edge">null</text></g><g stroke-linecap="round" transform="translate(236 420.4563505408451) rotate(0 34.5 29)"><path d="M24.26 1.14 C30.38 -0.96, 39.33 -1.11, 45.85 0.61 C52.37 2.34, 59.68 6.62, 63.4 11.48 C67.12 16.35, 68.47 24.05, 68.18 29.78 C67.89 35.5, 65.5 41.28, 61.64 45.84 C57.79 50.41, 51.46 55.28, 45.07 57.16 C38.67 59.04, 29.65 58.83, 23.27 57.12 C16.89 55.42, 10.76 51.47, 6.78 46.91 C2.8 42.35, -0.53 35.62, -0.59 29.76 C-0.65 23.9, 2.1 16.49, 6.43 11.76 C10.76 7.03, 22.24 3.23, 25.4 1.38 C28.56 -0.46, 25.39 0.38, 25.41 0.7 M24.52 1.95 C30.4 -0.05, 40.35 -1.71, 46.59 0.35 C52.84 2.4, 58.11 9.35, 62 14.27 C65.89 19.19, 70.18 24.49, 69.94 29.87 C69.7 35.25, 65 42.11, 60.56 46.57 C56.12 51.02, 49.68 54.77, 43.28 56.58 C36.88 58.39, 28.41 59.29, 22.17 57.44 C15.94 55.59, 9.74 50.26, 5.87 45.47 C1.99 40.67, -1.58 34.38, -1.09 28.68 C-0.61 22.99, 4.5 15.88, 8.76 11.27 C13.01 6.67, 21.91 2.61, 24.44 1.06 C26.97 -0.48, 23.9 1.29, 23.94 2.01" stroke="#000000" stroke-width="1" fill="none"></path></g><g transform="translate(265.5214825567855 437.4502538864352) rotate(0 5.083333492279053 12)"><text x="5.083333492279053" y="0" font-family="Virgil, Segoe UI Emoji" font-size="20px" fill="#000000" text-anchor="middle" style="white-space: pre;" direction="ltr" dominant-baseline="text-before-edge">b</text></g><g stroke-linecap="round"><g transform="translate(161.75 303.4563505408451) rotate(0 39.43308358415743 61.235926518740285)"><path d="M-0.47 0.4 C9.94 16.41, 48.78 75.3, 61.69 95.72 C74.6 116.14, 74.36 118.73, 76.96 122.91 M1.49 -0.43 C11.77 15.27, 47.6 73.71, 60.58 93.98 C73.55 114.24, 76.56 116.58, 79.33 121.15" stroke="#000000" stroke-width="1" fill="none"></path></g><g transform="translate(161.75 303.4563505408451) rotate(0 39.43308358415743 61.235926518740285)"><path d="M67.11 111.77 C70.53 113.06, 74.08 115.66, 78.06 122.24 M67.02 111.8 C69.93 114.42, 73.13 115.82, 79.99 120.98" stroke="#000000" stroke-width="1" fill="none"></path></g><g transform="translate(161.75 303.4563505408451) rotate(0 39.43308358415743 61.235926518740285)"><path d="M75.86 105.68 C77.18 108.38, 78.65 112.43, 78.06 122.24 M75.77 105.71 C76.66 109.72, 77.85 112.52, 79.99 120.98" stroke="#000000" stroke-width="1" fill="none"></path></g></g><mask></mask><g stroke-linecap="round"><g transform="translate(310.2353202751019 66.20635055981634) rotate(0 -94.0740464724322 81.06205260999786)"><path d="M-37.85 0.72 C-53.15 21.59, -110.89 98.87, -129.79 125.63 C-148.69 152.39, -147.91 155.31, -151.24 161.27 M-35.81 0.05 C-50.7 20.58, -108.18 97.09, -127.6 124.1 C-147.02 151.1, -148.76 155.75, -152.34 162.07" stroke="#000000" stroke-width="1" fill="none"></path></g><g transform="translate(310.2353202751019 66.20635055981634) rotate(0 -94.0740464724322 81.06205260999786)"><path d="M-147.77 138.88 C-147.91 145.08, -152.29 153.17, -153.76 161.54 M-148.4 140.79 C-148.93 146.38, -150.03 153.21, -152.47 162.46" stroke="#000000" stroke-width="1" fill="none"></path></g><g transform="translate(310.2353202751019 66.20635055981634) rotate(0 -94.0740464724322 81.06205260999786)"><path d="M-134.72 146.08 C-138.29 150.37, -146.08 156.58, -153.76 161.54 M-135.35 147.99 C-139.83 151.36, -144.83 156.04, -152.47 162.46" stroke="#000000" stroke-width="1" fill="none"></path></g></g><mask></mask><g stroke-linecap="round" transform="translate(93.25 231.206350540845) rotate(0 38.5 33)"><path d="M27.63 0.9 C34.55 -1.17, 45.01 0.26, 52.11 2.68 C59.2 5.11, 66.02 9.99, 70.2 15.45 C74.38 20.92, 77.58 28.98, 77.2 35.49 C76.83 41.99, 72.74 49.61, 67.95 54.48 C63.16 59.35, 55.55 63.09, 48.44 64.7 C41.33 66.31, 32.44 66.52, 25.27 64.14 C18.11 61.75, 9.73 55.93, 5.45 50.38 C1.17 44.83, -0.82 37.04, -0.41 30.84 C0 24.64, 2.3 18.35, 7.9 13.2 C13.5 8.04, 27.93 1.98, 33.18 -0.08 C38.43 -2.15, 39.42 0.34, 39.4 0.81 M55.19 3.39 C61.52 5.81, 68.82 11.92, 72.29 17.96 C75.76 24, 77.14 33.18, 76.01 39.65 C74.88 46.13, 70.98 52.38, 65.5 56.83 C60.01 61.29, 50.3 65.46, 43.08 66.39 C35.85 67.33, 28.73 65.56, 22.13 62.45 C15.52 59.33, 7.25 53.44, 3.43 47.68 C-0.39 41.92, -1.91 34.03, -0.77 27.9 C0.36 21.77, 4.84 15.29, 10.24 10.92 C15.65 6.55, 24.17 2.9, 31.66 1.68 C39.15 0.46, 51.19 3.16, 55.17 3.62 C59.14 4.07, 55.61 3.92, 55.51 4.41" stroke="#000000" stroke-width="1" fill="none"></path></g><g stroke-linecap="round"><g transform="translate(109.96484843711733 303.3162772223613) rotate(0.9900565231191685 -30.260940958571155 58.175977182743765)"><path d="M-0.64 -0.98 C-5.17 8.02, -18.13 35.65, -28.16 55.15 C-38.19 74.65, -55.53 105.97, -60.81 116.02 M1.22 1.12 C-3.3 10.76, -18.17 36.87, -28.67 56.24 C-39.16 75.61, -56.65 107.33, -61.75 117.33" stroke="#000000" stroke-width="1" fill="none"></path></g><g transform="translate(109.96484843711733 303.3162772223613) rotate(0.9900565231191685 -30.260940958571155 58.175977182743765)"><path d="M-59.22 89.02 C-59.63 93.51, -59.12 101.59, -62.71 118.47 M-56.74 87.41 C-58.79 97.62, -59.74 106.01, -62.48 116.88" stroke="#000000" stroke-width="1" fill="none"></path></g><g transform="translate(109.96484843711733 303.3162772223613) rotate(0.9900565231191685 -30.260940958571155 58.175977182743765)"><path d="M-41.1 98.65 C-45.53 100.95, -48.95 106.95, -62.71 118.47 M-38.62 97.03 C-46.63 104.02, -53.47 109.28, -62.48 116.88" stroke="#000000" stroke-width="1" fill="none"></path></g></g><mask></mask><g stroke-linecap="round" transform="translate(10 425.4563505408451) rotate(0 33.5 30.5)"><path d="M28.57 0.84 C34.73 -0.26, 43.9 1.71, 49.66 4.59 C55.41 7.47, 60.34 12.93, 63.11 18.14 C65.87 23.35, 67.26 30.07, 66.24 35.86 C65.22 41.64, 61.86 48.82, 57 52.84 C52.14 56.86, 43.73 59.34, 37.08 59.99 C30.44 60.64, 22.85 59.32, 17.13 56.74 C11.41 54.16, 5.57 49.88, 2.74 44.53 C-0.08 39.18, -1.19 30.65, 0.18 24.66 C1.54 18.67, 5.91 12.81, 10.94 8.58 C15.97 4.36, 26.43 0.53, 30.37 -0.7 C34.31 -1.92, 34.39 0.74, 34.56 1.25 M29.3 1.4 C35.56 0.46, 44.46 1.4, 50.06 4.28 C55.65 7.15, 59.95 13.24, 62.89 18.66 C65.83 24.08, 68.95 31.09, 67.71 36.81 C66.48 42.53, 60.77 48.92, 55.47 52.98 C50.17 57.04, 42.56 60.24, 35.93 61.15 C29.3 62.07, 21.36 61.26, 15.68 58.47 C10 55.69, 4.53 50.12, 1.85 44.42 C-0.84 38.71, -1.86 30.31, -0.42 24.25 C1.02 18.2, 5.46 12.1, 10.51 8.07 C15.55 4.04, 26.41 1.41, 29.86 0.06 C33.32 -1.3, 31.05 -0.74, 31.23 -0.05" stroke="#000000" stroke-width="1" fill="none"></path></g><g transform="translate(36.64525632253026 443.8895937146554) rotate(0 6.666666507720947 12)"><text x="6.666666507720947" y="0" font-family="Virgil, Segoe UI Emoji" font-size="20px" fill="#000000" text-anchor="middle" style="white-space: pre;" direction="ltr" dominant-baseline="text-before-edge">a</text></g></svg>
