<svg version="1.1" xmlns="http://www.w3.org/2000/svg" viewBox="0 0 2606.074840948191 1227.610137377491" width="2606.074840948191" height="1227.610137377491">
  <!-- svg-source:excalidraw -->

  <defs>
    <style class="style-fonts">
      @font-face {
        font-family: "Virgil";
        src: url("https://excalidraw.com/Virgil.woff2");
      }
      @font-face {
        font-family: "Cascadia";
        src: url("https://excalidraw.com/Cascadia.woff2");
      }
    </style>
  </defs>
  <rect x="0" y="0" width="2606.074840948191" height="1227.610137377491" fill="#ffffff"></rect><g stroke-linecap="round"><g transform="translate(470.3571428571431 936.2150131351373) rotate(0 40.75622636571984 61.5457228012292)"><path d="M1.18 0.91 C11.31 16.58, 48.21 73.85, 61.54 93.92 C74.87 113.98, 78.08 116.82, 81.17 121.28 M0.34 0.34 C10.2 16.14, 46.91 74.48, 60.36 94.89 C73.8 115.29, 77.68 118.29, 81.02 122.75" stroke="#000000" stroke-width="1" fill="none"></path></g><g transform="translate(470.3571428571431 936.2150131351373) rotate(0 40.75622636571984 61.5457228012292)"><path d="M68.61 114.1 C70.96 119.06, 77.76 120.58, 80.62 124 M67.81 115.46 C70.34 116.63, 73.53 118.89, 80.28 123.24" stroke="#000000" stroke-width="1" fill="none"></path></g><g transform="translate(470.3571428571431 936.2150131351373) rotate(0 40.75622636571984 61.5457228012292)"><path d="M76.96 107.23 C76.25 114.79, 79.98 118.83, 80.62 124 M76.16 108.59 C76.84 111.29, 78.17 115.09, 80.28 123.24" stroke="#000000" stroke-width="1" fill="none"></path></g></g><mask></mask><g stroke-linecap="round" transform="translate(271.3571428571431 677.2150131351373) rotate(0 34.5 29)"><path d="M19.52 2.66 C25.07 -0.22, 34.7 -1.36, 41.37 -0.32 C48.03 0.73, 54.89 4.54, 59.52 8.92 C64.16 13.31, 68.3 20.34, 69.18 25.99 C70.06 31.65, 68.04 37.87, 64.78 42.85 C61.51 47.83, 55.81 53.31, 49.6 55.86 C43.38 58.42, 34.28 59.28, 27.49 58.17 C20.7 57.06, 13.47 53.43, 8.86 49.21 C4.26 45, 0.69 38.41, -0.14 32.86 C-0.98 27.32, -0.16 21.02, 3.84 15.93 C7.85 10.84, 20.19 4.75, 23.9 2.3 C27.6 -0.14, 25.92 0.97, 26.07 1.26 M50.23 3.88 C56.31 6.16, 63.31 11.91, 66.41 17.06 C69.51 22.22, 70.08 29.55, 68.82 34.81 C67.55 40.08, 63.73 44.65, 58.82 48.67 C53.92 52.69, 45.99 58.15, 39.41 58.93 C32.83 59.71, 25.24 56.23, 19.33 53.36 C13.42 50.48, 7.04 46.31, 3.97 41.68 C0.89 37.05, -0.33 30.99, 0.89 25.56 C2.1 20.13, 6.57 13.42, 11.27 9.09 C15.98 4.77, 22.45 0.67, 29.12 -0.4 C35.79 -1.47, 47.86 2.08, 51.28 2.67 C54.7 3.25, 50.12 2.68, 49.64 3.09" stroke="#000000" stroke-width="1" fill="none"></path></g><g stroke-linecap="round" transform="translate(140.35714285714312 858.2150131351373) rotate(0 38.5 34.5)"><path d="M43.81 -0.53 C51 -0.2, 59.28 4.3, 64.77 9.18 C70.27 14.05, 75.34 22.07, 76.76 28.72 C78.19 35.38, 76.55 43, 73.32 49.11 C70.09 55.22, 64.08 61.99, 57.37 65.36 C50.66 68.74, 40.67 70.28, 33.05 69.38 C25.42 68.48, 17.07 64.67, 11.61 59.96 C6.15 55.25, 1.66 47.68, 0.27 41.13 C-1.11 34.59, -0.08 26.68, 3.3 20.67 C6.68 14.65, 13.24 8.33, 20.57 5.05 C27.89 1.78, 41.81 1.4, 47.26 1.03 C52.71 0.65, 53.14 2.26, 53.28 2.82 M41.92 1.03 C49.19 1.03, 57.65 4.92, 63.33 8.89 C69.01 12.86, 74.16 18.27, 75.97 24.86 C77.78 31.45, 76.84 42.2, 74.17 48.43 C71.5 54.67, 66.23 58.9, 59.95 62.28 C53.67 65.66, 44.06 68.68, 36.46 68.71 C28.87 68.75, 20.09 66.62, 14.37 62.48 C8.65 58.35, 4.13 50.8, 2.13 43.9 C0.13 37, -0.39 27.62, 2.36 21.1 C5.12 14.57, 12.32 8.37, 18.66 4.75 C25 1.12, 36.77 0.13, 40.39 -0.65 C44 -1.43, 40.16 -0.49, 40.36 0.06" stroke="#000000" stroke-width="1" fill="none"></path></g><g stroke-linecap="round" transform="translate(399.3571428571431 860.2150131351373) rotate(0 38.5 33)"><path d="M39.08 0.17 C46.3 -0.11, 55.99 3.57, 62.22 7.5 C68.46 11.44, 74.37 17.62, 76.47 23.76 C78.57 29.9, 77.46 38.4, 74.85 44.34 C72.23 50.28, 66.97 55.95, 60.79 59.43 C54.61 62.9, 45.42 65.37, 37.77 65.22 C30.13 65.07, 20.97 62.43, 14.91 58.53 C8.85 54.64, 3.38 47.85, 1.39 41.86 C-0.61 35.87, 0.22 28.76, 2.93 22.59 C5.64 16.42, 10.18 8.34, 17.63 4.83 C25.07 1.33, 41.46 1.58, 47.58 1.57 C53.71 1.55, 54.52 4.31, 54.37 4.76 M36.28 0.41 C43.44 -0.68, 53.34 1.69, 59.46 4.97 C65.57 8.25, 70 14.04, 72.96 20.11 C75.92 26.17, 79 35, 77.22 41.38 C75.44 47.75, 68.24 54.22, 62.28 58.37 C56.33 62.52, 48.53 65.66, 41.47 66.29 C34.4 66.92, 26.19 65.6, 19.92 62.13 C13.64 58.65, 7.07 51.41, 3.81 45.42 C0.54 39.44, -1.18 32.56, 0.31 26.23 C1.8 19.91, 7.03 11.92, 12.74 7.48 C18.45 3.04, 30.94 0.58, 34.6 -0.38 C38.25 -1.35, 34.65 1.12, 34.68 1.7" stroke="#000000" stroke-width="1" fill="none"></path></g><g stroke-linecap="round"><g transform="translate(416.4959711111078 937.2829343511403) rotate(0.9900565231191685 -32.95983816705166 62.76701043623598)"><path d="M0.28 0.08 C-4.42 9.38, -18.22 36.13, -29.3 56.95 C-40.38 77.78, -60.21 113.62, -66.2 125.04 M-1.03 -0.92 C-5.82 8.57, -19.94 34.1, -30.4 55.33 C-40.86 76.56, -58.03 115.13, -63.79 126.45" stroke="#000000" stroke-width="1" fill="none"></path></g><g transform="translate(416.4959711111078 937.2829343511403) rotate(0.9900565231191685 -32.95983816705166 62.76701043623598)"><path d="M-60.8 96.09 C-59.66 101.32, -61.55 109.15, -62.78 128.37 M-60.18 95.65 C-61.08 104.35, -62.4 113.16, -63.9 126.22" stroke="#000000" stroke-width="1" fill="none"></path></g><g transform="translate(416.4959711111078 937.2829343511403) rotate(0.9900565231191685 -32.95983816705166 62.76701043623598)"><path d="M-42.27 104.91 C-45.11 108.33, -50.88 114.32, -62.78 128.37 M-41.65 104.47 C-47.85 110.66, -54.46 116.96, -63.9 126.22" stroke="#000000" stroke-width="1" fill="none"></path></g></g><mask></mask><g stroke-linecap="round" transform="translate(323.3571428571431 1068.2150131351373) rotate(0 33.5 30.5)"><path d="M46.45 2.87 C52.67 4.63, 59.66 9.48, 63.09 14.52 C66.52 19.55, 67.63 27.23, 67.06 33.06 C66.49 38.88, 63.86 45.07, 59.66 49.46 C55.45 53.85, 48.31 57.97, 41.82 59.42 C35.32 60.87, 26.86 60.39, 20.68 58.17 C14.51 55.95, 8.09 50.99, 4.77 46.1 C1.44 41.22, 0.05 34.93, 0.72 28.88 C1.38 22.82, 4.59 14.37, 8.76 9.8 C12.93 5.23, 19 2.29, 25.75 1.44 C32.5 0.59, 44.85 3.94, 49.26 4.71 C53.66 5.48, 52.41 5.7, 52.17 6.05 M45.55 1.9 C51.25 3.31, 56.21 7.98, 59.99 13 C63.77 18.02, 68.43 25.94, 68.24 32 C68.04 38.06, 63.03 44.66, 58.81 49.35 C54.58 54.04, 48.74 58.31, 42.91 60.12 C37.08 61.92, 29.84 62.3, 23.82 60.2 C17.8 58.1, 10.86 52.46, 6.77 47.53 C2.68 42.6, -0.61 36.61, -0.7 30.61 C-0.8 24.6, 2.24 16.47, 6.22 11.5 C10.2 6.53, 16.88 2.27, 23.15 0.79 C29.43 -0.68, 40.48 2.44, 43.87 2.64 C47.26 2.84, 43.34 1.78, 43.48 1.99" stroke="#000000" stroke-width="1" fill="none"></path></g><g transform="translate(341.2404760633199 1086.4650131351373) rotate(0 15.616666793823242 12)"><text x="15.616666793823242" y="0" font-family="Virgil, Segoe UI Emoji" font-size="20px" fill="#000000" text-anchor="middle" style="white-space: pre;" direction="ltr" dominant-baseline="text-before-edge">null</text></g><g stroke-linecap="round" transform="translate(199.85714285714312 1067.2150131351373) rotate(0 43.5 31.5)"><path d="M47.66 -0.06 C55.81 -0.13, 65.29 3.64, 71.76 7.5 C78.24 11.35, 84.41 17.2, 86.52 23.06 C88.62 28.92, 87.72 36.86, 84.39 42.65 C81.06 48.44, 73.89 54.47, 66.53 57.81 C59.16 61.15, 48.61 62.91, 40.19 62.68 C31.78 62.45, 22.4 60.52, 16.02 56.44 C9.63 52.36, 4.04 44.24, 1.9 38.2 C-0.24 32.16, 0.12 25.63, 3.18 20.21 C6.23 14.79, 12.56 8.99, 20.25 5.69 C27.95 2.39, 44.11 1.09, 49.35 0.41 C54.59 -0.27, 51.66 1.01, 51.68 1.61 M46.77 0.02 C54.93 0.28, 67.37 4.6, 73.68 8.79 C80 12.98, 83.09 19.2, 84.66 25.16 C86.23 31.12, 86.08 38.82, 83.11 44.57 C80.14 50.31, 74.02 56.62, 66.84 59.61 C59.65 62.6, 48.82 63.14, 39.99 62.51 C31.16 61.88, 20.45 59.95, 13.85 55.82 C7.24 51.68, 2.18 43.94, 0.37 37.69 C-1.45 31.44, -0.46 23.75, 2.95 18.34 C6.37 12.93, 13.52 8.31, 20.86 5.23 C28.19 2.15, 42.26 0.72, 46.95 -0.15 C51.64 -1.01, 49.03 -0.73, 49.01 0.05" stroke="#000000" stroke-width="1" fill="none"></path></g><g transform="translate(227.74047606331987 1085.7150131351373) rotate(0 15.616666793823242 12)"><text x="15.616666793823242" y="0" font-family="Virgil, Segoe UI Emoji" font-size="20px" fill="#000000" text-anchor="middle" style="white-space: pre;" direction="ltr" dominant-baseline="text-before-edge">null</text></g><g stroke-linecap="round" transform="translate(10 1074.2150131351373) rotate(0 43 31.5)"><path d="M53.9 1.05 C61.77 1.97, 71.48 5.88, 76.92 10.51 C82.36 15.13, 86.13 22.55, 86.54 28.79 C86.95 35.03, 84.05 42.64, 79.4 47.93 C74.76 53.23, 66.44 58.07, 58.69 60.57 C50.93 63.06, 40.91 64.52, 32.87 62.89 C24.84 61.25, 15.97 55.55, 10.49 50.75 C5.02 45.95, 0.71 39.94, 0.03 34.07 C-0.66 28.21, 1.85 20.85, 6.38 15.56 C10.9 10.27, 18.41 4.47, 27.19 2.33 C35.96 0.18, 52.8 2.2, 59.04 2.71 C65.28 3.22, 64.84 4.83, 64.63 5.36 M46.86 0.87 C54.83 0.88, 62.74 3.7, 69 7.56 C75.26 11.41, 81.84 17.94, 84.41 24.01 C86.98 30.07, 87.32 38.33, 84.4 43.95 C81.49 49.57, 74.38 54.43, 66.93 57.73 C59.47 61.02, 48.32 64.15, 39.67 63.74 C31.02 63.34, 21.53 59.43, 15.03 55.29 C8.52 51.15, 2.78 44.63, 0.66 38.9 C-1.47 33.17, -0.77 26.6, 2.29 20.89 C5.35 15.18, 11.58 8.23, 19.02 4.64 C26.45 1.04, 42.56 -0.22, 46.88 -0.67 C51.2 -1.13, 45.25 1.45, 44.96 1.92" stroke="#000000" stroke-width="1" fill="none"></path></g><g transform="translate(37.38333320617676 1092.7150131351373) rotate(0 15.616666793823242 12)"><text x="15.616666793823242" y="0" font-family="Virgil, Segoe UI Emoji" font-size="20px" fill="#000000" text-anchor="middle" style="white-space: pre;" direction="ltr" dominant-baseline="text-before-edge">null</text></g><g stroke-linecap="round"><g transform="translate(136.2290937259795 926.4658467797399) rotate(0.9900565231191685 -35.486944582519754 73.13855992350636)"><path d="M0.61 1.15 C-4.29 10.52, -17.27 32.14, -29.18 56.21 C-41.08 80.27, -63.7 130.7, -70.84 145.57 M-0.54 0.71 C-5.62 9.69, -18.38 30.36, -30.22 54.19 C-42.06 78.02, -64.55 128.87, -71.58 143.71" stroke="#000000" stroke-width="1" fill="none"></path></g><g transform="translate(136.2290937259795 926.4658467797399) rotate(0.9900565231191685 -35.486944582519754 73.13855992350636)"><path d="M-67.24 113.51 C-69.58 123.32, -69.15 130.77, -70.34 142.19 M-69.4 114.41 C-69.17 123.78, -71.62 132.39, -70.96 143.37" stroke="#000000" stroke-width="1" fill="none"></path></g><g transform="translate(136.2290937259795 926.4658467797399) rotate(0.9900565231191685 -35.486944582519754 73.13855992350636)"><path d="M-48.59 122.06 C-56.79 129.28, -62.23 134.03, -70.34 142.19 M-50.74 122.96 C-56.29 129.64, -64.55 135.59, -70.96 143.37" stroke="#000000" stroke-width="1" fill="none"></path></g></g><mask></mask><g stroke-linecap="round"><g transform="translate(206.35113190274933 939.9559639332583) rotate(0 25.063194595969208 56.06937589442077)"><path d="M1.15 -0.18 C7.39 14.13, 29.32 67.6, 37.43 86.42 C45.54 105.24, 47.79 108.31, 49.83 112.73 M0.3 -1.31 C6.39 13.14, 28.38 68.86, 36.59 87.99 C44.8 107.12, 47.26 109.19, 49.55 113.45" stroke="#000000" stroke-width="1" fill="none"></path></g><g transform="translate(206.35113190274933 939.9559639332583) rotate(0 25.063194595969208 56.06937589442077)"><path d="M37.74 104.3 C41.57 107.91, 43.6 110.53, 48.41 113.63 M38.41 104.7 C41.37 105.85, 43.77 109.3, 49.29 114.17" stroke="#000000" stroke-width="1" fill="none"></path></g><g transform="translate(206.35113190274933 939.9559639332583) rotate(0 25.063194595969208 56.06937589442077)"><path d="M46.5 99.05 C47.72 104.33, 47.1 108.54, 48.41 113.63 M47.17 99.45 C47.9 101.91, 48.09 106.69, 49.29 114.17" stroke="#000000" stroke-width="1" fill="none"></path></g></g><mask></mask><g stroke-linecap="round"><g transform="translate(329.89715710258315 732.6447691830035) rotate(0 39.72641444385977 60.50700697831326)"><path d="M-0.18 0.21 C10.07 16, 48.88 75.66, 62.06 95.92 C75.23 116.18, 76.04 117.54, 78.88 121.75 M-1.73 -0.73 C8.31 15.25, 47.32 74.19, 61.14 94.28 C74.96 114.37, 78.23 115.12, 81.18 119.8" stroke="#000000" stroke-width="1" fill="none"></path></g><g transform="translate(329.89715710258315 732.6447691830035) rotate(0 39.72641444385977 60.50700697831326)"><path d="M67.95 111.65 C73.7 112.99, 78.2 116.15, 81.37 119.06 M68.38 112.08 C70.93 113.83, 75.97 115.99, 81.94 119.78" stroke="#000000" stroke-width="1" fill="none"></path></g><g transform="translate(329.89715710258315 732.6447691830035) rotate(0 39.72641444385977 60.50700697831326)"><path d="M76.4 104.89 C79.25 108.59, 80.8 114.12, 81.37 119.06 M76.82 105.33 C76.92 109.08, 79.51 113.19, 81.94 119.78" stroke="#000000" stroke-width="1" fill="none"></path></g></g><mask></mask><g stroke-linecap="round"><g transform="translate(613.9821428571431 1146.7150131351373) rotate(0 -0.12290245264671285 -0.5326503843070896)"><path d="M0.21 0.06 C0.17 -0.1, 0.83 -0.96, 0.92 -1.12 M-1.15 -0.96 C-1.36 -0.99, 0.2 -0.32, 0.46 -0.18" stroke="#000000" stroke-width="1" fill="none"></path></g><g transform="translate(613.9821428571431 1146.7150131351373) rotate(0 -0.12290245264671285 -0.5326503843070896)"><path d="M0.46 -0.18 C0.46 -0.18, 0.46 -0.18, 0.46 -0.18 M0.46 -0.18 C0.46 -0.18, 0.46 -0.18, 0.46 -0.18" stroke="#000000" stroke-width="1" fill="none"></path></g><g transform="translate(613.9821428571431 1146.7150131351373) rotate(0 -0.12290245264671285 -0.5326503843070896)"><path d="M0.46 -0.18 C0.46 -0.18, 0.46 -0.18, 0.46 -0.18 M0.46 -0.18 C0.46 -0.18, 0.46 -0.18, 0.46 -0.18" stroke="#000000" stroke-width="1" fill="none"></path></g></g><mask></mask><g stroke-linecap="round" transform="translate(526.8482142857142 1061.0721559922804) rotate(0 38.5 33)"><path d="M21.25 3.08 C27.29 0, 37.01 -1.07, 44.54 0.19 C52.07 1.45, 60.97 6.13, 66.41 10.62 C71.86 15.11, 76.15 20.79, 77.19 27.14 C78.24 33.48, 76.3 42.65, 72.69 48.7 C69.08 54.74, 62.26 60.58, 55.53 63.41 C48.81 66.25, 39.75 66.83, 32.34 65.7 C24.92 64.57, 16.23 61.15, 11.02 56.65 C5.82 52.15, 2.22 45.05, 1.13 38.7 C0.03 32.36, -0.11 24.95, 4.45 18.58 C9.01 12.21, 23.24 3.3, 28.5 0.46 C33.75 -2.37, 35.75 1.06, 35.99 1.56 M44.6 1.16 C51.95 1.35, 60.41 4.15, 65.58 8.54 C70.74 12.93, 74.39 21.2, 75.58 27.52 C76.78 33.83, 75.95 40.8, 72.76 46.44 C69.56 52.08, 63.05 58, 56.44 61.37 C49.83 64.75, 40.61 67.44, 33.1 66.68 C25.58 65.92, 16.55 61.51, 11.36 56.82 C6.18 52.14, 3.37 44.64, 1.97 38.55 C0.58 32.46, 0.07 26.19, 3.01 20.28 C5.94 14.37, 12.81 6.23, 19.59 3.08 C26.36 -0.06, 39.58 2, 43.66 1.41 C47.75 0.81, 44.35 -0.78, 44.11 -0.48" stroke="#000000" stroke-width="1" fill="none"></path></g><g transform="translate(545.9412707667948 1081.737632213124) rotate(0 19.183332443237305 12.5)"><text x="19.183332443237305" y="0" font-family="Virgil, Segoe UI Emoji" font-size="20px" fill="#000000" text-anchor="middle" style="white-space: pre;" direction="ltr" dominant-baseline="text-before-edge">0011</text></g><g stroke-linecap="round"><g transform="translate(1114.3571428571431 941.2150131351373) rotate(0 39.654946380336696 60.47672523617348)"><path d="M-0.03 0.15 C10.34 15.87, 48.33 75.19, 61.8 95.46 C75.27 115.73, 77.74 117.38, 80.81 121.77 M-1.5 -0.82 C8.73 15.04, 47.09 73.48, 60.75 93.58 C74.41 113.69, 77.16 115.49, 80.47 119.83" stroke="#000000" stroke-width="1" fill="none"></path></g><g transform="translate(1114.3571428571431 941.2150131351373) rotate(0 39.654946380336696 60.47672523617348)"><path d="M67.02 111.58 C71.14 115.04, 75.18 116.41, 81.5 120.02 M67.25 111.14 C70.15 113.45, 73.31 116.14, 80.95 120.26" stroke="#000000" stroke-width="1" fill="none"></path></g><g transform="translate(1114.3571428571431 941.2150131351373) rotate(0 39.654946380336696 60.47672523617348)"><path d="M75.35 104.68 C77.32 109.97, 79.14 113.18, 81.5 120.02 M75.57 104.23 C76.55 108.21, 77.79 112.48, 80.95 120.26" stroke="#000000" stroke-width="1" fill="none"></path></g></g><mask></mask><g stroke-linecap="round" transform="translate(915.3571428571431 682.2150131351373) rotate(0 34.5 29)"><path d="M41.32 1.19 C47.62 1.62, 55.33 4.36, 59.88 8.55 C64.44 12.74, 67.77 20.72, 68.66 26.33 C69.54 31.94, 68.42 37.39, 65.19 42.19 C61.97 47, 55.46 52.45, 49.29 55.15 C43.11 57.85, 34.72 59.36, 28.15 58.39 C21.57 57.41, 14.54 53.69, 9.85 49.29 C5.16 44.9, 0.86 37.83, 0.03 32.02 C-0.8 26.22, 1.62 19.46, 4.88 14.49 C8.14 9.52, 12.99 4.49, 19.61 2.22 C26.24 -0.04, 39.73 0.85, 44.63 0.9 C49.53 0.95, 49.15 1.83, 49 2.51 M25.91 -0.19 C32.21 -1.88, 41.42 1.2, 47.9 3.28 C54.38 5.35, 61.35 7.68, 64.77 12.26 C68.19 16.84, 69.21 24.83, 68.42 30.75 C67.64 36.66, 64.41 43.29, 60.07 47.74 C55.73 52.19, 48.78 56.18, 42.37 57.44 C35.97 58.69, 27.78 57.35, 21.65 55.26 C15.53 53.17, 9.12 49.81, 5.62 44.88 C2.12 39.94, 0.45 31.2, 0.64 25.65 C0.83 20.09, 2.48 15.61, 6.75 11.54 C11.01 7.48, 23.01 2.9, 26.24 1.26 C29.48 -0.38, 25.86 1.12, 26.15 1.71" stroke="#000000" stroke-width="1" fill="none"></path></g><g stroke-linecap="round"><g transform="translate(919.3571428571431 734.2150131351373) rotate(0 -34.957076135347506 61.715845575328785)"><path d="M-0.2 0.46 C-11.73 21.07, -57.6 103.22, -69.19 123.77 M-1.76 -0.34 C-13.37 19.91, -58.28 101.69, -69.72 122.05" stroke="#000000" stroke-width="1" fill="none"></path></g><g transform="translate(919.3571428571431 734.2150131351373) rotate(0 -34.957076135347506 61.715845575328785)"><path d="M-64.24 93.77 C-65.09 101.64, -66.47 110.31, -71.11 121.87 M-64.76 92.28 C-66.38 104.66, -67.84 115.62, -69.94 121.58" stroke="#000000" stroke-width="1" fill="none"></path></g><g transform="translate(919.3571428571431 734.2150131351373) rotate(0 -34.957076135347506 61.715845575328785)"><path d="M-46.29 103.73 C-52.5 108.6, -59.23 114.3, -71.11 121.87 M-46.82 102.23 C-55.37 110.64, -63.7 117.79, -69.94 121.58" stroke="#000000" stroke-width="1" fill="none"></path></g></g><mask></mask><g stroke-linecap="round" transform="translate(784.3571428571431 863.2150131351373) rotate(0 38.5 34.5)"><path d="M50.77 1.06 C57.68 2.68, 65.25 9.78, 69.71 15.24 C74.17 20.7, 77.53 27.24, 77.54 33.84 C77.54 40.44, 74.26 49.08, 69.74 54.82 C65.22 60.57, 57.55 66.15, 50.42 68.31 C43.29 70.47, 34.2 70.15, 26.96 67.78 C19.72 65.41, 11.38 59.77, 6.98 54.11 C2.57 48.46, 0.5 40.6, 0.53 33.84 C0.57 27.08, 2.83 19, 7.16 13.55 C11.49 8.1, 17.89 2.69, 26.52 1.15 C35.15 -0.38, 52.64 2.72, 58.93 4.34 C65.23 5.95, 64.81 10.32, 64.3 10.84 M54.37 4.04 C61.35 6.13, 69.05 10.07, 72.71 15.65 C76.37 21.24, 77.37 30.6, 76.32 37.57 C75.28 44.54, 71.45 52.34, 66.45 57.49 C61.45 62.64, 53.53 67.15, 46.32 68.49 C39.11 69.82, 29.96 68.16, 23.19 65.49 C16.42 62.83, 9.43 58.43, 5.68 52.49 C1.94 46.54, 0.29 36.44, 0.74 29.83 C1.19 23.21, 3.44 17.56, 8.37 12.79 C13.29 8.03, 22.74 2.81, 30.3 1.21 C37.85 -0.4, 49.67 2.6, 53.72 3.17 C57.77 3.74, 54.79 4.31, 54.58 4.61" stroke="#000000" stroke-width="1" fill="none"></path></g><g stroke-linecap="round" transform="translate(1043.3571428571431 865.2150131351373) rotate(0 38.5 33)"><path d="M41.63 0.07 C48.84 0.31, 59.34 4.54, 64.94 8.9 C70.54 13.26, 73.78 19.94, 75.22 26.22 C76.66 32.49, 76.33 40.55, 73.61 46.53 C70.88 52.52, 65.25 58.92, 58.85 62.1 C52.45 65.28, 42.95 66.27, 35.21 65.61 C27.47 64.96, 18.2 62.49, 12.41 58.17 C6.62 53.85, 2.07 46.14, 0.46 39.68 C-1.14 33.22, -0.26 25.16, 2.77 19.4 C5.79 13.64, 10.63 8.08, 18.61 5.13 C26.6 2.17, 43.8 1.62, 50.68 1.66 C57.56 1.71, 60.08 4.7, 59.9 5.39 M36.34 1.13 C43.38 -0.01, 50.76 1.21, 56.98 4.24 C63.2 7.26, 70.48 13.33, 73.66 19.29 C76.85 25.25, 77.7 33.54, 76.09 40 C74.49 46.45, 69.84 53.64, 64.02 58.02 C58.21 62.4, 48.67 65.63, 41.2 66.27 C33.72 66.9, 25.74 65.45, 19.16 61.83 C12.59 58.2, 4.56 50.56, 1.73 44.53 C-1.1 38.49, 0.2 31.72, 2.19 25.62 C4.18 19.51, 8.12 11.97, 13.67 7.89 C19.22 3.8, 31.69 2.27, 35.47 1.1 C39.25 -0.07, 36.51 0.58, 36.35 0.87" stroke="#000000" stroke-width="1" fill="none"></path></g><g stroke-linecap="round"><g transform="translate(1060.4959711111078 942.2829343511403) rotate(0.9900565231191685 -32.67313321552683 62.66745088818607)"><path d="M0.77 0.24 C-4.01 9.46, -17.07 35.39, -28.22 56.15 C-39.36 76.9, -60.11 113.19, -66.12 124.76 M-0.28 -0.68 C-5.19 8.69, -18.19 36.64, -28.75 57.76 C-39.31 78.88, -57.87 115.09, -63.66 126.02" stroke="#000000" stroke-width="1" fill="none"></path></g><g transform="translate(1060.4959711111078 942.2829343511403) rotate(0.9900565231191685 -32.67313321552683 62.66745088818607)"><path d="M-59.36 97.58 C-60.63 104.97, -62.38 118.1, -62.58 124.22 M-58.83 96.88 C-60.53 105.71, -62.81 116.12, -64.08 125.67" stroke="#000000" stroke-width="1" fill="none"></path></g><g transform="translate(1060.4959711111078 942.2829343511403) rotate(0.9900565231191685 -32.67313321552683 62.66745088818607)"><path d="M-41.15 107.05 C-48.66 111.35, -56.57 121.27, -62.58 124.22 M-40.62 106.35 C-48.21 112.16, -56.41 119.49, -64.08 125.67" stroke="#000000" stroke-width="1" fill="none"></path></g></g><mask></mask><g stroke-linecap="round" transform="translate(955.9285714285725 1063.2150131351373) rotate(0 33.5 30.5)"><path d="M36.37 0.6 C42.58 0.59, 49 3.45, 53.9 7.2 C58.81 10.96, 63.84 17.28, 65.78 23.12 C67.73 28.97, 67.89 36.8, 65.6 42.28 C63.31 47.76, 57.82 52.8, 52.05 56 C46.28 59.19, 37.7 61.86, 30.99 61.48 C24.28 61.09, 16.84 57.64, 11.78 53.69 C6.71 49.75, 2.24 43.44, 0.59 37.81 C-1.06 32.19, -0.52 25.49, 1.86 19.95 C4.25 14.41, 8.04 7.81, 14.91 4.58 C21.78 1.35, 37.58 0.56, 43.07 0.57 C48.57 0.57, 48.17 4.17, 47.86 4.63 M37.21 -0.14 C43.2 0.01, 51.89 3.78, 56.79 7.99 C61.7 12.21, 65.5 19.09, 66.65 25.14 C67.8 31.2, 66.78 38.85, 63.71 44.32 C60.64 49.8, 54.01 55.19, 48.21 58 C42.42 60.82, 35.53 62.4, 28.93 61.2 C22.33 60.01, 13.15 55.11, 8.6 50.82 C4.05 46.54, 2.4 41.18, 1.63 35.47 C0.86 29.76, 1.18 21.77, 3.99 16.58 C6.79 11.4, 12.5 7.06, 18.45 4.37 C24.4 1.68, 36.53 1.1, 39.7 0.44 C42.87 -0.22, 37.64 0.16, 37.46 0.41" stroke="#000000" stroke-width="1" fill="none"></path></g><g transform="translate(973.8119046347492 1081.4650131351373) rotate(0 15.616666793823242 12)"><text x="15.616666793823242" y="0" font-family="Virgil, Segoe UI Emoji" font-size="20px" fill="#000000" text-anchor="middle" style="white-space: pre;" direction="ltr" dominant-baseline="text-before-edge">null</text></g><g stroke-linecap="round" transform="translate(858.1428571428573 1062.2150131351373) rotate(0 43.49999999999977 31.5)"><path d="M40.64 0.28 C48.54 -0.46, 59.89 2.01, 67.31 5.47 C74.72 8.93, 82.04 15.34, 85.15 21.03 C88.26 26.73, 88.48 33.71, 85.98 39.65 C83.48 45.58, 76.98 52.83, 70.16 56.65 C63.34 60.48, 53.56 62.49, 45.05 62.62 C36.53 62.76, 26.19 60.7, 19.07 57.46 C11.95 54.23, 5.33 48.95, 2.31 43.2 C-0.7 37.44, -1.5 29.06, 0.98 22.93 C3.47 16.79, 10.08 10.07, 17.21 6.39 C24.35 2.71, 38.9 1.89, 43.81 0.83 C48.71 -0.23, 46.53 -0.49, 46.64 0.02 M57.48 0.9 C65.57 2.43, 74.32 7.83, 79.29 13.05 C84.26 18.27, 87.58 25.92, 87.28 32.23 C86.99 38.54, 82.65 45.92, 77.55 50.91 C72.44 55.91, 64.9 60.71, 56.63 62.21 C48.36 63.71, 35.85 62.03, 27.91 59.92 C19.97 57.81, 13.58 54.44, 8.99 49.57 C4.41 44.69, 0.39 36.69, 0.41 30.68 C0.43 24.66, 3.85 18.33, 9.12 13.45 C14.38 8.58, 24.06 3.48, 32 1.44 C39.93 -0.6, 52.41 1.28, 56.74 1.19 C61.08 1.1, 58.33 0.23, 58.03 0.89" stroke="#000000" stroke-width="1" fill="none"></path></g><g transform="translate(886.0261903490341 1080.7150131351373) rotate(0 15.616666793823242 12)"><text x="15.616666793823242" y="0" font-family="Virgil, Segoe UI Emoji" font-size="20px" fill="#000000" text-anchor="middle" style="white-space: pre;" direction="ltr" dominant-baseline="text-before-edge">null</text></g><g stroke-linecap="round" transform="translate(671.5714285714289 1065.3578702779942) rotate(0 43 31.5)"><path d="M54.31 1.41 C62.48 2.62, 72.19 7.74, 77.56 12.48 C82.92 17.22, 86.36 23.72, 86.5 29.88 C86.64 36.03, 83.21 44.27, 78.4 49.4 C73.6 54.53, 65.56 58.63, 57.67 60.65 C49.78 62.67, 39.19 63.01, 31.07 61.53 C22.94 60.05, 14.17 56.55, 8.91 51.75 C3.64 46.94, -0.38 39.05, -0.54 32.7 C-0.69 26.35, 3.29 18.63, 7.97 13.65 C12.64 8.67, 18.48 4.66, 27.5 2.83 C36.53 1, 55.19 1.81, 62.14 2.66 C69.09 3.51, 69.38 7.49, 69.2 7.92 M36.05 -0.03 C43.95 -1.25, 55.12 0.52, 62.54 3.43 C69.95 6.33, 76.63 11.83, 80.55 17.38 C84.47 22.94, 87.42 30.94, 86.04 36.76 C84.67 42.57, 78.11 47.96, 72.31 52.27 C66.51 56.59, 59.26 61.44, 51.23 62.65 C43.21 63.85, 31.85 62.09, 24.16 59.48 C16.47 56.87, 8.88 52.42, 5.12 46.99 C1.35 41.55, 0.54 33.25, 1.58 26.89 C2.62 20.53, 5.52 13.49, 11.34 8.84 C17.16 4.19, 32.61 0.2, 36.51 -1.02 C40.4 -2.24, 34.89 0.72, 34.7 1.49" stroke="#000000" stroke-width="1" fill="none"></path></g><g transform="translate(698.9547617776057 1083.8578702779942) rotate(0 15.616666793823242 12)"><text x="15.616666793823242" y="0" font-family="Virgil, Segoe UI Emoji" font-size="20px" fill="#000000" text-anchor="middle" style="white-space: pre;" direction="ltr" dominant-baseline="text-before-edge">null</text></g><g stroke-linecap="round"><g transform="translate(790.8556696034816 935.4101997783055) rotate(0.9900565231191685 -30.316643719482954 60.83987837407767)"><path d="M0.65 -1.08 C-4.12 8.06, -18.48 35.19, -28.71 55.82 C-38.93 76.46, -55.42 111.68, -60.68 122.76 M-0.47 0.97 C-5.36 10.21, -19.36 37.27, -29.5 57.27 C-39.63 77.27, -56.26 110.53, -61.28 121" stroke="#000000" stroke-width="1" fill="none"></path></g><g transform="translate(790.8556696034816 935.4101997783055) rotate(0.9900565231191685 -30.316643719482954 60.83987837407767)"><path d="M-59.86 91.66 C-59.05 100.4, -57.84 109.76, -60.2 120.55 M-58.42 90.69 C-59.05 98.22, -58.91 105.64, -61.48 121.84" stroke="#000000" stroke-width="1" fill="none"></path></g><g transform="translate(790.8556696034816 935.4101997783055) rotate(0.9900565231191685 -30.316643719482954 60.83987837407767)"><path d="M-41.44 100.7 C-46.06 106.91, -50.21 113.64, -60.2 120.55 M-40 99.73 C-45.33 104.9, -49.84 110.04, -61.48 121.84" stroke="#000000" stroke-width="1" fill="none"></path></g></g><mask></mask><g stroke-linecap="round"><g transform="translate(850.3511319027493 944.9559639332583) rotate(0 24.473359541015498 56.99198080538099)"><path d="M-1.08 0.29 C4.93 14.63, 28.53 67.64, 37.05 86.69 C45.57 105.73, 47.94 110.1, 50.02 114.58 M0.56 -0.6 C6.31 13.31, 27.8 65.86, 36.01 84.73 C44.22 103.6, 47.48 107.65, 49.84 112.62" stroke="#000000" stroke-width="1" fill="none"></path></g><g transform="translate(850.3511319027493 944.9559639332583) rotate(0 24.473359541015498 56.99198080538099)"><path d="M39.11 102.42 C43.45 107.95, 48.21 111.19, 49.51 111.91 M38.38 102.39 C42.27 106.66, 46.11 109.58, 50.47 112.26" stroke="#000000" stroke-width="1" fill="none"></path></g><g transform="translate(850.3511319027493 944.9559639332583) rotate(0 24.473359541015498 56.99198080538099)"><path d="M48.12 97.62 C49.04 104.9, 50.34 109.99, 49.51 111.91 M47.4 97.59 C48.08 103.53, 48.73 108.14, 50.47 112.26" stroke="#000000" stroke-width="1" fill="none"></path></g></g><mask></mask><g stroke-linecap="round"><g transform="translate(973.8971571025832 737.6447691830035) rotate(0 39.86061191983981 60.16798259019379)"><path d="M0.29 -0.18 C10.57 16.02, 48.92 75.81, 62.32 96.11 C75.73 116.42, 77.83 117.6, 80.73 121.65 M-1.01 -1.31 C9.08 14.67, 47.98 74.42, 61.54 94.58 C75.1 114.74, 77.3 115.2, 80.35 119.65" stroke="#000000" stroke-width="1" fill="none"></path></g><g transform="translate(973.8971571025832 737.6447691830035) rotate(0 39.86061191983981 60.16798259019379)"><path d="M66.63 111.83 C73.03 115.25, 77.19 116.85, 79.6 120.49 M66.6 111.04 C70.8 113.14, 73.63 116.39, 79.96 119.33" stroke="#000000" stroke-width="1" fill="none"></path></g><g transform="translate(973.8971571025832 737.6447691830035) rotate(0 39.86061191983981 60.16798259019379)"><path d="M75.08 105.08 C78.43 110.92, 79.6 114.9, 79.6 120.49 M75.05 104.29 C77.05 108.09, 77.7 113.08, 79.96 119.33" stroke="#000000" stroke-width="1" fill="none"></path></g></g><mask></mask><g stroke-linecap="round"><g transform="translate(1300.8392857142862 1131.715013135139) rotate(0 -0.30648590310920554 -0.16764264676658058)"><path d="M-0.18 0.32 C0.19 0.4, 0.98 0.83, 1.11 0.73 M-1.73 -0.55 C-1.33 -0.85, 0.42 -1.25, 0.75 -1.01" stroke="#000000" stroke-width="1" fill="none"></path></g><g transform="translate(1300.8392857142862 1131.715013135139) rotate(0 -0.30648590310920554 -0.16764264676658058)"><path d="M0.75 -1.01 C0.75 -1.01, 0.75 -1.01, 0.75 -1.01 M0.75 -1.01 C0.75 -1.01, 0.75 -1.01, 0.75 -1.01" stroke="#000000" stroke-width="1" fill="none"></path></g><g transform="translate(1300.8392857142862 1131.715013135139) rotate(0 -0.30648590310920554 -0.16764264676658058)"><path d="M0.75 -1.01 C0.75 -1.01, 0.75 -1.01, 0.75 -1.01 M0.75 -1.01 C0.75 -1.01, 0.75 -1.01, 0.75 -1.01" stroke="#000000" stroke-width="1" fill="none"></path></g></g><mask></mask><g stroke-linecap="round" transform="translate(1167.9910714285725 1061.7864417065666) rotate(0 38.5 33)"><path d="M49.58 2.06 C56.42 3.46, 64.53 7.96, 69.02 13.01 C73.51 18.06, 76.46 25.74, 76.52 32.37 C76.58 38.99, 73.78 47.48, 69.39 52.77 C64.99 58.06, 57.09 62.22, 50.15 64.09 C43.22 65.96, 34.95 65.76, 27.79 63.99 C20.62 62.22, 11.82 58.7, 7.16 53.47 C2.5 48.23, -0.22 39.08, -0.17 32.61 C-0.12 26.13, 2.93 19.93, 7.45 14.62 C11.97 9.32, 18.5 2.47, 26.93 0.79 C35.37 -0.89, 51.79 3, 58.05 4.54 C64.3 6.09, 64.8 9.53, 64.47 10.07 M40.25 0.57 C47.32 0.04, 54.73 1.71, 60.8 5.6 C66.87 9.48, 74.29 17.48, 76.67 23.88 C79.06 30.28, 77.83 37.77, 75.12 44.01 C72.41 50.24, 66.54 57.61, 60.41 61.28 C54.29 64.96, 46.13 66.53, 38.37 66.07 C30.61 65.61, 19.91 62.74, 13.86 58.51 C7.81 54.29, 4.23 46.79, 2.06 40.75 C-0.1 34.7, -1.37 28.08, 0.88 22.25 C3.13 16.43, 8.96 9.54, 15.55 5.79 C22.15 2.04, 36.64 0.56, 40.44 -0.23 C44.24 -1.01, 38.31 0.64, 38.35 1.06" stroke="#000000" stroke-width="1" fill="none"></path></g><g transform="translate(1190.650793559067 1082.4519179274102) rotate(0 15.616666793823242 12.5)"><text x="15.616666793823242" y="0" font-family="Virgil, Segoe UI Emoji" font-size="20px" fill="#000000" text-anchor="middle" style="white-space: pre;" direction="ltr" dominant-baseline="text-before-edge">null</text></g><g stroke-linecap="round" transform="translate(577.670079043437 414.07442309176986) rotate(0 49.5 35)"><path d="M31.7 1.4 C39.44 -1.05, 50.84 -0.68, 59.74 0.75 C68.64 2.19, 78.68 5.52, 85.09 10 C91.5 14.49, 96.29 21.43, 98.19 27.65 C100.09 33.87, 99.6 41.31, 96.51 47.33 C93.42 53.35, 86.92 60.15, 79.65 63.77 C72.38 67.39, 61.95 68.6, 52.89 69.05 C43.82 69.49, 32.96 69.39, 25.27 66.43 C17.57 63.48, 10.75 56.88, 6.7 51.32 C2.66 45.76, 0.52 39.32, 0.99 33.08 C1.46 26.85, 3.99 18.98, 9.54 13.91 C15.09 8.84, 29.92 4.52, 34.27 2.66 C38.62 0.8, 35.49 2.32, 35.66 2.75 M45.36 1.01 C53.43 0.17, 62.57 1.74, 70.54 4.23 C78.51 6.73, 88.64 10.77, 93.2 15.98 C97.76 21.18, 98.34 28.73, 97.89 35.47 C97.44 42.21, 95.25 50.91, 90.49 56.43 C85.72 61.94, 77.79 66.61, 69.29 68.57 C60.79 70.52, 48.64 69.28, 39.48 68.16 C30.32 67.03, 20.78 66.11, 14.33 61.84 C7.88 57.56, 2.62 48.81, 0.76 42.51 C-1.09 36.2, 0.08 29.58, 3.21 24.01 C6.35 18.44, 12.67 13.25, 19.59 9.08 C26.51 4.9, 40.49 0.37, 44.74 -1.05 C48.99 -2.47, 45.05 -0.45, 45.1 0.56" stroke="#000000" stroke-width="1" fill="none"></path></g><g stroke-linecap="round"><g transform="translate(591.670079043437 475.07442309176986) rotate(0 -131.7506100088358 103.50426348745805)"><path d="M0.53 -0.84 C-43.59 33.94, -220.08 173.25, -264.03 207.85 M-0.66 1.33 C-44.46 35.85, -217.96 171.74, -261.86 206.18" stroke="#000000" stroke-width="1" fill="none"></path></g><g transform="translate(591.670079043437 475.07442309176986) rotate(0 -131.7506100088358 103.50426348745805)"><path d="M-247.41 179 C-250.38 189.54, -257.82 198.46, -261.95 206.06 M-246.04 181.26 C-250.1 187.92, -255.7 196.05, -260.88 206.23" stroke="#000000" stroke-width="1" fill="none"></path></g><g transform="translate(591.670079043437 475.07442309176986) rotate(0 -131.7506100088358 103.50426348745805)"><path d="M-234.75 195.15 C-242.1 200.01, -254.03 203.21, -261.95 206.06 M-233.38 197.41 C-241.24 199.38, -250.52 202.82, -260.88 206.23" stroke="#000000" stroke-width="1" fill="none"></path></g></g><mask></mask><g stroke-linecap="round"><g transform="translate(676.670079043437 464.07442309176986) rotate(0 123.03675504624835 109.98773777677707)"><path d="M-0.44 -0.18 C40.84 36.42, 205.1 183.51, 246.51 220.18 M1.53 -1.32 C42.71 35.37, 204.27 184.31, 245.31 221.29" stroke="#000000" stroke-width="1" fill="none"></path></g><g transform="translate(676.670079043437 464.07442309176986) rotate(0 123.03675504624835 109.98773777677707)"><path d="M217.27 209.06 C221.92 214, 227.02 214.82, 244.38 222.31 M218.27 209.61 C224.88 213.88, 233.58 215.92, 245.47 220.99" stroke="#000000" stroke-width="1" fill="none"></path></g><g transform="translate(676.670079043437 464.07442309176986) rotate(0 123.03675504624835 109.98773777677707)"><path d="M231.1 193.9 C233 201.89, 235.28 205.79, 244.38 222.31 M232.1 194.45 C234.55 203.25, 239.16 209.77, 245.47 220.99" stroke="#000000" stroke-width="1" fill="none"></path></g></g><mask></mask><g stroke-linecap="round" transform="translate(1234.2134404054004 10) rotate(0 49.5 35)"><path d="M52.24 -0.72 C60.78 -1.1, 71.67 2.67, 78.95 6.54 C86.22 10.41, 92.76 16.74, 95.89 22.48 C99.03 28.22, 99.59 34.94, 97.74 40.99 C95.88 47.03, 90.9 54, 84.77 58.75 C78.63 63.49, 69.34 67.94, 60.92 69.45 C52.51 70.97, 42.71 69.93, 34.3 67.84 C25.89 65.76, 16.28 61.87, 10.45 56.93 C4.62 52, 0.27 44.58, -0.68 38.21 C-1.64 31.84, 0.44 24.17, 4.72 18.71 C9 13.25, 16.28 8.55, 25.01 5.46 C33.73 2.37, 50.89 0.8, 57.06 0.15 C63.22 -0.51, 62.05 1.01, 62.02 1.53 M52.99 -0.66 C61.7 -0.7, 72.59 3.74, 79.8 7.75 C87.01 11.75, 93.16 17.23, 96.25 23.36 C99.35 29.49, 100.47 38.27, 98.39 44.54 C96.3 50.82, 90.49 56.69, 83.74 61 C77 65.3, 66.79 69.27, 57.91 70.38 C49.02 71.49, 38.46 70.28, 30.45 67.66 C22.45 65.03, 14.76 59.84, 9.86 54.64 C4.96 49.44, 1.6 42.73, 1.07 36.43 C0.53 30.14, 2.44 22.06, 6.63 16.84 C10.81 11.62, 18.21 7.64, 26.17 5.1 C34.14 2.56, 49.69 2.19, 54.43 1.59 C59.16 0.99, 54.5 1.09, 54.58 1.51" stroke="#000000" stroke-width="1" fill="none"></path></g><g stroke-linecap="round"><g transform="translate(1246.7793017089407 69.93583757408669) rotate(0 -285.97470667488324 173.12826980756927)"><path d="M-0.25 0.1 C-95.83 57.84, -477.77 289.66, -573.29 347.15 M1.82 -0.89 C-93.85 56.48, -477.84 287.85, -573.77 345.65" stroke="#000000" stroke-width="1" fill="none"></path></g><g transform="translate(1246.7793017089407 69.93583757408669) rotate(0 -285.97470667488324 173.12826980756927)"><path d="M-554.75 323.82 C-558.71 330.96, -568.11 338.87, -573.42 346.75 M-555.68 322.06 C-562.48 331.31, -568.17 339.1, -574.09 345.79" stroke="#000000" stroke-width="1" fill="none"></path></g><g transform="translate(1246.7793017089407 69.93583757408669) rotate(0 -285.97470667488324 173.12826980756927)"><path d="M-544.16 341.4 C-551.55 343, -564.27 345.4, -573.42 346.75 M-545.09 339.64 C-555.71 342.37, -565.3 343.7, -574.09 345.79" stroke="#000000" stroke-width="1" fill="none"></path></g></g><mask></mask><g stroke-linecap="round"><g transform="translate(1333.0748924406862 64.74462609680631) rotate(0 290.226482871009 182.72967400235302)"><path d="M0.1 0.91 C96.94 61.8, 485.16 304.36, 581.76 365.12 M-1.31 0.34 C95.42 60.92, 484.2 302.86, 581.44 363.43" stroke="#000000" stroke-width="1" fill="none"></path></g><g transform="translate(1333.0748924406862 64.74462609680631) rotate(0 290.226482871009 182.72967400235302)"><path d="M553.59 359.22 C563.96 357.94, 575.07 362, 582.54 364.79 M551.83 356.71 C560.11 359.77, 566.89 360.33, 581.57 362.49" stroke="#000000" stroke-width="1" fill="none"></path></g><g transform="translate(1333.0748924406862 64.74462609680631) rotate(0 290.226482871009 182.72967400235302)"><path d="M564.44 341.8 C570.88 346.77, 578.1 357.08, 582.54 364.79 M562.67 339.29 C568.09 346.76, 572.07 351.81, 581.57 362.49" stroke="#000000" stroke-width="1" fill="none"></path></g></g><mask></mask><g transform="translate(923.931983805333 203.32442309177532) rotate(0 6.883333206176758 12.5)"><text x="0" y="0" font-family="Virgil, Segoe UI Emoji" font-size="20px" fill="#000000" text-anchor="start" style="white-space: pre;" direction="ltr" dominant-baseline="text-before-edge">0</text></g><g transform="translate(1592.5034123767628 176.1815659489166) rotate(0 2.7083332538604736 12.5)"><text x="0" y="0" font-family="Virgil, Segoe UI Emoji" font-size="20px" fill="#000000" text-anchor="start" style="white-space: pre;" direction="ltr" dominant-baseline="text-before-edge">1</text></g><g transform="translate(425.36055523390496 559.0387088060615) rotate(0 6.883333206176758 12.5)"><text x="0" y="0" font-family="Virgil, Segoe UI Emoji" font-size="20px" fill="#000000" text-anchor="start" style="white-space: pre;" direction="ltr" dominant-baseline="text-before-edge">0</text></g><g transform="translate(832.5034123767618 566.1815659489184) rotate(0 2.7083332538604736 12.5)"><text x="0" y="0" font-family="Virgil, Segoe UI Emoji" font-size="20px" fill="#000000" text-anchor="start" style="white-space: pre;" direction="ltr" dominant-baseline="text-before-edge">1</text></g><g stroke-linecap="round"><g transform="translate(274.60334565496623 733.0371489450154) rotate(0 -34.74877290525478 61.33993017040211)"><path d="M-0.65 -0.74 C-12.42 19.92, -59.29 102.92, -70.71 123.42 M1.21 1.49 C-10.17 21.83, -56.59 101.24, -68.37 121.52" stroke="#000000" stroke-width="1" fill="none"></path></g><g transform="translate(274.60334565496623 733.0371489450154) rotate(0 -34.74877290525478 61.33993017040211)"><path d="M-64.28 90.81 C-64.05 102.07, -67.58 110.31, -66.44 119.97 M-62.64 91.35 C-65.56 102.74, -65.99 113.04, -67.83 121.3" stroke="#000000" stroke-width="1" fill="none"></path></g><g transform="translate(274.60334565496623 733.0371489450154) rotate(0 -34.74877290525478 61.33993017040211)"><path d="M-46.55 101.14 C-51.49 109.26, -60.24 114.46, -66.44 119.97 M-44.9 101.68 C-54.28 109.54, -61.05 116.14, -67.83 121.3" stroke="#000000" stroke-width="1" fill="none"></path></g></g><mask></mask><g transform="translate(202.50341237676184 766.1815659489184) rotate(0 6.883333206176758 12.5)"><text x="0" y="0" font-family="Virgil, Segoe UI Emoji" font-size="20px" fill="#000000" text-anchor="start" style="white-space: pre;" direction="ltr" dominant-baseline="text-before-edge">0</text></g><g transform="translate(72.50313121187946 959.0712507062017) rotate(0.9900565231191685 6.883333206176758 12.5)"><text x="0" y="0" font-family="Virgil, Segoe UI Emoji" font-size="20px" fill="#000000" text-anchor="start" style="white-space: pre;" direction="ltr" dominant-baseline="text-before-edge">0</text></g><g transform="translate(253.9319838053334 976.1815659489184) rotate(0 2.7083332538604736 12.5)"><text x="0" y="0" font-family="Virgil, Segoe UI Emoji" font-size="20px" fill="#000000" text-anchor="start" style="white-space: pre;" direction="ltr" dominant-baseline="text-before-edge">1</text></g><g transform="translate(365.3602740690226 967.6426792776292) rotate(0.9900565231191685 6.883333206176758 12.5)"><text x="0" y="0" font-family="Virgil, Segoe UI Emoji" font-size="20px" fill="#000000" text-anchor="start" style="white-space: pre;" direction="ltr" dominant-baseline="text-before-edge">0</text></g><g transform="translate(523.9319838053334 979.0387088060615) rotate(0 2.7083332538604736 12.5)"><text x="0" y="0" font-family="Virgil, Segoe UI Emoji" font-size="20px" fill="#000000" text-anchor="start" style="white-space: pre;" direction="ltr" dominant-baseline="text-before-edge">1</text></g><g transform="translate(721.0748409481903 981.8958516632047) rotate(0 6.883333206176758 12.5)"><text x="0" y="0" font-family="Virgil, Segoe UI Emoji" font-size="20px" fill="#000000" text-anchor="start" style="white-space: pre;" direction="ltr" dominant-baseline="text-before-edge">0</text></g><g transform="translate(901.0748409481903 980.4672802346322) rotate(0 2.7083332538604736 12.5)"><text x="0" y="0" font-family="Virgil, Segoe UI Emoji" font-size="20px" fill="#000000" text-anchor="start" style="white-space: pre;" direction="ltr" dominant-baseline="text-before-edge">1</text></g><g transform="translate(992.5034123767618 977.6101373774891) rotate(0 6.883333206176758 12.5)"><text x="0" y="0" font-family="Virgil, Segoe UI Emoji" font-size="20px" fill="#000000" text-anchor="start" style="white-space: pre;" direction="ltr" dominant-baseline="text-before-edge">0</text></g><g transform="translate(1162.5034123767618 973.3244230917753) rotate(0 2.7083332538604736 12.5)"><text x="0" y="0" font-family="Virgil, Segoe UI Emoji" font-size="20px" fill="#000000" text-anchor="start" style="white-space: pre;" direction="ltr" dominant-baseline="text-before-edge">1</text></g><g transform="translate(856.7891266624765 770.4672802346322) rotate(0 6.883333206176758 12.5)"><text x="0" y="0" font-family="Virgil, Segoe UI Emoji" font-size="20px" fill="#000000" text-anchor="start" style="white-space: pre;" direction="ltr" dominant-baseline="text-before-edge">0</text></g><g transform="translate(1041.0748409481903 776.1815659489184) rotate(0 2.7083332538604736 12.5)"><text x="0" y="0" font-family="Virgil, Segoe UI Emoji" font-size="20px" fill="#000000" text-anchor="start" style="white-space: pre;" direction="ltr" dominant-baseline="text-before-edge">1</text></g><g stroke-linecap="round" transform="translate(1605.0270550131709 671.557275196421) rotate(0 34.5 29)"><path d="M35.11 -0.82 C41.54 -1.12, 50.77 2.4, 56.22 6.22 C61.67 10.03, 66.18 16.44, 67.81 22.06 C69.44 27.68, 68.24 34.89, 65.99 39.92 C63.75 44.96, 59.83 49.33, 54.33 52.25 C48.84 55.18, 39.86 57.64, 33.04 57.47 C26.21 57.29, 18.54 54.59, 13.37 51.2 C8.21 47.81, 3.84 42.45, 2.04 37.14 C0.24 31.82, 0.41 24.82, 2.56 19.3 C4.72 13.78, 8.41 7.05, 14.95 4 C21.48 0.94, 36.6 1.16, 41.78 0.97 C46.96 0.78, 46.03 2.3, 46.03 2.87 M38.37 0.33 C44.72 0.86, 52.67 4.05, 57.68 7.93 C62.69 11.81, 67.32 18.18, 68.41 23.62 C69.49 29.07, 66.93 35.55, 64.19 40.6 C61.44 45.66, 57.53 51.1, 51.95 53.95 C46.37 56.8, 37.85 58.57, 30.72 57.71 C23.6 56.85, 14.33 52.76, 9.2 48.81 C4.07 44.86, 0.92 39.51, -0.08 34.01 C-1.08 28.51, 0.2 21.04, 3.19 15.81 C6.19 10.57, 11.66 5.38, 17.89 2.6 C24.13 -0.17, 36.95 -0.56, 40.6 -0.84 C44.24 -1.11, 40 0.43, 39.74 0.95" stroke="#000000" stroke-width="1" fill="none"></path></g><g stroke-linecap="round" transform="translate(1474.0270550131709 852.557275196421) rotate(0 38.5 34.5)"><path d="M52.64 2.28 C59.66 4.44, 66.98 10.81, 70.88 16.63 C74.78 22.45, 76.37 30.73, 76.07 37.18 C75.77 43.63, 73.71 50.32, 69.09 55.34 C64.48 60.36, 55.73 65.51, 48.37 67.31 C41.01 69.11, 31.85 68.42, 24.95 66.13 C18.05 63.84, 11.04 59.08, 6.96 53.57 C2.89 48.05, 0.28 39.99, 0.49 33.05 C0.69 26.1, 3.47 17.16, 8.19 11.91 C12.9 6.66, 20.58 2.68, 28.76 1.55 C36.95 0.41, 51.46 3.78, 57.28 5.11 C63.1 6.43, 63.83 9.11, 63.67 9.5 M22.52 2.6 C29.04 -0.43, 39.66 -0.83, 46.93 0.51 C54.19 1.86, 60.92 5.62, 66.12 10.65 C71.31 15.68, 77 23.78, 78.08 30.69 C79.16 37.6, 76.89 46.39, 72.6 52.13 C68.31 57.87, 59.56 62.47, 52.36 65.14 C45.16 67.8, 36.58 69.51, 29.4 68.11 C22.22 66.72, 14.2 61.97, 9.26 56.76 C4.32 51.55, 0.18 43.7, -0.24 36.87 C-0.67 30.03, 2.7 21.41, 6.71 15.75 C10.73 10.08, 20.99 5.09, 23.84 2.9 C26.7 0.7, 23.89 2.13, 23.85 2.55" stroke="#000000" stroke-width="1" fill="none"></path></g><g stroke-linecap="round" transform="translate(1733.0270550131709 854.557275196421) rotate(0 38.5 33)"><path d="M22.89 3.81 C29.01 1.05, 38.09 0.57, 45.57 1.61 C53.04 2.64, 62.54 5.46, 67.73 10.02 C72.91 14.59, 75.93 22.51, 76.66 28.99 C77.39 35.46, 75.71 43.14, 72.1 48.87 C68.48 54.6, 61.81 60.59, 54.95 63.38 C48.1 66.17, 38.56 67.14, 30.99 65.62 C23.42 64.09, 14.64 59.02, 9.55 54.22 C4.47 49.43, 1.33 43.09, 0.47 36.87 C-0.39 30.64, 0.14 22.54, 4.4 16.9 C8.67 11.25, 22.15 5.52, 26.09 3 C30.02 0.47, 28.08 1.51, 28.01 1.76 M39.09 -0.33 C46.18 -0.82, 54.09 1.7, 60.33 5.54 C66.58 9.37, 73.96 16.33, 76.56 22.69 C79.16 29.06, 78.8 37.68, 75.92 43.72 C73.04 49.77, 65.7 55.26, 59.25 58.97 C52.8 62.67, 44.6 65.98, 37.23 65.96 C29.87 65.94, 21.04 62.89, 15.05 58.87 C9.05 54.86, 3.22 48.15, 1.28 41.86 C-0.66 35.58, 0.79 27.12, 3.4 21.15 C6.01 15.18, 10.95 9.74, 16.95 6.07 C22.95 2.4, 35.91 0.11, 39.4 -0.88 C42.9 -1.86, 37.86 -0.38, 37.93 0.16" stroke="#000000" stroke-width="1" fill="none"></path></g><g stroke-linecap="round"><g transform="translate(1750.1658832671355 931.625196412424) rotate(0.9900565231191685 -31.830725006623652 62.10393117023705)"><path d="M-1.01 0.45 C-5.99 9.95, -18.48 35.57, -29 56.13 C-39.53 76.69, -58.28 112.22, -64.15 123.81 M0.66 -0.37 C-4.55 9.43, -19.12 36.91, -29.95 57.73 C-40.78 78.55, -58.14 113.61, -64.32 124.57" stroke="#000000" stroke-width="1" fill="none"></path></g><g transform="translate(1750.1658832671355 931.625196412424) rotate(0.9900565231191685 -31.830725006623652 62.10393117023705)"><path d="M-59.48 94.85 C-61.76 107.79, -65.26 118.79, -63.01 122.86 M-60.81 95.59 C-61.3 103.86, -62.41 111.6, -65.22 124.83" stroke="#000000" stroke-width="1" fill="none"></path></g><g transform="translate(1750.1658832671355 931.625196412424) rotate(0.9900565231191685 -31.830725006623652 62.10393117023705)"><path d="M-41.34 104.43 C-50.32 113.65, -60.59 121.07, -63.01 122.86 M-42.66 105.18 C-48.33 110.72, -54.66 115.71, -65.22 124.83" stroke="#000000" stroke-width="1" fill="none"></path></g></g><mask></mask><g stroke-linecap="round" transform="translate(1657.0270550131709 1062.557275196421) rotate(0 33.5 30.5)"><path d="M47.89 2.5 C53.63 4.63, 59.95 10.06, 63.21 15.44 C66.47 20.83, 68.28 28.75, 67.44 34.83 C66.6 40.9, 62.89 47.76, 58.17 51.89 C53.45 56.02, 45.62 58.53, 39.13 59.61 C32.64 60.69, 25.22 60.73, 19.24 58.35 C13.27 55.97, 6.28 50.49, 3.29 45.33 C0.29 40.16, 0.22 33.39, 1.27 27.37 C2.31 21.35, 5.31 13.78, 9.55 9.2 C13.78 4.62, 20.02 0.88, 26.68 -0.12 C33.34 -1.13, 45.54 2.32, 49.48 3.16 C53.43 3.99, 50.67 4.5, 50.37 4.89 M22.49 2.02 C27.72 -0.47, 34.74 -1.57, 40.81 -0.03 C46.88 1.51, 54.61 6.52, 58.91 11.26 C63.22 15.99, 66.28 22.55, 66.66 28.4 C67.04 34.24, 64.51 41.39, 61.2 46.3 C57.9 51.21, 52.8 55.56, 46.83 57.85 C40.86 60.14, 31.91 61.56, 25.39 60.06 C18.88 58.55, 12.15 53.57, 7.72 48.83 C3.3 44.08, -0.9 37.59, -1.17 31.61 C-1.44 25.62, 2.5 17.97, 6.1 12.92 C9.71 7.87, 17.74 3.25, 20.47 1.3 C23.2 -0.65, 22.03 0.83, 22.48 1.22" stroke="#000000" stroke-width="1" fill="none"></path></g><g transform="translate(1674.722311049598 1080.9905183702322) rotate(0 15.616666793823242 12)"><text x="15.616666793823242" y="0" font-family="Virgil, Segoe UI Emoji" font-size="20px" fill="#000000" text-anchor="middle" style="white-space: pre;" direction="ltr" dominant-baseline="text-before-edge">null</text></g><g stroke-linecap="round" transform="translate(1533.5270550131709 1061.557275196421) rotate(0 43.5 31.5)"><path d="M33.24 1.28 C40.96 -0.46, 52.02 0.43, 59.77 2.49 C67.53 4.54, 75.18 8.41, 79.75 13.61 C84.32 18.81, 87.74 27.34, 87.18 33.71 C86.62 40.08, 81.7 46.96, 76.41 51.83 C71.13 56.7, 63.55 61.45, 55.47 62.91 C47.39 64.38, 36.17 63.1, 27.94 60.59 C19.71 58.09, 10.7 53.12, 6.06 47.88 C1.42 42.63, -0.5 35.2, 0.11 29.14 C0.72 23.07, 3.81 16.4, 9.73 11.48 C15.65 6.56, 30.81 1.25, 35.62 -0.39 C40.43 -2.04, 38.5 0.83, 38.59 1.61 M42.76 -0.03 C51.03 -0.38, 61.72 1.98, 68.67 5.47 C75.61 8.96, 81.5 15.12, 84.43 20.88 C87.35 26.64, 88.67 34, 86.22 40.02 C83.76 46.05, 76.78 53.34, 69.72 57.02 C62.66 60.7, 52.7 62.2, 43.88 62.12 C35.06 62.04, 23.66 60.16, 16.82 56.53 C9.99 52.9, 5.5 46.24, 2.88 40.34 C0.26 34.44, -1.53 27.07, 1.09 21.12 C3.7 15.18, 11.45 8.42, 18.59 4.69 C25.72 0.97, 39.77 -0.67, 43.87 -1.23 C47.98 -1.79, 43.5 0.73, 43.21 1.35" stroke="#000000" stroke-width="1" fill="none"></path></g><g transform="translate(1561.651243237733 1081.2834115890455) rotate(0 15.616666793823242 12)"><text x="15.616666793823242" y="0" font-family="Virgil, Segoe UI Emoji" font-size="20px" fill="#000000" text-anchor="middle" style="white-space: pre;" direction="ltr" dominant-baseline="text-before-edge">null</text></g><g stroke-linecap="round" transform="translate(1343.6699121560277 1049.9858466249934) rotate(0 43 31.5)"><path d="M48.12 -0.64 C56.11 -0.3, 66.7 4.51, 72.77 8.96 C78.84 13.4, 82.86 19.87, 84.54 26.03 C86.21 32.19, 86.27 40.45, 82.83 45.93 C79.39 51.4, 71.58 56.2, 63.89 58.9 C56.2 61.6, 45.08 62.96, 36.69 62.12 C28.29 61.29, 19.53 58.03, 13.52 53.89 C7.5 49.74, 2.2 43.4, 0.6 37.28 C-1 31.15, 0.41 22.56, 3.92 17.13 C7.42 11.7, 13.26 7.23, 21.65 4.69 C30.04 2.14, 47.84 2.24, 54.28 1.87 C60.72 1.5, 60.55 2.14, 60.31 2.46 M42.1 -0.79 C50.36 -1.39, 62.14 0.97, 69.17 4.69 C76.2 8.4, 81.76 15.62, 84.28 21.51 C86.8 27.4, 87.1 34.21, 84.29 40 C81.49 45.79, 74.14 52.59, 67.46 56.26 C60.78 59.93, 52.6 61.98, 44.21 62.01 C35.82 62.05, 23.99 60.1, 17.13 56.46 C10.26 52.83, 5.47 46.13, 3.02 40.2 C0.58 34.27, 0.1 26.42, 2.46 20.88 C4.82 15.34, 10.7 10.55, 17.17 6.96 C23.64 3.37, 36.98 0.34, 41.26 -0.65 C45.53 -1.65, 42.78 0.38, 42.8 0.98" stroke="#000000" stroke-width="1" fill="none"></path></g><g transform="translate(1371.1476537711833 1069.711983017618) rotate(0 15.616666793823242 12)"><text x="15.616666793823242" y="0" font-family="Virgil, Segoe UI Emoji" font-size="20px" fill="#000000" text-anchor="middle" style="white-space: pre;" direction="ltr" dominant-baseline="text-before-edge">null</text></g><g stroke-linecap="round"><g transform="translate(1470.0549127300937 920.829888818811) rotate(0.9900565231191685 -34.121659117201034 62.417939177105836)"><path d="M0.39 -0.45 C-4.67 8.84, -18.66 35.28, -30.08 56.31 C-41.49 77.33, -61.76 113.81, -68.1 125.71 M-0.86 -1.74 C-5.59 7.14, -16.63 32.96, -27.93 54.34 C-39.23 75.73, -62.02 114.66, -68.64 126.57" stroke="#000000" stroke-width="1" fill="none"></path></g><g transform="translate(1470.0549127300937 920.829888818811) rotate(0.9900565231191685 -34.121659117201034 62.417939177105836)"><path d="M-64.35 95.21 C-64.6 107.37, -68.2 116.99, -66.7 128.45 M-64.21 97.03 C-65.84 106.52, -67.02 116.13, -69.52 125.84" stroke="#000000" stroke-width="1" fill="none"></path></g><g transform="translate(1470.0549127300937 920.829888818811) rotate(0.9900565231191685 -34.121659117201034 62.417939177105836)"><path d="M-46.52 105.36 C-52.62 114.28, -62.03 120.59, -66.7 128.45 M-46.38 107.19 C-53.83 113.2, -60.86 119.48, -69.52 125.84" stroke="#000000" stroke-width="1" fill="none"></path></g></g><mask></mask><g stroke-linecap="round"><g transform="translate(1540.021044058777 934.298225994542) rotate(0 24.128958542437886 57.214266142098495)"><path d="M-1.08 0.31 C5.14 14.63, 29.26 66.38, 37.66 85.5 C46.06 104.61, 47.27 110.23, 49.33 115.01 M0.56 -0.58 C6.62 13.91, 28.9 67.6, 36.94 86.58 C44.98 105.55, 47.08 108.46, 48.79 113.28" stroke="#000000" stroke-width="1" fill="none"></path></g><g transform="translate(1540.021044058777 934.298225994542) rotate(0 24.128958542437886 57.214266142098495)"><path d="M39.06 102.83 C40.92 106.57, 46.81 111.09, 49.21 112.91 M38.29 102.19 C40.79 104.52, 42.38 106.55, 49.41 112.95" stroke="#000000" stroke-width="1" fill="none"></path></g><g transform="translate(1540.021044058777 934.298225994542) rotate(0 24.128958542437886 57.214266142098495)"><path d="M48.48 98.9 C47.2 103.86, 49.95 109.69, 49.21 112.91 M47.72 98.26 C48.13 101.46, 47.65 104.34, 49.41 112.95" stroke="#000000" stroke-width="1" fill="none"></path></g></g><mask></mask><g stroke-linecap="round"><g transform="translate(1663.567069258611 726.9870312442872) rotate(0 39.44891434646206 60.777469165268485)"><path d="M0.43 1.16 C10.87 17.19, 49.91 75.52, 63.13 95.33 C76.34 115.15, 77.02 115.74, 79.71 120.03 M-0.81 0.72 C9.54 16.46, 49.5 73.37, 62.77 93.39 C76.04 113.41, 76.06 116.04, 78.79 120.83" stroke="#000000" stroke-width="1" fill="none"></path></g><g transform="translate(1663.567069258611 726.9870312442872) rotate(0 39.44891434646206 60.777469165268485)"><path d="M68.79 111.5 C71.5 113.23, 73.66 116.28, 78.84 120.01 M66.56 109.43 C71.21 112.8, 74.39 116.23, 78.08 120.27" stroke="#000000" stroke-width="1" fill="none"></path></g><g transform="translate(1663.567069258611 726.9870312442872) rotate(0 39.44891434646206 60.777469165268485)"><path d="M78.44 106.62 C77.87 110.02, 76.78 114.71, 78.84 120.01 M76.21 104.55 C78.1 109.29, 78.51 114.12, 78.08 120.27" stroke="#000000" stroke-width="1" fill="none"></path></g></g><mask></mask><g stroke-linecap="round"><g transform="translate(1947.6520550131709 1141.057275196421) rotate(0 0.5743063073077792 0.3122351814454305)"><path d="M-0.29 -0.97 C-0.6 -1.02, -0.68 -0.09, -0.74 0.04 M1.76 1.13 C1.73 1.26, 2.16 1.61, 1.58 1.6" stroke="#000000" stroke-width="1" fill="none"></path></g><g transform="translate(1947.6520550131709 1141.057275196421) rotate(0 0.5743063073077792 0.3122351814454305)"><path d="M1.58 1.6 C1.58 1.6, 1.58 1.6, 1.58 1.6 M1.58 1.6 C1.58 1.6, 1.58 1.6, 1.58 1.6" stroke="#000000" stroke-width="1" fill="none"></path></g><g transform="translate(1947.6520550131709 1141.057275196421) rotate(0 0.5743063073077792 0.3122351814454305)"><path d="M1.58 1.6 C1.58 1.6, 1.58 1.6, 1.58 1.6 M1.58 1.6 C1.58 1.6, 1.58 1.6, 1.58 1.6" stroke="#000000" stroke-width="1" fill="none"></path></g></g><mask></mask><g stroke-linecap="round" transform="translate(1847.6609835845993 1045.414418053564) rotate(0 38.5 33)"><path d="M28.39 0.22 C35.08 -1.64, 44.63 0.46, 51.64 3.04 C58.64 5.63, 66.18 10.62, 70.4 15.76 C74.61 20.9, 77.39 27.62, 76.94 33.9 C76.48 40.18, 72.43 48.28, 67.66 53.41 C62.9 58.55, 55.59 63.01, 48.37 64.7 C41.14 66.38, 31.43 65.67, 24.3 63.52 C17.18 61.36, 9.81 57.11, 5.64 51.79 C1.47 46.46, -1.2 38.14, -0.69 31.57 C-0.18 24.99, 3.29 17.67, 8.69 12.34 C14.1 7.02, 27.22 1.47, 31.74 -0.39 C36.26 -2.24, 35.73 0.63, 35.82 1.2 M29.68 -0.25 C36.35 -1.82, 46.05 0.61, 52.76 3.12 C59.46 5.64, 65.83 9.43, 69.9 14.85 C73.97 20.27, 77.71 29.11, 77.2 35.64 C76.69 42.18, 71.76 48.93, 66.83 54.04 C61.9 59.15, 54.93 64.52, 47.63 66.3 C40.33 68.07, 30.16 67.38, 23.03 64.67 C15.9 61.95, 8.51 55.44, 4.84 50.01 C1.18 44.58, 0.37 38.47, 1.03 32.07 C1.69 25.67, 4.15 16.62, 8.8 11.61 C13.46 6.61, 25.36 3.83, 28.98 2.02 C32.59 0.22, 30.27 0.3, 30.49 0.81" stroke="#000000" stroke-width="1" fill="none"></path></g><g transform="translate(1870.9290393027404 1066.0798942744077) rotate(0 15.008333206176758 12.5)"><text x="15.008333206176758" y="0" font-family="Virgil, Segoe UI Emoji" font-size="20px" fill="#000000" text-anchor="middle" style="white-space: pre;" direction="ltr" dominant-baseline="text-before-edge">1011</text></g><g stroke-linecap="round"><g transform="translate(2440.884197870314 922.7001323392778) rotate(0 40.04125159549267 59.59772244580381)"><path d="M-0.62 -0.16 C9.82 15.62, 48.78 74.77, 61.95 94.73 C75.11 114.7, 75.29 115.42, 78.37 119.64 M1.25 -1.29 C11.6 14.66, 47.73 75.83, 60.97 96.13 C74.21 116.43, 77.34 116.37, 80.71 120.49" stroke="#000000" stroke-width="1" fill="none"></path></g><g transform="translate(2440.884197870314 922.7001323392778) rotate(0 40.04125159549267 59.59772244580381)"><path d="M66.49 113.9 C69.69 114.23, 72.24 118.43, 80.04 121.53 M66.38 113.95 C70.68 115.77, 74.82 117.57, 81.38 119.92" stroke="#000000" stroke-width="1" fill="none"></path></g><g transform="translate(2440.884197870314 922.7001323392778) rotate(0 40.04125159549267 59.59772244580381)"><path d="M73.95 106.42 C75.38 108.5, 76.15 114.48, 80.04 121.53 M73.85 106.47 C75.85 110.48, 77.75 114.51, 81.38 119.92" stroke="#000000" stroke-width="1" fill="none"></path></g></g><mask></mask><g stroke-linecap="round" transform="translate(2249.027055013171 676.557275196421) rotate(0 34.5 29)"><path d="M19.3 3.46 C25.03 0.51, 34.28 -1.26, 40.88 -0.39 C47.48 0.48, 54.25 4.44, 58.89 8.69 C63.52 12.94, 67.77 19.44, 68.69 25.1 C69.62 30.76, 67.77 37.48, 64.45 42.64 C61.12 47.81, 54.91 53.54, 48.73 56.08 C42.55 58.62, 33.91 59.03, 27.37 57.86 C20.83 56.69, 14.08 53.39, 9.47 49.06 C4.85 44.74, 0.62 37.47, -0.31 31.89 C-1.24 26.31, 0.11 20.71, 3.89 15.56 C7.67 10.41, 18.66 3.27, 22.36 0.98 C26.06 -1.3, 25.95 1.25, 26.1 1.88 M19.49 1.75 C25.27 -0.82, 35.64 -0.27, 42.25 1.04 C48.86 2.35, 54.76 5.21, 59.16 9.61 C63.56 14.02, 67.98 21.63, 68.65 27.49 C69.31 33.35, 66.74 40.18, 63.17 44.78 C59.61 49.38, 53.12 52.79, 47.25 55.11 C41.38 57.42, 34.44 59.86, 27.98 58.68 C21.52 57.5, 13.14 52.35, 8.47 48.04 C3.8 43.73, 0.39 38.59, -0.04 32.83 C-0.47 27.07, 2.41 18.39, 5.89 13.47 C9.38 8.56, 18.33 5.01, 20.88 3.31 C23.43 1.62, 21.04 2.88, 21.2 3.3" stroke="#000000" stroke-width="1" fill="none"></path></g><g stroke-linecap="round"><g transform="translate(2253.027055013171 728.557275196421) rotate(0 -34.4239979099666 61.430992997372414)"><path d="M-1.06 -0.88 C-12.55 19.58, -57.65 101.83, -69 122.48 M0.58 1.27 C-10.98 21.91, -57.75 103.24, -69.43 123.74" stroke="#000000" stroke-width="1" fill="none"></path></g><g transform="translate(2253.027055013171 728.557275196421) rotate(0 -34.4239979099666 61.430992997372414)"><path d="M-65.8 95.84 C-66.77 104.22, -67.42 109.82, -70.85 122.93 M-64.6 93.65 C-65.03 102.22, -67.06 111.83, -69.27 123.15" stroke="#000000" stroke-width="1" fill="none"></path></g><g transform="translate(2253.027055013171 728.557275196421) rotate(0 -34.4239979099666 61.430992997372414)"><path d="M-47.99 106.04 C-54.2 111.25, -60.11 113.83, -70.85 122.93 M-46.79 103.85 C-52.51 109.32, -59.83 115.89, -69.27 123.15" stroke="#000000" stroke-width="1" fill="none"></path></g></g><mask></mask><g stroke-linecap="round" transform="translate(2118.027055013171 857.557275196421) rotate(0 38.5 34.5)"><path d="M50.55 1.55 C57.48 3.35, 65.8 9.11, 70.15 14.69 C74.5 20.28, 76.93 28.11, 76.66 35.05 C76.4 41.98, 73.22 50.83, 68.57 56.3 C63.93 61.78, 55.91 66.1, 48.78 67.92 C41.65 69.74, 32.89 69.65, 25.8 67.21 C18.71 64.78, 10.59 58.81, 6.24 53.3 C1.88 47.79, -0.5 40.89, -0.33 34.16 C-0.16 27.42, 2.69 18.26, 7.24 12.9 C11.79 7.53, 19.17 3.49, 26.98 1.95 C34.8 0.42, 49.07 3.09, 54.14 3.69 C59.22 4.3, 57.49 5.28, 57.45 5.6 M29 0.65 C35.81 -1.04, 46.73 1.24, 53.66 4.14 C60.6 7.04, 66.93 12.53, 70.62 18.06 C74.31 23.59, 76.2 30.55, 75.81 37.33 C75.42 44.1, 73.13 53.62, 68.27 58.73 C63.41 63.84, 54.19 66.59, 46.63 68 C39.08 69.41, 29.64 69.98, 22.95 67.18 C16.25 64.38, 10.22 57.04, 6.45 51.19 C2.68 45.35, -0.24 38.63, 0.33 32.09 C0.89 25.56, 4.93 17.08, 9.86 12 C14.78 6.91, 26.46 3.1, 29.89 1.57 C33.32 0.04, 30.29 2.23, 30.46 2.81" stroke="#000000" stroke-width="1" fill="none"></path></g><g stroke-linecap="round" transform="translate(2377.027055013171 859.557275196421) rotate(0 38.5 33)"><path d="M21.83 3.05 C28.13 0.02, 37.77 -1.07, 45.11 0.27 C52.44 1.61, 60.71 6.32, 65.84 11.1 C70.97 15.89, 74.82 22.69, 75.92 28.98 C77.01 35.27, 75.99 43.35, 72.44 48.85 C68.88 54.34, 61.43 59.09, 54.56 61.94 C47.69 64.79, 38.66 67.07, 31.23 65.93 C23.8 64.79, 15.2 59.77, 9.97 55.1 C4.74 50.43, 0.9 44.13, -0.15 37.89 C-1.19 31.65, -0.76 23.76, 3.71 17.65 C8.17 11.55, 21.61 4.2, 26.65 1.28 C31.69 -1.64, 33.7 -0.46, 33.95 0.12 M42.82 1.51 C50.01 1.99, 58.16 5.73, 63.57 9.83 C68.97 13.92, 73.44 19.67, 75.24 26.07 C77.05 32.46, 77.43 42.25, 74.41 48.17 C71.39 54.09, 63.9 58.5, 57.13 61.6 C50.36 64.71, 41.06 67.68, 33.79 66.81 C26.52 65.95, 18.98 60.84, 13.5 56.43 C8.02 52.02, 2.52 46.5, 0.89 40.35 C-0.74 34.21, 0.63 25.45, 3.72 19.56 C6.8 13.66, 12.83 7.97, 19.39 4.97 C25.96 1.97, 39.22 2.09, 43.13 1.55 C47.03 1.02, 43 1.47, 42.81 1.76" stroke="#000000" stroke-width="1" fill="none"></path></g><g stroke-linecap="round"><g transform="translate(2394.1658832671355 936.625196412424) rotate(0.9900565231191685 -32.91851418094211 62.36828820181199)"><path d="M-1.07 -0.85 C-6.12 8.48, -18.75 35.09, -29.49 55.97 C-40.23 76.86, -59.49 113.1, -65.51 124.47 M0.56 1.32 C-4.76 10.85, -19.53 36.78, -30.69 57.49 C-41.85 78.21, -60.6 114.33, -66.4 125.59" stroke="#000000" stroke-width="1" fill="none"></path></g><g transform="translate(2394.1658832671355 936.625196412424) rotate(0.9900565231191685 -32.91851418094211 62.36828820181199)"><path d="M-63.95 95.03 C-64.01 106.34, -66.03 117.13, -67.46 127.32 M-62.38 95.25 C-64.11 102.21, -63.7 108.6, -67.07 125.1" stroke="#000000" stroke-width="1" fill="none"></path></g><g transform="translate(2394.1658832671355 936.625196412424) rotate(0.9900565231191685 -32.91851418094211 62.36828820181199)"><path d="M-45.73 104.47 C-52.48 112.15, -61.21 119.47, -67.46 127.32 M-44.16 104.69 C-50.04 109.53, -53.73 113.8, -67.07 125.1" stroke="#000000" stroke-width="1" fill="none"></path></g></g><mask></mask><g stroke-linecap="round" transform="translate(2301.027055013171 1067.557275196421) rotate(0 33.5 30.5)"><path d="M47.66 3 C53.53 4.82, 59.05 9.58, 62.18 14.85 C65.31 20.12, 67.22 28.68, 66.42 34.63 C65.62 40.59, 61.88 46.21, 57.39 50.59 C52.89 54.97, 45.95 59.62, 39.46 60.94 C32.98 62.26, 24.49 61.12, 18.48 58.5 C12.47 55.89, 6.37 50.65, 3.41 45.23 C0.45 39.82, -0.13 31.89, 0.72 26.01 C1.58 20.13, 4.09 14.3, 8.52 9.93 C12.95 5.57, 20.44 0.84, 27.28 -0.21 C34.12 -1.25, 45.43 2.85, 49.58 3.67 C53.73 4.49, 52.32 4.34, 52.18 4.7 M27.91 0.22 C33.8 -1.16, 42.29 1.72, 48.37 4.3 C54.45 6.88, 61.34 10.42, 64.4 15.71 C67.47 21, 67.91 29.93, 66.76 36.03 C65.61 42.14, 62.18 48.11, 57.49 52.33 C52.8 56.55, 45.1 60.23, 38.61 61.35 C32.12 62.48, 24.38 61.73, 18.55 59.06 C12.72 56.4, 6.74 50.92, 3.61 45.35 C0.49 39.79, -1.4 31.63, -0.19 25.67 C1.02 19.71, 6.25 13.68, 10.88 9.6 C15.51 5.51, 24.91 2.66, 27.59 1.15 C30.27 -0.35, 26.75 0.22, 26.94 0.58" stroke="#000000" stroke-width="1" fill="none"></path></g><g transform="translate(2318.722311049598 1085.9905183702322) rotate(0 15.616666793823242 12)"><text x="15.616666793823242" y="0" font-family="Virgil, Segoe UI Emoji" font-size="20px" fill="#000000" text-anchor="middle" style="white-space: pre;" direction="ltr" dominant-baseline="text-before-edge">null</text></g><g stroke-linecap="round" transform="translate(2177.527055013171 1066.557275196421) rotate(0 43.5 31.5)"><path d="M46.7 0.58 C54.81 0.66, 64.75 2.91, 71.19 6.94 C77.63 10.97, 83.42 18.57, 85.34 24.75 C87.26 30.92, 86.06 38.39, 82.72 43.98 C79.38 49.57, 72.34 55.29, 65.3 58.31 C58.25 61.32, 48.87 62.52, 40.44 62.07 C32.01 61.61, 21.22 59.6, 14.71 55.58 C8.21 51.57, 3.32 44.04, 1.41 37.98 C-0.5 31.92, -0.14 24.91, 3.25 19.23 C6.64 13.55, 13.25 7.06, 21.74 3.89 C30.22 0.71, 47.96 0.23, 54.18 0.16 C60.39 0.09, 59.15 2.87, 59.02 3.47 M41.99 -0.76 C50.09 -1.56, 60.01 2.33, 67.04 5.85 C74.07 9.36, 81.12 14.61, 84.17 20.33 C87.22 26.05, 87.48 34.02, 85.33 40.16 C83.18 46.29, 77.82 53.2, 71.27 57.14 C64.72 61.08, 54.65 63.7, 46.03 63.82 C37.4 63.94, 26.5 61.23, 19.53 57.86 C12.56 54.49, 7.31 49.18, 4.2 43.59 C1.09 38.01, -0.85 30.49, 0.88 24.35 C2.61 18.21, 7.9 10.83, 14.58 6.77 C21.26 2.7, 36.77 1.02, 40.96 -0.04 C45.15 -1.11, 39.56 -0.18, 39.74 0.39" stroke="#000000" stroke-width="1" fill="none"></path></g><g transform="translate(2205.651243237733 1086.2834115890455) rotate(0 15.616666793823242 12)"><text x="15.616666793823242" y="0" font-family="Virgil, Segoe UI Emoji" font-size="20px" fill="#000000" text-anchor="middle" style="white-space: pre;" direction="ltr" dominant-baseline="text-before-edge">null</text></g><g stroke-linecap="round" transform="translate(1999.5270550131709 1062.557275196421) rotate(0 43 31.5)"><path d="M52.6 1.39 C60.47 2.52, 69.4 6.81, 74.81 11.41 C80.22 16, 84.17 23, 85.05 28.96 C85.94 34.92, 84.47 41.85, 80.12 47.16 C75.77 52.47, 66.8 58.45, 58.97 60.81 C51.15 63.17, 41.28 62.84, 33.15 61.34 C25.01 59.84, 15.52 56.49, 10.16 51.8 C4.8 47.12, 1.5 39.47, 0.98 33.23 C0.47 26.99, 2.86 19.37, 7.07 14.33 C11.29 9.3, 17.97 5.18, 26.27 3.01 C34.56 0.84, 51.5 1.39, 56.83 1.33 C62.16 1.26, 58.51 1.98, 58.26 2.63 M31.68 1.51 C39.16 -0.49, 49.88 0.42, 57.76 2.74 C65.64 5.06, 74.28 10.26, 78.96 15.43 C83.64 20.59, 86.33 27.83, 85.85 33.74 C85.37 39.65, 81.11 46.12, 76.08 50.9 C71.06 55.68, 63.8 60.6, 55.69 62.41 C47.58 64.22, 35.75 64.09, 27.45 61.76 C19.15 59.44, 10.44 53.77, 5.88 48.48 C1.33 43.19, -0.24 36.18, 0.14 30.04 C0.51 23.89, 2.78 16.39, 8.15 11.61 C13.53 6.82, 28.57 2.94, 32.39 1.33 C36.21 -0.28, 31.04 1.26, 31.07 1.95" stroke="#000000" stroke-width="1" fill="none"></path></g><g transform="translate(2027.0047966283264 1082.2834115890455) rotate(0 15.616666793823242 12)"><text x="15.616666793823242" y="0" font-family="Virgil, Segoe UI Emoji" font-size="20px" fill="#000000" text-anchor="middle" style="white-space: pre;" direction="ltr" dominant-baseline="text-before-edge">null</text></g><g stroke-linecap="round"><g transform="translate(2124.4980599177225 929.7153206826843) rotate(0.9900565231191685 -32.223952715261476 62.046155249152434)"><path d="M-0.8 -0.59 C-5.63 8.69, -17.71 34.15, -28.39 54.9 C-39.07 75.64, -58.7 112.12, -64.87 123.88 M0.98 1.72 C-4 11.18, -17.95 35.36, -29.02 55.86 C-40.09 76.35, -59.39 113.46, -65.43 124.68" stroke="#000000" stroke-width="1" fill="none"></path></g><g transform="translate(2124.4980599177225 929.7153206826843) rotate(0.9900565231191685 -32.223952715261476 62.046155249152434)"><path d="M-62.29 95.98 C-64.78 105.93, -66.01 115.38, -64.46 123.02 M-62.09 94.85 C-62.44 103.44, -64.07 110.92, -66.1 124.36" stroke="#000000" stroke-width="1" fill="none"></path></g><g transform="translate(2124.4980599177225 929.7153206826843) rotate(0.9900565231191685 -32.223952715261476 62.046155249152434)"><path d="M-44.15 105.58 C-52.87 112.07, -60.41 118.18, -64.46 123.02 M-43.95 104.45 C-48.97 110.62, -55.25 115.64, -66.1 124.36" stroke="#000000" stroke-width="1" fill="none"></path></g></g><mask></mask><g stroke-linecap="round"><g transform="translate(2184.021044058777 939.298225994542) rotate(0 24.72170933551888 56.69187790468095)"><path d="M0.4 -0.98 C6.49 13.69, 29.18 67.89, 37.1 86.94 C45.02 105.99, 45.91 108.79, 47.91 113.33 M-0.84 1.11 C5.02 15.53, 27.57 66.25, 36.09 85.12 C44.61 104, 48.05 109.33, 50.29 114.37" stroke="#000000" stroke-width="1" fill="none"></path></g><g transform="translate(2184.021044058777 939.298225994542) rotate(0 24.72170933551888 56.69187790468095)"><path d="M38.29 103.87 C43.92 106.38, 46.33 111.54, 50.64 113.2 M38.99 104.56 C42.11 106.68, 46.2 110.59, 50.19 114.28" stroke="#000000" stroke-width="1" fill="none"></path></g><g transform="translate(2184.021044058777 939.298225994542) rotate(0 24.72170933551888 56.69187790468095)"><path d="M47.46 99.37 C49.83 103.49, 49.02 110.22, 50.64 113.2 M48.16 100.05 C48.62 103.56, 50.06 108.77, 50.19 114.28" stroke="#000000" stroke-width="1" fill="none"></path></g></g><mask></mask><g stroke-linecap="round"><g transform="translate(2307.567069258611 731.9870312442872) rotate(0 39.29336019120183 61.292528779748864)"><path d="M-0.12 0.58 C9.98 16.49, 47.61 74.36, 61 94.48 C74.4 114.59, 77.22 116.88, 80.23 121.28 M-1.65 -0.16 C8.78 15.99, 49.66 75.25, 63.19 95.74 C76.73 116.22, 76.99 118.39, 79.59 122.75" stroke="#000000" stroke-width="1" fill="none"></path></g><g transform="translate(2307.567069258611 731.9870312442872) rotate(0 39.29336019120183 61.292528779748864)"><path d="M68.47 111.01 C70.89 116.12, 75.92 118.06, 79.42 122.54 M67.17 112.06 C72.7 116.97, 76.68 120.17, 79.49 123.3" stroke="#000000" stroke-width="1" fill="none"></path></g><g transform="translate(2307.567069258611 731.9870312442872) rotate(0 39.29336019120183 61.292528779748864)"><path d="M77.95 105.81 C77.17 112.64, 79.03 116.32, 79.42 122.54 M76.65 106.86 C78.5 113.84, 78.82 119.05, 79.49 123.3" stroke="#000000" stroke-width="1" fill="none"></path></g></g><mask></mask><g stroke-linecap="round"><g transform="translate(2591.652055013171 1146.057275196421) rotate(0 -0.15599953168111824 0.061879735831098515)"><path d="M-1 -0.52 C-0.94 -0.57, 0.22 0.22, 0.23 0.28 M0.68 1.82 C0.62 1.34, -0.72 -1.58, -0.59 -1.69" stroke="#000000" stroke-width="1" fill="none"></path></g><g transform="translate(2591.652055013171 1146.057275196421) rotate(0 -0.15599953168111824 0.061879735831098515)"><path d="M-0.59 -1.69 C-0.59 -1.69, -0.59 -1.69, -0.59 -1.69 M-0.59 -1.69 C-0.59 -1.69, -0.59 -1.69, -0.59 -1.69" stroke="#000000" stroke-width="1" fill="none"></path></g><g transform="translate(2591.652055013171 1146.057275196421) rotate(0 -0.15599953168111824 0.061879735831098515)"><path d="M-0.59 -1.69 C-0.59 -1.69, -0.59 -1.69, -0.59 -1.69 M-0.59 -1.69 C-0.59 -1.69, -0.59 -1.69, -0.59 -1.69" stroke="#000000" stroke-width="1" fill="none"></path></g></g><mask></mask><g stroke-linecap="round" transform="translate(2497.3752692988837 1050.414418053564) rotate(0 38.5 33)"><path d="M24.71 1.77 C31.28 -1.06, 41.16 -1.49, 48.3 0.26 C55.43 2, 62.6 7.24, 67.52 12.26 C72.43 17.28, 77.19 24.05, 77.8 30.37 C78.41 36.69, 75.15 44.53, 71.15 50.19 C67.16 55.84, 60.88 61.77, 53.83 64.27 C46.79 66.77, 36.22 66.8, 28.87 65.17 C21.53 63.54, 14.52 59.47, 9.76 54.49 C5.01 49.52, 0.94 41.77, 0.35 35.32 C-0.24 28.86, 1.19 21.51, 6.23 15.76 C11.26 10.01, 25.54 3.37, 30.57 0.8 C35.59 -1.76, 36.4 -0.32, 36.37 0.36 M44.41 0.16 C51.65 0.73, 61.45 5.56, 66.64 10.29 C71.82 15.02, 74.42 22.08, 75.51 28.54 C76.59 35, 76.69 43.3, 73.15 49.05 C69.61 54.8, 61.26 60.09, 54.28 63.04 C47.29 65.98, 38.49 68.08, 31.25 66.72 C24.01 65.36, 15.81 59.63, 10.84 54.9 C5.86 50.18, 2.52 44.86, 1.43 38.35 C0.35 31.85, 0.74 21.66, 4.31 15.88 C7.88 10.1, 16 6.34, 22.85 3.67 C29.7 1.01, 41.45 0.09, 45.41 -0.11 C49.37 -0.32, 46.47 1.93, 46.61 2.45" stroke="#000000" stroke-width="1" fill="none"></path></g><g transform="translate(2524.8183252077597 1071.0798942744077) rotate(0 10.833333015441895 12.5)"><text x="10.833333015441895" y="0" font-family="Virgil, Segoe UI Emoji" font-size="20px" fill="#000000" text-anchor="middle" style="white-space: pre;" direction="ltr" dominant-baseline="text-before-edge">1111</text></g><g stroke-linecap="round" transform="translate(1911.3399911994647 408.41668515305355) rotate(0 49.5 35)"><path d="M47.01 -0.6 C55.22 -1.26, 65.35 1.87, 73.19 5.02 C81.02 8.17, 89.76 12.87, 94.01 18.3 C98.27 23.73, 99.46 31.16, 98.73 37.6 C98 44.03, 95.09 51.85, 89.62 56.91 C84.16 61.97, 74.34 65.91, 65.95 67.97 C57.55 70.03, 47.83 70.7, 39.26 69.27 C30.69 67.84, 20.79 63.89, 14.51 59.4 C8.22 54.9, 3.3 48.44, 1.56 42.29 C-0.17 36.14, 0.93 28.45, 4.12 22.48 C7.31 16.51, 13.06 10.07, 20.69 6.46 C28.31 2.84, 44.32 1.78, 49.88 0.79 C55.43 -0.21, 53.92 0.17, 54.01 0.48 M41.45 0.04 C49.88 -1.23, 62.94 0.68, 71.13 3.4 C79.32 6.12, 85.96 10.87, 90.59 16.38 C95.23 21.88, 98.79 30.27, 98.93 36.43 C99.07 42.59, 96.07 48.05, 91.42 53.32 C86.77 58.6, 79.28 65.57, 71.02 68.08 C62.76 70.59, 50.73 69.41, 41.84 68.38 C32.96 67.35, 24.41 65.94, 17.72 61.89 C11.03 57.83, 4.12 49.99, 1.69 44.04 C-0.75 38.1, 0.32 32.3, 3.13 26.24 C5.94 20.17, 12.02 12.14, 18.54 7.65 C25.05 3.16, 38.04 0.63, 42.22 -0.71 C46.41 -2.04, 43.51 -1.05, 43.66 -0.36" stroke="#000000" stroke-width="1" fill="none"></path></g><g stroke-linecap="round"><g transform="translate(1925.3399911994647 469.41668515305355) rotate(0 -132.0009521599859 104.18385292374569)"><path d="M-0.16 1.02 C-43.97 35.69, -219.9 173.59, -263.85 207.85 M-1.7 0.51 C-45.05 34.86, -218.3 171.64, -261.58 206.18" stroke="#000000" stroke-width="1" fill="none"></path></g><g transform="translate(1925.3399911994647 469.41668515305355) rotate(0 -132.0009521599859 104.18385292374569)"><path d="M-244.16 179.21 C-247.96 184.92, -253.52 193.2, -259.76 205.92 M-245.12 180.08 C-250.33 188.69, -254.82 195.69, -261.77 206.68" stroke="#000000" stroke-width="1" fill="none"></path></g><g transform="translate(1925.3399911994647 469.41668515305355) rotate(0 -132.0009521599859 104.18385292374569)"><path d="M-231.41 195.29 C-238.02 197.41, -246.41 202.13, -259.76 205.92 M-232.37 196.16 C-241.22 200.23, -249.39 202.6, -261.77 206.68" stroke="#000000" stroke-width="1" fill="none"></path></g></g><mask></mask><g stroke-linecap="round"><g transform="translate(2010.3399911994647 458.41668515305355) rotate(0 123.8135199127255 111.10113540852399)"><path d="M-0.85 0.85 C40.21 37.45, 204.75 183.74, 246.19 220.61 M0.91 0.26 C42.36 37.55, 207.4 185.27, 248.47 221.95" stroke="#000000" stroke-width="1" fill="none"></path></g><g transform="translate(2010.3399911994647 458.41668515305355) rotate(0 123.8135199127255 111.10113540852399)"><path d="M222.04 209.45 C228.06 215.45, 238.53 217.14, 248.23 221.68 M220.72 211.41 C231.12 215.31, 241.1 219.69, 248.55 222.83" stroke="#000000" stroke-width="1" fill="none"></path></g><g transform="translate(2010.3399911994647 458.41668515305355) rotate(0 123.8135199127255 111.10113540852399)"><path d="M235.72 194.15 C237.95 204.45, 244.48 210.52, 248.23 221.68 M234.4 196.11 C239.86 205.59, 244.78 215.62, 248.55 222.83" stroke="#000000" stroke-width="1" fill="none"></path></g></g><mask></mask><g transform="translate(1759.0304673899327 553.3809708673471) rotate(0 6.883333206176758 12.5)"><text x="0" y="0" font-family="Virgil, Segoe UI Emoji" font-size="20px" fill="#000000" text-anchor="start" style="white-space: pre;" direction="ltr" dominant-baseline="text-before-edge">0</text></g><g transform="translate(2166.1733245327896 560.5238280102021) rotate(0 2.7083332538604736 12.5)"><text x="0" y="0" font-family="Virgil, Segoe UI Emoji" font-size="20px" fill="#000000" text-anchor="start" style="white-space: pre;" direction="ltr" dominant-baseline="text-before-edge">1</text></g><g stroke-linecap="round"><g transform="translate(1608.2732578109944 727.379411006299) rotate(0 -35.671414069021466 61.28301271104283)"><path d="M-0.16 -0.15 C-11.97 20.31, -58.67 103.42, -70.16 123.83 M-1.7 -1.27 C-13.75 19.37, -59.9 101.38, -71.19 122.15" stroke="#000000" stroke-width="1" fill="none"></path></g><g transform="translate(1608.2732578109944 727.379411006299) rotate(0 -35.671414069021466 61.28301271104283)"><path d="M-66.72 92.26 C-66.53 104.76, -70.71 114.2, -69.98 122.4 M-66.4 93.4 C-68.14 102.73, -69.97 111.61, -70.4 122.52" stroke="#000000" stroke-width="1" fill="none"></path></g><g transform="translate(1608.2732578109944 727.379411006299) rotate(0 -35.671414069021466 61.28301271104283)"><path d="M-48.78 102.21 C-55.18 111.08, -65.87 116.91, -69.98 122.4 M-48.46 103.36 C-55.99 109.55, -63.64 115.21, -70.4 122.52" stroke="#000000" stroke-width="1" fill="none"></path></g></g><mask></mask><g transform="translate(1536.1733245327896 760.5238280102021) rotate(0 6.883333206176758 12.5)"><text x="0" y="0" font-family="Virgil, Segoe UI Emoji" font-size="20px" fill="#000000" text-anchor="start" style="white-space: pre;" direction="ltr" dominant-baseline="text-before-edge">0</text></g><g transform="translate(1406.1730433679068 953.4135127674854) rotate(0.9900565231191685 6.883333206176758 12.5)"><text x="0" y="0" font-family="Virgil, Segoe UI Emoji" font-size="20px" fill="#000000" text-anchor="start" style="white-space: pre;" direction="ltr" dominant-baseline="text-before-edge">0</text></g><g transform="translate(1587.6018959613612 970.5238280102021) rotate(0 2.7083332538604736 12.5)"><text x="0" y="0" font-family="Virgil, Segoe UI Emoji" font-size="20px" fill="#000000" text-anchor="start" style="white-space: pre;" direction="ltr" dominant-baseline="text-before-edge">1</text></g><g transform="translate(1699.0301862250499 961.9849413389129) rotate(0.9900565231191685 6.883333206176758 12.5)"><text x="0" y="0" font-family="Virgil, Segoe UI Emoji" font-size="20px" fill="#000000" text-anchor="start" style="white-space: pre;" direction="ltr" dominant-baseline="text-before-edge">0</text></g><g transform="translate(1857.601895961362 973.3809708673471) rotate(0 2.7083332538604736 12.5)"><text x="0" y="0" font-family="Virgil, Segoe UI Emoji" font-size="20px" fill="#000000" text-anchor="start" style="white-space: pre;" direction="ltr" dominant-baseline="text-before-edge">1</text></g><g transform="translate(2054.744753104217 976.2381137244884) rotate(0 6.883333206176758 12.5)"><text x="0" y="0" font-family="Virgil, Segoe UI Emoji" font-size="20px" fill="#000000" text-anchor="start" style="white-space: pre;" direction="ltr" dominant-baseline="text-before-edge">0</text></g><g transform="translate(2234.744753104217 974.8095422959159) rotate(0 2.7083332538604736 12.5)"><text x="0" y="0" font-family="Virgil, Segoe UI Emoji" font-size="20px" fill="#000000" text-anchor="start" style="white-space: pre;" direction="ltr" dominant-baseline="text-before-edge">1</text></g><g transform="translate(2326.1733245327896 971.9523994387746) rotate(0 6.883333206176758 12.5)"><text x="0" y="0" font-family="Virgil, Segoe UI Emoji" font-size="20px" fill="#000000" text-anchor="start" style="white-space: pre;" direction="ltr" dominant-baseline="text-before-edge">0</text></g><g transform="translate(2496.1733245327896 967.6666851530572) rotate(0 2.7083332538604736 12.5)"><text x="0" y="0" font-family="Virgil, Segoe UI Emoji" font-size="20px" fill="#000000" text-anchor="start" style="white-space: pre;" direction="ltr" dominant-baseline="text-before-edge">1</text></g><g transform="translate(2190.4590388185034 764.8095422959159) rotate(0 6.883333206176758 12.5)"><text x="0" y="0" font-family="Virgil, Segoe UI Emoji" font-size="20px" fill="#000000" text-anchor="start" style="white-space: pre;" direction="ltr" dominant-baseline="text-before-edge">0</text></g><g transform="translate(2374.744753104217 770.5238280102021) rotate(0 2.7083332538604736 12.5)"><text x="0" y="0" font-family="Virgil, Segoe UI Emoji" font-size="20px" fill="#000000" text-anchor="start" style="white-space: pre;" direction="ltr" dominant-baseline="text-before-edge">1</text></g><g stroke-linecap="round"><g transform="translate(1810.50080838934 928.9672998068236) rotate(0 24.58149332981384 57.66430557082185)"><path d="M0.97 0.94 C7.43 15.12, 29.87 67.29, 37.9 86.09 C45.93 104.88, 47.5 109.17, 49.15 113.7 M0.02 0.38 C6.46 14.66, 29.22 68.38, 37.3 87.48 C45.38 106.57, 46.82 110.51, 48.51 114.95" stroke="#000000" stroke-width="1" fill="none"></path></g><g transform="translate(1810.50080838934 928.9672998068236) rotate(0 24.58149332981384 57.66430557082185)"><path d="M39.89 104.5 C40.67 106.42, 43.04 107.25, 47.79 114.11 M38.81 104.08 C41.16 107.23, 44.06 109.41, 48.62 115.15" stroke="#000000" stroke-width="1" fill="none"></path></g><g transform="translate(1810.50080838934 928.9672998068236) rotate(0 24.58149332981384 57.66430557082185)"><path d="M49.43 100.85 C48.09 103.67, 48.31 105.32, 47.79 114.11 M48.35 100.43 C48.23 104.55, 48.7 107.67, 48.62 115.15" stroke="#000000" stroke-width="1" fill="none"></path></g></g><mask></mask><g transform="translate(376.78912666247516 769.0387088060615) rotate(0 2.7083332538604736 12.5)"><text x="0" y="0" font-family="Virgil, Segoe UI Emoji" font-size="20px" fill="#000000" text-anchor="start" style="white-space: pre;" direction="ltr" dominant-baseline="text-before-edge">1</text></g><g transform="translate(1713.9319838053325 769.0387088060634) rotate(0 2.7083332538604736 12.5)"><text x="0" y="0" font-family="Virgil, Segoe UI Emoji" font-size="20px" fill="#000000" text-anchor="start" style="white-space: pre;" direction="ltr" dominant-baseline="text-before-edge">1</text></g><g stroke-linecap="round" transform="translate(513.9319838053325 1143.3244230917753) rotate(0 52.14285714285688 37.14285714285779)"><path d="M18.57 0 M18.57 0 C36.16 -2.47, 54.29 -0.69, 85.71 0 M18.57 0 C40.04 0.11, 61.99 -0.43, 85.71 0 M85.71 0 C98.35 -1.59, 103.27 6.58, 104.29 18.57 M85.71 0 C97.03 2.28, 106.49 4.42, 104.29 18.57 M104.29 18.57 C103.13 26.88, 104.45 39.28, 104.29 55.71 M104.29 18.57 C104.79 32.05, 104 46.83, 104.29 55.71 M104.29 55.71 C103.88 66.54, 96.39 73.27, 85.71 74.29 M104.29 55.71 C102.33 67.29, 99.76 75.64, 85.71 74.29 M85.71 74.29 C61.5 75.06, 33.75 72.82, 18.57 74.29 M85.71 74.29 C61.22 74.1, 34.87 74.26, 18.57 74.29 M18.57 74.29 C7.37 75.49, 1.77 67.81, 0 55.71 M18.57 74.29 C6.76 75.35, -1.34 69.17, 0 55.71 M0 55.71 C0.2 48.7, -1.34 41.76, 0 18.57 M0 55.71 C0.07 41.58, 0.54 28.98, 0 18.57 M0 18.57 C1.5 7.04, 7.3 -1.25, 18.57 0 M0 18.57 C1.91 7.27, 7.85 -0.35, 18.57 0" stroke="#000000" stroke-width="1" fill="none"></path></g><g transform="translate(559.2665075512778 1167.9672802346322) rotate(0 6.808333396911621 12.5)"><text x="6.808333396911621" y="0" font-family="Virgil, Segoe UI Emoji" font-size="20px" fill="#000000" text-anchor="middle" style="white-space: pre;" direction="ltr" dominant-baseline="text-before-edge">3</text></g><g stroke-linecap="round" transform="translate(1828.9319838053325 1124.752994520346) rotate(0 52.14285714285688 37.14285714285779)"><path d="M18.57 0 M18.57 0 C36.34 -1.13, 55.45 2.02, 85.71 0 M18.57 0 C42.68 0.83, 67.12 -0.05, 85.71 0 M85.71 0 C96.62 1.44, 103.17 5.93, 104.29 18.57 M85.71 0 C99.23 -0.24, 102.31 6.34, 104.29 18.57 M104.29 18.57 C104.23 32.4, 105.43 44.07, 104.29 55.71 M104.29 18.57 C103.73 31.45, 104.13 43.55, 104.29 55.71 M104.29 55.71 C105.21 69.2, 98.21 73.31, 85.71 74.29 M104.29 55.71 C104.49 65.92, 99.38 73.47, 85.71 74.29 M85.71 74.29 C59.28 76.32, 36.29 76.1, 18.57 74.29 M85.71 74.29 C67.15 75.56, 47.89 75.4, 18.57 74.29 M18.57 74.29 C4.94 75.8, -1.41 67.49, 0 55.71 M18.57 74.29 C4.69 73.4, 0.96 68.27, 0 55.71 M0 55.71 C-1.91 41.89, -1.37 29.58, 0 18.57 M0 55.71 C0.31 41.07, 1.12 25.77, 0 18.57 M0 18.57 C0.99 5.5, 5.82 0.34, 18.57 0 M0 18.57 C-0.86 7.85, 6.89 2.04, 18.57 0" stroke="#000000" stroke-width="1" fill="none"></path></g><g transform="translate(1875.6581744404684 1149.3958516632047) rotate(0 5.416666507720947 12.5)"><text x="5.416666507720947" y="0" font-family="Virgil, Segoe UI Emoji" font-size="20px" fill="#000000" text-anchor="middle" style="white-space: pre;" direction="ltr" dominant-baseline="text-before-edge">11</text></g><g stroke-linecap="round" transform="translate(2491.7891266624774 1129.0387088060615) rotate(0 52.14285714285688 37.14285714285779)"><path d="M18.57 0 M18.57 0 C34.19 1.25, 47.59 -0.44, 85.71 0 M18.57 0 C43.88 0.73, 70.1 -0.12, 85.71 0 M85.71 0 C99.08 -0.21, 102.56 6.32, 104.29 18.57 M85.71 0 C99.45 1.39, 106.32 5.87, 104.29 18.57 M104.29 18.57 C105.39 28.64, 103.49 42.32, 104.29 55.71 M104.29 18.57 C104.82 30.31, 104.42 40.46, 104.29 55.71 M104.29 55.71 C104.46 66.21, 99.21 73.58, 85.71 74.29 M104.29 55.71 C106.01 69.07, 99.38 72.84, 85.71 74.29 M85.71 74.29 C59.7 74.84, 36.17 75.87, 18.57 74.29 M85.71 74.29 C60.63 75.37, 36.09 74.31, 18.57 74.29 M18.57 74.29 C4.88 73.51, 0.83 68.25, 0 55.71 M18.57 74.29 C7.22 74.4, 1.8 65.91, 0 55.71 M0 55.71 C2.2 44.69, 0.51 37.15, 0 18.57 M0 55.71 C0.2 43.82, -0.48 32.78, 0 18.57 M0 18.57 C-0.75 7.64, 6.79 1.77, 18.57 0 M0 18.57 C0.09 4.7, 6.68 0.2, 18.57 0" stroke="#000000" stroke-width="1" fill="none"></path></g><g transform="translate(2535.040317392981 1153.6815659489184) rotate(0 8.891666412353516 12.5)"><text x="8.891666412353516" y="0" font-family="Virgil, Segoe UI Emoji" font-size="20px" fill="#000000" text-anchor="middle" style="white-space: pre;" direction="ltr" dominant-baseline="text-before-edge">15</text></g></svg>
