<svg version="1.1" xmlns="http://www.w3.org/2000/svg" viewBox="0 0 861.1583685295922 971.0853796152201" width="861.1583685295922" height="971.0853796152201">
  <!-- svg-source:excalidraw -->

  <defs>
    <style class="style-fonts">
      @font-face {
        font-family: "Virgil";
        src: url("https://excalidraw.com/Virgil.woff2");
      }
      @font-face {
        font-family: "Cascadia";
        src: url("https://excalidraw.com/Cascadia.woff2");
      }
    </style>
  </defs>
  <rect x="0" y="0" width="861.1583685295922" height="971.0853796152201" fill="#ffffff"></rect><g stroke-linecap="round" transform="translate(294.9482773358269 425.36623776094183) rotate(0 90.8515625 71.775390625)"><path d="M32 0 M32 0 C69.55 -1.92, 110.35 -1.2, 149.7 0 M32 0 C70.22 0.76, 109.22 -0.96, 149.7 0 M149.7 0 C170.84 -0.63, 181.29 10.06, 181.7 32 M149.7 0 C171.21 -0.88, 180.67 9.1, 181.7 32 M181.7 32 C181.32 54.05, 180.63 73.89, 181.7 111.55 M181.7 32 C182.58 54.67, 181.67 75.58, 181.7 111.55 M181.7 111.55 C183.65 132.51, 169.19 142.11, 149.7 143.55 M181.7 111.55 C179.92 131, 169.11 144.95, 149.7 143.55 M149.7 143.55 C122.89 142.01, 95.25 141.15, 32 143.55 M149.7 143.55 C111.77 144.57, 72.46 144.16, 32 143.55 M32 143.55 C9.34 145.12, 0.21 134.59, 0 111.55 M32 143.55 C8.7 143.62, -1.86 131.9, 0 111.55 M0 111.55 C1.65 88.24, 1.3 65.64, 0 32 M0 111.55 C0.39 89.99, 0.15 65.93, 0 32 M0 32 C-1.56 11.73, 12.11 -0.73, 32 0 M0 32 C-0.07 8.37, 12.39 2.26, 32 0" stroke="#000000" stroke-width="1" fill="none"></path></g><g transform="translate(331.2998398358269 455.14162838594183) rotate(0 54.5 42)"><text x="54.5" y="33" font-family="Helvetica, Segoe UI Emoji" font-size="36px" fill="#000000" text-anchor="middle" style="white-space: pre;" direction="ltr">Miden </text><text x="54.5" y="75" font-family="Helvetica, Segoe UI Emoji" font-size="36px" fill="#000000" text-anchor="middle" style="white-space: pre;" direction="ltr">Node</text></g><g stroke-linecap="round" transform="translate(115.2998398358269 727.9170190109419) rotate(0 45.5 42)"><path d="M21 0 M21 0 C37.09 -0.44, 50.95 0.04, 70 0 M21 0 C35.27 1.12, 48.86 -0.49, 70 0 M70 0 C82.44 1.06, 92.44 6.27, 91 21 M70 0 C83.93 -2.29, 92.72 9.26, 91 21 M91 21 C91.99 33.8, 91.45 45.04, 91 63 M91 21 C91 33.3, 90.53 45.1, 91 63 M91 63 C91.61 77.97, 83.55 83.63, 70 84 M91 63 C91.91 75.48, 81.88 82.72, 70 84 M70 84 C53.72 82.38, 39.13 83.07, 21 84 M70 84 C55.92 83.6, 42.69 84.41, 21 84 M21 84 C8.85 82.85, 0.65 77.68, 0 63 M21 84 C9.07 85.09, 1.73 75.14, 0 63 M0 63 C0.48 53.61, 1.9 43.18, 0 21 M0 63 C-0.53 50.38, 0.15 39.17, 0 21 M0 21 C-1.55 5.53, 8.61 1.47, 21 0 M0 21 C2.08 6.69, 8.98 -0.17, 21 0" stroke="#000000" stroke-width="1" fill="none"></path></g><g transform="translate(130.2998398358269 746.9170190109419) rotate(0 30.5 23)"><text x="30.5" y="19" font-family="Helvetica, Segoe UI Emoji" font-size="20px" fill="#000000" text-anchor="middle" style="white-space: pre;" direction="ltr">Miden </text><text x="30.5" y="42" font-family="Helvetica, Segoe UI Emoji" font-size="20px" fill="#000000" text-anchor="middle" style="white-space: pre;" direction="ltr">Client</text></g><g stroke-linecap="round" transform="translate(286.0029648358269 728.8818627609419) rotate(0 45.5 42)"><path d="M21 0 M21 0 C41.87 -1.73, 60.98 -1.62, 70 0 M21 0 C32.3 0.47, 42.85 0.01, 70 0 M70 0 C84.62 0.21, 90.31 6.11, 91 21 M70 0 C84.88 -1.7, 91.17 6.55, 91 21 M91 21 C91.21 29.08, 89.47 40.76, 91 63 M91 21 C91.32 37.2, 91.24 53.87, 91 63 M91 63 C91.35 75.39, 82.18 83.66, 70 84 M91 63 C92.48 79.05, 84.04 83.31, 70 84 M70 84 C52.52 83.19, 37.49 83.69, 21 84 M70 84 C52.97 83.1, 36.33 84.21, 21 84 M21 84 C8.15 82.47, 1.88 78.54, 0 63 M21 84 C5.83 82.62, -0.13 75.27, 0 63 M0 63 C-1.43 48.73, -0.14 31.78, 0 21 M0 63 C0.55 52.69, 0.11 40.31, 0 21 M0 21 C1.03 8.6, 8.8 -0.27, 21 0 M0 21 C-0.91 6.72, 6.59 -0.39, 21 0" stroke="#000000" stroke-width="1" fill="none"></path></g><g transform="translate(301.0029648358269 747.8818627609419) rotate(0 30.5 23)"><text x="30.5" y="19" font-family="Helvetica, Segoe UI Emoji" font-size="20px" fill="#000000" text-anchor="middle" style="white-space: pre;" direction="ltr">Miden </text><text x="30.5" y="42" font-family="Helvetica, Segoe UI Emoji" font-size="20px" fill="#000000" text-anchor="middle" style="white-space: pre;" direction="ltr">Client</text></g><g stroke-linecap="round" transform="translate(464.5810898358269 729.8076440109419) rotate(0 45.5 42)"><path d="M21 0 M21 0 C38.25 0.51, 56.18 1.39, 70 0 M21 0 C31.65 0.67, 43.27 -0.37, 70 0 M70 0 C84.53 -1.29, 92.82 7.93, 91 21 M70 0 C85.32 -1.76, 93.16 8.78, 91 21 M91 21 C89.25 32.83, 92.34 40.37, 91 63 M91 21 C91.12 30.96, 91.72 41.28, 91 63 M91 63 C92.49 78.74, 84.61 83.33, 70 84 M91 63 C92.18 78.84, 86.07 83.7, 70 84 M70 84 C56.91 84.37, 43.01 82.77, 21 84 M70 84 C52.14 84.22, 32.4 83.55, 21 84 M21 84 C7.06 83.04, 0.37 76.1, 0 63 M21 84 C6.18 84.79, 1.66 77.12, 0 63 M0 63 C-1.37 55.64, -0.91 46.13, 0 21 M0 63 C-0.24 53.53, -0.14 45, 0 21 M0 21 C0.12 8.62, 5.82 0.58, 21 0 M0 21 C0.15 5.62, 7.16 2.07, 21 0" stroke="#000000" stroke-width="1" fill="none"></path></g><g transform="translate(479.5810898358269 748.8076440109419) rotate(0 30.5 23)"><text x="30.5" y="19" font-family="Helvetica, Segoe UI Emoji" font-size="20px" fill="#000000" text-anchor="middle" style="white-space: pre;" direction="ltr">Miden </text><text x="30.5" y="42" font-family="Helvetica, Segoe UI Emoji" font-size="20px" fill="#000000" text-anchor="middle" style="white-space: pre;" direction="ltr">Client</text></g><g stroke-linecap="round" transform="translate(634.9599960858269 732.2451440109419) rotate(0 45.5 42)"><path d="M21 0 M21 0 C30.86 -1.49, 44.26 -0.61, 70 0 M21 0 C39.67 0.96, 58.78 -0.79, 70 0 M70 0 C83.46 -0.22, 89.22 5.27, 91 21 M70 0 C81.73 0.16, 91.65 6.3, 91 21 M91 21 C89.48 34.27, 89.66 51.05, 91 63 M91 21 C90.85 31.19, 90.98 40.85, 91 63 M91 63 C89.25 75.98, 84.27 85.92, 70 84 M91 63 C91.42 76.09, 83.04 82.35, 70 84 M70 84 C55.68 83.75, 40.86 84.28, 21 84 M70 84 C52.61 83.54, 34.41 83.49, 21 84 M21 84 C7.17 84.26, -0.94 78.64, 0 63 M21 84 C5.69 84.06, 1.19 78.27, 0 63 M0 63 C2.01 49.74, 0.87 41.23, 0 21 M0 63 C-0.76 52.69, -0.74 43.54, 0 21 M0 21 C0.16 6.95, 7.63 1.82, 21 0 M0 21 C-0.81 7.61, 7.36 -0.35, 21 0" stroke="#000000" stroke-width="1" fill="none"></path></g><g transform="translate(649.9599960858269 751.2451440109419) rotate(0 30.5 23)"><text x="30.5" y="19" font-family="Helvetica, Segoe UI Emoji" font-size="20px" fill="#000000" text-anchor="middle" style="white-space: pre;" direction="ltr">Miden </text><text x="30.5" y="42" font-family="Helvetica, Segoe UI Emoji" font-size="20px" fill="#000000" text-anchor="middle" style="white-space: pre;" direction="ltr">Client</text></g><g stroke-linecap="round" transform="translate(155.7817043148591 870.3213603492993) rotate(0 14.128231250151174 15.502856190673867)"><path d="M7.45 0.85 C9.8 -0.93, 14.87 -1.33, 17.77 -0.29 C20.67 0.74, 22.98 4.18, 24.84 7.08 C26.7 9.97, 29.18 13.77, 28.93 17.08 C28.68 20.38, 25.59 24.49, 23.36 26.9 C21.13 29.3, 18.33 31.29, 15.56 31.51 C12.78 31.72, 9.24 30.11, 6.73 28.17 C4.21 26.23, 1.37 23.05, 0.46 19.84 C-0.45 16.64, -0.33 12.08, 1.26 8.97 C2.85 5.85, 8.05 2.45, 9.99 1.16 C11.94 -0.13, 12.87 1.08, 12.95 1.22 M16.07 1.11 C19.24 1.11, 23.19 2.09, 25.19 4.03 C27.2 5.96, 28.03 9.61, 28.11 12.7 C28.2 15.78, 27.58 19.8, 25.72 22.52 C23.86 25.23, 19.91 27.6, 16.98 29 C14.04 30.39, 10.51 31.82, 8.12 30.87 C5.73 29.93, 4.02 26.69, 2.62 23.34 C1.21 20, -0.77 14.17, -0.29 10.8 C0.2 7.43, 2.91 5.05, 5.54 3.1 C8.17 1.15, 13.73 -0.34, 15.5 -0.91 C17.27 -1.47, 16.06 -0.46, 16.17 -0.27" stroke="#000000" stroke-width="2" fill="none"></path></g><g stroke-linecap="round"><g transform="translate(168.46301917245034 901.4204213430537) rotate(0 0.0008728961001054358 18.185787104845474)"><path d="M0.83 -1.01 C0.65 5.35, 0.12 31.28, -0.47 37.38 M-0.2 1.08 C-0.48 7.2, -0.79 29.95, -0.82 35.87" stroke="#000000" stroke-width="2" fill="none"></path></g></g><mask></mask><g stroke-linecap="round"><g transform="translate(166.93811190865574 938.63283117886) rotate(0 7.248334404064309 11.30165983881227)"><path d="M-1.01 1.13 C1.7 4.48, 13.05 17.53, 15.5 20.98 M0.66 0.67 C3.38 4.07, 13.17 18.22, 15.17 21.93" stroke="#000000" stroke-width="2" fill="none"></path></g></g><mask></mask><g stroke-linecap="round"><g transform="translate(164.96058706161523 937.1497064844041) rotate(0 -6.122075972803827 10.944015759504055)"><path d="M1.13 1.17 C-1.24 4.66, -11.09 16.88, -13.37 19.92 M0.26 0.74 C-1.83 4.47, -8.95 17.9, -11.24 21.15" stroke="#000000" stroke-width="2" fill="none"></path></g></g><mask></mask><g stroke-linecap="round"><g transform="translate(154.74387418912954 908.481412491522) rotate(0 8.029147694342157 6.68168687027503)"><path d="M1.17 -1.11 C3.56 0.89, 11.38 10.87, 13.33 13.08 M0.33 0.93 C3.21 3.61, 13.25 12.48, 15.73 14.47" stroke="#000000" stroke-width="2" fill="none"></path></g></g><mask></mask><g stroke-linecap="round"><g transform="translate(169.55191669930593 921.5705310611479) rotate(0 9.33732831360794 -5.336943101939653)"><path d="M-1.11 -0.59 C2 -2.85, 16.45 -10.65, 19.78 -12.38 M0.51 1.71 C3.34 0.07, 15.25 -9.54, 18.68 -11.41" stroke="#000000" stroke-width="2" fill="none"></path></g></g><mask></mask><g stroke-linecap="round"><g transform="translate(181.4948381062827 878.5072434440979) rotate(0 -11.207901534372724 5.045912456031601)"><path d="M-0.59 -0.28 C-2.18 0.61, -5.28 3.7, -8.37 4.28 C-11.45 4.85, -16.54 2.06, -19.1 3.16 C-21.66 4.25, -23 9.36, -23.71 10.84 M1.3 -1.48 C-0.04 -0.38, -2.71 4.73, -6.21 5.19 C-9.71 5.65, -16.83 0.22, -19.71 1.29 C-22.58 2.35, -22.65 9.66, -23.48 11.57" stroke="#000000" stroke-width="2" fill="none"></path></g></g><mask></mask><g stroke-linecap="round"><g transform="translate(157.6696911128837 878.6043052225216) rotate(0 -4.329896754872692 8.69463708334655)"><path d="M-0.28 -1.07 C-0.45 -1.62, -1.52 -3.24, -2.13 -3.93 C-2.74 -4.62, -2.59 -6.27, -3.94 -5.21 C-5.3 -4.14, -9.84 -2.16, -10.25 2.49 C-10.67 7.14, -7.7 21.04, -6.43 22.69 C-5.16 24.34, -3.71 16.08, -2.63 12.41 C-1.55 8.74, -0.36 2.71, 0.05 0.69 M1.77 0.98 C2.04 0.1, 0.96 -5.07, -0.04 -5.89 C-1.04 -6.7, -2.51 -5.51, -4.23 -3.91 C-5.96 -2.3, -9.82 -0.8, -10.38 3.75 C-10.95 8.31, -8.65 22.14, -7.64 23.42 C-6.62 24.7, -5.7 15.4, -4.31 11.44 C-2.92 7.49, 0.22 1.6, 0.71 -0.29" stroke="#000000" stroke-width="2" fill="none"></path></g></g><mask></mask><g stroke-linecap="round" transform="translate(148.81621904932808 900.4927453232558) rotate(18.529685470617636 3.9721192520348154 8.259374904530773)"><path d="M-0.79 0.2 C2.59 0.05, 3.51 0.27, 8.28 0.43 M0.23 -0.07 C3.19 -0.18, 6.43 0.12, 8.27 -0.14 M7.5 1.37 C9.16 6.57, 7.84 9.9, 6.98 16.21 M7.66 0.6 C8.38 3.84, 7.45 6.15, 7.91 16.49 M7.63 17.26 C4.49 16.85, 1.86 16.16, 0.6 16.35 M7.81 16.68 C4.94 16.16, 2.15 16.55, 0.13 16.69 M0.88 18.12 C-0.74 12.53, -0.87 6.2, -0.32 0.23 M0.58 16.39 C-0.28 11.75, 0.7 6.86, -0.02 -0.14" stroke="#000000" stroke-width="1" fill="none"></path></g><g stroke-linecap="round" transform="translate(499.0182533334961 865.7684510707279) rotate(0 16.853101830735 15.511671307640597)"><path d="M16.42 -0.67 C20 -1.22, 24.93 0.56, 27.79 2.55 C30.65 4.54, 32.86 7.82, 33.57 11.28 C34.29 14.74, 33.74 20.25, 32.09 23.32 C30.45 26.38, 26.88 28.66, 23.7 29.68 C20.52 30.7, 16.36 30.44, 13.03 29.43 C9.7 28.43, 5.81 26.22, 3.71 23.65 C1.62 21.09, 0.15 17.32, 0.46 14.04 C0.76 10.76, 2.77 6.19, 5.55 3.97 C8.33 1.74, 14.56 1.14, 17.11 0.67 C19.66 0.2, 20.8 0.99, 20.85 1.12 M23.16 2.73 C26.29 3.88, 31.39 5.99, 32.84 8.56 C34.28 11.14, 32.87 15.07, 31.85 18.16 C30.83 21.26, 29.5 24.77, 26.7 27.14 C23.91 29.52, 18.52 32.62, 15.08 32.42 C11.63 32.23, 8.51 28.49, 6.05 25.96 C3.6 23.43, 0.75 20.54, 0.36 17.24 C-0.03 13.93, 1.87 9.06, 3.7 6.13 C5.53 3.2, 7.9 0.41, 11.35 -0.34 C14.8 -1.1, 22.43 1.24, 24.4 1.59 C26.37 1.94, 23.38 1.65, 23.16 1.78" stroke="#000000" stroke-width="2" fill="none"></path></g><g stroke-linecap="round"><g transform="translate(513.9963258010716 896.8004602982198) rotate(0 -0.9762062669400962 18.456473031744395)"><path d="M0.84 -0.14 C0.63 6.4, -1.48 32.03, -1.78 38.18 M-0.18 -1.27 C-0.51 5.01, -2.6 29.87, -2.79 36.35" stroke="#000000" stroke-width="2" fill="none"></path></g></g><mask></mask><g stroke-linecap="round"><g transform="translate(512.5746046062661 935.2344251385605) rotate(0 6.888578185913218 11.195648676779967)"><path d="M-0.14 -0.13 C2.61 3.67, 13.09 19.6, 15.46 23.63 M-1.68 -1.24 C1.06 2.14, 11.78 17.96, 14.81 21.87" stroke="#000000" stroke-width="2" fill="none"></path></g></g><mask></mask><g stroke-linecap="round"><g transform="translate(512.4851801301703 934.2144960930352) rotate(0 -7.428421190545976 10.33528178033896)"><path d="M-0.13 0.57 C-2.62 3.88, -11.87 16.52, -14.15 19.75 M-1.65 -0.18 C-4.32 3.28, -12.68 17.32, -14.73 20.85" stroke="#000000" stroke-width="2" fill="none"></path></g></g><mask></mask><g stroke-linecap="round"><g transform="translate(499.5971389255192 903.9280604167373) rotate(0 6.748085291705877 7.130679021351227)"><path d="M0.57 0.69 C2.56 3.09, 9.9 12.11, 11.82 14.25 M-0.59 0.01 C1.79 2.11, 12.16 10.8, 14.09 12.7" stroke="#000000" stroke-width="2" fill="none"></path></g></g><mask></mask><g stroke-linecap="round"><g transform="translate(513.370517928481 917.1962973391769) rotate(0 11.652652610326072 -5.321376903041937)"><path d="M0.69 -0.84 C4.66 -2.93, 19.99 -10.1, 23.71 -11.97 M-0.4 1.33 C3.52 -0.66, 19.52 -8.67, 23.33 -10.75" stroke="#000000" stroke-width="2" fill="none"></path></g></g><mask></mask><g stroke-linecap="round"><g transform="translate(493.51654104505224 868.48873939539) rotate(0 24.688677764428235 5.427391303850811)"><path d="M-0.84 1.08 C7.03 2.68, 39.74 8.75, 47.82 10.25 M0.92 0.61 C9.14 1.77, 42.01 6.52, 50.22 8.33" stroke="#000000" stroke-width="2" fill="none"></path></g></g><mask></mask><g stroke-linecap="round" transform="translate(504.3452953593678 862.0416991030793) rotate(10.74366233694554 14.492641357926232 4.999309375460655)"><path d="M-1.3 -1.59 L28.44 -0.8 L28.76 11.58 L-0.52 11.44" stroke="none" stroke-width="0" fill="#fff"></path><path d="M-1.01 0.66 C9.12 0.07, 22.47 0.03, 28.87 1.95 M0.35 0.3 C6.24 -0.17, 10.91 0.75, 29.56 0.48 M29.83 -0.28 C28.53 3.3, 29.49 4.65, 28.1 9.19 M29.47 0.33 C28.71 3.12, 28.99 6.31, 28.78 9.67 M28.29 10.14 C21.98 9.42, 13.88 10.58, -0.71 10.92 M29.35 9.13 C17.76 11.09, 7.17 10.8, -0.29 9.23 M-0.86 9.82 C-0.25 6.79, 0.92 4.16, -0.35 -0.89 M0.44 9.77 C-0.26 6.99, 0.36 4.83, -0.27 0.26" stroke="#000000" stroke-width="2" fill="none"></path></g><g stroke-linecap="round" transform="translate(324.6575284221264 869.6534855607808) rotate(0 16.354959714477815 15.05317904612815)"><path d="M11.49 0.66 C14.73 -0.76, 20.13 -0.99, 23.51 0.17 C26.88 1.33, 30.21 4.56, 31.74 7.62 C33.27 10.68, 33.53 15.35, 32.69 18.53 C31.84 21.7, 29.66 24.63, 26.67 26.66 C23.68 28.69, 18.19 30.72, 14.74 30.72 C11.29 30.73, 8.48 28.99, 5.95 26.69 C3.42 24.4, -0.01 20.09, -0.44 16.95 C-0.87 13.81, 1.08 10.74, 3.37 7.88 C5.65 5.01, 11.06 0.95, 13.28 -0.22 C15.51 -1.4, 16.66 0.66, 16.72 0.83 M9.44 2.66 C12.57 1.34, 18.6 -0.71, 22.08 0.02 C25.56 0.74, 28.44 4.33, 30.32 7.03 C32.2 9.73, 33.97 13.21, 33.34 16.22 C32.72 19.24, 29.15 22.77, 26.57 25.12 C23.98 27.46, 21.27 29.93, 17.84 30.28 C14.42 30.63, 8.94 29.25, 6.03 27.21 C3.12 25.17, 1.24 21.11, 0.37 18.02 C-0.49 14.93, -0.67 11.36, 0.83 8.67 C2.33 5.99, 7.7 2.9, 9.38 1.9 C11.07 0.91, 10.58 2.5, 10.94 2.7" stroke="#000000" stroke-width="2" fill="none"></path></g><g stroke-linecap="round"><g transform="translate(339.1516120804284 899.5929832397837) rotate(0 -0.9275214031786447 18.397327341666255)"><path d="M0.4 -0.75 C-0.02 5.61, -1.1 31.35, -1.41 37.54 M-0.86 1.48 C-1.51 7.57, -2.04 29.93, -2.25 35.97" stroke="#000000" stroke-width="2" fill="none"></path></g></g><mask></mask><g stroke-linecap="round"><g transform="translate(337.68975298843196 937.0266190291711) rotate(0 7.372010834078878 11.658086981425754)"><path d="M-0.75 0.2 C1.94 3.87, 12.97 18.56, 15.49 22.43 M1.06 -0.74 C3.73 3.11, 13 20.32, 15.09 24.06" stroke="#000000" stroke-width="2" fill="none"></path></g></g><mask></mask><g stroke-linecap="round"><g transform="translate(335.6339742660634 935.5855425258349) rotate(0 -6.424624998427333 11.3251553520509)"><path d="M0.2 1.04 C-1.9 4.6, -10.29 17.52, -12.19 20.61 M-1.16 0.54 C-3.43 4.37, -11.35 18.82, -13.05 22.11" stroke="#000000" stroke-width="2" fill="none"></path></g></g><mask></mask><g stroke-linecap="round"><g transform="translate(319.1983356080065 920.333177068049) rotate(0 9.580443511801434 -6.1996515103733145)"><path d="M1.04 0.17 C4.34 -1.7, 16.21 -9.18, 19.03 -11.06 M0.13 -0.78 C3.33 -2.98, 14.69 -10.55, 18.05 -12.57" stroke="#000000" stroke-width="2" fill="none"></path></g></g><mask></mask><g stroke-linecap="round"><g transform="translate(337.84711616525914 907.3966040850014) rotate(0 6.819955721048473 7.466831969609075)"><path d="M0.17 -0.07 C2.61 2.28, 12.4 12.5, 14.84 15.15 M-1.2 -1.15 C1.17 1.82, 11.87 13.09, 14.5 16.09" stroke="#000000" stroke-width="2" fill="none"></path></g></g><mask></mask><g transform="translate(325.4310160986889 873.5171036853683) rotate(0 15.500000000000028 6.5)"><text x="0" y="10" font-family="Virgil, Segoe UI Emoji" font-size="8.98582076310733px" fill="#000000" text-anchor="start" style="white-space: pre;" direction="ltr">｡◕‿◕｡</text></g><g stroke-linecap="round" transform="translate(674.4930543162262 859.9440365574128) rotate(202.77540904823977 16.439943776945654 15.13139876239336)"><path d="M24.05 1.87 C27.16 2.84, 29.76 5.07, 31.22 8.08 C32.69 11.1, 33.7 16.81, 32.84 19.98 C31.97 23.16, 29.08 25.31, 26.02 27.15 C22.95 28.99, 17.9 31.33, 14.45 31.02 C11.01 30.71, 7.85 27.63, 5.37 25.29 C2.9 22.95, -0.14 20.19, -0.41 16.97 C-0.69 13.75, 1.71 8.87, 3.73 5.98 C5.75 3.09, 8.25 0.41, 11.69 -0.39 C15.14 -1.18, 22.28 0.59, 24.41 1.23 C26.55 1.86, 24.54 3.17, 24.51 3.43 M17.36 -0.92 C20.52 -0.85, 24.61 2.69, 27.22 5.08 C29.83 7.46, 32.57 10.26, 33.03 13.38 C33.48 16.51, 32.1 21.25, 29.95 23.83 C27.8 26.41, 23.49 28.1, 20.13 28.84 C16.77 29.58, 12.8 29.36, 9.81 28.27 C6.82 27.19, 3.52 25.04, 2.19 22.34 C0.85 19.64, 0.89 15.57, 1.8 12.07 C2.71 8.58, 5.14 3.16, 7.63 1.39 C10.13 -0.39, 15.3 1.44, 16.78 1.43 C18.25 1.41, 16.39 1.46, 16.49 1.29" stroke="#000000" stroke-width="2" fill="none"></path></g><g stroke-linecap="round"><g transform="translate(689.73110825275 891.406717424509) rotate(0 -1.4205046532974848 18.87306278772661)"><path d="M-1.14 1.11 C-1.47 7.1, -2.08 31.12, -2.1 37.1 M0.47 0.64 C-0.06 6.77, -2.93 29.5, -3.31 35.2" stroke="#000000" stroke-width="2" fill="none"></path></g></g><mask></mask><g stroke-linecap="round"><g transform="translate(688.3420176978134 929.0860445888832) rotate(0 7.5836888548302 10.4687466073579)"><path d="M1.11 -0.49 C3.4 3.49, 12.65 18.98, 14.94 22.73 M0.23 -1.79 C2.3 1.91, 11.87 16.64, 14.21 20.8" stroke="#000000" stroke-width="2" fill="none"></path></g></g><mask></mask><g stroke-linecap="round"><g transform="translate(687.8198085363696 927.2583733268987) rotate(0 -6.52731494802174 10.289695517324617)"><path d="M-0.49 0.42 C-2.59 3.73, -11.42 17.82, -13.75 20.99 M1.45 -0.41 C-0.68 3.04, -11.7 15.62, -14.51 19.05" stroke="#000000" stroke-width="2" fill="none"></path></g></g><mask></mask><g stroke-linecap="round"><g transform="translate(674.983238766616 913.27861260592) rotate(0 6.343099709474416 -5.013896833742535)"><path d="M0.42 0.36 C2.48 -1.29, 11.58 -8.78, 13.51 -10.38 M-0.82 -0.5 C1.02 -1.93, 10.23 -7.24, 12.74 -9.03" stroke="#000000" stroke-width="2" fill="none"></path></g></g><mask></mask><g stroke-linecap="round"><g transform="translate(689.5401828619479 903.4455981529347) rotate(0 6.159463329670189 4.452484124498142)"><path d="M0.36 0.34 C2.64 1.69, 10.91 6.84, 13.23 8.51 M-0.91 -0.52 C1.23 0.89, 9.63 7.94, 12.11 9.43" stroke="#000000" stroke-width="2" fill="none"></path></g></g><mask></mask><g stroke-linecap="round"><g transform="translate(700.0738404313045 863.0404499861959) rotate(0 -13.341574697850547 9.965492619927431)"><path d="M0.34 -0.34 C-0.87 1.2, -4.51 7.27, -6.87 9.58 C-9.23 11.89, -11.05 12.93, -13.83 13.52 C-16.62 14.11, -21.54 11.8, -23.59 13.13 C-25.63 14.46, -25.45 20.36, -26.09 21.5 M-0.94 -1.56 C-1.84 -0.4, -2.56 5.67, -4.78 7.85 C-7 10.02, -11.08 10.43, -14.23 11.48 C-17.39 12.53, -21.58 12.92, -23.71 14.14 C-25.84 15.35, -26.61 17.4, -27.03 18.76" stroke="#000000" stroke-width="1" fill="none"></path></g></g><mask></mask><g stroke-linecap="round"><g transform="translate(698.3298848339963 862.6756411566946) rotate(0 -11.24846928123577 6.3965242988005)"><path d="M-0.34 -1.19 C-1.51 0.19, -3.98 6.55, -6.66 8.61 C-9.34 10.66, -13.49 10.27, -16.41 11.16 C-19.32 12.06, -23.08 13.74, -24.18 13.98 M1.68 0.8 C0.39 1.8, -4.12 4.96, -7.21 6.85 C-10.31 8.73, -14.06 11.26, -16.87 12.11 C-19.67 12.96, -22.85 11.84, -24.03 11.96" stroke="#000000" stroke-width="1" fill="none"></path></g></g><mask></mask><g stroke-linecap="round"><g transform="translate(696.980079125523 861.0511938152886) rotate(0 -10.79022997319754 5.841393041875278)"><path d="M-1.19 0.75 C-3.17 1.62, -8.07 3.26, -11.53 4.86 C-14.99 6.46, -20.52 9.24, -21.97 10.36 M0.39 0.1 C-1.72 0.64, -8.81 1.13, -12.12 3.04 C-15.42 4.95, -18.22 10.5, -19.44 11.58" stroke="#000000" stroke-width="1" fill="none"></path></g></g><mask></mask><g stroke-linecap="round"><g transform="translate(698.1416326498871 862.3584383597547) rotate(0 -10.3572114051521 6.019857116688115)"><path d="M0.75 0.69 C-0.52 1.76, -4.91 3.58, -7.96 5.24 C-11.01 6.89, -15.3 9.65, -17.55 10.63 C-19.8 11.61, -20.56 10.79, -21.47 11.1 M-0.31 0.01 C-1.66 1.33, -5.59 4.93, -8.6 6.4 C-11.62 7.87, -16.39 7.89, -18.41 8.83 C-20.42 9.76, -20.24 11.87, -20.69 12.03" stroke="#000000" stroke-width="1" fill="none"></path></g></g><mask></mask><g stroke-linecap="round"><g transform="translate(697.0368630767339 861.8215374818012) rotate(0 -10.101120851297026 5.593895412951042)"><path d="M0.69 0.58 C-0.93 1.34, -7.34 3.53, -10.9 5.33 C-14.46 7.12, -18.81 10.6, -20.67 11.35 M-0.4 -0.16 C-1.53 0.72, -5.14 5.16, -8.56 6.77 C-11.97 8.39, -18.66 8.89, -20.89 9.54" stroke="#000000" stroke-width="1" fill="none"></path></g></g><mask></mask><g stroke-linecap="round"><g transform="translate(694.9043004866003 860.6850468501991) rotate(0 -8.509611116812152 4.498396939756901)"><path d="M0.58 -0.71 C-1.51 -0.1, -8.8 2.81, -11.8 4.36 C-14.79 5.9, -16.18 7.63, -17.36 8.56 M-0.57 1.54 C-2.91 1.77, -10 1.41, -12.84 2.77 C-15.67 4.13, -16.58 8.84, -17.6 9.7" stroke="#000000" stroke-width="1" fill="none"></path></g></g><mask></mask><g stroke-linecap="round"><g stroke-opacity="0.7" fill-opacity="0.7" transform="translate(674.6272641444405 875.7283905190327) rotate(0 -4.044480601044199 -4.601150462111036)"><path d="M-0.71 -0.18 C-1.48 -0.19, -2.71 1.21, -3.93 0.51 C-5.14 -0.19, -7.79 -3.1, -8 -4.37 C-8.22 -5.64, -6.31 -6.35, -5.21 -7.12 C-4.1 -7.88, -2.28 -9.53, -1.39 -8.95 C-0.49 -8.36, -0.13 -4.41, 0.16 -3.59 M1.12 -1.32 C0.22 -1.7, -2.66 -0.75, -4.34 -1.08 C-6.02 -1.42, -8.32 -1.95, -8.94 -3.33 C-9.56 -4.71, -9.05 -8.38, -8.06 -9.34 C-7.06 -10.31, -4.48 -9.9, -2.96 -9.11 C-1.44 -8.32, 0.47 -5.81, 1.06 -4.61" stroke="#000000" stroke-width="1" fill="none"></path></g></g><mask></mask><g stroke-linecap="round"><g stroke-opacity="0.7" fill-opacity="0.7" transform="translate(665.9621360048778 870.0444156349236) rotate(0 3.051477562063269 2.9867966552346843)"><path d="M-0.18 1.02 C0.52 1.61, 3.43 2.09, 4.76 2.83 C6.1 3.57, 7.13 5.23, 7.84 5.46 M-1.73 0.51 C-1.16 1.34, 2.92 3.67, 4.34 4.2 C5.76 4.72, 5.92 3.51, 6.79 3.68" stroke="#000000" stroke-width="1" fill="none"></path></g></g><mask></mask><g stroke-linecap="round"><g stroke-opacity="0.7" fill-opacity="0.7" transform="translate(666.8734661564313 869.0785049413537) rotate(0 3.9460187875034194 2.267958458892622)"><path d="M1.02 1.01 C1.85 1.04, 3.15 -0.58, 4.28 0.03 C5.41 0.63, 7.42 4.16, 7.79 4.64 M0.1 0.49 C0.81 0.7, 1.91 0.93, 3.16 1.29 C4.41 1.64, 7 2.26, 7.59 2.63" stroke="#000000" stroke-width="1" fill="none"></path></g></g><mask></mask><g stroke-linecap="round"><g stroke-opacity="0.7" fill-opacity="0.7" transform="translate(666.98181570931 870.1833148247715) rotate(0 3.7126980461293897 1.7394068286669722)"><path d="M1.01 -0.33 C1.45 0, 1.43 2.3, 2.48 2.99 C3.54 3.68, 6.82 3.81, 7.34 3.82 M0.08 -1.55 C0.34 -1.02, 0.12 0.33, 1.26 1.43 C2.39 2.53, 6.22 4.66, 6.91 5.03" stroke="#000000" stroke-width="1" fill="none"></path></g></g><mask></mask><g stroke-linecap="round"><g transform="translate(706.613896448018 952.6949114848758) rotate(0 -2.830770320755505 -22.047418902559514)"><path d="M-0.33 -0.53 C-0.19 -6.36, 2.1 -26.5, 1.88 -33.96 C1.66 -41.43, -0.23 -43.82, -1.64 -45.33 C-3.05 -46.83, -5.62 -45.11, -6.59 -42.99 C-7.57 -40.87, -7.66 -34.54, -7.49 -32.61 M1.7 1.8 C1.68 -3.86, 2.2 -28.03, 1.5 -35.76 C0.79 -43.49, -1.12 -43.55, -2.51 -44.57 C-3.9 -45.59, -6.32 -43.89, -6.85 -41.87 C-7.39 -39.84, -5.66 -34.06, -5.71 -32.42" stroke="#000000" stroke-width="2" fill="none"></path></g></g><mask></mask><g stroke-linecap="round"><g transform="translate(177.2881210858269 714.7920190109419) rotate(0 71.08662893399597 -64.72604228607378)"><path d="M-0.61 -0.61 C23.31 -22.33, 119.09 -107.8, 142.78 -129.62 M1.27 1.68 C25.16 -20.4, 119.01 -109.09, 142.21 -131.13" stroke="#000000" stroke-width="1" fill="none"></path></g><g transform="translate(177.2881210858269 714.7920190109419) rotate(0 71.08662893399597 -64.72604228607378)"><path d="M12.49 -25.88 C12.24 -21.74, 5.75 -15.41, 1.09 0.72 M14.24 -26.29 C9.52 -20.03, 6.63 -13.8, -0.93 0.1" stroke="#000000" stroke-width="1" fill="none"></path></g><g transform="translate(177.2881210858269 714.7920190109419) rotate(0 71.08662893399597 -64.72604228607378)"><path d="M26.2 -10.61 C22.61 -10.17, 12.85 -7.47, 1.09 0.72 M27.96 -11.02 C19.65 -8.64, 13.19 -6.38, -0.93 0.1" stroke="#000000" stroke-width="1" fill="none"></path></g><g transform="translate(177.2881210858269 714.7920190109419) rotate(0 71.08662893399597 -64.72604228607378)"><path d="M127.77 -103.09 C133.78 -111.49, 133.84 -117.84, 143.91 -129.8 M129.53 -103.5 C131.93 -111.34, 136.22 -118.99, 141.89 -130.42" stroke="#000000" stroke-width="1" fill="none"></path></g><g transform="translate(177.2881210858269 714.7920190109419) rotate(0 71.08662893399597 -64.72604228607378)"><path d="M113.66 -117.99 C123.11 -122.78, 126.52 -125.58, 143.91 -129.8 M115.42 -118.41 C121.51 -122.47, 129.47 -126.24, 141.89 -130.42" stroke="#000000" stroke-width="1" fill="none"></path></g></g><mask></mask><g stroke-linecap="round"><g transform="translate(343.7334335858269 715.5849877609419) rotate(0 2.998600754491065 -63.83922076597807)"><path d="M0.56 0.12 C1.64 -21.01, 5.38 -106.58, 6.61 -127.8 M-0.61 -0.87 C0.3 -21.74, 4.18 -105.66, 5.58 -126.46" stroke="#000000" stroke-width="1" fill="none"></path></g><g transform="translate(343.7334335858269 715.5849877609419) rotate(0 2.998600754491065 -63.83922076597807)"><path d="M-8.19 -28.76 C-6.52 -17.77, -2.71 -12.17, -0.32 0.4 M-8.58 -28.93 C-6.63 -22.03, -4.06 -14.4, 0.06 0.77" stroke="#000000" stroke-width="1" fill="none"></path></g><g transform="translate(343.7334335858269 715.5849877609419) rotate(0 2.998600754491065 -63.83922076597807)"><path d="M12.31 -27.81 C7.68 -17.02, 5.19 -11.71, -0.32 0.4 M11.92 -27.98 C8.58 -21.21, 5.85 -13.82, 0.06 0.77" stroke="#000000" stroke-width="1" fill="none"></path></g><g transform="translate(343.7334335858269 715.5849877609419) rotate(0 2.998600754491065 -63.83922076597807)"><path d="M14.47 -97.99 C11.19 -104.56, 9.58 -116.61, 4.7 -126.18 M14.08 -98.16 C11.27 -105.97, 9.28 -113.14, 5.08 -125.81" stroke="#000000" stroke-width="1" fill="none"></path></g><g transform="translate(343.7334335858269 715.5849877609419) rotate(0 2.998600754491065 -63.83922076597807)"><path d="M-6.02 -99.12 C-3 -105.44, 1.69 -117.13, 4.7 -126.18 M-6.41 -99.29 C-3.93 -106.92, -0.63 -113.8, 5.08 -125.81" stroke="#000000" stroke-width="1" fill="none"></path></g></g><mask></mask><g stroke-linecap="round"><g transform="translate(508.0810898358269 723.0420190109419) rotate(0 -44.03740800246595 -65.9666089095175)"><path d="M1.06 0.2 C-13.7 -22.01, -74.17 -110.27, -89.14 -132.14 M0.16 -0.74 C-14.21 -22.26, -72.61 -108.75, -87.01 -130.79" stroke="#000000" stroke-width="1" fill="none"></path></g><g transform="translate(508.0810898358269 723.0420190109419) rotate(0 -44.03740800246595 -65.9666089095175)"><path d="M-22.94 -19.2 C-17.54 -14.33, -9.47 -8.3, 0.11 -1.09 M-23.1 -17.22 C-13.39 -10.25, -4 -4.06, 2.04 1.14" stroke="#000000" stroke-width="1" fill="none"></path></g><g transform="translate(508.0810898358269 723.0420190109419) rotate(0 -44.03740800246595 -65.9666089095175)"><path d="M-5.98 -30.75 C-4.79 -22.78, -1.04 -13.81, 0.11 -1.09 M-6.14 -28.76 C-2.98 -17.54, -0.05 -6.96, 2.04 1.14" stroke="#000000" stroke-width="1" fill="none"></path></g><g transform="translate(508.0810898358269 723.0420190109419) rotate(0 -44.03740800246595 -65.9666089095175)"><path d="M-62.51 -114.89 C-69.79 -118.58, -74.08 -121.54, -87.97 -132.08 M-62.67 -112.9 C-71.09 -119.76, -80.15 -127.01, -86.03 -129.85" stroke="#000000" stroke-width="1" fill="none"></path></g><g transform="translate(508.0810898358269 723.0420190109419) rotate(0 -44.03740800246595 -65.9666089095175)"><path d="M-79.59 -103.51 C-82.62 -110.25, -82.56 -116.11, -87.97 -132.08 M-79.75 -101.53 C-81.56 -112.58, -84.13 -124.15, -86.03 -129.85" stroke="#000000" stroke-width="1" fill="none"></path></g></g><mask></mask><g stroke-linecap="round"><g transform="translate(679.7139023358269 718.4482690109419) rotate(0 -101.41611949811227 -72.70757179632784)"><path d="M0.5 0.75 C-33.4 -23.61, -168.69 -121.62, -202.99 -146.17 M-0.7 0.1 C-34.69 -24.12, -169.61 -120.68, -203.33 -144.98" stroke="#000000" stroke-width="1" fill="none"></path></g><g transform="translate(679.7139023358269 718.4482690109419) rotate(0 -101.41611949811227 -72.70757179632784)"><path d="M-27.11 -5.5 C-19.93 -6.74, -10.92 -2.1, 1.92 0.92 M-28.32 -8.29 C-21.06 -5.59, -14.08 -2.49, -0.08 -0.06" stroke="#000000" stroke-width="1" fill="none"></path></g><g transform="translate(679.7139023358269 718.4482690109419) rotate(0 -101.41611949811227 -72.70757179632784)"><path d="M-15.1 -22.13 C-11.89 -17.82, -6.86 -7.66, 1.92 0.92 M-16.3 -24.93 C-12.02 -17.85, -8.16 -10.43, -0.08 -0.06" stroke="#000000" stroke-width="1" fill="none"></path></g><g transform="translate(679.7139023358269 718.4482690109419) rotate(0 -101.41611949811227 -72.70757179632784)"><path d="M-173.19 -134.94 C-185.14 -141.34, -195.26 -142.1, -201.91 -144.82 M-174.39 -137.73 C-182.29 -139.03, -190.32 -140.17, -203.9 -145.79" stroke="#000000" stroke-width="1" fill="none"></path></g><g transform="translate(679.7139023358269 718.4482690109419) rotate(0 -101.41611949811227 -72.70757179632784)"><path d="M-185.16 -118.27 C-193.14 -130.24, -199.3 -136.52, -201.91 -144.82 M-186.36 -121.06 C-191.29 -126.74, -196.21 -132.21, -203.9 -145.79" stroke="#000000" stroke-width="1" fill="none"></path></g></g><mask></mask><g transform="translate(194.5068710858269 635.7138940109419) rotate(319.15888626643147 36 9.5)"><text x="0" y="15" font-family="Helvetica, Segoe UI Emoji" font-size="16px" fill="#000000" text-anchor="start" style="white-space: pre;" direction="ltr">RPC calls</text></g><g transform="translate(430.19719827032316 646.7346797933953) rotate(55.13425128739565 46 9.499999999999972)"><text x="0" y="15" font-family="Helvetica, Segoe UI Emoji" font-size="16px" fill="#000000" text-anchor="start" style="white-space: pre;" direction="ltr">Send tx data</text></g><g transform="translate(543.5216587263099 630.8820799039618) rotate(35.03734124043742 44 9.5)"><text x="0" y="15" font-family="Helvetica, Segoe UI Emoji" font-size="16px" fill="#000000" text-anchor="start" style="white-space: pre;" direction="ltr">Send proofs</text></g><g stroke-linecap="round"><g transform="translate(10.320487157255428 342.3801886537989) rotate(0 420.2586971075407 0.9309129190232)"><path d="M-0.32 0.16 C139.68 0.44, 700.87 1.35, 840.84 1.7" stroke="#000000" stroke-width="1.5" fill="none" stroke-dasharray="8 9"></path></g></g><mask></mask><g stroke-linecap="round" transform="translate(150.8450407286839 232.79313508237033) rotate(0 99.28571428571428 35.97098214285714)"><path d="M17.99 0 M17.99 0 C60.88 -0.46, 103.74 -0.52, 180.59 0 M17.99 0 C78.91 0.28, 141.13 1.19, 180.59 0 M180.59 0 C192.95 -0.37, 199.82 5.91, 198.57 17.99 M180.59 0 C190.92 -0.18, 200.64 7.05, 198.57 17.99 M198.57 17.99 C198.15 28.01, 196.78 40.42, 198.57 53.96 M198.57 17.99 C198.62 26.53, 199.23 33.55, 198.57 53.96 M198.57 53.96 C198.3 66.38, 190.64 71.22, 180.59 71.94 M198.57 53.96 C196.61 64.48, 191.39 74.12, 180.59 71.94 M180.59 71.94 C132.29 70.37, 81.26 70.53, 17.99 71.94 M180.59 71.94 C140.28 72.94, 99.48 72.22, 17.99 71.94 M17.99 71.94 C6.84 71.98, -0.11 64.53, 0 53.96 M17.99 71.94 C5.39 73.15, 1.29 66.31, 0 53.96 M0 53.96 C-0.46 40.12, -1.11 28.52, 0 17.99 M0 53.96 C-0.68 42.56, 0.42 30.34, 0 17.99 M0 17.99 C-1.61 7.97, 7.63 -1.69, 17.99 0 M0 17.99 C2.16 7.9, 7.69 -1.47, 17.99 0" stroke="#000000" stroke-width="1" fill="none"></path></g><g transform="translate(193.63075501439812 259.26411722522744) rotate(0 56.5 9.5)"><text x="56.5" y="15" font-family="Helvetica, Segoe UI Emoji" font-size="16px" fill="#000000" text-anchor="middle" style="white-space: pre;" direction="ltr">Verifier contract</text></g><g stroke-linecap="round" transform="translate(440.9399068001127 235.4382243680846) rotate(0 99.28571428571428 35.97098214285714)"><path d="M17.99 0 M17.99 0 C61.08 2.19, 104.44 1.71, 180.59 0 M17.99 0 C52.01 1.54, 84.3 1.2, 180.59 0 M180.59 0 C194.48 -1.3, 199.35 7.58, 198.57 17.99 M180.59 0 C193.29 0.44, 197.96 3.98, 198.57 17.99 M198.57 17.99 C197.73 30.58, 198.5 47.63, 198.57 53.96 M198.57 17.99 C198 31.08, 198.05 44.71, 198.57 53.96 M198.57 53.96 C199.21 66.01, 194.45 71.74, 180.59 71.94 M198.57 53.96 C198.44 66.08, 191.03 70.68, 180.59 71.94 M180.59 71.94 C148.06 71.34, 114.58 69.49, 17.99 71.94 M180.59 71.94 C136.05 72.73, 90.85 73.98, 17.99 71.94 M17.99 71.94 C6.56 71.21, 1.36 65.67, 0 53.96 M17.99 71.94 C7.79 72.15, 1.11 67.55, 0 53.96 M0 53.96 C0.47 43.04, -1.21 29.82, 0 17.99 M0 53.96 C0.56 41.25, 0.92 29.12, 0 17.99 M0 17.99 C-0.82 4.6, 4.84 0.74, 17.99 0 M0 17.99 C-0.02 4.17, 6.09 -0.72, 17.99 0" stroke="#000000" stroke-width="1" fill="none"></path></g><g transform="translate(485.2256210858269 261.9092065109418) rotate(0 55 9.5)"><text x="55" y="15" font-family="Helvetica, Segoe UI Emoji" font-size="16px" fill="#000000" text-anchor="middle" style="white-space: pre;" direction="ltr">Bridge contract</text></g><g stroke-linecap="round" transform="translate(575.2501599466053 18.427161613105767) rotate(0 14.128231250151202 15.502856190673889)"><path d="M13.56 1.08 C16.49 0.44, 19.36 0.78, 21.72 2.43 C24.08 4.09, 26.94 7.96, 27.72 11.02 C28.5 14.08, 27.53 17.57, 26.4 20.81 C25.28 24.04, 23.49 28.88, 20.99 30.4 C18.49 31.93, 14.36 30.8, 11.4 29.97 C8.44 29.15, 5.11 27.88, 3.22 25.44 C1.32 23.01, -0.12 18.91, 0.03 15.34 C0.18 11.78, 1.56 6.58, 4.1 4.06 C6.65 1.53, 13.06 0.61, 15.31 0.17 C17.57 -0.27, 17.68 1.09, 17.63 1.41 M8.28 0.52 C10.86 -0.68, 14.16 0.62, 17.05 1.45 C19.93 2.29, 23.73 2.81, 25.61 5.55 C27.49 8.28, 28.69 14.49, 28.34 17.87 C27.98 21.26, 25.77 23.47, 23.49 25.85 C21.21 28.23, 17.79 31.89, 14.65 32.15 C11.51 32.42, 7.01 29.63, 4.66 27.45 C2.32 25.27, 1.28 21.97, 0.59 19.09 C-0.11 16.21, -0.75 13.13, 0.49 10.16 C1.74 7.19, 6.62 2.6, 8.06 1.27 C9.5 -0.05, 9.22 1.96, 9.11 2.21" stroke="#000000" stroke-width="2" fill="none"></path></g><g stroke-linecap="round"><g transform="translate(587.9314748041966 49.52622260686016) rotate(0 -1.0215383430983138 17.657780864459895)"><path d="M0.52 -0.26 C-0.07 5.78, -2.41 30.48, -2.57 36.76 M-0.66 -1.44 C-0.98 4.19, -0.38 28.74, -0.37 34.93" stroke="#000000" stroke-width="2" fill="none"></path></g></g><mask></mask><g stroke-linecap="round"><g transform="translate(586.406567540402 86.73863244266644) rotate(0 7.311628738773948 11.131421538613615)"><path d="M-0.26 -0.98 C2.13 2.81, 12.25 19.45, 14.88 23.24 M1.8 1.13 C4.04 4.56, 11.96 18.09, 14.23 21.72" stroke="#000000" stroke-width="2" fill="none"></path></g></g><mask></mask><g stroke-linecap="round"><g transform="translate(584.4290426933615 85.25550774821053) rotate(0 -5.367242729696443 10.750109422029617)"><path d="M-0.98 0.55 C-2.91 4.21, -9.17 18.41, -11.11 21.71 M0.71 -0.21 C-1.33 3.18, -9.08 16.59, -11.45 20.21" stroke="#000000" stroke-width="2" fill="none"></path></g></g><mask></mask><g stroke-linecap="round"><g transform="translate(574.2123298208758 56.587213755328406) rotate(0 7.247976714291951 7.570443466427683)"><path d="M0.55 1.16 C3.11 3.49, 12.92 11.01, 15.11 13.05 M-0.62 0.72 C1.91 3.32, 12.55 12.09, 14.79 14.42" stroke="#000000" stroke-width="2" fill="none"></path></g></g><mask></mask><g stroke-linecap="round"><g transform="translate(589.0203723310522 69.67633232495413) rotate(0 10.02741775830765 -5.171006099363716)"><path d="M1.16 1.19 C4.61 -0.82, 16.59 -9.42, 19.75 -11.53 M0.3 0.77 C3.66 -1.11, 15.46 -8.27, 18.64 -10.11" stroke="#000000" stroke-width="2" fill="none"></path></g></g><mask></mask><g stroke-linecap="round"><g transform="translate(600.9632937380289 26.613044707904322) rotate(0 -11.984976447587599 5.387329426015448)"><path d="M1.19 -0.31 C-0.15 0.41, -4.05 5.2, -7.51 5.5 C-10.98 5.8, -16.71 0.34, -19.59 1.47 C-22.47 2.61, -24.33 10.49, -24.81 12.3 M0.36 -1.52 C-1.21 -0.08, -5.11 6.41, -8.58 7.06 C-12.05 7.71, -17.68 1.87, -20.45 2.38 C-23.21 2.89, -24.68 8.34, -25.16 10.13" stroke="#000000" stroke-width="2" fill="none"></path></g></g><mask></mask><g stroke-linecap="round"><g transform="translate(577.1381467446299 26.710106486328044) rotate(0 -3.539223836211022 7.4806252978206516)"><path d="M-0.31 -0.22 C-0.66 -1.15, -0.02 -3.4, -0.9 -4.41 C-1.79 -5.43, -4.31 -7.6, -5.63 -6.31 C-6.94 -5.01, -8.7 -1.23, -8.8 3.38 C-8.89 7.98, -7.13 19.7, -6.19 21.34 C-5.24 22.98, -4.15 16.59, -3.12 13.21 C-2.09 9.82, -0.56 3.38, 0 1.03 M1.72 -1.38 C1.12 -1.62, -1.02 -2.27, -1.83 -2.97 C-2.64 -3.67, -2.09 -6.32, -3.14 -5.58 C-4.2 -4.85, -7.48 -3.04, -8.16 1.45 C-8.85 5.94, -7.77 19.49, -7.26 21.36 C-6.74 23.23, -6.37 16.18, -5.06 12.66 C-3.74 9.13, -0.08 2.61, 0.64 0.23" stroke="#000000" stroke-width="2" fill="none"></path></g></g><mask></mask><g stroke-linecap="round" transform="translate(568.2846746810743 48.59854658706226) rotate(18.529685470617636 3.9721192520348154 8.259374904530759)"><path d="M0.02 -0.12 C2.65 -0.74, 6.84 0.8, 8.45 -0.47 M0.34 0.07 C2.48 -0.15, 5.57 -0.39, 8.06 -0.2 M6.81 0.27 C6.7 5.07, 8.86 11.46, 6.91 16.65 M7.48 0.67 C7.05 5.78, 7.9 12.17, 7.52 17.11 M8.16 15.87 C5.47 17.3, 2.9 15.84, 0.04 16.09 M8.01 16.65 C6.02 16.66, 4.07 16.77, 0.15 16.42 M-0.13 17.5 C0.71 12.89, -0.21 11.32, -0.16 1.33 M-0.49 17.33 C0.66 10.97, 0.87 3.41, -0.66 0.56" stroke="#000000" stroke-width="1" fill="none"></path></g><g stroke-linecap="round" transform="translate(708.8494321795281 16.340770191677194) rotate(0 16.853101830734943 15.511671307640611)"><path d="M12.44 1.45 C15.68 0.23, 19.06 0.44, 22.39 1.54 C25.71 2.65, 30.44 5.2, 32.41 8.06 C34.39 10.92, 35.2 15.53, 34.24 18.73 C33.28 21.92, 29.62 25.36, 26.67 27.25 C23.72 29.13, 19.99 30.13, 16.55 30.04 C13.11 29.94, 8.67 28.83, 6.02 26.65 C3.37 24.47, 1.38 20.28, 0.67 16.97 C-0.04 13.65, -0.4 9.66, 1.77 6.77 C3.93 3.88, 11.41 0.61, 13.65 -0.35 C15.89 -1.31, 15.17 0.74, 15.2 1 M17.03 -0.84 C20.47 -1.03, 26.81 0.17, 29.42 2.56 C32.03 4.95, 32.53 10.09, 32.72 13.51 C32.9 16.92, 32.13 20.23, 30.52 23.03 C28.91 25.83, 26.43 29.02, 23.04 30.32 C19.66 31.62, 13.66 32.29, 10.21 30.82 C6.76 29.35, 4 24.37, 2.34 21.49 C0.68 18.62, -0.37 16.85, 0.25 13.58 C0.88 10.3, 3.2 4.25, 6.09 1.85 C8.99 -0.54, 15.87 -0.78, 17.61 -0.79 C19.35 -0.81, 16.48 1.34, 16.52 1.77" stroke="#000000" stroke-width="2" fill="none"></path></g><g stroke-linecap="round"><g transform="translate(723.8275046471036 47.37277941916912) rotate(0 -1.4838690663497118 18.783948802730986)"><path d="M-0.18 -0.78 C-0.61 5.6, -2.74 31.83, -2.79 38.35 M-1.73 1.42 C-1.79 7.46, -0.86 30.78, -0.67 36.62" stroke="#000000" stroke-width="2" fill="none"></path></g></g><mask></mask><g stroke-linecap="round"><g transform="translate(722.4057834522981 85.80674425950977) rotate(0 7.422821348900015 11.497369213685275)"><path d="M-0.78 -1.14 C1.82 2.92, 12.89 20.24, 15.63 24.13 M1.01 0.88 C3.51 4.65, 12.69 18.92, 15.07 22.63" stroke="#000000" stroke-width="2" fill="none"></path></g></g><mask></mask><g stroke-linecap="round"><g transform="translate(722.3163589762023 84.78681521398451) rotate(0 -6.748441096508941 10.719850699706093)"><path d="M-1.14 0.74 C-3.38 4.43, -11.24 17.95, -13.64 21.36 M0.47 0.08 C-1.81 3.5, -11.72 16.46, -13.97 19.63" stroke="#000000" stroke-width="2" fill="none"></path></g></g><mask></mask><g stroke-linecap="round"><g transform="translate(709.4283177715512 54.50037953768654) rotate(0 6.545389568497285 7.202182706062899)"><path d="M0.74 1.19 C3.11 3.46, 11.34 10.31, 13.42 12.46 M-0.33 0.77 C2.02 3.28, 10.69 11.72, 12.87 13.63" stroke="#000000" stroke-width="2" fill="none"></path></g></g><mask></mask><g stroke-linecap="round"><g transform="translate(723.201696774513 67.76861646012597) rotate(0 12.31142093761349 -5.922199202611743)"><path d="M1.19 0.76 C5.04 -1.16, 18.19 -8.77, 21.92 -10.79 M0.36 0.11 C4.69 -2.23, 20.44 -10.91, 24.26 -12.6" stroke="#000000" stroke-width="2" fill="none"></path></g></g><mask></mask><g stroke-linecap="round"><g transform="translate(703.3477198910842 19.061058516339045) rotate(0 24.35529715423047 5.040628216893914)"><path d="M0.76 -0.71 C8.81 0.89, 41.07 8.86, 49.01 10.79 M-0.3 1.54 C7.57 3.32, 40.37 7.9, 48.37 9.15" stroke="#000000" stroke-width="2" fill="none"></path></g></g><mask></mask><g stroke-linecap="round" transform="translate(714.1764742053998 12.61401822402857) rotate(10.74366233694554 14.492641357926232 4.999309375460641)"><path d="M0.2 0.74 L30.35 -1.47 L30.57 10.82 L0.1 9.15" stroke="none" stroke-width="0" fill="#fff"></path><path d="M0.97 1.56 C11.58 1.89, 23.51 -1.27, 28.24 0.16 M0.47 -0.89 C5.16 -0.54, 11.85 -0.51, 28.58 0.64 M29.77 -0.48 C28.59 2.43, 29.74 5, 28.43 10.04 M29 -0.08 C29.25 2.75, 28.53 5.19, 29.44 9.85 M27.66 11.93 C23.47 10.15, 17.6 9.5, 0.6 9.16 M28.04 10.83 C19.57 9.84, 8.76 10.43, -0.14 9.95 M0.75 9.6 C0.06 5.45, 1 2.8, 0.78 0.97 M0.25 9.71 C0.42 7.45, 0.44 5.69, -0.26 0.19" stroke="#000000" stroke-width="2" fill="none"></path></g><g stroke-linecap="round" transform="translate(637.8983054824441 17.67000111030154) rotate(0 16.354959714477843 15.053179046128164)"><path d="M15.63 -0.37 C18.83 -0.76, 24.09 0.49, 26.94 2.54 C29.8 4.59, 32.07 8.73, 32.75 11.92 C33.42 15.11, 32.91 18.92, 30.99 21.69 C29.08 24.45, 24.61 27.37, 21.27 28.51 C17.92 29.65, 14.17 29.42, 10.93 28.54 C7.68 27.66, 3.57 26.01, 1.79 23.22 C0.01 20.44, -0.45 14.97, 0.24 11.81 C0.93 8.66, 2.6 6.24, 5.92 4.3 C9.24 2.37, 17.17 0.39, 20.17 0.19 C23.17 0, 24.08 2.95, 23.93 3.16 M17.8 0.03 C21.19 0.2, 24.38 2.79, 26.91 4.71 C29.43 6.63, 32.38 8.3, 32.93 11.55 C33.48 14.81, 32.16 21.52, 30.19 24.25 C28.23 26.98, 24.42 27.26, 21.14 27.93 C17.85 28.6, 13.84 28.97, 10.49 28.27 C7.14 27.57, 2.64 26.39, 1.01 23.73 C-0.62 21.07, -0.23 15.78, 0.7 12.33 C1.64 8.89, 3.88 5.21, 6.62 3.05 C9.37 0.89, 15.35 -0.26, 17.18 -0.62 C19.01 -0.99, 17.76 0.74, 17.61 0.86" stroke="#000000" stroke-width="2" fill="none"></path></g><g stroke-linecap="round"><g transform="translate(652.392389140746 47.60949878930421) rotate(0 -0.023425576722615915 17.83263659860083)"><path d="M0.93 0 C0.96 6.02, -0.01 30.7, -0.57 36.71 M-0.03 -1.05 C-0.02 4.54, -0.98 28.34, -0.98 34.7" stroke="#000000" stroke-width="2" fill="none"></path></g></g><mask></mask><g stroke-linecap="round"><g transform="translate(650.9305300487497 85.04313457869182) rotate(0 6.600552699013235 11.500396285305488)"><path d="M0 1.03 C2.35 4.44, 12.33 17.84, 14.66 21.39 M-1.46 0.53 C0.7 3.98, 11.41 18.61, 13.82 22.47" stroke="#000000" stroke-width="2" fill="none"></path></g></g><mask></mask><g stroke-linecap="round"><g transform="translate(648.8747513263811 83.60205807535556) rotate(0 -6.099176212160273 10.407562930876907)"><path d="M1.03 0.21 C-1.33 3.58, -11.01 17.02, -13.23 20.23 M0.11 -0.72 C-1.95 2.82, -8.79 18.05, -10.97 21.54" stroke="#000000" stroke-width="2" fill="none"></path></g></g><mask></mask><g stroke-linecap="round"><g transform="translate(632.4391126683242 68.34969261756976) rotate(0 8.760963681238366 -5.424353697702827)"><path d="M0.21 -0.87 C3.32 -3.06, 15.71 -10.3, 18.66 -12.14 M-1.14 1.29 C1.78 -0.17, 13.92 -8, 17.48 -10.55" stroke="#000000" stroke-width="2" fill="none"></path></g></g><mask></mask><g stroke-linecap="round"><g transform="translate(651.0878932255769 55.41311963452188) rotate(0 6.4461499621932035 7.1475546920201865)"><path d="M-0.87 -0.45 C1.25 2.04, 11.28 12.42, 13.76 15.1 M0.88 -1.72 C2.76 0.84, 10.77 12.96, 12.86 16.02" stroke="#000000" stroke-width="2" fill="none"></path></g></g><mask></mask><g transform="translate(638.6717931590065 21.533619234888988) rotate(0 15.5 6.5)"><text x="0" y="10" font-family="Virgil, Segoe UI Emoji" font-size="8.98582076310733px" fill="#000000" text-anchor="start" style="white-space: pre;" direction="ltr">｡◕‿◕｡</text></g><g stroke-linecap="round" transform="translate(786.679143876544 12.742918178362089) rotate(202.77540904823977 16.439943776945654 15.131398762393367)"><path d="M17.89 -0.53 C21.2 -0.33, 25.62 2.74, 28.01 5.21 C30.4 7.67, 31.88 11.04, 32.21 14.25 C32.54 17.46, 32.18 21.85, 30 24.48 C27.83 27.11, 22.6 29.44, 19.18 30.02 C15.75 30.61, 12.51 29.62, 9.45 27.98 C6.4 26.34, 2.14 23.28, 0.84 20.19 C-0.46 17.09, 0.57 12.4, 1.64 9.42 C2.7 6.44, 4.32 3.93, 7.22 2.32 C10.11 0.7, 16.76 0, 18.99 -0.27 C21.23 -0.55, 20.62 0.23, 20.61 0.67 M20.05 -0.32 C23.36 -0.05, 25.23 2.74, 27.24 5.05 C29.24 7.36, 31.46 10.26, 32.06 13.56 C32.67 16.85, 32.86 21.98, 30.88 24.79 C28.89 27.6, 23.87 29.72, 20.14 30.41 C16.42 31.11, 11.77 30.41, 8.51 28.96 C5.26 27.52, 1.79 24.88, 0.59 21.74 C-0.6 18.59, 0.39 13.14, 1.34 10.11 C2.28 7.09, 3.12 5.25, 6.26 3.57 C9.4 1.88, 17.96 0.41, 20.17 0.02 C22.38 -0.38, 19.85 0.95, 19.52 1.21" stroke="#000000" stroke-width="2" fill="none"></path></g><g stroke-linecap="round"><g transform="translate(801.9171978130678 44.205599045458285) rotate(0 -0.8952472587828311 18.36665064193322)"><path d="M-1.18 0.34 C-1.48 6.54, -1.98 31.33, -2.23 37.26 M0.4 -0.52 C0.54 5.31, 0.28 29.22, 0.16 35.43" stroke="#000000" stroke-width="2" fill="none"></path></g></g><mask></mask><g stroke-linecap="round"><g transform="translate(800.5281072581312 81.88492620983246) rotate(0 7.0772767090367665 10.830549124682555)"><path d="M0.34 -0.62 C2.84 3.13, 12.86 17.61, 15.09 21.3 M-0.94 1.67 C1.45 5.63, 11.59 18.82, 14.44 22.28" stroke="#000000" stroke-width="2" fill="none"></path></g></g><mask></mask><g stroke-linecap="round"><g transform="translate(800.0058980966874 80.05725494784795) rotate(0 -6.95767906597473 10.3753666541928)"><path d="M-0.62 0.57 C-2.95 3.81, -12.79 16.45, -15.17 19.83 M1.26 -0.18 C-0.61 3.17, -10.74 17.19, -13.02 20.93" stroke="#000000" stroke-width="2" fill="none"></path></g></g><mask></mask><g stroke-linecap="round"><g transform="translate(787.1693283269337 66.07749422686928) rotate(0 7.016035488918362 -4.942797811390356)"><path d="M0.57 -1.07 C2.57 -2.78, 10.21 -9.24, 12.35 -10.87 M-0.59 0.98 C1.76 -0.54, 12.41 -7.94, 14.63 -9.76" stroke="#000000" stroke-width="2" fill="none"></path></g></g><mask></mask><g stroke-linecap="round"><g transform="translate(801.7262724222657 56.244479773884024) rotate(0 6.980449706521995 4.539195277951386)"><path d="M-1.07 -0.82 C1.16 0.73, 10.44 8.23, 12.75 9.9 M0.57 1.36 C3.23 2.48, 12.58 6.39, 15.03 7.88" stroke="#000000" stroke-width="2" fill="none"></path></g></g><mask></mask><g stroke-linecap="round"><g transform="translate(812.2599299916222 15.83933160714517) rotate(0 -13.745618857003137 10.741205962653652)"><path d="M-0.82 -0.82 C-1.83 0.69, -3.12 5.61, -5.48 8.03 C-7.85 10.45, -12.11 12.96, -15.01 13.71 C-17.91 14.46, -20.89 11.27, -22.89 12.55 C-24.89 13.84, -26.22 20.17, -27.02 21.42 M0.95 1.36 C-0.25 3.11, -3.5 7.41, -6.33 9.15 C-9.16 10.88, -13.31 11.09, -16.03 11.77 C-18.75 12.46, -20.58 11.51, -22.65 13.26 C-24.72 15.02, -27.78 21.38, -28.44 22.3" stroke="#000000" stroke-width="1" fill="none"></path></g></g><mask></mask><g stroke-linecap="round"><g transform="translate(810.5159743943141 15.474522777643898) rotate(0 -11.975797886556961 6.746107430458672)"><path d="M-0.82 0.2 C-2.01 1.57, -5.64 5.49, -8.21 7.43 C-10.77 9.37, -13.46 10.92, -16.21 11.86 C-18.97 12.8, -23.61 12.97, -24.75 13.06 M0.95 -0.75 C0.23 0.86, -2.99 6.4, -5.91 8.71 C-8.83 11.03, -13.41 12.25, -16.57 13.17 C-19.74 14.09, -23.65 14.33, -24.9 14.21" stroke="#000000" stroke-width="1" fill="none"></path></g></g><mask></mask><g stroke-linecap="round"><g transform="translate(809.1661686858408 13.850075436237631) rotate(0 -10.922534937859098 4.956849279942993)"><path d="M0.2 -0.79 C-1.78 0.18, -9.13 3.29, -12.71 5.05 C-16.29 6.81, -19.86 8.72, -21.27 9.79 M-1.16 1.4 C-3.27 2.11, -10.43 1.78, -13.91 3.33 C-17.39 4.88, -20.88 9.7, -22.04 10.71" stroke="#000000" stroke-width="1" fill="none"></path></g></g><mask></mask><g stroke-linecap="round"><g transform="translate(810.3277222102049 15.157319980703988) rotate(0 -10.275825516811267 4.948167119755517)"><path d="M-0.79 -0.48 C-1.95 0.47, -4.88 4.24, -7.77 5.93 C-10.65 7.63, -15.83 8.89, -18.12 9.71 C-20.42 10.52, -20.75 10.68, -21.54 10.85 M0.99 -1.78 C-0.19 -0.64, -5.54 5.32, -8.31 7.47 C-11.08 9.61, -13.54 10.38, -15.62 11.07 C-17.7 11.77, -19.92 11.7, -20.8 11.65" stroke="#000000" stroke-width="1" fill="none"></path></g></g><mask></mask><g stroke-linecap="round"><g transform="translate(809.2229526370517 14.620419102750503) rotate(0 -10.421809255239623 5.703723815649042)"><path d="M-0.48 0.77 C-2.22 1.7, -6.68 3.01, -10.2 4.76 C-13.72 6.51, -19.58 10.41, -21.59 11.28 M1.46 0.13 C-0.45 1.27, -7.19 4.35, -11.15 5.9 C-15.12 7.45, -20.45 8.6, -22.31 9.42" stroke="#000000" stroke-width="1" fill="none"></path></g></g><mask></mask><g stroke-linecap="round"><g transform="translate(807.0903900469181 13.483928471148403) rotate(0 -8.469468821749615 4.131770837470533)"><path d="M0.77 -0.01 C-1.16 0.64, -9.33 2.04, -12.37 3.43 C-15.4 4.82, -16.37 7.51, -17.44 8.31 M-0.28 -1.06 C-1.75 -0.15, -7.14 3.29, -10.05 5.02 C-12.95 6.75, -16.26 8.67, -17.71 9.32" stroke="#000000" stroke-width="1" fill="none"></path></g></g><mask></mask><g stroke-linecap="round"><g stroke-opacity="0.7" fill-opacity="0.7" transform="translate(786.8133537047582 28.52727213998199) rotate(0 -3.361135288956916 -3.896578899025023)"><path d="M-0.01 -0.75 C-0.74 -0.81, -3.48 1.02, -4.85 0.44 C-6.23 -0.15, -7.9 -3.04, -8.25 -4.24 C-8.6 -5.44, -7.93 -6.04, -6.95 -6.76 C-5.97 -7.48, -3.72 -9, -2.37 -8.56 C-1.01 -8.11, 0.71 -5.05, 1.19 -4.08 M-1.47 1.47 C-2.31 1.02, -4.44 -0.43, -5.75 -1.2 C-7.06 -1.96, -9.1 -1.87, -9.32 -3.13 C-9.54 -4.4, -8.48 -7.91, -7.06 -8.81 C-5.64 -9.7, -2.41 -9.09, -0.8 -8.52 C0.82 -7.95, 2.36 -6.17, 2.63 -5.37" stroke="#000000" stroke-width="1" fill="none"></path></g></g><mask></mask><g stroke-linecap="round"><g stroke-opacity="0.7" fill-opacity="0.7" transform="translate(778.1482255651956 22.843297255872614) rotate(0 3.6069420561100287 1.8908832604675183)"><path d="M-0.75 0.1 C-0.1 0.53, 3.24 1.98, 4.69 2.58 C6.14 3.19, 7.19 3.61, 7.97 3.71 M1.05 -0.9 C1.56 -0.31, 3.24 2.89, 4.23 3.82 C5.22 4.74, 6.01 4.69, 6.99 4.67" stroke="#000000" stroke-width="1" fill="none"></path></g></g><mask></mask><g stroke-linecap="round"><g stroke-opacity="0.7" fill-opacity="0.7" transform="translate(779.0595557167491 21.877386562302974) rotate(0 2.696463271813627 2.4933771149495385)"><path d="M0.1 0.94 C0.77 1.09, 3.04 -0.52, 4.03 0.16 C5.02 0.83, 5.79 4.46, 6.04 5 M-1.31 0.38 C-0.24 0.77, 5.4 1.02, 6.44 1.48 C7.48 1.95, 5.13 2.73, 4.92 3.17" stroke="#000000" stroke-width="1" fill="none"></path></g></g><mask></mask><g stroke-linecap="round"><g stroke-opacity="0.7" fill-opacity="0.7" transform="translate(779.1679052696278 22.982196445720803) rotate(0 3.83321906433639 1.4771546370218829)"><path d="M0.94 -0.58 C1.5 -0.39, 1.49 0.67, 2.61 1.24 C3.74 1.81, 7.12 2.37, 7.7 2.84 M-0.03 1.73 C0.4 2.06, 0.21 2.12, 1.45 2.42 C2.7 2.72, 6.7 3.07, 7.44 3.53" stroke="#000000" stroke-width="1" fill="none"></path></g></g><mask></mask><g stroke-linecap="round"><g transform="translate(818.7999860083357 105.49379310582484) rotate(0 -2.3918591507089104 -23.102621470917608)"><path d="M-0.58 -0.4 C-0.57 -6.16, 0.47 -26.19, 0.13 -33.61 C-0.21 -41.03, -1.67 -43.29, -2.62 -44.94 C-3.57 -46.59, -4.78 -45.75, -5.57 -43.49 C-6.35 -41.23, -7.13 -33.22, -7.32 -31.38 M1.32 -1.66 C1.71 -7.82, 2.77 -28.17, 2.49 -35.22 C2.21 -42.27, 0.95 -42.74, -0.35 -43.98 C-1.64 -45.21, -4.44 -44.87, -5.29 -42.63 C-6.14 -40.39, -5.46 -32.05, -5.45 -30.54" stroke="#000000" stroke-width="2" fill="none"></path></g></g><mask></mask><g stroke-linecap="round"><g transform="translate(688.3562014429697 122.96612615379888) rotate(0 -62.9909715178822 49.8016120397612)"><path d="M0.82 -1.11 C-20.45 15.61, -105.82 82.6, -126.81 99.49 M-0.2 0.92 C-21.17 17.86, -103.62 83.93, -124.47 100.71" stroke="#000000" stroke-width="1" fill="none"></path></g><g transform="translate(688.3562014429697 122.96612615379888) rotate(0 -62.9909715178822 49.8016120397612)"><path d="M-16.84 23.18 C-9.93 16.48, -2.84 7.06, 1.96 -1.82 M-14.86 24.58 C-11.79 18.47, -7.62 12.83, 0.81 -1.82" stroke="#000000" stroke-width="1" fill="none"></path></g><g transform="translate(688.3562014429697 122.96612615379888) rotate(0 -62.9909715178822 49.8016120397612)"><path d="M-29.53 7.05 C-18.01 6.26, -6.2 2.84, 1.96 -1.82 M-27.54 8.44 C-21.57 6.03, -14.5 4.09, 0.81 -1.82" stroke="#000000" stroke-width="1" fill="none"></path></g><g transform="translate(688.3562014429697 122.96612615379888) rotate(0 -62.9909715178822 49.8016120397612)"><path d="M-110.76 73.86 C-115.87 86.39, -120.44 95.98, -123.34 100 M-108.78 75.25 C-112.87 80.84, -115.88 86.91, -124.49 100" stroke="#000000" stroke-width="1" fill="none"></path></g><g transform="translate(688.3562014429697 122.96612615379888) rotate(0 -62.9909715178822 49.8016120397612)"><path d="M-97.92 89.86 C-107.69 96.53, -117.04 100.18, -123.34 100 M-95.93 91.26 C-102.97 93.18, -108.92 95.58, -124.49 100" stroke="#000000" stroke-width="1" fill="none"></path></g></g><mask></mask><g transform="translate(594.4130997239829 147.22640460794142) rotate(315.57805829979964 34.5 18.5)"><text x="0" y="15.5" font-family="Helvetica, Segoe UI Emoji" font-size="16px" fill="#000000" text-anchor="start" style="white-space: pre;" direction="ltr">Deposit</text><text x="0" y="34" font-family="Helvetica, Segoe UI Emoji" font-size="16px" fill="#000000" text-anchor="start" style="white-space: pre;" direction="ltr">Withdraw</text></g><g stroke-linecap="round"><g transform="translate(349.555978228684 411.26411722522744) rotate(0 -31.77259531058303 -45.35776405132242)"><path d="M-0.01 0.04 C-10.54 -15.04, -52 -75.9, -62.65 -90.75 M-1.47 -0.99 C-12.2 -15.92, -53.52 -74.71, -63.54 -89.71" stroke="#000000" stroke-width="1" fill="none"></path></g><g transform="translate(349.555978228684 411.26411722522744) rotate(0 -31.77259531058303 -45.35776405132242)"><path d="M-39.04 -72.12 C-49.08 -80.2, -54.71 -82.68, -63.58 -90.99 M-39.61 -73.1 C-47.06 -77.53, -52.76 -81.59, -64.36 -88.95" stroke="#000000" stroke-width="1" fill="none"></path></g><g transform="translate(349.555978228684 411.26411722522744) rotate(0 -31.77259531058303 -45.35776405132242)"><path d="M-55.95 -60.49 C-60.12 -72.58, -59.91 -79.08, -63.58 -90.99 M-56.51 -61.47 C-58.79 -69.55, -59.41 -77.11, -64.36 -88.95" stroke="#000000" stroke-width="1" fill="none"></path></g></g><mask></mask><g transform="translate(122.87511663314046 369.98529436932546) rotate(359.9193017723568 94.5 9.5)"><text x="0" y="15" font-family="Helvetica, Segoe UI Emoji" font-size="16px" fill="#000000" text-anchor="start" style="white-space: pre;" direction="ltr">Send StateRoot and Proof</text></g><g stroke-linecap="round"><g transform="translate(358.5124514429697 270.2763940109417) rotate(0 37.34564461606749 -0.8705590927578797)"><path d="M0.46 -0.34 C13.1 -0.44, 62.86 0.29, 75.46 0.02 M-0.76 -1.57 C11.74 -2.04, 61.66 -1.71, 74.35 -1.67" stroke="#000000" stroke-width="1" fill="none"></path></g><g transform="translate(358.5124514429697 270.2763940109417) rotate(0 37.34564461606749 -0.8705590927578797)"><path d="M45.54 7.97 C54.92 6.11, 59.03 3.03, 76.26 -2.14 M46.81 8.81 C54.06 5.52, 62.62 2.79, 75.25 -1.31" stroke="#000000" stroke-width="1" fill="none"></path></g><g transform="translate(358.5124514429697 270.2763940109417) rotate(0 37.34564461606749 -0.8705590927578797)"><path d="M45.64 -12.55 C55.09 -8.99, 59.17 -6.65, 76.26 -2.14 M46.9 -11.71 C54.33 -9.11, 62.87 -5.96, 75.25 -1.31" stroke="#000000" stroke-width="1" fill="none"></path></g></g><mask></mask><g stroke-linecap="round"><g transform="translate(494.53923715725534 320.06434043951316) rotate(0 -27.727668036168552 47.07842680588361)"><path d="M0.43 -1.03 C-9.01 14.91, -46.01 79.39, -55.54 95.19 M-0.8 1.04 C-10.4 16.68, -46.42 77.88, -55.89 93.49" stroke="#000000" stroke-width="1" fill="none"></path></g><g transform="translate(494.53923715725534 320.06434043951316) rotate(0 -27.727668036168552 47.07842680588361)"><path d="M-6.56 30.41 C-1.3 16.72, -1.63 4.18, 0.05 -2.69 M-5.48 28.75 C-3.52 20.94, -1.76 13.44, 0.32 -0.24" stroke="#000000" stroke-width="1" fill="none"></path></g><g transform="translate(494.53923715725534 320.06434043951316) rotate(0 -27.727668036168552 47.07842680588361)"><path d="M-24.31 20.12 C-12.11 10.41, -5.47 1.91, 0.05 -2.69 M-23.23 18.45 C-16.67 13.14, -10.36 8.28, 0.32 -0.24" stroke="#000000" stroke-width="1" fill="none"></path></g><g transform="translate(494.53923715725534 320.06434043951316) rotate(0 -27.727668036168552 47.07842680588361)"><path d="M-51.98 65.94 C-51.22 75.47, -55.84 86.11, -56.27 91.83 M-50.89 64.27 C-51.41 71.66, -52.44 79.27, -56 94.29" stroke="#000000" stroke-width="1" fill="none"></path></g><g transform="translate(494.53923715725534 320.06434043951316) rotate(0 -27.727668036168552 47.07842680588361)"><path d="M-34.35 76.45 C-40.48 81.92, -52.02 88.43, -56.27 91.83 M-33.27 74.79 C-38.35 79.62, -43.9 84.53, -56 94.29" stroke="#000000" stroke-width="1" fill="none"></path></g></g><mask></mask><g transform="translate(487.0091518300799 366.29183659842477) rotate(359.9193017723568 45.5 9.5)"><text x="0" y="15" font-family="Helvetica, Segoe UI Emoji" font-size="16px" fill="#000000" text-anchor="start" style="white-space: pre;" direction="ltr">L1 L2 bridge</text></g></svg>
