<svg width="32" height="33" viewBox="0 0 32 33" fill="none" xmlns="http://www.w3.org/2000/svg">
<g clip-path="url(#clip0_1_5198)">
<path d="M28.736 16.8039C31.232 14.3079 31.936 10.6599 30.848 7.4599L26.496 11.8119C24.96 13.3479 22.528 13.3479 20.992 11.8119C19.456 10.2759 19.456 7.8439 20.992 6.3079L25.344 1.9559C22.144 0.8039 18.368 1.5719 15.872 4.2599C13.504 6.7559 12.864 10.3399 13.952 13.4119L1.79201 25.5719C0.256015 27.1079 0.256015 29.5399 1.79201 31.0759C3.32801 32.6119 5.76001 32.6119 7.29601 31.0759L19.456 18.9159C22.592 20.0039 26.24 19.2999 28.736 16.8039Z" fill="#B3B1B8"/>
</g>
<defs>
<clipPath id="clip0_1_5198">
<rect width="32" height="32" fill="white" transform="translate(0 0.86792)"/>
</clipPath>
</defs>
</svg>
