<svg width="48" height="48" viewBox="0 0 48 48" fill="none" xmlns="http://www.w3.org/2000/svg">
<circle cx="24" cy="24" r="24" fill="url(#paint0_linear_1169_1353)"/>
<path d="M34.5665 27.6043C33.332 26.3688 31.6189 25.8454 29.4189 26.435L21.574 18.5821L21.6777 18.1901C22.1296 16.4948 21.6414 14.6725 20.404 13.4352C19.1442 12.1744 17.3532 11.7118 15.6594 12.1771C15.4179 12.2434 15.2298 12.4332 15.1659 12.6754C15.1019 12.9176 15.172 13.1751 15.3491 13.3522L17.238 15.2411C17.7902 15.7947 17.7849 16.6813 17.2394 17.2282C16.6982 17.7709 15.7885 17.77 15.2495 17.2296L13.3602 15.3402C13.1831 15.1629 12.9249 15.0934 12.6827 15.1578C12.4405 15.2221 12.2514 15.4106 12.1853 15.6523C11.7268 17.3276 12.1778 19.1297 13.4437 20.3955C14.6777 21.6305 16.3886 22.1557 18.5899 21.5649L26.4354 29.4178C25.8499 31.6171 26.355 33.3135 27.6061 34.5647C28.8675 35.827 30.6594 36.2862 32.3495 35.8225C32.5911 35.7562 32.7791 35.5663 32.8432 35.3241C32.9072 35.0819 32.8371 34.8245 32.6599 34.6473L30.7714 32.7588C30.2192 32.2052 30.2246 31.3185 30.7701 30.7716C31.318 30.2265 32.2256 30.2352 32.7599 30.7709L34.6494 32.6599C34.8265 32.837 35.0847 32.9065 35.3268 32.8422C35.569 32.7778 35.7581 32.5894 35.8242 32.3477C36.2827 30.6727 35.8318 28.8702 34.5665 27.6043Z" fill="white"/>
<path d="M19.5253 24.4961L12.8226 31.1997C11.7256 32.2966 11.7256 34.0804 12.8226 35.1773C13.9195 36.2742 15.7033 36.2742 16.8001 35.1773L23.5028 28.4739L19.5253 24.4961ZM16.1396 32.9952C15.8649 33.2699 15.4201 33.2699 15.1454 32.9952C14.8707 32.7205 14.8707 32.2756 15.1454 32.001L19.4101 27.7355C19.6847 27.4608 20.1297 27.4608 20.4043 27.7355C20.6789 28.0101 20.6789 28.4551 20.4043 28.7297L16.1396 32.9952Z" fill="white"/>
<path d="M35.7931 13.4181L34.581 12.206C34.3528 11.9778 33.9988 11.9342 33.7221 12.1001L29.9933 14.3371C29.601 14.5725 29.5344 15.1138 29.8578 15.4373L30.1546 15.734L25.4212 20.4481L27.4103 22.4372L32.1438 17.7231L32.5619 18.1413C32.8853 18.4647 33.4267 18.3981 33.662 18.0058L35.899 14.277C36.0648 14.0003 36.0212 13.6463 35.7931 13.4181Z" fill="white"/>
<defs>
<linearGradient id="paint0_linear_1169_1353" x1="48" y1="-1.43051e-06" x2="-4.29153e-06" y2="48" gradientUnits="userSpaceOnUse">
<stop stop-color="#7B3FE4"/>
<stop offset="1" stop-color="#A528C3"/>
</linearGradient>
</defs>
</svg>
