<svg width="450" height="255" viewBox="0 0 450 255" fill="none" xmlns="http://www.w3.org/2000/svg">
<rect width="450" height="255" fill="white"/>
<rect x="68" y="181" width="115" height="49" rx="5" fill="#F2F2F2" stroke="#808080" stroke-linejoin="round"/>
<path d="M368 26H248C245.239 26 243 28.2386 243 31V71C243 73.7614 245.239 76 248 76H368V26Z" fill="#F2F2F2" stroke="#808080" stroke-linejoin="round"/>
<path d="M73.62 63C71.76 63 70.68 61.98 70.68 60.12V23.88C70.68 22.02 71.76 21 73.62 21H77.34C79.2 21 80.22 22.02 80.22 23.88V54.96H96.3C98.16 54.96 99.24 55.98 99.24 57.84V60.12C99.24 61.98 98.16 63 96.3 63H73.62ZM96.9877 48.78C96.0277 48.78 95.4277 48.24 95.4277 47.28V42.12C95.4277 41.16 96.0277 40.62 96.9877 40.62H115.408C116.368 40.62 116.908 41.16 116.908 42.12V47.28C116.908 48.24 116.368 48.78 115.408 48.78H96.9877ZM120.62 63C118.88 63 117.8 62.1 117.5 60.36L117.38 59.58C117.14 58.08 117.56 56.94 118.76 55.86L133.28 42.72C136.52 39.9 138.92 37.2 138.92 33.72C138.92 30.12 136.1 28.02 132.32 28.02C128.72 28.02 126.98 29.52 126.2 31.26C125.42 32.88 124.82 33.78 123.08 33.78H119.78C117.86 33.78 116.66 32.64 117.08 30.78C118.22 25.5 122.6 20.34 132.5 20.34C141.68 20.34 147.92 25.56 147.92 33.9C147.92 39.96 144.14 44.46 140.12 47.88L131.06 55.56L131.12 55.8C133.46 55.56 139.34 55.44 139.82 55.44H146.84C148.7 55.44 149.72 56.52 149.72 58.38V60.12C149.72 61.98 148.7 63 146.84 63H120.62Z" fill="#F2F2F2"/>
<path d="M80.22 54.96H79.72V55.46H80.22V54.96ZM73.62 62.5C72.7785 62.5 72.1838 62.2703 71.8007 61.8986C71.4199 61.5292 71.18 60.9534 71.18 60.12H70.18C70.18 61.1466 70.4801 62.0108 71.1043 62.6164C71.7262 63.2197 72.6015 63.5 73.62 63.5V62.5ZM71.18 60.12V23.88H70.18V60.12H71.18ZM71.18 23.88C71.18 23.0466 71.4199 22.4708 71.8007 22.1014C72.1838 21.7297 72.7785 21.5 73.62 21.5V20.5C72.6015 20.5 71.7262 20.7803 71.1043 21.3836C70.4801 21.9892 70.18 22.8534 70.18 23.88H71.18ZM73.62 21.5H77.34V20.5H73.62V21.5ZM77.34 21.5C78.1812 21.5 78.7572 21.7293 79.1239 22.0961C79.4907 22.4628 79.72 23.0388 79.72 23.88H80.72C80.72 22.8612 80.4393 21.9972 79.8311 21.3889C79.2228 20.7807 78.3588 20.5 77.34 20.5V21.5ZM79.72 23.88V54.96H80.72V23.88H79.72ZM80.22 55.46H96.3V54.46H80.22V55.46ZM96.3 55.46C97.1415 55.46 97.7362 55.6897 98.1193 56.0614C98.5001 56.4308 98.74 57.0066 98.74 57.84H99.74C99.74 56.8134 99.4399 55.9492 98.8157 55.3436C98.1938 54.7403 97.3185 54.46 96.3 54.46V55.46ZM98.74 57.84V60.12H99.74V57.84H98.74ZM98.74 60.12C98.74 60.9534 98.5001 61.5292 98.1193 61.8986C97.7362 62.2703 97.1415 62.5 96.3 62.5V63.5C97.3185 63.5 98.1938 63.2197 98.8157 62.6164C99.4399 62.0108 99.74 61.1466 99.74 60.12H98.74ZM96.3 62.5H73.62V63.5H96.3V62.5ZM96.9877 48.28C96.5989 48.28 96.3447 48.1717 96.191 48.0265C96.0413 47.8852 95.9277 47.6532 95.9277 47.28H94.9277C94.9277 47.8668 95.114 48.3848 95.5043 48.7535C95.8906 49.1183 96.4164 49.28 96.9877 49.28V48.28ZM95.9277 47.28V42.12H94.9277V47.28H95.9277ZM95.9277 42.12C95.9277 41.7468 96.0413 41.5148 96.191 41.3735C96.3447 41.2283 96.5989 41.12 96.9877 41.12V40.12C96.4164 40.12 95.8906 40.2817 95.5043 40.6465C95.114 41.0152 94.9277 41.5332 94.9277 42.12H95.9277ZM96.9877 41.12H115.408V40.12H96.9877V41.12ZM115.408 41.12C115.796 41.12 116.028 41.2276 116.164 41.3636C116.3 41.4995 116.408 41.732 116.408 42.12H117.408C117.408 41.548 117.245 41.0305 116.871 40.6564C116.497 40.2824 115.98 40.12 115.408 40.12V41.12ZM116.408 42.12V47.28H117.408V42.12H116.408ZM116.408 47.28C116.408 47.668 116.3 47.9005 116.164 48.0364C116.028 48.1724 115.796 48.28 115.408 48.28V49.28C115.98 49.28 116.497 49.1176 116.871 48.7436C117.245 48.3695 117.408 47.852 117.408 47.28H116.408ZM115.408 48.28H96.9877V49.28H115.408V48.28ZM117.5 60.36L117.005 60.436L117.007 60.445L117.5 60.36ZM117.38 59.58L117.874 59.504L117.873 59.501L117.38 59.58ZM118.76 55.86L119.094 56.2316L119.095 56.2307L118.76 55.86ZM133.28 42.72L132.951 42.3428L132.944 42.3493L133.28 42.72ZM126.2 31.26L126.65 31.477L126.656 31.4645L126.2 31.26ZM117.08 30.78L117.567 30.8901L117.568 30.8855L117.08 30.78ZM140.12 47.88L140.443 48.2614L140.444 48.2608L140.12 47.88ZM131.06 55.56L130.736 55.1786L130.499 55.3796L130.575 55.6813L131.06 55.56ZM131.12 55.8L130.635 55.9213L130.74 56.3416L131.171 56.2974L131.12 55.8ZM120.62 62.5C119.836 62.5 119.255 62.2985 118.842 61.9502C118.429 61.6018 118.128 61.0602 117.992 60.275L117.007 60.445C117.172 61.3998 117.561 62.1782 118.197 62.7148C118.834 63.2515 119.663 63.5 120.62 63.5V62.5ZM117.994 60.284L117.874 59.504L116.886 59.656L117.006 60.436L117.994 60.284ZM117.873 59.501C117.764 58.8179 117.809 58.2474 117.999 57.7362C118.189 57.223 118.538 56.7324 119.094 56.2316L118.425 55.4884C117.782 56.0676 117.321 56.687 117.061 57.3888C116.8 58.0926 116.755 58.8421 116.886 59.659L117.873 59.501ZM119.095 56.2307L133.615 43.0907L132.944 42.3493L118.424 55.4893L119.095 56.2307ZM133.608 43.0972C136.842 40.2819 139.42 37.4475 139.42 33.72H138.42C138.42 36.9525 136.197 39.5181 132.951 42.3428L133.608 43.0972ZM139.42 33.72C139.42 31.7773 138.653 30.2088 137.356 29.1349C136.069 28.0694 134.298 27.52 132.32 27.52V28.52C134.122 28.52 135.65 29.0206 136.718 29.9051C137.776 30.7812 138.42 32.0626 138.42 33.72H139.42ZM132.32 27.52C130.451 27.52 129.021 27.9097 127.944 28.5593C126.864 29.2107 126.17 30.1043 125.743 31.0555L126.656 31.4645C127.01 30.6757 127.576 29.9493 128.46 29.4157C129.348 28.8803 130.589 28.52 132.32 28.52V27.52ZM125.749 31.0431C125.356 31.8587 125.047 32.4049 124.661 32.7594C124.306 33.086 123.85 33.28 123.08 33.28V34.28C124.049 34.28 124.763 34.024 125.338 33.4956C125.882 32.9951 126.263 32.2813 126.65 31.4769L125.749 31.0431ZM123.08 33.28H119.78V34.28H123.08V33.28ZM119.78 33.28C118.91 33.28 118.281 33.0221 117.916 32.6347C117.564 32.2614 117.386 31.6917 117.567 30.8901L116.592 30.6699C116.353 31.7283 116.565 32.6586 117.188 33.3203C117.798 33.9679 118.729 34.28 119.78 34.28V33.28ZM117.568 30.8855C118.118 28.3422 119.443 25.8407 121.814 23.9727C124.184 22.1056 127.638 20.84 132.5 20.84V19.84C127.461 19.84 123.775 21.1544 121.195 23.1873C118.616 25.2193 117.182 27.9378 116.591 30.6745L117.568 30.8855ZM132.5 20.84C136.998 20.84 140.727 22.1185 143.325 24.3703C145.914 26.6156 147.42 29.8636 147.42 33.9H148.42C148.42 29.5964 146.805 26.0644 143.98 23.6147C141.162 21.1715 137.182 19.84 132.5 19.84V20.84ZM147.42 33.9C147.42 39.7333 143.785 44.1057 139.796 47.4992L140.444 48.2608C144.495 44.8143 148.42 40.1867 148.42 33.9H147.42ZM139.796 47.4986L130.736 55.1786L131.383 55.9414L140.443 48.2614L139.796 47.4986ZM130.575 55.6813L130.635 55.9213L131.605 55.6787L131.545 55.4387L130.575 55.6813ZM131.171 56.2974C133.484 56.0601 139.342 55.94 139.82 55.94V54.94C139.337 54.94 133.436 55.0599 131.069 55.3026L131.171 56.2974ZM139.82 55.94H146.84V54.94H139.82V55.94ZM146.84 55.94C147.673 55.94 148.249 56.1799 148.618 56.5607C148.99 56.9438 149.22 57.5385 149.22 58.38H150.22C150.22 57.3615 149.939 56.4862 149.336 55.8643C148.73 55.2401 147.866 54.94 146.84 54.94V55.94ZM149.22 58.38V60.12H150.22V58.38H149.22ZM149.22 60.12C149.22 60.9612 148.99 61.5372 148.624 61.9039C148.257 62.2707 147.681 62.5 146.84 62.5V63.5C147.858 63.5 148.722 63.2193 149.331 62.6111C149.939 62.0028 150.22 61.1388 150.22 60.12H149.22ZM146.84 62.5H120.62V63.5H146.84V62.5Z" fill="#808080"/>
<path d="M408 31C408 28.2386 405.761 26 403 26H283V76H390.929C392.255 76 393.527 76.5268 394.464 77.4645L408 91V31Z" fill="white" stroke="#808080" stroke-linejoin="round"/>
<path d="M332.631 44.0591L344.947 36.1643L357.262 44.0591L344.947 51.9539L332.631 44.0591Z" fill="white" stroke="#808080" stroke-linejoin="round"/>
<path d="M344.947 66.1645L332.631 58.7012V44.0591L344.947 51.5223V66.1645Z" fill="#F2F2F2" stroke="#808080" stroke-linejoin="round"/>
<path d="M344.947 66.1645L357.263 58.7012V44.0591L344.947 51.5223V66.1645Z" fill="white" stroke="#808080" stroke-linejoin="round"/>
<path d="M293 43.9657L306.542 36L320.083 43.9657L306.542 51.9314L293 43.9657Z" fill="white" stroke="#808080" stroke-linejoin="round"/>
<path d="M306.542 66.2695L293 58.7392V43.9656L306.542 51.4958V66.2695Z" fill="#F2F2F2" stroke="#808080" stroke-linejoin="round"/>
<path d="M306.541 66.2695L320.083 58.7392V43.9656L306.541 51.4958V66.2695Z" fill="white" stroke="#808080" stroke-linejoin="round"/>
<path d="M369.917 43.9657L383.459 36L397 43.9657L383.459 51.9314L369.917 43.9657Z" fill="white" stroke="#808080" stroke-linejoin="round"/>
<path d="M383.459 66.2695L369.917 58.7392V43.9656L383.459 51.4958V66.2695Z" fill="#F2F2F2" stroke="#808080" stroke-linejoin="round"/>
<path d="M383.458 66.2695L397 58.7392V43.9656L383.458 51.4958V66.2695Z" fill="white" stroke="#808080" stroke-linejoin="round"/>
<path d="M208 175C208 172.239 205.761 170 203 170H88C85.2386 170 83 172.239 83 175V210C83 212.761 85.2386 215 88 215H193L208 200V175Z" fill="white" stroke="#808080" stroke-linejoin="round"/>
<path d="M193 200H208L193 215V200Z" fill="white" stroke="#808080" stroke-linejoin="round"/>
<path d="M220.354 66.3536C220.158 66.5488 219.842 66.5488 219.646 66.3536L216.464 63.1716C216.269 62.9763 216.269 62.6597 216.464 62.4645C216.66 62.2692 216.976 62.2692 217.172 62.4645L220 65.2929L222.828 62.4645C223.024 62.2692 223.34 62.2692 223.536 62.4645C223.731 62.6597 223.731 62.9763 223.536 63.1716L220.354 66.3536ZM170.5 62.5C170.5 62.7761 170.276 63 170 63C169.724 63 169.5 62.7761 169.5 62.5L170.5 62.5ZM185.5 43.5L185.5 83.5L184.5 83.5L184.5 43.5L185.5 43.5ZM199.5 83.5L199.5 33.5L200.5 33.5L200.5 83.5L199.5 83.5ZM207.5 25.5L212.5 25.5L212.5 26.5L207.5 26.5L207.5 25.5ZM220.5 33.5L220.5 66L219.5 66L219.5 33.5L220.5 33.5ZM170.5 43.5L170.5 62.5L169.5 62.5L169.5 43.5L170.5 43.5ZM177.5 36.5C173.634 36.5 170.5 39.634 170.5 43.5L169.5 43.5C169.5 39.0817 173.082 35.5 177.5 35.5L177.5 36.5ZM212.5 25.5C216.918 25.5 220.5 29.0817 220.5 33.5L219.5 33.5C219.5 29.634 216.366 26.5 212.5 26.5L212.5 25.5ZM199.5 33.5C199.5 29.0817 203.082 25.5 207.5 25.5L207.5 26.5C203.634 26.5 200.5 29.634 200.5 33.5L199.5 33.5ZM192.5 90.5C196.366 90.5 199.5 87.366 199.5 83.5L200.5 83.5C200.5 87.9183 196.918 91.5 192.5 91.5L192.5 90.5ZM185.5 83.5C185.5 87.366 188.634 90.5 192.5 90.5L192.5 91.5C188.082 91.5 184.5 87.9183 184.5 83.5L185.5 83.5ZM184.5 43.5C184.5 39.634 181.366 36.5 177.5 36.5L177.5 35.5C181.918 35.5 185.5 39.0817 185.5 43.5L184.5 43.5Z" fill="#808080"/>
<circle cx="219.5" cy="83.5" r="7.5" fill="#F2F2F2" stroke="#808080" stroke-linejoin="round"/>
<path d="M93 185.895L105.316 178L117.631 185.895L105.316 193.79L93 185.895Z" fill="white" stroke="#808080" stroke-linejoin="round"/>
<path d="M105.316 208L93 200.537V185.895L105.316 193.358V208Z" fill="#F2F2F2" stroke="#808080" stroke-linejoin="round"/>
<path d="M105.316 208L117.632 200.537V185.895L105.316 193.358V208Z" fill="white" stroke="#808080" stroke-linejoin="round"/>
<path d="M127.631 185.895L139.947 178L152.262 185.895L139.947 193.79L127.631 185.895Z" fill="white" stroke="#808080" stroke-linejoin="round"/>
<path d="M139.947 208L127.631 200.537V185.895L139.947 193.358V208Z" fill="#F2F2F2" stroke="#808080" stroke-linejoin="round"/>
<path d="M139.947 208L152.263 200.537V185.895L139.947 193.358V208Z" fill="white" stroke="#808080" stroke-linejoin="round"/>
<path d="M162.263 185.895L174.578 178L186.894 185.895L174.578 193.79L162.263 185.895Z" fill="white" stroke="#808080" stroke-linejoin="round"/>
<path d="M174.578 208L162.263 200.537V185.895L174.578 193.358V208Z" fill="#F2F2F2" stroke="#808080" stroke-linejoin="round"/>
<path d="M174.579 208L186.895 200.537V185.895L174.579 193.358V208Z" fill="white" stroke="#808080" stroke-linejoin="round"/>
<path d="M234.5 200C234.5 199.724 234.276 199.5 234 199.5C233.724 199.5 233.5 199.724 233.5 200L234.5 200ZM279.354 199.646C279.158 199.451 278.842 199.451 278.646 199.646L275.464 202.828C275.269 203.024 275.269 203.34 275.464 203.536C275.66 203.731 275.976 203.731 276.172 203.536L279 200.707L281.828 203.536C282.024 203.731 282.34 203.731 282.536 203.536C282.731 203.34 282.731 203.024 282.536 202.828L279.354 199.646ZM233.5 200L233.5 227.5L234.5 227.5L234.5 200L233.5 200ZM249.5 227.5L249.5 207.5L248.5 207.5L248.5 227.5L249.5 227.5ZM263.5 207.5L263.5 227.5L264.5 227.5L264.5 207.5L263.5 207.5ZM279.5 227.5L279.5 200L278.5 200L278.5 227.5L279.5 227.5ZM271.5 235.5C275.918 235.5 279.5 231.918 279.5 227.5L278.5 227.5C278.5 231.366 275.366 234.5 271.5 234.5L271.5 235.5ZM263.5 227.5C263.5 231.918 267.082 235.5 271.5 235.5L271.5 234.5C267.634 234.5 264.5 231.366 264.5 227.5L263.5 227.5ZM256.5 200.5C260.366 200.5 263.5 203.634 263.5 207.5L264.5 207.5C264.5 203.082 260.918 199.5 256.5 199.5L256.5 200.5ZM249.5 207.5C249.5 203.634 252.634 200.5 256.5 200.5L256.5 199.5C252.082 199.5 248.5 203.082 248.5 207.5L249.5 207.5ZM241.5 235.5C245.918 235.5 249.5 231.918 249.5 227.5L248.5 227.5C248.5 231.366 245.366 234.5 241.5 234.5L241.5 235.5ZM233.5 227.5C233.5 231.918 237.082 235.5 241.5 235.5L241.5 234.5C237.634 234.5 234.5 231.366 234.5 227.5L233.5 227.5Z" fill="#808080"/>
<circle cx="230.5" cy="177.5" r="7.5" transform="rotate(-90 230.5 177.5)" fill="#F2F2F2" stroke="#808080" stroke-linejoin="round"/>
<path fill-rule="evenodd" clip-rule="evenodd" d="M254.303 182.803L256.5 185L258.697 182.803L261.803 182.803L261.803 179.697L264 177.5L261.803 175.303L261.803 172.197L258.697 172.197L256.5 170L254.303 172.197L251.197 172.197L251.197 175.303L249 177.5L251.197 179.697L251.197 182.803L254.303 182.803Z" fill="white"/>
<path d="M256.5 185L256.146 185.354C256.342 185.549 256.658 185.549 256.854 185.354L256.5 185ZM254.303 182.803L254.657 182.45C254.563 182.356 254.436 182.303 254.303 182.303L254.303 182.803ZM258.697 182.803L258.697 182.303C258.564 182.303 258.437 182.356 258.343 182.45L258.697 182.803ZM261.803 182.803L261.803 183.303C262.079 183.303 262.303 183.079 262.303 182.803L261.803 182.803ZM261.803 179.697L261.45 179.343C261.356 179.437 261.303 179.564 261.303 179.697L261.803 179.697ZM264 177.5L264.354 177.854C264.549 177.658 264.549 177.342 264.354 177.146L264 177.5ZM261.803 175.303L261.303 175.303C261.303 175.436 261.356 175.563 261.45 175.657L261.803 175.303ZM261.803 172.197L262.303 172.197C262.303 171.921 262.079 171.697 261.803 171.697L261.803 172.197ZM258.697 172.197L258.343 172.55C258.437 172.644 258.564 172.697 258.697 172.697L258.697 172.197ZM256.5 170L256.854 169.646C256.658 169.451 256.342 169.451 256.146 169.646L256.5 170ZM254.303 172.197L254.303 172.697C254.436 172.697 254.563 172.644 254.657 172.55L254.303 172.197ZM251.197 172.197L251.197 171.697C251.064 171.697 250.937 171.749 250.843 171.843C250.749 171.937 250.697 172.064 250.697 172.197L251.197 172.197ZM251.197 175.303L251.55 175.657C251.644 175.563 251.697 175.436 251.697 175.303L251.197 175.303ZM249 177.5L248.646 177.146C248.553 177.24 248.5 177.367 248.5 177.5C248.5 177.633 248.553 177.76 248.646 177.854L249 177.5ZM251.197 179.697L251.697 179.697C251.697 179.564 251.644 179.437 251.55 179.343L251.197 179.697ZM251.197 182.803L250.697 182.803C250.697 182.936 250.749 183.063 250.843 183.157C250.937 183.251 251.064 183.303 251.197 183.303L251.197 182.803ZM256.854 184.646L254.657 182.45L253.95 183.157L256.146 185.354L256.854 184.646ZM258.343 182.45L256.146 184.646L256.854 185.354L259.05 183.157L258.343 182.45ZM261.803 182.303L258.697 182.303L258.697 183.303L261.803 183.303L261.803 182.303ZM261.303 179.697L261.303 182.803L262.303 182.803L262.303 179.697L261.303 179.697ZM263.646 177.146L261.45 179.343L262.157 180.05L264.354 177.854L263.646 177.146ZM261.45 175.657L263.646 177.854L264.354 177.146L262.157 174.95L261.45 175.657ZM261.303 172.197L261.303 175.303L262.303 175.303L262.303 172.197L261.303 172.197ZM258.697 172.697L261.803 172.697L261.803 171.697L258.697 171.697L258.697 172.697ZM256.146 170.354L258.343 172.55L259.05 171.843L256.854 169.646L256.146 170.354ZM254.657 172.55L256.854 170.354L256.146 169.646L253.95 171.843L254.657 172.55ZM251.197 172.697L254.303 172.697L254.303 171.697L251.197 171.697L251.197 172.697ZM251.697 175.303L251.697 172.197L250.697 172.197L250.697 175.303L251.697 175.303ZM249.354 177.854L251.55 175.657L250.843 174.95L248.646 177.146L249.354 177.854ZM251.55 179.343L249.354 177.146L248.646 177.854L250.843 180.05L251.55 179.343ZM251.697 182.803L251.697 179.697L250.697 179.697L250.697 182.803L251.697 182.803ZM254.303 182.303L251.197 182.303L251.197 183.303L254.303 183.303L254.303 182.303Z" fill="#808080"/>
<path fill-rule="evenodd" clip-rule="evenodd" d="M398.303 232.803L400.5 235L402.697 232.803L405.803 232.803L405.803 229.697L408 227.5L405.803 225.303L405.803 222.197L402.697 222.197L400.5 220L398.303 222.197L395.197 222.197L395.197 225.303L393 227.5L395.197 229.697L395.197 232.803L398.303 232.803Z" fill="#F2F2F2"/>
<path d="M400.5 235L400.146 235.354C400.342 235.549 400.658 235.549 400.854 235.354L400.5 235ZM398.303 232.803L398.657 232.45C398.563 232.356 398.436 232.303 398.303 232.303L398.303 232.803ZM402.697 232.803L402.697 232.303C402.564 232.303 402.437 232.356 402.343 232.45L402.697 232.803ZM405.803 232.803L405.803 233.303C406.079 233.303 406.303 233.079 406.303 232.803L405.803 232.803ZM405.803 229.697L405.45 229.343C405.356 229.437 405.303 229.564 405.303 229.697L405.803 229.697ZM408 227.5L408.354 227.854C408.549 227.658 408.549 227.342 408.354 227.146L408 227.5ZM405.803 225.303L405.303 225.303C405.303 225.436 405.356 225.563 405.45 225.657L405.803 225.303ZM405.803 222.197L406.303 222.197C406.303 221.921 406.079 221.697 405.803 221.697L405.803 222.197ZM402.697 222.197L402.343 222.55C402.437 222.644 402.564 222.697 402.697 222.697L402.697 222.197ZM400.5 220L400.854 219.646C400.658 219.451 400.342 219.451 400.146 219.646L400.5 220ZM398.303 222.197L398.303 222.697C398.436 222.697 398.563 222.644 398.657 222.55L398.303 222.197ZM395.197 222.197L395.197 221.697C394.921 221.697 394.697 221.921 394.697 222.197L395.197 222.197ZM395.197 225.303L395.55 225.657C395.644 225.563 395.697 225.436 395.697 225.303L395.197 225.303ZM393 227.5L392.646 227.146C392.553 227.24 392.5 227.367 392.5 227.5C392.5 227.633 392.553 227.76 392.646 227.854L393 227.5ZM395.197 229.697L395.697 229.697C395.697 229.564 395.644 229.437 395.55 229.343L395.197 229.697ZM395.197 232.803L394.697 232.803C394.697 233.079 394.921 233.303 395.197 233.303L395.197 232.803ZM400.854 234.646L398.657 232.45L397.95 233.157L400.146 235.354L400.854 234.646ZM402.343 232.45L400.146 234.646L400.854 235.354L403.05 233.157L402.343 232.45ZM405.803 232.303L402.697 232.303L402.697 233.303L405.803 233.303L405.803 232.303ZM405.303 229.697L405.303 232.803L406.303 232.803L406.303 229.697L405.303 229.697ZM407.646 227.146L405.45 229.343L406.157 230.05L408.354 227.854L407.646 227.146ZM405.45 225.657L407.646 227.854L408.354 227.146L406.157 224.95L405.45 225.657ZM405.303 222.197L405.303 225.303L406.303 225.303L406.303 222.197L405.303 222.197ZM402.697 222.697L405.803 222.697L405.803 221.697L402.697 221.697L402.697 222.697ZM400.146 220.354L402.343 222.55L403.05 221.843L400.854 219.646L400.146 220.354ZM398.657 222.55L400.854 220.354L400.146 219.646L397.95 221.843L398.657 222.55ZM395.197 222.697L398.303 222.697L398.303 221.697L395.197 221.697L395.197 222.697ZM395.697 225.303L395.697 222.197L394.697 222.197L394.697 225.303L395.697 225.303ZM393.354 227.854L395.55 225.657L394.843 224.95L392.646 227.146L393.354 227.854ZM395.55 229.343L393.354 227.146L392.646 227.854L394.843 230.05L395.55 229.343ZM395.697 232.803L395.697 229.697L394.697 229.697L394.697 232.803L395.697 232.803ZM398.303 232.303L395.197 232.303L395.197 233.303L398.303 233.303L398.303 232.303Z" fill="#808080"/>
<path fill-rule="evenodd" clip-rule="evenodd" d="M397.983 188.015C397.994 187.845 398 187.673 398 187.5C398 183.358 394.642 180 390.5 180C386.358 180 383 183.358 383 187.5C383 187.668 383.006 187.835 383.016 188H382.5C378.358 188 375 191.358 375 195.5C375 199.642 378.358 203 382.5 203H397.5C401.642 203 405 199.642 405 195.5C405 191.52 401.9 188.264 397.983 188.015Z" fill="white"/>
<path d="M397.983 188.015L397.484 187.981C397.475 188.114 397.519 188.245 397.607 188.345C397.694 188.445 397.818 188.506 397.951 188.514L397.983 188.015ZM383.016 188V188.5C383.155 188.5 383.287 188.443 383.381 188.342C383.476 188.241 383.524 188.105 383.515 187.967L383.016 188ZM397.5 187.5C397.5 187.662 397.495 187.822 397.484 187.981L398.481 188.049C398.494 187.868 398.5 187.684 398.5 187.5H397.5ZM390.5 180.5C394.366 180.5 397.5 183.634 397.5 187.5H398.5C398.5 183.082 394.918 179.5 390.5 179.5V180.5ZM383.5 187.5C383.5 183.634 386.634 180.5 390.5 180.5V179.5C386.082 179.5 382.5 183.082 382.5 187.5H383.5ZM383.515 187.967C383.505 187.813 383.5 187.657 383.5 187.5H382.5C382.5 187.679 382.506 187.857 382.517 188.033L383.515 187.967ZM382.5 188.5H383.016V187.5H382.5V188.5ZM375.5 195.5C375.5 191.634 378.634 188.5 382.5 188.5V187.5C378.082 187.5 374.5 191.082 374.5 195.5H375.5ZM382.5 202.5C378.634 202.5 375.5 199.366 375.5 195.5H374.5C374.5 199.918 378.082 203.5 382.5 203.5V202.5ZM397.5 202.5H382.5V203.5H397.5V202.5ZM404.5 195.5C404.5 199.366 401.366 202.5 397.5 202.5V203.5C401.918 203.5 405.5 199.918 405.5 195.5H404.5ZM397.951 188.514C401.607 188.746 404.5 191.786 404.5 195.5H405.5C405.5 191.254 402.193 187.782 398.014 187.516L397.951 188.514Z" fill="#808080"/>
<path d="M253 53.5V38H273V53.5L263 63L253 53.5Z" fill="white" stroke="#808080" stroke-linecap="round" stroke-linejoin="round"/>
<circle cx="263" cy="48" r="4" fill="#F2F2F2" stroke="#808080" stroke-linejoin="round"/>
<rect x="70" y="100" width="49" height="53" rx="5" fill="#F2F2F2" stroke="#808080" stroke-linejoin="round"/>
<path d="M42 102C42 99.2386 44.2386 97 47 97H102C104.761 97 107 99.2386 107 102V152C107 154.761 104.761 157 102 157H57L42 142V102Z" fill="white" stroke="#808080" stroke-linejoin="round"/>
<path d="M57 142H42L57 157V142Z" fill="#F2F2F2" stroke="#808080" stroke-linejoin="round"/>
<path d="M69.2727 127H59.7273V117.476H54L64.5 107L75 117.476H69.2727V127Z" fill="#F2F2F2" stroke="#808080" stroke-linecap="round" stroke-linejoin="round"/>
<path d="M89.5455 127H80.4545V136.524H75L85 147L95 136.524H89.5455V127Z" fill="#F2F2F2" stroke="#808080" stroke-linecap="round" stroke-linejoin="round"/>
<circle cx="85" cy="113" r="4" fill="#F2F2F2" stroke="#808080" stroke-linejoin="round"/>
<circle cx="49" cy="77" r="4" fill="#F2F2F2" stroke="#808080" stroke-linejoin="round"/>
<circle cx="49" cy="175" r="4" transform="rotate(-180 49 175)" fill="#F2F2F2" stroke="#808080" stroke-linejoin="round"/>
<path fill-rule="evenodd" clip-rule="evenodd" d="M353 170H343V180C343 182.05 344.234 183.812 346 184.584V205H350V184.584C351.766 183.812 353 182.05 353 180V170Z" fill="#F2F2F2"/>
<path d="M343 170V169.5C342.724 169.5 342.5 169.724 342.5 170H343ZM353 170H353.5C353.5 169.724 353.276 169.5 353 169.5V170ZM346 184.584H346.5C346.5 184.385 346.382 184.205 346.2 184.126L346 184.584ZM346 205H345.5C345.5 205.276 345.724 205.5 346 205.5V205ZM350 205V205.5C350.276 205.5 350.5 205.276 350.5 205H350ZM350 184.584L349.8 184.126C349.618 184.205 349.5 184.385 349.5 184.584H350ZM343 170.5H353V169.5H343V170.5ZM343.5 180V170H342.5V180H343.5ZM346.2 184.126C344.61 183.431 343.5 181.845 343.5 180H342.5C342.5 182.256 343.858 184.194 345.8 185.042L346.2 184.126ZM345.5 184.584V205H346.5V184.584H345.5ZM346 205.5H350V204.5H346V205.5ZM350.5 205V184.584H349.5V205H350.5ZM352.5 180C352.5 181.845 351.39 183.431 349.8 184.126L350.2 185.042C352.142 184.194 353.5 182.256 353.5 180H352.5ZM352.5 170V180H353.5V170H352.5Z" fill="#808080"/>
<path fill-rule="evenodd" clip-rule="evenodd" d="M358 200H338V207C339.657 207 341 208.343 341 210C341 211.657 339.657 213 338 213V225C338 230.523 342.477 235 348 235C353.523 235 358 230.523 358 225V213C356.343 213 355 211.657 355 210C355 208.343 356.343 207 358 207V200Z" fill="white"/>
<path d="M338 200V199.5C337.724 199.5 337.5 199.724 337.5 200H338ZM358 200H358.5C358.5 199.724 358.276 199.5 358 199.5V200ZM338 207H337.5C337.5 207.276 337.724 207.5 338 207.5V207ZM338 213V212.5C337.724 212.5 337.5 212.724 337.5 213H338ZM358 213H358.5C358.5 212.724 358.276 212.5 358 212.5V213ZM358 207V207.5C358.276 207.5 358.5 207.276 358.5 207H358ZM338 200.5H358V199.5H338V200.5ZM338.5 207V200H337.5V207H338.5ZM341.5 210C341.5 208.067 339.933 206.5 338 206.5V207.5C339.381 207.5 340.5 208.619 340.5 210H341.5ZM338 213.5C339.933 213.5 341.5 211.933 341.5 210H340.5C340.5 211.381 339.381 212.5 338 212.5V213.5ZM338.5 225V213H337.5V225H338.5ZM348 234.5C342.753 234.5 338.5 230.247 338.5 225H337.5C337.5 230.799 342.201 235.5 348 235.5V234.5ZM357.5 225C357.5 230.247 353.247 234.5 348 234.5V235.5C353.799 235.5 358.5 230.799 358.5 225H357.5ZM357.5 213V225H358.5V213H357.5ZM354.5 210C354.5 211.933 356.067 213.5 358 213.5V212.5C356.619 212.5 355.5 211.381 355.5 210H354.5ZM358 206.5C356.067 206.5 354.5 208.067 354.5 210H355.5C355.5 208.619 356.619 207.5 358 207.5V206.5ZM357.5 200V207H358.5V200H357.5Z" fill="#808080"/>
<path d="M220 230L193 230" stroke="#808080" stroke-width="2" stroke-linecap="round" stroke-linejoin="round" stroke-dasharray="0 11"/>
<path d="M49 21L49 59" stroke="#808080" stroke-width="2" stroke-linecap="round" stroke-linejoin="round" stroke-dasharray="0 11"/>
<path d="M146 77L66 77" stroke="#808080" stroke-width="2" stroke-linecap="round" stroke-linejoin="round" stroke-dasharray="0 11"/>
<path d="M49 231L49 188" stroke="#808080" stroke-width="2" stroke-linecap="round" stroke-linejoin="round" stroke-dasharray="0 11"/>
<path d="M408 115L408 150" stroke="#808080" stroke-width="2" stroke-linecap="round" stroke-linejoin="round" stroke-dasharray="0 11"/>
<circle cx="378" cy="230" r="4" fill="#F2F2F2" stroke="#808080" stroke-linejoin="round"/>
<circle cx="279" cy="178" r="4" fill="#F2F2F2" stroke="#808080" stroke-linejoin="round"/>
<circle cx="171" cy="77" r="4" fill="#F2F2F2" stroke="#808080" stroke-linejoin="round"/>
<rect x="351" y="106" width="49" height="53" rx="5" fill="#F2F2F2" stroke="#808080" stroke-linejoin="round"/>
<path d="M339 99C339 96.2386 341.239 94 344 94H384C386.761 94 389 96.2386 389 99V144C389 146.761 386.761 149 384 149H354L339 134V99Z" fill="white" stroke="#808080" stroke-linejoin="round"/>
<path d="M354 134H339L354 149V134Z" fill="#F2F2F2" stroke="#808080" stroke-linejoin="round"/>
<path d="M349 104L349 124" stroke="#808080" stroke-width="2" stroke-linecap="round" stroke-linejoin="round" stroke-dasharray="0 11"/>
<path d="M360.664 115.124L368 117.994L368 118.638L360.664 121.48L360.664 120.794L367.216 118.302L360.664 115.796L360.664 115.124ZM368 109.482L366.516 109.482C367.524 109.874 368.14 110.84 368.14 112.03C368.14 113.542 367.3 114.522 365.998 114.522C364.556 114.522 363.828 113.374 363.828 111.134C363.828 110.672 363.842 110.336 363.912 109.51L363.226 109.51C361.854 109.51 361.042 110.238 361.042 111.47C361.042 112.786 361.882 113.626 363.212 113.64L363.212 114.242C361.588 114.228 360.524 113.122 360.524 111.484C360.524 109.846 361.504 108.88 363.156 108.88L368 108.88L368 109.482ZM365.984 113.878C366.978 113.878 367.636 113.122 367.636 111.974C367.636 110.476 366.614 109.51 365.06 109.51L364.374 109.51C364.304 110.21 364.29 110.686 364.29 111.106C364.29 112.982 364.836 113.878 365.984 113.878ZM368 106.033L368 106.677L357.948 106.677L357.948 106.033L368 106.033ZM358.956 102.826C359.306 102.826 359.572 103.092 359.572 103.442C359.572 103.806 359.306 104.072 358.956 104.072C358.62 104.072 358.382 103.806 358.382 103.442C358.382 103.092 358.62 102.826 358.956 102.826ZM368 103.12L368 103.764L360.664 103.764L360.664 103.12L368 103.12ZM378.318 132.885C376.036 132.885 374.524 131.625 374.524 129.665C374.524 128.489 375.224 127.481 376.386 127.005L371.948 127.005L371.948 126.361L382 126.361L382 126.977L380.292 126.977C381.454 127.467 382.14 128.461 382.14 129.665C382.14 131.639 380.614 132.885 378.318 132.885ZM378.318 132.227C380.362 132.227 381.594 131.219 381.594 129.609C381.594 128.027 380.292 126.977 378.29 126.977C376.274 126.977 375.07 128.069 375.07 129.609C375.07 131.219 376.288 132.227 378.318 132.227ZM372.956 123.157C373.306 123.157 373.572 123.423 373.572 123.773C373.572 124.137 373.306 124.403 372.956 124.403C372.62 124.403 372.382 124.137 372.382 123.773C372.382 123.423 372.62 123.157 372.956 123.157ZM382 123.451L382 124.095L374.664 124.095L374.664 123.451L382 123.451ZM379.088 116.436L374.664 116.436L374.664 115.778L382 115.778L382 116.394L380.544 116.394C381.468 116.772 382.14 117.696 382.14 118.816C382.14 120.314 381.3 121.266 379.466 121.266L374.664 121.266L374.664 120.622L379.312 120.622C380.964 120.622 381.594 119.796 381.594 118.676C381.594 117.332 380.502 116.436 379.088 116.436ZM382 112.882L382 113.526L374.664 113.526L374.664 112.91L376.148 112.91C375.14 112.448 374.524 111.524 374.524 110.446C374.524 109.256 375.21 108.388 376.358 108.108C375.252 107.688 374.524 106.694 374.524 105.532C374.524 103.992 375.532 103.054 377.226 103.054L382 103.054L382 103.698L377.45 103.698C375.924 103.698 375.07 104.412 375.07 105.714C375.07 106.96 376.176 107.968 377.618 107.968L382 107.968L382 108.612L377.45 108.612C375.924 108.612 375.07 109.326 375.07 110.628C375.07 111.888 376.176 112.882 377.618 112.882L382 112.882Z" fill="#808080"/>
<path fill-rule="evenodd" clip-rule="evenodd" d="M313 190C309.686 190 307 187.314 307 184V171.4L298 176.5V193.5L306.627 198.389L305.355 227.008C305.162 231.363 308.64 235 313 235C317.36 235 320.838 231.363 320.645 227.008L319.373 198.389L328 193.5V176.5L319 171.4V184C319 187.314 316.314 190 313 190Z" fill="#F2F2F2"/>
<path d="M307 171.4H307.5C307.5 171.222 307.405 171.057 307.252 170.968C307.098 170.878 306.908 170.877 306.753 170.965L307 171.4ZM298 176.5L297.753 176.065C297.597 176.154 297.5 176.32 297.5 176.5H298ZM298 193.5H297.5C297.5 193.68 297.597 193.846 297.753 193.935L298 193.5ZM306.627 198.389L307.127 198.411C307.135 198.223 307.037 198.046 306.874 197.954L306.627 198.389ZM305.355 227.008L305.855 227.03L305.355 227.008ZM320.645 227.008L320.145 227.03L320.645 227.008ZM319.373 198.389L319.126 197.954C318.963 198.046 318.865 198.223 318.873 198.411L319.373 198.389ZM328 193.5L328.247 193.935C328.403 193.846 328.5 193.68 328.5 193.5H328ZM328 176.5H328.5C328.5 176.32 328.403 176.154 328.247 176.065L328 176.5ZM319 171.4L319.247 170.965C319.092 170.877 318.902 170.878 318.748 170.968C318.595 171.057 318.5 171.222 318.5 171.4H319ZM306.5 184C306.5 187.59 309.41 190.5 313 190.5V189.5C309.962 189.5 307.5 187.037 307.5 184H306.5ZM306.5 171.4V184H307.5V171.4H306.5ZM306.753 170.965L297.753 176.065L298.247 176.935L307.247 171.835L306.753 170.965ZM297.5 176.5V193.5H298.5V176.5H297.5ZM297.753 193.935L306.381 198.824L306.874 197.954L298.247 193.065L297.753 193.935ZM306.128 198.366L304.856 226.986L305.855 227.03L307.127 198.411L306.128 198.366ZM304.856 226.986C304.649 231.625 308.356 235.5 313 235.5V234.5C308.925 234.5 305.674 231.101 305.855 227.03L304.856 226.986ZM313 235.5C317.644 235.5 321.351 231.625 321.144 226.986L320.145 227.03C320.326 231.101 317.075 234.5 313 234.5V235.5ZM321.144 226.986L319.872 198.366L318.873 198.411L320.145 227.03L321.144 226.986ZM319.619 198.824L328.247 193.935L327.753 193.065L319.126 197.954L319.619 198.824ZM328.5 193.5V176.5H327.5V193.5H328.5ZM328.247 176.065L319.247 170.965L318.753 171.835L327.753 176.935L328.247 176.065ZM319.5 184V171.4H318.5V184H319.5ZM313 190.5C316.59 190.5 319.5 187.59 319.5 184H318.5C318.5 187.037 316.038 189.5 313 189.5V190.5Z" fill="#808080"/>
<path d="M221.094 153.915C208.772 153.915 199.134 143.911 199.134 131.04C199.134 118.23 208.772 108.287 221.094 108.287C232.623 108.287 241.651 115.973 243.176 127.197H233.355C232.318 120.914 227.438 116.583 221.216 116.583C213.713 116.583 208.65 122.5 208.65 131.04C208.65 139.641 213.713 145.619 221.216 145.619C227.438 145.619 232.257 141.227 233.355 134.944H243.176C241.651 146.29 232.623 153.915 221.094 153.915ZM262.155 153H246.6V109.202H262.155C276.063 109.202 284.481 118.108 284.481 130.857C284.481 143.606 275.758 153 262.155 153ZM255.872 117.193V145.009H261.667C270.39 145.009 274.965 139.946 274.965 130.857C274.965 122.134 270.39 117.193 261.667 117.193H255.872ZM297.143 153H287.871V109.202H297.143V128.478L313.064 109.202H323.678L306.293 130.186L324.166 153H312.759L297.143 132.992V153Z" fill="#1A1A1A"/>
<circle cx="162.5" cy="130.5" r="29.5" fill="url(#paint0_linear_1864_2441)"/>
<path d="M170.016 136.423L177.369 131.939C177.759 131.701 178 131.259 178 130.785V121.816C178 121.342 177.759 120.9 177.369 120.662L170.016 116.178C169.626 115.94 169.143 115.942 168.755 116.178L161.402 120.662C161.012 120.9 160.771 121.342 160.771 121.816V137.843L155.614 140.986L150.458 137.843V131.555L155.614 128.412L159.015 130.487V126.268L156.245 124.578C156.055 124.462 155.836 124.399 155.614 124.399C155.393 124.399 155.174 124.462 154.984 124.578L147.631 129.062C147.241 129.3 147 129.742 147 130.216V139.185C147 139.659 147.241 140.101 147.631 140.339L154.984 144.823C155.374 145.059 155.855 145.059 156.245 144.823L163.598 140.339C163.988 140.101 164.229 139.659 164.229 139.185V123.158L164.321 123.102L169.383 120.015L174.54 123.158V129.446L169.383 132.589L165.987 130.519V134.737L168.753 136.423C169.143 136.659 169.626 136.659 170.014 136.423H170.016Z" fill="url(#paint1_linear_1864_2441)"/>
<defs>
<linearGradient id="paint0_linear_1864_2441" x1="132.808" y1="149.957" x2="192.715" y2="119.156" gradientUnits="userSpaceOnUse">
<stop stop-color="#A726C1"/>
<stop offset="0.88" stop-color="#803BDF"/>
<stop offset="1" stop-color="#7B3FE4"/>
</linearGradient>
<linearGradient id="paint1_linear_1864_2441" x1="162.5" y1="116" x2="162.5" y2="174.5" gradientUnits="userSpaceOnUse">
<stop stop-color="white"/>
<stop offset="1" stop-color="white" stop-opacity="0"/>
</linearGradient>
</defs>
</svg>
