<svg width="48" height="48" viewBox="0 0 48 48" fill="none" xmlns="http://www.w3.org/2000/svg">
<circle cx="24" cy="24" r="24" fill="url(#paint0_linear_1169_1354)"/>
<path d="M23.1231 31.8284C22.6119 31.8284 22.1102 31.689 21.6724 31.4254L14.0263 26.8228V29.6556C14.0263 31.5211 15.0146 33.2533 16.8092 34.5331C18.5079 35.7443 20.7501 36.4114 23.1231 36.4114C25.4959 36.4114 27.7382 35.7443 29.4368 34.5331C31.2314 33.2533 32.2197 31.5211 32.2197 29.6556V26.8228L24.5735 31.4255C24.1358 31.689 23.6342 31.8284 23.1231 31.8284Z" fill="white"/>
<path d="M39.3244 34.4871C39.6857 34.3818 39.9629 34.0634 39.9966 33.666C40.0404 33.1501 39.6577 32.6964 39.1418 32.6526L38.2461 32.5765V20.4767C38.2479 20.1531 38.0701 19.8389 37.7921 19.6735L23.6065 11.1343C23.3091 10.9552 22.937 10.9552 22.6395 11.1343L8.454 19.6735C8.17225 19.8431 8 20.1478 8 20.4767C8 20.8055 8.17225 21.1103 8.454 21.2798L22.6395 29.819C22.7882 29.9086 22.9557 29.9533 23.123 29.9533C23.2904 29.9533 23.4578 29.9086 23.6065 29.819L36.3711 22.1352V36.2423C36.3711 36.7601 36.7908 37.1798 37.3086 37.1798C37.8263 37.1798 38.2461 36.7601 38.2461 36.2423V36.1498C38.5587 36.6295 39.1862 36.7637 39.6414 36.4089C40.0486 36.0891 40.1196 35.4998 39.7998 35.0926L39.3244 34.4871Z" fill="white"/>
<defs>
<linearGradient id="paint0_linear_1169_1354" x1="48" y1="-1.43051e-06" x2="-4.29153e-06" y2="48" gradientUnits="userSpaceOnUse">
<stop stop-color="#7B3FE4"/>
<stop offset="1" stop-color="#A528C3"/>
</linearGradient>
</defs>
</svg>
