<svg width="450" height="255" viewBox="0 0 450 255" fill="none" xmlns="http://www.w3.org/2000/svg">
<rect width="450" height="255" rx="20" fill="url(#paint0_linear_2068_75)" fill-opacity="0.35"/>
<path d="M246.079 144.635L267.189 131.76C268.308 131.076 269 129.808 269 128.447V102.698C269 101.337 268.308 100.069 267.189 99.3849L246.079 86.5104C244.96 85.8265 243.571 85.8332 242.458 86.5104L221.347 99.3849C220.228 100.069 219.537 101.337 219.537 102.698V148.711L204.732 157.735L189.927 148.711V130.658L204.732 121.635L214.495 127.59V115.48L206.542 110.626C205.995 110.294 205.367 110.115 204.732 110.115C204.097 110.115 203.468 110.294 202.921 110.626L181.811 123.5C180.692 124.184 180 125.452 180 126.814V152.562C180 153.924 180.692 155.192 181.811 155.876L202.921 168.75C204.04 169.427 205.423 169.427 206.542 168.75L227.653 155.876C228.772 155.192 229.463 153.924 229.463 152.562V106.549L229.727 106.39L244.262 97.5257L259.067 106.549V124.603L244.262 133.626L234.511 127.683V139.794L242.452 144.635C243.571 145.312 244.96 145.312 246.073 144.635H246.079Z" fill="url(#paint1_linear_2068_75)"/>
<path d="M23 192C23 189.239 25.2386 187 28 187L102 187C104.761 187 107 189.239 107 192V227C107 229.761 104.761 232 102 232H28C25.2386 232 23 229.761 23 227L23 192Z" stroke="#7200E9" stroke-linejoin="round"/>
<g filter="url(#filter0_b_2068_75)">
<path d="M163 177C163 174.239 160.761 172 158 172H43C40.2386 172 38 174.239 38 177V212C38 214.761 40.2386 217 43 217H148L163 202V177Z" fill="url(#paint2_linear_2068_75)" fill-opacity="0.3"/>
<path d="M163 177C163 174.239 160.761 172 158 172H43C40.2386 172 38 174.239 38 177V212C38 214.761 40.2386 217 43 217H148L163 202V177Z" stroke="#7200E9" stroke-linejoin="round"/>
</g>
<path d="M148 202H163L148 217V202Z" fill="white" stroke="#7200E9" stroke-linejoin="round"/>
<path d="M48 187.895L60.3157 180L72.6315 187.895L60.3157 195.79L48 187.895Z" fill="white" stroke="#7200E9" stroke-linejoin="round"/>
<path d="M60.3157 210L48 202.537V187.895L60.3157 195.358V210Z" fill="white" stroke="#7200E9" stroke-linejoin="round"/>
<path d="M60.3156 210L72.6313 202.537V187.895L60.3156 195.358V210Z" fill="url(#paint3_linear_2068_75)" stroke="#7200E9" stroke-linejoin="round"/>
<path d="M82.6313 187.895L94.9471 180L107.263 187.895L94.9471 195.79L82.6313 187.895Z" fill="white" stroke="#7200E9" stroke-linejoin="round"/>
<path d="M94.9471 210L82.6313 202.537V187.895L94.9471 195.358V210Z" fill="white" stroke="#7200E9" stroke-linejoin="round"/>
<path d="M94.947 210L107.263 202.537V187.895L94.947 195.358V210Z" fill="url(#paint4_linear_2068_75)" stroke="#7200E9" stroke-linejoin="round"/>
<path d="M117.263 187.895L129.578 180L141.894 187.895L129.578 195.79L117.263 187.895Z" fill="white" stroke="#7200E9" stroke-linejoin="round"/>
<path d="M129.578 210L117.263 202.537V187.895L129.578 195.358V210Z" fill="white" stroke="#7200E9" stroke-linejoin="round"/>
<path d="M129.578 210L141.894 202.537V187.895L129.578 195.358V210Z" fill="url(#paint5_linear_2068_75)" stroke="#7200E9" stroke-linejoin="round"/>
<path d="M163 232L133 232" stroke="#7200E9" stroke-width="2" stroke-linecap="round" stroke-linejoin="round" stroke-dasharray="0 11"/>
<g filter="url(#filter1_b_2068_75)">
<path d="M207.173 228.228C208.107 230.23 210.486 231.096 212.489 230.162C214.491 229.229 215.357 226.849 214.423 224.847L213.277 222.389C213.956 221.755 214.566 221.061 215.103 220.321L217.703 221.267C219.779 222.023 222.074 220.952 222.83 218.876C223.586 216.801 222.515 214.505 220.439 213.75L217.839 212.803C217.904 211.891 217.882 210.968 217.77 210.046L220.228 208.899C222.23 207.966 223.096 205.586 222.162 203.584C221.229 201.582 218.849 200.715 216.847 201.649L214.649 202.674C214 201.87 213.274 201.148 212.487 200.513L213.267 198.369C214.023 196.293 212.953 193.998 210.877 193.242C208.801 192.487 206.505 193.557 205.75 195.633L205.108 197.397C203.961 197.257 202.791 197.254 201.623 197.396L200.9 195.845C199.966 193.843 197.586 192.976 195.584 193.91C193.582 194.844 192.715 197.224 193.649 199.226L194.251 200.517C193.251 201.325 192.377 202.252 191.64 203.268L190.369 202.805C188.293 202.049 185.998 203.12 185.242 205.196C184.487 207.272 185.557 209.567 187.633 210.323L188.904 210.785C188.816 212.037 188.889 213.309 189.137 214.57L187.845 215.173C185.843 216.106 184.976 218.486 185.91 220.489C186.844 222.491 189.224 223.357 191.226 222.423L192.777 221.7C193.581 222.56 194.479 223.309 195.447 223.94L194.805 225.703C194.05 227.779 195.12 230.074 197.196 230.83C199.272 231.586 201.567 230.515 202.323 228.439L203.103 226.295C204.114 226.315 205.134 226.228 206.148 226.03L207.173 228.228Z" fill="url(#paint6_linear_2068_75)" fill-opacity="0.3"/>
<path d="M207.173 228.228C208.107 230.23 210.486 231.096 212.489 230.162C214.491 229.229 215.357 226.849 214.423 224.847L213.277 222.389C213.956 221.755 214.566 221.061 215.103 220.321L217.703 221.267C219.779 222.023 222.074 220.952 222.83 218.876C223.586 216.801 222.515 214.505 220.439 213.75L217.839 212.803C217.904 211.891 217.882 210.968 217.77 210.046L220.228 208.899C222.23 207.966 223.096 205.586 222.162 203.584C221.229 201.582 218.849 200.715 216.847 201.649L214.649 202.674C214 201.87 213.274 201.148 212.487 200.513L213.267 198.369C214.023 196.293 212.953 193.998 210.877 193.242C208.801 192.487 206.505 193.557 205.75 195.633L205.108 197.397C203.961 197.257 202.791 197.254 201.623 197.396L200.9 195.845C199.966 193.843 197.586 192.976 195.584 193.91C193.582 194.844 192.715 197.224 193.649 199.226L194.251 200.517C193.251 201.325 192.377 202.252 191.64 203.268L190.369 202.805C188.293 202.049 185.998 203.12 185.242 205.196C184.487 207.272 185.557 209.567 187.633 210.323L188.904 210.785C188.816 212.037 188.889 213.309 189.137 214.57L187.845 215.173C185.843 216.106 184.976 218.486 185.91 220.489C186.844 222.491 189.224 223.357 191.226 222.423L192.777 221.7C193.581 222.56 194.479 223.309 195.447 223.94L194.805 225.703C194.05 227.779 195.12 230.074 197.196 230.83C199.272 231.586 201.567 230.515 202.323 228.439L203.103 226.295C204.114 226.315 205.134 226.228 206.148 226.03L207.173 228.228Z" stroke="#7200E9" stroke-linejoin="round"/>
</g>
<circle cx="203.5" cy="212.5" r="5.5" fill="white" stroke="#7200E9" stroke-linejoin="round"/>
<g filter="url(#filter2_b_2068_75)">
<path d="M97.1729 148.228C98.1065 150.23 100.486 151.096 102.489 150.162C104.491 149.229 105.357 146.849 104.423 144.847L103.277 142.389C103.956 141.755 104.566 141.061 105.103 140.321L107.703 141.267C109.779 142.023 112.074 140.952 112.83 138.876C113.586 136.801 112.515 134.505 110.439 133.75L107.839 132.803C107.904 131.891 107.882 130.968 107.77 130.046L110.228 128.899C112.23 127.966 113.096 125.586 112.162 123.584C111.229 121.582 108.849 120.715 106.847 121.649L104.649 122.674C104 121.87 103.274 121.148 102.487 120.513L103.267 118.369C104.023 116.293 102.953 113.998 100.877 113.242C98.8007 112.487 96.5053 113.557 95.7498 115.633L95.1079 117.397C93.9609 117.257 92.7911 117.254 91.623 117.396L90.8996 115.845C89.9659 113.843 87.586 112.976 85.5838 113.91C83.5817 114.844 82.7155 117.224 83.6491 119.226L84.2514 120.517C83.2512 121.325 82.3771 122.252 81.6405 123.268L80.3692 122.805C78.2933 122.049 75.9979 123.12 75.2423 125.196C74.4867 127.272 75.5571 129.567 77.633 130.323L78.9043 130.785C78.8158 132.037 78.8895 133.309 79.1365 134.57L77.8448 135.173C75.8427 136.106 74.9764 138.486 75.9101 140.489C76.8437 142.491 79.2236 143.357 81.2258 142.423L82.7772 141.7C83.5807 142.56 84.4788 143.309 85.447 143.94L84.8051 145.703C84.0496 147.779 85.1199 150.074 87.1958 150.83C89.2717 151.586 91.5671 150.515 92.3227 148.439L93.1031 146.295C94.114 146.315 95.1344 146.228 96.1479 146.03L97.1729 148.228Z" fill="url(#paint7_linear_2068_75)" fill-opacity="0.3"/>
<path d="M97.1729 148.228C98.1065 150.23 100.486 151.096 102.489 150.162C104.491 149.229 105.357 146.849 104.423 144.847L103.277 142.389C103.956 141.755 104.566 141.061 105.103 140.321L107.703 141.267C109.779 142.023 112.074 140.952 112.83 138.876C113.586 136.801 112.515 134.505 110.439 133.75L107.839 132.803C107.904 131.891 107.882 130.968 107.77 130.046L110.228 128.899C112.23 127.966 113.096 125.586 112.162 123.584C111.229 121.582 108.849 120.715 106.847 121.649L104.649 122.674C104 121.87 103.274 121.148 102.487 120.513L103.267 118.369C104.023 116.293 102.953 113.998 100.877 113.242C98.8007 112.487 96.5053 113.557 95.7498 115.633L95.1079 117.397C93.9609 117.257 92.7911 117.254 91.623 117.396L90.8996 115.845C89.9659 113.843 87.586 112.976 85.5838 113.91C83.5817 114.844 82.7155 117.224 83.6491 119.226L84.2514 120.517C83.2512 121.325 82.3771 122.252 81.6405 123.268L80.3692 122.805C78.2933 122.049 75.9979 123.12 75.2423 125.196C74.4867 127.272 75.5571 129.567 77.633 130.323L78.9043 130.785C78.8158 132.037 78.8895 133.309 79.1365 134.57L77.8448 135.173C75.8427 136.106 74.9764 138.486 75.9101 140.489C76.8437 142.491 79.2236 143.357 81.2258 142.423L82.7772 141.7C83.5807 142.56 84.4788 143.309 85.447 143.94L84.8051 145.703C84.0496 147.779 85.1199 150.074 87.1958 150.83C89.2717 151.586 91.5671 150.515 92.3227 148.439L93.1031 146.295C94.114 146.315 95.1344 146.228 96.1479 146.03L97.1729 148.228Z" stroke="#7200E9" stroke-linejoin="round"/>
</g>
<circle cx="93.5" cy="132.5" r="5.5" fill="white" stroke="#7200E9" stroke-linejoin="round"/>
<path fill-rule="evenodd" clip-rule="evenodd" d="M239 213C239 215.209 240.791 217 243 217C245.209 217 247 215.209 247 213V210.288C247.883 210 248.729 209.63 249.529 209.186L251.485 211.142C253.047 212.704 255.58 212.704 257.142 211.142C258.704 209.58 258.704 207.047 257.142 205.485L255.186 203.529C255.63 202.729 256 201.883 256.288 201H259C261.209 201 263 199.209 263 197C263 194.791 261.209 193 259 193H256.575C256.326 191.998 255.974 191.036 255.529 190.128L257.142 188.515C258.704 186.953 258.704 184.42 257.142 182.858C255.58 181.296 253.047 181.296 251.485 182.858L250.158 184.185C249.178 183.574 248.119 183.077 247 182.712V181C247 178.791 245.209 177 243 177C240.791 177 239 178.791 239 181V182.425C237.752 182.735 236.568 183.205 235.471 183.814L234.515 182.858C232.953 181.296 230.42 181.296 228.858 182.858C227.296 184.42 227.296 186.953 228.858 188.515L229.814 189.471C229.205 190.568 228.735 191.752 228.425 193H227C224.791 193 223 194.791 223 197C223 199.209 224.791 201 227 201H228.712C229.077 202.119 229.574 203.178 230.185 204.158L228.858 205.485C227.296 207.047 227.296 209.58 228.858 211.142C230.42 212.704 232.953 212.704 234.515 211.142L236.128 209.529C237.036 209.974 237.998 210.326 239 210.575V213Z" fill="white"/>
<path d="M247 210.288L246.845 209.813C246.639 209.88 246.5 210.072 246.5 210.288H247ZM249.529 209.186L249.882 208.832C249.725 208.674 249.481 208.64 249.286 208.748L249.529 209.186ZM257.142 205.485L256.789 205.839L256.789 205.839L257.142 205.485ZM255.186 203.529L254.748 203.286C254.64 203.481 254.674 203.724 254.832 203.882L255.186 203.529ZM256.288 201V200.5C256.072 200.5 255.88 200.639 255.813 200.845L256.288 201ZM256.575 193L256.089 193.12C256.145 193.343 256.345 193.5 256.575 193.5V193ZM255.529 190.128L255.175 189.775C255.024 189.926 254.986 190.156 255.08 190.348L255.529 190.128ZM257.142 188.515L257.496 188.868L257.496 188.868L257.142 188.515ZM257.142 182.858L257.496 182.504L257.496 182.504L257.142 182.858ZM251.485 182.858L251.132 182.504L251.132 182.504L251.485 182.858ZM250.158 184.185L249.894 184.609C250.091 184.732 250.347 184.703 250.512 184.539L250.158 184.185ZM247 182.712H246.5C246.5 182.928 246.639 183.12 246.845 183.187L247 182.712ZM239 182.425L239.12 182.911C239.343 182.855 239.5 182.655 239.5 182.425H239ZM235.471 183.814L235.118 184.168C235.276 184.326 235.519 184.36 235.714 184.252L235.471 183.814ZM234.515 182.858L234.868 182.504L234.868 182.504L234.515 182.858ZM228.858 188.515L228.504 188.868L228.504 188.868L228.858 188.515ZM229.814 189.471L230.252 189.714C230.36 189.519 230.326 189.275 230.168 189.118L229.814 189.471ZM228.425 193V193.5C228.655 193.5 228.855 193.343 228.911 193.12L228.425 193ZM228.712 201L229.187 200.845C229.12 200.639 228.928 200.5 228.712 200.5V201ZM230.185 204.158L230.539 204.512C230.703 204.347 230.732 204.091 230.609 203.894L230.185 204.158ZM228.858 205.485L229.211 205.839L229.211 205.839L228.858 205.485ZM228.858 211.142L229.211 210.789L229.211 210.789L228.858 211.142ZM234.515 211.142L234.868 211.496L234.515 211.142ZM236.128 209.529L236.348 209.08C236.156 208.986 235.926 209.024 235.775 209.175L236.128 209.529ZM239 210.575H239.5C239.5 210.345 239.343 210.145 239.12 210.089L239 210.575ZM243 216.5C241.067 216.5 239.5 214.933 239.5 213H238.5C238.5 215.485 240.515 217.5 243 217.5V216.5ZM246.5 213C246.5 214.933 244.933 216.5 243 216.5V217.5C245.485 217.5 247.5 215.485 247.5 213H246.5ZM246.5 210.288V213H247.5V210.288H246.5ZM249.286 208.748C248.514 209.177 247.697 209.535 246.845 209.813L247.155 210.764C248.069 210.465 248.944 210.082 249.772 209.623L249.286 208.748ZM251.839 210.788L249.882 208.832L249.175 209.539L251.132 211.496L251.839 210.788ZM256.789 210.788C255.422 212.155 253.206 212.155 251.839 210.788L251.132 211.496C252.889 213.253 255.738 213.253 257.496 211.496L256.789 210.788ZM256.789 205.839C258.155 207.206 258.155 209.422 256.789 210.788L257.496 211.496C259.253 209.738 259.253 206.889 257.496 205.132L256.789 205.839ZM254.832 203.882L256.789 205.839L257.496 205.132L255.539 203.175L254.832 203.882ZM255.813 200.845C255.535 201.697 255.177 202.514 254.748 203.286L255.623 203.771C256.082 202.944 256.465 202.069 256.764 201.155L255.813 200.845ZM259 200.5H256.288V201.5H259V200.5ZM262.5 197C262.5 198.933 260.933 200.5 259 200.5V201.5C261.485 201.5 263.5 199.485 263.5 197H262.5ZM259 193.5C260.933 193.5 262.5 195.067 262.5 197H263.5C263.5 194.515 261.485 192.5 259 192.5V193.5ZM256.575 193.5H259V192.5H256.575V193.5ZM255.08 190.348C255.509 191.225 255.85 192.153 256.089 193.12L257.06 192.88C256.803 191.842 256.438 190.848 255.978 189.908L255.08 190.348ZM256.789 188.161L255.175 189.775L255.882 190.482L257.496 188.868L256.789 188.161ZM256.789 183.211C258.155 184.578 258.155 186.794 256.789 188.161L257.496 188.868C259.253 187.111 259.253 184.262 257.496 182.504L256.789 183.211ZM251.839 183.211C253.206 181.845 255.422 181.845 256.789 183.211L257.496 182.504C255.738 180.747 252.889 180.747 251.132 182.504L251.839 183.211ZM250.512 184.539L251.839 183.211L251.132 182.504L249.805 183.831L250.512 184.539ZM246.845 183.187C247.925 183.539 248.947 184.019 249.894 184.609L250.423 183.761C249.408 183.128 248.313 182.614 247.155 182.236L246.845 183.187ZM246.5 181V182.712H247.5V181H246.5ZM243 177.5C244.933 177.5 246.5 179.067 246.5 181H247.5C247.5 178.515 245.485 176.5 243 176.5V177.5ZM239.5 181C239.5 179.067 241.067 177.5 243 177.5V176.5C240.515 176.5 238.5 178.515 238.5 181H239.5ZM239.5 182.425V181H238.5V182.425H239.5ZM235.714 184.252C236.773 183.664 237.916 183.209 239.12 182.911L238.88 181.94C237.588 182.26 236.363 182.747 235.229 183.377L235.714 184.252ZM234.161 183.211L235.118 184.168L235.825 183.461L234.868 182.504L234.161 183.211ZM229.211 183.211C230.578 181.844 232.794 181.844 234.161 183.211L234.868 182.504C233.111 180.747 230.262 180.747 228.504 182.504L229.211 183.211ZM229.211 188.161C227.845 186.794 227.845 184.578 229.211 183.211L228.504 182.504C226.747 184.262 226.747 187.111 228.504 188.868L229.211 188.161ZM230.168 189.118L229.211 188.161L228.504 188.868L229.461 189.825L230.168 189.118ZM228.911 193.12C229.209 191.916 229.664 190.773 230.252 189.714L229.377 189.228C228.747 190.363 228.26 191.588 227.94 192.88L228.911 193.12ZM227 193.5H228.425V192.5H227V193.5ZM223.5 197C223.5 195.067 225.067 193.5 227 193.5V192.5C224.515 192.5 222.5 194.515 222.5 197H223.5ZM227 200.5C225.067 200.5 223.5 198.933 223.5 197H222.5C222.5 199.485 224.515 201.5 227 201.5V200.5ZM228.712 200.5H227V201.5H228.712V200.5ZM230.609 203.894C230.019 202.947 229.539 201.925 229.187 200.845L228.236 201.155C228.614 202.313 229.128 203.408 229.761 204.423L230.609 203.894ZM229.211 205.839L230.539 204.512L229.831 203.805L228.504 205.132L229.211 205.839ZM229.211 210.789C227.845 209.422 227.845 207.206 229.211 205.839L228.504 205.132C226.747 206.889 226.747 209.738 228.504 211.496L229.211 210.789ZM234.161 210.789C232.794 212.155 230.578 212.155 229.211 210.789L228.504 211.496C230.262 213.253 233.111 213.253 234.868 211.496L234.161 210.789ZM235.775 209.175L234.161 210.789L234.868 211.496L236.482 209.882L235.775 209.175ZM239.12 210.089C238.153 209.85 237.225 209.509 236.348 209.08L235.908 209.978C236.848 210.438 237.842 210.803 238.88 211.06L239.12 210.089ZM239.5 213V210.575H238.5V213H239.5Z" fill="#7200E9"/>
<circle cx="242.5" cy="196.5" r="5.5" fill="white" stroke="#7200E9" stroke-linejoin="round"/>
<g filter="url(#filter3_b_2068_75)">
<rect x="285" y="173" width="70" height="59" rx="5" fill="url(#paint8_linear_2068_75)" fill-opacity="0.3"/>
<rect x="285" y="173" width="70" height="59" rx="5" stroke="#7200E9" stroke-linejoin="round"/>
</g>
<rect x="290" y="188" width="60" height="39" fill="white" stroke="#7200E9" stroke-linejoin="round"/>
<path fill-rule="evenodd" clip-rule="evenodd" d="M398.303 229.803L400.5 232L402.697 229.803L405.803 229.803L405.803 226.697L408 224.5L405.803 222.303L405.803 219.197L402.697 219.197L400.5 217L398.303 219.197L395.197 219.197L395.197 222.303L393 224.5L395.197 226.697L395.197 229.803L398.303 229.803Z" fill="white"/>
<path d="M400.5 232L400.146 232.354C400.342 232.549 400.658 232.549 400.854 232.354L400.5 232ZM398.303 229.803L398.657 229.45C398.563 229.356 398.436 229.303 398.303 229.303L398.303 229.803ZM402.697 229.803L402.697 229.303C402.564 229.303 402.437 229.356 402.343 229.45L402.697 229.803ZM405.803 229.803L405.803 230.303C405.936 230.303 406.063 230.251 406.157 230.157C406.251 230.063 406.303 229.936 406.303 229.803L405.803 229.803ZM405.803 226.697L405.45 226.343C405.356 226.437 405.303 226.564 405.303 226.697L405.803 226.697ZM408 224.5L408.354 224.854C408.549 224.658 408.549 224.342 408.354 224.146L408 224.5ZM405.803 222.303L405.303 222.303C405.303 222.436 405.356 222.563 405.45 222.657L405.803 222.303ZM405.803 219.197L406.303 219.197C406.303 218.921 406.079 218.697 405.803 218.697L405.803 219.197ZM402.697 219.197L402.343 219.55C402.437 219.644 402.564 219.697 402.697 219.697L402.697 219.197ZM400.5 217L400.854 216.646C400.76 216.553 400.633 216.5 400.5 216.5C400.367 216.5 400.24 216.553 400.146 216.646L400.5 217ZM398.303 219.197L398.303 219.697C398.436 219.697 398.563 219.644 398.657 219.55L398.303 219.197ZM395.197 219.197L395.197 218.697C394.921 218.697 394.697 218.921 394.697 219.197L395.197 219.197ZM395.197 222.303L395.55 222.657C395.644 222.563 395.697 222.436 395.697 222.303L395.197 222.303ZM393 224.5L392.646 224.146C392.553 224.24 392.5 224.367 392.5 224.5C392.5 224.633 392.553 224.76 392.646 224.854L393 224.5ZM395.197 226.697L395.697 226.697C395.697 226.564 395.644 226.437 395.55 226.343L395.197 226.697ZM395.197 229.803L394.697 229.803C394.697 230.079 394.921 230.303 395.197 230.303L395.197 229.803ZM400.854 231.646L398.657 229.45L397.95 230.157L400.146 232.354L400.854 231.646ZM402.343 229.45L400.146 231.646L400.854 232.354L403.05 230.157L402.343 229.45ZM405.803 229.303L402.697 229.303L402.697 230.303L405.803 230.303L405.803 229.303ZM405.303 226.697L405.303 229.803L406.303 229.803L406.303 226.697L405.303 226.697ZM407.646 224.146L405.45 226.343L406.157 227.05L408.354 224.854L407.646 224.146ZM405.45 222.657L407.646 224.854L408.354 224.146L406.157 221.95L405.45 222.657ZM405.303 219.197L405.303 222.303L406.303 222.303L406.303 219.197L405.303 219.197ZM402.697 219.697L405.803 219.697L405.803 218.697L402.697 218.697L402.697 219.697ZM400.146 217.354L402.343 219.55L403.05 218.843L400.854 216.646L400.146 217.354ZM398.657 219.55L400.854 217.354L400.146 216.646L397.95 218.843L398.657 219.55ZM395.197 219.697L398.303 219.697L398.303 218.697L395.197 218.697L395.197 219.697ZM395.697 222.303L395.697 219.197L394.697 219.197L394.697 222.303L395.697 222.303ZM393.354 224.854L395.55 222.657L394.843 221.95L392.646 224.146L393.354 224.854ZM395.55 226.343L393.354 224.146L392.646 224.854L394.843 227.05L395.55 226.343ZM395.697 229.803L395.697 226.697L394.697 226.697L394.697 229.803L395.697 229.803ZM398.303 229.303L395.197 229.303L395.197 230.303L398.303 230.303L398.303 229.303Z" fill="#7200E9"/>
<path fill-rule="evenodd" clip-rule="evenodd" d="M140.303 55.8033L142.5 58L144.697 55.8033L147.803 55.8033L147.803 52.6967L150 50.5L147.803 48.3033L147.803 45.1967L144.697 45.1967L142.5 43L140.303 45.1967L137.197 45.1967L137.197 48.3033L135 50.5L137.197 52.6967L137.197 55.8033L140.303 55.8033Z" fill="white"/>
<path d="M142.5 58L142.146 58.3536C142.342 58.5488 142.658 58.5488 142.854 58.3536L142.5 58ZM140.303 55.8033L140.657 55.4497C140.563 55.356 140.436 55.3033 140.303 55.3033L140.303 55.8033ZM144.697 55.8033L144.697 55.3033C144.564 55.3033 144.437 55.356 144.343 55.4497L144.697 55.8033ZM147.803 55.8033L147.803 56.3033C148.079 56.3033 148.303 56.0794 148.303 55.8033L147.803 55.8033ZM147.803 52.6967L147.45 52.3431C147.356 52.4369 147.303 52.5641 147.303 52.6967L147.803 52.6967ZM150 50.5L150.354 50.8536C150.549 50.6583 150.549 50.3417 150.354 50.1464L150 50.5ZM147.803 48.3033L147.303 48.3033C147.303 48.4359 147.356 48.5631 147.45 48.6569L147.803 48.3033ZM147.803 45.1967L148.303 45.1967C148.303 44.9206 148.079 44.6967 147.803 44.6967L147.803 45.1967ZM144.697 45.1967L144.343 45.5502C144.437 45.644 144.564 45.6967 144.697 45.6967L144.697 45.1967ZM142.5 43L142.854 42.6464C142.76 42.5527 142.633 42.5 142.5 42.5C142.367 42.5 142.24 42.5527 142.146 42.6464L142.5 43ZM140.303 45.1967L140.303 45.6967C140.436 45.6967 140.563 45.644 140.657 45.5502L140.303 45.1967ZM137.197 45.1967L137.197 44.6967C137.064 44.6967 136.937 44.7494 136.843 44.8431C136.749 44.9369 136.697 45.0641 136.697 45.1967L137.197 45.1967ZM137.197 48.3033L137.55 48.6569C137.644 48.5631 137.697 48.4359 137.697 48.3033L137.197 48.3033ZM135 50.5L134.646 50.1464C134.553 50.2402 134.5 50.3674 134.5 50.5C134.5 50.6326 134.553 50.7598 134.646 50.8536L135 50.5ZM137.197 52.6967L137.697 52.6967C137.697 52.5641 137.644 52.4369 137.55 52.3431L137.197 52.6967ZM137.197 55.8033L136.697 55.8033C136.697 55.9359 136.749 56.0631 136.843 56.1569C136.937 56.2506 137.064 56.3033 137.197 56.3033L137.197 55.8033ZM142.854 57.6464L140.657 55.4497L139.95 56.1569L142.146 58.3536L142.854 57.6464ZM144.343 55.4497L142.146 57.6464L142.854 58.3536L145.05 56.1569L144.343 55.4497ZM147.803 55.3033L144.697 55.3033L144.697 56.3033L147.803 56.3033L147.803 55.3033ZM147.303 52.6967L147.303 55.8033L148.303 55.8033L148.303 52.6967L147.303 52.6967ZM149.646 50.1464L147.45 52.3431L148.157 53.0503L150.354 50.8536L149.646 50.1464ZM147.45 48.6569L149.646 50.8536L150.354 50.1464L148.157 47.9497L147.45 48.6569ZM147.303 45.1967L147.303 48.3033L148.303 48.3033L148.303 45.1967L147.303 45.1967ZM144.697 45.6967L147.803 45.6967L147.803 44.6967L144.697 44.6967L144.697 45.6967ZM142.146 43.3536L144.343 45.5502L145.05 44.8431L142.854 42.6464L142.146 43.3536ZM140.657 45.5502L142.854 43.3536L142.146 42.6464L139.95 44.8431L140.657 45.5502ZM137.197 45.6967L140.303 45.6967L140.303 44.6967L137.197 44.6967L137.197 45.6967ZM137.697 48.3033L137.697 45.1967L136.697 45.1967L136.697 48.3033L137.697 48.3033ZM135.354 50.8536L137.55 48.6569L136.843 47.9497L134.646 50.1464L135.354 50.8536ZM137.55 52.3431L135.354 50.1464L134.646 50.8536L136.843 53.0503L137.55 52.3431ZM137.697 55.8033L137.697 52.6967L136.697 52.6967L136.697 55.8033L137.697 55.8033ZM140.303 55.3033L137.197 55.3033L137.197 56.3033L140.303 56.3033L140.303 55.3033Z" fill="#7200E9"/>
<path fill-rule="evenodd" clip-rule="evenodd" d="M420.983 188.015C420.994 187.845 421 187.673 421 187.5C421 183.358 417.642 180 413.5 180C409.358 180 406 183.358 406 187.5C406 187.668 406.006 187.835 406.016 188H405.5C401.358 188 398 191.358 398 195.5C398 199.642 401.358 203 405.5 203H420.5C424.642 203 428 199.642 428 195.5C428 191.52 424.9 188.264 420.983 188.015Z" fill="white"/>
<path d="M420.983 188.015L420.484 187.981C420.475 188.114 420.519 188.245 420.607 188.345C420.694 188.445 420.818 188.506 420.951 188.514L420.983 188.015ZM406.016 188V188.5C406.155 188.5 406.287 188.443 406.381 188.342C406.476 188.241 406.524 188.105 406.515 187.967L406.016 188ZM420.5 187.5C420.5 187.662 420.495 187.822 420.484 187.981L421.481 188.049C421.494 187.868 421.5 187.684 421.5 187.5H420.5ZM413.5 180.5C417.366 180.5 420.5 183.634 420.5 187.5H421.5C421.5 183.082 417.918 179.5 413.5 179.5V180.5ZM406.5 187.5C406.5 183.634 409.634 180.5 413.5 180.5V179.5C409.082 179.5 405.5 183.082 405.5 187.5H406.5ZM406.515 187.967C406.505 187.813 406.5 187.657 406.5 187.5H405.5C405.5 187.679 405.506 187.857 405.517 188.033L406.515 187.967ZM405.5 188.5H406.016V187.5H405.5V188.5ZM398.5 195.5C398.5 191.634 401.634 188.5 405.5 188.5V187.5C401.082 187.5 397.5 191.082 397.5 195.5H398.5ZM405.5 202.5C401.634 202.5 398.5 199.366 398.5 195.5H397.5C397.5 199.918 401.082 203.5 405.5 203.5V202.5ZM420.5 202.5H405.5V203.5H420.5V202.5ZM427.5 195.5C427.5 199.366 424.366 202.5 420.5 202.5V203.5C424.918 203.5 428.5 199.918 428.5 195.5H427.5ZM420.951 188.514C424.607 188.746 427.5 191.786 427.5 195.5H428.5C428.5 191.254 425.193 187.782 421.014 187.516L420.951 188.514Z" fill="#7200E9"/>
<circle cx="378" cy="228" r="4" fill="white" stroke="#7200E9" stroke-linejoin="round"/>
<g filter="url(#filter4_b_2068_75)">
<circle cx="142" cy="74" r="4" fill="url(#paint9_linear_2068_75)" fill-opacity="0.3"/>
<circle cx="142" cy="74" r="4" stroke="#7200E9" stroke-linejoin="round"/>
</g>
<g filter="url(#filter5_b_2068_75)">
<circle cx="142" cy="27" r="4" fill="url(#paint10_linear_2068_75)" fill-opacity="0.3"/>
<circle cx="142" cy="27" r="4" stroke="#7200E9" stroke-linejoin="round"/>
</g>
<circle cx="423" cy="228" r="4" fill="white" stroke="#7200E9" stroke-linejoin="round"/>
<path d="M302 181L291 181" stroke="#7200E9" stroke-width="2" stroke-linecap="round" stroke-linejoin="round" stroke-dasharray="0 11"/>
<path d="M305 198L315 205.5L305 213M320 213H330" stroke="#7200E9" stroke-linecap="round" stroke-linejoin="round"/>
<g filter="url(#filter6_b_2068_75)">
<rect x="53" y="40" width="60" height="53" rx="5" fill="url(#paint11_linear_2068_75)" fill-opacity="0.3"/>
<rect x="53" y="40" width="60" height="53" rx="5" stroke="#7200E9" stroke-linejoin="round"/>
</g>
<path d="M23 28C23 25.2386 25.2386 23 28 23H93C95.7614 23 98 25.2386 98 28V73C98 75.7614 95.7614 78 93 78H40.0711C38.745 78 37.4732 78.5268 36.5355 79.4645L23 93L23 28Z" fill="white" stroke="#7200E9" stroke-linejoin="round"/>
<path d="M43 54.7159L60.5 45.8945L78 54.7159L60.5 63.5372L43 54.7159Z" fill="url(#paint12_linear_2068_75)" stroke="#7200E9" stroke-linejoin="round"/>
<path d="M60.5 70.0777L43 61.7386V54.7158L60.5 63.055V70.0777Z" fill="white" stroke="#7200E9" stroke-linejoin="round"/>
<path d="M60.5 70.0777L78 61.7386V54.7158L60.5 63.055V70.0777Z" fill="white" stroke="#7200E9" stroke-linejoin="round"/>
<path d="M43 39.8214L60.5 31L78 39.8214L60.5 48.6427L43 39.8214Z" fill="url(#paint13_linear_2068_75)" stroke="#7200E9" stroke-linejoin="round"/>
<path d="M60.5 54.405L43 46.0659V39.8213L60.5 48.1604V54.405Z" fill="white" stroke="#7200E9" stroke-linejoin="round"/>
<path d="M60.5 54.405L78 46.0659V39.8213L60.5 48.1604V54.405Z" fill="white" stroke="#7200E9" stroke-linejoin="round"/>
<path fill-rule="evenodd" clip-rule="evenodd" d="M378 77L378 67L368 67C365.95 67 364.188 68.2341 363.416 70L343 70L343 74L363.416 74C364.188 75.7659 365.95 77 368 77L378 77Z" fill="white"/>
<path d="M378 67L378.5 67C378.5 66.7239 378.276 66.5 378 66.5L378 67ZM378 77L378 77.5C378.276 77.5 378.5 77.2761 378.5 77L378 77ZM363.416 70L363.416 70.5C363.615 70.5 363.795 70.3823 363.874 70.2002L363.416 70ZM343 70L343 69.5C342.867 69.5 342.74 69.5527 342.646 69.6464C342.553 69.7402 342.5 69.8674 342.5 70L343 70ZM343 74L342.5 74C342.5 74.2761 342.724 74.5 343 74.5L343 74ZM363.416 74L363.874 73.7998C363.795 73.6177 363.615 73.5 363.416 73.5L363.416 74ZM377.5 67L377.5 77L378.5 77L378.5 67L377.5 67ZM368 67.5L378 67.5L378 66.5L368 66.5L368 67.5ZM363.874 70.2002C364.569 68.6098 366.155 67.5 368 67.5L368 66.5C365.744 66.5 363.806 67.8584 362.958 69.7998L363.874 70.2002ZM363.416 69.5L343 69.5L343 70.5L363.416 70.5L363.416 69.5ZM342.5 70L342.5 74L343.5 74L343.5 70L342.5 70ZM343 74.5L363.416 74.5L363.416 73.5L343 73.5L343 74.5ZM368 76.5C366.155 76.5 364.569 75.3902 363.874 73.7998L362.958 74.2002C363.806 76.1416 365.744 77.5 368 77.5L368 76.5ZM378 76.5L368 76.5L368 77.5L378 77.5L378 76.5Z" fill="#7200E9"/>
<path fill-rule="evenodd" clip-rule="evenodd" d="M348 82L348 62L341 62C341 63.6569 339.657 65 338 65C336.343 65 335 63.6569 335 62L323 62C317.477 62 313 66.4772 313 72C313 77.5228 317.477 82 323 82L335 82C335 80.3431 336.343 79 338 79C339.657 79 341 80.3431 341 82L348 82Z" fill="url(#paint14_linear_2068_75)"/>
<path d="M348 62L348.5 62C348.5 61.7239 348.276 61.5 348 61.5L348 62ZM348 82L348 82.5C348.133 82.5 348.26 82.4473 348.354 82.3536C348.447 82.2598 348.5 82.1326 348.5 82L348 82ZM341 62L341 61.5C340.867 61.5 340.74 61.5527 340.646 61.6464C340.553 61.7402 340.5 61.8674 340.5 62L341 62ZM335 62L335.5 62C335.5 61.8674 335.447 61.7402 335.354 61.6464C335.26 61.5527 335.133 61.5 335 61.5L335 62ZM323 62L323 62.5L323 62ZM335 82L335 82.5C335.276 82.5 335.5 82.2761 335.5 82L335 82ZM341 82L340.5 82C340.5 82.2761 340.724 82.5 341 82.5L341 82ZM347.5 62L347.5 82L348.5 82L348.5 62L347.5 62ZM341 62.5L348 62.5L348 61.5L341 61.5L341 62.5ZM338 65.5C339.933 65.5 341.5 63.933 341.5 62L340.5 62C340.5 63.3807 339.381 64.5 338 64.5L338 65.5ZM334.5 62C334.5 63.933 336.067 65.5 338 65.5L338 64.5C336.619 64.5 335.5 63.3807 335.5 62L334.5 62ZM323 62.5L335 62.5L335 61.5L323 61.5L323 62.5ZM313.5 72C313.5 66.7533 317.753 62.5 323 62.5L323 61.5C317.201 61.5 312.5 66.201 312.5 72L313.5 72ZM323 81.5C317.753 81.5 313.5 77.2467 313.5 72L312.5 72C312.5 77.799 317.201 82.5 323 82.5L323 81.5ZM335 81.5L323 81.5L323 82.5L335 82.5L335 81.5ZM338 78.5C336.067 78.5 334.5 80.067 334.5 82L335.5 82C335.5 80.6193 336.619 79.5 338 79.5L338 78.5ZM341.5 82C341.5 80.067 339.933 78.5 338 78.5L338 79.5C339.381 79.5 340.5 80.6193 340.5 82L341.5 82ZM348 81.5L341 81.5L341 82.5L348 82.5L348 81.5Z" fill="#7200E9"/>
<path fill-rule="evenodd" clip-rule="evenodd" d="M296.6 38C296.6 41.3137 293.914 44 290.6 44L278 44L283.1 53L300.1 53L304.989 44.3728L333.608 45.6448C337.963 45.8384 341.6 42.3596 341.6 38C341.6 33.6404 337.963 30.1616 333.608 30.3552L304.989 31.6272L300.1 23L283.1 23L278 32L290.6 32C293.914 32 296.6 34.6863 296.6 38Z" fill="white"/>
<path d="M278 44L278 43.5C277.822 43.5 277.658 43.5945 277.568 43.7483C277.478 43.902 277.477 44.0917 277.565 44.2465L278 44ZM283.1 53L282.665 53.2465C282.754 53.4032 282.92 53.5 283.1 53.5L283.1 53ZM300.1 53L300.1 53.5C300.28 53.5 300.446 53.4032 300.535 53.2465L300.1 53ZM304.989 44.3728L305.011 43.8733C304.823 43.865 304.646 43.9627 304.554 44.1263L304.989 44.3728ZM333.608 45.6448L333.63 45.1453L333.63 45.1453L333.608 45.6448ZM333.608 30.3552L333.63 30.8547L333.63 30.8547L333.608 30.3552ZM304.989 31.6272L304.554 31.8737C304.646 32.0373 304.823 32.135 305.011 32.1267L304.989 31.6272ZM300.1 23L300.535 22.7535C300.446 22.5968 300.28 22.5 300.1 22.5L300.1 23ZM283.1 23L283.1 22.5C282.92 22.5 282.754 22.5968 282.665 22.7535L283.1 23ZM278 32L277.565 31.7535C277.477 31.9083 277.478 32.098 277.568 32.2517C277.658 32.4055 277.822 32.5 278 32.5L278 32ZM290.6 44.5C294.19 44.5 297.1 41.5898 297.1 38L296.1 38C296.1 41.0376 293.638 43.5 290.6 43.5L290.6 44.5ZM278 44.5L290.6 44.5L290.6 43.5L278 43.5L278 44.5ZM277.565 44.2465L282.665 53.2465L283.535 52.7535L278.435 43.7535L277.565 44.2465ZM283.1 53.5L300.1 53.5L300.1 52.5L283.1 52.5L283.1 53.5ZM300.535 53.2465L305.424 44.6193L304.554 44.1263L299.665 52.7535L300.535 53.2465ZM304.967 44.8723L333.586 46.1443L333.63 45.1453L305.011 43.8733L304.967 44.8723ZM333.586 46.1443C338.226 46.3505 342.1 42.6445 342.1 38L341.1 38C341.1 42.0748 337.701 45.3262 333.63 45.1453L333.586 46.1443ZM342.1 38C342.1 33.3555 338.226 29.6495 333.586 29.8557L333.63 30.8547C337.701 30.6738 341.1 33.9252 341.1 38L342.1 38ZM333.586 29.8557L304.967 31.1277L305.011 32.1267L333.63 30.8547L333.586 29.8557ZM305.424 31.3807L300.535 22.7535L299.665 23.2465L304.554 31.8737L305.424 31.3807ZM300.1 22.5L283.1 22.5L283.1 23.5L300.1 23.5L300.1 22.5ZM282.665 22.7535L277.565 31.7535L278.435 32.2465L283.535 23.2465L282.665 22.7535ZM290.6 31.5L278 31.5L278 32.5L290.6 32.5L290.6 31.5ZM297.1 38C297.1 34.4101 294.19 31.5 290.6 31.5L290.6 32.5C293.638 32.5 296.1 34.9624 296.1 38L297.1 38Z" fill="#7200E9"/>
<path d="M373 45H363V34.5238H357L368 23L379 34.5238H373V45Z" fill="white" stroke="#7200E9" stroke-linecap="round" stroke-linejoin="round"/>
<path d="M378 175L378 201" stroke="#7200E9" stroke-width="2" stroke-linecap="round" stroke-linejoin="round" stroke-dasharray="0 11"/>
<path d="M145 103L145 152" stroke="#7200E9" stroke-width="2" stroke-linecap="round" stroke-linejoin="round" stroke-dasharray="0 11"/>
<path d="M304 103L304 152" stroke="#7200E9" stroke-width="2" stroke-linecap="round" stroke-linejoin="round" stroke-dasharray="0 11"/>
<path d="M33.3477 117.5C33.0715 117.5 32.8477 117.276 32.8477 117C32.8477 116.724 33.0715 116.5 33.3477 116.5V117.5ZM58.7012 146.489C58.8965 146.684 58.8965 147 58.7012 147.196L55.5192 150.378C55.324 150.573 55.0074 150.573 54.8121 150.378C54.6169 150.182 54.6169 149.866 54.8121 149.67L57.6405 146.842L54.8121 144.014C54.6169 143.818 54.6169 143.502 54.8121 143.307C55.0074 143.111 55.324 143.111 55.5192 143.307L58.7012 146.489ZM33.3477 116.5H50.8476V117.5H33.3477V116.5ZM50.8476 132.5H31.4209V131.5H50.8476V132.5ZM31.4209 146.342H58.3477V147.342H31.4209V146.342ZM24.4998 139.421C24.4998 143.243 27.5985 146.342 31.4209 146.342V147.342C27.0462 147.342 23.4998 143.796 23.4998 139.421L24.4998 139.421ZM31.4209 132.5C27.5985 132.5 24.4998 135.599 24.4998 139.421L23.4998 139.421C23.4998 135.046 27.0462 131.5 31.4209 131.5V132.5ZM58.8476 124.5C58.8476 128.918 55.2659 132.5 50.8476 132.5V131.5C54.7136 131.5 57.8476 128.366 57.8476 124.5H58.8476ZM50.8476 116.5C55.2659 116.5 58.8476 120.082 58.8476 124.5H57.8476C57.8476 120.634 54.7136 117.5 50.8476 117.5V116.5Z" fill="#7200E9"/>
<g filter="url(#filter7_b_2068_75)">
<rect x="378" y="93" width="49" height="53" rx="5" fill="url(#paint15_linear_2068_75)" fill-opacity="0.3"/>
<rect x="378" y="93" width="49" height="53" rx="5" stroke="#7200E9" stroke-linejoin="round"/>
</g>
<path d="M366 110C366 107.239 368.239 105 371 105H411C413.761 105 416 107.239 416 110V155C416 157.761 413.761 160 411 160H381L366 145V110Z" fill="white" stroke="#7200E9" stroke-linejoin="round"/>
<path d="M381 145H366L381 160V145Z" fill="url(#paint16_linear_2068_75)" stroke="#7200E9" stroke-linejoin="round"/>
<path d="M376 115L376 135" stroke="#7200E9" stroke-width="2" stroke-linecap="round" stroke-linejoin="round" stroke-dasharray="0 11"/>
<path d="M403.246 143.794L403.246 144.508L402.126 144.508C401.972 146.37 400.796 147.462 399.144 147.532L399.144 146.538C400.46 146.44 401.314 145.656 401.314 144.116C401.314 142.842 400.642 141.82 399.508 141.82C398.528 141.82 398.094 142.38 397.828 143.64L397.59 144.76C397.31 145.964 396.778 147.238 395.098 147.238C393.684 147.238 392.564 146.132 392.424 144.508L391.262 144.508L391.262 143.794L392.424 143.794C392.564 142.198 393.656 140.994 395.336 140.896L395.336 141.89C394.118 141.96 393.236 142.842 393.236 144.116C393.236 145.474 394.076 146.23 395.042 146.23C396.148 146.23 396.498 145.334 396.708 144.354L396.946 143.248C397.268 141.806 397.856 140.784 399.382 140.784C400.824 140.784 402.028 141.848 402.126 143.794L403.246 143.794ZM398.304 135.523L398.304 137.777L402 137.777L402 138.827L391.948 138.827L391.948 135.523C391.948 133.451 393.082 132.037 395.112 132.037C397.142 132.037 398.304 133.451 398.304 135.523ZM392.844 135.537L392.844 137.777L397.408 137.777L397.408 135.537C397.408 134.039 396.582 133.087 395.112 133.087C393.656 133.087 392.844 134.039 392.844 135.537ZM402.21 125.925C402.21 128.837 399.886 130.993 396.96 130.993C394.034 130.993 391.738 128.837 391.738 125.925C391.738 123.013 394.034 120.843 396.96 120.843C399.886 120.843 402.21 123.013 402.21 125.925ZM401.272 125.925C401.272 123.545 399.368 121.935 396.96 121.935C394.552 121.935 392.676 123.545 392.676 125.925C392.676 128.291 394.552 129.915 396.96 129.915C399.368 129.915 401.272 128.291 401.272 125.925ZM402 113.427L402 119.167L391.948 119.167L391.948 118.117L401.062 118.117L401.062 113.427L402 113.427Z" fill="#7200E9"/>
<path d="M179.5 106V95H190.5L179.5 106Z" fill="white" stroke="#7200E9" stroke-linejoin="round"/>
<path d="M269 149.5V160.5H258L269 149.5Z" fill="white" stroke="#7200E9" stroke-linejoin="round"/>
<g filter="url(#filter8_b_2068_75)">
<path d="M165 33C165 27.4772 169.477 23 175 23H260C262.761 23 265 25.2386 265 28V58C265 63.5228 260.523 68 255 68H182.523C181.226 68 179.979 68.5045 179.046 69.407L165 83V33Z" fill="url(#paint17_linear_2068_75)" fill-opacity="0.3"/>
<path d="M165 33C165 27.4772 169.477 23 175 23H260C262.761 23 265 25.2386 265 28V58C265 63.5228 260.523 68 255 68H182.523C181.226 68 179.979 68.5045 179.046 69.407L165 83V33Z" stroke="#7200E9" stroke-linejoin="round"/>
</g>
<circle cx="189.5" cy="44.5" r="13.5" fill="white" stroke="#7200E9" stroke-linejoin="round"/>
<circle cx="206.5" cy="44.5" r="13.5" fill="white" stroke="#7200E9" stroke-linejoin="round"/>
<circle cx="223.5" cy="44.5" r="13.5" fill="white" stroke="#7200E9" stroke-linejoin="round"/>
<circle cx="240.5" cy="44.5" r="13.5" fill="white" stroke="#7200E9" stroke-linejoin="round"/>
<path fill-rule="evenodd" clip-rule="evenodd" d="M235.578 42.5796L233.657 44.5L235.578 46.4204V49.1366H238.294L240.214 51.0572L242.135 49.1366H244.851V46.4207L246.772 44.5L244.851 42.5793V39.8634H242.135L240.214 37.9429L238.294 39.8634H235.578V42.5796Z" fill="#F2F2F2"/>
<path d="M233.657 44.5L233.304 44.1465C233.108 44.3417 233.108 44.6583 233.304 44.8536L233.657 44.5ZM235.578 42.5796L235.931 42.9332C236.025 42.8394 236.078 42.7122 236.078 42.5796H235.578ZM235.578 46.4204H236.078C236.078 46.2878 236.025 46.1606 235.931 46.0669L235.578 46.4204ZM235.578 49.1366H235.078C235.078 49.4128 235.301 49.6366 235.578 49.6366V49.1366ZM238.294 49.1366L238.647 48.7831C238.554 48.6893 238.426 48.6366 238.294 48.6366V49.1366ZM240.214 51.0572L239.861 51.4107C240.056 51.606 240.373 51.606 240.568 51.4107L240.214 51.0572ZM242.135 49.1366V48.6366C242.002 48.6366 241.875 48.6893 241.781 48.7831L242.135 49.1366ZM244.851 49.1366V49.6366C245.127 49.6366 245.351 49.4128 245.351 49.1366H244.851ZM244.851 46.4207L244.497 46.0671C244.404 46.1609 244.351 46.2881 244.351 46.4207H244.851ZM246.772 44.5L247.125 44.8536C247.32 44.6583 247.32 44.3417 247.125 44.1465L246.772 44.5ZM244.851 42.5793H244.351C244.351 42.7119 244.404 42.8391 244.497 42.9329L244.851 42.5793ZM244.851 39.8634H245.351C245.351 39.5873 245.127 39.3634 244.851 39.3634V39.8634ZM242.135 39.8634L241.781 40.217C241.875 40.3107 242.002 40.3634 242.135 40.3634V39.8634ZM240.214 37.9429L240.568 37.5893C240.373 37.3941 240.056 37.3941 239.861 37.5893L240.214 37.9429ZM238.294 39.8634V40.3634C238.426 40.3634 238.554 40.3107 238.647 40.217L238.294 39.8634ZM235.578 39.8634V39.3634C235.301 39.3634 235.078 39.5873 235.078 39.8634H235.578ZM234.011 44.8536L235.931 42.9332L235.224 42.2261L233.304 44.1465L234.011 44.8536ZM235.931 46.0669L234.011 44.1465L233.304 44.8536L235.224 46.774L235.931 46.0669ZM236.078 49.1366V46.4204H235.078V49.1366H236.078ZM238.294 48.6366H235.578V49.6366H238.294V48.6366ZM240.568 50.7036L238.647 48.7831L237.94 49.4902L239.861 51.4107L240.568 50.7036ZM241.781 48.7831L239.861 50.7036L240.568 51.4107L242.488 49.4902L241.781 48.7831ZM244.851 48.6366H242.135V49.6366H244.851V48.6366ZM244.351 46.4207V49.1366H245.351V46.4207H244.351ZM246.418 44.1465L244.497 46.0671L245.204 46.7743L247.125 44.8536L246.418 44.1465ZM244.497 42.9329L246.418 44.8536L247.125 44.1465L245.204 42.2258L244.497 42.9329ZM244.351 39.8634V42.5793H245.351V39.8634H244.351ZM242.135 40.3634H244.851V39.3634H242.135V40.3634ZM239.861 38.2964L241.781 40.217L242.488 39.5099L240.568 37.5893L239.861 38.2964ZM238.647 40.217L240.568 38.2964L239.861 37.5893L237.94 39.5099L238.647 40.217ZM235.578 40.3634H238.294V39.3634H235.578V40.3634ZM236.078 42.5796V39.8634H235.078V42.5796H236.078Z" fill="#7200E9"/>
<rect x="323" y="111" width="7" height="25" transform="rotate(-90 323 111)" fill="white" stroke="#7200E9" stroke-linejoin="round"/>
<path d="M323 151L335.5 131L348 151L323 151Z" fill="white" stroke="#7200E9" stroke-linejoin="round"/>
<path d="M323 131L335.5 111L348 131L323 131Z" fill="white" stroke="#7200E9" stroke-linejoin="round"/>
<path d="M397 23.5C396.724 23.5 396.5 23.2761 396.5 23C396.5 22.7239 396.724 22.5 397 22.5V23.5ZM396.646 68.3535C396.451 68.1582 396.451 67.8417 396.646 67.6464L399.828 64.4644C400.024 64.2692 400.34 64.2692 400.536 64.4644C400.731 64.6597 400.731 64.9763 400.536 65.1715L397.707 68L400.536 70.8284C400.731 71.0236 400.731 71.3402 400.536 71.5355C400.34 71.7308 400.024 71.7308 399.828 71.5355L396.646 68.3535ZM397 22.5H419.5V23.5H397V22.5ZM419.5 38.5H404.421V37.5H419.5V38.5ZM404.421 52.3421H413.769V53.3421H404.421V52.3421ZM413.769 68.5H397V67.5H413.769V68.5ZM421.848 60.421C421.848 64.8829 418.231 68.5 413.769 68.5V67.5C417.678 67.5 420.848 64.3306 420.848 60.421H421.848ZM413.769 52.3421C418.231 52.3421 421.848 55.9591 421.848 60.421H420.848C420.848 56.5114 417.678 53.3421 413.769 53.3421V52.3421ZM397.5 45.421C397.5 49.2434 400.599 52.3421 404.421 52.3421V53.3421C400.046 53.3421 396.5 49.7957 396.5 45.421L397.5 45.421ZM404.421 38.5C400.599 38.5 397.5 41.5987 397.5 45.421L396.5 45.421C396.5 41.0464 400.046 37.5 404.421 37.5V38.5ZM427.5 30.5C427.5 34.9183 423.918 38.5 419.5 38.5V37.5C423.366 37.5 426.5 34.366 426.5 30.5L427.5 30.5ZM419.5 22.5C423.918 22.5 427.5 26.0817 427.5 30.5L426.5 30.5C426.5 26.634 423.366 23.5 419.5 23.5V22.5Z" fill="#7200E9"/>
<defs>
<filter id="filter0_b_2068_75" x="33.5" y="167.5" width="134" height="54" filterUnits="userSpaceOnUse" color-interpolation-filters="sRGB">
<feFlood flood-opacity="0" result="BackgroundImageFix"/>
<feGaussianBlur in="BackgroundImageFix" stdDeviation="2"/>
<feComposite in2="SourceAlpha" operator="in" result="effect1_backgroundBlur_2068_75"/>
<feBlend mode="normal" in="SourceGraphic" in2="effect1_backgroundBlur_2068_75" result="shape"/>
</filter>
<filter id="filter1_b_2068_75" x="180.5" y="188.5" width="47.0723" height="47.0723" filterUnits="userSpaceOnUse" color-interpolation-filters="sRGB">
<feFlood flood-opacity="0" result="BackgroundImageFix"/>
<feGaussianBlur in="BackgroundImageFix" stdDeviation="2"/>
<feComposite in2="SourceAlpha" operator="in" result="effect1_backgroundBlur_2068_75"/>
<feBlend mode="normal" in="SourceGraphic" in2="effect1_backgroundBlur_2068_75" result="shape"/>
</filter>
<filter id="filter2_b_2068_75" x="70.5" y="108.5" width="47.0723" height="47.0723" filterUnits="userSpaceOnUse" color-interpolation-filters="sRGB">
<feFlood flood-opacity="0" result="BackgroundImageFix"/>
<feGaussianBlur in="BackgroundImageFix" stdDeviation="2"/>
<feComposite in2="SourceAlpha" operator="in" result="effect1_backgroundBlur_2068_75"/>
<feBlend mode="normal" in="SourceGraphic" in2="effect1_backgroundBlur_2068_75" result="shape"/>
</filter>
<filter id="filter3_b_2068_75" x="280.5" y="168.5" width="79" height="68" filterUnits="userSpaceOnUse" color-interpolation-filters="sRGB">
<feFlood flood-opacity="0" result="BackgroundImageFix"/>
<feGaussianBlur in="BackgroundImageFix" stdDeviation="2"/>
<feComposite in2="SourceAlpha" operator="in" result="effect1_backgroundBlur_2068_75"/>
<feBlend mode="normal" in="SourceGraphic" in2="effect1_backgroundBlur_2068_75" result="shape"/>
</filter>
<filter id="filter4_b_2068_75" x="133.5" y="65.5" width="17" height="17" filterUnits="userSpaceOnUse" color-interpolation-filters="sRGB">
<feFlood flood-opacity="0" result="BackgroundImageFix"/>
<feGaussianBlur in="BackgroundImageFix" stdDeviation="2"/>
<feComposite in2="SourceAlpha" operator="in" result="effect1_backgroundBlur_2068_75"/>
<feBlend mode="normal" in="SourceGraphic" in2="effect1_backgroundBlur_2068_75" result="shape"/>
</filter>
<filter id="filter5_b_2068_75" x="133.5" y="18.5" width="17" height="17" filterUnits="userSpaceOnUse" color-interpolation-filters="sRGB">
<feFlood flood-opacity="0" result="BackgroundImageFix"/>
<feGaussianBlur in="BackgroundImageFix" stdDeviation="2"/>
<feComposite in2="SourceAlpha" operator="in" result="effect1_backgroundBlur_2068_75"/>
<feBlend mode="normal" in="SourceGraphic" in2="effect1_backgroundBlur_2068_75" result="shape"/>
</filter>
<filter id="filter6_b_2068_75" x="48.5" y="35.5" width="69" height="62" filterUnits="userSpaceOnUse" color-interpolation-filters="sRGB">
<feFlood flood-opacity="0" result="BackgroundImageFix"/>
<feGaussianBlur in="BackgroundImageFix" stdDeviation="2"/>
<feComposite in2="SourceAlpha" operator="in" result="effect1_backgroundBlur_2068_75"/>
<feBlend mode="normal" in="SourceGraphic" in2="effect1_backgroundBlur_2068_75" result="shape"/>
</filter>
<filter id="filter7_b_2068_75" x="373.5" y="88.5" width="58" height="62" filterUnits="userSpaceOnUse" color-interpolation-filters="sRGB">
<feFlood flood-opacity="0" result="BackgroundImageFix"/>
<feGaussianBlur in="BackgroundImageFix" stdDeviation="2"/>
<feComposite in2="SourceAlpha" operator="in" result="effect1_backgroundBlur_2068_75"/>
<feBlend mode="normal" in="SourceGraphic" in2="effect1_backgroundBlur_2068_75" result="shape"/>
</filter>
<filter id="filter8_b_2068_75" x="160.5" y="18.5" width="109" height="69" filterUnits="userSpaceOnUse" color-interpolation-filters="sRGB">
<feFlood flood-opacity="0" result="BackgroundImageFix"/>
<feGaussianBlur in="BackgroundImageFix" stdDeviation="2"/>
<feComposite in2="SourceAlpha" operator="in" result="effect1_backgroundBlur_2068_75"/>
<feBlend mode="normal" in="SourceGraphic" in2="effect1_backgroundBlur_2068_75" result="shape"/>
</filter>
<linearGradient id="paint0_linear_2068_75" x1="4" y1="1.49999" x2="436" y2="250" gradientUnits="userSpaceOnUse">
<stop stop-color="#8836FF"/>
<stop offset="1" stop-color="#CA7BE3"/>
</linearGradient>
<linearGradient id="paint1_linear_2068_75" x1="179.711" y1="155.086" x2="267.461" y2="106.857" gradientUnits="userSpaceOnUse">
<stop stop-color="#A726C1"/>
<stop offset="0.88" stop-color="#803BDF"/>
<stop offset="1" stop-color="#7B3FE4"/>
</linearGradient>
<linearGradient id="paint2_linear_2068_75" x1="100.5" y1="172" x2="100.5" y2="217" gradientUnits="userSpaceOnUse">
<stop stop-color="#DABFFF"/>
<stop offset="1" stop-color="#C9E8FF"/>
</linearGradient>
<linearGradient id="paint3_linear_2068_75" x1="66.4735" y1="187.895" x2="66.4735" y2="210" gradientUnits="userSpaceOnUse">
<stop stop-color="#DABFFF"/>
<stop offset="1" stop-color="#C9E8FF"/>
</linearGradient>
<linearGradient id="paint4_linear_2068_75" x1="101.105" y1="187.895" x2="101.105" y2="210" gradientUnits="userSpaceOnUse">
<stop stop-color="#DABFFF"/>
<stop offset="1" stop-color="#C9E8FF"/>
</linearGradient>
<linearGradient id="paint5_linear_2068_75" x1="135.736" y1="187.895" x2="135.736" y2="210" gradientUnits="userSpaceOnUse">
<stop stop-color="#DABFFF"/>
<stop offset="1" stop-color="#C9E8FF"/>
</linearGradient>
<linearGradient id="paint6_linear_2068_75" x1="204.036" y1="193" x2="204.036" y2="231.072" gradientUnits="userSpaceOnUse">
<stop stop-color="#DABFFF"/>
<stop offset="1" stop-color="#C9E8FF"/>
</linearGradient>
<linearGradient id="paint7_linear_2068_75" x1="94.0362" y1="113" x2="94.0362" y2="151.072" gradientUnits="userSpaceOnUse">
<stop stop-color="#DABFFF"/>
<stop offset="1" stop-color="#C9E8FF"/>
</linearGradient>
<linearGradient id="paint8_linear_2068_75" x1="320" y1="173" x2="320" y2="232" gradientUnits="userSpaceOnUse">
<stop stop-color="#DABFFF"/>
<stop offset="1" stop-color="#C9E8FF"/>
</linearGradient>
<linearGradient id="paint9_linear_2068_75" x1="142" y1="70" x2="142" y2="78" gradientUnits="userSpaceOnUse">
<stop stop-color="#DABFFF"/>
<stop offset="1" stop-color="#C9E8FF"/>
</linearGradient>
<linearGradient id="paint10_linear_2068_75" x1="142" y1="23" x2="142" y2="31" gradientUnits="userSpaceOnUse">
<stop stop-color="#DABFFF"/>
<stop offset="1" stop-color="#C9E8FF"/>
</linearGradient>
<linearGradient id="paint11_linear_2068_75" x1="83" y1="40" x2="83" y2="93" gradientUnits="userSpaceOnUse">
<stop stop-color="#DABFFF"/>
<stop offset="1" stop-color="#C9E8FF"/>
</linearGradient>
<linearGradient id="paint12_linear_2068_75" x1="60.5" y1="45.8945" x2="60.5" y2="63.5372" gradientUnits="userSpaceOnUse">
<stop stop-color="#DABFFF"/>
<stop offset="1" stop-color="#C9E8FF"/>
</linearGradient>
<linearGradient id="paint13_linear_2068_75" x1="60.5" y1="31" x2="60.5" y2="48.6427" gradientUnits="userSpaceOnUse">
<stop stop-color="#DABFFF"/>
<stop offset="1" stop-color="#C9E8FF"/>
</linearGradient>
<linearGradient id="paint14_linear_2068_75" x1="348" y1="72" x2="313" y2="72" gradientUnits="userSpaceOnUse">
<stop stop-color="#DABFFF"/>
<stop offset="1" stop-color="#C9E8FF"/>
</linearGradient>
<linearGradient id="paint15_linear_2068_75" x1="402.5" y1="93" x2="402.5" y2="146" gradientUnits="userSpaceOnUse">
<stop stop-color="#DABFFF"/>
<stop offset="1" stop-color="#C9E8FF"/>
</linearGradient>
<linearGradient id="paint16_linear_2068_75" x1="373.5" y1="145" x2="373.5" y2="160" gradientUnits="userSpaceOnUse">
<stop stop-color="#DABFFF"/>
<stop offset="1" stop-color="#C9E8FF"/>
</linearGradient>
<linearGradient id="paint17_linear_2068_75" x1="215" y1="23" x2="215" y2="83" gradientUnits="userSpaceOnUse">
<stop stop-color="#DABFFF"/>
<stop offset="1" stop-color="#C9E8FF"/>
</linearGradient>
</defs>
</svg>
