<svg width="24" height="24" viewBox="0 0 24 24" fill="none" xmlns="http://www.w3.org/2000/svg">
<path fill-rule="evenodd" clip-rule="evenodd" d="M18.0208 19.7072C18.4113 20.0978 19.0444 20.0978 19.435 19.7072C19.8255 19.3167 19.8255 18.6836 19.435 18.293L13.7781 12.6362L19.435 6.97932C19.8255 6.5888 19.8255 5.95563 19.435 5.56511C19.0445 5.17459 18.4113 5.17459 18.0208 5.56511L12.3639 11.222L6.70705 5.56511C6.31652 5.17459 5.68336 5.17459 5.29283 5.56511C4.90231 5.95563 4.90231 6.5888 5.29283 6.97932L10.9497 12.6362L5.29285 18.293C4.90232 18.6836 4.90232 19.3167 5.29285 19.7072C5.68337 20.0978 6.31654 20.0978 6.70706 19.7072L12.3639 14.0504L18.0208 19.7072Z" fill="black"/>
</svg>
