<svg width="32" height="33" viewBox="0 0 32 33" fill="none" xmlns="http://www.w3.org/2000/svg">
<path d="M26.6667 22.2013C25.839 22.2056 25.0331 22.4665 24.36 22.948L21.0933 21.0147C21.2475 20.5363 21.3284 20.0373 21.3333 19.5347C21.3295 18.3553 20.9348 17.2104 20.2111 16.2792C19.4873 15.3479 18.4753 14.6829 17.3333 14.388V11.2947C18.2229 10.9801 18.9727 10.3612 19.4502 9.54737C19.9276 8.73349 20.102 7.77702 19.9424 6.84703C19.7828 5.91704 19.2996 5.07339 18.5782 4.4652C17.8568 3.85701 16.9436 3.52344 16 3.52344C15.0564 3.52344 14.1432 3.85701 13.4218 4.4652C12.7004 5.07339 12.2172 5.91704 12.0576 6.84703C11.898 7.77702 12.0724 8.73349 12.5498 9.54737C13.0273 10.3612 13.777 10.9801 14.6667 11.2947V14.388C13.5247 14.6829 12.5127 15.3479 11.7889 16.2792C11.0652 17.2104 10.6705 18.3553 10.6667 19.5347C10.6716 20.0373 10.7525 20.5363 10.9067 21.0147L7.64 22.948C6.96687 22.4665 6.16095 22.2056 5.33333 22.2013C4.5422 22.2013 3.76885 22.4359 3.11105 22.8755C2.45325 23.315 1.94056 23.9397 1.63781 24.6706C1.33506 25.4015 1.25585 26.2058 1.41019 26.9817C1.56453 27.7576 1.94549 28.4704 2.5049 29.0298C3.06431 29.5892 3.77704 29.9701 4.55297 30.1245C5.32889 30.2788 6.13316 30.1996 6.86406 29.8969C7.59497 29.5941 8.21968 29.0814 8.65921 28.4236C9.09873 27.7658 9.33333 26.9925 9.33333 26.2013C9.3284 25.8402 9.27458 25.4814 9.17333 25.1347L12.24 23.308C13.2393 24.3013 14.591 24.8589 16 24.8589C17.409 24.8589 18.7607 24.3013 19.76 23.308L22.8267 25.1347C22.6033 25.9421 22.639 26.7994 22.9289 27.5854C23.2188 28.3715 23.7483 29.0467 24.4425 29.5157C25.1367 29.9847 25.9606 30.224 26.7981 30.1996C27.6355 30.1753 28.4442 29.8886 29.11 29.38C29.7758 28.8714 30.2651 28.1666 30.5088 27.365C30.7525 26.5635 30.7385 25.7056 30.4685 24.9125C30.1986 24.1193 29.6864 23.431 29.0042 22.9446C28.3221 22.4581 27.5045 22.1982 26.6667 22.2013ZM5.33333 27.5347C5.06962 27.5347 4.81184 27.4565 4.59257 27.31C4.3733 27.1635 4.20241 26.9552 4.10149 26.7116C4.00057 26.4679 3.97417 26.1999 4.02562 25.9412C4.07706 25.6826 4.20405 25.445 4.39052 25.2585C4.57699 25.0721 4.81457 24.9451 5.07321 24.8936C5.33185 24.8422 5.59994 24.8686 5.84357 24.9695C6.08721 25.0704 6.29545 25.2413 6.44196 25.4606C6.58846 25.6798 6.66666 25.9376 6.66666 26.2013C6.66666 26.555 6.52619 26.8941 6.27614 27.1441C6.02609 27.3942 5.68695 27.5347 5.33333 27.5347ZM16 6.20134C16.2637 6.20134 16.5215 6.27954 16.7408 6.42605C16.96 6.57256 17.1309 6.78079 17.2318 7.02443C17.3328 7.26806 17.3592 7.53615 17.3077 7.79479C17.2563 8.05344 17.1293 8.29101 16.9428 8.47748C16.7563 8.66395 16.5188 8.79094 16.2601 8.84239C16.0015 8.89383 15.7334 8.86743 15.4897 8.76651C15.2461 8.6656 15.0379 8.4947 14.8914 8.27543C14.7449 8.05617 14.6667 7.79838 14.6667 7.53467C14.6667 7.18105 14.8071 6.84191 15.0572 6.59186C15.3072 6.34182 15.6464 6.20134 16 6.20134ZM16 22.2013C15.4726 22.2013 14.957 22.0449 14.5185 21.7519C14.0799 21.4589 13.7382 21.0424 13.5363 20.5552C13.3345 20.0679 13.2817 19.5317 13.3846 19.0144C13.4875 18.4971 13.7414 18.022 14.1144 17.6491C14.4873 17.2761 14.9625 17.0221 15.4798 16.9192C15.997 16.8164 16.5332 16.8692 17.0205 17.071C17.5078 17.2728 17.9242 17.6146 18.2172 18.0532C18.5103 18.4917 18.6667 19.0073 18.6667 19.5347C18.6667 20.2419 18.3857 20.9202 17.8856 21.4203C17.3855 21.9204 16.7072 22.2013 16 22.2013ZM26.6667 27.5347C26.403 27.5347 26.1452 27.4565 25.9259 27.31C25.7066 27.1635 25.5357 26.9552 25.4348 26.7116C25.3339 26.4679 25.3075 26.1999 25.3589 25.9412C25.4104 25.6826 25.5374 25.445 25.7239 25.2585C25.9103 25.0721 26.1479 24.9451 26.4065 24.8936C26.6652 24.8422 26.9333 24.8686 27.1769 24.9695C27.4205 25.0704 27.6288 25.2413 27.7753 25.4606C27.9218 25.6798 28 25.9376 28 26.2013C28 26.555 27.8595 26.8941 27.6095 27.1441C27.3594 27.3942 27.0203 27.5347 26.6667 27.5347Z" fill="#B3B1B8"/>
</svg>
