<svg width="40" height="40" viewBox="0 0 40 40" fill="none" xmlns="http://www.w3.org/2000/svg">
<g clip-path="url(#clip0_1864_2200)">
<mask id="mask0_1864_2200" style="mask-type:luminance" maskUnits="userSpaceOnUse" x="3" y="3" width="34" height="34">
<path d="M19.9992 36.3274C29.0166 36.3274 36.3266 29.0174 36.3266 20.0001C36.3266 10.9827 29.0166 3.67273 19.9992 3.67273C10.9819 3.67273 3.67188 10.9827 3.67188 20.0001C3.67188 29.0174 10.9819 36.3274 19.9992 36.3274Z" fill="white"/>
</mask>
<g mask="url(#mask0_1864_2200)">
<path d="M37.8726 2.12671H2.12598V37.8734H37.8726V2.12671Z" fill="url(#paint0_linear_1864_2200)"/>
</g>
<path d="M24.7221 23.5234L29.3414 20.856C29.5861 20.7147 29.7374 20.452 29.7374 20.1694V14.8354C29.7374 14.5534 29.5854 14.29 29.3414 14.1487L24.7221 11.4814C24.4774 11.34 24.1741 11.3407 23.9294 11.4814L19.31 14.1487C19.0654 14.29 18.914 14.5534 18.914 14.8354V24.368L15.6747 26.238L12.4354 24.368V20.6274L15.6747 18.7574L17.8114 19.9907V17.4814L16.0707 16.4767C15.9507 16.4074 15.8134 16.3707 15.674 16.3707C15.5347 16.3707 15.3974 16.4074 15.278 16.4767L10.6587 19.144C10.414 19.2854 10.2627 19.548 10.2627 19.8307V25.1647C10.2627 25.4467 10.4147 25.71 10.6587 25.8514L15.278 28.5187C15.522 28.6594 15.826 28.6594 16.0707 28.5187L20.6901 25.852C20.9347 25.7107 21.0861 25.4474 21.0861 25.1654V15.6327L21.1447 15.5994L24.3254 13.7627L27.5647 15.6327V19.3734L24.3254 21.2434L22.1921 20.0114V22.5207L23.9294 23.524C24.1741 23.6647 24.4774 23.6647 24.7221 23.524V23.5234Z" fill="white"/>
</g>
<defs>
<linearGradient id="paint0_linear_1864_2200" x1="-4.40668" y1="5.06471" x2="32.496" y2="27.6474" gradientUnits="userSpaceOnUse">
<stop stop-color="#A229C5"/>
<stop offset="1" stop-color="#7B3FE4"/>
</linearGradient>
<clipPath id="clip0_1864_2200">
<rect width="33.3333" height="33.3333" fill="white" transform="translate(3.33301 3.33337)"/>
</clipPath>
</defs>
</svg>
