<svg width="161" height="32" viewBox="0 0 161 32" fill="none" xmlns="http://www.w3.org/2000/svg">
<path d="M37.9119 26.0831V11.4722H40.0858L40.2929 12.6515H40.3964C41.0175 11.8437 42.073 11.2651 43.5426 11.2651C46.2323 11.2651 48.3858 13.4594 48.3858 16.7073C48.3858 19.9552 46.2341 22.1494 43.5426 22.1494C42.0933 22.1494 41.0803 21.5486 40.5424 20.8665H40.4389V26.0813H37.9138L37.9119 26.0831ZM45.8588 16.7091C45.8588 14.8051 44.637 13.6054 43.147 13.6054C41.6571 13.6054 40.4352 14.8051 40.4352 16.7091C40.4352 18.6131 41.6571 19.8128 43.147 19.8128C44.637 19.8128 45.8588 18.6131 45.8588 16.7091Z" fill="black"/>
<path d="M49.6669 16.7092C49.6669 13.5427 51.9424 11.2671 54.9852 11.2671C58.0279 11.2671 60.3034 13.5427 60.3034 16.7092C60.3034 19.8758 58.0279 22.1514 54.9852 22.1514C51.9424 22.1514 49.6669 19.8536 49.6669 16.7092ZM57.758 16.7092C57.758 14.8459 56.5158 13.6055 54.9852 13.6055C53.4546 13.6055 52.192 14.8477 52.192 16.7092C52.192 18.5707 53.4546 19.7926 54.9852 19.7926C56.5158 19.7926 57.758 18.5726 57.758 16.7092Z" fill="black"/>
<path d="M62.1335 21.9442V7.45898H64.6586V21.9461H62.1335V21.9442Z" fill="black"/>
<path d="M74.0326 11.4722H76.7223L72.1693 24.1994C71.7145 25.462 71.0934 26.0831 69.4575 26.0831H67.0155V23.7447H69.0859C69.4593 23.7447 69.6645 23.558 69.7902 23.2474L70.0379 22.5653L65.7751 11.4722H68.4648L71.1766 18.737H71.5907L74.0326 11.4722Z" fill="black"/>
<path d="M77.2047 22.4618H79.7705C79.874 23.1439 80.5561 24.0756 82.1718 24.0756C83.682 24.0756 84.6766 23.1236 84.6766 21.6743V20.2047H84.573C84.0148 20.8055 82.9796 21.3434 81.6542 21.3434C78.9645 21.3434 76.8942 19.2731 76.8942 16.2932C76.8942 13.3133 78.9645 11.2651 81.6542 11.2651C83.0406 11.2651 84.0554 11.8234 84.6969 12.6109H84.8004L85.0074 11.4722H87.2017V21.6743C87.2017 24.4471 85.3383 26.2902 82.1718 26.2902C78.6336 26.2902 77.2676 23.9721 77.2047 22.4618ZM84.6766 16.295C84.6766 14.6609 83.5175 13.5222 82.0479 13.5222C80.5783 13.5222 79.4396 14.6609 79.4396 16.295C79.4396 17.9292 80.5987 19.0882 82.0479 19.0882C83.4972 19.0882 84.6766 17.9495 84.6766 16.295Z" fill="black"/>
<path d="M88.9559 16.7092C88.9559 13.5427 91.2315 11.2671 94.2742 11.2671C97.3169 11.2671 99.5925 13.5427 99.5925 16.7092C99.5925 19.8758 97.3169 22.1514 94.2742 22.1514C91.2315 22.1514 88.9559 19.8536 88.9559 16.7092ZM97.047 16.7092C97.047 14.8459 95.8048 13.6055 94.2742 13.6055C92.7436 13.6055 91.4811 14.8477 91.4811 16.7092C91.4811 18.5707 92.7436 19.7926 94.2742 19.7926C95.8048 19.7926 97.047 18.5726 97.047 16.7092Z" fill="black"/>
<path d="M101.35 21.9442V11.4722H103.523L103.73 12.4648H103.833C104.247 11.9898 105.282 11.2651 106.854 11.2651C109.255 11.2651 110.993 13.0028 110.993 15.6517V21.9424H108.467V15.9826C108.467 14.6369 107.515 13.6646 106.212 13.6646C104.909 13.6646 103.874 14.6794 103.874 15.9826V21.9424H101.349L101.35 21.9442Z" fill="black"/>
<path d="M23.2159 20.7223L29.4234 17.1379C29.7524 16.9475 29.9558 16.5945 29.9558 16.2155V9.04682C29.9558 8.66787 29.7524 8.3148 29.4234 8.1244L23.2159 4.54006C22.8869 4.34966 22.4784 4.35151 22.1512 4.54006L15.9437 8.1244C15.6147 8.3148 15.4114 8.66787 15.4114 9.04682V21.8573L11.058 24.3695L6.70469 21.8573V16.8311L11.058 14.3189L13.9288 15.977V12.6053L11.5904 11.254C11.4296 11.1616 11.2447 11.1117 11.058 11.1117C10.8713 11.1117 10.6865 11.1616 10.5256 11.254L4.31821 14.8383C3.98917 15.0287 3.78583 15.3818 3.78583 15.7608V22.9294C3.78583 23.3084 3.98917 23.6615 4.31821 23.8519L10.5256 27.4362C10.8547 27.6248 11.2614 27.6248 11.5904 27.4362L17.7978 23.8519C18.1269 23.6615 18.3302 23.3084 18.3302 22.9294V10.1171L18.4079 10.0728L22.6817 7.60495L27.035 10.1171V15.1433L22.6817 17.6555L19.8146 16.0011V19.3728L22.1493 20.7204C22.4784 20.909 22.8869 20.909 23.2141 20.7204L23.2159 20.7223Z" fill="#7B3FE4"/>
<path d="M117.573 18.194C117.573 15.35 119.247 13.208 121.839 13.208C122.991 13.208 123.963 13.712 124.683 14.63V10.076H127.167V23H124.881V21.614C124.125 22.622 123.081 23.18 121.839 23.18C119.247 23.18 117.573 21.002 117.573 18.194ZM120.147 18.194C120.147 19.994 121.173 20.948 122.397 20.948C123.639 20.948 124.665 19.976 124.665 18.158C124.665 16.34 123.621 15.422 122.397 15.422C121.173 15.422 120.147 16.358 120.147 18.194ZM133.648 23.18C130.858 23.18 128.77 20.984 128.77 18.194C128.77 15.386 130.858 13.208 133.648 13.208C136.438 13.208 138.526 15.386 138.526 18.194C138.526 20.984 136.438 23.18 133.648 23.18ZM133.648 20.966C134.89 20.966 135.952 19.976 135.952 18.194C135.952 16.412 134.89 15.44 133.648 15.44C132.406 15.44 131.344 16.412 131.344 18.194C131.344 19.976 132.406 20.966 133.648 20.966ZM144.173 23.18C141.401 23.18 139.493 21.128 139.493 18.194C139.493 15.314 141.473 13.208 144.173 13.208C146.675 13.208 148.529 14.9 148.835 17.492H146.207C146.081 16.214 145.307 15.422 144.173 15.422C142.877 15.422 142.049 16.484 142.049 18.194C142.049 19.922 142.859 20.966 144.173 20.966C145.325 20.966 146.063 20.21 146.207 18.896H148.835C148.547 21.542 146.747 23.18 144.173 23.18ZM158.559 19.922C158.559 21.938 157.029 23.18 154.293 23.18C151.557 23.18 150.027 21.866 149.829 19.724H152.223C152.241 20.714 153.087 21.344 154.329 21.344C155.301 21.344 156.039 21.038 156.039 20.354C156.039 19.742 155.643 19.49 154.725 19.31L152.997 18.986C151.269 18.68 150.225 17.726 150.225 16.232C150.225 14.45 151.755 13.208 154.149 13.208C156.561 13.208 158.217 14.486 158.397 16.556H156.003C155.913 15.62 155.211 15.044 154.149 15.044C153.231 15.044 152.619 15.386 152.619 15.998C152.619 16.574 153.015 16.808 153.879 16.97L155.733 17.312C157.605 17.672 158.559 18.536 158.559 19.922Z" fill="#110C22"/>
</svg>
