<svg width="450" height="255" viewBox="0 0 450 255" fill="none" xmlns="http://www.w3.org/2000/svg">
<rect width="450" height="255" fill="white"/>
<rect x="187" y="36" width="85" height="49" rx="5" stroke="#808080" stroke-linejoin="round"/>
<rect x="142" y="187" width="115" height="49" rx="5" stroke="#808080" stroke-linejoin="round"/>
<path d="M62.3536 168.354C62.5488 168.158 62.5488 167.842 62.3536 167.646L59.1716 164.464C58.9763 164.269 58.6597 164.269 58.4645 164.464C58.2692 164.66 58.2692 164.976 58.4645 165.172L61.2929 168L58.4645 170.828C58.2692 171.024 58.2692 171.34 58.4645 171.536C58.6597 171.731 58.9763 171.731 59.1716 171.536L62.3536 168.354ZM62 122.5H44.5V123.5H62V122.5ZM44.5 138.5H54.5V137.5H44.5V138.5ZM54.5 152.5H44.5V153.5H54.5V152.5ZM44.5 168.5H62V167.5H44.5V168.5ZM36.5 160.5C36.5 164.918 40.0817 168.5 44.5 168.5V167.5C40.634 167.5 37.5 164.366 37.5 160.5H36.5ZM44.5 152.5C40.0817 152.5 36.5 156.082 36.5 160.5H37.5C37.5 156.634 40.634 153.5 44.5 153.5V152.5ZM61.5 145.5C61.5 149.366 58.366 152.5 54.5 152.5V153.5C58.9183 153.5 62.5 149.918 62.5 145.5H61.5ZM54.5 138.5C58.366 138.5 61.5 141.634 61.5 145.5H62.5C62.5 141.082 58.9183 137.5 54.5 137.5V138.5ZM36.5 130.5C36.5 134.918 40.0817 138.5 44.5 138.5V137.5C40.634 137.5 37.5 134.366 37.5 130.5H36.5ZM44.5 122.5C40.0817 122.5 36.5 126.082 36.5 130.5H37.5C37.5 126.634 40.634 123.5 44.5 123.5V122.5Z" fill="#808080"/>
<path d="M392.348 58.5C392.072 58.5 391.848 58.2761 391.848 58C391.848 57.7239 392.072 57.5 392.348 57.5V58.5ZM392.646 103.354C392.451 103.158 392.451 102.842 392.646 102.646L395.828 99.4644C396.024 99.2692 396.34 99.2692 396.536 99.4644C396.731 99.6597 396.731 99.9763 396.536 100.172L393.707 103L396.536 105.828C396.731 106.024 396.731 106.34 396.536 106.535C396.34 106.731 396.024 106.731 395.828 106.535L392.646 103.354ZM392.348 57.5H405.5V58.5H392.348V57.5ZM405.5 73.5H390.421V72.5H405.5V73.5ZM390.421 87.3421H399.769V88.3421H390.421V87.3421ZM399.769 103.5H393V102.5H399.769V103.5ZM407.848 95.421C407.848 99.8829 404.231 103.5 399.769 103.5V102.5C403.678 102.5 406.848 99.3306 406.848 95.421H407.848ZM399.769 87.3421C404.231 87.3421 407.848 90.9591 407.848 95.421H406.848C406.848 91.5114 403.678 88.3421 399.769 88.3421V87.3421ZM383.5 80.421C383.5 84.2434 386.599 87.3421 390.421 87.3421V88.3421C386.046 88.3421 382.5 84.7957 382.5 80.421H383.5ZM390.421 73.5C386.599 73.5 383.5 76.5987 383.5 80.421H382.5C382.5 76.0464 386.046 72.5 390.421 72.5V73.5ZM413.5 65.5C413.5 69.9183 409.918 73.5 405.5 73.5V72.5C409.366 72.5 412.5 69.366 412.5 65.5H413.5ZM405.5 57.5C409.918 57.5 413.5 61.0817 413.5 65.5H412.5C412.5 61.634 409.366 58.5 405.5 58.5V57.5Z" fill="#808080"/>
<rect x="77" y="18" width="70" height="56" rx="5" fill="#F2F2F2" stroke="#808080" stroke-linejoin="round"/>
<rect x="82" y="33" width="60" height="35" fill="white" stroke="#808080" stroke-linejoin="round"/>
<path d="M331 30.6471L352.5 18L374 30.6471L352.5 43.2941L331 30.6471Z" fill="white" stroke="#808080" stroke-linejoin="round"/>
<path d="M352.5 66.0587L331 54.103V30.647L352.5 42.6027V66.0587Z" fill="#F2F2F2" stroke="#808080" stroke-linejoin="round"/>
<path d="M352.5 66.0587L374 54.103V30.647L352.5 42.6027V66.0587Z" fill="white" stroke="#808080" stroke-linejoin="round"/>
<path d="M289 42.3529L301.5 35L314 42.3529L301.5 49.7059L289 42.3529Z" fill="white" stroke="#808080" stroke-linejoin="round"/>
<path d="M301.5 63.294L289 56.343V42.7058L301.5 49.6568V63.294Z" fill="#F2F2F2" stroke="#808080" stroke-linejoin="round"/>
<path d="M301.5 63.294L314 56.343V42.7058L301.5 49.6568V63.294Z" fill="white" stroke="#808080" stroke-linejoin="round"/>
<path d="M77 177C77 171.477 81.4772 167 87 167H237C239.761 167 242 169.239 242 172V212C242 217.523 237.523 222 232 222H94.5232C93.2255 222 91.9786 222.505 91.0461 223.407L77 237L77 177Z" fill="#F2F2F2" stroke="#808080" stroke-linejoin="round"/>
<path d="M162 28C162 22.4772 166.477 18 172 18H257C259.761 18 262 20.2386 262 23V63C262 68.5228 257.523 73 252 73H179.119C177.765 73 176.468 73.5495 175.526 74.5229L162 88.5L162 28Z" fill="#F2F2F2" stroke="#808080" stroke-linejoin="round"/>
<rect x="177" y="28" width="70" height="35" rx="5" fill="white" stroke="#808080" stroke-linejoin="round"/>
<path d="M187 33L207 45.5L187 58V33Z" fill="#F2F2F2" stroke="#808080" stroke-linejoin="round"/>
<path d="M207 33L227 45.5L207 58V33Z" fill="#F2F2F2" stroke="#808080" stroke-linejoin="round"/>
<circle cx="307" cy="202" r="35" fill="#F2F2F2" stroke="#808080" stroke-linejoin="round"/>
<circle cx="307" cy="202" r="28" fill="white" stroke="#808080" stroke-linejoin="round"/>
<path fill-rule="evenodd" clip-rule="evenodd" d="M325.478 194.346C325.907 195.382 326.247 196.45 326.496 197.538C327.05 199.96 324.985 202 322.5 202C320.015 202 318.065 199.939 317.309 197.571C317.167 197.128 317.004 196.69 316.82 196.26C316.041 194.44 314.899 192.786 313.46 191.393C312.021 190.001 310.312 188.896 308.432 188.142C306.551 187.388 304.535 187 302.5 187C300.465 187 298.449 187.388 296.568 188.142C294.688 188.896 292.979 190.001 291.54 191.393C290.101 192.786 288.959 194.44 288.18 196.26C287.401 198.08 287 200.03 287 202C287 199.374 287.517 196.773 288.522 194.346C289.528 191.92 291.001 189.715 292.858 187.858C294.715 186.001 296.92 184.528 299.346 183.522C301.773 182.517 304.374 182 307 182C309.626 182 312.227 182.517 314.654 183.522C317.08 184.528 319.285 186.001 321.142 187.858C322.999 189.715 324.472 191.92 325.478 194.346Z" fill="#F2F2F2"/>
<path d="M325.478 194.346L325.94 194.155V194.155L325.478 194.346ZM316.82 196.26L316.36 196.456L316.82 196.26ZM296.568 188.142L296.382 187.678L296.568 188.142ZM291.54 191.393L291.888 191.753V191.753L291.54 191.393ZM288.18 196.26L287.72 196.063L288.18 196.26ZM286.5 202C286.5 202.276 286.724 202.5 287 202.5C287.276 202.5 287.5 202.276 287.5 202H286.5ZM288.522 194.346L288.06 194.155H288.06L288.522 194.346ZM292.858 187.858L293.211 188.211L292.858 187.858ZM299.346 183.522L299.538 183.984L299.346 183.522ZM314.654 183.522L314.462 183.984L314.654 183.522ZM321.142 187.858L320.789 188.211V188.211L321.142 187.858ZM326.496 197.538L326.008 197.649L326.496 197.538ZM326.983 197.426C326.728 196.311 326.379 195.217 325.94 194.155L325.016 194.538C325.434 195.548 325.766 196.589 326.008 197.649L326.983 197.426ZM317.785 197.419C317.639 196.961 317.47 196.508 317.28 196.063L316.36 196.456C316.538 196.872 316.696 197.295 316.833 197.724L317.785 197.419ZM317.28 196.063C316.474 194.181 315.294 192.473 313.808 191.034L313.112 191.753C314.505 193.1 315.608 194.698 316.36 196.456L317.28 196.063ZM313.808 191.034C312.321 189.596 310.558 188.455 308.618 187.678L308.246 188.606C310.067 189.336 311.72 190.405 313.112 191.753L313.808 191.034ZM308.618 187.678C306.678 186.9 304.599 186.5 302.5 186.5V187.5C304.472 187.5 306.424 187.876 308.246 188.606L308.618 187.678ZM302.5 186.5C300.401 186.5 298.322 186.9 296.382 187.678L296.754 188.606C298.576 187.876 300.528 187.5 302.5 187.5V186.5ZM296.382 187.678C294.442 188.455 292.679 189.596 291.192 191.034L291.888 191.753C293.28 190.405 294.933 189.336 296.754 188.606L296.382 187.678ZM291.192 191.034C289.706 192.473 288.526 194.181 287.72 196.063L288.64 196.456C289.392 194.698 290.495 193.1 291.888 191.753L291.192 191.034ZM287.72 196.063C286.915 197.945 286.5 199.962 286.5 202H287.5C287.5 200.098 287.887 198.215 288.64 196.456L287.72 196.063ZM288.06 194.155C287.03 196.642 286.5 199.308 286.5 202H287.5C287.5 199.439 288.004 196.904 288.984 194.538L288.06 194.155ZM292.504 187.504C290.601 189.408 289.091 191.668 288.06 194.155L288.984 194.538C289.964 192.172 291.401 190.022 293.211 188.211L292.504 187.504ZM299.155 183.06C296.668 184.091 294.408 185.601 292.504 187.504L293.211 188.211C295.022 186.401 297.172 184.964 299.538 183.984L299.155 183.06ZM307 181.5C304.308 181.5 301.642 182.03 299.155 183.06L299.538 183.984C301.904 183.004 304.439 182.5 307 182.5V181.5ZM314.845 183.06C312.358 182.03 309.692 181.5 307 181.5V182.5C309.561 182.5 312.096 183.004 314.462 183.984L314.845 183.06ZM321.496 187.504C319.592 185.601 317.332 184.091 314.845 183.06L314.462 183.984C316.828 184.964 318.978 186.401 320.789 188.211L321.496 187.504ZM325.94 194.155C324.909 191.668 323.399 189.408 321.496 187.504L320.789 188.211C322.599 190.022 324.036 192.172 325.016 194.538L325.94 194.155ZM322.5 201.5C320.314 201.5 318.504 199.67 317.785 197.419L316.833 197.724C317.626 200.208 319.716 202.5 322.5 202.5V201.5ZM326.008 197.649C326.473 199.681 324.749 201.5 322.5 201.5V202.5C325.221 202.5 327.627 200.24 326.983 197.426L326.008 197.649Z" fill="#808080"/>
<path d="M316 194.5L322.5 189.5M309.5 189L313.5 182.5" stroke="#808080"/>
<circle cx="109.5" cy="194.5" r="17.5" fill="white" stroke="#808080" stroke-linejoin="round"/>
<circle cx="124.5" cy="194.5" r="17.5" fill="white" stroke="#808080" stroke-linejoin="round"/>
<circle cx="139.5" cy="194.5" r="17.5" fill="white" stroke="#808080" stroke-linejoin="round"/>
<circle cx="154.5" cy="194.5" r="17.5" fill="white" stroke="#808080" stroke-linejoin="round"/>
<circle cx="169.5" cy="194.5" r="17.5" fill="white" stroke="#808080" stroke-linejoin="round"/>
<circle cx="184.5" cy="194.5" r="17.5" fill="white" stroke="#808080" stroke-linejoin="round"/>
<circle cx="199.5" cy="194.5" r="17.5" fill="white" stroke="#808080" stroke-linejoin="round"/>
<circle cx="214.5" cy="194.5" r="17.5" fill="white" stroke="#808080" stroke-linejoin="round"/>
<circle cx="368.5" cy="168.5" r="7.5" transform="rotate(90 368.5 168.5)" fill="white" stroke="#808080" stroke-linejoin="round"/>
<circle cx="394.5" cy="138.5" r="7.5" transform="rotate(90 394.5 138.5)" fill="#F2F2F2" stroke="#808080" stroke-linejoin="round"/>
<circle cx="394.5" cy="25.5" r="7.5" transform="rotate(90 394.5 25.5)" fill="white" stroke="#808080" stroke-linejoin="round"/>
<path d="M319.014 197.855C319.427 197.456 320.07 197.421 320.524 197.773C320.979 198.124 321.107 198.755 320.825 199.256L310.212 218.096C308.918 220.393 305.888 221.006 303.803 219.394C301.718 217.781 301.549 214.694 303.447 212.864L319.014 197.855Z" fill="white" stroke="#808080" stroke-linejoin="round"/>
<circle cx="394.5" cy="168.5" r="7.5" transform="rotate(90 394.5 168.5)" fill="white" stroke="#808080" stroke-linejoin="round"/>
<circle cx="369.5" cy="195.5" r="7.5" transform="rotate(90 369.5 195.5)" fill="#F2F2F2" stroke="#808080" stroke-linejoin="round"/>
<circle cx="44.5" cy="60.5" r="7.5" fill="#F2F2F2" stroke="#808080" stroke-linejoin="round"/>
<circle cx="44.5" cy="30.5" r="7.5" fill="#F2F2F2" stroke="#808080" stroke-linejoin="round"/>
<path fill-rule="evenodd" clip-rule="evenodd" d="M58.9826 93.0153C58.9941 92.845 59 92.6732 59 92.5C59 88.3579 55.6421 85 51.5 85C47.3579 85 44 88.3579 44 92.5C44 92.668 44.0055 92.8347 44.0164 93H43.5C39.3579 93 36 96.3579 36 100.5C36 104.642 39.3579 108 43.5 108H58.5C62.6421 108 66 104.642 66 100.5C66 96.52 62.8998 93.264 58.9826 93.0153Z" fill="white"/>
<path d="M58.9826 93.0153L58.4837 92.9814C58.4747 93.1141 58.5189 93.2449 58.6066 93.3449C58.6943 93.4449 58.8182 93.5058 58.9509 93.5143L58.9826 93.0153ZM44.0164 93V93.5C44.1547 93.5 44.2868 93.4427 44.3814 93.3417C44.4759 93.2408 44.5244 93.1052 44.5153 92.9672L44.0164 93ZM58.5 92.5C58.5 92.6619 58.4945 92.8224 58.4837 92.9814L59.4814 93.0491C59.4937 92.8676 59.5 92.6845 59.5 92.5H58.5ZM51.5 85.5C55.366 85.5 58.5 88.634 58.5 92.5H59.5C59.5 88.0817 55.9183 84.5 51.5 84.5V85.5ZM44.5 92.5C44.5 88.634 47.634 85.5 51.5 85.5V84.5C47.0817 84.5 43.5 88.0817 43.5 92.5H44.5ZM44.5153 92.9672C44.5052 92.8128 44.5 92.6571 44.5 92.5H43.5C43.5 92.679 43.5059 92.8567 43.5175 93.0328L44.5153 92.9672ZM43.5 93.5H44.0164V92.5H43.5V93.5ZM36.5 100.5C36.5 96.634 39.634 93.5 43.5 93.5V92.5C39.0817 92.5 35.5 96.0817 35.5 100.5H36.5ZM43.5 107.5C39.634 107.5 36.5 104.366 36.5 100.5H35.5C35.5 104.918 39.0817 108.5 43.5 108.5V107.5ZM58.5 107.5H43.5V108.5H58.5V107.5ZM65.5 100.5C65.5 104.366 62.366 107.5 58.5 107.5V108.5C62.9183 108.5 66.5 104.918 66.5 100.5H65.5ZM58.9509 93.5143C62.6065 93.7464 65.5 96.7855 65.5 100.5H66.5C66.5 96.2544 63.1931 92.7817 59.0143 92.5163L58.9509 93.5143Z" fill="#808080"/>
<path fill-rule="evenodd" clip-rule="evenodd" d="M379.983 222.015C379.994 221.845 380 221.673 380 221.5C380 217.358 376.642 214 372.5 214C368.358 214 365 217.358 365 221.5C365 221.668 365.006 221.835 365.016 222H364.5C360.358 222 357 225.358 357 229.5C357 233.642 360.358 237 364.5 237H379.5C383.642 237 387 233.642 387 229.5C387 225.52 383.9 222.264 379.983 222.015Z" fill="white"/>
<path d="M379.983 222.015L379.484 221.981C379.475 222.114 379.519 222.245 379.607 222.345C379.694 222.445 379.818 222.506 379.951 222.514L379.983 222.015ZM365.016 222V222.5C365.155 222.5 365.287 222.443 365.381 222.342C365.476 222.241 365.524 222.105 365.515 221.967L365.016 222ZM379.5 221.5C379.5 221.662 379.495 221.822 379.484 221.981L380.481 222.049C380.494 221.868 380.5 221.684 380.5 221.5H379.5ZM372.5 214.5C376.366 214.5 379.5 217.634 379.5 221.5H380.5C380.5 217.082 376.918 213.5 372.5 213.5V214.5ZM365.5 221.5C365.5 217.634 368.634 214.5 372.5 214.5V213.5C368.082 213.5 364.5 217.082 364.5 221.5H365.5ZM365.515 221.967C365.505 221.813 365.5 221.657 365.5 221.5H364.5C364.5 221.679 364.506 221.857 364.517 222.033L365.515 221.967ZM364.5 222.5H365.016V221.5H364.5V222.5ZM357.5 229.5C357.5 225.634 360.634 222.5 364.5 222.5V221.5C360.082 221.5 356.5 225.082 356.5 229.5H357.5ZM364.5 236.5C360.634 236.5 357.5 233.366 357.5 229.5H356.5C356.5 233.918 360.082 237.5 364.5 237.5V236.5ZM379.5 236.5H364.5V237.5H379.5V236.5ZM386.5 229.5C386.5 233.366 383.366 236.5 379.5 236.5V237.5C383.918 237.5 387.5 233.918 387.5 229.5H386.5ZM379.951 222.514C383.607 222.746 386.5 225.786 386.5 229.5H387.5C387.5 225.254 384.193 221.782 380.014 221.516L379.951 222.514Z" fill="#808080"/>
<path d="M86 90L86 110" stroke="#808080" stroke-width="2" stroke-linecap="round" stroke-linejoin="round" stroke-dasharray="0 11"/>
<path d="M51 187L51 237" stroke="#808080" stroke-width="2" stroke-linecap="round" stroke-linejoin="round" stroke-dasharray="0 11"/>
<path d="M273 19L323 19" stroke="#808080" stroke-width="2" stroke-linecap="round" stroke-linejoin="round" stroke-dasharray="0 11"/>
<path d="M413 20L413 40" stroke="#808080" stroke-width="2" stroke-linecap="round" stroke-linejoin="round" stroke-dasharray="0 11"/>
<path d="M94 26L83 26" stroke="#808080" stroke-width="2" stroke-linecap="round" stroke-linejoin="round" stroke-dasharray="0 7"/>
<rect x="227" y="33" width="7" height="25" fill="#F2F2F2" stroke="#808080" stroke-linejoin="round"/>
<rect x="329" y="96" width="45" height="53" rx="5" fill="#F2F2F2" stroke="#808080" stroke-linejoin="round"/>
<path d="M310 89C310 86.2386 312.239 84 315 84H355C357.761 84 360 86.2386 360 89V134C360 136.761 357.761 139 355 139H325L310 124V89Z" fill="white" stroke="#808080" stroke-linejoin="round"/>
<path d="M325 124H310L325 139V124Z" fill="#F2F2F2" stroke="#808080" stroke-linejoin="round"/>
<path d="M324.286 116V99C324.286 96.2386 326.524 94 329.286 94H336C338.761 94 341 96.2386 341 99V102.627M341 116V102.627M320 116H346.143M341 102.627H341.401C343.783 102.627 345.714 104.559 345.714 106.941V109.112C345.714 110.296 346.674 111.255 347.857 111.255V111.255C349.041 111.255 350 110.296 350 109.112V98.7451L345.286 94M329 102.627H337" stroke="#808080" stroke-linecap="round" stroke-linejoin="round"/>
<path d="M352 124H347V128.762H344L349.5 134L355 128.762H352V124Z" fill="#F2F2F2" stroke="#808080" stroke-linecap="round" stroke-linejoin="round"/>
<path d="M97 43L107 50.5L97 58M112 58H122" stroke="#808080" stroke-linecap="round" stroke-linejoin="round"/>
<path fill-rule="evenodd" clip-rule="evenodd" d="M208.49 192.01L206 194.5L208.49 196.99V200.51H212.01L214.5 203L216.99 200.51H220.51V196.99L223 194.5L220.51 192.01V188.49H216.99L214.5 186L212.01 188.49H208.49V192.01Z" fill="#F2F2F2"/>
<path d="M206 194.5L205.646 194.146C205.553 194.24 205.5 194.367 205.5 194.5C205.5 194.633 205.553 194.76 205.646 194.854L206 194.5ZM208.49 192.01L208.843 192.364C208.937 192.27 208.99 192.143 208.99 192.01H208.49ZM208.49 196.99H208.99C208.99 196.857 208.937 196.73 208.843 196.636L208.49 196.99ZM208.49 200.51H207.99C207.99 200.787 208.213 201.01 208.49 201.01V200.51ZM212.01 200.51L212.364 200.157C212.27 200.063 212.143 200.01 212.01 200.01V200.51ZM214.5 203L214.146 203.354C214.342 203.549 214.658 203.549 214.854 203.354L214.5 203ZM216.99 200.51V200.01C216.857 200.01 216.73 200.063 216.636 200.157L216.99 200.51ZM220.51 200.51V201.01C220.787 201.01 221.01 200.787 221.01 200.51H220.51ZM220.51 196.99L220.157 196.636C220.063 196.73 220.01 196.857 220.01 196.99H220.51ZM223 194.5L223.354 194.854C223.549 194.658 223.549 194.342 223.354 194.146L223 194.5ZM220.51 192.01H220.01C220.01 192.143 220.063 192.27 220.157 192.364L220.51 192.01ZM220.51 188.49H221.01C221.01 188.213 220.787 187.99 220.51 187.99V188.49ZM216.99 188.49L216.636 188.843C216.73 188.937 216.857 188.99 216.99 188.99V188.49ZM214.5 186L214.854 185.646C214.658 185.451 214.342 185.451 214.146 185.646L214.5 186ZM212.01 188.49V188.99C212.143 188.99 212.27 188.937 212.364 188.843L212.01 188.49ZM208.49 188.49V187.99C208.213 187.99 207.99 188.213 207.99 188.49H208.49ZM206.354 194.854L208.843 192.364L208.136 191.657L205.646 194.146L206.354 194.854ZM208.843 196.636L206.354 194.146L205.646 194.854L208.136 197.343L208.843 196.636ZM208.99 200.51V196.99H207.99V200.51H208.99ZM212.01 200.01H208.49V201.01H212.01V200.01ZM214.854 202.646L212.364 200.157L211.657 200.864L214.146 203.354L214.854 202.646ZM216.636 200.157L214.146 202.646L214.854 203.354L217.343 200.864L216.636 200.157ZM220.51 200.01H216.99V201.01H220.51V200.01ZM220.01 196.99V200.51H221.01V196.99H220.01ZM222.646 194.146L220.157 196.636L220.864 197.343L223.354 194.854L222.646 194.146ZM220.157 192.364L222.646 194.854L223.354 194.146L220.864 191.657L220.157 192.364ZM220.01 188.49V192.01H221.01V188.49H220.01ZM216.99 188.99H220.51V187.99H216.99V188.99ZM214.146 186.354L216.636 188.843L217.343 188.136L214.854 185.646L214.146 186.354ZM212.364 188.843L214.854 186.354L214.146 185.646L211.657 188.136L212.364 188.843ZM208.49 188.99H212.01V187.99H208.49V188.99ZM208.99 192.01V188.49H207.99V192.01H208.99Z" fill="#808080"/>
<path d="M200.712 130.726H193.819V145H184.547V101.202H200.712C211.387 101.202 218.036 106.265 218.036 115.781C218.036 125.297 211.387 130.726 200.712 130.726ZM200.651 109.01H193.819V122.918H200.651C205.897 122.918 208.825 120.173 208.825 115.842C208.825 111.511 205.897 109.01 200.651 109.01ZM235.579 145.61C226.124 145.61 219.048 138.168 219.048 128.713C219.048 119.197 226.124 111.816 235.579 111.816C245.034 111.816 252.11 119.197 252.11 128.713C252.11 138.168 245.034 145.61 235.579 145.61ZM235.579 138.107C239.788 138.107 243.387 134.752 243.387 128.713C243.387 122.674 239.788 119.38 235.579 119.38C231.37 119.38 227.771 122.674 227.771 128.713C227.771 134.752 231.37 138.107 235.579 138.107ZM290.643 131.397C290.643 139.754 283.933 145.61 272.953 145.61C261.912 145.61 255.019 139.693 254.348 130.421H263.742C263.986 135.24 267.097 138.351 272.77 138.351C277.467 138.351 280.822 136.277 280.822 132.739C280.822 129.994 278.687 128.347 274.966 127.615L267.768 126.212C261.119 124.931 255.995 121.332 255.995 114.073C255.995 106.265 262.888 100.653 272.343 100.653C282.164 100.653 289.362 106.387 289.972 115.537H280.578C280.273 110.962 277.101 107.851 272.465 107.851C267.951 107.851 265.389 110.413 265.389 113.463C265.389 116.452 268.134 117.733 271.306 118.343L278.809 119.868C286.495 121.393 290.643 124.931 290.643 131.397Z" fill="#1A1A1A"/>
<circle cx="145.5" cy="123.5" r="29.5" fill="url(#paint0_linear_1864_2273)"/>
<path d="M153.016 129.423L160.369 124.939C160.759 124.701 161 124.259 161 123.785V114.816C161 114.342 160.759 113.9 160.369 113.662L153.016 109.178C152.626 108.94 152.143 108.942 151.755 109.178L144.402 113.662C144.012 113.9 143.771 114.342 143.771 114.816V130.843L138.614 133.986L133.458 130.843V124.555L138.614 121.412L142.015 123.487V119.268L139.245 117.578C139.055 117.462 138.836 117.399 138.614 117.399C138.393 117.399 138.174 117.462 137.984 117.578L130.631 122.062C130.241 122.3 130 122.742 130 123.216V132.185C130 132.659 130.241 133.101 130.631 133.339L137.984 137.823C138.374 138.059 138.855 138.059 139.245 137.823L146.598 133.339C146.988 133.101 147.229 132.659 147.229 132.185V116.158L147.321 116.102L152.383 113.015L157.54 116.158V122.446L152.383 125.589L148.987 123.519V127.737L151.753 129.423C152.143 129.659 152.626 129.659 153.014 129.423H153.016Z" fill="url(#paint1_linear_1864_2273)"/>
<path d="M91.4545 145H80.5455V134.524H74L86 123L98 134.524H91.4545V145Z" fill="white" stroke="#808080" stroke-linecap="round" stroke-linejoin="round"/>
<defs>
<linearGradient id="paint0_linear_1864_2273" x1="115.808" y1="142.957" x2="175.715" y2="112.156" gradientUnits="userSpaceOnUse">
<stop stop-color="#A726C1"/>
<stop offset="0.88" stop-color="#803BDF"/>
<stop offset="1" stop-color="#7B3FE4"/>
</linearGradient>
<linearGradient id="paint1_linear_1864_2273" x1="145.5" y1="109" x2="145.5" y2="167.5" gradientUnits="userSpaceOnUse">
<stop stop-color="white"/>
<stop offset="1" stop-color="white" stop-opacity="0"/>
</linearGradient>
</defs>
</svg>
