<svg width="32" height="33" viewBox="0 0 32 33" fill="none" xmlns="http://www.w3.org/2000/svg">
<g clip-path="url(#clip0_1_5574)">
<path d="M31.8882 16.5653C23.1833 16.5653 16.112 23.6366 16.112 32.3415C16.112 32.4086 16.0673 32.4534 16.0001 32.4534C15.933 32.4534 15.8882 32.4086 15.8882 32.3415C15.8882 23.6366 8.81691 16.5653 0.11201 16.5653C0.0448773 16.5653 0.00012207 16.5205 0.00012207 16.4534C0.00012207 16.3862 0.0448773 16.3415 0.11201 16.3415C8.81691 16.3415 15.8882 9.27015 15.8882 0.565257C15.8882 0.498124 15.933 0.453369 16.0001 0.453369C16.0673 0.453369 16.112 0.498124 16.112 0.565257C16.112 9.27015 23.1833 16.3415 31.8882 16.3415C31.9554 16.3415 32.0001 16.3862 32.0001 16.4534C32.0001 16.5205 31.9554 16.5653 31.8882 16.5653ZM23.161 4.81701C25.5106 4.81701 27.4127 2.91491 27.4127 0.565257C27.4127 0.498124 27.4575 0.453369 27.5246 0.453369C27.5917 0.453369 27.6365 0.498124 27.6365 0.565257C27.6365 2.91491 29.5386 4.81701 31.8882 4.81701C31.9554 4.81701 32.0001 4.86176 32.0001 4.92889C32.0001 4.99603 31.9554 5.04078 31.8882 5.04078C29.5386 5.04078 27.6365 6.94288 27.6365 9.29253C27.6365 9.35966 27.5917 9.40442 27.5246 9.40442C27.4575 9.40442 27.4127 9.35966 27.4127 9.29253C27.4127 6.94288 25.5106 5.04078 23.161 5.04078C23.0938 5.04078 23.0491 4.99603 23.0491 4.92889C23.0491 4.86176 23.0938 4.81701 23.161 4.81701ZM7.49663 28.0897C5.88544 28.0897 4.58753 29.3876 4.58753 30.9988C4.58753 31.066 4.54278 31.1107 4.47565 31.1107C4.40851 31.1107 4.36376 31.066 4.36376 30.9988C4.36376 29.3876 3.06586 28.0897 1.45467 28.0897C1.38753 28.0897 1.34278 28.045 1.34278 27.9778C1.34278 27.9107 1.38753 27.866 1.45467 27.866C3.06586 27.866 4.36376 26.5681 4.36376 24.9569C4.36376 24.8897 4.40851 24.845 4.47565 24.845C4.54278 24.845 4.58753 24.8897 4.58753 24.9569C4.58753 26.5681 5.88544 27.866 7.49663 27.866C7.56376 27.866 7.60851 27.9107 7.60851 27.9778C7.60851 28.045 7.56376 28.0897 7.49663 28.0897Z" fill="#110C22"/>
</g>
<defs>
<clipPath id="clip0_1_5574">
<rect width="32" height="32" fill="white" transform="translate(0.00012207 0.453369)"/>
</clipPath>
</defs>
</svg>
