<svg width="32" height="33" viewBox="0 0 32 33" fill="none" xmlns="http://www.w3.org/2000/svg">
<path d="M16.0049 17.8623C18.2942 17.8623 20.16 15.957 20.16 13.6136C20.16 11.2653 18.2991 9.36011 16.0049 9.36011C13.7108 9.36011 11.8449 11.2703 11.8449 13.6136C11.84 15.957 13.7108 17.8623 16.0049 17.8623ZM14.3803 11.9053C14.3803 11.7429 14.464 11.5952 14.6018 11.5115C14.7397 11.4278 14.912 11.418 15.0548 11.4918L18.4025 13.2001C18.5551 13.2789 18.6535 13.4364 18.6535 13.6136C18.6535 13.786 18.5551 13.9435 18.4025 14.0272L15.0548 15.7355C14.9908 15.77 14.9169 15.7847 14.8431 15.7847C14.7594 15.7847 14.6757 15.7601 14.6018 15.7158C14.464 15.6321 14.3803 15.4844 14.3803 15.322V11.9053Z" fill="#B3B1B8"/>
<path d="M29.3957 3.63965H2.60431C1.57539 3.63965 0.738464 4.49626 0.738464 5.5498V28.1861C0.738464 29.2396 1.57539 30.0963 2.60431 30.0963H29.3957C30.4246 30.0963 31.2615 29.2396 31.2615 28.1861V5.5498C31.2615 4.49626 30.4246 3.63965 29.3957 3.63965ZM4.44062 7.64211C4.44062 6.62796 5.24308 5.8058 6.23262 5.8058H25.7723C26.7618 5.8058 27.5643 6.62796 27.5643 7.64211V19.5855C27.5643 20.5996 26.7618 21.4218 25.7723 21.4218H6.23262C5.24308 21.4218 4.44062 20.5996 4.44062 19.5855V7.64211ZM27.648 26.9455H11.5495C11.3378 28.0089 10.4123 28.8163 9.2997 28.8163C8.192 28.8163 7.26154 28.0138 7.04985 26.9455H4.352C4.096 26.9455 3.88923 26.7387 3.88923 26.4827C3.88923 26.2267 4.096 26.02 4.352 26.02H7.04493C7.25662 24.9566 8.18216 24.1492 9.29477 24.1492C10.4025 24.1492 11.3329 24.9566 11.5446 26.02H27.6431C27.8991 26.02 28.1058 26.2267 28.1058 26.4827C28.1058 26.7387 27.904 26.9455 27.648 26.9455Z" fill="#B3B1B8"/>
<path d="M9.29474 25.0747C8.53659 25.0747 7.9212 25.7049 7.9212 26.4827C7.9212 27.2606 8.53659 27.8907 9.29474 27.8907C10.0529 27.8907 10.6683 27.2606 10.6683 26.4827C10.6683 25.7049 10.0529 25.0747 9.29474 25.0747Z" fill="#B3B1B8"/>
</svg>
