<svg width="400" height="227" viewBox="0 0 400 227" fill="none" xmlns="http://www.w3.org/2000/svg">
<path d="M342.223 158.222C342.223 155.768 340.233 153.778 337.778 153.778L235.556 153.778C233.101 153.778 231.112 155.768 231.112 158.222V184.889C231.112 187.344 233.101 189.333 235.556 189.333H327.048C328.227 189.333 329.358 189.802 330.191 190.635L342.223 202.667V158.222Z" fill="#F2F2F2" stroke="#808080" stroke-width="0.888889" stroke-linejoin="round"/>
<rect x="82.667" y="159.111" width="53.3333" height="47.1111" rx="4.44444" fill="#F2F2F2" stroke="#808080" stroke-width="0.888889" stroke-linejoin="round"/>
<path d="M56 19.5555C56 17.1009 57.9898 15.1111 60.4444 15.1111L145.778 15.1111C148.232 15.1111 150.222 17.1009 150.222 19.5555V50.6666C150.222 53.1212 148.232 55.1111 145.778 55.1111H60.4444C57.9898 55.1111 56 53.1212 56 50.6666L56 19.5555Z" fill="#F2F2F2" stroke="#808080" stroke-width="0.888889" stroke-linejoin="round"/>
<path d="M56 148.444C56 145.99 57.9898 144 60.4444 144H118.222C120.677 144 122.667 145.99 122.667 148.444V188.444C122.667 190.899 120.677 192.889 118.222 192.889H71.1743C69.9955 192.889 68.8651 193.357 68.0316 194.191L56 206.222L56 148.444Z" fill="white" stroke="#808080" stroke-width="0.888889" stroke-linejoin="round"/>
<path d="M336 148.444C336 145.99 334.01 144 331.556 144L216 144C213.545 144 211.556 145.99 211.556 148.444V175.111C211.556 177.566 213.545 179.556 216 179.556H331.556C334.01 179.556 336 177.566 336 175.111L336 148.444Z" fill="white" stroke="#808080" stroke-width="0.888889" stroke-linejoin="round"/>
<path d="M70.2227 32.8888C70.2227 30.4342 72.2125 28.4443 74.6671 28.4443L159.112 28.4443C161.566 28.4443 163.556 30.4342 163.556 32.8888V72.8888C163.556 75.3434 161.566 77.3332 159.112 77.3332H74.6671C72.2125 77.3332 70.2227 75.3434 70.2227 72.8888L70.2227 32.8888Z" fill="white" stroke="#808080" stroke-width="0.888889" stroke-linejoin="round"/>
<path d="M70.2227 68.4443L163.556 68.4443V72.8888C163.556 75.3434 161.566 77.3332 159.112 77.3332H74.6671C72.2125 77.3332 70.2227 75.3434 70.2227 72.8888L70.2227 68.4443Z" fill="#F2F2F2" stroke="#808080" stroke-width="0.888889" stroke-linejoin="round"/>
<path d="M145.777 50.6666C145.777 48.212 147.767 46.2222 150.222 46.2222V46.2222C152.676 46.2222 154.666 48.212 154.666 50.6666V50.6666C154.666 53.1212 152.676 55.1111 150.222 55.1111V55.1111C147.767 55.1111 145.777 53.1212 145.777 50.6666V50.6666Z" fill="#F2F2F2" stroke="#808080" stroke-width="0.888889" stroke-linejoin="round"/>
<path d="M119.111 50.6666C119.111 48.212 121.101 46.2222 123.556 46.2222L132.445 46.2222C134.899 46.2222 136.889 48.212 136.889 50.6666V50.6666C136.889 53.1212 134.899 55.1111 132.445 55.1111H123.556C121.101 55.1111 119.111 53.1212 119.111 50.6666V50.6666Z" fill="#F2F2F2" stroke="#808080" stroke-width="0.888889" stroke-linejoin="round"/>
<path d="M101.333 50.6666C101.333 48.212 103.323 46.2222 105.777 46.2222V46.2222C108.232 46.2222 110.222 48.212 110.222 50.6666V50.6666C110.222 53.1212 108.232 55.1111 105.777 55.1111V55.1111C103.323 55.1111 101.333 53.1212 101.333 50.6666V50.6666Z" fill="#F2F2F2" stroke="#808080" stroke-width="0.888889" stroke-linejoin="round"/>
<path d="M83.5557 50.6666C83.5557 48.212 85.5455 46.2222 88.0001 46.2222V46.2222C90.4547 46.2222 92.4446 48.212 92.4446 50.6666V50.6666C92.4446 53.1212 90.4547 55.1111 88.0001 55.1111V55.1111C85.5455 55.1111 83.5557 53.1212 83.5557 50.6666V50.6666Z" fill="#F2F2F2" stroke="#808080" stroke-width="0.888889" stroke-linejoin="round"/>
<path d="M349.333 37.3334C349.333 34.8788 347.343 32.8889 344.889 32.8889L242.666 32.8889C240.212 32.8889 238.222 34.8788 238.222 37.3334V72.8889C238.222 75.3435 240.212 77.3334 242.666 77.3334H336L349.333 64L349.333 37.3334Z" fill="white" stroke="#808080" stroke-width="0.888889" stroke-linejoin="round"/>
<path d="M211.111 192.889C211.111 192.644 211.31 192.445 211.556 192.445C211.801 192.445 212 192.644 212 192.889H211.111ZM160.575 206.981C160.401 206.807 160.401 206.526 160.575 206.352L163.403 203.524C163.577 203.35 163.858 203.35 164.032 203.524C164.205 203.698 164.205 203.979 164.032 204.153L161.518 206.667L164.032 209.181C164.205 209.354 164.205 209.636 164.032 209.809C163.858 209.983 163.577 209.983 163.403 209.809L160.575 206.981ZM212 192.889L212 200H211.111L211.111 192.889H212ZM197.778 200L197.778 177.708L198.667 177.708L198.667 200L197.778 200ZM185.474 177.708L185.474 200L184.585 200L184.585 177.708L185.474 177.708ZM178.363 207.111L160.889 207.111L160.889 206.222L178.363 206.222L178.363 207.111ZM185.474 200C185.474 203.927 182.29 207.111 178.363 207.111L178.363 206.222C181.799 206.222 184.585 203.437 184.585 200L185.474 200ZM191.626 171.556C188.228 171.556 185.474 174.31 185.474 177.708L184.585 177.708C184.585 173.819 187.737 170.667 191.626 170.667L191.626 171.556ZM197.778 177.708C197.778 174.31 195.024 171.556 191.626 171.556L191.626 170.667C195.514 170.667 198.667 173.819 198.667 177.708L197.778 177.708ZM204.889 207.111C200.962 207.111 197.778 203.927 197.778 200L198.667 200C198.667 203.437 201.453 206.222 204.889 206.222V207.111ZM212 200C212 203.927 208.816 207.111 204.889 207.111V206.222C208.325 206.222 211.111 203.437 211.111 200H212Z" fill="#808080"/>
<path d="M198.536 37.019C198.71 37.1925 198.71 37.474 198.536 37.6475L195.708 40.4759C195.534 40.6495 195.253 40.6495 195.08 40.4759C194.906 40.3024 194.906 40.021 195.08 39.8474L197.594 37.3333L195.08 34.8191C194.906 34.6455 194.906 34.3641 195.08 34.1906C195.253 34.017 195.534 34.017 195.708 34.1906L198.536 37.019ZM198.222 76.8888C198.468 76.8888 198.667 77.0878 198.667 77.3333C198.667 77.5787 198.468 77.7777 198.222 77.7777V76.8888ZM182.667 63.5555H191.556V64.4444H182.667V63.5555ZM191.556 51.111H187.111V50.2221H191.556V51.111ZM187.111 36.8888H198.222V37.7777H187.111V36.8888ZM182.667 76.8888H198.222V77.7777H182.667V76.8888ZM176.444 70.6666C176.444 74.103 179.23 76.8888 182.667 76.8888V77.7777C178.739 77.7777 175.556 74.5939 175.556 70.6666H176.444ZM180 43.9999C180 40.0726 183.184 36.8888 187.111 36.8888V37.7777C183.675 37.7777 180.889 40.5635 180.889 43.9999H180ZM187.111 51.111C183.184 51.111 180 47.9273 180 43.9999H180.889C180.889 47.4364 183.675 50.2221 187.111 50.2221V51.111ZM197.778 57.3333C197.778 53.8968 194.992 51.111 191.556 51.111V50.2221C195.483 50.2221 198.667 53.4059 198.667 57.3333H197.778ZM191.556 63.5555C194.992 63.5555 197.778 60.7697 197.778 57.3333H198.667C198.667 61.2606 195.483 64.4444 191.556 64.4444V63.5555ZM182.667 64.4444C179.23 64.4444 176.444 67.2301 176.444 70.6666H175.556C175.556 66.7392 178.739 63.5555 182.667 63.5555V64.4444Z" fill="#808080"/>
<circle cx="218.222" cy="44.8888" r="6.66667" fill="#F2F2F2" stroke="#808080" stroke-width="0.888889" stroke-linejoin="round"/>
<circle cx="33.3337" cy="175.556" r="6.66667" fill="white" stroke="#808080" stroke-width="0.888889" stroke-linejoin="round"/>
<circle cx="6.66667" cy="6.66667" r="6.66667" transform="matrix(-1 0 0 1 373.333 34.6667)" fill="#F2F2F2" stroke="#808080" stroke-width="0.888889" stroke-linejoin="round"/>
<circle cx="191.555" cy="152.445" r="6.66667" fill="#F2F2F2" stroke="#808080" stroke-width="0.888889" stroke-linejoin="round"/>
<circle cx="313.778" cy="19.5556" r="3.55556" fill="#F2F2F2" stroke="#808080" stroke-width="0.888889" stroke-linejoin="round"/>
<circle cx="329.778" cy="19.5556" r="3.55556" fill="#F2F2F2" stroke="#808080" stroke-width="0.888889" stroke-linejoin="round"/>
<circle cx="345.778" cy="19.5556" r="3.55556" fill="#F2F2F2" stroke="#808080" stroke-width="0.888889" stroke-linejoin="round"/>
<path d="M73.7783 172.192L89.3339 164.35L104.889 172.192L89.3339 180.033L73.7783 172.192Z" fill="white" stroke="#808080" stroke-width="0.888889" stroke-linejoin="round"/>
<path d="M89.3339 185.846L73.7783 178.434V172.191L89.3339 179.604V185.846Z" fill="#F2F2F2" stroke="#808080" stroke-width="0.888889" stroke-linejoin="round"/>
<path d="M89.3341 185.846L104.89 178.434V172.191L89.3341 179.604V185.846Z" fill="white" stroke="#808080" stroke-width="0.888889" stroke-linejoin="round"/>
<path d="M282.338 48.7954L293.285 41.7778L304.233 48.7954L293.285 55.813L282.338 48.7954Z" fill="white" stroke="#808080" stroke-width="0.888889" stroke-linejoin="round"/>
<path d="M293.285 68.4446L282.338 61.8107V48.7954L293.285 55.4294V68.4446Z" fill="#F2F2F2" stroke="#808080" stroke-width="0.888889" stroke-linejoin="round"/>
<path d="M293.285 68.4446L304.232 61.8107V48.7954L293.285 55.4294V68.4446Z" fill="white" stroke="#808080" stroke-width="0.888889" stroke-linejoin="round"/>
<path d="M291.556 19.5557L176 19.5557" stroke="#808080" stroke-width="1.77778" stroke-linecap="round" stroke-linejoin="round" stroke-dasharray="0 9.78"/>
<path d="M322.667 206.222L231.111 206.222" stroke="#808080" stroke-width="1.77778" stroke-linecap="round" stroke-linejoin="round" stroke-dasharray="0 9.78"/>
<path fill-rule="evenodd" clip-rule="evenodd" d="M40.8734 65.7914C40.8837 65.64 40.8889 65.4873 40.8889 65.3333C40.8889 61.6514 37.9041 58.6667 34.2222 58.6667C30.5403 58.6667 27.5556 61.6514 27.5556 65.3333C27.5556 65.4827 27.5605 65.6309 27.5701 65.7778H27.1111C23.4292 65.7778 20.4444 68.7625 20.4444 72.4444C20.4444 76.1263 23.4292 79.1111 27.1111 79.1111H40.4444C44.1263 79.1111 47.1111 76.1263 47.1111 72.4444C47.1111 68.9066 44.3554 66.0125 40.8734 65.7914Z" fill="white"/>
<path d="M40.8734 65.7914L40.43 65.7613C40.422 65.8792 40.4613 65.9955 40.5392 66.0844C40.6171 66.1732 40.7273 66.2274 40.8452 66.2349L40.8734 65.7914ZM27.5701 65.7778V66.2222C27.6931 66.2222 27.8105 66.1713 27.8946 66.0816C27.9786 65.9918 28.0217 65.8713 28.0136 65.7486L27.5701 65.7778ZM40.4444 65.3333C40.4444 65.4772 40.4396 65.6199 40.43 65.7613L41.3168 65.8214C41.3278 65.6601 41.3333 65.4973 41.3333 65.3333H40.4444ZM34.2222 59.1111C37.6587 59.1111 40.4444 61.8969 40.4444 65.3333H41.3333C41.3333 61.406 38.1496 58.2222 34.2222 58.2222V59.1111ZM28 65.3333C28 61.8969 30.7858 59.1111 34.2222 59.1111V58.2222C30.2949 58.2222 27.1111 61.406 27.1111 65.3333H28ZM28.0136 65.7486C28.0046 65.6114 28 65.4729 28 65.3333H27.1111C27.1111 65.4924 27.1163 65.6504 27.1267 65.807L28.0136 65.7486ZM27.1111 66.2222H27.5701V65.3333H27.1111V66.2222ZM20.8889 72.4444C20.8889 69.008 23.6747 66.2222 27.1111 66.2222V65.3333C23.1838 65.3333 20 68.5171 20 72.4444H20.8889ZM27.1111 78.6667C23.6747 78.6667 20.8889 75.8809 20.8889 72.4444H20C20 76.3718 23.1837 79.5556 27.1111 79.5556V78.6667ZM40.4444 78.6667H27.1111V79.5556H40.4444V78.6667ZM46.6667 72.4444C46.6667 75.8809 43.8809 78.6667 40.4444 78.6667V79.5556C44.3718 79.5556 47.5556 76.3718 47.5556 72.4444H46.6667ZM40.8452 66.2349C44.0947 66.4413 46.6667 69.1427 46.6667 72.4444H47.5556C47.5556 68.6706 44.6161 65.5837 40.9016 65.3478L40.8452 66.2349Z" fill="#808080"/>
<path fill-rule="evenodd" clip-rule="evenodd" d="M359.127 152.902C359.116 152.751 359.111 152.598 359.111 152.444C359.111 148.763 362.096 145.778 365.778 145.778C369.46 145.778 372.444 148.763 372.444 152.444C372.444 152.594 372.44 152.742 372.43 152.889H372.889C376.571 152.889 379.556 155.874 379.556 159.556C379.556 163.237 376.571 166.222 372.889 166.222H359.556C355.874 166.222 352.889 163.237 352.889 159.556C352.889 156.018 355.645 153.124 359.127 152.902Z" fill="white"/>
<path d="M359.127 152.902L359.57 152.872C359.578 152.99 359.539 153.107 359.461 153.195C359.383 153.284 359.273 153.339 359.155 153.346L359.127 152.902ZM372.43 152.889V153.333C372.307 153.333 372.189 153.282 372.105 153.193C372.021 153.103 371.978 152.982 371.986 152.86L372.43 152.889ZM359.556 152.444C359.556 152.588 359.56 152.731 359.57 152.872L358.683 152.933C358.672 152.771 358.667 152.608 358.667 152.444H359.556ZM365.778 146.222C362.341 146.222 359.556 149.008 359.556 152.444H358.667C358.667 148.517 361.85 145.333 365.778 145.333V146.222ZM372 152.444C372 149.008 369.214 146.222 365.778 146.222V145.333C369.705 145.333 372.889 148.517 372.889 152.444H372ZM371.986 152.86C371.995 152.723 372 152.584 372 152.444H372.889C372.889 152.604 372.884 152.761 372.873 152.918L371.986 152.86ZM372.889 153.333H372.43V152.444H372.889V153.333ZM379.111 159.556C379.111 156.119 376.325 153.333 372.889 153.333V152.444C376.816 152.444 380 155.628 380 159.556H379.111ZM372.889 165.778C376.325 165.778 379.111 162.992 379.111 159.556H380C380 163.483 376.816 166.667 372.889 166.667V165.778ZM359.556 165.778H372.889V166.667H359.556V165.778ZM353.333 159.556C353.333 162.992 356.119 165.778 359.556 165.778V166.667C355.628 166.667 352.444 163.483 352.444 159.556H353.333ZM359.155 153.346C355.905 153.552 353.333 156.254 353.333 159.556H352.444C352.444 155.782 355.384 152.695 359.098 152.459L359.155 153.346Z" fill="#808080"/>
<path d="M229.533 162.898C229.533 158.916 231.062 156.693 233.8 156.693C236.52 156.693 238.067 158.916 238.067 162.898C238.067 166.88 236.556 169.067 233.8 169.067C231.027 169.067 229.533 166.88 229.533 162.898ZM230.813 162.898C230.813 166.204 231.827 167.964 233.8 167.964C235.738 167.964 236.787 166.222 236.787 162.898C236.787 159.556 235.738 157.796 233.8 157.796C231.862 157.796 230.813 159.538 230.813 162.898ZM244.611 168.889H243.384V157.938H241.02V156.871H244.611V168.889ZM251.822 168.889H250.596V157.938H248.231V156.871H251.822V168.889ZM259.034 168.889H257.808V157.938H255.443V156.871H259.034V168.889ZM263.242 162.898C263.242 158.916 264.771 156.693 267.508 156.693C270.228 156.693 271.775 158.916 271.775 162.898C271.775 166.88 270.264 169.067 267.508 169.067C264.735 169.067 263.242 166.88 263.242 162.898ZM264.522 162.898C264.522 166.204 265.535 167.964 267.508 167.964C269.446 167.964 270.495 166.222 270.495 162.898C270.495 159.556 269.446 157.796 267.508 157.796C265.571 157.796 264.522 159.538 264.522 162.898ZM275.367 162.898C275.367 158.916 276.896 156.693 279.633 156.693C282.353 156.693 283.9 158.916 283.9 162.898C283.9 166.88 282.389 169.067 279.633 169.067C276.86 169.067 275.367 166.88 275.367 162.898ZM276.647 162.898C276.647 166.204 277.66 167.964 279.633 167.964C281.571 167.964 282.62 166.222 282.62 162.898C282.62 159.556 281.571 157.796 279.633 157.796C277.696 157.796 276.647 159.538 276.647 162.898ZM290.444 168.889H289.217V157.938H286.853V156.871H290.444V168.889ZM297.656 168.889H296.429V157.938H294.065V156.871H297.656V168.889ZM304.37 167.858C304.37 168.498 303.908 168.978 303.25 168.978C302.61 168.978 302.13 168.498 302.13 167.858C302.13 167.182 302.61 166.72 303.25 166.72C303.908 166.72 304.37 167.182 304.37 167.858ZM310.731 167.858C310.731 168.498 310.269 168.978 309.611 168.978C308.971 168.978 308.491 168.498 308.491 167.858C308.491 167.182 308.971 166.72 309.611 166.72C310.269 166.72 310.731 167.182 310.731 167.858ZM317.092 167.858C317.092 168.498 316.63 168.978 315.972 168.978C315.332 168.978 314.852 168.498 314.852 167.858C314.852 167.182 315.332 166.72 315.972 166.72C316.63 166.72 317.092 167.182 317.092 167.858Z" fill="#808080"/>
<path fill-rule="evenodd" clip-rule="evenodd" d="M213.508 68.714L211.556 70.6667L213.508 72.6193V75.3807H216.27L218.222 77.3333L220.175 75.3807H222.936V72.6193L224.889 70.6667L222.936 68.7141V65.9526H220.175L218.222 64L216.27 65.9526H213.508V68.714Z" fill="#F2F2F2"/>
<path d="M211.556 70.6667L211.241 70.3524C211.068 70.526 211.068 70.8074 211.241 70.9809L211.556 70.6667ZM213.508 68.714L213.823 69.0283C213.906 68.9449 213.953 68.8319 213.953 68.714H213.508ZM213.508 72.6193H213.953C213.953 72.5014 213.906 72.3884 213.823 72.305L213.508 72.6193ZM213.508 75.3807H213.064C213.064 75.6262 213.263 75.8252 213.508 75.8252V75.3807ZM216.27 75.3807L216.584 75.0664C216.501 74.9831 216.388 74.9363 216.27 74.9363V75.3807ZM218.222 77.3333L217.908 77.6476C218.082 77.8212 218.363 77.8212 218.537 77.6476L218.222 77.3333ZM220.175 75.3807V74.9363C220.057 74.9363 219.944 74.9831 219.861 75.0664L220.175 75.3807ZM222.936 75.3807V75.8252C223.182 75.8252 223.381 75.6262 223.381 75.3807H222.936ZM222.936 72.6193L222.622 72.305C222.539 72.3883 222.492 72.5014 222.492 72.6193H222.936ZM224.889 70.6667L225.203 70.9809C225.377 70.8074 225.377 70.526 225.203 70.3524L224.889 70.6667ZM222.936 68.7141H222.492C222.492 68.8319 222.539 68.945 222.622 69.0283L222.936 68.7141ZM222.936 65.9526H223.381C223.381 65.7072 223.182 65.5082 222.936 65.5082V65.9526ZM220.175 65.9526L219.861 66.2669C219.944 66.3502 220.057 66.3971 220.175 66.3971V65.9526ZM218.222 64L218.537 63.6857C218.453 63.6024 218.34 63.5556 218.222 63.5556C218.104 63.5556 217.991 63.6024 217.908 63.6857L218.222 64ZM216.27 65.9526V66.3971C216.388 66.3971 216.501 66.3502 216.584 66.2669L216.27 65.9526ZM213.508 65.9526V65.5082C213.263 65.5082 213.064 65.7072 213.064 65.9526H213.508ZM211.87 70.9809L213.823 69.0283L213.194 68.3997L211.241 70.3524L211.87 70.9809ZM213.823 72.305L211.87 70.3524L211.241 70.9809L213.194 72.9336L213.823 72.305ZM213.953 75.3807V72.6193H213.064V75.3807H213.953ZM216.27 74.9363H213.508V75.8252H216.27V74.9363ZM218.537 77.0191L216.584 75.0664L215.955 75.695L217.908 77.6476L218.537 77.0191ZM219.861 75.0664L217.908 77.0191L218.537 77.6476L220.489 75.695L219.861 75.0664ZM222.936 74.9363H220.175V75.8252H222.936V74.9363ZM222.492 72.6193V75.3807H223.381V72.6193H222.492ZM224.575 70.3524L222.622 72.305L223.251 72.9335L225.203 70.9809L224.575 70.3524ZM222.622 69.0283L224.575 70.9809L225.203 70.3524L223.251 68.3998L222.622 69.0283ZM222.492 65.9526V68.7141H223.381V65.9526H222.492ZM220.175 66.3971H222.936V65.5082H220.175V66.3971ZM217.908 64.3143L219.861 66.2669L220.489 65.6384L218.537 63.6857L217.908 64.3143ZM216.584 66.2669L218.537 64.3143L217.908 63.6857L215.955 65.6384L216.584 66.2669ZM213.508 66.3971H216.27V65.5082H213.508V66.3971ZM213.953 68.714V65.9526H213.064V68.714H213.953Z" fill="#808080"/>
<path fill-rule="evenodd" clip-rule="evenodd" d="M28.6188 203.825L26.666 205.778L28.6188 207.731V210.492H31.3801L33.3327 212.444L35.2853 210.492H38.0469V207.73L39.9993 205.778L38.0469 203.825V201.064H35.2853L33.3327 199.111L31.3801 201.064H28.6188V203.825Z" fill="#F2F2F2"/>
<path d="M26.666 205.778L26.3517 205.463C26.2684 205.547 26.2216 205.66 26.2216 205.778C26.2216 205.896 26.2684 206.009 26.3517 206.092L26.666 205.778ZM28.6188 203.825L28.933 204.139C29.0164 204.056 29.0632 203.943 29.0632 203.825H28.6188ZM28.6188 207.731H29.0632C29.0632 207.613 29.0164 207.5 28.933 207.416L28.6188 207.731ZM28.6188 210.492H28.1743C28.1743 210.737 28.3733 210.936 28.6188 210.936V210.492ZM31.3801 210.492L31.6943 210.178C31.611 210.094 31.4979 210.047 31.3801 210.047V210.492ZM33.3327 212.444L33.0184 212.759C33.192 212.932 33.4734 212.932 33.647 212.759L33.3327 212.444ZM35.2853 210.492V210.047C35.1674 210.047 35.0544 210.094 34.971 210.178L35.2853 210.492ZM38.0469 210.492V210.936C38.2923 210.936 38.4913 210.737 38.4913 210.492H38.0469ZM38.0469 207.73L37.7326 207.416C37.6492 207.499 37.6024 207.612 37.6024 207.73H38.0469ZM39.9993 205.778L40.3136 206.092C40.4872 205.918 40.4872 205.637 40.3136 205.463L39.9993 205.778ZM38.0469 203.825H37.6024C37.6024 203.943 37.6492 204.056 37.7326 204.14L38.0469 203.825ZM38.0469 201.064H38.4913C38.4913 200.818 38.2923 200.619 38.0469 200.619V201.064ZM35.2853 201.064L34.971 201.378C35.0544 201.461 35.1674 201.508 35.2853 201.508V201.064ZM33.3327 199.111L33.647 198.797C33.5636 198.713 33.4506 198.667 33.3327 198.667C33.2148 198.667 33.1018 198.713 33.0184 198.797L33.3327 199.111ZM31.3801 201.064V201.508C31.4979 201.508 31.611 201.461 31.6943 201.378L31.3801 201.064ZM28.6188 201.064V200.619C28.3733 200.619 28.1743 200.818 28.1743 201.064H28.6188ZM26.9803 206.092L28.933 204.139L28.3045 203.511L26.3517 205.463L26.9803 206.092ZM28.933 207.416L26.9803 205.463L26.3517 206.092L28.3045 208.045L28.933 207.416ZM29.0632 210.492V207.731H28.1743V210.492H29.0632ZM31.3801 210.047H28.6188V210.936H31.3801V210.047ZM33.647 212.13L31.6943 210.178L31.0658 210.806L33.0184 212.759L33.647 212.13ZM34.971 210.178L33.0184 212.13L33.647 212.759L35.5996 210.806L34.971 210.178ZM38.0469 210.047H35.2853V210.936H38.0469V210.047ZM37.6024 207.73V210.492H38.4913V207.73H37.6024ZM39.6851 205.463L37.7326 207.416L38.3611 208.045L40.3136 206.092L39.6851 205.463ZM37.7326 204.14L39.6851 206.092L40.3136 205.463L38.3611 203.511L37.7326 204.14ZM37.6024 201.064V203.825H38.4913V201.064H37.6024ZM35.2853 201.508H38.0469V200.619H35.2853V201.508ZM33.0184 199.425L34.971 201.378L35.5996 200.749L33.647 198.797L33.0184 199.425ZM31.6943 201.378L33.647 199.425L33.0184 198.797L31.0658 200.749L31.6943 201.378ZM28.6188 201.508H31.3801V200.619H28.6188V201.508ZM29.0632 203.825V201.064H28.1743V203.825H29.0632Z" fill="#808080"/>
<path fill-rule="evenodd" clip-rule="evenodd" d="M371.381 198.492L373.334 200.444L371.381 202.397V205.159H368.62L366.667 207.111L364.715 205.159H361.953V202.397L360.001 200.444L361.953 198.492V195.73H364.715L366.667 193.778L368.62 195.73H371.381V198.492Z" fill="#F2F2F2"/>
<path d="M373.334 200.444L373.648 200.13C373.732 200.214 373.778 200.327 373.778 200.444C373.778 200.562 373.732 200.675 373.648 200.759L373.334 200.444ZM371.381 198.492L371.067 198.806C370.984 198.723 370.937 198.61 370.937 198.492H371.381ZM371.381 202.397H370.937C370.937 202.279 370.984 202.166 371.067 202.083L371.381 202.397ZM371.381 205.159H371.826C371.826 205.404 371.627 205.603 371.381 205.603V205.159ZM368.62 205.159L368.306 204.844C368.389 204.761 368.502 204.714 368.62 204.714V205.159ZM366.667 207.111L366.982 207.425C366.808 207.599 366.527 207.599 366.353 207.425L366.667 207.111ZM364.715 205.159V204.714C364.833 204.714 364.946 204.761 365.029 204.844L364.715 205.159ZM361.953 205.159V205.603C361.708 205.603 361.509 205.404 361.509 205.159H361.953ZM361.953 202.397L362.267 202.083C362.351 202.166 362.398 202.279 362.398 202.397H361.953ZM360.001 200.444L359.686 200.759C359.513 200.585 359.513 200.304 359.686 200.13L360.001 200.444ZM361.953 198.492H362.398C362.398 198.61 362.351 198.723 362.267 198.806L361.953 198.492ZM361.953 195.73H361.509C361.509 195.485 361.708 195.286 361.953 195.286V195.73ZM364.715 195.73L365.029 196.045C364.946 196.128 364.833 196.175 364.715 196.175V195.73ZM366.667 193.778L366.353 193.464C366.527 193.29 366.808 193.29 366.982 193.464L366.667 193.778ZM368.62 195.73V196.175C368.502 196.175 368.389 196.128 368.306 196.045L368.62 195.73ZM371.381 195.73V195.286C371.627 195.286 371.826 195.485 371.826 195.73H371.381ZM373.02 200.759L371.067 198.806L371.695 198.177L373.648 200.13L373.02 200.759ZM371.067 202.083L373.02 200.13L373.648 200.759L371.695 202.712L371.067 202.083ZM370.937 205.159V202.397H371.826V205.159H370.937ZM368.62 204.714H371.381V205.603H368.62V204.714ZM366.353 206.797L368.306 204.844L368.934 205.473L366.982 207.425L366.353 206.797ZM365.029 204.844L366.982 206.797L366.353 207.425L364.4 205.473L365.029 204.844ZM361.953 204.714H364.715V205.603H361.953V204.714ZM362.398 202.397V205.159H361.509V202.397H362.398ZM360.315 200.13L362.267 202.083L361.639 202.711L359.686 200.759L360.315 200.13ZM362.267 198.806L360.315 200.759L359.686 200.13L361.639 198.178L362.267 198.806ZM362.398 195.73V198.492H361.509V195.73H362.398ZM364.715 196.175H361.953V195.286H364.715V196.175ZM366.982 194.092L365.029 196.045L364.4 195.416L366.353 193.464L366.982 194.092ZM368.306 196.045L366.353 194.092L366.982 193.464L368.934 195.416L368.306 196.045ZM371.381 196.175H368.62V195.286H371.381V196.175ZM370.937 198.492V195.73H371.826V198.492H370.937Z" fill="#808080"/>
<path fill-rule="evenodd" clip-rule="evenodd" d="M28.6188 143.38L26.666 145.333L28.6188 147.286V150.047H31.3801L33.3327 152L35.2853 150.047H38.0469V147.286L39.9993 145.333L38.0469 143.381V140.619H35.2853L33.3327 138.667L31.3801 140.619H28.6188V143.38Z" fill="#F2F2F2"/>
<path d="M26.666 145.333L26.3517 145.019C26.2684 145.102 26.2216 145.215 26.2216 145.333C26.2216 145.451 26.2684 145.564 26.3517 145.647L26.666 145.333ZM28.6188 143.38L28.933 143.695C29.0164 143.611 29.0632 143.498 29.0632 143.38H28.6188ZM28.6188 147.286H29.0632C29.0632 147.168 29.0164 147.055 28.933 146.972L28.6188 147.286ZM28.6188 150.047H28.1743C28.1743 150.293 28.3733 150.492 28.6188 150.492V150.047ZM31.3801 150.047L31.6943 149.733C31.611 149.65 31.4979 149.603 31.3801 149.603V150.047ZM33.3327 152L33.0184 152.314C33.192 152.488 33.4734 152.488 33.647 152.314L33.3327 152ZM35.2853 150.047V149.603C35.1674 149.603 35.0544 149.65 34.971 149.733L35.2853 150.047ZM38.0469 150.047V150.492C38.2923 150.492 38.4913 150.293 38.4913 150.047H38.0469ZM38.0469 147.286L37.7326 146.971C37.6492 147.055 37.6024 147.168 37.6024 147.286H38.0469ZM39.9993 145.333L40.3136 145.647C40.4872 145.474 40.4872 145.192 40.3136 145.019L39.9993 145.333ZM38.0469 143.381H37.6024C37.6024 143.499 37.6492 143.612 37.7326 143.695L38.0469 143.381ZM38.0469 140.619H38.4913C38.4913 140.374 38.2923 140.175 38.0469 140.175V140.619ZM35.2853 140.619L34.971 140.933C35.0544 141.017 35.1674 141.064 35.2853 141.064V140.619ZM33.3327 138.667L33.647 138.352C33.4734 138.179 33.192 138.179 33.0184 138.352L33.3327 138.667ZM31.3801 140.619V141.064C31.4979 141.064 31.611 141.017 31.6943 140.933L31.3801 140.619ZM28.6188 140.619V140.175C28.3733 140.175 28.1743 140.374 28.1743 140.619H28.6188ZM26.9803 145.647L28.933 143.695L28.3045 143.066L26.3517 145.019L26.9803 145.647ZM28.933 146.972L26.9803 145.019L26.3517 145.647L28.3045 147.6L28.933 146.972ZM29.0632 150.047V147.286H28.1743V150.047H29.0632ZM31.3801 149.603H28.6188V150.492H31.3801V149.603ZM33.647 151.686L31.6943 149.733L31.0658 150.361L33.0184 152.314L33.647 151.686ZM34.971 149.733L33.0184 151.686L33.647 152.314L35.5996 150.361L34.971 149.733ZM38.0469 149.603H35.2853V150.492H38.0469V149.603ZM37.6024 147.286V150.047H38.4913V147.286H37.6024ZM39.6851 145.019L37.7326 146.971L38.3611 147.6L40.3136 145.647L39.6851 145.019ZM37.7326 143.695L39.6851 145.647L40.3136 145.019L38.3611 143.066L37.7326 143.695ZM37.6024 140.619V143.381H38.4913V140.619H37.6024ZM35.2853 141.064H38.0469V140.175H35.2853V141.064ZM33.0184 138.981L34.971 140.933L35.5996 140.305L33.647 138.352L33.0184 138.981ZM31.6943 140.933L33.647 138.981L33.0184 138.352L31.0658 140.305L31.6943 140.933ZM28.6188 141.064H31.3801V140.175H28.6188V141.064ZM29.0632 143.38V140.619H28.1743V143.38H29.0632Z" fill="#808080"/>
<path fill-rule="evenodd" clip-rule="evenodd" d="M371.381 68.7139L373.334 70.6667L371.381 72.6194V75.3807H368.62L366.667 77.3333L364.715 75.3807H361.953V72.6191L360.001 70.6667L361.953 68.7142V65.9526H364.715L366.667 64L368.62 65.9526H371.381V68.7139Z" fill="#F2F2F2"/>
<path d="M373.334 70.6667L373.648 70.3524C373.732 70.4357 373.778 70.5488 373.778 70.6667C373.778 70.7845 373.732 70.8976 373.648 70.9809L373.334 70.6667ZM371.381 68.7139L371.067 69.0282C370.984 68.9448 370.937 68.8318 370.937 68.7139H371.381ZM371.381 72.6194H370.937C370.937 72.5016 370.984 72.3885 371.067 72.3052L371.381 72.6194ZM371.381 75.3807H371.826C371.826 75.6262 371.627 75.8252 371.381 75.8252V75.3807ZM368.62 75.3807L368.306 75.0664C368.389 74.9831 368.502 74.9363 368.62 74.9363V75.3807ZM366.667 77.3333L366.982 77.6476C366.808 77.8212 366.527 77.8212 366.353 77.6476L366.667 77.3333ZM364.715 75.3807V74.9363C364.833 74.9363 364.946 74.9831 365.029 75.0664L364.715 75.3807ZM361.953 75.3807V75.8252C361.708 75.8252 361.509 75.6262 361.509 75.3807H361.953ZM361.953 72.6191L362.267 72.3049C362.351 72.3882 362.398 72.5013 362.398 72.6191H361.953ZM360.001 70.6667L359.686 70.9809C359.513 70.8074 359.513 70.526 359.686 70.3524L360.001 70.6667ZM361.953 68.7142H362.398C362.398 68.8321 362.351 68.9451 362.267 69.0285L361.953 68.7142ZM361.953 65.9526H361.509C361.509 65.7072 361.708 65.5082 361.953 65.5082V65.9526ZM364.715 65.9526L365.029 66.2669C364.946 66.3502 364.833 66.3971 364.715 66.3971V65.9526ZM366.667 64L366.353 63.6857C366.436 63.6024 366.549 63.5556 366.667 63.5556C366.785 63.5556 366.898 63.6024 366.982 63.6857L366.667 64ZM368.62 65.9526V66.3971C368.502 66.3971 368.389 66.3502 368.306 66.2669L368.62 65.9526ZM371.381 65.9526V65.5082C371.627 65.5082 371.826 65.7072 371.826 65.9526H371.381ZM373.02 70.9809L371.067 69.0282L371.695 68.3996L373.648 70.3524L373.02 70.9809ZM371.067 72.3052L373.02 70.3524L373.648 70.9809L371.695 72.9337L371.067 72.3052ZM370.937 75.3807V72.6194H371.826V75.3807H370.937ZM368.62 74.9363H371.381V75.8252H368.62V74.9363ZM366.353 77.0191L368.306 75.0664L368.934 75.695L366.982 77.6476L366.353 77.0191ZM365.029 75.0664L366.982 77.0191L366.353 77.6476L364.4 75.695L365.029 75.0664ZM361.953 74.9363H364.715V75.8252H361.953V74.9363ZM362.398 72.6191V75.3807H361.509V72.6191H362.398ZM360.315 70.3524L362.267 72.3049L361.639 72.9334L359.686 70.9809L360.315 70.3524ZM362.267 69.0285L360.315 70.9809L359.686 70.3524L361.639 68.3999L362.267 69.0285ZM362.398 65.9526V68.7142H361.509V65.9526H362.398ZM364.715 66.3971H361.953V65.5082H364.715V66.3971ZM366.982 64.3143L365.029 66.2669L364.4 65.6384L366.353 63.6857L366.982 64.3143ZM368.306 66.2669L366.353 64.3143L366.982 63.6857L368.934 65.6384L368.306 66.2669ZM371.381 66.3971H368.62V65.5082H371.381V66.3971ZM370.937 68.7139V65.9526H371.826V68.7139H370.937Z" fill="#808080"/>
<path d="M73.7783 158.952L89.3339 151.111L104.889 158.952L89.3339 166.793L73.7783 158.952Z" fill="white" stroke="#808080" stroke-width="0.888889" stroke-linejoin="round"/>
<path d="M89.3339 171.915L73.7783 164.503V158.952L89.3339 166.365V171.915Z" fill="#F2F2F2" stroke="#808080" stroke-width="0.888889" stroke-linejoin="round"/>
<path d="M89.3341 171.915L104.89 164.503V158.952L89.3341 166.365V171.915Z" fill="white" stroke="#808080" stroke-width="0.888889" stroke-linejoin="round"/>
<path d="M149.333 161.778L160.626 144L171.555 161.778L160.626 170.968L149.333 161.778Z" fill="white"/>
<path d="M149.333 170.667L160.626 179.556L171.555 170.667L160.626 188.444L149.333 170.667Z" fill="white"/>
<path d="M160.626 144L149.333 161.778M160.626 144L171.555 161.778M160.626 144V154.667M149.333 161.778L160.626 170.968L171.555 161.778M149.333 161.778L160.626 154.667M171.555 161.778L160.626 154.667M160.626 179.556L149.333 170.667L160.626 188.444M160.626 179.556L171.555 170.667L160.626 188.444M160.626 179.556V188.444" stroke="#808080" stroke-width="0.888889" stroke-linecap="round" stroke-linejoin="round"/>
<path fill-rule="evenodd" clip-rule="evenodd" d="M67.5556 109.926C67.5556 111.562 66.229 112.889 64.5926 112.889L49.036 112.889C47.4302 117.049 43.3931 120 38.6667 120C32.5302 120 27.5556 115.025 27.5556 108.889C27.5556 102.752 32.5302 97.7778 38.6667 97.7778C43.0489 97.7778 46.8386 100.315 48.6472 104L61.6296 104C64.9024 104 67.5556 106.653 67.5556 109.926Z" fill="#F2F2F2"/>
<path d="M49.036 112.889L48.6214 112.729C48.6875 112.557 48.8523 112.444 49.036 112.444L49.036 112.889ZM48.6472 104L48.6472 104.444C48.4777 104.444 48.3229 104.348 48.2482 104.196L48.6472 104ZM64.5926 112.444C65.9835 112.444 67.1111 111.317 67.1111 109.926L68 109.926C68 111.808 66.4745 113.333 64.5926 113.333L64.5926 112.444ZM49.036 112.444L64.5926 112.444L64.5926 113.333L49.036 113.333L49.036 112.444ZM38.6667 119.556C43.2033 119.556 47.0795 116.723 48.6214 112.729L49.4506 113.049C47.7809 117.375 43.5828 120.444 38.6667 120.444L38.6667 119.556ZM28 108.889C28 114.78 32.7756 119.556 38.6667 119.556L38.6667 120.444C32.2847 120.444 27.1111 115.271 27.1111 108.889L28 108.889ZM38.6667 98.2222C32.7756 98.2222 28 102.998 28 108.889L27.1111 108.889C27.1111 102.507 32.2847 97.3333 38.6667 97.3333L38.6667 98.2222ZM48.2482 104.196C46.5114 100.657 42.8729 98.2222 38.6667 98.2222L38.6667 97.3333C43.2248 97.3333 47.1657 99.9725 49.0462 103.804L48.2482 104.196ZM61.6296 104.444L48.6472 104.444L48.6472 103.556L61.6296 103.556L61.6296 104.444ZM67.1111 109.926C67.1111 106.899 64.657 104.444 61.6296 104.444L61.6296 103.556C65.1479 103.556 68 106.408 68 109.926L67.1111 109.926Z" fill="#808080"/>
<circle cx="2.66667" cy="2.66667" r="2.66667" transform="matrix(1.31134e-07 -1 -1 -1.31134e-07 38.2227 111.111)" fill="#F2F2F2" stroke="#808080" stroke-width="0.888889" stroke-linejoin="round"/>
<path fill-rule="evenodd" clip-rule="evenodd" d="M332.444 109.926C332.444 111.562 333.771 112.889 335.407 112.889L350.964 112.889C352.57 117.049 356.607 120 361.333 120C367.47 120 372.444 115.025 372.444 108.889C372.444 102.752 367.47 97.7778 361.333 97.7778C356.951 97.7778 353.161 100.315 351.353 104L338.37 104C335.098 104 332.444 106.653 332.444 109.926Z" fill="#F2F2F2"/>
<path d="M350.964 112.889L351.379 112.729C351.312 112.557 351.148 112.444 350.964 112.444L350.964 112.889ZM351.353 104L351.353 104.444C351.522 104.444 351.677 104.348 351.752 104.196L351.353 104ZM338.37 104L338.37 104.444L338.37 104ZM335.407 112.444C334.016 112.444 332.889 111.317 332.889 109.926L332 109.926C332 111.808 333.526 113.333 335.407 113.333L335.407 112.444ZM350.964 112.444L335.407 112.444L335.407 113.333L350.964 113.333L350.964 112.444ZM361.333 119.556C356.797 119.556 352.92 116.723 351.379 112.729L350.549 113.049C352.219 117.375 356.417 120.444 361.333 120.444L361.333 119.556ZM372 108.889C372 114.78 367.224 119.556 361.333 119.556L361.333 120.444C367.715 120.444 372.889 115.271 372.889 108.889L372 108.889ZM361.333 98.2222C367.224 98.2222 372 102.998 372 108.889L372.889 108.889C372.889 102.507 367.715 97.3333 361.333 97.3333L361.333 98.2222ZM351.752 104.196C353.489 100.657 357.127 98.2222 361.333 98.2222L361.333 97.3333C356.775 97.3333 352.834 99.9725 350.954 103.804L351.752 104.196ZM338.37 104.444L351.353 104.444L351.353 103.556L338.37 103.556L338.37 104.444ZM332.889 109.926C332.889 106.899 335.343 104.444 338.37 104.444L338.37 103.556C334.852 103.556 332 106.408 332 109.926L332.889 109.926Z" fill="#808080"/>
<circle cx="364.444" cy="108.444" r="2.66667" transform="rotate(-90 364.444 108.444)" fill="#F2F2F2" stroke="#808080" stroke-width="0.888889" stroke-linejoin="round"/>
<path d="M247.111 48.7124L259.148 41.6318L271.185 48.7124L259.148 55.7931L247.111 48.7124Z" fill="white" stroke="#808080" stroke-width="0.888889" stroke-linejoin="round"/>
<path d="M259.148 68.5379L247.111 61.8443V48.7122L259.148 55.4057V68.5379Z" fill="#F2F2F2" stroke="#808080" stroke-width="0.888889" stroke-linejoin="round"/>
<path d="M259.148 68.5379L271.185 61.8443V48.7122L259.148 55.4057V68.5379Z" fill="white" stroke="#808080" stroke-width="0.888889" stroke-linejoin="round"/>
<path d="M315.482 48.7122L327.519 41.6316L339.556 48.7122L327.519 55.7928L315.482 48.7122Z" fill="white" stroke="#808080" stroke-width="0.888889" stroke-linejoin="round"/>
<path d="M327.519 68.5379L315.482 61.8443V48.7122L327.519 55.4057V68.5379Z" fill="#F2F2F2" stroke="#808080" stroke-width="0.888889" stroke-linejoin="round"/>
<path d="M327.52 68.5379L339.557 61.8443V48.7122L327.52 55.4057V68.5379Z" fill="white" stroke="#808080" stroke-width="0.888889" stroke-linejoin="round"/>
<path d="M165.607 130.556H140.936V124.483L155.847 108.108H140.882V101.601H165.173V107.783L150.208 123.995H165.607V130.556ZM176.793 130.556H169.256V91.6244H176.793V113.855L187.366 101.601H196.042L184.059 115.482L197.452 130.556H187.854L176.793 117.109V130.556ZM226.677 123.399V130.556H200.487V91.6244H226.297V98.7817H208.729V106.969H224.671V114.072H208.729V123.399H226.677ZM265.477 91.6244L251.38 130.556H242.379L228.389 91.6244H237.282L247.15 120.959L257.236 91.6244H265.477ZM284.9 130.556L274.706 104.692V130.556H267.223V91.6244H277.092L288.37 120.471L299.702 91.6244H309.571V130.556H302.088V104.475L291.786 130.556H284.9Z" fill="#1A1A1A"/>
<circle cx="108.002" cy="110.667" r="26.2222" fill="url(#paint0_linear_1864_2897)"/>
<path d="M114.683 115.932L121.219 111.946C121.565 111.734 121.779 111.342 121.779 110.92V102.948C121.779 102.527 121.565 102.134 121.219 101.922L114.683 97.9361C114.336 97.7244 113.906 97.7264 113.561 97.9361L107.025 101.922C106.679 102.134 106.465 102.527 106.465 102.948V117.194L101.881 119.988L97.297 117.194V111.605L101.881 108.811L104.904 110.655V106.905L102.441 105.403C102.272 105.3 102.077 105.244 101.881 105.244C101.684 105.244 101.49 105.3 101.32 105.403L94.7842 109.389C94.4377 109.6 94.2236 109.993 94.2236 110.414V118.387C94.2236 118.808 94.4377 119.201 94.7842 119.412L101.32 123.399C101.667 123.608 102.095 123.608 102.441 123.399L108.978 119.412C109.324 119.201 109.538 118.808 109.538 118.387V104.14L109.62 104.091L114.12 101.347L118.704 104.14V109.73L114.12 112.524L111.101 110.684V114.433L113.559 115.932C113.906 116.142 114.336 116.142 114.681 115.932H114.683Z" fill="url(#paint1_linear_1864_2897)"/>
<defs>
<linearGradient id="paint0_linear_1864_2897" x1="81.6089" y1="127.962" x2="134.859" y2="100.583" gradientUnits="userSpaceOnUse">
<stop stop-color="#A726C1"/>
<stop offset="0.88" stop-color="#803BDF"/>
<stop offset="1" stop-color="#7B3FE4"/>
</linearGradient>
<linearGradient id="paint1_linear_1864_2897" x1="108.001" y1="97.7781" x2="108.001" y2="149.778" gradientUnits="userSpaceOnUse">
<stop stop-color="white"/>
<stop offset="1" stop-color="white" stop-opacity="0"/>
</linearGradient>
</defs>
</svg>
