<svg width="24" height="24" viewBox="0 0 24 24" fill="none" xmlns="http://www.w3.org/2000/svg">
<g clip-path="url(#clip0_1864_3171)">
<path d="M11.9985 0C5.37301 0 6.92471e-06 5.394 6.92471e-06 12.048C-0.00270001 14.5733 0.788278 17.0356 2.26115 19.0869C3.73403 21.1383 5.81432 22.6748 8.20801 23.4795C8.80801 23.5905 9.02701 23.2185 9.02701 22.899C9.02701 22.6125 9.01651 21.855 9.01051 20.85C5.67301 21.5775 4.96801 19.2345 4.96801 19.2345C4.42351 17.8425 3.63601 17.472 3.63601 17.472C2.54551 16.725 3.71701 16.74 3.71701 16.74C4.92151 16.8255 5.55451 17.982 5.55451 17.982C6.62551 19.8225 8.36401 19.2915 9.04801 18.9825C9.15601 18.204 9.46651 17.673 9.81001 17.3715C7.14601 17.067 4.34401 16.0335 4.34401 11.418C4.34401 10.1025 4.81201 9.027 5.58001 8.184C5.45551 7.8795 5.04451 6.654 5.69701 4.9965C5.69701 4.9965 6.70501 4.6725 8.99701 6.231C9.97613 5.96342 10.9865 5.82723 12.0015 5.826C13.0166 5.82802 14.0269 5.96471 15.006 6.2325C17.2965 4.674 18.303 4.998 18.303 4.998C18.957 6.657 18.546 7.881 18.423 8.1855C19.1925 9.0285 19.656 10.104 19.656 11.4195C19.656 16.047 16.851 17.0655 14.178 17.364C14.6085 17.736 14.9925 18.471 14.9925 19.5945C14.9925 21.2055 14.9775 22.5045 14.9775 22.899C14.9775 23.2215 15.1935 23.5965 15.8025 23.478C18.1939 22.6714 20.2716 21.1343 21.7424 19.0835C23.2132 17.0326 24.0029 14.5717 24 12.048C24 5.394 18.627 0 11.9985 0Z" fill="black"/>
</g>
<defs>
<clipPath id="clip0_1864_3171">
<rect width="24" height="24" fill="white"/>
</clipPath>
</defs>
</svg>
