<?xml version="1.0" encoding="UTF-8" standalone="no"?>
<svg
   width="450"
   height="255"
   viewBox="0 0 450 255"
   fill="none"
   version="1.1"
   id="svg61"
   xmlns="http://www.w3.org/2000/svg"
   xmlns:svg="http://www.w3.org/2000/svg">
  <rect
     x="68"
     y="181"
     width="115"
     height="49"
     rx="5"
     fill="#f2f2f2"
     stroke="#808080"
     stroke-linejoin="round"
     id="rect2" />
  <path
     d="M 368,26 H 248 c -2.761,0 -5,2.2386 -5,5 v 40 c 0,2.7614 2.239,5 5,5 h 120 z"
     fill="#f2f2f2"
     stroke="#808080"
     stroke-linejoin="round"
     id="path2" />
  <path
     d="m 73.62,63 c -1.86,0 -2.94,-1.02 -2.94,-2.88 V 23.88 c 0,-1.86 1.08,-2.88 2.94,-2.88 h 3.72 c 1.86,0 2.88,1.02 2.88,2.88 V 54.96 H 96.3 c 1.86,0 2.94,1.02 2.94,2.88 v 2.28 C 99.24,61.98 98.16,63 96.3,63 Z M 96.9877,48.78 c -0.96,0 -1.56,-0.54 -1.56,-1.5 v -5.16 c 0,-0.96 0.6,-1.5 1.56,-1.5 h 18.4203 c 0.96,0 1.5,0.54 1.5,1.5 v 5.16 c 0,0.96 -0.54,1.5 -1.5,1.5 z M 120.62,63 c -1.74,0 -2.82,-0.9 -3.12,-2.64 l -0.12,-0.78 c -0.24,-1.5 0.18,-2.64 1.38,-3.72 l 14.52,-13.14 c 3.24,-2.82 5.64,-5.52 5.64,-9 0,-3.6 -2.82,-5.7 -6.6,-5.7 -3.6,0 -5.34,1.5 -6.12,3.24 -0.78,1.62 -1.38,2.52 -3.12,2.52 h -3.3 c -1.92,0 -3.12,-1.14 -2.7,-3 1.14,-5.28 5.52,-10.44 15.42,-10.44 9.18,0 15.42,5.22 15.42,13.56 0,6.06 -3.78,10.56 -7.8,13.98 l -9.06,7.68 0.06,0.24 c 2.34,-0.24 8.22,-0.36 8.7,-0.36 h 7.02 c 1.86,0 2.88,1.08 2.88,2.94 v 1.74 c 0,1.86 -1.02,2.88 -2.88,2.88 z"
     fill="#f2f2f2"
     id="path3" />
  <path
     d="m 80.22,54.96 h -0.5 v 0.5 h 0.5 z m -6.6,7.54 c -0.8415,0 -1.4362,-0.2297 -1.8193,-0.6014 C 71.4199,61.5292 71.18,60.9534 71.18,60.12 h -1 c 0,1.0266 0.3001,1.8908 0.9243,2.4964 C 71.7262,63.2197 72.6015,63.5 73.62,63.5 Z M 71.18,60.12 V 23.88 h -1 v 36.24 z m 0,-36.24 c 0,-0.8334 0.2399,-1.4092 0.6207,-1.7786 C 72.1838,21.7297 72.7785,21.5 73.62,21.5 v -1 c -1.0185,0 -1.8938,0.2803 -2.5157,0.8836 C 70.4801,21.9892 70.18,22.8534 70.18,23.88 Z m 2.44,-2.38 h 3.72 v -1 h -3.72 z m 3.72,0 c 0.8412,0 1.4172,0.2293 1.7839,0.5961 0.3668,0.3667 0.5961,0.9427 0.5961,1.7839 h 1 c 0,-1.0188 -0.2807,-1.8828 -0.8889,-2.4911 C 79.2228,20.7807 78.3588,20.5 77.34,20.5 Z m 2.38,2.38 v 31.08 h 1 V 23.88 Z m 0.5,31.58 H 96.3 v -1 H 80.22 Z m 16.08,0 c 0.8415,0 1.4362,0.2297 1.8193,0.6014 0.3808,0.3694 0.6207,0.9452 0.6207,1.7786 h 1 c 0,-1.0266 -0.3001,-1.8908 -0.9243,-2.4964 C 98.1938,54.7403 97.3185,54.46 96.3,54.46 Z m 2.44,2.38 v 2.28 h 1 v -2.28 z m 0,2.28 c 0,0.8334 -0.2399,1.4092 -0.6207,1.7786 C 97.7362,62.2703 97.1415,62.5 96.3,62.5 v 1 c 1.0185,0 1.8938,-0.2803 2.5157,-0.8836 C 99.4399,62.0108 99.74,61.1466 99.74,60.12 Z M 96.3,62.5 H 73.62 v 1 H 96.3 Z m 0.6877,-14.22 c -0.3888,0 -0.643,-0.1083 -0.7967,-0.2535 -0.1497,-0.1413 -0.2633,-0.3733 -0.2633,-0.7465 h -1 c 0,0.5868 0.1863,1.1048 0.5766,1.4735 0.3863,0.3648 0.9121,0.5265 1.4834,0.5265 z m -1.06,-1 v -5.16 h -1 v 5.16 z m 0,-5.16 c 0,-0.3732 0.1136,-0.6052 0.2633,-0.7465 0.1537,-0.1452 0.4079,-0.2535 0.7967,-0.2535 v -1 c -0.5713,0 -1.0971,0.1617 -1.4834,0.5265 -0.3903,0.3687 -0.5766,0.8867 -0.5766,1.4735 z m 1.06,-1 h 18.4203 v -1 H 96.9877 Z m 18.4203,0 c 0.388,0 0.62,0.1076 0.756,0.2436 0.136,0.1359 0.244,0.3684 0.244,0.7564 h 1 c 0,-0.572 -0.163,-1.0895 -0.537,-1.4636 -0.374,-0.374 -0.891,-0.5364 -1.463,-0.5364 z m 1,1 v 5.16 h 1 v -5.16 z m 0,5.16 c 0,0.388 -0.108,0.6205 -0.244,0.7564 -0.136,0.136 -0.368,0.2436 -0.756,0.2436 v 1 c 0.572,0 1.089,-0.1624 1.463,-0.5364 0.374,-0.3741 0.537,-0.8916 0.537,-1.4636 z m -1,1 H 96.9877 v 1 h 18.4203 z m 2.092,12.08 -0.495,0.076 0.002,0.009 z m -0.12,-0.78 0.494,-0.076 -10e-4,-0.003 z m 1.38,-3.72 0.334,0.3716 0.001,-9e-4 z m 14.52,-13.14 -0.329,-0.3772 -0.007,0.0065 z m -7.08,-11.46 0.45,0.217 0.006,-0.0125 z m -9.12,-0.48 0.487,0.1101 0.001,-0.0046 z m 23.04,17.1 0.323,0.3814 10e-4,-6e-4 z m -9.06,7.68 -0.324,-0.3814 -0.237,0.201 0.076,0.3017 z m 0.06,0.24 -0.485,0.1213 0.105,0.4203 0.431,-0.0442 z m -10.5,6.7 c -0.784,0 -1.365,-0.2015 -1.778,-0.5498 -0.413,-0.3484 -0.714,-0.89 -0.85,-1.6752 l -0.985,0.17 c 0.165,0.9548 0.554,1.7332 1.19,2.2698 0.637,0.5367 1.466,0.7852 2.423,0.7852 z m -2.626,-2.216 -0.12,-0.78 -0.988,0.152 0.12,0.78 z m -0.121,-0.783 c -0.109,-0.6831 -0.064,-1.2536 0.126,-1.7648 0.19,-0.5132 0.539,-1.0038 1.095,-1.5046 l -0.669,-0.7432 c -0.643,0.5792 -1.104,1.1986 -1.364,1.9004 -0.261,0.7038 -0.306,1.4533 -0.175,2.2702 z m 1.222,-3.2703 14.52,-13.14 -0.671,-0.7414 -14.52,13.14 z m 14.513,-13.1335 c 3.234,-2.8153 5.812,-5.6497 5.812,-9.3772 h -1 c 0,3.2325 -2.223,5.7981 -5.469,8.6228 z M 139.42,33.72 c 0,-1.9427 -0.767,-3.5112 -2.064,-4.5851 -1.287,-1.0655 -3.058,-1.6149 -5.036,-1.6149 v 1 c 1.802,0 3.33,0.5006 4.398,1.3851 1.058,0.8761 1.702,2.1575 1.702,3.8149 z m -7.1,-6.2 c -1.869,0 -3.299,0.3897 -4.376,1.0393 -1.08,0.6514 -1.774,1.545 -2.201,2.4962 l 0.913,0.409 c 0.354,-0.7888 0.92,-1.5152 1.804,-2.0488 0.888,-0.5354 2.129,-0.8957 3.86,-0.8957 z m -6.571,3.5231 c -0.393,0.8156 -0.702,1.3618 -1.088,1.7163 -0.355,0.3266 -0.811,0.5206 -1.581,0.5206 v 1 c 0.969,0 1.683,-0.256 2.258,-0.7844 0.544,-0.5005 0.925,-1.2143 1.312,-2.0187 z M 123.08,33.28 h -3.3 v 1 h 3.3 z m -3.3,0 c -0.87,0 -1.499,-0.2579 -1.864,-0.6453 -0.352,-0.3733 -0.53,-0.943 -0.349,-1.7446 l -0.975,-0.2202 c -0.239,1.0584 -0.027,1.9887 0.596,2.6504 0.61,0.6476 1.541,0.9597 2.592,0.9597 z m -2.212,-2.3945 c 0.55,-2.5433 1.875,-5.0448 4.246,-6.9128 2.37,-1.8671 5.824,-3.1327 10.686,-3.1327 v -1 c -5.039,0 -8.725,1.3144 -11.305,3.3473 -2.579,2.032 -4.013,4.7505 -4.604,7.4872 z M 132.5,20.84 c 4.498,0 8.227,1.2785 10.825,3.5303 2.589,2.2453 4.095,5.4933 4.095,9.5297 h 1 c 0,-4.3036 -1.615,-7.8356 -4.44,-10.2853 C 141.162,21.1715 137.182,19.84 132.5,19.84 Z m 14.92,13.06 c 0,5.8333 -3.635,10.2057 -7.624,13.5992 l 0.648,0.7616 c 4.051,-3.4465 7.976,-8.0741 7.976,-14.3608 z m -7.624,13.5986 -9.06,7.68 0.647,0.7628 9.06,-7.68 z m -9.221,8.1827 0.06,0.24 0.97,-0.2426 -0.06,-0.24 z m 0.596,0.6161 c 2.313,-0.2373 8.171,-0.3574 8.649,-0.3574 v -1 c -0.483,0 -6.384,0.1199 -8.751,0.3626 z M 139.82,55.94 h 7.02 v -1 h -7.02 z m 7.02,0 c 0.833,0 1.409,0.2399 1.778,0.6207 0.372,0.3831 0.602,0.9778 0.602,1.8193 h 1 c 0,-1.0185 -0.281,-1.8938 -0.884,-2.5157 -0.606,-0.6242 -1.47,-0.9243 -2.496,-0.9243 z m 2.38,2.44 v 1.74 h 1 v -1.74 z m 0,1.74 c 0,0.8412 -0.23,1.4172 -0.596,1.7839 -0.367,0.3668 -0.943,0.5961 -1.784,0.5961 v 1 c 1.018,0 1.882,-0.2807 2.491,-0.8889 0.608,-0.6083 0.889,-1.4723 0.889,-2.4911 z m -2.38,2.38 h -26.22 v 1 h 26.22 z"
     fill="#808080"
     id="path4" />
  <path
     d="m 408,31 c 0,-2.7614 -2.239,-5 -5,-5 H 283 v 50 h 107.929 c 1.326,0 2.598,0.5268 3.535,1.4645 L 408,91 Z"
     fill="#ffffff"
     stroke="#808080"
     stroke-linejoin="round"
     id="path5" />
  <path
     d="m 332.631,44.0591 12.316,-7.8948 12.315,7.8948 -12.315,7.8948 z"
     fill="#ffffff"
     stroke="#808080"
     stroke-linejoin="round"
     id="path6" />
  <path
     d="M 344.947,66.1645 332.631,58.7012 V 44.0591 l 12.316,7.4632 z"
     fill="#f2f2f2"
     stroke="#808080"
     stroke-linejoin="round"
     id="path7" />
  <path
     d="m 344.947,66.1645 12.316,-7.4633 V 44.0591 l -12.316,7.4632 z"
     fill="#ffffff"
     stroke="#808080"
     stroke-linejoin="round"
     id="path8" />
  <path
     d="M 293,43.9657 306.542,36 l 13.541,7.9657 -13.541,7.9657 z"
     fill="#ffffff"
     stroke="#808080"
     stroke-linejoin="round"
     id="path9" />
  <path
     d="M 306.542,66.2695 293,58.7392 V 43.9656 l 13.542,7.5302 z"
     fill="#f2f2f2"
     stroke="#808080"
     stroke-linejoin="round"
     id="path10" />
  <path
     d="m 306.541,66.2695 13.542,-7.5303 V 43.9656 l -13.542,7.5302 z"
     fill="#ffffff"
     stroke="#808080"
     stroke-linejoin="round"
     id="path11" />
  <path
     d="M 369.917,43.9657 383.459,36 397,43.9657 383.459,51.9314 Z"
     fill="#ffffff"
     stroke="#808080"
     stroke-linejoin="round"
     id="path12" />
  <path
     d="M 383.459,66.2695 369.917,58.7392 V 43.9656 l 13.542,7.5302 z"
     fill="#f2f2f2"
     stroke="#808080"
     stroke-linejoin="round"
     id="path13" />
  <path
     d="M 383.458,66.2695 397,58.7392 V 43.9656 l -13.542,7.5302 z"
     fill="#ffffff"
     stroke="#808080"
     stroke-linejoin="round"
     id="path14" />
  <path
     d="m 208,175 c 0,-2.761 -2.239,-5 -5,-5 H 88 c -2.7614,0 -5,2.239 -5,5 v 35 c 0,2.761 2.2386,5 5,5 h 105 l 15,-15 z"
     fill="#ffffff"
     stroke="#808080"
     stroke-linejoin="round"
     id="path15" />
  <path
     d="m 193,200 h 15 l -15,15 z"
     fill="#ffffff"
     stroke="#808080"
     stroke-linejoin="round"
     id="path16" />
  <path
     d="m 220.354,66.3536 c -0.196,0.1952 -0.512,0.1952 -0.708,0 l -3.182,-3.182 c -0.195,-0.1953 -0.195,-0.5119 0,-0.7071 0.196,-0.1953 0.512,-0.1953 0.708,0 l 2.828,2.8284 2.828,-2.8284 c 0.196,-0.1953 0.512,-0.1953 0.708,0 0.195,0.1952 0.195,0.5118 0,0.7071 z M 170.5,62.5 c 0,0.2761 -0.224,0.5 -0.5,0.5 -0.276,0 -0.5,-0.2239 -0.5,-0.5 z m 15,-19 v 40 h -1 v -40 z m 14,40 v -50 h 1 v 50 z m 8,-58 h 5 v 1 h -5 z m 13,8 V 66 h -1 V 33.5 Z m -50,10 v 19 h -1 v -19 z m 7,-7 c -3.866,0 -7,3.134 -7,7 h -1 c 0,-4.4183 3.582,-8 8,-8 z m 35,-11 c 4.418,0 8,3.5817 8,8 h -1 c 0,-3.866 -3.134,-7 -7,-7 z m -13,8 c 0,-4.4183 3.582,-8 8,-8 v 1 c -3.866,0 -7,3.134 -7,7 z m -7,57 c 3.866,0 7,-3.134 7,-7 h 1 c 0,4.4183 -3.582,8 -8,8 z m -7,-7 c 0,3.866 3.134,7 7,7 v 1 c -4.418,0 -8,-3.5817 -8,-8 z m -1,-40 c 0,-3.866 -3.134,-7 -7,-7 v -1 c 4.418,0 8,3.5817 8,8 z"
     fill="#808080"
     id="path17" />
  <circle
     cx="219.5"
     cy="83.5"
     r="7.5"
     fill="#f2f2f2"
     stroke="#808080"
     stroke-linejoin="round"
     id="circle17" />
  <path
     d="m 93,185.895 12.316,-7.895 12.315,7.895 -12.315,7.895 z"
     fill="#ffffff"
     stroke="#808080"
     stroke-linejoin="round"
     id="path18" />
  <path
     d="M 105.316,208 93,200.537 v -14.642 l 12.316,7.463 z"
     fill="#f2f2f2"
     stroke="#808080"
     stroke-linejoin="round"
     id="path19" />
  <path
     d="m 105.316,208 12.316,-7.463 v -14.642 l -12.316,7.463 z"
     fill="#ffffff"
     stroke="#808080"
     stroke-linejoin="round"
     id="path20" />
  <path
     d="m 127.631,185.895 12.316,-7.895 12.315,7.895 -12.315,7.895 z"
     fill="#ffffff"
     stroke="#808080"
     stroke-linejoin="round"
     id="path21" />
  <path
     d="m 139.947,208 -12.316,-7.463 v -14.642 l 12.316,7.463 z"
     fill="#f2f2f2"
     stroke="#808080"
     stroke-linejoin="round"
     id="path22" />
  <path
     d="m 139.947,208 12.316,-7.463 v -14.642 l -12.316,7.463 z"
     fill="#ffffff"
     stroke="#808080"
     stroke-linejoin="round"
     id="path23" />
  <path
     d="m 162.263,185.895 12.315,-7.895 12.316,7.895 -12.316,7.895 z"
     fill="#ffffff"
     stroke="#808080"
     stroke-linejoin="round"
     id="path24" />
  <path
     d="m 174.578,208 -12.315,-7.463 v -14.642 l 12.315,7.463 z"
     fill="#f2f2f2"
     stroke="#808080"
     stroke-linejoin="round"
     id="path25" />
  <path
     d="m 174.579,208 12.316,-7.463 v -14.642 l -12.316,7.463 z"
     fill="#ffffff"
     stroke="#808080"
     stroke-linejoin="round"
     id="path26" />
  <path
     d="m 234.5,200 c 0,-0.276 -0.224,-0.5 -0.5,-0.5 -0.276,0 -0.5,0.224 -0.5,0.5 z m 44.854,-0.354 c -0.196,-0.195 -0.512,-0.195 -0.708,0 l -3.182,3.182 c -0.195,0.196 -0.195,0.512 0,0.708 0.196,0.195 0.512,0.195 0.708,0 l 2.828,-2.829 2.828,2.829 c 0.196,0.195 0.512,0.195 0.708,0 0.195,-0.196 0.195,-0.512 0,-0.708 z M 233.5,200 v 27.5 h 1 V 200 Z m 16,27.5 v -20 h -1 v 20 z m 14,-20 v 20 h 1 v -20 z m 16,20 V 200 h -1 v 27.5 z m -8,8 c 4.418,0 8,-3.582 8,-8 h -1 c 0,3.866 -3.134,7 -7,7 z m -8,-8 c 0,4.418 3.582,8 8,8 v -1 c -3.866,0 -7,-3.134 -7,-7 z m -7,-27 c 3.866,0 7,3.134 7,7 h 1 c 0,-4.418 -3.582,-8 -8,-8 z m -7,7 c 0,-3.866 3.134,-7 7,-7 v -1 c -4.418,0 -8,3.582 -8,8 z m -8,28 c 4.418,0 8,-3.582 8,-8 h -1 c 0,3.866 -3.134,7 -7,7 z m -8,-8 c 0,4.418 3.582,8 8,8 v -1 c -3.866,0 -7,-3.134 -7,-7 z"
     fill="#808080"
     id="path27" />
  <circle
     cx="-177.5"
     cy="230.5"
     r="7.5"
     transform="rotate(-90)"
     fill="#f2f2f2"
     stroke="#808080"
     stroke-linejoin="round"
     id="circle27" />
  <path
     fill-rule="evenodd"
     clip-rule="evenodd"
     d="m 254.303,182.803 2.197,2.197 2.197,-2.197 h 3.106 v -3.106 L 264,177.5 l -2.197,-2.197 v -3.106 h -3.106 L 256.5,170 l -2.197,2.197 h -3.106 v 3.106 L 249,177.5 l 2.197,2.197 v 3.106 z"
     fill="#ffffff"
     id="path28" />
  <path
     d="m 256.5,185 -0.354,0.354 c 0.196,0.195 0.512,0.195 0.708,0 z m -2.197,-2.197 0.354,-0.353 c -0.094,-0.094 -0.221,-0.147 -0.354,-0.147 z m 4.394,0 v -0.5 c -0.133,0 -0.26,0.053 -0.354,0.147 z m 3.106,0 v 0.5 c 0.276,0 0.5,-0.224 0.5,-0.5 z m 0,-3.106 -0.353,-0.354 c -0.094,0.094 -0.147,0.221 -0.147,0.354 z M 264,177.5 l 0.354,0.354 c 0.195,-0.196 0.195,-0.512 0,-0.708 z m -2.197,-2.197 h -0.5 c 0,0.133 0.053,0.26 0.147,0.354 z m 0,-3.106 h 0.5 c 0,-0.276 -0.224,-0.5 -0.5,-0.5 z m -3.106,0 -0.354,0.353 c 0.094,0.094 0.221,0.147 0.354,0.147 z M 256.5,170 l 0.354,-0.354 c -0.196,-0.195 -0.512,-0.195 -0.708,0 z m -2.197,2.197 v 0.5 c 0.133,0 0.26,-0.053 0.354,-0.147 z m -3.106,0 v -0.5 c -0.133,0 -0.26,0.052 -0.354,0.146 -0.094,0.094 -0.146,0.221 -0.146,0.354 z m 0,3.106 0.353,0.354 c 0.094,-0.094 0.147,-0.221 0.147,-0.354 z M 249,177.5 l -0.354,-0.354 c -0.093,0.094 -0.146,0.221 -0.146,0.354 0,0.133 0.053,0.26 0.146,0.354 z m 2.197,2.197 h 0.5 c 0,-0.133 -0.053,-0.26 -0.147,-0.354 z m 0,3.106 h -0.5 c 0,0.133 0.052,0.26 0.146,0.354 0.094,0.094 0.221,0.146 0.354,0.146 z m 5.657,1.843 -2.197,-2.196 -0.707,0.707 2.196,2.197 z m 1.489,-2.196 -2.197,2.196 0.708,0.708 2.196,-2.197 z m 3.46,-0.147 h -3.106 v 1 h 3.106 z m -0.5,-2.606 v 3.106 h 1 v -3.106 z m 2.343,-2.551 -2.196,2.197 0.707,0.707 2.197,-2.196 z m -2.196,-1.489 2.196,2.197 0.708,-0.708 -2.197,-2.196 z m -0.147,-3.46 v 3.106 h 1 v -3.106 z m -2.606,0.5 h 3.106 v -1 h -3.106 z m -2.551,-2.343 2.197,2.196 0.707,-0.707 -2.196,-2.197 z m -1.489,2.196 2.197,-2.196 -0.708,-0.708 -2.196,2.197 z m -3.46,0.147 h 3.106 v -1 h -3.106 z m 0.5,2.606 v -3.106 h -1 v 3.106 z m -2.343,2.551 2.196,-2.197 -0.707,-0.707 -2.197,2.196 z m 2.196,1.489 -2.196,-2.197 -0.708,0.708 2.197,2.196 z m 0.147,3.46 v -3.106 h -1 v 3.106 z m 2.606,-0.5 h -3.106 v 1 h 3.106 z"
     fill="#808080"
     id="path29" />
  <path
     fill-rule="evenodd"
     clip-rule="evenodd"
     d="m 398.303,232.803 2.197,2.197 2.197,-2.197 h 3.106 v -3.106 L 408,227.5 l -2.197,-2.197 v -3.106 h -3.106 L 400.5,220 l -2.197,2.197 h -3.106 v 3.106 L 393,227.5 l 2.197,2.197 v 3.106 z"
     fill="#f2f2f2"
     id="path30" />
  <path
     d="m 400.5,235 -0.354,0.354 c 0.196,0.195 0.512,0.195 0.708,0 z m -2.197,-2.197 0.354,-0.353 c -0.094,-0.094 -0.221,-0.147 -0.354,-0.147 z m 4.394,0 v -0.5 c -0.133,0 -0.26,0.053 -0.354,0.147 z m 3.106,0 v 0.5 c 0.276,0 0.5,-0.224 0.5,-0.5 z m 0,-3.106 -0.353,-0.354 c -0.094,0.094 -0.147,0.221 -0.147,0.354 z M 408,227.5 l 0.354,0.354 c 0.195,-0.196 0.195,-0.512 0,-0.708 z m -2.197,-2.197 h -0.5 c 0,0.133 0.053,0.26 0.147,0.354 z m 0,-3.106 h 0.5 c 0,-0.276 -0.224,-0.5 -0.5,-0.5 z m -3.106,0 -0.354,0.353 c 0.094,0.094 0.221,0.147 0.354,0.147 z M 400.5,220 l 0.354,-0.354 c -0.196,-0.195 -0.512,-0.195 -0.708,0 z m -2.197,2.197 v 0.5 c 0.133,0 0.26,-0.053 0.354,-0.147 z m -3.106,0 v -0.5 c -0.276,0 -0.5,0.224 -0.5,0.5 z m 0,3.106 0.353,0.354 c 0.094,-0.094 0.147,-0.221 0.147,-0.354 z M 393,227.5 l -0.354,-0.354 c -0.093,0.094 -0.146,0.221 -0.146,0.354 0,0.133 0.053,0.26 0.146,0.354 z m 2.197,2.197 h 0.5 c 0,-0.133 -0.053,-0.26 -0.147,-0.354 z m 0,3.106 h -0.5 c 0,0.276 0.224,0.5 0.5,0.5 z m 5.657,1.843 -2.197,-2.196 -0.707,0.707 2.196,2.197 z m 1.489,-2.196 -2.197,2.196 0.708,0.708 2.196,-2.197 z m 3.46,-0.147 h -3.106 v 1 h 3.106 z m -0.5,-2.606 v 3.106 h 1 v -3.106 z m 2.343,-2.551 -2.196,2.197 0.707,0.707 2.197,-2.196 z m -2.196,-1.489 2.196,2.197 0.708,-0.708 -2.197,-2.196 z m -0.147,-3.46 v 3.106 h 1 v -3.106 z m -2.606,0.5 h 3.106 v -1 h -3.106 z m -2.551,-2.343 2.197,2.196 0.707,-0.707 -2.196,-2.197 z m -1.489,2.196 2.197,-2.196 -0.708,-0.708 -2.196,2.197 z m -3.46,0.147 h 3.106 v -1 h -3.106 z m 0.5,2.606 v -3.106 h -1 v 3.106 z m -2.343,2.551 2.196,-2.197 -0.707,-0.707 -2.197,2.196 z m 2.196,1.489 -2.196,-2.197 -0.708,0.708 2.197,2.196 z m 0.147,3.46 v -3.106 h -1 v 3.106 z m 2.606,-0.5 h -3.106 v 1 h 3.106 z"
     fill="#808080"
     id="path31" />
  <path
     fill-rule="evenodd"
     clip-rule="evenodd"
     d="m 397.983,188.015 c 0.011,-0.17 0.017,-0.342 0.017,-0.515 0,-4.142 -3.358,-7.5 -7.5,-7.5 -4.142,0 -7.5,3.358 -7.5,7.5 0,0.168 0.006,0.335 0.016,0.5 H 382.5 c -4.142,0 -7.5,3.358 -7.5,7.5 0,4.142 3.358,7.5 7.5,7.5 h 15 c 4.142,0 7.5,-3.358 7.5,-7.5 0,-3.98 -3.1,-7.236 -7.017,-7.485 z"
     fill="#ffffff"
     id="path32" />
  <path
     d="m 397.983,188.015 -0.499,-0.034 c -0.009,0.133 0.035,0.264 0.123,0.364 0.087,0.1 0.211,0.161 0.344,0.169 z M 383.016,188 v 0.5 c 0.139,0 0.271,-0.057 0.365,-0.158 0.095,-0.101 0.143,-0.237 0.134,-0.375 z m 14.484,-0.5 c 0,0.162 -0.005,0.322 -0.016,0.481 l 0.997,0.068 c 0.013,-0.181 0.019,-0.365 0.019,-0.549 z m -7,-7 c 3.866,0 7,3.134 7,7 h 1 c 0,-4.418 -3.582,-8 -8,-8 z m -7,7 c 0,-3.866 3.134,-7 7,-7 v -1 c -4.418,0 -8,3.582 -8,8 z m 0.015,0.467 c -0.01,-0.154 -0.015,-0.31 -0.015,-0.467 h -1 c 0,0.179 0.006,0.357 0.017,0.533 z M 382.5,188.5 h 0.516 v -1 H 382.5 Z m -7,7 c 0,-3.866 3.134,-7 7,-7 v -1 c -4.418,0 -8,3.582 -8,8 z m 7,7 c -3.866,0 -7,-3.134 -7,-7 h -1 c 0,4.418 3.582,8 8,8 z m 15,0 h -15 v 1 h 15 z m 7,-7 c 0,3.866 -3.134,7 -7,7 v 1 c 4.418,0 8,-3.582 8,-8 z m -6.549,-6.986 c 3.656,0.232 6.549,3.272 6.549,6.986 h 1 c 0,-4.246 -3.307,-7.718 -7.486,-7.984 z"
     fill="#808080"
     id="path33" />
  <path
     d="M 253,53.5 V 38 h 20 V 53.5 L 263,63 Z"
     fill="#ffffff"
     stroke="#808080"
     stroke-linecap="round"
     stroke-linejoin="round"
     id="path34" />
  <circle
     cx="263"
     cy="48"
     r="4"
     fill="#f2f2f2"
     stroke="#808080"
     stroke-linejoin="round"
     id="circle34" />
  <rect
     x="70"
     y="100"
     width="49"
     height="53"
     rx="5"
     fill="#f2f2f2"
     stroke="#808080"
     stroke-linejoin="round"
     id="rect34" />
  <path
     d="m 42,102 c 0,-2.7614 2.2386,-5 5,-5 h 55 c 2.761,0 5,2.2386 5,5 v 50 c 0,2.761 -2.239,5 -5,5 H 57 L 42,142 Z"
     fill="#ffffff"
     stroke="#808080"
     stroke-linejoin="round"
     id="path35" />
  <path
     d="M 57,142 H 42 l 15,15 z"
     fill="#f2f2f2"
     stroke="#808080"
     stroke-linejoin="round"
     id="path36" />
  <path
     d="m 69.2727,127 h -9.5454 v -9.524 H 54 L 64.5,107 75,117.476 h -5.7273 z"
     fill="#f2f2f2"
     stroke="#808080"
     stroke-linecap="round"
     stroke-linejoin="round"
     id="path37" />
  <path
     d="m 89.5455,127 h -9.091 v 9.524 H 75 L 85,147 95,136.524 h -5.4545 z"
     fill="#f2f2f2"
     stroke="#808080"
     stroke-linecap="round"
     stroke-linejoin="round"
     id="path38" />
  <circle
     cx="85"
     cy="113"
     r="4"
     fill="#f2f2f2"
     stroke="#808080"
     stroke-linejoin="round"
     id="circle38" />
  <circle
     cx="49"
     cy="77"
     r="4"
     fill="#f2f2f2"
     stroke="#808080"
     stroke-linejoin="round"
     id="circle39" />
  <circle
     cx="-49"
     cy="-175"
     r="4"
     transform="scale(-1)"
     fill="#f2f2f2"
     stroke="#808080"
     stroke-linejoin="round"
     id="circle40" />
  <path
     fill-rule="evenodd"
     clip-rule="evenodd"
     d="m 353,170 h -10 v 10 c 0,2.05 1.234,3.812 3,4.584 V 205 h 4 v -20.416 c 1.766,-0.772 3,-2.534 3,-4.584 z"
     fill="#f2f2f2"
     id="path40" />
  <path
     d="m 343,170 v -0.5 c -0.276,0 -0.5,0.224 -0.5,0.5 z m 10,0 h 0.5 c 0,-0.276 -0.224,-0.5 -0.5,-0.5 z m -7,14.584 h 0.5 c 0,-0.199 -0.118,-0.379 -0.3,-0.458 z M 346,205 h -0.5 c 0,0.276 0.224,0.5 0.5,0.5 z m 4,0 v 0.5 c 0.276,0 0.5,-0.224 0.5,-0.5 z m 0,-20.416 -0.2,-0.458 c -0.182,0.079 -0.3,0.259 -0.3,0.458 z M 343,170.5 h 10 v -1 h -10 z m 0.5,9.5 v -10 h -1 v 10 z m 2.7,4.126 c -1.59,-0.695 -2.7,-2.281 -2.7,-4.126 h -1 c 0,2.256 1.358,4.194 3.3,5.042 z m -0.7,0.458 V 205 h 1 V 184.584 Z M 346,205.5 h 4 v -1 h -4 z m 4.5,-0.5 v -20.416 h -1 V 205 Z m 2,-25 c 0,1.845 -1.11,3.431 -2.7,4.126 l 0.4,0.916 c 1.942,-0.848 3.3,-2.786 3.3,-5.042 z m 0,-10 v 10 h 1 v -10 z"
     fill="#808080"
     id="path41" />
  <path
     fill-rule="evenodd"
     clip-rule="evenodd"
     d="m 358,200 h -20 v 7 c 1.657,0 3,1.343 3,3 0,1.657 -1.343,3 -3,3 v 12 c 0,5.523 4.477,10 10,10 5.523,0 10,-4.477 10,-10 v -12 c -1.657,0 -3,-1.343 -3,-3 0,-1.657 1.343,-3 3,-3 z"
     fill="#ffffff"
     id="path42" />
  <path
     d="m 338,200 v -0.5 c -0.276,0 -0.5,0.224 -0.5,0.5 z m 20,0 h 0.5 c 0,-0.276 -0.224,-0.5 -0.5,-0.5 z m -20,7 h -0.5 c 0,0.276 0.224,0.5 0.5,0.5 z m 0,6 v -0.5 c -0.276,0 -0.5,0.224 -0.5,0.5 z m 20,0 h 0.5 c 0,-0.276 -0.224,-0.5 -0.5,-0.5 z m 0,-6 v 0.5 c 0.276,0 0.5,-0.224 0.5,-0.5 z m -20,-6.5 h 20 v -1 h -20 z m 0.5,6.5 v -7 h -1 v 7 z m 3,3 c 0,-1.933 -1.567,-3.5 -3.5,-3.5 v 1 c 1.381,0 2.5,1.119 2.5,2.5 z m -3.5,3.5 c 1.933,0 3.5,-1.567 3.5,-3.5 h -1 c 0,1.381 -1.119,2.5 -2.5,2.5 z m 0.5,11.5 v -12 h -1 v 12 z m 9.5,9.5 c -5.247,0 -9.5,-4.253 -9.5,-9.5 h -1 c 0,5.799 4.701,10.5 10.5,10.5 z m 9.5,-9.5 c 0,5.247 -4.253,9.5 -9.5,9.5 v 1 c 5.799,0 10.5,-4.701 10.5,-10.5 z m 0,-12 v 12 h 1 v -12 z m -3,-3 c 0,1.933 1.567,3.5 3.5,3.5 v -1 c -1.381,0 -2.5,-1.119 -2.5,-2.5 z m 3.5,-3.5 c -1.933,0 -3.5,1.567 -3.5,3.5 h 1 c 0,-1.381 1.119,-2.5 2.5,-2.5 z m -0.5,-6.5 v 7 h 1 v -7 z"
     fill="#808080"
     id="path43" />
  <path
     d="M 220,230 H 193"
     stroke="#808080"
     stroke-width="2"
     stroke-linecap="round"
     stroke-linejoin="round"
     stroke-dasharray="0, 11"
     id="path44" />
  <path
     d="M 49,21 V 59"
     stroke="#808080"
     stroke-width="2"
     stroke-linecap="round"
     stroke-linejoin="round"
     stroke-dasharray="0, 11"
     id="path45" />
  <path
     d="M 146,77 H 66"
     stroke="#808080"
     stroke-width="2"
     stroke-linecap="round"
     stroke-linejoin="round"
     stroke-dasharray="0, 11"
     id="path46" />
  <path
     d="M 49,231 V 188"
     stroke="#808080"
     stroke-width="2"
     stroke-linecap="round"
     stroke-linejoin="round"
     stroke-dasharray="0, 11"
     id="path47" />
  <path
     d="m 408,115 v 35"
     stroke="#808080"
     stroke-width="2"
     stroke-linecap="round"
     stroke-linejoin="round"
     stroke-dasharray="0, 11"
     id="path48" />
  <circle
     cx="378"
     cy="230"
     r="4"
     fill="#f2f2f2"
     stroke="#808080"
     stroke-linejoin="round"
     id="circle48" />
  <circle
     cx="279"
     cy="178"
     r="4"
     fill="#f2f2f2"
     stroke="#808080"
     stroke-linejoin="round"
     id="circle49" />
  <circle
     cx="171"
     cy="77"
     r="4"
     fill="#f2f2f2"
     stroke="#808080"
     stroke-linejoin="round"
     id="circle50" />
  <rect
     x="351"
     y="106"
     width="49"
     height="53"
     rx="5"
     fill="#f2f2f2"
     stroke="#808080"
     stroke-linejoin="round"
     id="rect50" />
  <path
     d="m 339,99 c 0,-2.7614 2.239,-5 5,-5 h 40 c 2.761,0 5,2.2386 5,5 v 45 c 0,2.761 -2.239,5 -5,5 h -30 l -15,-15 z"
     fill="#ffffff"
     stroke="#808080"
     stroke-linejoin="round"
     id="path50" />
  <path
     d="m 354,134 h -15 l 15,15 z"
     fill="#f2f2f2"
     stroke="#808080"
     stroke-linejoin="round"
     id="path51" />
  <path
     d="m 349,104 v 20"
     stroke="#808080"
     stroke-width="2"
     stroke-linecap="round"
     stroke-linejoin="round"
     stroke-dasharray="0, 11"
     id="path52" />
  <path
     d="m 360.664,115.124 7.336,2.87 v 0.644 l -7.336,2.842 v -0.686 l 6.552,-2.492 -6.552,-2.506 z M 368,109.482 h -1.484 c 1.008,0.392 1.624,1.358 1.624,2.548 0,1.512 -0.84,2.492 -2.142,2.492 -1.442,0 -2.17,-1.148 -2.17,-3.388 0,-0.462 0.014,-0.798 0.084,-1.624 h -0.686 c -1.372,0 -2.184,0.728 -2.184,1.96 0,1.316 0.84,2.156 2.17,2.17 v 0.602 c -1.624,-0.014 -2.688,-1.12 -2.688,-2.758 0,-1.638 0.98,-2.604 2.632,-2.604 H 368 Z m -2.016,4.396 c 0.994,0 1.652,-0.756 1.652,-1.904 0,-1.498 -1.022,-2.464 -2.576,-2.464 h -0.686 c -0.07,0.7 -0.084,1.176 -0.084,1.596 0,1.876 0.546,2.772 1.694,2.772 z M 368,106.033 v 0.644 h -10.052 v -0.644 z m -9.044,-3.207 c 0.35,0 0.616,0.266 0.616,0.616 0,0.364 -0.266,0.63 -0.616,0.63 -0.336,0 -0.574,-0.266 -0.574,-0.63 0,-0.35 0.238,-0.616 0.574,-0.616 z M 368,103.12 v 0.644 h -7.336 v -0.644 z m 10.318,29.765 c -2.282,0 -3.794,-1.26 -3.794,-3.22 0,-1.176 0.7,-2.184 1.862,-2.66 h -4.438 v -0.644 H 382 v 0.616 h -1.708 c 1.162,0.49 1.848,1.484 1.848,2.688 0,1.974 -1.526,3.22 -3.822,3.22 z m 0,-0.658 c 2.044,0 3.276,-1.008 3.276,-2.618 0,-1.582 -1.302,-2.632 -3.304,-2.632 -2.016,0 -3.22,1.092 -3.22,2.632 0,1.61 1.218,2.618 3.248,2.618 z m -5.362,-9.07 c 0.35,0 0.616,0.266 0.616,0.616 0,0.364 -0.266,0.63 -0.616,0.63 -0.336,0 -0.574,-0.266 -0.574,-0.63 0,-0.35 0.238,-0.616 0.574,-0.616 z m 9.044,0.294 v 0.644 h -7.336 v -0.644 z m -2.912,-7.015 h -4.424 v -0.658 H 382 v 0.616 h -1.456 c 0.924,0.378 1.596,1.302 1.596,2.422 0,1.498 -0.84,2.45 -2.674,2.45 h -4.802 v -0.644 h 4.648 c 1.652,0 2.282,-0.826 2.282,-1.946 0,-1.344 -1.092,-2.24 -2.506,-2.24 z M 382,112.882 v 0.644 h -7.336 v -0.616 h 1.484 c -1.008,-0.462 -1.624,-1.386 -1.624,-2.464 0,-1.19 0.686,-2.058 1.834,-2.338 -1.106,-0.42 -1.834,-1.414 -1.834,-2.576 0,-1.54 1.008,-2.478 2.702,-2.478 H 382 v 0.644 h -4.55 c -1.526,0 -2.38,0.714 -2.38,2.016 0,1.246 1.106,2.254 2.548,2.254 H 382 v 0.644 h -4.55 c -1.526,0 -2.38,0.714 -2.38,2.016 0,1.26 1.106,2.254 2.548,2.254 z"
     fill="#808080"
     id="path53" />
  <path
     fill-rule="evenodd"
     clip-rule="evenodd"
     d="m 313,190 c -3.314,0 -6,-2.686 -6,-6 v -12.6 l -9,5.1 v 17 l 8.627,4.889 -1.272,28.619 c -0.193,4.355 3.285,7.992 7.645,7.992 4.36,0 7.838,-3.637 7.645,-7.992 L 319.373,198.389 328,193.5 v -17 l -9,-5.1 V 184 c 0,3.314 -2.686,6 -6,6 z"
     fill="#f2f2f2"
     id="path54" />
  <path
     d="m 307,171.4 h 0.5 c 0,-0.178 -0.095,-0.343 -0.248,-0.432 -0.154,-0.09 -0.344,-0.091 -0.499,-0.003 z m -9,5.1 -0.247,-0.435 c -0.156,0.089 -0.253,0.255 -0.253,0.435 z m 0,17 h -0.5 c 0,0.18 0.097,0.346 0.253,0.435 z m 8.627,4.889 0.5,0.022 c 0.008,-0.188 -0.09,-0.365 -0.253,-0.457 z m -1.272,28.619 0.5,0.022 z m 15.29,0 -0.5,0.022 z m -1.272,-28.619 -0.247,-0.435 c -0.163,0.092 -0.261,0.269 -0.253,0.457 z M 328,193.5 l 0.247,0.435 c 0.156,-0.089 0.253,-0.255 0.253,-0.435 z m 0,-17 h 0.5 c 0,-0.18 -0.097,-0.346 -0.253,-0.435 z m -9,-5.1 0.247,-0.435 c -0.155,-0.088 -0.345,-0.087 -0.499,0.003 -0.153,0.089 -0.248,0.254 -0.248,0.432 z M 306.5,184 c 0,3.59 2.91,6.5 6.5,6.5 v -1 c -3.038,0 -5.5,-2.463 -5.5,-5.5 z m 0,-12.6 V 184 h 1 v -12.6 z m 0.253,-0.435 -9,5.1 0.494,0.87 9,-5.1 z M 297.5,176.5 v 17 h 1 v -17 z m 0.253,17.435 8.628,4.889 0.493,-0.87 -8.627,-4.889 z m 8.375,4.431 -1.272,28.62 0.999,0.044 1.272,-28.619 z m -1.272,28.62 c -0.207,4.639 3.5,8.514 8.144,8.514 v -1 c -4.075,0 -7.326,-3.399 -7.145,-7.47 z M 313,235.5 c 4.644,0 8.351,-3.875 8.144,-8.514 l -0.999,0.044 c 0.181,4.071 -3.07,7.47 -7.145,7.47 z m 8.144,-8.514 -1.272,-28.62 -0.999,0.045 1.272,28.619 z m -1.525,-28.162 8.628,-4.889 -0.494,-0.87 -8.627,4.889 z M 328.5,193.5 v -17 h -1 v 17 z m -0.253,-17.435 -9,-5.1 -0.494,0.87 9,5.1 z M 319.5,184 v -12.6 h -1 V 184 Z m -6.5,6.5 c 3.59,0 6.5,-2.91 6.5,-6.5 h -1 c 0,3.037 -2.462,5.5 -5.5,5.5 z"
     fill="#808080"
     id="path55" />
  <path
     d="m 221.094,153.915 c -12.322,0 -21.96,-10.004 -21.96,-22.875 0,-12.81 9.638,-22.753 21.96,-22.753 11.529,0 20.557,7.686 22.082,18.91 h -9.821 c -1.037,-6.283 -5.917,-10.614 -12.139,-10.614 -7.503,0 -12.566,5.917 -12.566,14.457 0,8.601 5.063,14.579 12.566,14.579 6.222,0 11.041,-4.392 12.139,-10.675 h 9.821 c -1.525,11.346 -10.553,18.971 -22.082,18.971 z M 262.155,153 H 246.6 v -43.798 h 15.555 c 13.908,0 22.326,8.906 22.326,21.655 0,12.749 -8.723,22.143 -22.326,22.143 z m -6.283,-35.807 v 27.816 h 5.795 c 8.723,0 13.298,-5.063 13.298,-14.152 0,-8.723 -4.575,-13.664 -13.298,-13.664 z M 297.143,153 h -9.272 v -43.798 h 9.272 v 19.276 l 15.921,-19.276 h 10.614 L 306.293,130.186 324.166,153 h -11.407 l -15.616,-20.008 z"
     fill="#1a1a1a"
     id="path56" />
  <circle
     cx="162.5"
     cy="130.5"
     r="29.5"
     fill="url(#paint0_linear_1864_2441)"
     id="circle56"
     style="fill:url(#paint0_linear_1864_2441)" />
  <path
     d="m 170.016,136.423 7.353,-4.484 c 0.39,-0.238 0.631,-0.68 0.631,-1.154 v -8.969 c 0,-0.474 -0.241,-0.916 -0.631,-1.154 l -7.353,-4.484 c -0.39,-0.238 -0.873,-0.236 -1.261,0 l -7.353,4.484 c -0.39,0.238 -0.631,0.68 -0.631,1.154 v 16.027 l -5.157,3.143 -5.156,-3.143 v -6.288 l 5.156,-3.143 3.401,2.075 v -4.219 l -2.77,-1.69 c -0.19,-0.116 -0.409,-0.179 -0.631,-0.179 -0.221,0 -0.44,0.063 -0.63,0.179 l -7.353,4.484 c -0.39,0.238 -0.631,0.68 -0.631,1.154 v 8.969 c 0,0.474 0.241,0.916 0.631,1.154 l 7.353,4.484 c 0.39,0.236 0.871,0.236 1.261,0 l 7.353,-4.484 c 0.39,-0.238 0.631,-0.68 0.631,-1.154 v -16.027 l 0.092,-0.056 5.062,-3.087 5.157,3.143 v 6.288 l -5.157,3.143 -3.396,-2.07 v 4.218 l 2.766,1.686 c 0.39,0.236 0.873,0.236 1.261,0 z"
     fill="url(#paint1_linear_1864_2441)"
     id="path57"
     style="fill:url(#paint1_linear_1864_2441)" />
  <defs
     id="defs61">
    <linearGradient
       id="paint0_linear_1864_2441"
       x1="132.808"
       y1="149.957"
       x2="192.715"
       y2="119.156"
       gradientUnits="userSpaceOnUse">
      <stop
         stop-color="#A726C1"
         id="stop57" />
      <stop
         offset="0.88"
         stop-color="#803BDF"
         id="stop58" />
      <stop
         offset="1"
         stop-color="#7B3FE4"
         id="stop59" />
    </linearGradient>
    <linearGradient
       id="paint1_linear_1864_2441"
       x1="162.5"
       y1="116"
       x2="162.5"
       y2="174.5"
       gradientUnits="userSpaceOnUse">
      <stop
         stop-color="white"
         id="stop60" />
      <stop
         offset="1"
         stop-color="white"
         stop-opacity="0"
         id="stop61" />
    </linearGradient>
  </defs>
</svg>
