<?xml version="1.0" encoding="UTF-8" standalone="no"?>
<svg
   width="450"
   height="255"
   viewBox="0 0 450 255"
   fill="none"
   version="1.1"
   id="svg87"
   xmlns="http://www.w3.org/2000/svg"
   xmlns:svg="http://www.w3.org/2000/svg">
  <path
     d="m 85,192 c 0,-2.761 2.2386,-5 5,-5 h 74 c 2.761,0 5,2.239 5,5 v 35 c 0,2.761 -2.239,5 -5,5 H 90 c -2.7614,0 -5,-2.239 -5,-5 z"
     stroke="#808080"
     stroke-linejoin="round"
     id="path1" />
  <rect
     x="288"
     y="22"
     width="115"
     height="49"
     rx="5"
     fill="#f2f2f2"
     stroke="#808080"
     stroke-linejoin="round"
     id="rect2" />
  <path
     d="m 244,75 c 0,5.5228 4.477,10 10,10 h 130 c 2.761,0 5,-2.2386 5,-5 V 49 c 0,-5.5228 -4.477,-10 -10,-10 H 229 l 13.412,12.5175 c 1.013,0.9456 1.588,2.2694 1.588,3.6553 z"
     fill="#ffffff"
     stroke="#808080"
     stroke-linejoin="round"
     id="path2" />
  <path
     d="m 225,177 c 0,-2.761 -2.239,-5 -5,-5 H 105 c -2.761,0 -5,2.239 -5,5 v 35 c 0,2.761 2.239,5 5,5 h 105 l 15,-15 z"
     fill="#f2f2f2"
     stroke="#808080"
     stroke-linejoin="round"
     id="path3" />
  <path
     d="m 210,202 h 15 l -15,15 z"
     fill="#ffffff"
     stroke="#808080"
     stroke-linejoin="round"
     id="path4" />
  <rect
     x="325"
     y="173"
     width="70"
     height="59"
     rx="5"
     fill="#f2f2f2"
     stroke="#808080"
     stroke-linejoin="round"
     id="rect4" />
  <rect
     x="330"
     y="188"
     width="60"
     height="39"
     fill="#ffffff"
     stroke="#808080"
     stroke-linejoin="round"
     id="rect5" />
  <path
     d="M 342,181 H 331"
     stroke="#808080"
     stroke-width="2"
     stroke-linecap="round"
     stroke-linejoin="round"
     stroke-dasharray="0, 11"
     id="path5" />
  <path
     d="m 345,198 10,7.5 -10,7.5 m 15,0 h 10"
     stroke="#808080"
     stroke-linecap="round"
     stroke-linejoin="round"
     id="path6" />
  <path
     d="m 110,187.895 12.316,-7.895 12.315,7.895 -12.315,7.895 z"
     fill="#ffffff"
     stroke="#808080"
     stroke-linejoin="round"
     id="path7" />
  <path
     d="M 122.316,210 110,202.537 v -14.642 l 12.316,7.463 z"
     fill="#f2f2f2"
     stroke="#808080"
     stroke-linejoin="round"
     id="path8" />
  <path
     d="m 122.316,210 12.316,-7.463 v -14.642 l -12.316,7.463 z"
     fill="#ffffff"
     stroke="#808080"
     stroke-linejoin="round"
     id="path9" />
  <path
     d="m 144.631,187.895 12.316,-7.895 12.315,7.895 -12.315,7.895 z"
     fill="#ffffff"
     stroke="#808080"
     stroke-linejoin="round"
     id="path10" />
  <path
     d="m 156.947,210 -12.316,-7.463 v -14.642 l 12.316,7.463 z"
     fill="#f2f2f2"
     stroke="#808080"
     stroke-linejoin="round"
     id="path11" />
  <path
     d="m 156.947,210 12.316,-7.463 v -14.642 l -12.316,7.463 z"
     fill="#ffffff"
     stroke="#808080"
     stroke-linejoin="round"
     id="path12" />
  <path
     d="m 179.263,187.895 12.315,-7.895 12.316,7.895 -12.316,7.895 z"
     fill="#ffffff"
     stroke="#808080"
     stroke-linejoin="round"
     id="path13" />
  <path
     d="m 191.578,210 -12.315,-7.463 v -14.642 l 12.315,7.463 z"
     fill="#f2f2f2"
     stroke="#808080"
     stroke-linejoin="round"
     id="path14" />
  <path
     d="m 191.579,210 12.316,-7.463 v -14.642 l -12.316,7.463 z"
     fill="#ffffff"
     stroke="#808080"
     stroke-linejoin="round"
     id="path15" />
  <rect
     x="258"
     y="67"
     width="15"
     height="8"
     rx="4"
     fill="#f2f2f2"
     stroke="#808080"
     stroke-linejoin="round"
     id="rect15" />
  <rect
     x="283"
     y="63"
     width="15"
     height="12"
     rx="5"
     fill="#f2f2f2"
     stroke="#808080"
     stroke-linejoin="round"
     id="rect16" />
  <rect
     x="308"
     y="59"
     width="15"
     height="16"
     rx="5"
     fill="#f2f2f2"
     stroke="#808080"
     stroke-linejoin="round"
     id="rect17" />
  <rect
     x="333"
     y="55"
     width="15"
     height="20"
     rx="5"
     fill="#f2f2f2"
     stroke="#808080"
     stroke-linejoin="round"
     id="rect18" />
  <rect
     x="358"
     y="49"
     width="15"
     height="26"
     rx="5"
     fill="#f2f2f2"
     stroke="#808080"
     stroke-linejoin="round"
     id="rect19" />
  <circle
     cx="62.5"
     cy="199.5"
     r="7.5"
     fill="#f2f2f2"
     stroke="#808080"
     stroke-linejoin="round"
     id="circle19" />
  <circle
     cx="148.5"
     cy="44.5"
     r="7.5"
     fill="#ffffff"
     stroke="#808080"
     stroke-linejoin="round"
     id="circle20" />
  <path
     fill-rule="evenodd"
     clip-rule="evenodd"
     d="m 145,61 c 0,2.2091 1.791,4 4,4 2.209,0 4,-1.7909 4,-4 v -2.7118 c 0.883,-0.2881 1.729,-0.6587 2.529,-1.1027 l 1.956,1.9565 c 1.562,1.5621 4.095,1.5621 5.657,0 1.562,-1.5621 1.562,-4.0947 0,-5.6568 l -1.956,-1.9565 C 161.63,50.7291 162,49.8832 162.288,49 H 165 c 2.209,0 4,-1.7909 4,-4 0,-2.2091 -1.791,-4 -4,-4 h -2.425 c -0.249,-1.0025 -0.601,-1.9638 -1.046,-2.8718 l 1.613,-1.6135 c 1.562,-1.5621 1.562,-4.0947 0,-5.6568 -1.562,-1.5621 -4.095,-1.5621 -5.657,0 l -1.327,1.3271 C 155.178,31.5739 154.119,31.0767 153,30.7118 V 29 c 0,-2.2091 -1.791,-4 -4,-4 -2.209,0 -4,1.7909 -4,4 v 1.4252 c -1.248,0.3093 -2.432,0.7802 -3.529,1.3892 l -0.956,-0.9566 c -1.562,-1.5621 -4.095,-1.5621 -5.657,0 -1.562,1.5621 -1.562,4.0947 0,5.6568 l 0.956,0.9566 C 135.205,38.568 134.735,39.7521 134.425,41 H 133 c -2.209,0 -4,1.7909 -4,4 0,2.2091 1.791,4 4,4 h 1.712 c 0.365,1.1187 0.862,2.1776 1.473,3.1582 l -1.327,1.3271 c -1.562,1.5621 -1.562,4.0948 0,5.6568 1.562,1.5621 4.095,1.5621 5.657,0 l 1.613,-1.6135 c 0.908,0.4449 1.87,0.7977 2.872,1.0462 z"
     fill="#f2f2f2"
     id="path20" />
  <path
     d="m 153,58.2882 -0.155,-0.4754 c -0.206,0.0671 -0.345,0.259 -0.345,0.4754 z m 2.529,-1.1027 0.353,-0.3535 c -0.157,-0.1578 -0.401,-0.1919 -0.596,-0.0836 z m 7.613,-3.7003 -0.353,0.3535 z m -1.956,-1.9565 -0.438,-0.2428 c -0.108,0.1952 -0.074,0.4385 0.084,0.5963 z M 162.288,49 v -0.5 c -0.216,0 -0.408,0.1392 -0.475,0.345 z m 0.287,-8 -0.486,0.1203 c 0.056,0.223 0.256,0.3797 0.486,0.3797 z m -1.046,-2.8718 -0.354,-0.3535 c -0.151,0.1511 -0.189,0.3816 -0.095,0.5735 z m 1.613,-1.6135 0.354,0.3536 z m 0,-5.6568 0.354,-0.3536 z m -5.657,0 -0.353,-0.3536 z m -1.327,1.3271 -0.264,0.4243 c 0.197,0.123 0.453,0.0937 0.618,-0.0708 z M 153,30.7118 h -0.5 c 0,0.2164 0.139,0.4083 0.345,0.4754 z m -8,-0.2866 0.12,0.4854 c 0.223,-0.0553 0.38,-0.2556 0.38,-0.4854 z m -3.529,1.3892 -0.353,0.3535 c 0.158,0.1579 0.401,0.192 0.596,0.0836 z m -0.956,-0.9566 0.353,-0.3536 z m -5.657,5.6568 -0.354,0.3536 z m 0.956,0.9566 0.438,0.2427 c 0.108,-0.1951 0.074,-0.4384 -0.084,-0.5962 z M 134.425,41 v 0.5 c 0.23,0 0.43,-0.1567 0.486,-0.3797 z m 0.287,8 0.475,-0.155 C 135.12,48.6392 134.928,48.5 134.712,48.5 Z m 1.473,3.1582 0.354,0.3535 c 0.164,-0.1644 0.193,-0.4206 0.07,-0.618 z m -1.327,1.3271 0.353,0.3535 z m 0,5.6568 0.353,-0.3535 v 0 z m 5.657,0 0.353,0.3536 z m 1.613,-1.6135 0.22,-0.449 c -0.192,-0.094 -0.422,-0.0557 -0.573,0.0955 z M 145,58.5748 h 0.5 c 0,-0.2298 -0.157,-0.4301 -0.38,-0.4853 z m 4,5.9252 c -1.933,0 -3.5,-1.567 -3.5,-3.5 h -1 c 0,2.4853 2.015,4.5 4.5,4.5 z m 3.5,-3.5 c 0,1.933 -1.567,3.5 -3.5,3.5 v 1 c 2.485,0 4.5,-2.0147 4.5,-4.5 z m 0,-2.7118 V 61 h 1 v -2.7118 z m 2.786,-1.5398 c -0.772,0.4286 -1.589,0.7864 -2.441,1.0644 l 0.31,0.9507 c 0.914,-0.2981 1.789,-0.6815 2.617,-1.1408 z m 2.553,2.0401 -1.957,-1.9565 -0.707,0.7071 1.957,1.9565 z m 4.95,0 c -1.367,1.3668 -3.583,1.3668 -4.95,0 l -0.707,0.7071 c 1.757,1.7573 4.606,1.7573 6.364,0 z m 0,-4.9498 c 1.366,1.3669 1.366,3.5829 0,4.9498 l 0.707,0.7071 c 1.757,-1.7574 1.757,-4.6066 0,-6.364 z m -1.957,-1.9565 1.957,1.9565 0.707,-0.7071 -1.957,-1.9565 z m 0.981,-3.0372 c -0.278,0.8524 -0.636,1.669 -1.065,2.4409 l 0.875,0.4855 c 0.459,-0.8272 0.842,-1.7024 1.141,-2.6164 z M 165,48.5 h -2.712 v 1 H 165 Z m 3.5,-3.5 c 0,1.933 -1.567,3.5 -3.5,3.5 v 1 c 2.485,0 4.5,-2.0147 4.5,-4.5 z M 165,41.5 c 1.933,0 3.5,1.567 3.5,3.5 h 1 c 0,-2.4853 -2.015,-4.5 -4.5,-4.5 z m -2.425,0 H 165 v -1 h -2.425 z m -1.495,-3.1518 c 0.429,0.8765 0.77,1.8045 1.009,2.7721 l 0.971,-0.2406 c -0.257,-1.0373 -0.622,-2.032 -1.082,-2.9715 z m 1.709,-2.187 -1.614,1.6135 0.707,0.7071 1.614,-1.6135 z m 0,-4.9498 c 1.366,1.3669 1.366,3.5829 0,4.9498 l 0.707,0.7071 c 1.757,-1.7574 1.757,-4.6066 0,-6.364 z m -4.95,0 c 1.367,-1.3668 3.583,-1.3668 4.95,0 l 0.707,-0.7071 c -1.758,-1.7573 -4.607,-1.7573 -6.364,0 z m -1.327,1.3271 1.327,-1.3271 -0.707,-0.7071 -1.327,1.3271 z m -3.667,-1.3513 c 1.08,0.3522 2.102,0.8321 3.049,1.4221 l 0.529,-0.8487 c -1.015,-0.6321 -2.11,-1.1466 -3.268,-1.5241 z M 152.5,29 v 1.7118 h 1 V 29 Z M 149,25.5 c 1.933,0 3.5,1.567 3.5,3.5 h 1 c 0,-2.4853 -2.015,-4.5 -4.5,-4.5 z m -3.5,3.5 c 0,-1.933 1.567,-3.5 3.5,-3.5 v -1 c -2.485,0 -4.5,2.0147 -4.5,4.5 z m 0,1.4252 V 29 h -1 v 1.4252 z m -3.786,1.8263 c 1.059,-0.5879 2.202,-1.0424 3.406,-1.3409 l -0.24,-0.9707 c -1.292,0.3201 -2.517,0.8073 -3.651,1.4374 z m -1.553,-1.0402 0.957,0.9566 0.707,-0.7071 -0.957,-0.9566 z m -4.95,0 c 1.367,-1.3668 3.583,-1.3668 4.95,0 l 0.707,-0.7071 c -1.757,-1.7574 -4.606,-1.7574 -6.364,0 z m 0,4.9498 c -1.366,-1.3669 -1.366,-3.583 0,-4.9498 l -0.707,-0.7071 c -1.757,1.7574 -1.757,4.6066 0,6.364 z m 0.957,0.9566 -0.957,-0.9566 -0.707,0.7071 0.957,0.9566 z m -1.257,4.0026 c 0.298,-1.2045 0.753,-2.3475 1.341,-3.4064 l -0.875,-0.4854 c -0.63,1.1347 -1.117,2.3599 -1.437,3.6512 z M 133,41.5 h 1.425 v -1 H 133 Z m -3.5,3.5 c 0,-1.933 1.567,-3.5 3.5,-3.5 v -1 c -2.485,0 -4.5,2.0147 -4.5,4.5 z m 3.5,3.5 c -1.933,0 -3.5,-1.567 -3.5,-3.5 h -1 c 0,2.4853 2.015,4.5 4.5,4.5 z m 1.712,0 H 133 v 1 h 1.712 z m 1.897,3.3937 c -0.59,-0.9468 -1.07,-1.969 -1.422,-3.0487 l -0.951,0.31 c 0.378,1.1576 0.892,2.2532 1.525,3.2676 z m -1.398,1.9451 1.328,-1.3271 -0.708,-0.7071 -1.327,1.3271 z m 0,4.9498 c -1.366,-1.3668 -1.366,-3.5829 0,-4.9498 l -0.707,-0.7071 c -1.757,1.7574 -1.757,4.6066 0,6.364 z m 4.95,0 c -1.367,1.3668 -3.583,1.3668 -4.95,0 l -0.707,0.7071 c 1.758,1.7574 4.607,1.7574 6.364,0 z m 1.614,-1.6135 -1.614,1.6135 0.707,0.7071 1.614,-1.6135 z m 3.345,0.9144 c -0.967,-0.2399 -1.895,-0.5804 -2.772,-1.0099 l -0.44,0.898 c 0.94,0.4603 1.934,0.8254 2.972,1.0825 z M 145.5,61 v -2.4252 h -1 V 61 Z"
     fill="#808080"
     id="path21" />
  <path
     fill-rule="evenodd"
     clip-rule="evenodd"
     d="m 181,81 c 0,2.2091 1.791,4 4,4 2.209,0 4,-1.7909 4,-4 v -2.7118 c 0.883,-0.2881 1.729,-0.6587 2.529,-1.1027 l 1.956,1.9565 c 1.562,1.5621 4.095,1.5621 5.657,0 1.562,-1.5621 1.562,-4.0947 0,-5.6568 l -1.956,-1.9565 C 197.63,70.7291 198,69.8832 198.288,69 H 201 c 2.209,0 4,-1.7909 4,-4 0,-2.2091 -1.791,-4 -4,-4 h -2.425 c -0.249,-1.0025 -0.601,-1.9638 -1.046,-2.8718 l 1.613,-1.6135 c 1.562,-1.5621 1.562,-4.0947 0,-5.6568 -1.562,-1.5621 -4.095,-1.5621 -5.657,0 l -1.327,1.3271 C 191.178,51.5739 190.119,51.0767 189,50.7118 V 49 c 0,-2.2091 -1.791,-4 -4,-4 -2.209,0 -4,1.7909 -4,4 v 1.4252 c -1.248,0.3093 -2.432,0.7802 -3.529,1.3892 l -0.956,-0.9566 c -1.562,-1.5621 -4.095,-1.5621 -5.657,0 -1.562,1.5621 -1.562,4.0947 0,5.6568 l 0.956,0.9566 C 171.205,58.568 170.735,59.7521 170.425,61 H 169 c -2.209,0 -4,1.7909 -4,4 0,2.2091 1.791,4 4,4 h 1.712 c 0.365,1.1187 0.862,2.1776 1.473,3.1582 l -1.327,1.3271 c -1.562,1.5621 -1.562,4.0948 0,5.6568 1.562,1.5621 4.095,1.5621 5.657,0 l 1.613,-1.6135 c 0.908,0.4449 1.87,0.7977 2.872,1.0462 z"
     fill="#f2f2f2"
     id="path22" />
  <path
     d="m 189,78.2882 -0.155,-0.4754 c -0.206,0.0671 -0.345,0.259 -0.345,0.4754 z m 2.529,-1.1027 0.353,-0.3535 c -0.157,-0.1578 -0.401,-0.1919 -0.596,-0.0836 z m 7.613,-3.7003 -0.353,0.3535 z m -1.956,-1.9565 -0.438,-0.2428 c -0.108,0.1952 -0.074,0.4385 0.084,0.5963 z M 198.288,69 v -0.5 c -0.216,0 -0.408,0.1392 -0.475,0.345 z m 0.287,-8 -0.486,0.1203 c 0.056,0.223 0.256,0.3797 0.486,0.3797 z m -1.046,-2.8718 -0.354,-0.3535 c -0.151,0.1511 -0.189,0.3816 -0.095,0.5735 z m 1.613,-1.6135 0.354,0.3536 z m 0,-5.6568 0.354,-0.3536 z m -5.657,0 -0.353,-0.3536 z m -1.327,1.3271 -0.264,0.4243 c 0.197,0.123 0.453,0.0937 0.618,-0.0708 z M 189,50.7118 h -0.5 c 0,0.2164 0.139,0.4083 0.345,0.4754 z m -8,-0.2866 0.12,0.4854 c 0.223,-0.0553 0.38,-0.2556 0.38,-0.4854 z m -3.529,1.3892 -0.353,0.3535 c 0.158,0.1579 0.401,0.192 0.596,0.0836 z m -0.956,-0.9566 0.353,-0.3536 z m -5.657,5.6568 -0.354,0.3536 z m 0.956,0.9566 0.438,0.2427 c 0.108,-0.1951 0.074,-0.4384 -0.084,-0.5962 z M 170.425,61 v 0.5 c 0.23,0 0.43,-0.1567 0.486,-0.3797 z m 0.287,8 0.475,-0.155 C 171.12,68.6392 170.928,68.5 170.712,68.5 Z m 1.473,3.1582 0.354,0.3535 c 0.164,-0.1644 0.193,-0.4206 0.07,-0.618 z m -1.327,1.3271 0.353,0.3535 z m 0,5.6568 0.353,-0.3535 v 0 z m 5.657,0 0.353,0.3536 z m 1.613,-1.6135 0.22,-0.449 c -0.192,-0.094 -0.422,-0.0557 -0.573,0.0955 z M 181,78.5748 h 0.5 c 0,-0.2298 -0.157,-0.4301 -0.38,-0.4853 z m 4,5.9252 c -1.933,0 -3.5,-1.567 -3.5,-3.5 h -1 c 0,2.4853 2.015,4.5 4.5,4.5 z m 3.5,-3.5 c 0,1.933 -1.567,3.5 -3.5,3.5 v 1 c 2.485,0 4.5,-2.0147 4.5,-4.5 z m 0,-2.7118 V 81 h 1 v -2.7118 z m 2.786,-1.5398 c -0.772,0.4286 -1.589,0.7864 -2.441,1.0644 l 0.31,0.9507 c 0.914,-0.2981 1.789,-0.6815 2.617,-1.1408 z m 2.553,2.0401 -1.957,-1.9565 -0.707,0.7071 1.957,1.9565 z m 4.95,0 c -1.367,1.3668 -3.583,1.3668 -4.95,0 l -0.707,0.7071 c 1.757,1.7573 4.606,1.7573 6.364,0 z m 0,-4.9498 c 1.366,1.3669 1.366,3.5829 0,4.9498 l 0.707,0.7071 c 1.757,-1.7574 1.757,-4.6066 0,-6.364 z m -1.957,-1.9565 1.957,1.9565 0.707,-0.7071 -1.957,-1.9565 z m 0.981,-3.0372 c -0.278,0.8524 -0.636,1.669 -1.065,2.4409 l 0.875,0.4855 c 0.459,-0.8272 0.842,-1.7024 1.141,-2.6164 z M 201,68.5 h -2.712 v 1 H 201 Z m 3.5,-3.5 c 0,1.933 -1.567,3.5 -3.5,3.5 v 1 c 2.485,0 4.5,-2.0147 4.5,-4.5 z M 201,61.5 c 1.933,0 3.5,1.567 3.5,3.5 h 1 c 0,-2.4853 -2.015,-4.5 -4.5,-4.5 z m -2.425,0 H 201 v -1 h -2.425 z m -1.495,-3.1518 c 0.429,0.8765 0.77,1.8045 1.009,2.7721 l 0.971,-0.2406 c -0.257,-1.0373 -0.622,-2.032 -1.082,-2.9715 z m 1.709,-2.187 -1.614,1.6135 0.707,0.7071 1.614,-1.6135 z m 0,-4.9498 c 1.366,1.3669 1.366,3.5829 0,4.9498 l 0.707,0.7071 c 1.757,-1.7574 1.757,-4.6066 0,-6.364 z m -4.95,0 c 1.367,-1.3668 3.583,-1.3668 4.95,0 l 0.707,-0.7071 c -1.758,-1.7573 -4.607,-1.7573 -6.364,0 z m -1.327,1.3271 1.327,-1.3271 -0.707,-0.7071 -1.327,1.3271 z m -3.667,-1.3513 c 1.08,0.3522 2.102,0.8321 3.049,1.4221 l 0.529,-0.8487 c -1.015,-0.6321 -2.11,-1.1466 -3.268,-1.5241 z M 188.5,49 v 1.7118 h 1 V 49 Z M 185,45.5 c 1.933,0 3.5,1.567 3.5,3.5 h 1 c 0,-2.4853 -2.015,-4.5 -4.5,-4.5 z m -3.5,3.5 c 0,-1.933 1.567,-3.5 3.5,-3.5 v -1 c -2.485,0 -4.5,2.0147 -4.5,4.5 z m 0,1.4252 V 49 h -1 v 1.4252 z m -3.786,1.8263 c 1.059,-0.5879 2.202,-1.0424 3.406,-1.3409 l -0.24,-0.9707 c -1.292,0.3201 -2.517,0.8073 -3.651,1.4374 z m -1.553,-1.0402 0.957,0.9566 0.707,-0.7071 -0.957,-0.9566 z m -4.95,0 c 1.367,-1.3668 3.583,-1.3668 4.95,0 l 0.707,-0.7071 c -1.757,-1.7574 -4.606,-1.7574 -6.364,0 z m 0,4.9498 c -1.366,-1.3669 -1.366,-3.583 0,-4.9498 l -0.707,-0.7071 c -1.757,1.7574 -1.757,4.6066 0,6.364 z m 0.957,0.9566 -0.957,-0.9566 -0.707,0.7071 0.957,0.9566 z m -1.257,4.0026 c 0.298,-1.2045 0.753,-2.3475 1.341,-3.4064 l -0.875,-0.4854 c -0.63,1.1347 -1.117,2.3599 -1.437,3.6512 z M 169,61.5 h 1.425 v -1 H 169 Z m -3.5,3.5 c 0,-1.933 1.567,-3.5 3.5,-3.5 v -1 c -2.485,0 -4.5,2.0147 -4.5,4.5 z m 3.5,3.5 c -1.933,0 -3.5,-1.567 -3.5,-3.5 h -1 c 0,2.4853 2.015,4.5 4.5,4.5 z m 1.712,0 H 169 v 1 h 1.712 z m 1.897,3.3937 c -0.59,-0.9468 -1.07,-1.969 -1.422,-3.0487 l -0.951,0.31 c 0.378,1.1576 0.892,2.2532 1.525,3.2676 z m -1.398,1.9451 1.328,-1.3271 -0.708,-0.7071 -1.327,1.3271 z m 0,4.9498 c -1.366,-1.3668 -1.366,-3.5829 0,-4.9498 l -0.707,-0.7071 c -1.757,1.7574 -1.757,4.6066 0,6.364 z m 4.95,0 c -1.367,1.3668 -3.583,1.3668 -4.95,0 l -0.707,0.7071 c 1.758,1.7574 4.607,1.7574 6.364,0 z m 1.614,-1.6135 -1.614,1.6135 0.707,0.7071 1.614,-1.6135 z m 3.345,0.9144 c -0.967,-0.2399 -1.895,-0.5804 -2.772,-1.0099 l -0.44,0.898 c 0.94,0.4603 1.934,0.8254 2.972,1.0825 z M 181.5,81 v -2.4252 h -1 V 81 Z"
     fill="#808080"
     id="path23" />
  <circle
     cx="184.5"
     cy="64.5"
     r="5.5"
     fill="#ffffff"
     stroke="#808080"
     stroke-linejoin="round"
     id="circle23" />
  <circle
     cx="148.5"
     cy="44.5"
     r="5.5"
     fill="#ffffff"
     stroke="#808080"
     stroke-linejoin="round"
     id="circle24" />
  <path
     fill-rule="evenodd"
     clip-rule="evenodd"
     d="M 57.1967,222.303 55,224.5 l 2.1967,2.197 v 3.106 h 3.1066 L 62.5,232 l 2.1967,-2.197 h 3.1066 v -3.106 L 70,224.5 67.8033,222.303 v -3.106 H 64.6967 L 62.5,217 l -2.1967,2.197 h -3.1066 z"
     fill="#f2f2f2"
     id="path24" />
  <path
     d="m 55,224.5 -0.3536,-0.354 c -0.1952,0.196 -0.1952,0.512 0,0.708 z m 2.1967,-2.197 0.3536,0.354 c 0.0937,-0.094 0.1464,-0.221 0.1464,-0.354 z m 0,4.394 h 0.5 c 0,-0.133 -0.0527,-0.26 -0.1464,-0.354 z m 0,3.106 h -0.5 c 0,0.276 0.2239,0.5 0.5,0.5 z m 3.1066,0 0.3536,-0.353 c -0.0938,-0.094 -0.221,-0.147 -0.3536,-0.147 z M 62.5,232 l -0.3536,0.354 c 0.1953,0.195 0.5119,0.195 0.7072,0 z m 2.1967,-2.197 v -0.5 c -0.1326,0 -0.2598,0.053 -0.3536,0.147 z m 3.1066,0 v 0.5 c 0.2761,0 0.5,-0.224 0.5,-0.5 z m 0,-3.106 -0.3536,-0.354 c -0.0937,0.094 -0.1464,0.221 -0.1464,0.354 z M 70,224.5 l 0.3536,0.354 c 0.1952,-0.196 0.1952,-0.512 0,-0.708 z m -2.1967,-2.197 h -0.5 c 0,0.133 0.0527,0.26 0.1464,0.354 z m 0,-3.106 h 0.5 c 0,-0.276 -0.2239,-0.5 -0.5,-0.5 z m -3.1066,0 -0.3536,0.353 c 0.0938,0.094 0.221,0.147 0.3536,0.147 z M 62.5,217 62.8536,216.646 C 62.7598,216.553 62.6326,216.5 62.5,216.5 c -0.1326,0 -0.2598,0.053 -0.3536,0.146 z m -2.1967,2.197 v 0.5 c 0.1326,0 0.2598,-0.053 0.3536,-0.147 z m -3.1066,0 v -0.5 c -0.2761,0 -0.5,0.224 -0.5,0.5 z m -1.8431,5.657 2.1967,-2.197 -0.7072,-0.707 -2.1967,2.196 z m 2.1967,1.489 -2.1967,-2.197 -0.7072,0.708 2.1967,2.196 z m 0.1464,3.46 v -3.106 h -1 v 3.106 z m 2.6066,-0.5 h -3.1066 v 1 h 3.1066 z m 2.5503,2.343 -2.1967,-2.196 -0.7072,0.707 2.1967,2.197 z m 1.4895,-2.196 -2.1967,2.196 0.7072,0.708 2.1967,-2.197 z m 3.4602,-0.147 h -3.1066 v 1 h 3.1066 z m -0.5,-2.606 v 3.106 h 1 v -3.106 z m 2.3431,-2.551 -2.1967,2.197 0.7072,0.707 2.1967,-2.196 z m -2.1967,-1.489 2.1967,2.197 0.7072,-0.708 -2.1967,-2.196 z m -0.1464,-3.46 v 3.106 h 1 v -3.106 z m -2.6066,0.5 h 3.1066 v -1 h -3.1066 z m -2.5503,-2.343 2.1967,2.196 0.7072,-0.707 -2.1967,-2.197 z m -1.4895,2.196 2.1967,-2.196 -0.7072,-0.708 -2.1967,2.197 z m -3.4602,0.147 h 3.1066 v -1 h -3.1066 z m 0.5,2.606 v -3.106 h -1 v 3.106 z"
     fill="#808080"
     id="path25" />
  <path
     fill-rule="evenodd"
     clip-rule="evenodd"
     d="M 416.197,27.3033 414,29.5 l 2.197,2.1967 v 3.1066 h 3.106 L 421.5,37 l 2.197,-2.1967 h 3.106 V 31.6967 L 429,29.5 426.803,27.3033 v -3.1066 h -3.106 L 421.5,22 l -2.197,2.1967 h -3.106 z"
     fill="#f2f2f2"
     id="path26" />
  <path
     d="m 414,29.5 -0.354,-0.3536 c -0.195,0.1953 -0.195,0.5119 0,0.7072 z m 2.197,-2.1967 0.353,0.3536 c 0.094,-0.0938 0.147,-0.221 0.147,-0.3536 z m 0,4.3934 h 0.5 c 0,-0.1326 -0.053,-0.2598 -0.147,-0.3536 z m 0,3.1066 h -0.5 c 0,0.2761 0.224,0.5 0.5,0.5 z m 3.106,0 0.354,-0.3536 c -0.094,-0.0937 -0.221,-0.1464 -0.354,-0.1464 z M 421.5,37 l -0.354,0.3536 c 0.196,0.1952 0.512,0.1952 0.708,0 z m 2.197,-2.1967 v -0.5 c -0.133,0 -0.26,0.0527 -0.354,0.1464 z m 3.106,0 v 0.5 c 0.276,0 0.5,-0.2239 0.5,-0.5 z m 0,-3.1066 -0.353,-0.3536 c -0.094,0.0938 -0.147,0.221 -0.147,0.3536 z M 429,29.5 l 0.354,0.3536 c 0.195,-0.1953 0.195,-0.5119 0,-0.7072 z m -2.197,-2.1967 h -0.5 c 0,0.1326 0.053,0.2598 0.147,0.3536 z m 0,-3.1066 h 0.5 c 0,-0.2761 -0.224,-0.5 -0.5,-0.5 z m -3.106,0 -0.354,0.3536 c 0.094,0.0937 0.221,0.1464 0.354,0.1464 z M 421.5,22 421.854,21.6464 C 421.76,21.5527 421.633,21.5 421.5,21.5 c -0.133,0 -0.26,0.0527 -0.354,0.1464 z m -2.197,2.1967 v 0.5 c 0.133,0 0.26,-0.0527 0.354,-0.1464 z m -3.106,0 v -0.5 c -0.276,0 -0.5,0.2239 -0.5,0.5 z m -1.843,5.6569 2.196,-2.1967 -0.707,-0.7072 -2.197,2.1967 z m 2.196,1.4895 -2.196,-2.1967 -0.708,0.7072 2.197,2.1967 z m 0.147,3.4602 v -3.1066 h -1 v 3.1066 z m 2.606,-0.5 h -3.106 v 1 h 3.106 z m 2.551,2.3431 -2.197,-2.1967 -0.707,0.7072 2.196,2.1967 z m 1.489,-2.1967 -2.197,2.1967 0.708,0.7072 2.196,-2.1967 z m 3.46,-0.1464 h -3.106 v 1 h 3.106 z m -0.5,-2.6066 v 3.1066 h 1 v -3.1066 z m 2.343,-2.5503 -2.196,2.1967 0.707,0.7072 2.197,-2.1967 z m -2.196,-1.4895 2.196,2.1967 0.708,-0.7072 -2.197,-2.1966 z m -0.147,-3.4602 v 3.1066 h 1 v -3.1066 z m -2.606,0.5 h 3.106 v -1 h -3.106 z m -2.551,-2.3431 2.197,2.1967 0.707,-0.7072 -2.196,-2.1967 z m -1.489,2.1967 2.197,-2.1967 -0.708,-0.7072 -2.196,2.1967 z m -3.46,0.1464 h 3.106 v -1 h -3.106 z m 0.5,2.6066 v -3.1066 h -1 v 3.1066 z"
     fill="#808080"
     id="path27" />
  <path
     d="m 118,30 c 0,-2.7614 -2.239,-5 -5,-5 H 60 c -2.7614,0 -5,2.2386 -5,5 v 50 c 0,2.7614 2.2386,5 5,5 h 43 l 15,-15 z"
     fill="#ffffff"
     stroke="#808080"
     stroke-linejoin="round"
     id="path28" />
  <path
     d="m 103,70 h 15 l -15,15 z"
     fill="#f2f2f2"
     stroke="#808080"
     stroke-linejoin="round"
     id="path29" />
  <path
     d="m 74.7753,62.1634 0.3855,-0.3184 c -0.095,-0.115 -0.2364,-0.1816 -0.3855,-0.1816 -0.1492,0 -0.2906,0.0666 -0.3855,0.1816 z m 3.3708,4.0816 -0.3856,0.3184 c 0.095,0.115 0.2364,0.1816 0.3856,0.1816 0.1491,0 0.2905,-0.0666 0.3855,-0.1816 z M 88.2584,54.0001 88.644,53.6817 c -0.095,-0.115 -0.2364,-0.1816 -0.3856,-0.1816 -0.1491,0 -0.2905,0.0666 -0.3855,0.1816 z m 3.3708,4.0816 -0.3855,0.3184 c 0.0897,0.1086 0.221,0.1744 0.3617,0.1811 0.1408,0.0067 0.2778,-0.0463 0.3774,-0.1459 z M 110.711,39.5 c 0,-0.2761 -0.224,-0.5 -0.5,-0.5 h -4.5 c -0.276,0 -0.5,0.2239 -0.5,0.5 0,0.2762 0.224,0.5 0.5,0.5 h 4 v 4 c 0,0.2761 0.224,0.5 0.5,0.5 0.276,0 0.5,-0.2239 0.5,-0.5 z M 65.3855,74.3185 75.1608,62.4817 74.3898,61.845 64.6145,73.6817 Z m 9.0043,-11.8368 3.3707,4.0817 0.7711,-0.6368 -3.3708,-4.0816 z M 78.5316,66.5634 88.644,54.3185 87.8729,53.6817 77.7605,65.9266 Z m 9.3413,-12.2449 3.3708,4.0816 0.771,-0.6368 -3.3707,-4.0816 z m 4.1099,4.1168 18.5812,-18.5817 -0.707,-0.7072 -18.5813,18.5818 z"
     fill="#808080"
     id="path30" />
  <path
     d="M 80,35 H 65"
     stroke="#808080"
     stroke-width="2"
     stroke-linecap="round"
     stroke-linejoin="round"
     stroke-dasharray="0, 11"
     id="path31" />
  <path
     d="m 74.5,174.5 c 0.2761,0 0.5,-0.224 0.5,-0.5 0,-0.276 -0.2239,-0.5 -0.5,-0.5 z m -34.1464,50.854 c 0.1952,-0.196 0.1952,-0.512 0,-0.708 l -3.182,-3.182 c -0.1953,-0.195 -0.5119,-0.195 -0.7071,0 -0.1953,0.196 -0.1953,0.512 0,0.708 l 2.8284,2.828 -2.8284,2.828 c -0.1953,0.196 -0.1953,0.512 0,0.708 0.1952,0.195 0.5118,0.195 0.7071,0 z M 74.5,173.5 h -51 v 1 h 51 z m -51,18 h 8 v -1 h -8 z m 8,16 h -8 v 1 h 8 z m -8,18 H 40 v -1 H 23.5 Z m -9,-9 c 0,4.971 4.0294,9 9,9 v -1 c -4.4183,0 -8,-3.582 -8,-8 z m 9,-9 c -4.9706,0 -9,4.029 -9,9 h 1 c 0,-4.418 3.5817,-8 8,-8 z m 16,-8 c 0,4.418 -3.5817,8 -8,8 v 1 c 4.9706,0 9,-4.029 9,-9 z m -8,-8 c 4.4183,0 8,3.582 8,8 h 1 c 0,-4.971 -4.0294,-9 -9,-9 z m -17,-9 c 0,4.971 4.0294,9 9,9 v -1 c -4.4183,0 -8,-3.582 -8,-8 z m 9,-9 c -4.9706,0 -9,4.029 -9,9 h 1 c 0,-4.418 3.5817,-8 8,-8 z"
     fill="#808080"
     id="path32" />
  <path
     fill-rule="evenodd"
     clip-rule="evenodd"
     d="M 37.9826,33.0153 C 37.9941,32.845 38,32.6732 38,32.5 38,28.3579 34.6421,25 30.5,25 26.3579,25 23,28.3579 23,32.5 c 0,0.168 0.0055,0.3347 0.0164,0.5 H 22.5 c -4.1421,0 -7.5,3.3579 -7.5,7.5 0,4.1421 3.3579,7.5 7.5,7.5 h 15 c 4.1421,0 7.5,-3.3579 7.5,-7.5 0,-3.98 -3.1002,-7.236 -7.0174,-7.4847 z"
     fill="#ffffff"
     id="path33" />
  <path
     d="m 37.9826,33.0153 -0.4989,-0.0339 c -0.009,0.1327 0.0352,0.2635 0.1229,0.3635 0.0877,0.1 0.2116,0.1609 0.3443,0.1694 z M 23.0164,33 v 0.5 c 0.1383,0 0.2704,-0.0573 0.365,-0.1583 0.0945,-0.1009 0.143,-0.2365 0.1339,-0.3745 z M 37.5,32.5 c 0,0.1619 -0.0055,0.3224 -0.0163,0.4814 l 0.9977,0.0677 C 38.4937,32.8676 38.5,32.6845 38.5,32.5 Z m -7,-7 c 3.866,0 7,3.134 7,7 h 1 c 0,-4.4183 -3.5817,-8 -8,-8 z m -7,7 c 0,-3.866 3.134,-7 7,-7 v -1 c -4.4183,0 -8,3.5817 -8,8 z m 0.0153,0.4672 C 23.5052,32.8128 23.5,32.6571 23.5,32.5 h -1 c 0,0.179 0.0059,0.3567 0.0175,0.5328 z M 22.5,33.5 h 0.5164 v -1 H 22.5 Z m -7,7 c 0,-3.866 3.134,-7 7,-7 v -1 c -4.4183,0 -8,3.5817 -8,8 z m 7,7 c -3.866,0 -7,-3.134 -7,-7 h -1 c 0,4.4183 3.5817,8 8,8 z m 15,0 h -15 v 1 h 15 z m 7,-7 c 0,3.866 -3.134,7 -7,7 v 1 c 4.4183,0 8,-3.5817 8,-8 z M 37.9509,33.5143 C 41.6065,33.7464 44.5,36.7855 44.5,40.5 h 1 c 0,-4.2456 -3.3069,-7.7183 -7.4857,-7.9837 z"
     fill="#808080"
     id="path34" />
  <path
     d="m 419.348,49.5 c -0.276,0 -0.5,-0.2239 -0.5,-0.5 0,-0.2761 0.224,-0.5 0.5,-0.5 z m 15.353,28.9885 c 0.195,0.1953 0.195,0.5119 0,0.7071 l -3.182,3.182 c -0.195,0.1953 -0.512,0.1953 -0.707,0 -0.195,-0.1953 -0.195,-0.5118 0,-0.7071 l 2.829,-2.8284 -2.829,-2.8285 c -0.195,-0.1952 -0.195,-0.5118 0,-0.7071 0.195,-0.1952 0.512,-0.1952 0.707,0 z M 419.348,48.5 h 7.5 v 1 h -7.5 z m 7.5,16 h -9.427 v -1 h 9.427 z m -9.427,13.8421 h 16.927 v 1 H 417.421 Z M 410.5,71.421 c 0,3.8224 3.098,6.9211 6.921,6.9211 v 1 c -4.375,0 -7.921,-3.5464 -7.921,-7.9211 z m 6.921,-6.921 c -3.823,0 -6.921,3.0987 -6.921,6.921 h -1 c 0,-4.3746 3.546,-7.921 7.921,-7.921 z m 17.427,-8 c 0,4.4183 -3.582,8 -8,8 v -1 c 3.866,0 7,-3.134 7,-7 z m -8,-8 c 4.418,0 8,3.5817 8,8 h -1 c 0,-3.866 -3.134,-7 -7,-7 z"
     fill="#808080"
     id="path35" />
  <circle
     cx="417.5"
     cy="224.5"
     r="7.5"
     fill="#f2f2f2"
     stroke="#808080"
     stroke-linejoin="round"
     id="circle35" />
  <circle
     cx="417.5"
     cy="199.5"
     r="7.5"
     fill="#ffffff"
     stroke="#808080"
     stroke-linejoin="round"
     id="circle36" />
  <path
     d="M 279,26 H 256"
     stroke="#808080"
     stroke-width="2"
     stroke-linecap="round"
     stroke-linejoin="round"
     stroke-dasharray="0, 11"
     id="path36" />
  <circle
     cx="240"
     cy="26"
     r="4"
     fill="#f2f2f2"
     stroke="#808080"
     stroke-linejoin="round"
     id="circle37" />
  <circle
     cx="307"
     cy="178"
     r="5"
     fill="#ffffff"
     stroke="#808080"
     stroke-linejoin="round"
     id="circle38" />
  <circle
     cx="417"
     cy="178"
     r="5"
     fill="#f2f2f2"
     stroke="#808080"
     stroke-linejoin="round"
     id="circle39" />
  <circle
     cx="307"
     cy="203"
     r="5"
     fill="#f2f2f2"
     stroke="#808080"
     stroke-linejoin="round"
     id="circle40" />
  <circle
     cx="307"
     cy="228"
     r="5"
     fill="#ffffff"
     stroke="#808080"
     stroke-linejoin="round"
     id="circle41" />
  <circle
     cx="222"
     cy="26"
     r="4"
     fill="#f2f2f2"
     stroke="#808080"
     stroke-linejoin="round"
     id="circle42" />
  <circle
     cx="222"
     cy="53"
     r="4"
     fill="#ffffff"
     stroke="#808080"
     stroke-linejoin="round"
     id="circle43" />
  <path
     d="M 225,232 H 195"
     stroke="#808080"
     stroke-width="2"
     stroke-linecap="round"
     stroke-linejoin="round"
     stroke-dasharray="0, 11"
     id="path43" />
  <path
     d="m 199,26.6364 v 7.7272 h -8.095 V 39 L 182,30.5 190.905,22 v 4.6364 z"
     fill="#ffffff"
     stroke="#808080"
     stroke-linecap="round"
     stroke-linejoin="round"
     id="path44" />
  <path
     d="m 240,172 h 50 v 35.029 c 0,8.268 -6.703,14.971 -14.971,14.971 -2.784,0 -5.339,1.546 -6.631,4.012 L 265,232.5 262.063,226.333 C 260.803,223.686 258.133,222 255.201,222 246.806,222 240,215.194 240,206.799 Z"
     fill="#f2f2f2"
     stroke="#808080"
     stroke-linejoin="round"
     id="path45" />
  <path
     d="m 250,182 h 30 v 20 c 0,5.523 -4.477,10 -10,10 h -10 c -5.523,0 -10,-4.477 -10,-10 z"
     fill="#ffffff"
     stroke="#808080"
     stroke-linejoin="round"
     id="path46" />
  <path
     fill-rule="evenodd"
     clip-rule="evenodd"
     d="M 220.303,81.8033 222.5,84 l 2.197,-2.1967 h 3.106 V 78.6967 L 230,76.5 227.803,74.3033 v -3.1066 h -3.106 L 222.5,69 l -2.197,2.1967 h -3.106 v 3.1066 L 215,76.5 l 2.197,2.1967 v 3.1066 z"
     fill="#ffffff"
     id="path47" />
  <path
     d="m 222.5,84 -0.354,0.3536 c 0.196,0.1952 0.512,0.1952 0.708,0 z m -2.197,-2.1967 0.354,-0.3536 c -0.094,-0.0937 -0.221,-0.1464 -0.354,-0.1464 z m 4.394,0 v -0.5 c -0.133,0 -0.26,0.0527 -0.354,0.1464 z m 3.106,0 v 0.5 c 0.276,0 0.5,-0.2239 0.5,-0.5 z m 0,-3.1066 -0.353,-0.3536 c -0.094,0.0938 -0.147,0.221 -0.147,0.3536 z M 230,76.5 l 0.354,0.3536 c 0.195,-0.1953 0.195,-0.5119 0,-0.7072 z m -2.197,-2.1967 h -0.5 c 0,0.1326 0.053,0.2598 0.147,0.3536 z m 0,-3.1066 h 0.5 c 0,-0.2761 -0.224,-0.5 -0.5,-0.5 z m -3.106,0 -0.354,0.3535 c 0.094,0.0938 0.221,0.1465 0.354,0.1465 z M 222.5,69 l 0.354,-0.3536 c -0.196,-0.1952 -0.512,-0.1952 -0.708,0 z m -2.197,2.1967 v 0.5 c 0.133,0 0.26,-0.0527 0.354,-0.1465 z m -3.106,0 v -0.5 c -0.276,0 -0.5,0.2239 -0.5,0.5 z m 0,3.1066 0.353,0.3536 c 0.094,-0.0938 0.147,-0.221 0.147,-0.3536 z M 215,76.5 214.646,76.1464 c -0.093,0.0938 -0.146,0.221 -0.146,0.3536 0,0.1326 0.053,0.2598 0.146,0.3536 z m 2.197,2.1967 h 0.5 c 0,-0.1326 -0.053,-0.2598 -0.147,-0.3536 z m 0,3.1066 h -0.5 c 0,0.2761 0.224,0.5 0.5,0.5 z m 5.657,1.8431 -2.197,-2.1967 -0.707,0.7072 2.196,2.1967 z m 1.489,-2.1967 -2.197,2.1967 0.708,0.7072 2.196,-2.1967 z m 3.46,-0.1464 h -3.106 v 1 h 3.106 z m -0.5,-2.6066 v 3.1066 h 1 v -3.1066 z m 2.343,-2.5503 -2.196,2.1967 0.707,0.7072 2.197,-2.1967 z m -2.196,-1.4895 2.196,2.1967 0.708,-0.7072 -2.197,-2.1967 z m -0.147,-3.4602 v 3.1066 h 1 v -3.1066 z m -2.606,0.5 h 3.106 v -1 h -3.106 z m -2.551,-2.3431 2.197,2.1966 0.707,-0.7071 -2.196,-2.1967 z m -1.489,2.1966 2.197,-2.1966 -0.708,-0.7072 -2.196,2.1967 z m -3.46,0.1465 h 3.106 v -1 h -3.106 z m 0.5,2.6066 v -3.1066 h -1 v 3.1066 z m -2.343,2.5503 2.196,-2.1967 -0.707,-0.7072 -2.197,2.1967 z m 2.196,1.4895 -2.196,-2.1967 -0.708,0.7072 2.197,2.1967 z m 0.147,3.4602 v -3.1066 h -1 v 3.1066 z m 2.606,-0.5 h -3.106 v 1 h 3.106 z"
     fill="#808080"
     id="path48" />
  <path
     fill-rule="evenodd"
     clip-rule="evenodd"
     d="M 32.6967,61.1967 30.5,59 28.3033,61.1967 h -3.1066 v 3.1066 L 23,66.5 l 2.1967,2.1967 v 3.1066 h 3.1066 L 30.5,74 32.6967,71.8033 h 3.1066 V 68.6967 L 38,66.5 35.8033,64.3033 v -3.1066 z"
     fill="#f2f2f2"
     id="path49" />
  <path
     d="m 30.5,59 0.3536,-0.3536 c -0.1953,-0.1952 -0.5119,-0.1952 -0.7072,0 z m 2.1967,2.1967 -0.3536,0.3536 c 0.0938,0.0937 0.221,0.1464 0.3536,0.1464 z m -4.3934,0 v 0.5 c 0.1326,0 0.2598,-0.0527 0.3536,-0.1464 z m -3.1066,0 v -0.5 c -0.2761,0 -0.5,0.2239 -0.5,0.5 z m 0,3.1066 0.3536,0.3536 c 0.0937,-0.0938 0.1464,-0.221 0.1464,-0.3536 z M 23,66.5 22.6464,66.1464 c -0.1952,0.1953 -0.1952,0.5119 0,0.7072 z m 2.1967,2.1967 h 0.5 c 0,-0.1326 -0.0527,-0.2598 -0.1464,-0.3536 z m 0,3.1066 h -0.5 c 0,0.2761 0.2239,0.5 0.5,0.5 z m 3.1066,0 0.3536,-0.3536 C 28.5631,71.356 28.4359,71.3033 28.3033,71.3033 Z M 30.5,74 30.1464,74.3536 c 0.1953,0.1952 0.5119,0.1952 0.7072,0 z m 2.1967,-2.1967 v -0.5 c -0.1326,0 -0.2598,0.0527 -0.3536,0.1464 z m 3.1066,0 v 0.5 c 0.2761,0 0.5,-0.2239 0.5,-0.5 z m 0,-3.1066 -0.3536,-0.3536 c -0.0937,0.0938 -0.1464,0.221 -0.1464,0.3536 z M 38,66.5 38.3536,66.8536 C 38.4473,66.7598 38.5,66.6326 38.5,66.5 c 0,-0.1326 -0.0527,-0.2598 -0.1464,-0.3536 z m -2.1967,-2.1967 h -0.5 c 0,0.1326 0.0527,0.2598 0.1464,0.3536 z m 0,-3.1066 h 0.5 c 0,-0.2761 -0.2239,-0.5 -0.5,-0.5 z m -5.6569,-1.8431 2.1967,2.1967 0.7072,-0.7072 -2.1967,-2.1967 z m -1.4895,2.1967 2.1967,-2.1967 -0.7072,-0.7072 -2.1967,2.1967 z m -3.4602,0.1464 h 3.1066 v -1 h -3.1066 z m 0.5,2.6066 v -3.1066 h -1 v 3.1066 z m -2.3431,2.5503 2.1967,-2.1967 -0.7072,-0.7072 -2.1967,2.1967 z m 2.1967,1.4895 -2.1967,-2.1967 -0.7072,0.7072 2.1967,2.1967 z m 0.1464,3.4602 v -3.1066 h -1 v 3.1066 z m 2.6066,-0.5 h -3.1066 v 1 h 3.1066 z m 2.5503,2.3431 -2.1967,-2.1967 -0.7072,0.7072 2.1967,2.1967 z m 1.4895,-2.1967 -2.1967,2.1967 0.7072,0.7072 2.1966,-2.1967 z m 3.4602,-0.1464 h -3.1066 v 1 h 3.1066 z m -0.5,-2.6066 v 3.1066 h 1 v -3.1066 z m 2.3431,-2.5503 -2.1967,2.1967 0.7072,0.7072 2.1967,-2.1967 z m -2.1967,-1.4895 2.1967,2.1967 0.7072,-0.7072 -2.1967,-2.1967 z m -0.1464,-3.4602 v 3.1066 h 1 v -3.1066 z m -2.6066,0.5 h 3.1066 v -1 h -3.1066 z"
     fill="#808080"
     id="path50" />
  <circle
     cx="265"
     cy="195"
     r="4"
     fill="#ffffff"
     stroke="#808080"
     stroke-linejoin="round"
     id="circle50" />
  <path
     d="m 265,199 v 4"
     stroke="#808080"
     stroke-linecap="round"
     stroke-linejoin="round"
     id="path51" />
  <path
     d="M 191.817,151 180.349,121.903 V 151 h -8.418 v -43.798 h 11.102 l 12.688,32.452 12.749,-32.452 h 11.102 V 151 h -8.418 V 121.659 L 199.564,151 Z m 43.964,-40.138 c 0,2.867 -2.318,5.002 -5.673,5.002 -3.294,0 -5.612,-2.135 -5.612,-5.002 0,-2.989 2.318,-5.124 5.612,-5.124 3.355,0 5.673,2.135 5.673,5.124 z M 234.439,151 h -8.479 v -32.574 h 8.479 z m 4.801,-16.287 c 0,-9.638 5.673,-16.897 14.457,-16.897 3.904,0 7.198,1.708 9.638,4.819 v -15.433 h 8.418 V 151 h -7.747 v -4.697 c -2.562,3.416 -6.1,5.307 -10.309,5.307 -8.784,0 -14.457,-7.381 -14.457,-16.897 z m 8.723,0 c 0,6.1 3.477,9.333 7.625,9.333 4.209,0 7.686,-3.294 7.686,-9.455 0,-6.161 -3.538,-9.272 -7.686,-9.272 -4.148,0 -7.625,3.172 -7.625,9.394 z m 44.29,16.836 c -9.76,0 -16.287,-6.771 -16.287,-16.958 0,-9.699 6.771,-16.775 16.165,-16.775 10.309,0 17.141,8.357 15.616,18.971 h -23.119 c 0.549,5.307 3.111,8.235 7.442,8.235 3.721,0 6.222,-1.83 7.198,-5.063 h 8.418 c -1.83,7.381 -7.503,11.59 -15.433,11.59 z m -0.305,-27.511 c -3.965,0 -6.466,2.562 -7.198,7.381 h 14.03 c -0.244,-4.514 -2.806,-7.381 -6.832,-7.381 z m 28.737,9.211 V 151 h -8.479 v -32.574 h 7.808 v 4.636 c 2.379,-3.233 5.734,-5.246 10.004,-5.246 6.527,0 11.041,4.27 11.041,12.139 V 151 h -8.418 v -18.178 c 0,-4.819 -1.891,-7.503 -5.734,-7.503 -3.355,0 -6.222,2.684 -6.222,7.93 z"
     fill="#1a1a1a"
     id="path52" />
  <circle
     cx="132.5"
     cy="128.5"
     r="29.5"
     fill="url(#paint0_linear_1864_2625)"
     id="circle52"
     style="fill:url(#paint0_linear_1864_2625)" />
  <path
     d="m 140.016,134.423 7.353,-4.484 c 0.39,-0.238 0.631,-0.68 0.631,-1.154 v -8.969 c 0,-0.474 -0.241,-0.916 -0.631,-1.154 l -7.353,-4.484 c -0.39,-0.238 -0.873,-0.236 -1.261,0 l -7.353,4.484 c -0.39,0.238 -0.631,0.68 -0.631,1.154 v 16.027 l -5.157,3.143 -5.156,-3.143 v -6.288 l 5.156,-3.143 3.401,2.075 v -4.219 l -2.77,-1.69 c -0.19,-0.116 -0.409,-0.179 -0.631,-0.179 -0.221,0 -0.44,0.063 -0.63,0.179 l -7.353,4.484 c -0.39,0.238 -0.631,0.68 -0.631,1.154 v 8.969 c 0,0.474 0.241,0.916 0.631,1.154 l 7.353,4.484 c 0.39,0.236 0.871,0.236 1.261,0 l 7.353,-4.484 c 0.39,-0.238 0.631,-0.68 0.631,-1.154 v -16.027 l 0.092,-0.056 5.062,-3.087 5.157,3.143 v 6.288 l -5.157,3.143 -3.396,-2.07 v 4.218 l 2.766,1.686 c 0.39,0.236 0.873,0.236 1.261,0 z"
     fill="url(#paint1_linear_1864_2625)"
     id="path53"
     style="fill:url(#paint1_linear_1864_2625)" />
  <path
     d="m 33.3477,126 h 5.4387 c 4.2647,0 8.2089,2.263 10.3607,5.945 L 50.3477,134 h -5.5368 c -4.4387,0 -8.5149,-2.45 -10.5974,-6.37 z"
     fill="#f2f2f2"
     stroke="#808080"
     stroke-linejoin="round"
     id="path54" />
  <path
     d="m 78.3477,126 h -4.5048 c -4.3763,0 -8.4056,2.382 -10.5146,6.217 L 62.3477,134 h 4.5835 c 4.5453,0 8.7005,-2.568 10.7332,-6.633 z"
     fill="#f2f2f2"
     stroke="#808080"
     stroke-linejoin="round"
     id="path55" />
  <path
     d="m 31.3477,124 h 5.4387 c 4.2647,0 8.2089,2.263 10.3607,5.945 L 48.3477,132 h -5.5368 c -4.4387,0 -8.5149,-2.45 -10.5974,-6.37 z"
     fill="#ffffff"
     stroke="#808080"
     stroke-linejoin="round"
     id="path56" />
  <path
     d="m 76.3477,124 h -4.5048 c -4.3763,0 -8.4056,2.382 -10.5146,6.217 L 60.3477,132 h 4.5835 c 4.5453,0 8.7005,-2.568 10.7332,-6.633 z"
     fill="#ffffff"
     stroke="#808080"
     stroke-linejoin="round"
     id="path57" />
  <path
     d="m 33,126 h 5.4388 c 4.2646,0 8.2089,2.263 10.3606,5.945 L 50,134 h -5.5367 c -4.4388,0 -8.515,-2.45 -10.5974,-6.37 z"
     fill="#f2f2f2"
     stroke="#808080"
     stroke-linejoin="round"
     id="path58" />
  <path
     d="m 78,126 h -4.5047 c -4.3763,0 -8.4056,2.382 -10.5146,6.217 L 62,134 h 4.5836 c 4.5453,0 8.7004,-2.568 10.7331,-6.633 z"
     fill="#f2f2f2"
     stroke="#808080"
     stroke-linejoin="round"
     id="path59" />
  <path
     d="M 33.2986,105.425 23,108 v 16 c 0,16.569 13.4315,30 30,30 16.5685,0 30,-13.431 30,-30 V 108 L 72.7014,105.425 C 66.2581,103.815 59.6416,103 53,103 c -6.6416,0 -13.2581,0.815 -19.7014,2.425 z"
     fill="#ffffff"
     stroke="#808080"
     stroke-linejoin="round"
     id="path60" />
  <path
     d="m 31.6523,124.25 1.4983,-1.082 c 4.2559,-3.074 10.0161,-3.025 14.2187,0.121 l 1.283,0.961 -1.283,0.961 c -4.2026,3.146 -9.9628,3.195 -14.2187,0.121 z"
     fill="#f2f2f2"
     stroke="#808080"
     stroke-linejoin="round"
     id="path61" />
  <path
     d="m 31.5077,114.993 1.7273,-0.658 c 4.9065,-1.868 10.4577,-0.329 13.7028,3.798 l 0.9907,1.26"
     stroke="#808080"
     stroke-linejoin="round"
     id="path62" />
  <path
     d="m 74.2892,114.993 -1.7273,-0.658 c -4.9066,-1.868 -10.4578,-0.329 -13.7028,3.798 l -0.9907,1.26"
     stroke="#808080"
     stroke-linejoin="round"
     id="path63" />
  <path
     d="m 56.6523,124.25 1.4983,-1.082 c 4.2559,-3.074 10.0161,-3.025 14.2187,0.121 l 1.283,0.961 -1.283,0.961 c -4.2026,3.146 -9.9628,3.195 -14.2187,0.121 z"
     fill="#f2f2f2"
     stroke="#808080"
     stroke-linejoin="round"
     id="path64" />
  <path
     d="m 57,130 h -7 l 3.5,-3 z"
     fill="#f2f2f2"
     stroke="#808080"
     stroke-linejoin="round"
     id="path65" />
  <path
     d="m 51.5,133 -0.7782,0.778 C 48.6589,135.841 45.861,137 42.9437,137 h -2.3874 c -2.9173,0 -5.7152,-1.159 -7.7781,-3.222 L 32,133"
     stroke="#808080"
     stroke-linejoin="round"
     id="path66" />
  <path
     d="m 74.5,133 -0.7782,0.778 C 71.6589,135.841 68.861,137 65.9437,137 h -2.3874 c -2.9173,0 -5.7152,-1.159 -7.7781,-3.222 L 55,133"
     stroke="#808080"
     stroke-linejoin="round"
     id="path67" />
  <path
     d="m 57,143 h -7 l 1.2727,11 h 4.4546 z"
     fill="#f2f2f2"
     stroke="#808080"
     stroke-linejoin="round"
     id="path68" />
  <path
     d="m 375.348,126 h 5.438 c 4.265,0 8.209,2.263 10.361,5.945 l 1.201,2.055 h -5.537 c -4.439,0 -8.515,-2.45 -10.597,-6.37 z"
     fill="#f2f2f2"
     stroke="#808080"
     stroke-linejoin="round"
     id="path69" />
  <path
     d="m 420.348,126 h -4.505 c -4.376,0 -8.406,2.382 -10.515,6.217 l -0.98,1.783 h 4.583 c 4.546,0 8.701,-2.568 10.733,-6.633 z"
     fill="#f2f2f2"
     stroke="#808080"
     stroke-linejoin="round"
     id="path70" />
  <path
     d="m 373.348,124 h 5.438 c 4.265,0 8.209,2.263 10.361,5.945 l 1.201,2.055 h -5.537 c -4.439,0 -8.515,-2.45 -10.597,-6.37 z"
     fill="#ffffff"
     stroke="#808080"
     stroke-linejoin="round"
     id="path71" />
  <path
     d="m 418.348,124 h -4.505 c -4.376,0 -8.406,2.382 -10.515,6.217 l -0.98,1.783 h 4.583 c 4.546,0 8.701,-2.568 10.733,-6.633 z"
     fill="#ffffff"
     stroke="#808080"
     stroke-linejoin="round"
     id="path72" />
  <path
     d="m 375,126 h 5.439 c 4.264,0 8.209,2.263 10.36,5.945 L 392,134 h -5.537 c -4.438,0 -8.515,-2.45 -10.597,-6.37 z"
     fill="#f2f2f2"
     stroke="#808080"
     stroke-linejoin="round"
     id="path73" />
  <path
     d="m 420,126 h -4.505 c -4.376,0 -8.405,2.382 -10.514,6.217 L 404,134 h 4.584 c 4.545,0 8.7,-2.568 10.733,-6.633 z"
     fill="#f2f2f2"
     stroke="#808080"
     stroke-linejoin="round"
     id="path74" />
  <path
     d="M 375.299,105.425 365,108 v 16 c 0,16.569 13.431,30 30,30 16.569,0 30,-13.431 30,-30 v -16 l -10.299,-2.575 C 408.258,103.815 401.642,103 395,103 c -6.642,0 -13.258,0.815 -19.701,2.425 z"
     fill="#f2f2f2"
     stroke="#808080"
     stroke-linejoin="round"
     id="path75" />
  <path
     d="m 373.652,124.25 1.499,-1.082 c 4.255,-3.074 10.016,-3.025 14.218,0.121 l 1.283,0.961 -1.283,0.961 c -4.202,3.146 -9.963,3.195 -14.218,0.121 z"
     fill="#ffffff"
     stroke="#808080"
     stroke-linejoin="round"
     id="path76" />
  <path
     d="m 373.508,114.993 1.727,-0.658 c 4.907,-1.868 10.458,-0.329 13.703,3.798 l 0.99,1.26"
     stroke="#808080"
     stroke-linejoin="round"
     id="path77" />
  <path
     d="m 416.289,114.993 -1.727,-0.658 c -4.907,-1.868 -10.458,-0.329 -13.703,3.798 l -0.991,1.26"
     stroke="#808080"
     stroke-linejoin="round"
     id="path78" />
  <path
     d="m 398.652,124.25 1.499,-1.082 c 4.255,-3.074 10.016,-3.025 14.218,0.121 l 1.283,0.961 -1.283,0.961 c -4.202,3.146 -9.963,3.195 -14.218,0.121 z"
     fill="#ffffff"
     stroke="#808080"
     stroke-linejoin="round"
     id="path79" />
  <path
     d="m 399,130 h -7 l 3.5,-3 z"
     fill="#ffffff"
     stroke="#808080"
     stroke-linejoin="round"
     id="path80" />
  <path
     d="m 393.5,133 -0.778,0.778 c -2.063,2.063 -4.861,3.222 -7.778,3.222 h -2.388 c -2.917,0 -5.715,-1.159 -7.778,-3.222 L 374,133"
     stroke="#808080"
     stroke-linejoin="round"
     id="path81" />
  <path
     d="m 416.5,133 -0.778,0.778 c -2.063,2.063 -4.861,3.222 -7.778,3.222 h -2.388 c -2.917,0 -5.715,-1.159 -7.778,-3.222 L 397,133"
     stroke="#808080"
     stroke-linejoin="round"
     id="path82" />
  <path
     d="m 399,143 h -7 l 1.273,11 h 4.454 z"
     fill="#ffffff"
     stroke="#808080"
     stroke-linejoin="round"
     id="path83" />
  <defs
     id="defs87">
    <linearGradient
       id="paint0_linear_1864_2625"
       x1="102.808"
       y1="147.957"
       x2="162.715"
       y2="117.156"
       gradientUnits="userSpaceOnUse">
      <stop
         stop-color="#A726C1"
         id="stop83" />
      <stop
         offset="0.88"
         stop-color="#803BDF"
         id="stop84" />
      <stop
         offset="1"
         stop-color="#7B3FE4"
         id="stop85" />
    </linearGradient>
    <linearGradient
       id="paint1_linear_1864_2625"
       x1="132.5"
       y1="114"
       x2="132.5"
       y2="172.5"
       gradientUnits="userSpaceOnUse">
      <stop
         stop-color="white"
         id="stop86" />
      <stop
         offset="1"
         stop-color="white"
         stop-opacity="0"
         id="stop87" />
    </linearGradient>
  </defs>
</svg>
