<svg width="450" height="255" viewBox="0 0 450 255" fill="none" xmlns="http://www.w3.org/2000/svg">
<path d="M85 192C85 189.239 87.2386 187 90 187L164 187C166.761 187 169 189.239 169 192V227C169 229.761 166.761 232 164 232H90C87.2386 232 85 229.761 85 227L85 192Z" stroke="#808080" stroke-linejoin="round"/>
<rect x="288" y="22" width="115" height="49" rx="5" fill="#E6E6E6" stroke="#333333" stroke-linejoin="round"/>
<path d="M244 75C244 80.5228 248.477 85 254 85H384C386.761 85 389 82.7614 389 80V49C389 43.4772 384.523 39 379 39H229L242.412 51.5175C243.425 52.4631 244 53.7869 244 55.1728V75Z" fill="white" stroke="#333333" stroke-linejoin="round"/>
<path d="M225 177C225 174.239 222.761 172 220 172H105C102.239 172 100 174.239 100 177V212C100 214.761 102.239 217 105 217H210L225 202V177Z" fill="white" stroke="#333333" stroke-linejoin="round"/>
<path d="M210 202H225L210 217V202Z" fill="#E6E6E6" stroke="#333333" stroke-linejoin="round"/>
<rect x="325" y="173" width="70" height="59" rx="5" fill="#E6E6E6" stroke="#333333" stroke-linejoin="round"/>
<rect x="330" y="188" width="60" height="39" fill="white" stroke="#333333" stroke-linejoin="round"/>
<path d="M342 181L331 181" stroke="#333333" stroke-width="2" stroke-linecap="round" stroke-linejoin="round" stroke-dasharray="0 11"/>
<path d="M345 198L355 205.5L345 213M360 213H370" stroke="#333333" stroke-linecap="round" stroke-linejoin="round"/>
<path d="M110 187.895L122.316 180L134.631 187.895L122.316 195.79L110 187.895Z" fill="white" stroke="#333333" stroke-linejoin="round"/>
<path d="M122.316 210L110 202.537V187.895L122.316 195.358V210Z" fill="white" stroke="#333333" stroke-linejoin="round"/>
<path d="M122.316 210L134.631 202.537V187.895L122.316 195.358V210Z" fill="#E6E6E6" stroke="#333333" stroke-linejoin="round"/>
<path d="M144.631 187.895L156.947 180L169.263 187.895L156.947 195.79L144.631 187.895Z" fill="white" stroke="#333333" stroke-linejoin="round"/>
<path d="M156.947 210L144.631 202.537V187.895L156.947 195.358V210Z" fill="white" stroke="#333333" stroke-linejoin="round"/>
<path d="M156.947 210L169.263 202.537V187.895L156.947 195.358V210Z" fill="#E6E6E6" stroke="#333333" stroke-linejoin="round"/>
<path d="M179.263 187.895L191.578 180L203.894 187.895L191.578 195.79L179.263 187.895Z" fill="white" stroke="#333333" stroke-linejoin="round"/>
<path d="M191.578 210L179.263 202.537V187.895L191.578 195.358V210Z" fill="white" stroke="#333333" stroke-linejoin="round"/>
<path d="M191.578 210L203.894 202.537V187.895L191.578 195.358V210Z" fill="#E6E6E6" stroke="#333333" stroke-linejoin="round"/>
<rect x="258" y="67" width="15" height="8" rx="4" fill="#E6E6E6" stroke="#333333" stroke-linejoin="round"/>
<rect x="283" y="63" width="15" height="12" rx="5" fill="#E6E6E6" stroke="#333333" stroke-linejoin="round"/>
<rect x="308" y="59" width="15" height="16" rx="5" fill="#E6E6E6" stroke="#333333" stroke-linejoin="round"/>
<rect x="333" y="55" width="15" height="20" rx="5" fill="#E6E6E6" stroke="#333333" stroke-linejoin="round"/>
<rect x="358" y="49" width="15" height="26" rx="5" fill="#E6E6E6" stroke="#333333" stroke-linejoin="round"/>
<circle cx="62.5" cy="199.5" r="7.5" fill="white" stroke="#333333" stroke-linejoin="round"/>
<circle cx="148.5" cy="44.5" r="7.5" fill="white" stroke="#333333" stroke-linejoin="round"/>
<path fill-rule="evenodd" clip-rule="evenodd" d="M145 61C145 63.2091 146.791 65 149 65C151.209 65 153 63.2091 153 61V58.2882C153.883 58.0001 154.729 57.6295 155.529 57.1855L157.485 59.142C159.047 60.7041 161.58 60.7041 163.142 59.142C164.704 57.5799 164.704 55.0473 163.142 53.4852L161.186 51.5287C161.63 50.7291 162 49.8832 162.288 49H165C167.209 49 169 47.2091 169 45C169 42.7909 167.209 41 165 41H162.575C162.326 39.9975 161.974 39.0362 161.529 38.1282L163.142 36.5147C164.704 34.9526 164.704 32.42 163.142 30.8579C161.58 29.2958 159.047 29.2958 157.485 30.8579L156.158 32.185C155.178 31.5739 154.119 31.0767 153 30.7118V29C153 26.7909 151.209 25 149 25C146.791 25 145 26.7909 145 29V30.4252C143.752 30.7345 142.568 31.2054 141.471 31.8144L140.515 30.8578C138.953 29.2957 136.42 29.2957 134.858 30.8578C133.296 32.4199 133.296 34.9525 134.858 36.5146L135.814 37.4712C135.205 38.568 134.735 39.7521 134.425 41H133C130.791 41 129 42.7909 129 45C129 47.2091 130.791 49 133 49H134.712C135.077 50.1187 135.574 51.1776 136.185 52.1582L134.858 53.4853C133.296 55.0474 133.296 57.5801 134.858 59.1421C136.42 60.7042 138.953 60.7042 140.515 59.1421L142.128 57.5286C143.036 57.9735 143.998 58.3263 145 58.5748V61Z" fill="#E6E6E6"/>
<path d="M153 58.2882L152.845 57.8128C152.639 57.8799 152.5 58.0718 152.5 58.2882H153ZM155.529 57.1855L155.882 56.832C155.725 56.6742 155.481 56.6401 155.286 56.7484L155.529 57.1855ZM163.142 53.4852L162.789 53.8387L162.789 53.8387L163.142 53.4852ZM161.186 51.5287L160.748 51.2859C160.64 51.4811 160.674 51.7244 160.832 51.8822L161.186 51.5287ZM162.288 49V48.5C162.072 48.5 161.88 48.6392 161.813 48.845L162.288 49ZM162.575 41L162.089 41.1203C162.145 41.3433 162.345 41.5 162.575 41.5V41ZM161.529 38.1282L161.175 37.7747C161.024 37.9258 160.986 38.1563 161.08 38.3482L161.529 38.1282ZM163.142 36.5147L163.496 36.8683L163.496 36.8683L163.142 36.5147ZM163.142 30.8579L163.496 30.5043L163.496 30.5043L163.142 30.8579ZM157.485 30.8579L157.132 30.5043L157.132 30.5043L157.485 30.8579ZM156.158 32.185L155.894 32.6093C156.091 32.7323 156.347 32.703 156.512 32.5385L156.158 32.185ZM153 30.7118H152.5C152.5 30.9282 152.639 31.1201 152.845 31.1872L153 30.7118ZM145 30.4252L145.12 30.9106C145.343 30.8553 145.5 30.655 145.5 30.4252H145ZM141.471 31.8144L141.118 32.1679C141.276 32.3258 141.519 32.3599 141.714 32.2515L141.471 31.8144ZM140.515 30.8578L140.868 30.5042L140.868 30.5042L140.515 30.8578ZM134.858 36.5146L134.504 36.8682L134.504 36.8682L134.858 36.5146ZM135.814 37.4712L136.252 37.7139C136.36 37.5188 136.326 37.2755 136.168 37.1177L135.814 37.4712ZM134.425 41V41.5C134.655 41.5 134.855 41.3433 134.911 41.1203L134.425 41ZM134.712 49L135.187 48.845C135.12 48.6392 134.928 48.5 134.712 48.5V49ZM136.185 52.1582L136.539 52.5117C136.703 52.3473 136.732 52.0911 136.609 51.8937L136.185 52.1582ZM134.858 53.4853L135.211 53.8388L135.211 53.8388L134.858 53.4853ZM134.858 59.1421L135.211 58.7886L135.211 58.7886L134.858 59.1421ZM140.515 59.1421L140.868 59.4957L140.515 59.1421ZM142.128 57.5286L142.348 57.0796C142.156 56.9856 141.926 57.024 141.775 57.1751L142.128 57.5286ZM145 58.5748H145.5C145.5 58.345 145.343 58.1447 145.12 58.0894L145 58.5748ZM149 64.5C147.067 64.5 145.5 62.933 145.5 61H144.5C144.5 63.4853 146.515 65.5 149 65.5V64.5ZM152.5 61C152.5 62.933 150.933 64.5 149 64.5V65.5C151.485 65.5 153.5 63.4853 153.5 61H152.5ZM152.5 58.2882V61H153.5V58.2882H152.5ZM155.286 56.7484C154.514 57.177 153.697 57.5348 152.845 57.8128L153.155 58.7635C154.069 58.4654 154.944 58.082 155.772 57.6227L155.286 56.7484ZM157.839 58.7885L155.882 56.832L155.175 57.5391L157.132 59.4956L157.839 58.7885ZM162.789 58.7885C161.422 60.1553 159.206 60.1553 157.839 58.7885L157.132 59.4956C158.889 61.2529 161.738 61.2529 163.496 59.4956L162.789 58.7885ZM162.789 53.8387C164.155 55.2056 164.155 57.4216 162.789 58.7885L163.496 59.4956C165.253 57.7382 165.253 54.889 163.496 53.1316L162.789 53.8387ZM160.832 51.8822L162.789 53.8387L163.496 53.1316L161.539 51.1751L160.832 51.8822ZM161.813 48.845C161.535 49.6974 161.177 50.514 160.748 51.2859L161.623 51.7714C162.082 50.9442 162.465 50.069 162.764 49.155L161.813 48.845ZM165 48.5H162.288V49.5H165V48.5ZM168.5 45C168.5 46.933 166.933 48.5 165 48.5V49.5C167.485 49.5 169.5 47.4853 169.5 45H168.5ZM165 41.5C166.933 41.5 168.5 43.067 168.5 45H169.5C169.5 42.5147 167.485 40.5 165 40.5V41.5ZM162.575 41.5H165V40.5H162.575V41.5ZM161.08 38.3482C161.509 39.2247 161.85 40.1527 162.089 41.1203L163.06 40.8797C162.803 39.8424 162.438 38.8477 161.978 37.9082L161.08 38.3482ZM162.789 36.1612L161.175 37.7747L161.882 38.4818L163.496 36.8683L162.789 36.1612ZM162.789 31.2114C164.155 32.5783 164.155 34.7943 162.789 36.1612L163.496 36.8683C165.253 35.1109 165.253 32.2617 163.496 30.5043L162.789 31.2114ZM157.839 31.2114C159.206 29.8446 161.422 29.8446 162.789 31.2114L163.496 30.5043C161.738 28.747 158.889 28.747 157.132 30.5043L157.839 31.2114ZM156.512 32.5385L157.839 31.2114L157.132 30.5043L155.805 31.8314L156.512 32.5385ZM152.845 31.1872C153.925 31.5394 154.947 32.0193 155.894 32.6093L156.423 31.7606C155.408 31.1285 154.313 30.614 153.155 30.2365L152.845 31.1872ZM152.5 29V30.7118H153.5V29H152.5ZM149 25.5C150.933 25.5 152.5 27.067 152.5 29H153.5C153.5 26.5147 151.485 24.5 149 24.5V25.5ZM145.5 29C145.5 27.067 147.067 25.5 149 25.5V24.5C146.515 24.5 144.5 26.5147 144.5 29H145.5ZM145.5 30.4252V29H144.5V30.4252H145.5ZM141.714 32.2515C142.773 31.6636 143.916 31.2091 145.12 30.9106L144.88 29.9399C143.588 30.26 142.363 30.7472 141.229 31.3773L141.714 32.2515ZM140.161 31.2113L141.118 32.1679L141.825 31.4608L140.868 30.5042L140.161 31.2113ZM135.211 31.2113C136.578 29.8445 138.794 29.8445 140.161 31.2113L140.868 30.5042C139.111 28.7468 136.262 28.7468 134.504 30.5042L135.211 31.2113ZM135.211 36.1611C133.845 34.7942 133.845 32.5781 135.211 31.2113L134.504 30.5042C132.747 32.2616 132.747 35.1108 134.504 36.8682L135.211 36.1611ZM136.168 37.1177L135.211 36.1611L134.504 36.8682L135.461 37.8248L136.168 37.1177ZM134.911 41.1203C135.209 39.9158 135.664 38.7728 136.252 37.7139L135.377 37.2285C134.747 38.3632 134.26 39.5884 133.94 40.8797L134.911 41.1203ZM133 41.5H134.425V40.5H133V41.5ZM129.5 45C129.5 43.067 131.067 41.5 133 41.5V40.5C130.515 40.5 128.5 42.5147 128.5 45H129.5ZM133 48.5C131.067 48.5 129.5 46.933 129.5 45H128.5C128.5 47.4853 130.515 49.5 133 49.5V48.5ZM134.712 48.5H133V49.5H134.712V48.5ZM136.609 51.8937C136.019 50.9469 135.539 49.9247 135.187 48.845L134.236 49.155C134.614 50.3126 135.128 51.4082 135.761 52.4226L136.609 51.8937ZM135.211 53.8388L136.539 52.5117L135.831 51.8046L134.504 53.1317L135.211 53.8388ZM135.211 58.7886C133.845 57.4218 133.845 55.2057 135.211 53.8388L134.504 53.1317C132.747 54.8891 132.747 57.7383 134.504 59.4957L135.211 58.7886ZM140.161 58.7886C138.794 60.1554 136.578 60.1554 135.211 58.7886L134.504 59.4957C136.262 61.2531 139.111 61.2531 140.868 59.4957L140.161 58.7886ZM141.775 57.1751L140.161 58.7886L140.868 59.4957L142.482 57.8822L141.775 57.1751ZM145.12 58.0894C144.153 57.8496 143.225 57.5091 142.348 57.0796L141.908 57.9776C142.848 58.4379 143.842 58.803 144.88 59.0601L145.12 58.0894ZM145.5 61V58.5748H144.5V61H145.5Z" fill="#333333"/>
<path fill-rule="evenodd" clip-rule="evenodd" d="M181 81C181 83.2091 182.791 85 185 85C187.209 85 189 83.2091 189 81V78.2882C189.883 78.0001 190.729 77.6295 191.529 77.1855L193.485 79.142C195.047 80.7041 197.58 80.7041 199.142 79.142C200.704 77.5799 200.704 75.0473 199.142 73.4852L197.186 71.5287C197.63 70.7291 198 69.8832 198.288 69H201C203.209 69 205 67.2091 205 65C205 62.7909 203.209 61 201 61H198.575C198.326 59.9975 197.974 59.0362 197.529 58.1282L199.142 56.5147C200.704 54.9526 200.704 52.42 199.142 50.8579C197.58 49.2958 195.047 49.2958 193.485 50.8579L192.158 52.185C191.178 51.5739 190.119 51.0767 189 50.7118V49C189 46.7909 187.209 45 185 45C182.791 45 181 46.7909 181 49V50.4252C179.752 50.7345 178.568 51.2054 177.471 51.8144L176.515 50.8578C174.953 49.2957 172.42 49.2957 170.858 50.8578C169.296 52.4199 169.296 54.9525 170.858 56.5146L171.814 57.4712C171.205 58.568 170.735 59.7521 170.425 61H169C166.791 61 165 62.7909 165 65C165 67.2091 166.791 69 169 69H170.712C171.077 70.1187 171.574 71.1776 172.185 72.1582L170.858 73.4853C169.296 75.0474 169.296 77.5801 170.858 79.1421C172.42 80.7042 174.953 80.7042 176.515 79.1421L178.128 77.5286C179.036 77.9735 179.998 78.3263 181 78.5748V81Z" fill="white"/>
<path d="M189 78.2882L188.845 77.8128C188.639 77.8799 188.5 78.0718 188.5 78.2882H189ZM191.529 77.1855L191.882 76.832C191.725 76.6742 191.481 76.6401 191.286 76.7484L191.529 77.1855ZM199.142 73.4852L198.789 73.8387L198.789 73.8387L199.142 73.4852ZM197.186 71.5287L196.748 71.2859C196.64 71.4811 196.674 71.7244 196.832 71.8822L197.186 71.5287ZM198.288 69V68.5C198.072 68.5 197.88 68.6392 197.813 68.845L198.288 69ZM198.575 61L198.089 61.1203C198.145 61.3433 198.345 61.5 198.575 61.5V61ZM197.529 58.1282L197.175 57.7747C197.024 57.9258 196.986 58.1563 197.08 58.3482L197.529 58.1282ZM199.142 56.5147L199.496 56.8683L199.496 56.8683L199.142 56.5147ZM199.142 50.8579L199.496 50.5043L199.496 50.5043L199.142 50.8579ZM193.485 50.8579L193.132 50.5043L193.132 50.5043L193.485 50.8579ZM192.158 52.185L191.894 52.6093C192.091 52.7323 192.347 52.703 192.512 52.5385L192.158 52.185ZM189 50.7118H188.5C188.5 50.9282 188.639 51.1201 188.845 51.1872L189 50.7118ZM181 50.4252L181.12 50.9106C181.343 50.8553 181.5 50.655 181.5 50.4252H181ZM177.471 51.8144L177.118 52.1679C177.276 52.3258 177.519 52.3599 177.714 52.2515L177.471 51.8144ZM176.515 50.8578L176.868 50.5042L176.868 50.5042L176.515 50.8578ZM170.858 56.5146L170.504 56.8682L170.504 56.8682L170.858 56.5146ZM171.814 57.4712L172.252 57.7139C172.36 57.5188 172.326 57.2755 172.168 57.1177L171.814 57.4712ZM170.425 61V61.5C170.655 61.5 170.855 61.3433 170.911 61.1203L170.425 61ZM170.712 69L171.187 68.845C171.12 68.6392 170.928 68.5 170.712 68.5V69ZM172.185 72.1582L172.539 72.5117C172.703 72.3473 172.732 72.0911 172.609 71.8937L172.185 72.1582ZM170.858 73.4853L171.211 73.8388L171.211 73.8388L170.858 73.4853ZM170.858 79.1421L171.211 78.7886L171.211 78.7886L170.858 79.1421ZM176.515 79.1421L176.868 79.4957L176.515 79.1421ZM178.128 77.5286L178.348 77.0796C178.156 76.9856 177.926 77.024 177.775 77.1751L178.128 77.5286ZM181 78.5748H181.5C181.5 78.345 181.343 78.1447 181.12 78.0894L181 78.5748ZM185 84.5C183.067 84.5 181.5 82.933 181.5 81H180.5C180.5 83.4853 182.515 85.5 185 85.5V84.5ZM188.5 81C188.5 82.933 186.933 84.5 185 84.5V85.5C187.485 85.5 189.5 83.4853 189.5 81H188.5ZM188.5 78.2882V81H189.5V78.2882H188.5ZM191.286 76.7484C190.514 77.177 189.697 77.5348 188.845 77.8128L189.155 78.7635C190.069 78.4654 190.944 78.082 191.772 77.6227L191.286 76.7484ZM193.839 78.7885L191.882 76.832L191.175 77.5391L193.132 79.4956L193.839 78.7885ZM198.789 78.7885C197.422 80.1553 195.206 80.1553 193.839 78.7885L193.132 79.4956C194.889 81.2529 197.738 81.2529 199.496 79.4956L198.789 78.7885ZM198.789 73.8387C200.155 75.2056 200.155 77.4216 198.789 78.7885L199.496 79.4956C201.253 77.7382 201.253 74.889 199.496 73.1316L198.789 73.8387ZM196.832 71.8822L198.789 73.8387L199.496 73.1316L197.539 71.1751L196.832 71.8822ZM197.813 68.845C197.535 69.6974 197.177 70.514 196.748 71.2859L197.623 71.7714C198.082 70.9442 198.465 70.069 198.764 69.155L197.813 68.845ZM201 68.5H198.288V69.5H201V68.5ZM204.5 65C204.5 66.933 202.933 68.5 201 68.5V69.5C203.485 69.5 205.5 67.4853 205.5 65H204.5ZM201 61.5C202.933 61.5 204.5 63.067 204.5 65H205.5C205.5 62.5147 203.485 60.5 201 60.5V61.5ZM198.575 61.5H201V60.5H198.575V61.5ZM197.08 58.3482C197.509 59.2247 197.85 60.1527 198.089 61.1203L199.06 60.8797C198.803 59.8424 198.438 58.8477 197.978 57.9082L197.08 58.3482ZM198.789 56.1612L197.175 57.7747L197.882 58.4818L199.496 56.8683L198.789 56.1612ZM198.789 51.2114C200.155 52.5783 200.155 54.7943 198.789 56.1612L199.496 56.8683C201.253 55.1109 201.253 52.2617 199.496 50.5043L198.789 51.2114ZM193.839 51.2114C195.206 49.8446 197.422 49.8446 198.789 51.2114L199.496 50.5043C197.738 48.747 194.889 48.747 193.132 50.5043L193.839 51.2114ZM192.512 52.5385L193.839 51.2114L193.132 50.5043L191.805 51.8314L192.512 52.5385ZM188.845 51.1872C189.925 51.5394 190.947 52.0193 191.894 52.6093L192.423 51.7606C191.408 51.1285 190.313 50.614 189.155 50.2365L188.845 51.1872ZM188.5 49V50.7118H189.5V49H188.5ZM185 45.5C186.933 45.5 188.5 47.067 188.5 49H189.5C189.5 46.5147 187.485 44.5 185 44.5V45.5ZM181.5 49C181.5 47.067 183.067 45.5 185 45.5V44.5C182.515 44.5 180.5 46.5147 180.5 49H181.5ZM181.5 50.4252V49H180.5V50.4252H181.5ZM177.714 52.2515C178.773 51.6636 179.916 51.2091 181.12 50.9106L180.88 49.9399C179.588 50.26 178.363 50.7472 177.229 51.3773L177.714 52.2515ZM176.161 51.2113L177.118 52.1679L177.825 51.4608L176.868 50.5042L176.161 51.2113ZM171.211 51.2113C172.578 49.8445 174.794 49.8445 176.161 51.2113L176.868 50.5042C175.111 48.7468 172.262 48.7468 170.504 50.5042L171.211 51.2113ZM171.211 56.1611C169.845 54.7942 169.845 52.5781 171.211 51.2113L170.504 50.5042C168.747 52.2616 168.747 55.1108 170.504 56.8682L171.211 56.1611ZM172.168 57.1177L171.211 56.1611L170.504 56.8682L171.461 57.8248L172.168 57.1177ZM170.911 61.1203C171.209 59.9158 171.664 58.7728 172.252 57.7139L171.377 57.2285C170.747 58.3632 170.26 59.5884 169.94 60.8797L170.911 61.1203ZM169 61.5H170.425V60.5H169V61.5ZM165.5 65C165.5 63.067 167.067 61.5 169 61.5V60.5C166.515 60.5 164.5 62.5147 164.5 65H165.5ZM169 68.5C167.067 68.5 165.5 66.933 165.5 65H164.5C164.5 67.4853 166.515 69.5 169 69.5V68.5ZM170.712 68.5H169V69.5H170.712V68.5ZM172.609 71.8937C172.019 70.9469 171.539 69.9247 171.187 68.845L170.236 69.155C170.614 70.3126 171.128 71.4082 171.761 72.4226L172.609 71.8937ZM171.211 73.8388L172.539 72.5117L171.831 71.8046L170.504 73.1317L171.211 73.8388ZM171.211 78.7886C169.845 77.4218 169.845 75.2057 171.211 73.8388L170.504 73.1317C168.747 74.8891 168.747 77.7383 170.504 79.4957L171.211 78.7886ZM176.161 78.7886C174.794 80.1554 172.578 80.1554 171.211 78.7886L170.504 79.4957C172.262 81.2531 175.111 81.2531 176.868 79.4957L176.161 78.7886ZM177.775 77.1751L176.161 78.7886L176.868 79.4957L178.482 77.8822L177.775 77.1751ZM181.12 78.0894C180.153 77.8496 179.225 77.5091 178.348 77.0796L177.908 77.9776C178.848 78.4379 179.842 78.803 180.88 79.0601L181.12 78.0894ZM181.5 81V78.5748H180.5V81H181.5Z" fill="#333333"/>
<circle cx="184.5" cy="64.5" r="5.5" fill="white" stroke="#333333" stroke-linejoin="round"/>
<circle cx="148.5" cy="44.5" r="5.5" fill="white" stroke="#333333" stroke-linejoin="round"/>
<path fill-rule="evenodd" clip-rule="evenodd" d="M57.1967 222.303L55 224.5L57.1967 226.697V229.803H60.3033L62.5 232L64.6967 229.803H67.8033V226.697L70 224.5L67.8033 222.303V219.197H64.6967L62.5 217L60.3033 219.197H57.1967V222.303Z" fill="#E6E6E6"/>
<path d="M55 224.5L54.6464 224.146C54.4512 224.342 54.4512 224.658 54.6464 224.854L55 224.5ZM57.1967 222.303L57.5503 222.657C57.644 222.563 57.6967 222.436 57.6967 222.303H57.1967ZM57.1967 226.697H57.6967C57.6967 226.564 57.644 226.437 57.5503 226.343L57.1967 226.697ZM57.1967 229.803H56.6967C56.6967 230.079 56.9206 230.303 57.1967 230.303V229.803ZM60.3033 229.803L60.6569 229.45C60.5631 229.356 60.4359 229.303 60.3033 229.303V229.803ZM62.5 232L62.1464 232.354C62.3417 232.549 62.6583 232.549 62.8536 232.354L62.5 232ZM64.6967 229.803V229.303C64.5641 229.303 64.4369 229.356 64.3431 229.45L64.6967 229.803ZM67.8033 229.803V230.303C68.0794 230.303 68.3033 230.079 68.3033 229.803H67.8033ZM67.8033 226.697L67.4498 226.343C67.356 226.437 67.3033 226.564 67.3033 226.697H67.8033ZM70 224.5L70.3536 224.854C70.5488 224.658 70.5488 224.342 70.3536 224.146L70 224.5ZM67.8033 222.303H67.3033C67.3033 222.436 67.356 222.563 67.4498 222.657L67.8033 222.303ZM67.8033 219.197H68.3033C68.3033 218.921 68.0794 218.697 67.8033 218.697V219.197ZM64.6967 219.197L64.3431 219.55C64.4369 219.644 64.5641 219.697 64.6967 219.697V219.197ZM62.5 217L62.8536 216.646C62.7598 216.553 62.6326 216.5 62.5 216.5C62.3674 216.5 62.2402 216.553 62.1464 216.646L62.5 217ZM60.3033 219.197V219.697C60.4359 219.697 60.5631 219.644 60.6569 219.55L60.3033 219.197ZM57.1967 219.197V218.697C56.9206 218.697 56.6967 218.921 56.6967 219.197H57.1967ZM55.3536 224.854L57.5503 222.657L56.8431 221.95L54.6464 224.146L55.3536 224.854ZM57.5503 226.343L55.3536 224.146L54.6464 224.854L56.8431 227.05L57.5503 226.343ZM57.6967 229.803V226.697H56.6967V229.803H57.6967ZM60.3033 229.303H57.1967V230.303H60.3033V229.303ZM62.8536 231.646L60.6569 229.45L59.9497 230.157L62.1464 232.354L62.8536 231.646ZM64.3431 229.45L62.1464 231.646L62.8536 232.354L65.0503 230.157L64.3431 229.45ZM67.8033 229.303H64.6967V230.303H67.8033V229.303ZM67.3033 226.697V229.803H68.3033V226.697H67.3033ZM69.6464 224.146L67.4498 226.343L68.1569 227.05L70.3536 224.854L69.6464 224.146ZM67.4498 222.657L69.6464 224.854L70.3536 224.146L68.1569 221.95L67.4498 222.657ZM67.3033 219.197V222.303H68.3033V219.197H67.3033ZM64.6967 219.697H67.8033V218.697H64.6967V219.697ZM62.1464 217.354L64.3431 219.55L65.0503 218.843L62.8536 216.646L62.1464 217.354ZM60.6569 219.55L62.8536 217.354L62.1464 216.646L59.9497 218.843L60.6569 219.55ZM57.1967 219.697H60.3033V218.697H57.1967V219.697ZM57.6967 222.303V219.197H56.6967V222.303H57.6967Z" fill="#333333"/>
<path fill-rule="evenodd" clip-rule="evenodd" d="M416.197 27.3033L414 29.5L416.197 31.6967V34.8033H419.303L421.5 37L423.697 34.8033H426.803V31.6967L429 29.5L426.803 27.3033V24.1967H423.697L421.5 22L419.303 24.1967H416.197V27.3033Z" fill="white"/>
<path d="M414 29.5L413.646 29.1464C413.451 29.3417 413.451 29.6583 413.646 29.8536L414 29.5ZM416.197 27.3033L416.55 27.6569C416.644 27.5631 416.697 27.4359 416.697 27.3033H416.197ZM416.197 31.6967H416.697C416.697 31.5641 416.644 31.4369 416.55 31.3431L416.197 31.6967ZM416.197 34.8033H415.697C415.697 35.0794 415.921 35.3033 416.197 35.3033V34.8033ZM419.303 34.8033L419.657 34.4497C419.563 34.356 419.436 34.3033 419.303 34.3033V34.8033ZM421.5 37L421.146 37.3536C421.342 37.5488 421.658 37.5488 421.854 37.3536L421.5 37ZM423.697 34.8033V34.3033C423.564 34.3033 423.437 34.356 423.343 34.4497L423.697 34.8033ZM426.803 34.8033V35.3033C427.079 35.3033 427.303 35.0794 427.303 34.8033H426.803ZM426.803 31.6967L426.45 31.3431C426.356 31.4369 426.303 31.5641 426.303 31.6967H426.803ZM429 29.5L429.354 29.8536C429.549 29.6583 429.549 29.3417 429.354 29.1464L429 29.5ZM426.803 27.3033H426.303C426.303 27.4359 426.356 27.5631 426.45 27.6569L426.803 27.3033ZM426.803 24.1967H427.303C427.303 23.9206 427.079 23.6967 426.803 23.6967V24.1967ZM423.697 24.1967L423.343 24.5503C423.437 24.644 423.564 24.6967 423.697 24.6967V24.1967ZM421.5 22L421.854 21.6464C421.76 21.5527 421.633 21.5 421.5 21.5C421.367 21.5 421.24 21.5527 421.146 21.6464L421.5 22ZM419.303 24.1967V24.6967C419.436 24.6967 419.563 24.644 419.657 24.5503L419.303 24.1967ZM416.197 24.1967V23.6967C415.921 23.6967 415.697 23.9206 415.697 24.1967H416.197ZM414.354 29.8536L416.55 27.6569L415.843 26.9497L413.646 29.1464L414.354 29.8536ZM416.55 31.3431L414.354 29.1464L413.646 29.8536L415.843 32.0503L416.55 31.3431ZM416.697 34.8033V31.6967H415.697V34.8033H416.697ZM419.303 34.3033H416.197V35.3033H419.303V34.3033ZM421.854 36.6464L419.657 34.4497L418.95 35.1569L421.146 37.3536L421.854 36.6464ZM423.343 34.4497L421.146 36.6464L421.854 37.3536L424.05 35.1569L423.343 34.4497ZM426.803 34.3033H423.697V35.3033H426.803V34.3033ZM426.303 31.6967V34.8033H427.303V31.6967H426.303ZM428.646 29.1464L426.45 31.3431L427.157 32.0502L429.354 29.8536L428.646 29.1464ZM426.45 27.6569L428.646 29.8536L429.354 29.1464L427.157 26.9498L426.45 27.6569ZM426.303 24.1967V27.3033H427.303V24.1967H426.303ZM423.697 24.6967H426.803V23.6967H423.697V24.6967ZM421.146 22.3536L423.343 24.5503L424.05 23.8431L421.854 21.6464L421.146 22.3536ZM419.657 24.5503L421.854 22.3536L421.146 21.6464L418.95 23.8431L419.657 24.5503ZM416.197 24.6967H419.303V23.6967H416.197V24.6967ZM416.697 27.3033V24.1967H415.697V27.3033H416.697Z" fill="#333333"/>
<path d="M118 30C118 27.2386 115.761 25 113 25H60C57.2386 25 55 27.2386 55 30V80C55 82.7614 57.2386 85 60 85H103L118 70V30Z" fill="white" stroke="#333333" stroke-linejoin="round"/>
<path d="M103 70H118L103 85V70Z" fill="#E6E6E6" stroke="#333333" stroke-linejoin="round"/>
<path d="M74.7753 62.1634L75.1608 61.845C75.0658 61.73 74.9244 61.6634 74.7753 61.6634C74.6261 61.6634 74.4847 61.73 74.3898 61.845L74.7753 62.1634ZM78.1461 66.245L77.7605 66.5634C77.8555 66.6784 77.9969 66.745 78.1461 66.745C78.2952 66.745 78.4366 66.6784 78.5316 66.5634L78.1461 66.245ZM88.2584 54.0001L88.644 53.6817C88.549 53.5667 88.4076 53.5001 88.2584 53.5001C88.1093 53.5001 87.9679 53.5667 87.8729 53.6817L88.2584 54.0001ZM91.6292 58.0817L91.2437 58.4001C91.3334 58.5087 91.4647 58.5745 91.6054 58.5812C91.7462 58.5879 91.8832 58.5349 91.9828 58.4353L91.6292 58.0817ZM110.711 39.5C110.711 39.2239 110.487 39 110.211 39L105.711 39C105.435 39 105.211 39.2239 105.211 39.5C105.211 39.7762 105.435 40 105.711 40L109.711 40L109.711 44C109.711 44.2761 109.935 44.5 110.211 44.5C110.487 44.5 110.711 44.2761 110.711 44L110.711 39.5ZM65.3855 74.3185L75.1608 62.4817L74.3898 61.845L64.6145 73.6817L65.3855 74.3185ZM74.3898 62.4817L77.7605 66.5634L78.5316 65.9266L75.1608 61.845L74.3898 62.4817ZM78.5316 66.5634L88.644 54.3185L87.8729 53.6817L77.7605 65.9266L78.5316 66.5634ZM87.8729 54.3185L91.2437 58.4001L92.0147 57.7633L88.644 53.6817L87.8729 54.3185ZM91.9828 58.4353L110.564 39.8536L109.857 39.1464L91.2757 57.7282L91.9828 58.4353Z" fill="#333333"/>
<path d="M80 35L65 35" stroke="#333333" stroke-width="2" stroke-linecap="round" stroke-linejoin="round" stroke-dasharray="0 11"/>
<path d="M74.5 174.5C74.7761 174.5 75 174.276 75 174C75 173.724 74.7761 173.5 74.5 173.5V174.5ZM40.3536 225.354C40.5488 225.158 40.5488 224.842 40.3536 224.646L37.1716 221.464C36.9763 221.269 36.6597 221.269 36.4645 221.464C36.2692 221.66 36.2692 221.976 36.4645 222.172L39.2929 225L36.4645 227.828C36.2692 228.024 36.2692 228.34 36.4645 228.536C36.6597 228.731 36.9763 228.731 37.1716 228.536L40.3536 225.354ZM74.5 173.5H23.5V174.5H74.5V173.5ZM23.5 191.5H31.5V190.5H23.5V191.5ZM31.5 207.5H23.5V208.5H31.5V207.5ZM23.5 225.5H40V224.5H23.5V225.5ZM14.5 216.5C14.5 221.471 18.5294 225.5 23.5 225.5V224.5C19.0817 224.5 15.5 220.918 15.5 216.5H14.5ZM23.5 207.5C18.5294 207.5 14.5 211.529 14.5 216.5H15.5C15.5 212.082 19.0817 208.5 23.5 208.5V207.5ZM39.5 199.5C39.5 203.918 35.9183 207.5 31.5 207.5V208.5C36.4706 208.5 40.5 204.471 40.5 199.5H39.5ZM31.5 191.5C35.9183 191.5 39.5 195.082 39.5 199.5H40.5C40.5 194.529 36.4706 190.5 31.5 190.5V191.5ZM14.5 182.5C14.5 187.471 18.5294 191.5 23.5 191.5V190.5C19.0817 190.5 15.5 186.918 15.5 182.5H14.5ZM23.5 173.5C18.5294 173.5 14.5 177.529 14.5 182.5H15.5C15.5 178.082 19.0817 174.5 23.5 174.5V173.5Z" fill="#808080"/>
<path fill-rule="evenodd" clip-rule="evenodd" d="M37.9826 33.0153C37.9941 32.845 38 32.6732 38 32.5C38 28.3579 34.6421 25 30.5 25C26.3579 25 23 28.3579 23 32.5C23 32.668 23.0055 32.8347 23.0164 33H22.5C18.3579 33 15 36.3579 15 40.5C15 44.6421 18.3579 48 22.5 48H37.5C41.6421 48 45 44.6421 45 40.5C45 36.52 41.8998 33.264 37.9826 33.0153Z" fill="white"/>
<path d="M37.9826 33.0153L37.4837 32.9814C37.4747 33.1141 37.5189 33.2449 37.6066 33.3449C37.6943 33.4449 37.8182 33.5058 37.9509 33.5143L37.9826 33.0153ZM23.0164 33V33.5C23.1547 33.5 23.2868 33.4427 23.3814 33.3417C23.4759 33.2408 23.5244 33.1052 23.5153 32.9672L23.0164 33ZM37.5 32.5C37.5 32.6619 37.4945 32.8224 37.4837 32.9814L38.4814 33.0491C38.4937 32.8676 38.5 32.6845 38.5 32.5H37.5ZM30.5 25.5C34.366 25.5 37.5 28.634 37.5 32.5H38.5C38.5 28.0817 34.9183 24.5 30.5 24.5V25.5ZM23.5 32.5C23.5 28.634 26.634 25.5 30.5 25.5V24.5C26.0817 24.5 22.5 28.0817 22.5 32.5H23.5ZM23.5153 32.9672C23.5052 32.8128 23.5 32.6571 23.5 32.5H22.5C22.5 32.679 22.5059 32.8567 22.5175 33.0328L23.5153 32.9672ZM22.5 33.5H23.0164V32.5H22.5V33.5ZM15.5 40.5C15.5 36.634 18.634 33.5 22.5 33.5V32.5C18.0817 32.5 14.5 36.0817 14.5 40.5H15.5ZM22.5 47.5C18.634 47.5 15.5 44.366 15.5 40.5H14.5C14.5 44.9183 18.0817 48.5 22.5 48.5V47.5ZM37.5 47.5H22.5V48.5H37.5V47.5ZM44.5 40.5C44.5 44.366 41.366 47.5 37.5 47.5V48.5C41.9183 48.5 45.5 44.9183 45.5 40.5H44.5ZM37.9509 33.5143C41.6065 33.7464 44.5 36.7855 44.5 40.5H45.5C45.5 36.2545 42.1931 32.7817 38.0143 32.5163L37.9509 33.5143Z" fill="#333333"/>
<path d="M419.348 49.5C419.072 49.5 418.848 49.2761 418.848 49C418.848 48.7239 419.072 48.5 419.348 48.5V49.5ZM434.701 78.4885C434.896 78.6838 434.896 79.0004 434.701 79.1956L431.519 82.3776C431.324 82.5729 431.007 82.5729 430.812 82.3776C430.617 82.1823 430.617 81.8658 430.812 81.6705L433.641 78.8421L430.812 76.0136C430.617 75.8184 430.617 75.5018 430.812 75.3065C431.007 75.1113 431.324 75.1113 431.519 75.3065L434.701 78.4885ZM419.348 48.5H426.848V49.5H419.348V48.5ZM426.848 64.5H417.421V63.5H426.848V64.5ZM417.421 78.3421H434.348V79.3421H417.421V78.3421ZM410.5 71.421C410.5 75.2434 413.598 78.3421 417.421 78.3421V79.3421C413.046 79.3421 409.5 75.7957 409.5 71.421L410.5 71.421ZM417.421 64.5C413.598 64.5 410.5 67.5987 410.5 71.421L409.5 71.421C409.5 67.0464 413.046 63.5 417.421 63.5V64.5ZM434.848 56.5C434.848 60.9183 431.266 64.5 426.848 64.5V63.5C430.714 63.5 433.848 60.366 433.848 56.5H434.848ZM426.848 48.5C431.266 48.5 434.848 52.0817 434.848 56.5H433.848C433.848 52.634 430.714 49.5 426.848 49.5V48.5Z" fill="#808080"/>
<circle cx="417.5" cy="224.5" r="7.5" fill="#E6E6E6" stroke="#333333" stroke-linejoin="round"/>
<circle cx="417.5" cy="199.5" r="7.5" fill="white" stroke="#333333" stroke-linejoin="round"/>
<path d="M279 26L256 26" stroke="#808080" stroke-width="2" stroke-linecap="round" stroke-linejoin="round" stroke-dasharray="0 11"/>
<circle cx="240" cy="26" r="4" fill="white" stroke="#333333" stroke-linejoin="round"/>
<circle cx="307" cy="178" r="5" fill="white" stroke="#333333" stroke-linejoin="round"/>
<circle cx="417" cy="178" r="5" fill="white" stroke="#333333" stroke-linejoin="round"/>
<circle cx="307" cy="203" r="5" fill="white" stroke="#333333" stroke-linejoin="round"/>
<circle cx="307" cy="228" r="5" fill="white" stroke="#333333" stroke-linejoin="round"/>
<circle cx="222" cy="26" r="4" fill="white" stroke="#333333" stroke-linejoin="round"/>
<circle cx="222" cy="53" r="4" fill="white" stroke="#333333" stroke-linejoin="round"/>
<path d="M225 232L195 232" stroke="#808080" stroke-width="2" stroke-linecap="round" stroke-linejoin="round" stroke-dasharray="0 11"/>
<path d="M199 26.6364L199 34.3636L190.905 34.3636L190.905 39L182 30.5L190.905 22L190.905 26.6364L199 26.6364Z" fill="white" stroke="#333333" stroke-linecap="round" stroke-linejoin="round"/>
<path d="M240 172H290V207.029C290 215.297 283.297 222 275.029 222V222C272.245 222 269.69 223.546 268.398 226.012L265 232.5L262.063 226.333C260.803 223.686 258.133 222 255.201 222V222C246.806 222 240 215.194 240 206.799V172Z" fill="#E6E6E6" stroke="#333333" stroke-linejoin="round"/>
<path d="M250 182H280V202C280 207.523 275.523 212 270 212H260C254.477 212 250 207.523 250 202V182Z" fill="white" stroke="#333333" stroke-linejoin="round"/>
<path fill-rule="evenodd" clip-rule="evenodd" d="M220.303 81.8033L222.5 84L224.697 81.8033L227.803 81.8033L227.803 78.6967L230 76.5L227.803 74.3033L227.803 71.1967L224.697 71.1967L222.5 69L220.303 71.1967L217.197 71.1967L217.197 74.3033L215 76.5L217.197 78.6967L217.197 81.8033L220.303 81.8033Z" fill="#E6E6E6"/>
<path d="M222.5 84L222.146 84.3536C222.342 84.5488 222.658 84.5488 222.854 84.3536L222.5 84ZM220.303 81.8033L220.657 81.4497C220.563 81.356 220.436 81.3033 220.303 81.3033L220.303 81.8033ZM224.697 81.8033L224.697 81.3033C224.564 81.3033 224.437 81.356 224.343 81.4497L224.697 81.8033ZM227.803 81.8033L227.803 82.3033C228.079 82.3033 228.303 82.0794 228.303 81.8033L227.803 81.8033ZM227.803 78.6967L227.45 78.3431C227.356 78.4369 227.303 78.5641 227.303 78.6967L227.803 78.6967ZM230 76.5L230.354 76.8536C230.549 76.6583 230.549 76.3417 230.354 76.1464L230 76.5ZM227.803 74.3033L227.303 74.3033C227.303 74.4359 227.356 74.5631 227.45 74.6569L227.803 74.3033ZM227.803 71.1967L228.303 71.1967C228.303 70.9206 228.079 70.6967 227.803 70.6967L227.803 71.1967ZM224.697 71.1967L224.343 71.5502C224.437 71.644 224.564 71.6967 224.697 71.6967L224.697 71.1967ZM222.5 69L222.854 68.6464C222.76 68.5527 222.633 68.5 222.5 68.5C222.367 68.5 222.24 68.5527 222.146 68.6464L222.5 69ZM220.303 71.1967L220.303 71.6967C220.436 71.6967 220.563 71.644 220.657 71.5502L220.303 71.1967ZM217.197 71.1967L217.197 70.6967C216.921 70.6967 216.697 70.9206 216.697 71.1967L217.197 71.1967ZM217.197 74.3033L217.55 74.6569C217.644 74.5631 217.697 74.4359 217.697 74.3033L217.197 74.3033ZM215 76.5L214.646 76.1464C214.553 76.2402 214.5 76.3674 214.5 76.5C214.5 76.6326 214.553 76.7598 214.646 76.8536L215 76.5ZM217.197 78.6967L217.697 78.6967C217.697 78.5641 217.644 78.4369 217.55 78.3431L217.197 78.6967ZM217.197 81.8033L216.697 81.8033C216.697 82.0794 216.921 82.3033 217.197 82.3033L217.197 81.8033ZM222.854 83.6464L220.657 81.4497L219.95 82.1569L222.146 84.3536L222.854 83.6464ZM224.343 81.4497L222.146 83.6464L222.854 84.3536L225.05 82.1569L224.343 81.4497ZM227.803 81.3033L224.697 81.3033L224.697 82.3033L227.803 82.3033L227.803 81.3033ZM227.303 78.6967L227.303 81.8033L228.303 81.8033L228.303 78.6967L227.303 78.6967ZM229.646 76.1464L227.45 78.3431L228.157 79.0503L230.354 76.8536L229.646 76.1464ZM227.45 74.6569L229.646 76.8536L230.354 76.1464L228.157 73.9497L227.45 74.6569ZM227.303 71.1967L227.303 74.3033L228.303 74.3033L228.303 71.1967L227.303 71.1967ZM224.697 71.6967L227.803 71.6967L227.803 70.6967L224.697 70.6967L224.697 71.6967ZM222.146 69.3536L224.343 71.5502L225.05 70.8431L222.854 68.6464L222.146 69.3536ZM220.657 71.5502L222.854 69.3536L222.146 68.6464L219.95 70.8431L220.657 71.5502ZM217.197 71.6967L220.303 71.6967L220.303 70.6967L217.197 70.6967L217.197 71.6967ZM217.697 74.3033L217.697 71.1967L216.697 71.1967L216.697 74.3033L217.697 74.3033ZM215.354 76.8536L217.55 74.6569L216.843 73.9497L214.646 76.1464L215.354 76.8536ZM217.55 78.3431L215.354 76.1464L214.646 76.8536L216.843 79.0503L217.55 78.3431ZM217.697 81.8033L217.697 78.6967L216.697 78.6967L216.697 81.8033L217.697 81.8033ZM220.303 81.3033L217.197 81.3033L217.197 82.3033L220.303 82.3033L220.303 81.3033Z" fill="#333333"/>
<path fill-rule="evenodd" clip-rule="evenodd" d="M32.6967 61.1967L30.5 59L28.3033 61.1967L25.1967 61.1967L25.1967 64.3033L23 66.5L25.1967 68.6967L25.1967 71.8033L28.3033 71.8033L30.5 74L32.6967 71.8033L35.8033 71.8033L35.8033 68.6967L38 66.5L35.8033 64.3033L35.8033 61.1967L32.6967 61.1967Z" fill="#E6E6E6"/>
<path d="M30.5 59L30.8536 58.6464C30.6583 58.4512 30.3417 58.4512 30.1464 58.6464L30.5 59ZM32.6967 61.1967L32.3431 61.5503C32.4369 61.644 32.5641 61.6967 32.6967 61.6967L32.6967 61.1967ZM28.3033 61.1967L28.3033 61.6967C28.4359 61.6967 28.5631 61.644 28.6569 61.5503L28.3033 61.1967ZM25.1967 61.1967L25.1967 60.6967C24.9206 60.6967 24.6967 60.9206 24.6967 61.1967L25.1967 61.1967ZM25.1967 64.3033L25.5503 64.6569C25.644 64.5631 25.6967 64.4359 25.6967 64.3033L25.1967 64.3033ZM23 66.5L22.6464 66.1464C22.4512 66.3417 22.4512 66.6583 22.6464 66.8536L23 66.5ZM25.1967 68.6967L25.6967 68.6967C25.6967 68.5641 25.644 68.4369 25.5503 68.3431L25.1967 68.6967ZM25.1967 71.8033L24.6967 71.8033C24.6967 72.0794 24.9206 72.3033 25.1967 72.3033L25.1967 71.8033ZM28.3033 71.8033L28.6569 71.4497C28.5631 71.356 28.4359 71.3033 28.3033 71.3033L28.3033 71.8033ZM30.5 74L30.1464 74.3536C30.3417 74.5488 30.6583 74.5488 30.8536 74.3536L30.5 74ZM32.6967 71.8033L32.6967 71.3033C32.5641 71.3033 32.4369 71.356 32.3431 71.4498L32.6967 71.8033ZM35.8033 71.8033L35.8033 72.3033C36.0794 72.3033 36.3033 72.0794 36.3033 71.8033L35.8033 71.8033ZM35.8033 68.6967L35.4497 68.3431C35.356 68.4369 35.3033 68.5641 35.3033 68.6967L35.8033 68.6967ZM38 66.5L38.3536 66.8536C38.4473 66.7598 38.5 66.6326 38.5 66.5C38.5 66.3674 38.4473 66.2402 38.3536 66.1464L38 66.5ZM35.8033 64.3033L35.3033 64.3033C35.3033 64.4359 35.356 64.5631 35.4497 64.6569L35.8033 64.3033ZM35.8033 61.1967L36.3033 61.1967C36.3033 61.0641 36.2506 60.9369 36.1569 60.8431C36.0631 60.7494 35.9359 60.6967 35.8033 60.6967L35.8033 61.1967ZM30.1464 59.3536L32.3431 61.5503L33.0503 60.8431L30.8536 58.6464L30.1464 59.3536ZM28.6569 61.5503L30.8536 59.3536L30.1464 58.6464L27.9497 60.8431L28.6569 61.5503ZM25.1967 61.6967L28.3033 61.6967L28.3033 60.6967L25.1967 60.6967L25.1967 61.6967ZM25.6967 64.3033L25.6967 61.1967L24.6967 61.1967L24.6967 64.3033L25.6967 64.3033ZM23.3536 66.8536L25.5503 64.6569L24.8431 63.9497L22.6464 66.1464L23.3536 66.8536ZM25.5503 68.3431L23.3536 66.1464L22.6464 66.8536L24.8431 69.0503L25.5503 68.3431ZM25.6967 71.8033L25.6967 68.6967L24.6967 68.6967L24.6967 71.8033L25.6967 71.8033ZM28.3033 71.3033L25.1967 71.3033L25.1967 72.3033L28.3033 72.3033L28.3033 71.3033ZM30.8536 73.6464L28.6569 71.4497L27.9497 72.1569L30.1464 74.3536L30.8536 73.6464ZM32.3431 71.4498L30.1464 73.6464L30.8536 74.3536L33.0502 72.1569L32.3431 71.4498ZM35.8033 71.3033L32.6967 71.3033L32.6967 72.3033L35.8033 72.3033L35.8033 71.3033ZM35.3033 68.6967L35.3033 71.8033L36.3033 71.8033L36.3033 68.6967L35.3033 68.6967ZM37.6464 66.1464L35.4497 68.3431L36.1569 69.0503L38.3536 66.8536L37.6464 66.1464ZM35.4497 64.6569L37.6464 66.8536L38.3536 66.1464L36.1569 63.9497L35.4497 64.6569ZM35.3033 61.1967L35.3033 64.3033L36.3033 64.3033L36.3033 61.1967L35.3033 61.1967ZM32.6967 61.6967L35.8033 61.6967L35.8033 60.6967L32.6967 60.6967L32.6967 61.6967Z" fill="#333333"/>
<circle cx="265" cy="195" r="4" fill="white" stroke="#333333" stroke-linejoin="round"/>
<path d="M265 199L265 203" stroke="#333333" stroke-linecap="round" stroke-linejoin="round"/>
<mask id="path-65-outside-1_2090_357" maskUnits="userSpaceOnUse" x="170" y="104" width="173" height="49" fill="black">
<rect fill="white" x="170" y="104" width="173" height="49"/>
<path d="M191.817 151L180.349 121.903V151H171.931V107.202H183.033L195.721 139.654L208.47 107.202H219.572V151H211.154V121.659L199.564 151H191.817ZM235.781 110.862C235.781 113.729 233.463 115.864 230.108 115.864C226.814 115.864 224.496 113.729 224.496 110.862C224.496 107.873 226.814 105.738 230.108 105.738C233.463 105.738 235.781 107.873 235.781 110.862ZM234.439 151H225.96V118.426H234.439V151ZM239.24 134.713C239.24 125.075 244.913 117.816 253.697 117.816C257.601 117.816 260.895 119.524 263.335 122.635V107.202H271.753V151H264.006V146.303C261.444 149.719 257.906 151.61 253.697 151.61C244.913 151.61 239.24 144.229 239.24 134.713ZM247.963 134.713C247.963 140.813 251.44 144.046 255.588 144.046C259.797 144.046 263.274 140.752 263.274 134.591C263.274 128.43 259.736 125.319 255.588 125.319C251.44 125.319 247.963 128.491 247.963 134.713ZM292.253 151.549C282.493 151.549 275.966 144.778 275.966 134.591C275.966 124.892 282.737 117.816 292.131 117.816C302.44 117.816 309.272 126.173 307.747 136.787H284.628C285.177 142.094 287.739 145.022 292.07 145.022C295.791 145.022 298.292 143.192 299.268 139.959H307.686C305.856 147.34 300.183 151.549 292.253 151.549ZM291.948 124.038C287.983 124.038 285.482 126.6 284.75 131.419H298.78C298.536 126.905 295.974 124.038 291.948 124.038ZM320.685 133.249V151H312.206V118.426H320.014V123.062C322.393 119.829 325.748 117.816 330.018 117.816C336.545 117.816 341.059 122.086 341.059 129.955V151H332.641V132.822C332.641 128.003 330.75 125.319 326.907 125.319C323.552 125.319 320.685 128.003 320.685 133.249Z"/>
</mask>
<path d="M191.817 151L180.349 121.903V151H171.931V107.202H183.033L195.721 139.654L208.47 107.202H219.572V151H211.154V121.659L199.564 151H191.817ZM235.781 110.862C235.781 113.729 233.463 115.864 230.108 115.864C226.814 115.864 224.496 113.729 224.496 110.862C224.496 107.873 226.814 105.738 230.108 105.738C233.463 105.738 235.781 107.873 235.781 110.862ZM234.439 151H225.96V118.426H234.439V151ZM239.24 134.713C239.24 125.075 244.913 117.816 253.697 117.816C257.601 117.816 260.895 119.524 263.335 122.635V107.202H271.753V151H264.006V146.303C261.444 149.719 257.906 151.61 253.697 151.61C244.913 151.61 239.24 144.229 239.24 134.713ZM247.963 134.713C247.963 140.813 251.44 144.046 255.588 144.046C259.797 144.046 263.274 140.752 263.274 134.591C263.274 128.43 259.736 125.319 255.588 125.319C251.44 125.319 247.963 128.491 247.963 134.713ZM292.253 151.549C282.493 151.549 275.966 144.778 275.966 134.591C275.966 124.892 282.737 117.816 292.131 117.816C302.44 117.816 309.272 126.173 307.747 136.787H284.628C285.177 142.094 287.739 145.022 292.07 145.022C295.791 145.022 298.292 143.192 299.268 139.959H307.686C305.856 147.34 300.183 151.549 292.253 151.549ZM291.948 124.038C287.983 124.038 285.482 126.6 284.75 131.419H298.78C298.536 126.905 295.974 124.038 291.948 124.038ZM320.685 133.249V151H312.206V118.426H320.014V123.062C322.393 119.829 325.748 117.816 330.018 117.816C336.545 117.816 341.059 122.086 341.059 129.955V151H332.641V132.822C332.641 128.003 330.75 125.319 326.907 125.319C323.552 125.319 320.685 128.003 320.685 133.249Z" fill="white"/>
<path d="M191.817 151L190.886 151.367L191.136 152H191.817V151ZM180.349 121.903L181.279 121.536L179.349 121.903H180.349ZM180.349 151V152H181.349V151H180.349ZM171.931 151H170.931V152H171.931V151ZM171.931 107.202V106.202H170.931V107.202H171.931ZM183.033 107.202L183.964 106.838L183.715 106.202H183.033V107.202ZM195.721 139.654L194.789 140.018L195.718 142.395L196.651 140.02L195.721 139.654ZM208.47 107.202V106.202H207.788L207.539 106.836L208.47 107.202ZM219.572 107.202H220.572V106.202H219.572V107.202ZM219.572 151V152H220.572V151H219.572ZM211.154 151H210.154V152H211.154V151ZM211.154 121.659H212.154L210.223 121.292L211.154 121.659ZM199.564 151V152H200.244L200.494 151.367L199.564 151ZM192.747 150.633L181.279 121.536L179.418 122.27L190.886 151.367L192.747 150.633ZM179.349 121.903V151H181.349V121.903H179.349ZM180.349 150H171.931V152H180.349V150ZM172.931 151V107.202H170.931V151H172.931ZM171.931 108.202H183.033V106.202H171.931V108.202ZM182.101 107.566L194.789 140.018L196.652 139.29L183.964 106.838L182.101 107.566ZM196.651 140.02L209.4 107.568L207.539 106.836L194.79 139.288L196.651 140.02ZM208.47 108.202H219.572V106.202H208.47V108.202ZM218.572 107.202V151H220.572V107.202H218.572ZM219.572 150H211.154V152H219.572V150ZM212.154 151V121.659H210.154V151H212.154ZM210.223 121.292L198.633 150.633L200.494 151.367L212.084 122.026L210.223 121.292ZM199.564 150H191.817V152H199.564V150ZM234.439 151V152H235.439V151H234.439ZM225.96 151H224.96V152H225.96V151ZM225.96 118.426V117.426H224.96V118.426H225.96ZM234.439 118.426H235.439V117.426H234.439V118.426ZM234.781 110.862C234.781 113.073 233.02 114.864 230.108 114.864V116.864C233.906 116.864 236.781 114.385 236.781 110.862H234.781ZM230.108 114.864C227.265 114.864 225.496 113.08 225.496 110.862H223.496C223.496 114.378 226.364 116.864 230.108 116.864V114.864ZM225.496 110.862C225.496 108.507 227.282 106.738 230.108 106.738V104.738C226.347 104.738 223.496 107.239 223.496 110.862H225.496ZM230.108 106.738C231.574 106.738 232.741 107.202 233.531 107.919C234.314 108.631 234.781 109.64 234.781 110.862H236.781C236.781 109.095 236.09 107.542 234.875 106.439C233.667 105.341 231.998 104.738 230.108 104.738V106.738ZM234.439 150H225.96V152H234.439V150ZM226.96 151V118.426H224.96V151H226.96ZM225.96 119.426H234.439V117.426H225.96V119.426ZM233.439 118.426V151H235.439V118.426H233.439ZM263.335 122.635L262.548 123.252L264.335 125.53V122.635H263.335ZM263.335 107.202V106.202H262.335V107.202H263.335ZM271.753 107.202H272.753V106.202H271.753V107.202ZM271.753 151V152H272.753V151H271.753ZM264.006 151H263.006V152H264.006V151ZM264.006 146.303H265.006V143.303L263.206 145.703L264.006 146.303ZM240.24 134.713C240.24 130.084 241.602 126.099 243.942 123.29C246.27 120.497 249.604 118.816 253.697 118.816V116.816C249.006 116.816 245.111 118.764 242.406 122.01C239.714 125.24 238.24 129.704 238.24 134.713H240.24ZM253.697 118.816C257.272 118.816 260.284 120.366 262.548 123.252L264.122 122.018C261.506 118.682 257.929 116.816 253.697 116.816V118.816ZM264.335 122.635V107.202H262.335V122.635H264.335ZM263.335 108.202H271.753V106.202H263.335V108.202ZM270.753 107.202V151H272.753V107.202H270.753ZM271.753 150H264.006V152H271.753V150ZM265.006 151V146.303H263.006V151H265.006ZM263.206 145.703C260.818 148.886 257.568 150.61 253.697 150.61V152.61C258.244 152.61 262.069 150.552 264.806 146.903L263.206 145.703ZM253.697 150.61C249.609 150.61 246.275 148.903 243.944 146.092C241.601 143.266 240.24 139.279 240.24 134.713H238.24C238.24 139.663 239.715 144.125 242.404 147.368C245.106 150.627 249 152.61 253.697 152.61V150.61ZM246.963 134.713C246.963 137.951 247.888 140.538 249.47 142.329C251.058 144.126 253.243 145.046 255.588 145.046V143.046C253.785 143.046 252.157 142.349 250.969 141.005C249.776 139.655 248.963 137.575 248.963 134.713H246.963ZM255.588 145.046C257.965 145.046 260.167 144.109 261.762 142.288C263.35 140.473 264.274 137.857 264.274 134.591H262.274C262.274 137.486 261.459 139.597 260.257 140.97C259.061 142.336 257.419 143.046 255.588 143.046V145.046ZM264.274 134.591C264.274 131.32 263.332 128.743 261.727 126.973C260.119 125.199 257.92 124.319 255.588 124.319V126.319C257.404 126.319 259.048 126.995 260.245 128.316C261.447 129.642 262.274 131.701 262.274 134.591H264.274ZM255.588 124.319C253.248 124.319 251.061 125.22 249.47 127.021C247.885 128.815 246.963 131.418 246.963 134.713H248.963C248.963 131.786 249.779 129.692 250.969 128.345C252.154 127.004 253.779 126.319 255.588 126.319V124.319ZM307.747 136.787V137.787H308.614L308.737 136.929L307.747 136.787ZM284.628 136.787V135.787H283.519L283.633 136.89L284.628 136.787ZM299.268 139.959V138.959H298.525L298.311 139.67L299.268 139.959ZM307.686 139.959L308.657 140.2L308.964 138.959H307.686V139.959ZM284.75 131.419L283.761 131.269L283.587 132.419H284.75V131.419ZM298.78 131.419V132.419H299.836L299.779 131.365L298.78 131.419ZM292.253 150.549C287.612 150.549 283.812 148.945 281.17 146.197C278.525 143.446 276.966 139.469 276.966 134.591H274.966C274.966 139.9 276.67 144.402 279.729 147.583C282.79 150.768 287.134 152.549 292.253 152.549V150.549ZM276.966 134.591C276.966 125.407 283.326 118.816 292.131 118.816V116.816C282.148 116.816 274.966 124.377 274.966 134.591H276.966ZM292.131 118.816C297.003 118.816 300.998 120.784 303.604 123.956C306.214 127.133 307.484 131.586 306.757 136.645L308.737 136.929C309.535 131.374 308.152 126.342 305.15 122.687C302.143 119.027 297.569 116.816 292.131 116.816V118.816ZM307.747 135.787H284.628V137.787H307.747V135.787ZM283.633 136.89C283.921 139.668 284.747 141.956 286.186 143.562C287.65 145.196 289.658 146.022 292.07 146.022V144.022C290.151 144.022 288.712 143.384 287.676 142.227C286.614 141.042 285.884 139.213 285.623 136.684L283.633 136.89ZM292.07 146.022C294.095 146.022 295.864 145.522 297.278 144.518C298.695 143.511 299.682 142.047 300.225 140.248L298.311 139.67C297.878 141.104 297.127 142.172 296.119 142.888C295.108 143.607 293.766 144.022 292.07 144.022V146.022ZM299.268 140.959H307.686V138.959H299.268V140.959ZM306.715 139.718C305.85 143.211 304.091 145.9 301.658 147.721C299.22 149.546 296.04 150.549 292.253 150.549V152.549C296.396 152.549 300.017 151.448 302.856 149.322C305.699 147.194 307.693 144.088 308.657 140.2L306.715 139.718ZM291.948 123.038C289.733 123.038 287.846 123.762 286.421 125.223C285.016 126.663 284.147 128.73 283.761 131.269L285.739 131.569C286.085 129.289 286.832 127.665 287.853 126.62C288.852 125.595 290.198 125.038 291.948 125.038V123.038ZM284.75 132.419H298.78V130.419H284.75V132.419ZM299.779 131.365C299.647 128.937 298.887 126.852 297.519 125.36C296.139 123.854 294.215 123.038 291.948 123.038V125.038C293.707 125.038 295.077 125.656 296.045 126.711C297.026 127.782 297.669 129.387 297.782 131.473L299.779 131.365ZM320.685 151V152H321.685V151H320.685ZM312.206 151H311.206V152H312.206V151ZM312.206 118.426V117.426H311.206V118.426H312.206ZM320.014 118.426H321.014V117.426H320.014V118.426ZM320.014 123.062H319.014V126.108L320.82 123.655L320.014 123.062ZM341.059 151V152H342.059V151H341.059ZM332.641 151H331.641V152H332.641V151ZM319.685 133.249V151H321.685V133.249H319.685ZM320.685 150H312.206V152H320.685V150ZM313.206 151V118.426H311.206V151H313.206ZM312.206 119.426H320.014V117.426H312.206V119.426ZM319.014 118.426V123.062H321.014V118.426H319.014ZM320.82 123.655C323.037 120.641 326.109 118.816 330.018 118.816V116.816C325.387 116.816 321.749 119.017 319.209 122.469L320.82 123.655ZM330.018 118.816C333.059 118.816 335.538 119.805 337.261 121.623C338.988 123.445 340.059 126.21 340.059 129.955H342.059C342.059 125.831 340.874 122.527 338.712 120.247C336.546 117.962 333.505 116.816 330.018 116.816V118.816ZM340.059 129.955V151H342.059V129.955H340.059ZM341.059 150H332.641V152H341.059V150ZM333.641 151V132.822H331.641V151H333.641ZM333.641 132.822C333.641 130.307 333.152 128.182 332.016 126.664C330.842 125.096 329.087 124.319 326.907 124.319V126.319C328.57 126.319 329.682 126.884 330.415 127.863C331.185 128.892 331.641 130.518 331.641 132.822H333.641ZM326.907 124.319C324.95 124.319 323.112 125.109 321.779 126.666C320.452 128.215 319.685 130.448 319.685 133.249H321.685C321.685 130.804 322.352 129.072 323.298 127.967C324.236 126.871 325.51 126.319 326.907 126.319V124.319Z" fill="#333333" mask="url(#path-65-outside-1_2090_357)"/>
<circle cx="132.5" cy="128.5" r="29.5" fill="url(#paint0_linear_2090_357)"/>
<path d="M140.016 134.423L147.369 129.939C147.759 129.701 148 129.259 148 128.785V119.816C148 119.342 147.759 118.9 147.369 118.662L140.016 114.178C139.626 113.94 139.143 113.942 138.755 114.178L131.402 118.662C131.012 118.9 130.771 119.342 130.771 119.816V135.843L125.614 138.986L120.458 135.843V129.555L125.614 126.412L129.015 128.487V124.268L126.245 122.578C126.055 122.462 125.836 122.399 125.614 122.399C125.393 122.399 125.174 122.462 124.984 122.578L117.631 127.062C117.241 127.3 117 127.742 117 128.216V137.185C117 137.659 117.241 138.101 117.631 138.339L124.984 142.823C125.374 143.059 125.855 143.059 126.245 142.823L133.598 138.339C133.988 138.101 134.229 137.659 134.229 137.185V121.158L134.321 121.102L139.383 118.015L144.54 121.158V127.446L139.383 130.589L135.987 128.519V132.737L138.753 134.423C139.143 134.659 139.626 134.659 140.014 134.423H140.016Z" fill="url(#paint1_linear_2090_357)"/>
<path d="M33.3477 126L38.7864 126C43.0511 126 46.9953 128.263 49.1471 131.945L50.3477 134H44.8109C40.3722 134 36.296 131.55 34.2135 127.63L33.3477 126Z" fill="white" stroke="#333333" stroke-linejoin="round"/>
<path d="M78.3477 126L73.8429 126C69.4666 126 65.4373 128.382 63.3283 132.217L62.3477 134H66.9312C71.4765 134 75.6317 131.432 77.6644 127.367L78.3477 126Z" fill="white" stroke="#333333" stroke-linejoin="round"/>
<path d="M31.3477 124L36.7864 124C41.0511 124 44.9953 126.263 47.1471 129.945L48.3477 132H42.8109C38.3722 132 34.296 129.55 32.2135 125.63L31.3477 124Z" fill="white" stroke="#333333" stroke-linejoin="round"/>
<path d="M76.3477 124L71.8429 124C67.4666 124 63.4373 126.382 61.3283 130.217L60.3477 132H64.9312C69.4765 132 73.6317 129.432 75.6644 125.367L76.3477 124Z" fill="white" stroke="#333333" stroke-linejoin="round"/>
<path d="M33 126L38.4388 126C42.7034 126 46.6477 128.263 48.7994 131.945L50 134H44.4633C40.0245 134 35.9483 131.55 33.8659 127.63L33 126Z" fill="white" stroke="#333333" stroke-linejoin="round"/>
<path d="M78 126L73.4953 126C69.119 126 65.0897 128.382 62.9807 132.217L62 134H66.5836C71.1289 134 75.284 131.432 77.3167 127.367L78 126Z" fill="white" stroke="#333333" stroke-linejoin="round"/>
<path d="M33.2986 105.425L23 108V124C23 140.569 36.4315 154 53 154C69.5685 154 83 140.569 83 124V108L72.7014 105.425C66.2581 103.815 59.6416 103 53 103C46.3584 103 39.7419 103.815 33.2986 105.425Z" fill="white" stroke="#333333" stroke-linejoin="round"/>
<path d="M31.6523 124.25L33.1506 123.168C37.4065 120.094 43.1667 120.143 47.3693 123.289L48.6523 124.25L47.3693 125.211C43.1667 128.357 37.4065 128.406 33.1506 125.332L31.6523 124.25Z" fill="white" stroke="#333333" stroke-linejoin="round"/>
<path d="M31.5077 114.993L33.235 114.335C38.1415 112.467 43.6927 114.006 46.9378 118.133L47.9285 119.393" stroke="#333333" stroke-linejoin="round"/>
<path d="M74.2892 114.993L72.5619 114.335C67.6553 112.467 62.1041 114.006 58.8591 118.133L57.8684 119.393" stroke="#333333" stroke-linejoin="round"/>
<path d="M56.6523 124.25L58.1506 123.168C62.4065 120.094 68.1667 120.143 72.3693 123.289L73.6523 124.25L72.3693 125.211C68.1667 128.357 62.4065 128.406 58.1506 125.332L56.6523 124.25Z" fill="white" stroke="#333333" stroke-linejoin="round"/>
<path d="M57 130H50L53.5 127L57 130Z" fill="white" stroke="#333333" stroke-linejoin="round"/>
<path d="M51.5 133L50.7218 133.778C48.6589 135.841 45.861 137 42.9437 137H40.5563C37.639 137 34.8411 135.841 32.7782 133.778L32 133" stroke="#333333" stroke-linejoin="round"/>
<path d="M74.5 133L73.7218 133.778C71.6589 135.841 68.861 137 65.9437 137H63.5563C60.639 137 57.8411 135.841 55.7782 133.778L55 133" stroke="#333333" stroke-linejoin="round"/>
<path d="M57 143H50L51.2727 154H55.7273L57 143Z" fill="white" stroke="#333333" stroke-linejoin="round"/>
<path d="M375.348 126L380.786 126C385.051 126 388.995 128.263 391.147 131.945L392.348 134H386.811C382.372 134 378.296 131.55 376.214 127.63L375.348 126Z" fill="white" stroke="#333333" stroke-linejoin="round"/>
<path d="M420.348 126L415.843 126C411.467 126 407.437 128.382 405.328 132.217L404.348 134H408.931C413.477 134 417.632 131.432 419.664 127.367L420.348 126Z" fill="white" stroke="#333333" stroke-linejoin="round"/>
<path d="M373.348 124L378.786 124C383.051 124 386.995 126.263 389.147 129.945L390.348 132H384.811C380.372 132 376.296 129.55 374.214 125.63L373.348 124Z" fill="white" stroke="#333333" stroke-linejoin="round"/>
<path d="M418.348 124L413.843 124C409.467 124 405.437 126.382 403.328 130.217L402.348 132H406.931C411.477 132 415.632 129.432 417.664 125.367L418.348 124Z" fill="white" stroke="#333333" stroke-linejoin="round"/>
<path d="M375 126L380.439 126C384.703 126 388.648 128.263 390.799 131.945L392 134H386.463C382.025 134 377.948 131.55 375.866 127.63L375 126Z" fill="white" stroke="#333333" stroke-linejoin="round"/>
<path d="M420 126L415.495 126C411.119 126 407.09 128.382 404.981 132.217L404 134H408.584C413.129 134 417.284 131.432 419.317 127.367L420 126Z" fill="white" stroke="#333333" stroke-linejoin="round"/>
<path d="M375.299 105.425L365 108V124C365 140.569 378.431 154 395 154C411.569 154 425 140.569 425 124V108L414.701 105.425C408.258 103.815 401.642 103 395 103C388.358 103 381.742 103.815 375.299 105.425Z" fill="white" stroke="#333333" stroke-linejoin="round"/>
<path d="M373.652 124.25L375.151 123.168C379.406 120.094 385.167 120.143 389.369 123.289L390.652 124.25L389.369 125.211C385.167 128.357 379.406 128.406 375.151 125.332L373.652 124.25Z" fill="white" stroke="#333333" stroke-linejoin="round"/>
<path d="M373.508 114.993L375.235 114.335C380.142 112.467 385.693 114.006 388.938 118.133L389.928 119.393" stroke="#333333" stroke-linejoin="round"/>
<path d="M416.289 114.993L414.562 114.335C409.655 112.467 404.104 114.006 400.859 118.133L399.868 119.393" stroke="#333333" stroke-linejoin="round"/>
<path d="M398.652 124.25L400.151 123.168C404.406 120.094 410.167 120.143 414.369 123.289L415.652 124.25L414.369 125.211C410.167 128.357 404.406 128.406 400.151 125.332L398.652 124.25Z" fill="white" stroke="#333333" stroke-linejoin="round"/>
<path d="M399 130H392L395.5 127L399 130Z" fill="white" stroke="#333333" stroke-linejoin="round"/>
<path d="M393.5 133L392.722 133.778C390.659 135.841 387.861 137 384.944 137H382.556C379.639 137 376.841 135.841 374.778 133.778L374 133" stroke="#333333" stroke-linejoin="round"/>
<path d="M416.5 133L415.722 133.778C413.659 135.841 410.861 137 407.944 137H405.556C402.639 137 399.841 135.841 397.778 133.778L397 133" stroke="#333333" stroke-linejoin="round"/>
<path d="M399 143H392L393.273 154H397.727L399 143Z" fill="white" stroke="#333333" stroke-linejoin="round"/>
<defs>
<linearGradient id="paint0_linear_2090_357" x1="102.808" y1="147.957" x2="162.715" y2="117.156" gradientUnits="userSpaceOnUse">
<stop stop-color="#A726C1"/>
<stop offset="0.88" stop-color="#803BDF"/>
<stop offset="1" stop-color="#7B3FE4"/>
</linearGradient>
<linearGradient id="paint1_linear_2090_357" x1="132.5" y1="114" x2="132.5" y2="172.5" gradientUnits="userSpaceOnUse">
<stop stop-color="white"/>
<stop offset="1" stop-color="white" stop-opacity="0"/>
</linearGradient>
</defs>
</svg>
