<svg width="450" height="255" viewBox="0 0 450 255" fill="none" xmlns="http://www.w3.org/2000/svg">
<path d="M385 178C385 175.239 382.761 173 380 173L265 173C262.239 173 260 175.239 260 178V208C260 210.761 262.239 213 265 213H367.929C369.255 213 370.527 213.527 371.464 214.464L385 228V178Z" fill="#E6E6E6" stroke="#333333" stroke-linejoin="round"/>
<rect x="93" y="179" width="60" height="53" rx="5" fill="#E6E6E6" stroke="#333333" stroke-linejoin="round"/>
<path d="M63 22C63 19.2386 65.2386 17 68 17L164 17C166.761 17 169 19.2386 169 22V57C169 59.7614 166.761 62 164 62H68C65.2386 62 63 59.7614 63 57L63 22Z" fill="white" stroke="#333333" stroke-linejoin="round"/>
<path d="M63 167C63 164.239 65.2386 162 68 162H133C135.761 162 138 164.239 138 167V212C138 214.761 135.761 217 133 217H80.0711C78.745 217 77.4732 217.527 76.5355 218.464L63 232L63 167Z" fill="white" stroke="#333333" stroke-linejoin="round"/>
<path d="M378 167C378 164.239 375.761 162 373 162L243 162C240.239 162 238 164.239 238 167V197C238 199.761 240.239 202 243 202H373C375.761 202 378 199.761 378 197L378 167Z" fill="white" stroke="#333333" stroke-linejoin="round"/>
<path d="M79 37C79 34.2386 81.2386 32 84 32L179 32C181.761 32 184 34.2386 184 37V82C184 84.7614 181.761 87 179 87H84C81.2386 87 79 84.7614 79 82L79 37Z" fill="white" stroke="#333333" stroke-linejoin="round"/>
<path d="M79 77L184 77V82C184 84.7614 181.761 87 179 87H84C81.2386 87 79 84.7614 79 82L79 77Z" fill="#E6E6E6" stroke="#333333" stroke-linejoin="round"/>
<path d="M164 57C164 54.2386 166.239 52 169 52V52C171.761 52 174 54.2386 174 57V57C174 59.7614 171.761 62 169 62V62C166.239 62 164 59.7614 164 57V57Z" fill="#E6E6E6" stroke="#333333" stroke-linejoin="round"/>
<path d="M134 57C134 54.2386 136.239 52 139 52L149 52C151.761 52 154 54.2386 154 57V57C154 59.7614 151.761 62 149 62H139C136.239 62 134 59.7614 134 57V57Z" fill="#E6E6E6" stroke="#333333" stroke-linejoin="round"/>
<path d="M114 57C114 54.2386 116.239 52 119 52V52C121.761 52 124 54.2386 124 57V57C124 59.7614 121.761 62 119 62V62C116.239 62 114 59.7614 114 57V57Z" fill="#E6E6E6" stroke="#333333" stroke-linejoin="round"/>
<path d="M94 57C94 54.2386 96.2386 52 99 52V52C101.761 52 104 54.2386 104 57V57C104 59.7614 101.761 62 99 62V62C96.2386 62 94 59.7614 94 57V57Z" fill="#E6E6E6" stroke="#333333" stroke-linejoin="round"/>
<path d="M393 42C393 39.2386 390.761 37 388 37L273 37C270.239 37 268 39.2386 268 42V82C268 84.7614 270.239 87 273 87H378L393 72L393 42Z" fill="white" stroke="#333333" stroke-linejoin="round"/>
<path d="M237.5 217C237.5 216.724 237.724 216.5 238 216.5C238.276 216.5 238.5 216.724 238.5 217H237.5ZM180.646 232.854C180.451 232.658 180.451 232.342 180.646 232.146L183.828 228.964C184.024 228.769 184.34 228.769 184.536 228.964C184.731 229.16 184.731 229.476 184.536 229.672L181.707 232.5L184.536 235.328C184.731 235.524 184.731 235.84 184.536 236.036C184.34 236.231 184.024 236.231 183.828 236.036L180.646 232.854ZM238 225H238.5H238ZM238.5 217V225H237.5V217H238.5ZM222.5 225L222.5 199.921L223.5 199.921L223.5 225L222.5 225ZM208.658 199.921L208.658 225L207.658 225L207.658 199.921L208.658 199.921ZM200.658 233L181 233L181 232L200.658 232L200.658 233ZM208.658 225C208.658 229.418 205.076 233 200.658 233L200.658 232C204.524 232 207.658 228.866 207.658 225L208.658 225ZM215.579 193C211.757 193 208.658 196.099 208.658 199.921L207.658 199.921C207.658 195.546 211.204 192 215.579 192L215.579 193ZM222.5 199.921C222.5 196.099 219.401 193 215.579 193L215.579 192C219.954 192 223.5 195.546 223.5 199.921L222.5 199.921ZM230.5 233C226.082 233 222.5 229.418 222.5 225L223.5 225C223.5 228.866 226.634 232 230.5 232V233ZM238.5 225C238.5 229.418 234.918 233 230.5 233V232C234.366 232 237.5 228.866 237.5 225H238.5Z" fill="#808080"/>
<path d="M223.354 41.6464C223.549 41.8417 223.549 42.1583 223.354 42.3536L220.172 45.5355C219.976 45.7308 219.66 45.7308 219.464 45.5355C219.269 45.3403 219.269 45.0237 219.464 44.8284L222.293 42L219.464 39.1716C219.269 38.9763 219.269 38.6597 219.464 38.4645C219.66 38.2692 219.976 38.2692 220.172 38.4645L223.354 41.6464ZM223 86.5C223.276 86.5 223.5 86.7239 223.5 87C223.5 87.2761 223.276 87.5 223 87.5V86.5ZM205.5 71.5H215.5V72.5H205.5V71.5ZM215.5 57.5H210.5V56.5H215.5V57.5ZM210.5 41.5H223V42.5H210.5V41.5ZM205.5 86.5H223V87.5H205.5V86.5ZM198.5 79.5C198.5 83.366 201.634 86.5 205.5 86.5V87.5C201.082 87.5 197.5 83.9183 197.5 79.5H198.5ZM202.5 49.5C202.5 45.0817 206.082 41.5 210.5 41.5V42.5C206.634 42.5 203.5 45.634 203.5 49.5H202.5ZM210.5 57.5C206.082 57.5 202.5 53.9183 202.5 49.5H203.5C203.5 53.366 206.634 56.5 210.5 56.5V57.5ZM222.5 64.5C222.5 60.634 219.366 57.5 215.5 57.5V56.5C219.918 56.5 223.5 60.0817 223.5 64.5H222.5ZM215.5 71.5C219.366 71.5 222.5 68.366 222.5 64.5H223.5C223.5 68.9183 219.918 72.5 215.5 72.5V71.5ZM205.5 72.5C201.634 72.5 198.5 75.634 198.5 79.5H197.5C197.5 75.0817 201.082 71.5 205.5 71.5V72.5Z" fill="#808080"/>
<circle cx="245.5" cy="50.5" r="7.5" fill="#E6E6E6" stroke="#333333" stroke-linejoin="round"/>
<circle cx="37.5" cy="197.5" r="7.5" fill="white" stroke="#333333" stroke-linejoin="round"/>
<circle cx="7.5" cy="7.5" r="7.5" transform="matrix(-1 0 0 1 420 39)" fill="#E6E6E6" stroke="#333333" stroke-linejoin="round"/>
<circle cx="215.5" cy="171.5" r="7.5" fill="#E6E6E6" stroke="#333333" stroke-linejoin="round"/>
<circle cx="353" cy="22" r="4" fill="white" stroke="#333333" stroke-linejoin="round"/>
<circle cx="371" cy="22" r="4" fill="white" stroke="#333333" stroke-linejoin="round"/>
<circle cx="389" cy="22" r="4" fill="white" stroke="#333333" stroke-linejoin="round"/>
<path d="M83 193.716L100.5 184.894L118 193.716L100.5 202.537L83 193.716Z" fill="#E6E6E6" stroke="#333333" stroke-linejoin="round"/>
<path d="M100.5 209.077L83 200.738V193.716L100.5 202.055V209.077Z" fill="white" stroke="#333333" stroke-linejoin="round"/>
<path d="M100.5 209.077L118 200.738V193.716L100.5 202.055V209.077Z" fill="white" stroke="#333333" stroke-linejoin="round"/>
<path d="M317.631 54.8948L329.947 47L342.263 54.8948L329.947 62.7896L317.631 54.8948Z" fill="white" stroke="#333333" stroke-linejoin="round"/>
<path d="M329.947 77.0002L317.631 69.5369V54.8948L329.947 62.358V77.0002Z" fill="white" stroke="#333333" stroke-linejoin="round"/>
<path d="M329.947 77.0002L342.263 69.5369V54.8948L329.947 62.358V77.0002Z" fill="#E6E6E6" stroke="#333333" stroke-linejoin="round"/>
<path d="M328 22L198 22" stroke="#808080" stroke-width="2" stroke-linecap="round" stroke-linejoin="round" stroke-dasharray="0 11"/>
<path d="M363 232L260 232" stroke="#808080" stroke-width="2" stroke-linecap="round" stroke-linejoin="round" stroke-dasharray="0 11"/>
<path fill-rule="evenodd" clip-rule="evenodd" d="M45.9826 74.0153C45.9941 73.845 46 73.6732 46 73.5C46 69.3579 42.6421 66 38.5 66C34.3579 66 31 69.3579 31 73.5C31 73.668 31.0055 73.8347 31.0164 74H30.5C26.3579 74 23 77.3579 23 81.5C23 85.6421 26.3579 89 30.5 89H45.5C49.6421 89 53 85.6421 53 81.5C53 77.52 49.8998 74.264 45.9826 74.0153Z" fill="white"/>
<path d="M45.9826 74.0153L45.4837 73.9814C45.4747 74.1141 45.5189 74.2449 45.6066 74.3449C45.6943 74.4449 45.8182 74.5058 45.9509 74.5143L45.9826 74.0153ZM31.0164 74V74.5C31.1547 74.5 31.2868 74.4427 31.3814 74.3417C31.4759 74.2408 31.5244 74.1052 31.5153 73.9672L31.0164 74ZM45.5 73.5C45.5 73.6619 45.4945 73.8224 45.4837 73.9814L46.4814 74.0491C46.4937 73.8676 46.5 73.6845 46.5 73.5H45.5ZM38.5 66.5C42.366 66.5 45.5 69.634 45.5 73.5H46.5C46.5 69.0817 42.9183 65.5 38.5 65.5V66.5ZM31.5 73.5C31.5 69.634 34.634 66.5 38.5 66.5V65.5C34.0817 65.5 30.5 69.0817 30.5 73.5H31.5ZM31.5153 73.9672C31.5052 73.8128 31.5 73.6571 31.5 73.5H30.5C30.5 73.679 30.5059 73.8567 30.5175 74.0328L31.5153 73.9672ZM30.5 74.5H31.0164V73.5H30.5V74.5ZM23.5 81.5C23.5 77.634 26.634 74.5 30.5 74.5V73.5C26.0817 73.5 22.5 77.0817 22.5 81.5H23.5ZM30.5 88.5C26.634 88.5 23.5 85.366 23.5 81.5H22.5C22.5 85.9183 26.0817 89.5 30.5 89.5V88.5ZM45.5 88.5H30.5V89.5H45.5V88.5ZM52.5 81.5C52.5 85.366 49.366 88.5 45.5 88.5V89.5C49.9183 89.5 53.5 85.9183 53.5 81.5H52.5ZM45.9509 74.5143C49.6065 74.7464 52.5 77.7855 52.5 81.5H53.5C53.5 77.2545 50.1931 73.7817 46.0143 73.5163L45.9509 74.5143Z" fill="#333333"/>
<path fill-rule="evenodd" clip-rule="evenodd" d="M404.017 172.015C404.006 171.845 404 171.673 404 171.5C404 167.358 407.358 164 411.5 164C415.642 164 419 167.358 419 171.5C419 171.668 418.994 171.835 418.984 172H419.5C423.642 172 427 175.358 427 179.5C427 183.642 423.642 187 419.5 187H404.5C400.358 187 397 183.642 397 179.5C397 175.52 400.1 172.264 404.017 172.015Z" fill="white"/>
<path d="M404.017 172.015L404.516 171.981C404.525 172.114 404.481 172.245 404.393 172.345C404.306 172.445 404.182 172.506 404.049 172.514L404.017 172.015ZM418.984 172V172.5C418.845 172.5 418.713 172.443 418.619 172.342C418.524 172.241 418.476 172.105 418.485 171.967L418.984 172ZM404.5 171.5C404.5 171.662 404.505 171.822 404.516 171.981L403.519 172.049C403.506 171.868 403.5 171.684 403.5 171.5H404.5ZM411.5 164.5C407.634 164.5 404.5 167.634 404.5 171.5H403.5C403.5 167.082 407.082 163.5 411.5 163.5V164.5ZM418.5 171.5C418.5 167.634 415.366 164.5 411.5 164.5V163.5C415.918 163.5 419.5 167.082 419.5 171.5H418.5ZM418.485 171.967C418.495 171.813 418.5 171.657 418.5 171.5H419.5C419.5 171.679 419.494 171.857 419.483 172.033L418.485 171.967ZM419.5 172.5H418.984V171.5H419.5V172.5ZM426.5 179.5C426.5 175.634 423.366 172.5 419.5 172.5V171.5C423.918 171.5 427.5 175.082 427.5 179.5H426.5ZM419.5 186.5C423.366 186.5 426.5 183.366 426.5 179.5H427.5C427.5 183.918 423.918 187.5 419.5 187.5V186.5ZM404.5 186.5H419.5V187.5H404.5V186.5ZM397.5 179.5C397.5 183.366 400.634 186.5 404.5 186.5V187.5C400.082 187.5 396.5 183.918 396.5 179.5H397.5ZM404.049 172.514C400.393 172.746 397.5 175.786 397.5 179.5H396.5C396.5 175.254 399.807 171.782 403.986 171.516L404.049 172.514Z" fill="#333333"/>
<path d="M258.1 183.26C258.1 178.78 259.82 176.28 262.9 176.28C265.96 176.28 267.7 178.78 267.7 183.26C267.7 187.74 266 190.2 262.9 190.2C259.78 190.2 258.1 187.74 258.1 183.26ZM259.54 183.26C259.54 186.98 260.68 188.96 262.9 188.96C265.08 188.96 266.26 187 266.26 183.26C266.26 179.5 265.08 177.52 262.9 177.52C260.72 177.52 259.54 179.48 259.54 183.26ZM275.062 190H273.682V177.68H271.022V176.48H275.062V190ZM283.175 190H281.795V177.68H279.135V176.48H283.175V190ZM291.289 190H289.909V177.68H287.249V176.48H291.289V190ZM296.022 183.26C296.022 178.78 297.742 176.28 300.822 176.28C303.882 176.28 305.622 178.78 305.622 183.26C305.622 187.74 303.922 190.2 300.822 190.2C297.702 190.2 296.022 187.74 296.022 183.26ZM297.462 183.26C297.462 186.98 298.602 188.96 300.822 188.96C303.002 188.96 304.182 187 304.182 183.26C304.182 179.5 303.002 177.52 300.822 177.52C298.642 177.52 297.462 179.48 297.462 183.26ZM309.663 183.26C309.663 178.78 311.383 176.28 314.463 176.28C317.523 176.28 319.263 178.78 319.263 183.26C319.263 187.74 317.563 190.2 314.463 190.2C311.343 190.2 309.663 187.74 309.663 183.26ZM311.103 183.26C311.103 186.98 312.243 188.96 314.463 188.96C316.643 188.96 317.823 187 317.823 183.26C317.823 179.5 316.643 177.52 314.463 177.52C312.283 177.52 311.103 179.48 311.103 183.26ZM326.625 190H325.245V177.68H322.585V176.48H326.625V190ZM334.738 190H333.358V177.68H330.698V176.48H334.738V190ZM342.291 188.84C342.291 189.56 341.771 190.1 341.031 190.1C340.311 190.1 339.771 189.56 339.771 188.84C339.771 188.08 340.311 187.56 341.031 187.56C341.771 187.56 342.291 188.08 342.291 188.84ZM349.447 188.84C349.447 189.56 348.927 190.1 348.187 190.1C347.467 190.1 346.927 189.56 346.927 188.84C346.927 188.08 347.467 187.56 348.187 187.56C348.927 187.56 349.447 188.08 349.447 188.84ZM356.604 188.84C356.604 189.56 356.084 190.1 355.344 190.1C354.624 190.1 354.084 189.56 354.084 188.84C354.084 188.08 354.624 187.56 355.344 187.56C356.084 187.56 356.604 188.08 356.604 188.84Z" fill="#333333"/>
<path fill-rule="evenodd" clip-rule="evenodd" d="M240.197 77.3033L238 79.5L240.197 81.6967V84.8033H243.303L245.5 87L247.697 84.8033H250.803V81.6967L253 79.5L250.803 77.3033V74.1967H247.697L245.5 72L243.303 74.1967H240.197V77.3033Z" fill="white"/>
<path d="M238 79.5L237.646 79.1464C237.451 79.3417 237.451 79.6583 237.646 79.8536L238 79.5ZM240.197 77.3033L240.55 77.6569C240.644 77.5631 240.697 77.4359 240.697 77.3033H240.197ZM240.197 81.6967H240.697C240.697 81.5641 240.644 81.4369 240.55 81.3431L240.197 81.6967ZM240.197 84.8033H239.697C239.697 85.0794 239.921 85.3033 240.197 85.3033V84.8033ZM243.303 84.8033L243.657 84.4497C243.563 84.356 243.436 84.3033 243.303 84.3033V84.8033ZM245.5 87L245.146 87.3536C245.342 87.5488 245.658 87.5488 245.854 87.3536L245.5 87ZM247.697 84.8033V84.3033C247.564 84.3033 247.437 84.356 247.343 84.4497L247.697 84.8033ZM250.803 84.8033V85.3033C251.079 85.3033 251.303 85.0794 251.303 84.8033H250.803ZM250.803 81.6967L250.45 81.3431C250.356 81.4369 250.303 81.5641 250.303 81.6967H250.803ZM253 79.5L253.354 79.8536C253.549 79.6583 253.549 79.3417 253.354 79.1464L253 79.5ZM250.803 77.3033H250.303C250.303 77.4359 250.356 77.5631 250.45 77.6569L250.803 77.3033ZM250.803 74.1967H251.303C251.303 73.9206 251.079 73.6967 250.803 73.6967V74.1967ZM247.697 74.1967L247.343 74.5503C247.437 74.644 247.564 74.6967 247.697 74.6967V74.1967ZM245.5 72L245.854 71.6464C245.76 71.5527 245.633 71.5 245.5 71.5C245.367 71.5 245.24 71.5527 245.146 71.6464L245.5 72ZM243.303 74.1967V74.6967C243.436 74.6967 243.563 74.644 243.657 74.5503L243.303 74.1967ZM240.197 74.1967V73.6967C239.921 73.6967 239.697 73.9206 239.697 74.1967H240.197ZM238.354 79.8536L240.55 77.6569L239.843 76.9497L237.646 79.1464L238.354 79.8536ZM240.55 81.3431L238.354 79.1464L237.646 79.8536L239.843 82.0503L240.55 81.3431ZM240.697 84.8033V81.6967H239.697V84.8033H240.697ZM243.303 84.3033H240.197V85.3033H243.303V84.3033ZM245.854 86.6464L243.657 84.4497L242.95 85.1569L245.146 87.3536L245.854 86.6464ZM247.343 84.4497L245.146 86.6464L245.854 87.3536L248.05 85.1569L247.343 84.4497ZM250.803 84.3033H247.697V85.3033H250.803V84.3033ZM250.303 81.6967V84.8033H251.303V81.6967H250.303ZM252.646 79.1464L250.45 81.3431L251.157 82.0502L253.354 79.8536L252.646 79.1464ZM250.45 77.6569L252.646 79.8536L253.354 79.1464L251.157 76.9498L250.45 77.6569ZM250.303 74.1967V77.3033H251.303V74.1967H250.303ZM247.697 74.6967H250.803V73.6967H247.697V74.6967ZM245.146 72.3536L247.343 74.5503L248.05 73.8431L245.854 71.6464L245.146 72.3536ZM243.657 74.5503L245.854 72.3536L245.146 71.6464L242.95 73.8431L243.657 74.5503ZM240.197 74.6967H243.303V73.6967H240.197V74.6967ZM240.697 77.3033V74.1967H239.697V77.3033H240.697Z" fill="#333333"/>
<path fill-rule="evenodd" clip-rule="evenodd" d="M32.1967 229.303L30 231.5L32.1967 233.697V236.803H35.3033L37.5 239L39.6967 236.803H42.8033V233.697L45 231.5L42.8033 229.303V226.197H39.6967L37.5 224L35.3033 226.197H32.1967V229.303Z" fill="#E6E6E6"/>
<path d="M30 231.5L29.6464 231.146C29.4512 231.342 29.4512 231.658 29.6464 231.854L30 231.5ZM32.1967 229.303L32.5503 229.657C32.644 229.563 32.6967 229.436 32.6967 229.303H32.1967ZM32.1967 233.697H32.6967C32.6967 233.564 32.644 233.437 32.5503 233.343L32.1967 233.697ZM32.1967 236.803H31.6967C31.6967 237.079 31.9206 237.303 32.1967 237.303V236.803ZM35.3033 236.803L35.6569 236.45C35.5631 236.356 35.4359 236.303 35.3033 236.303V236.803ZM37.5 239L37.1464 239.354C37.3417 239.549 37.6583 239.549 37.8536 239.354L37.5 239ZM39.6967 236.803V236.303C39.5641 236.303 39.4369 236.356 39.3431 236.45L39.6967 236.803ZM42.8033 236.803V237.303C43.0794 237.303 43.3033 237.079 43.3033 236.803H42.8033ZM42.8033 233.697L42.4498 233.343C42.356 233.437 42.3033 233.564 42.3033 233.697H42.8033ZM45 231.5L45.3536 231.854C45.5488 231.658 45.5488 231.342 45.3536 231.146L45 231.5ZM42.8033 229.303H42.3033C42.3033 229.436 42.356 229.563 42.4498 229.657L42.8033 229.303ZM42.8033 226.197H43.3033C43.3033 225.921 43.0794 225.697 42.8033 225.697V226.197ZM39.6967 226.197L39.3431 226.55C39.4369 226.644 39.5641 226.697 39.6967 226.697V226.197ZM37.5 224L37.8536 223.646C37.7598 223.553 37.6326 223.5 37.5 223.5C37.3674 223.5 37.2402 223.553 37.1464 223.646L37.5 224ZM35.3033 226.197V226.697C35.4359 226.697 35.5631 226.644 35.6569 226.55L35.3033 226.197ZM32.1967 226.197V225.697C31.9206 225.697 31.6967 225.921 31.6967 226.197H32.1967ZM30.3536 231.854L32.5503 229.657L31.8431 228.95L29.6464 231.146L30.3536 231.854ZM32.5503 233.343L30.3536 231.146L29.6464 231.854L31.8431 234.05L32.5503 233.343ZM32.6967 236.803V233.697H31.6967V236.803H32.6967ZM35.3033 236.303H32.1967V237.303H35.3033V236.303ZM37.8536 238.646L35.6569 236.45L34.9497 237.157L37.1464 239.354L37.8536 238.646ZM39.3431 236.45L37.1464 238.646L37.8536 239.354L40.0503 237.157L39.3431 236.45ZM42.8033 236.303H39.6967V237.303H42.8033V236.303ZM42.3033 233.697V236.803H43.3033V233.697H42.3033ZM44.6464 231.146L42.4498 233.343L43.1569 234.05L45.3536 231.854L44.6464 231.146ZM42.4498 229.657L44.6464 231.854L45.3536 231.146L43.1569 228.95L42.4498 229.657ZM42.3033 226.197V229.303H43.3033V226.197H42.3033ZM39.6967 226.697H42.8033V225.697H39.6967V226.697ZM37.1464 224.354L39.3431 226.55L40.0503 225.843L37.8536 223.646L37.1464 224.354ZM35.6569 226.55L37.8536 224.354L37.1464 223.646L34.9497 225.843L35.6569 226.55ZM32.1967 226.697H35.3033V225.697H32.1967V226.697ZM32.6967 229.303V226.197H31.6967V229.303H32.6967Z" fill="#333333"/>
<path fill-rule="evenodd" clip-rule="evenodd" d="M417.803 223.303L420 225.5L417.803 227.697V230.803H414.697L412.5 233L410.303 230.803H407.197V227.697L405 225.5L407.197 223.303V220.197H410.303L412.5 218L414.697 220.197H417.803V223.303Z" fill="white"/>
<path d="M420 225.5L420.354 225.146C420.549 225.342 420.549 225.658 420.354 225.854L420 225.5ZM417.803 223.303L417.45 223.657C417.356 223.563 417.303 223.436 417.303 223.303H417.803ZM417.803 227.697H417.303C417.303 227.564 417.356 227.437 417.45 227.343L417.803 227.697ZM417.803 230.803H418.303C418.303 231.079 418.079 231.303 417.803 231.303V230.803ZM414.697 230.803L414.343 230.45C414.437 230.356 414.564 230.303 414.697 230.303V230.803ZM412.5 233L412.854 233.354C412.658 233.549 412.342 233.549 412.146 233.354L412.5 233ZM410.303 230.803V230.303C410.436 230.303 410.563 230.356 410.657 230.45L410.303 230.803ZM407.197 230.803V231.303C406.921 231.303 406.697 231.079 406.697 230.803H407.197ZM407.197 227.697L407.55 227.343C407.644 227.437 407.697 227.564 407.697 227.697H407.197ZM405 225.5L404.646 225.854C404.451 225.658 404.451 225.342 404.646 225.146L405 225.5ZM407.197 223.303H407.697C407.697 223.436 407.644 223.563 407.55 223.657L407.197 223.303ZM407.197 220.197H406.697C406.697 219.921 406.921 219.697 407.197 219.697V220.197ZM410.303 220.197L410.657 220.55C410.563 220.644 410.436 220.697 410.303 220.697V220.197ZM412.5 218L412.146 217.646C412.24 217.553 412.367 217.5 412.5 217.5C412.633 217.5 412.76 217.553 412.854 217.646L412.5 218ZM414.697 220.197V220.697C414.564 220.697 414.437 220.644 414.343 220.55L414.697 220.197ZM417.803 220.197V219.697C418.079 219.697 418.303 219.921 418.303 220.197H417.803ZM419.646 225.854L417.45 223.657L418.157 222.95L420.354 225.146L419.646 225.854ZM417.45 227.343L419.646 225.146L420.354 225.854L418.157 228.05L417.45 227.343ZM417.303 230.803V227.697H418.303V230.803H417.303ZM414.697 230.303H417.803V231.303H414.697V230.303ZM412.146 232.646L414.343 230.45L415.05 231.157L412.854 233.354L412.146 232.646ZM410.657 230.45L412.854 232.646L412.146 233.354L409.95 231.157L410.657 230.45ZM407.197 230.303H410.303V231.303H407.197V230.303ZM407.697 227.697V230.803H406.697V227.697H407.697ZM405.354 225.146L407.55 227.343L406.843 228.05L404.646 225.854L405.354 225.146ZM407.55 223.657L405.354 225.854L404.646 225.146L406.843 222.95L407.55 223.657ZM407.697 220.197V223.303H406.697V220.197H407.697ZM410.303 220.697H407.197V219.697H410.303V220.697ZM412.854 218.354L410.657 220.55L409.95 219.843L412.146 217.646L412.854 218.354ZM414.343 220.55L412.146 218.354L412.854 217.646L415.05 219.843L414.343 220.55ZM417.803 220.697H414.697V219.697H417.803V220.697ZM417.303 223.303V220.197H418.303V223.303H417.303Z" fill="#333333"/>
<path fill-rule="evenodd" clip-rule="evenodd" d="M32.1967 161.303L30 163.5L32.1967 165.697V168.803H35.3033L37.5 171L39.6967 168.803H42.8033V165.697L45 163.5L42.8033 161.303V158.197H39.6967L37.5 156L35.3033 158.197H32.1967V161.303Z" fill="#E6E6E6"/>
<path d="M30 163.5L29.6464 163.146C29.4512 163.342 29.4512 163.658 29.6464 163.854L30 163.5ZM32.1967 161.303L32.5503 161.657C32.644 161.563 32.6967 161.436 32.6967 161.303H32.1967ZM32.1967 165.697H32.6967C32.6967 165.564 32.644 165.437 32.5503 165.343L32.1967 165.697ZM32.1967 168.803H31.6967C31.6967 169.079 31.9206 169.303 32.1967 169.303V168.803ZM35.3033 168.803L35.6569 168.45C35.5631 168.356 35.4359 168.303 35.3033 168.303V168.803ZM37.5 171L37.1464 171.354C37.3417 171.549 37.6583 171.549 37.8536 171.354L37.5 171ZM39.6967 168.803V168.303C39.5641 168.303 39.4369 168.356 39.3431 168.45L39.6967 168.803ZM42.8033 168.803V169.303C43.0794 169.303 43.3033 169.079 43.3033 168.803H42.8033ZM42.8033 165.697L42.4498 165.343C42.356 165.437 42.3033 165.564 42.3033 165.697H42.8033ZM45 163.5L45.3536 163.854C45.5488 163.658 45.5488 163.342 45.3536 163.146L45 163.5ZM42.8033 161.303H42.3033C42.3033 161.436 42.356 161.563 42.4498 161.657L42.8033 161.303ZM42.8033 158.197H43.3033C43.3033 157.921 43.0794 157.697 42.8033 157.697V158.197ZM39.6967 158.197L39.3431 158.55C39.4369 158.644 39.5641 158.697 39.6967 158.697V158.197ZM37.5 156L37.8536 155.646C37.7598 155.553 37.6326 155.5 37.5 155.5C37.3674 155.5 37.2402 155.553 37.1464 155.646L37.5 156ZM35.3033 158.197V158.697C35.4359 158.697 35.5631 158.644 35.6569 158.55L35.3033 158.197ZM32.1967 158.197V157.697C31.9206 157.697 31.6967 157.921 31.6967 158.197H32.1967ZM30.3536 163.854L32.5503 161.657L31.8431 160.95L29.6464 163.146L30.3536 163.854ZM32.5503 165.343L30.3536 163.146L29.6464 163.854L31.8431 166.05L32.5503 165.343ZM32.6967 168.803V165.697H31.6967V168.803H32.6967ZM35.3033 168.303H32.1967V169.303H35.3033V168.303ZM37.8536 170.646L35.6569 168.45L34.9497 169.157L37.1464 171.354L37.8536 170.646ZM39.3431 168.45L37.1464 170.646L37.8536 171.354L40.0503 169.157L39.3431 168.45ZM42.8033 168.303H39.6967V169.303H42.8033V168.303ZM42.3033 165.697V168.803H43.3033V165.697H42.3033ZM44.6464 163.146L42.4498 165.343L43.1569 166.05L45.3536 163.854L44.6464 163.146ZM42.4498 161.657L44.6464 163.854L45.3536 163.146L43.1569 160.95L42.4498 161.657ZM42.3033 158.197V161.303H43.3033V158.197H42.3033ZM39.6967 158.697H42.8033V157.697H39.6967V158.697ZM37.1464 156.354L39.3431 158.55L40.0503 157.843L37.8536 155.646L37.1464 156.354ZM35.6569 158.55L37.8536 156.354L37.1464 155.646L34.9497 157.843L35.6569 158.55ZM32.1967 158.697H35.3033V157.697H32.1967V158.697ZM32.6967 161.303V158.197H31.6967V161.303H32.6967Z" fill="#333333"/>
<path fill-rule="evenodd" clip-rule="evenodd" d="M417.803 77.3033L420 79.5L417.803 81.6967V84.8033H414.697L412.5 87L410.303 84.8033H407.197V81.6967L405 79.5L407.197 77.3033V74.1967H410.303L412.5 72L414.697 74.1967H417.803V77.3033Z" fill="white"/>
<path d="M420 79.5L420.354 79.1464C420.549 79.3417 420.549 79.6583 420.354 79.8536L420 79.5ZM417.803 77.3033L417.45 77.6569C417.356 77.5631 417.303 77.4359 417.303 77.3033H417.803ZM417.803 81.6967H417.303C417.303 81.5641 417.356 81.4369 417.45 81.3431L417.803 81.6967ZM417.803 84.8033H418.303C418.303 85.0794 418.079 85.3033 417.803 85.3033V84.8033ZM414.697 84.8033L414.343 84.4497C414.437 84.356 414.564 84.3033 414.697 84.3033V84.8033ZM412.5 87L412.854 87.3536C412.658 87.5488 412.342 87.5488 412.146 87.3536L412.5 87ZM410.303 84.8033V84.3033C410.436 84.3033 410.563 84.356 410.657 84.4497L410.303 84.8033ZM407.197 84.8033V85.3033C406.921 85.3033 406.697 85.0794 406.697 84.8033H407.197ZM407.197 81.6967L407.55 81.3431C407.644 81.4369 407.697 81.5641 407.697 81.6967H407.197ZM405 79.5L404.646 79.8536C404.451 79.6583 404.451 79.3417 404.646 79.1464L405 79.5ZM407.197 77.3033H407.697C407.697 77.4359 407.644 77.5631 407.55 77.6569L407.197 77.3033ZM407.197 74.1967H406.697C406.697 73.9206 406.921 73.6967 407.197 73.6967V74.1967ZM410.303 74.1967L410.657 74.5503C410.563 74.644 410.436 74.6967 410.303 74.6967V74.1967ZM412.5 72L412.146 71.6464C412.24 71.5527 412.367 71.5 412.5 71.5C412.633 71.5 412.76 71.5527 412.854 71.6464L412.5 72ZM414.697 74.1967V74.6967C414.564 74.6967 414.437 74.644 414.343 74.5503L414.697 74.1967ZM417.803 74.1967V73.6967C418.079 73.6967 418.303 73.9206 418.303 74.1967H417.803ZM419.646 79.8536L417.45 77.6569L418.157 76.9497L420.354 79.1464L419.646 79.8536ZM417.45 81.3431L419.646 79.1464L420.354 79.8536L418.157 82.0503L417.45 81.3431ZM417.303 84.8033V81.6967H418.303V84.8033H417.303ZM414.697 84.3033H417.803V85.3033H414.697V84.3033ZM412.146 86.6464L414.343 84.4497L415.05 85.1569L412.854 87.3536L412.146 86.6464ZM410.657 84.4497L412.854 86.6464L412.146 87.3536L409.95 85.1569L410.657 84.4497ZM407.197 84.3033H410.303V85.3033H407.197V84.3033ZM407.697 81.6967V84.8033H406.697V81.6967H407.697ZM405.354 79.1464L407.55 81.3431L406.843 82.0502L404.646 79.8536L405.354 79.1464ZM407.55 77.6569L405.354 79.8536L404.646 79.1464L406.843 76.9498L407.55 77.6569ZM407.697 74.1967V77.3033H406.697V74.1967H407.697ZM410.303 74.6967H407.197V73.6967H410.303V74.6967ZM412.854 72.3536L410.657 74.5503L409.95 73.8431L412.146 71.6464L412.854 72.3536ZM414.343 74.5503L412.146 72.3536L412.854 71.6464L415.05 73.8431L414.343 74.5503ZM417.803 74.6967H414.697V73.6967H417.803V74.6967ZM417.303 77.3033V74.1967H418.303V77.3033H417.303Z" fill="#333333"/>
<path d="M83 178.821L100.5 170L118 178.821L100.5 187.643L83 178.821Z" fill="#E6E6E6" stroke="#333333" stroke-linejoin="round"/>
<path d="M100.5 193.405L83 185.066V178.821L100.5 187.16V193.405Z" fill="white" stroke="#333333" stroke-linejoin="round"/>
<path d="M100.5 193.405L118 185.066V178.821L100.5 187.16V193.405Z" fill="white" stroke="#333333" stroke-linejoin="round"/>
<path d="M168 182L180.705 162L193 182L180.705 192.339L168 182Z" fill="white"/>
<path d="M168 192L180.705 202L193 192L180.705 212L168 192Z" fill="white"/>
<path d="M180.705 162L168 182M180.705 162L193 182M180.705 162V174M168 182L180.705 192.339L193 182M168 182L180.705 174M193 182L180.705 174M180.705 202L168 192L180.705 212M180.705 202L193 192L180.705 212M180.705 202V212" stroke="#333333" stroke-linecap="round" stroke-linejoin="round"/>
<path fill-rule="evenodd" clip-rule="evenodd" d="M76 123.667C76 125.508 74.5076 127 72.6667 127L55.1655 127C53.359 131.68 48.8172 135 43.5 135C36.5964 135 31 129.404 31 122.5C31 115.596 36.5964 110 43.5 110C48.43 110 52.6934 112.854 54.7281 117L69.3333 117C73.0152 117 76 119.985 76 123.667Z" fill="white"/>
<path d="M55.1655 127L54.6991 126.82C54.7735 126.627 54.9588 126.5 55.1655 126.5L55.1655 127ZM54.7281 117L54.7281 117.5C54.5374 117.5 54.3633 117.391 54.2792 117.22L54.7281 117ZM69.3333 117L69.3333 117.5L69.3333 117ZM72.6667 126.5C74.2315 126.5 75.5 125.231 75.5 123.667L76.5 123.667C76.5 125.784 74.7838 127.5 72.6667 127.5L72.6667 126.5ZM55.1655 126.5L72.6667 126.5L72.6667 127.5L55.1655 127.5L55.1655 126.5ZM43.5 134.5C48.6037 134.5 52.9645 131.314 54.6991 126.82L55.632 127.18C53.7535 132.046 49.0307 135.5 43.5 135.5L43.5 134.5ZM31.5 122.5C31.5 129.127 36.8726 134.5 43.5 134.5L43.5 135.5C36.3203 135.5 30.5 129.68 30.5 122.5L31.5 122.5ZM43.5 110.5C36.8726 110.5 31.5 115.873 31.5 122.5L30.5 122.5C30.5 115.32 36.3203 109.5 43.5 109.5L43.5 110.5ZM54.2792 117.22C52.3253 113.239 48.2321 110.5 43.5 110.5L43.5 109.5C48.6279 109.5 53.0615 112.469 55.177 116.78L54.2792 117.22ZM69.3333 117.5L54.7281 117.5L54.7281 116.5L69.3333 116.5L69.3333 117.5ZM75.5 123.667C75.5 120.261 72.7391 117.5 69.3333 117.5L69.3333 116.5C73.2914 116.5 76.5 119.709 76.5 123.667L75.5 123.667Z" fill="#333333"/>
<circle cx="3" cy="3" r="3" transform="matrix(1.31134e-07 -1 -1 -1.31134e-07 43 125)" fill="white" stroke="#333333" stroke-linejoin="round"/>
<path fill-rule="evenodd" clip-rule="evenodd" d="M374 123.667C374 125.508 375.492 127 377.333 127L394.834 127C396.641 131.68 401.183 135 406.5 135C413.404 135 419 129.404 419 122.5C419 115.596 413.404 110 406.5 110C401.57 110 397.307 112.854 395.272 117L380.667 117C376.985 117 374 119.985 374 123.667Z" fill="white"/>
<path d="M394.834 127L395.301 126.82C395.227 126.627 395.041 126.5 394.834 126.5L394.834 127ZM395.272 117L395.272 117.5C395.463 117.5 395.637 117.391 395.721 117.22L395.272 117ZM380.667 117L380.667 117.5L380.667 117ZM377.333 126.5C375.769 126.5 374.5 125.231 374.5 123.667L373.5 123.667C373.5 125.784 375.216 127.5 377.333 127.5L377.333 126.5ZM394.834 126.5L377.333 126.5L377.333 127.5L394.834 127.5L394.834 126.5ZM406.5 134.5C401.396 134.5 397.036 131.314 395.301 126.82L394.368 127.18C396.247 132.046 400.969 135.5 406.5 135.5L406.5 134.5ZM418.5 122.5C418.5 129.127 413.127 134.5 406.5 134.5L406.5 135.5C413.68 135.5 419.5 129.68 419.5 122.5L418.5 122.5ZM406.5 110.5C413.127 110.5 418.5 115.873 418.5 122.5L419.5 122.5C419.5 115.32 413.68 109.5 406.5 109.5L406.5 110.5ZM395.721 117.22C397.675 113.239 401.768 110.5 406.5 110.5L406.5 109.5C401.372 109.5 396.939 112.469 394.823 116.78L395.721 117.22ZM380.667 117.5L395.272 117.5L395.272 116.5L380.667 116.5L380.667 117.5ZM374.5 123.667C374.5 120.261 377.261 117.5 380.667 117.5L380.667 116.5C376.709 116.5 373.5 119.709 373.5 123.667L374.5 123.667Z" fill="#333333"/>
<circle cx="410" cy="122" r="3" transform="rotate(-90 410 122)" fill="white" stroke="#333333" stroke-linejoin="round"/>
<path d="M278 54.8014L291.542 46.8357L305.083 54.8014L291.542 62.7671L278 54.8014Z" fill="white" stroke="#333333" stroke-linejoin="round"/>
<path d="M291.542 77.1052L278 69.5749V54.8013L291.542 62.3315V77.1052Z" fill="white" stroke="#333333" stroke-linejoin="round"/>
<path d="M291.542 77.1052L305.083 69.5749V54.8013L291.542 62.3315V77.1052Z" fill="#E6E6E6" stroke="#333333" stroke-linejoin="round"/>
<path d="M354.917 54.8014L368.459 46.8357L382 54.8014L368.459 62.7671L354.917 54.8014Z" fill="white" stroke="#333333" stroke-linejoin="round"/>
<path d="M368.459 77.1052L354.917 69.5749V54.8013L368.459 62.3315V77.1052Z" fill="white" stroke="#333333" stroke-linejoin="round"/>
<path d="M368.459 77.1052L382 69.5749V54.8013L368.459 62.3315V77.1052Z" fill="#E6E6E6" stroke="#333333" stroke-linejoin="round"/>
<mask id="path-63-outside-1_2090_268" maskUnits="userSpaceOnUse" x="157" y="102" width="193" height="46" fill="black">
<rect fill="white" x="157" y="102" width="193" height="46"/>
<path d="M186.369 147H158.614V140.168L175.389 121.746H158.553V114.426H185.881V121.38L169.045 139.619H186.369V147ZM198.953 147H190.474V103.202H198.953V128.212L210.848 114.426H220.608L207.127 130.042L222.194 147H211.397L198.953 131.872V147ZM255.072 138.948V147H225.609V103.202H254.645V111.254H234.881V120.465H252.815V128.456H234.881V138.948H255.072ZM298.723 103.202L282.863 147H272.737L256.999 103.202H267.003L278.105 136.203L289.451 103.202H298.723ZM320.573 147L309.105 117.903V147H300.687V103.202H311.789L324.477 135.654L337.226 103.202H348.328V147H339.91V117.659L328.32 147H320.573Z"/>
</mask>
<path d="M186.369 147H158.614V140.168L175.389 121.746H158.553V114.426H185.881V121.38L169.045 139.619H186.369V147ZM198.953 147H190.474V103.202H198.953V128.212L210.848 114.426H220.608L207.127 130.042L222.194 147H211.397L198.953 131.872V147ZM255.072 138.948V147H225.609V103.202H254.645V111.254H234.881V120.465H252.815V128.456H234.881V138.948H255.072ZM298.723 103.202L282.863 147H272.737L256.999 103.202H267.003L278.105 136.203L289.451 103.202H298.723ZM320.573 147L309.105 117.903V147H300.687V103.202H311.789L324.477 135.654L337.226 103.202H348.328V147H339.91V117.659L328.32 147H320.573Z" fill="white"/>
<path d="M186.369 147V148H187.369V147H186.369ZM158.614 147H157.614V148H158.614V147ZM158.614 140.168L157.875 139.495L157.614 139.781V140.168H158.614ZM175.389 121.746L176.129 122.419L177.652 120.746H175.389V121.746ZM158.553 121.746H157.553V122.746H158.553V121.746ZM158.553 114.426V113.426H157.553V114.426H158.553ZM185.881 114.426H186.881V113.426H185.881V114.426ZM185.881 121.38L186.616 122.058L186.881 121.771V121.38H185.881ZM169.045 139.619L168.31 138.941L166.761 140.619H169.045V139.619ZM186.369 139.619H187.369V138.619H186.369V139.619ZM186.369 146H158.614V148H186.369V146ZM159.614 147V140.168H157.614V147H159.614ZM159.354 140.841L176.129 122.419L174.65 121.073L157.875 139.495L159.354 140.841ZM175.389 120.746H158.553V122.746H175.389V120.746ZM159.553 121.746V114.426H157.553V121.746H159.553ZM158.553 115.426H185.881V113.426H158.553V115.426ZM184.881 114.426V121.38H186.881V114.426H184.881ZM185.146 120.702L168.31 138.941L169.78 140.297L186.616 122.058L185.146 120.702ZM169.045 140.619H186.369V138.619H169.045V140.619ZM185.369 139.619V147H187.369V139.619H185.369ZM198.953 147V148H199.953V147H198.953ZM190.474 147H189.474V148H190.474V147ZM190.474 103.202V102.202H189.474V103.202H190.474ZM198.953 103.202H199.953V102.202H198.953V103.202ZM198.953 128.212H197.953V130.902L199.71 128.865L198.953 128.212ZM210.848 114.426V113.426H210.39L210.091 113.773L210.848 114.426ZM220.608 114.426L221.365 115.079L222.793 113.426H220.608V114.426ZM207.127 130.042L206.37 129.389L205.798 130.051L206.38 130.706L207.127 130.042ZM222.194 147V148H224.42L222.942 146.336L222.194 147ZM211.397 147L210.625 147.635L210.925 148H211.397V147ZM198.953 131.872L199.726 131.237L197.953 129.082V131.872H198.953ZM198.953 146H190.474V148H198.953V146ZM191.474 147V103.202H189.474V147H191.474ZM190.474 104.202H198.953V102.202H190.474V104.202ZM197.953 103.202V128.212H199.953V103.202H197.953ZM199.71 128.865L211.605 115.079L210.091 113.773L198.196 127.559L199.71 128.865ZM210.848 115.426H220.608V113.426H210.848V115.426ZM219.851 113.773L206.37 129.389L207.884 130.695L221.365 115.079L219.851 113.773ZM206.38 130.706L221.447 147.664L222.942 146.336L207.875 129.378L206.38 130.706ZM222.194 146H211.397V148H222.194V146ZM212.17 146.365L199.726 131.237L198.181 132.507L210.625 147.635L212.17 146.365ZM197.953 131.872V147H199.953V131.872H197.953ZM255.072 138.948H256.072V137.948H255.072V138.948ZM255.072 147V148H256.072V147H255.072ZM225.609 147H224.609V148H225.609V147ZM225.609 103.202V102.202H224.609V103.202H225.609ZM254.645 103.202H255.645V102.202H254.645V103.202ZM254.645 111.254V112.254H255.645V111.254H254.645ZM234.881 111.254V110.254H233.881V111.254H234.881ZM234.881 120.465H233.881V121.465H234.881V120.465ZM252.815 120.465H253.815V119.465H252.815V120.465ZM252.815 128.456V129.456H253.815V128.456H252.815ZM234.881 128.456V127.456H233.881V128.456H234.881ZM234.881 138.948H233.881V139.948H234.881V138.948ZM254.072 138.948V147H256.072V138.948H254.072ZM255.072 146H225.609V148H255.072V146ZM226.609 147V103.202H224.609V147H226.609ZM225.609 104.202H254.645V102.202H225.609V104.202ZM253.645 103.202V111.254H255.645V103.202H253.645ZM254.645 110.254H234.881V112.254H254.645V110.254ZM233.881 111.254V120.465H235.881V111.254H233.881ZM234.881 121.465H252.815V119.465H234.881V121.465ZM251.815 120.465V128.456H253.815V120.465H251.815ZM252.815 127.456H234.881V129.456H252.815V127.456ZM233.881 128.456V138.948H235.881V128.456H233.881ZM234.881 139.948H255.072V137.948H234.881V139.948ZM298.723 103.202L299.663 103.542L300.149 102.202H298.723V103.202ZM282.863 147V148H283.565L283.803 147.34L282.863 147ZM272.737 147L271.796 147.338L272.034 148H272.737V147ZM256.999 103.202V102.202H255.577L256.058 103.54L256.999 103.202ZM267.003 103.202L267.951 102.883L267.722 102.202H267.003V103.202ZM278.105 136.203L277.157 136.522L278.095 139.309L279.051 136.528L278.105 136.203ZM289.451 103.202V102.202H288.737L288.505 102.877L289.451 103.202ZM297.783 102.862L281.923 146.66L283.803 147.34L299.663 103.542L297.783 102.862ZM282.863 146H272.737V148H282.863V146ZM273.678 146.662L257.94 102.864L256.058 103.54L271.796 147.338L273.678 146.662ZM256.999 104.202H267.003V102.202H256.999V104.202ZM266.055 103.521L277.157 136.522L279.053 135.884L267.951 102.883L266.055 103.521ZM279.051 136.528L290.397 103.527L288.505 102.877L277.159 135.878L279.051 136.528ZM289.451 104.202H298.723V102.202H289.451V104.202ZM320.573 147L319.643 147.367L319.892 148H320.573V147ZM309.105 117.903L310.035 117.536L308.105 117.903H309.105ZM309.105 147V148H310.105V147H309.105ZM300.687 147H299.687V148H300.687V147ZM300.687 103.202V102.202H299.687V103.202H300.687ZM311.789 103.202L312.72 102.838L312.472 102.202H311.789V103.202ZM324.477 135.654L323.546 136.018L324.475 138.395L325.408 136.02L324.477 135.654ZM337.226 103.202V102.202H336.544L336.295 102.836L337.226 103.202ZM348.328 103.202H349.328V102.202H348.328V103.202ZM348.328 147V148H349.328V147H348.328ZM339.91 147H338.91V148H339.91V147ZM339.91 117.659H340.91L338.98 117.292L339.91 117.659ZM328.32 147V148H329L329.25 147.367L328.32 147ZM321.503 146.633L310.035 117.536L308.175 118.27L319.643 147.367L321.503 146.633ZM308.105 117.903V147H310.105V117.903H308.105ZM309.105 146H300.687V148H309.105V146ZM301.687 147V103.202H299.687V147H301.687ZM300.687 104.202H311.789V102.202H300.687V104.202ZM310.858 103.566L323.546 136.018L325.408 135.29L312.72 102.838L310.858 103.566ZM325.408 136.02L338.157 103.568L336.295 102.836L323.546 135.288L325.408 136.02ZM337.226 104.202H348.328V102.202H337.226V104.202ZM347.328 103.202V147H349.328V103.202H347.328ZM348.328 146H339.91V148H348.328V146ZM340.91 147V117.659H338.91V147H340.91ZM338.98 117.292L327.39 146.633L329.25 147.367L340.84 118.026L338.98 117.292ZM328.32 146H320.573V148H328.32V146Z" fill="#333333" mask="url(#path-63-outside-1_2090_268)"/>
<circle cx="121.5" cy="124.5" r="29.5" fill="url(#paint0_linear_2090_268)"/>
<path d="M129.016 130.423L136.369 125.939C136.759 125.701 137 125.259 137 124.785V115.816C137 115.342 136.759 114.9 136.369 114.662L129.016 110.178C128.626 109.94 128.143 109.942 127.755 110.178L120.402 114.662C120.012 114.9 119.771 115.342 119.771 115.816V131.843L114.614 134.986L109.458 131.843V125.555L114.614 122.412L118.015 124.487V120.268L115.245 118.578C115.055 118.462 114.836 118.399 114.614 118.399C114.393 118.399 114.174 118.462 113.984 118.578L106.631 123.062C106.241 123.3 106 123.742 106 124.216V133.185C106 133.659 106.241 134.101 106.631 134.339L113.984 138.823C114.374 139.059 114.855 139.059 115.245 138.823L122.598 134.339C122.988 134.101 123.229 133.659 123.229 133.185V117.158L123.321 117.102L128.383 114.015L133.54 117.158V123.446L128.383 126.589L124.987 124.519V128.737L127.753 130.423C128.143 130.659 128.626 130.659 129.014 130.423H129.016Z" fill="url(#paint1_linear_2090_268)"/>
<defs>
<linearGradient id="paint0_linear_2090_268" x1="91.8083" y1="143.957" x2="151.715" y2="113.156" gradientUnits="userSpaceOnUse">
<stop stop-color="#A726C1"/>
<stop offset="0.88" stop-color="#803BDF"/>
<stop offset="1" stop-color="#7B3FE4"/>
</linearGradient>
<linearGradient id="paint1_linear_2090_268" x1="121.5" y1="110" x2="121.5" y2="168.5" gradientUnits="userSpaceOnUse">
<stop stop-color="white"/>
<stop offset="1" stop-color="white" stop-opacity="0"/>
</linearGradient>
</defs>
</svg>
